<?xml version="1.0" encoding="UTF-8" standalone="no"?>
<!-- Created with Inkscape (http://www.inkscape.org/) -->

<svg
   xmlns:dc="http://purl.org/dc/elements/1.1/"
   xmlns:cc="http://creativecommons.org/ns#"
   xmlns:rdf="http://www.w3.org/1999/02/22-rdf-syntax-ns#"
   xmlns:svg="http://www.w3.org/2000/svg"
   xmlns="http://www.w3.org/2000/svg"
   xmlns:sodipodi="http://sodipodi.sourceforge.net/DTD/sodipodi-0.dtd"
   xmlns:inkscape="http://www.inkscape.org/namespaces/inkscape"
   width="17.26675mm"
   height="16.837494mm"
   viewBox="0 0 17.26675 16.837494"
   version="1.1"
   id="svg9349"
   inkscape:version="0.92.2 2405546, 2018-03-11"
   sodipodi:docname="pv.svg">
  <defs
     id="defs9343" />
  <sodipodi:namedview
     id="base"
     pagecolor="#ffffff"
     bordercolor="#666666"
     borderopacity="1.0"
     inkscape:pageopacity="0.0"
     inkscape:pageshadow="2"
     inkscape:zoom="7.9195959"
     inkscape:cx="-34.050349"
     inkscape:cy="8.331963"
     inkscape:document-units="mm"
     inkscape:current-layer="layer1"
     showgrid="false"
     inkscape:window-width="2560"
     inkscape:window-height="1556"
     inkscape:window-x="0"
     inkscape:window-y="0"
     inkscape:window-maximized="1"
     fit-margin-top="0"
     fit-margin-left="0"
     fit-margin-right="0"
     fit-margin-bottom="0" />
  <metadata
     id="metadata9346">
    <rdf:RDF>
      <cc:Work
         rdf:about="">
        <dc:format>image/svg+xml</dc:format>
        <dc:type
           rdf:resource="http://purl.org/dc/dcmitype/StillImage" />
        <dc:title />
      </cc:Work>
    </rdf:RDF>
  </metadata>
  <g
     inkscape:label="Calque 1"
     inkscape:groupmode="layer"
     id="layer1"
     transform="translate(-1.70365,-1.252532)">
    <path
       id="path856"
       d="m 1.70365,12.07816 1.70998,-7.491566 6.9234,-3.334062 6.9234,3.334062 1.70997,7.491566 -4.79119,6.007793 H 6.49486 Z"
       inkscape:connector-curvature="0"
       style="fill:#326ce5;fill-opacity:1;fill-rule:evenodd;stroke:none;stroke-width:0.26458332;stroke-linecap:square;stroke-miterlimit:10" />
    <path
       id="path1114"
       d="m 5.63495,8.520225 v 0 c 0,0.621121 2.07254,1.124639 4.62917,1.124639 2.55661,0 4.62916,-0.503518 4.62916,-1.124639 v 3.042391 c 0,0.62112 -2.07255,1.124638 -4.62916,1.124638 -2.55663,0 -4.62917,-0.503518 -4.62917,-1.124638 z"
       inkscape:connector-curvature="0"
       style="fill:#eeeeee;fill-rule:evenodd;stroke:none;stroke-width:0.26458332;stroke-linecap:square;stroke-miterlimit:10" />
    <path
       id="path1116"
       d="m 5.63495,8.520225 v 0 c 0,-0.621119 2.07254,-1.124637 4.62917,-1.124637 2.55661,0 4.62916,0.503518 4.62916,1.124637 v 0 c 0,0.621121 -2.07255,1.124639 -4.62916,1.124639 -2.55663,0 -4.62917,-0.503518 -4.62917,-1.124639 z"
       inkscape:connector-curvature="0"
       style="fill:#f4f4f4;fill-rule:evenodd;stroke:none;stroke-width:0.26458332;stroke-linecap:square;stroke-miterlimit:10" />
    <path
       id="path1118"
       d="m 14.89328,8.520225 v 0 c 0,0.621121 -2.07255,1.124639 -4.62916,1.124639 -2.55662,0 -4.62917,-0.503518 -4.62917,-1.124639 v 0 c 0,-0.621119 2.07255,-1.124637 4.62917,-1.124637 2.55661,0 4.62916,0.503518 4.62916,1.124637 v 3.042391 c 0,0.62112 -2.07255,1.124638 -4.62916,1.124638 -2.55662,0 -4.62917,-0.503518 -4.62917,-1.124638 V 8.520225"
       inkscape:connector-curvature="0"
       style="fill:#000000;fill-opacity:0;fill-rule:evenodd;stroke:none;stroke-width:0.26458332;stroke-linecap:square;stroke-miterlimit:10" />
    <path
       id="path1120"
       d="m 14.89328,8.520225 v 0 c 0,0.621121 -2.07255,1.124639 -4.62916,1.124639 -2.55662,0 -4.62917,-0.503518 -4.62917,-1.124639 v 0 c 0,-0.621119 2.07255,-1.124637 4.62917,-1.124637 2.55661,0 4.62916,0.503518 4.62916,1.124637 v 3.042391 c 0,0.62112 -2.07255,1.124638 -4.62916,1.124638 -2.55662,0 -4.62917,-0.503518 -4.62917,-1.124638 V 8.520225"
       inkscape:connector-curvature="0"
       style="fill:none;fill-rule:evenodd;stroke:#326ce5;stroke-width:0.26458332;stroke-linecap:butt;stroke-linejoin:round;stroke-miterlimit:10;stroke-opacity:1" />
    <path
       id="path1122"
       d="m 4.94953,13.781691 h 10.775 v 4.308334 h -10.775 z"
       inkscape:connector-curvature="0"
       style="fill:#000000;fill-opacity:0;fill-rule:evenodd;stroke:none;stroke-width:0.26458332;stroke-linecap:square;stroke-miterlimit:10" />
  </g>
</svg>
