<?xml version="1.0" encoding="UTF-8" standalone="no"?>
<!-- Created with Inkscape (http://www.inkscape.org/) -->

<svg
   xmlns:dc="http://purl.org/dc/elements/1.1/"
   xmlns:cc="http://creativecommons.org/ns#"
   xmlns:rdf="http://www.w3.org/1999/02/22-rdf-syntax-ns#"
   xmlns:svg="http://www.w3.org/2000/svg"
   xmlns="http://www.w3.org/2000/svg"
   xmlns:sodipodi="http://sodipodi.sourceforge.net/DTD/sodipodi-0.dtd"
   xmlns:inkscape="http://www.inkscape.org/namespaces/inkscape"
   width="17.266743mm"
   height="16.837576mm"
   viewBox="0 0 17.266743 16.837576"
   version="1.1"
   id="svg12529"
   inkscape:version="0.92.2 2405546, 2018-03-11"
   sodipodi:docname="sts.svg">
  <defs
     id="defs12523" />
  <sodipodi:namedview
     id="base"
     pagecolor="#ffffff"
     bordercolor="#666666"
     borderopacity="1.0"
     inkscape:pageopacity="0.0"
     inkscape:pageshadow="2"
     inkscape:zoom="5.6"
     inkscape:cx="-51.783267"
     inkscape:cy="-27.450274"
     inkscape:document-units="mm"
     inkscape:current-layer="layer1"
     showgrid="false"
     inkscape:window-width="2560"
     inkscape:window-height="1556"
     inkscape:window-x="0"
     inkscape:window-y="0"
     inkscape:window-maximized="1"
     fit-margin-top="0"
     fit-margin-left="0"
     fit-margin-right="0"
     fit-margin-bottom="0" />
  <metadata
     id="metadata12526">
    <rdf:RDF>
      <cc:Work
         rdf:about="">
        <dc:format>image/svg+xml</dc:format>
        <dc:type
           rdf:resource="http://purl.org/dc/dcmitype/StillImage" />
        <dc:title />
      </cc:Work>
    </rdf:RDF>
  </metadata>
  <g
     inkscape:label="Calque 1"
     inkscape:groupmode="layer"
     id="layer1"
     transform="translate(-1.66648,-1.366554)">
    <path
       id="path988"
       d="m 1.66648,12.192182 1.709973,-7.491566 6.9234,-3.334062 6.923397,3.334062 1.709973,7.491566 -4.791197,6.007793 H 6.457677 Z"
       inkscape:connector-curvature="0"
       style="fill:#326ce5;fill-opacity:1;fill-rule:evenodd;stroke:none;stroke-width:0.26458332;stroke-linecap:square;stroke-miterlimit:10" />
    <path
       id="path990"
       d="M 4.912357,13.895797 H 15.687344 V 18.20413 H 4.912357 Z"
       inkscape:connector-curvature="0"
       style="fill:#000000;fill-opacity:0;fill-rule:evenodd;stroke:none;stroke-width:0.26458332;stroke-linecap:square;stroke-miterlimit:10" />
    <path
       id="path1234"
       d="m 8.821245,6.320002 h 6.525006 v 4.583334 H 8.821245 Z"
       inkscape:connector-curvature="0"
       style="fill:none;fill-rule:evenodd;stroke:#eeeeee;stroke-width:0.52914584;stroke-linecap:square;stroke-linejoin:round;stroke-miterlimit:10;stroke-dasharray:1.58743755, 1.58743755;stroke-dashoffset:3.66698074" />
    <path
       id="path1238"
       d="m 7.282497,7.731314 h 6.525006 v 4.583334 H 7.282497 Z"
       inkscape:connector-curvature="0"
       style="fill:#326ce5;fill-opacity:1;fill-rule:evenodd;stroke:#eeeeee;stroke-width:0.52914584;stroke-linecap:square;stroke-linejoin:round;stroke-miterlimit:10;stroke-dasharray:1.58743755, 1.58743755;stroke-dashoffset:3.87863898" />
    <path
       id="path1240"
       d="m 5.74377,9.142625 h 6.52499 v 4.583333 H 5.74377 Z"
       inkscape:connector-curvature="0"
       style="fill:#eeeeee;fill-rule:evenodd;stroke:none;stroke-width:0.26458332;stroke-linecap:square;stroke-miterlimit:10" />
    <path
       id="path1242"
       d="m 5.74377,9.142625 h 6.52499 v 4.583333 H 5.74377 Z"
       inkscape:connector-curvature="0"
       style="fill:none;fill-rule:evenodd;stroke:#eeeeee;stroke-width:0.52916664;stroke-linecap:butt;stroke-linejoin:round;stroke-miterlimit:10" />
    <path
       id="path1244"
       d="m 6.276932,10.416974 v 0 c 0,0.429405 1.221888,0.777506 2.729161,0.777506 1.507274,0 2.729178,-0.348101 2.729178,-0.777506 v 2.103322 c 0,0.429405 -1.221904,0.777506 -2.729178,0.777506 -1.507273,0 -2.729161,-0.348101 -2.729161,-0.777506 z"
       inkscape:connector-curvature="0"
       style="fill:#eeeeee;fill-rule:evenodd;stroke:none;stroke-width:0.26458332;stroke-linecap:square;stroke-miterlimit:10" />
    <path
       id="path1246"
       d="m 6.276932,10.416974 v 0 c 0,-0.429405 1.221888,-0.777505 2.729161,-0.777505 1.507274,0 2.729178,0.3481 2.729178,0.777505 v 0 c 0,0.429405 -1.221904,0.777506 -2.729178,0.777506 -1.507273,0 -2.729161,-0.348101 -2.729161,-0.777506 z"
       inkscape:connector-curvature="0"
       style="fill:#f4f4f4;fill-rule:evenodd;stroke:none;stroke-width:0.26458332;stroke-linecap:square;stroke-miterlimit:10" />
    <path
       id="path1248"
       d="m 11.735278,10.416974 v 0 c 0,0.429405 -1.221906,0.777506 -2.729177,0.777506 -1.507273,0 -2.729161,-0.348101 -2.729161,-0.777506 v 0 c 0,-0.429405 1.221888,-0.777505 2.729161,-0.777505 1.507273,0 2.729177,0.3481 2.729177,0.777505 v 2.103322 c 0,0.429405 -1.221906,0.777506 -2.729177,0.777506 -1.507273,0 -2.729161,-0.348101 -2.729161,-0.777506 v -2.103322"
       inkscape:connector-curvature="0"
       style="fill:#000000;fill-opacity:0;fill-rule:evenodd;stroke:none;stroke-width:0.26458332;stroke-linecap:square;stroke-miterlimit:10" />
    <path
       id="path1250"
       d="m 11.735278,10.416974 v 0 c 0,0.429405 -1.221906,0.777506 -2.729177,0.777506 -1.507273,0 -2.729161,-0.348101 -2.729161,-0.777506 v 0 c 0,-0.429405 1.221888,-0.777505 2.729161,-0.777505 1.507273,0 2.729177,0.3481 2.729177,0.777505 v 2.103322 c 0,0.429405 -1.221906,0.777506 -2.729177,0.777506 -1.507273,0 -2.729161,-0.348101 -2.729161,-0.777506 v -2.103322"
       inkscape:connector-curvature="0"
       style="fill:none;fill-rule:evenodd;stroke:#326ce5;stroke-width:0.52916664;stroke-linecap:butt;stroke-linejoin:round;stroke-miterlimit:10;stroke-opacity:1" />
  </g>
</svg>
