<?xml version="1.0" encoding="utf-8"?>
<!-- Generator: Adobe Illustrator 22.1.0, SVG Export Plug-In . SVG Version: 6.00 Build 0)  -->
<svg version="1.1" xmlns="http://www.w3.org/2000/svg" xmlns:xlink="http://www.w3.org/1999/xlink" x="0px" y="0px"
	 viewBox="0 0 800 800" style="enable-background:new 0 0 800 800;" xml:space="preserve">
<style type="text/css">
	.st0{fill:#326CE5;}
	.st1{fill:#FFFFFF;stroke:#326CE5;stroke-width:13;stroke-miterlimit:10;}
	.st2{fill:#FFFFFF;}
	.st3{fill:#FFFFFF;stroke:#326CE5;stroke-width:6.3561;stroke-miterlimit:10;}
</style>
<g id="Layer_2">
	<path class="st0" d="M710.6,445.9l-58.5-256.3c-1.1-4.6-4.2-8.5-8.4-10.6L406.8,64.9c-4.3-2.1-9.3-2.1-13.5,0L156.3,179
		c-4.3,2.1-7.4,6-8.4,10.6L89.4,445.9c-1.1,4.6,0.1,9.5,3,13.2l87.5,109.8h440.1l87.5-109.8C710.6,455.4,711.7,450.5,710.6,445.9z"
		/>
</g>
<g id="Layer_1">
	<g>
		<g>
			<g>
				<path class="st0" d="M708.4,653l33.2-51.2c1.3-2-0.1-4.6-2.5-4.6h-76c-1.7,0-3,1.3-3,3v94.6H660l-57.1,18.4
					c-1.1,0.4-0.8,2,0.3,2h136.1c2.3,0,3.8-2.6,2.6-4.6l-33.5-55.5C707.9,654.5,708,653.7,708.4,653z"/>
				<path class="st0" d="M641,694.8h-53.9v16.7c0,1.4,1.3,2.3,2.6,1.9l51.6-16.7C642.4,696.4,642.1,694.8,641,694.8z"/>
				<path class="st0" d="M140,692.6v-92.4c0-1.7-1.3-3-3-3H60.7c-2.3,0-3.8,2.6-2.6,4.5l33.5,55.5c0.4,0.7,0.4,1.5,0,2.1l-33.2,51.2
					c-1.3,2,0.1,4.6,2.5,4.6h142.5c1.2,0,1.4-1.6,0.3-2l-61.6-17.8C140.9,695.1,140,693.9,140,692.6z"/>
				<path class="st0" d="M212.9,711.8v-15c0-1.1-0.9-2-2-2h-49.9c-1.2,0-1.4,1.6-0.3,2L212.9,711.8z"/>
			</g>
			<path class="st0" d="M653.2,690.9H146.9c-1.7,0-3-1.3-3-3v-112c0-1.7,1.3-3,3-3h506.3c1.7,0,3,1.3,3,3v112
				C656.2,689.6,654.8,690.9,653.2,690.9z"/>
		</g>
		<g>
			<path class="st2" d="M218.2,632.1c1.2-1.3,2.4-2.6,3.7-4c1.3-1.4,2.5-2.8,3.7-4.1c1.2-1.4,2.3-2.7,3.4-3.9c1.1-1.2,2-2.3,2.7-3.2
				H246c-2.9,3.3-5.7,6.4-8.4,9.4c-2.7,3-5.7,6.1-9,9.3c1.6,1.5,3.3,3.2,5,5.2c1.7,2,3.4,4.1,5,6.3c1.6,2.2,3.1,4.3,4.5,6.5
				c1.3,2.2,2.5,4.1,3.4,5.9h-13.9c-0.9-1.4-1.8-3-3-4.7c-1.1-1.7-2.3-3.4-3.5-5.1s-2.5-3.3-3.9-4.9c-1.4-1.6-2.7-2.9-4.1-4v18.7
				h-12.1v-60.9l12.1-1.9V632.1z"/>
			<path class="st2" d="M288.6,657.9c-2.1,0.6-4.7,1.1-7.9,1.7c-3.2,0.5-6.6,0.8-10.2,0.8c-3.6,0-6.6-0.5-9-1.5
				c-2.4-1-4.3-2.3-5.7-4.1c-1.4-1.8-2.4-3.8-3-6.3c-0.6-2.4-0.9-5.1-0.9-8v-23.7h12.1v22.3c0,3.9,0.5,6.7,1.5,8.4
				c1,1.7,2.9,2.6,5.8,2.6c0.9,0,1.8,0,2.8-0.1s1.8-0.2,2.6-0.3v-32.9h12.1V657.9z"/>
			<path class="st2" d="M339.5,638.1c0,3.4-0.5,6.5-1.5,9.2c-1,2.8-2.4,5.1-4.3,7c-1.9,1.9-4.2,3.4-7,4.5c-2.8,1.1-5.9,1.6-9.4,1.6
				c-1.5,0-3-0.1-4.6-0.2c-1.6-0.1-3.2-0.3-4.7-0.5c-1.5-0.2-3-0.5-4.4-0.8c-1.4-0.3-2.6-0.6-3.7-0.9v-59.5l12.1-1.9v21.2
				c1.3-0.6,2.8-1.1,4.2-1.4c1.5-0.3,3-0.5,4.7-0.5c3,0,5.7,0.5,8,1.6c2.3,1.1,4.3,2.6,5.8,4.5c1.6,1.9,2.8,4.3,3.6,7
				C339.1,631.7,339.5,634.7,339.5,638.1z M327.2,637.8c0-7.8-2.9-11.7-8.6-11.7c-1.2,0-2.5,0.2-3.7,0.5c-1.2,0.3-2.2,0.7-3,1.2v22
				c0.6,0.1,1.3,0.2,2.3,0.3c0.9,0.1,1.9,0.1,3,0.1c3.3,0,5.8-1.1,7.5-3.4C326.4,644.5,327.2,641.5,327.2,637.8z"/>
			<path class="st2" d="M346.8,638.4c0-3.8,0.6-7.1,1.7-9.9c1.2-2.8,2.7-5.2,4.6-7.1c1.9-1.9,4.1-3.3,6.5-4.3c2.5-1,5-1.5,7.6-1.5
				c6,0,10.8,1.9,14.3,5.5c3.5,3.7,5.3,9.1,5.3,16.3c0,0.7,0,1.5-0.1,2.3c-0.1,0.8-0.1,1.6-0.2,2.2h-27.4c0.3,2.5,1.4,4.5,3.5,5.9
				c2.1,1.5,4.8,2.2,8.3,2.2c2.2,0,4.4-0.2,6.5-0.6c2.1-0.4,3.9-0.9,5.2-1.5l1.6,9.8c-0.6,0.3-1.5,0.6-2.6,1
				c-1.1,0.3-2.3,0.6-3.6,0.9c-1.3,0.2-2.7,0.4-4.3,0.6c-1.5,0.2-3,0.2-4.5,0.2c-3.8,0-7.2-0.6-10-1.7c-2.8-1.1-5.2-2.7-7-4.7
				c-1.9-2-3.2-4.3-4.1-7C347.3,644.5,346.8,641.6,346.8,638.4z M375.2,633.8c-0.1-1-0.2-2-0.5-3c-0.3-1-0.8-1.8-1.4-2.6
				c-0.6-0.8-1.4-1.4-2.3-1.9c-0.9-0.5-2.1-0.7-3.5-0.7c-1.4,0-2.5,0.2-3.5,0.7c-1,0.5-1.8,1.1-2.4,1.8c-0.6,0.8-1.1,1.6-1.5,2.6
				c-0.4,1-0.6,2-0.8,3H375.2z"/>
			<path class="st2" d="M413.6,638.1c0-3.1,0.5-6,1.5-8.7c1-2.7,2.4-5.1,4.3-7.1s4.2-3.6,6.9-4.8c2.7-1.2,5.8-1.8,9.2-1.8
				c2.3,0,4.3,0.2,6.2,0.6c1.9,0.4,3.7,1,5.5,1.7l-2.5,9.6c-1.1-0.4-2.4-0.8-3.7-1.1c-1.4-0.3-2.9-0.5-4.5-0.5c-3.6,0-6.2,1.1-8,3.3
				c-1.8,2.2-2.6,5.1-2.6,8.8c0,3.8,0.8,6.8,2.5,8.9s4.5,3.2,8.6,3.2c1.5,0,3-0.1,4.7-0.4c1.7-0.3,3.2-0.7,4.6-1.3l1.7,9.9
				c-1.4,0.6-3.2,1.1-5.3,1.5c-2.1,0.4-4.4,0.6-7,0.6c-3.9,0-7.2-0.6-10-1.7c-2.8-1.2-5.1-2.7-6.9-4.7s-3.1-4.4-4-7.1
				C414,644.2,413.6,641.3,413.6,638.1z"/>
			<path class="st2" d="M481.8,627.5c-1.1-0.3-2.3-0.6-3.8-0.9c-1.5-0.3-3-0.4-4.7-0.4c-0.8,0-1.7,0.1-2.7,0.2
				c-1.1,0.1-1.9,0.3-2.4,0.4v32.6h-12.1v-40.3c2.2-0.8,4.7-1.5,7.7-2.1c2.9-0.7,6.2-1,9.8-1c0.6,0,1.4,0,2.3,0.1
				c0.9,0.1,1.8,0.2,2.8,0.3c0.9,0.1,1.8,0.3,2.8,0.5c0.9,0.2,1.7,0.4,2.3,0.7L481.8,627.5z"/>
			<path class="st2" d="M487.5,638.4c0-3.8,0.6-7.1,1.7-9.9c1.2-2.8,2.7-5.2,4.6-7.1c1.9-1.9,4.1-3.3,6.5-4.3c2.5-1,5-1.5,7.6-1.5
				c6,0,10.8,1.9,14.3,5.5c3.5,3.7,5.3,9.1,5.3,16.3c0,0.7,0,1.5-0.1,2.3c-0.1,0.8-0.1,1.6-0.2,2.2h-27.4c0.3,2.5,1.4,4.5,3.5,5.9
				c2.1,1.5,4.8,2.2,8.3,2.2c2.2,0,4.4-0.2,6.5-0.6c2.1-0.4,3.9-0.9,5.2-1.5l1.6,9.8c-0.6,0.3-1.5,0.6-2.6,1
				c-1.1,0.3-2.3,0.6-3.6,0.9c-1.3,0.2-2.7,0.4-4.3,0.6c-1.5,0.2-3,0.2-4.5,0.2c-3.8,0-7.2-0.6-10-1.7c-2.8-1.1-5.2-2.7-7-4.7
				c-1.9-2-3.2-4.3-4.1-7C487.9,644.5,487.5,641.6,487.5,638.4z M515.8,633.8c-0.1-1-0.2-2-0.5-3c-0.3-1-0.8-1.8-1.4-2.6
				c-0.6-0.8-1.4-1.4-2.3-1.9c-0.9-0.5-2.1-0.7-3.5-0.7c-1.4,0-2.5,0.2-3.5,0.7c-1,0.5-1.8,1.1-2.4,1.8c-0.6,0.8-1.1,1.6-1.5,2.6
				c-0.4,1-0.6,2-0.8,3H515.8z"/>
			<path class="st2" d="M562.8,634.9c-1.1,4.1-2.2,8.2-3.4,12.2c-1.2,4.1-2.5,8.1-3.8,12.2h-9.4c-1-2.3-2-5-3.2-8.1
				c-1.1-3.1-2.3-6.5-3.5-10.2c-1.2-3.7-2.5-7.6-3.7-11.7s-2.5-8.3-3.7-12.5h12.7c0.4,1.9,0.9,4.1,1.4,6.4c0.5,2.3,1.1,4.7,1.6,7.1
				c0.6,2.4,1.2,4.9,1.8,7.3c0.6,2.5,1.3,4.8,1.9,7.1c0.7-2.4,1.4-4.8,2.1-7.3c0.7-2.5,1.3-4.9,1.9-7.3c0.6-2.4,1.2-4.7,1.8-7
				c0.6-2.2,1.1-4.3,1.5-6.3h8.8c0.4,1.9,0.9,4,1.5,6.3c0.5,2.2,1.1,4.6,1.7,7c0.6,2.4,1.2,4.8,1.9,7.3c0.6,2.5,1.3,4.9,2,7.3
				c0.7-2.3,1.3-4.6,2-7.1c0.7-2.5,1.3-4.9,1.8-7.3c0.6-2.4,1.1-4.8,1.6-7.1c0.5-2.3,1-4.4,1.4-6.4h12.6c-1.2,4.2-2.4,8.4-3.7,12.5
				s-2.5,8-3.7,11.7c-1.2,3.7-2.4,7.1-3.6,10.2c-1.2,3.1-2.2,5.8-3.2,8.1h-9.4c-1.4-4.1-2.7-8.2-4-12.2
				C565,643.1,563.8,639,562.8,634.9z"/>
		</g>
		<g>
			<g>
				<g>
					<path class="st3" d="M404.7,97.8c-0.9,1.4-1.8,2.4-2.7,3.4c-0.9,0.9-1.8,1.7-2.6,2.3c-1.7,1.3-3.4,2-5.1,2.4
						c-3.4,0.8-6.6,0.1-9.8-1c-3.2-1.2-6.4-2.9-9.6-4.6c-1.6-0.9-3.2-1.7-4.8-2.5c-0.8-0.4-1.6-0.8-2.4-1.2
						c-0.8-0.4-1.6-0.8-2.4-1.3c0.9-1.4,1.8-2.4,2.7-3.4c0.9-0.9,1.8-1.7,2.6-2.3c1.7-1.3,3.4-2,5.1-2.4c3.4-0.8,6.6-0.1,9.8,1
						c3.2,1.2,6.4,2.9,9.6,4.6c1.6,0.9,3.2,1.7,4.8,2.5c0.8,0.4,1.6,0.8,2.4,1.2C403.1,96.8,403.9,97.2,404.7,97.8z"/>
					<path class="st3" d="M387.8,105.9c-0.9,1.4-1.8,2.4-2.7,3.4c-0.9,0.9-1.8,1.7-2.6,2.3c-1.7,1.3-3.4,2-5.1,2.4
						c-3.4,0.8-6.6,0.1-9.8-1c-3.2-1.2-6.4-2.9-9.6-4.6c-1.6-0.9-3.2-1.7-4.8-2.5c-0.8-0.4-1.6-0.8-2.4-1.2
						c-0.8-0.4-1.6-0.8-2.4-1.3c0.9-1.4,1.8-2.4,2.7-3.4c0.9-0.9,1.8-1.7,2.6-2.3c1.7-1.3,3.4-2,5.1-2.4c3.4-0.8,6.6-0.1,9.8,1
						c3.2,1.2,6.4,2.9,9.6,4.6c1.6,0.9,3.2,1.7,4.8,2.5c0.8,0.4,1.6,0.8,2.4,1.2C386.2,105,387,105.4,387.8,105.9z"/>
				</g>
				<g>
					<path class="st3" d="M388.1,105.7c-0.9,1.4-1.8,2.4-2.7,3.4c-0.9,0.9-1.8,1.7-2.6,2.3c-1.7,1.3-3.4,2-5.1,2.4
						c-3.4,0.8-6.6,0.1-9.8-1c-3.2-1.2-6.4-2.9-9.6-4.6c-1.6-0.9-3.2-1.7-4.8-2.5c-0.8-0.4-1.6-0.8-2.4-1.2
						c-0.8-0.4-1.6-0.8-2.4-1.3c0.9-1.4,1.8-2.4,2.7-3.4c0.9-0.9,1.8-1.7,2.6-2.3c1.7-1.3,3.4-2,5.1-2.4c3.4-0.8,6.6-0.1,9.8,1
						c3.2,1.2,6.4,2.9,9.6,4.6c1.6,0.9,3.2,1.7,4.8,2.5c0.8,0.4,1.6,0.8,2.4,1.2C386.5,104.8,387.3,105.2,388.1,105.7z"/>
					<path class="st3" d="M371.2,113.9c-0.9,1.4-1.8,2.4-2.7,3.4c-0.9,0.9-1.8,1.7-2.6,2.3c-1.7,1.3-3.4,2-5.1,2.4
						c-3.4,0.8-6.6,0.1-9.8-1c-3.2-1.2-6.4-2.9-9.6-4.6c-1.6-0.9-3.2-1.7-4.8-2.5c-0.8-0.4-1.6-0.8-2.4-1.2
						c-0.8-0.4-1.6-0.8-2.4-1.3c0.9-1.4,1.8-2.4,2.7-3.4c0.9-0.9,1.8-1.7,2.6-2.3c1.7-1.3,3.4-2,5.1-2.4c3.4-0.8,6.6-0.1,9.8,1
						c3.2,1.2,6.4,2.9,9.6,4.6c1.6,0.9,3.2,1.7,4.8,2.5c0.8,0.4,1.6,0.8,2.4,1.2C369.7,113,370.5,113.3,371.2,113.9z"/>
				</g>
				<g>
					<path class="st3" d="M371.5,113.7c-0.9,1.4-1.8,2.4-2.7,3.4c-0.9,0.9-1.8,1.7-2.6,2.3c-1.7,1.3-3.4,2-5.1,2.4
						c-3.4,0.8-6.6,0.1-9.8-1c-3.2-1.2-6.4-2.9-9.6-4.6c-1.6-0.9-3.2-1.7-4.8-2.5c-0.8-0.4-1.6-0.8-2.4-1.2
						c-0.8-0.4-1.6-0.8-2.4-1.3c0.9-1.4,1.8-2.4,2.7-3.4c0.9-0.9,1.8-1.7,2.6-2.3c1.7-1.3,3.4-2,5.1-2.4c3.4-0.8,6.6-0.1,9.8,1
						c3.2,1.2,6.4,2.9,9.6,4.6c1.6,0.9,3.2,1.7,4.8,2.5c0.8,0.4,1.6,0.8,2.4,1.2C370,112.8,370.8,113.2,371.5,113.7z"/>
					<path class="st3" d="M354.7,121.8c-0.9,1.4-1.8,2.4-2.7,3.4c-0.9,0.9-1.8,1.7-2.6,2.3c-1.7,1.3-3.4,2-5.1,2.4
						c-3.4,0.8-6.6,0.1-9.8-1c-3.2-1.2-6.4-2.9-9.6-4.6c-1.6-0.9-3.2-1.7-4.8-2.5c-0.8-0.4-1.6-0.8-2.4-1.2
						c-0.8-0.4-1.6-0.8-2.4-1.3c0.9-1.4,1.8-2.4,2.7-3.4c0.9-0.9,1.8-1.7,2.6-2.3c1.7-1.3,3.4-2,5.1-2.4c3.4-0.8,6.6-0.1,9.8,1
						c3.2,1.2,6.4,2.9,9.6,4.6c1.6,0.9,3.2,1.7,4.8,2.5c0.8,0.4,1.6,0.8,2.4,1.2C353.1,120.9,353.9,121.3,354.7,121.8z"/>
				</g>
				<g>
					<path class="st3" d="M355,121.7c-0.9,1.4-1.8,2.4-2.7,3.4c-0.9,0.9-1.8,1.7-2.6,2.3c-1.7,1.3-3.4,2-5.1,2.4
						c-3.4,0.8-6.6,0.1-9.8-1c-3.2-1.2-6.4-2.9-9.6-4.6c-1.6-0.9-3.2-1.7-4.8-2.5c-0.8-0.4-1.6-0.8-2.4-1.2
						c-0.8-0.4-1.6-0.8-2.4-1.3c0.9-1.4,1.8-2.4,2.7-3.4c0.9-0.9,1.8-1.7,2.6-2.3c1.7-1.3,3.4-2,5.1-2.4c3.4-0.8,6.6-0.1,9.8,1
						c3.2,1.2,6.4,2.9,9.6,4.6c1.6,0.9,3.2,1.7,4.8,2.5c0.8,0.4,1.6,0.8,2.4,1.2C353.4,120.8,354.2,121.2,355,121.7z"/>
					<path class="st3" d="M338.1,129.8c-0.9,1.4-1.8,2.4-2.7,3.4c-0.9,0.9-1.8,1.7-2.6,2.3c-1.7,1.3-3.4,2-5.1,2.4
						c-3.4,0.8-6.6,0.1-9.8-1c-3.2-1.2-6.4-2.9-9.6-4.6c-1.6-0.9-3.2-1.7-4.8-2.5c-0.8-0.4-1.6-0.8-2.4-1.2
						c-0.8-0.4-1.6-0.8-2.4-1.3c0.9-1.4,1.8-2.4,2.7-3.4c0.9-0.9,1.8-1.7,2.6-2.3c1.7-1.3,3.4-2,5.1-2.4c3.4-0.8,6.6-0.1,9.8,1
						c3.2,1.2,6.4,2.9,9.6,4.6c1.6,0.9,3.2,1.7,4.8,2.5c0.8,0.4,1.6,0.8,2.4,1.2C336.5,128.9,337.3,129.3,338.1,129.8z"/>
				</g>
				<g>
					<path class="st3" d="M338.4,129.7c-0.9,1.4-1.8,2.4-2.7,3.4c-0.9,0.9-1.8,1.7-2.6,2.3c-1.7,1.3-3.4,2-5.1,2.4
						c-3.4,0.8-6.6,0.1-9.8-1c-3.2-1.2-6.4-2.9-9.6-4.6c-1.6-0.9-3.2-1.7-4.8-2.5c-0.8-0.4-1.6-0.8-2.4-1.2
						c-0.8-0.4-1.6-0.8-2.4-1.3c0.9-1.4,1.8-2.4,2.7-3.4c0.9-0.9,1.8-1.7,2.6-2.3c1.7-1.3,3.4-2,5.1-2.4c3.4-0.8,6.6-0.1,9.8,1
						c3.2,1.2,6.4,2.9,9.6,4.6c1.6,0.9,3.2,1.7,4.8,2.5c0.8,0.4,1.6,0.8,2.4,1.2C336.8,128.8,337.6,129.2,338.4,129.7z"/>
					<path class="st3" d="M321.5,137.8c-0.9,1.4-1.8,2.4-2.7,3.4c-0.9,0.9-1.8,1.7-2.6,2.3c-1.7,1.3-3.4,2-5.1,2.4
						c-3.4,0.8-6.6,0.1-9.8-1c-3.2-1.2-6.4-2.9-9.6-4.6c-1.6-0.9-3.2-1.7-4.8-2.5c-0.8-0.4-1.6-0.8-2.4-1.2
						c-0.8-0.4-1.6-0.8-2.4-1.3c0.9-1.4,1.8-2.4,2.7-3.4c0.9-0.9,1.8-1.7,2.6-2.3c1.7-1.3,3.4-2,5.1-2.4c3.4-0.8,6.6-0.1,9.8,1
						c3.2,1.2,6.4,2.9,9.6,4.6c1.6,0.9,3.2,1.7,4.8,2.5c0.8,0.4,1.6,0.8,2.4,1.2C319.9,136.9,320.7,137.3,321.5,137.8z"/>
				</g>
				<g>
					<path class="st3" d="M321.8,137.7c-0.9,1.4-1.8,2.4-2.7,3.4c-0.9,0.9-1.8,1.7-2.6,2.3c-1.7,1.3-3.4,2-5.1,2.4
						c-3.4,0.8-6.6,0.1-9.8-1c-3.2-1.2-6.4-2.9-9.6-4.6c-1.6-0.9-3.2-1.7-4.8-2.5c-0.8-0.4-1.6-0.8-2.4-1.2
						c-0.8-0.4-1.6-0.8-2.4-1.3c0.9-1.4,1.8-2.4,2.7-3.4c0.9-0.9,1.8-1.7,2.6-2.3c1.7-1.3,3.4-2,5.1-2.4c3.4-0.8,6.6-0.1,9.8,1
						c3.2,1.2,6.4,2.9,9.6,4.6c1.6,0.9,3.2,1.7,4.8,2.5c0.8,0.4,1.6,0.8,2.4,1.2C320.2,136.7,321,137.1,321.8,137.7z"/>
					<path class="st3" d="M305,145.8c-0.9,1.4-1.8,2.4-2.7,3.4c-0.9,0.9-1.8,1.7-2.6,2.3c-1.7,1.3-3.4,2-5.1,2.4
						c-3.4,0.8-6.6,0.1-9.8-1c-3.2-1.2-6.4-2.9-9.6-4.6c-1.6-0.9-3.2-1.7-4.8-2.5c-0.8-0.4-1.6-0.8-2.4-1.2
						c-0.8-0.4-1.6-0.8-2.4-1.3c0.9-1.4,1.8-2.4,2.7-3.4c0.9-0.9,1.8-1.7,2.6-2.3c1.7-1.3,3.4-2,5.1-2.4c3.4-0.8,6.6-0.1,9.8,1
						c3.2,1.2,6.4,2.9,9.6,4.6c1.6,0.9,3.2,1.7,4.8,2.5c0.8,0.4,1.6,0.8,2.4,1.2C303.4,144.9,304.2,145.3,305,145.8z"/>
				</g>
				<g>
					<path class="st3" d="M305.3,145.6c-0.9,1.4-1.8,2.4-2.7,3.4c-0.9,0.9-1.8,1.7-2.6,2.3c-1.7,1.3-3.4,2-5.1,2.4
						c-3.4,0.8-6.6,0.1-9.8-1c-3.2-1.2-6.4-2.9-9.6-4.6c-1.6-0.9-3.2-1.7-4.8-2.5c-0.8-0.4-1.6-0.8-2.4-1.2
						c-0.8-0.4-1.6-0.8-2.4-1.3c0.9-1.4,1.8-2.4,2.7-3.4c0.9-0.9,1.8-1.7,2.6-2.3c1.7-1.3,3.4-2,5.1-2.4c3.4-0.8,6.6-0.1,9.8,1
						c3.2,1.2,6.4,2.9,9.6,4.6c1.6,0.9,3.2,1.7,4.8,2.5c0.8,0.4,1.6,0.8,2.4,1.2C303.7,144.7,304.5,145.1,305.3,145.6z"/>
					<path class="st3" d="M288.4,153.8c-0.9,1.4-1.8,2.4-2.7,3.4c-0.9,0.9-1.8,1.7-2.6,2.3c-1.7,1.3-3.4,2-5.1,2.4
						c-3.4,0.8-6.6,0.1-9.8-1c-3.2-1.2-6.4-2.9-9.6-4.6c-1.6-0.9-3.2-1.7-4.8-2.5c-0.8-0.4-1.6-0.8-2.4-1.2
						c-0.8-0.4-1.6-0.8-2.4-1.3c0.9-1.4,1.8-2.4,2.7-3.4c0.9-0.9,1.8-1.7,2.6-2.3c1.7-1.3,3.4-2,5.1-2.4c3.4-0.8,6.6-0.1,9.8,1
						c3.2,1.2,6.4,2.9,9.6,4.6c1.6,0.9,3.2,1.7,4.8,2.5c0.8,0.4,1.6,0.8,2.4,1.2C286.8,152.8,287.6,153.2,288.4,153.8z"/>
				</g>
				<g>
					<path class="st3" d="M288.7,153.6c-0.9,1.4-1.8,2.4-2.7,3.4c-0.9,0.9-1.8,1.7-2.6,2.3c-1.7,1.3-3.4,2-5.1,2.4
						c-3.4,0.8-6.6,0.1-9.8-1c-3.2-1.2-6.4-2.9-9.6-4.6c-1.6-0.9-3.2-1.7-4.8-2.5c-0.8-0.4-1.6-0.8-2.4-1.2
						c-0.8-0.4-1.6-0.8-2.4-1.3c0.9-1.4,1.8-2.4,2.7-3.4c0.9-0.9,1.8-1.7,2.6-2.3c1.7-1.3,3.4-2,5.1-2.4c3.4-0.8,6.6-0.1,9.8,1
						c3.2,1.2,6.4,2.9,9.6,4.6c1.6,0.9,3.2,1.7,4.8,2.5c0.8,0.4,1.6,0.8,2.4,1.2C287.1,152.7,287.9,153.1,288.7,153.6z"/>
					<path class="st3" d="M271.8,161.7c-0.9,1.4-1.8,2.4-2.7,3.4c-0.9,0.9-1.8,1.7-2.6,2.3c-1.7,1.3-3.4,2-5.1,2.4
						c-3.4,0.8-6.6,0.1-9.8-1c-3.2-1.2-6.4-2.9-9.6-4.6c-1.6-0.9-3.2-1.7-4.8-2.5c-0.8-0.4-1.6-0.8-2.4-1.2
						c-0.8-0.4-1.6-0.8-2.4-1.3c0.9-1.4,1.8-2.4,2.7-3.4c0.9-0.9,1.8-1.7,2.6-2.3c1.7-1.3,3.4-2,5.1-2.4c3.4-0.8,6.6-0.1,9.8,1
						c3.2,1.2,6.4,2.9,9.6,4.6c1.6,0.9,3.2,1.7,4.8,2.5c0.8,0.4,1.6,0.8,2.4,1.2C270.2,160.8,271,161.2,271.8,161.7z"/>
				</g>
				<g>
					<path class="st3" d="M272.1,161.6c-0.9,1.4-1.8,2.4-2.7,3.4c-0.9,0.9-1.8,1.7-2.6,2.3c-1.7,1.3-3.4,2-5.1,2.4
						c-3.4,0.8-6.6,0.1-9.8-1c-3.2-1.2-6.4-2.9-9.6-4.6c-1.6-0.9-3.2-1.7-4.8-2.5c-0.8-0.4-1.6-0.8-2.4-1.2
						c-0.8-0.4-1.6-0.8-2.4-1.3c0.9-1.4,1.8-2.4,2.7-3.4c0.9-0.9,1.8-1.7,2.6-2.3c1.7-1.3,3.4-2,5.1-2.4c3.4-0.8,6.6-0.1,9.8,1
						c3.2,1.2,6.4,2.9,9.6,4.6c1.6,0.9,3.2,1.7,4.8,2.5c0.8,0.4,1.6,0.8,2.4,1.2C270.5,160.7,271.3,161.1,272.1,161.6z"/>
					<path class="st3" d="M255.3,169.7c-0.9,1.4-1.8,2.4-2.7,3.4c-0.9,0.9-1.8,1.7-2.6,2.3c-1.7,1.3-3.4,2-5.1,2.4
						c-3.4,0.8-6.6,0.1-9.8-1c-3.2-1.2-6.4-2.9-9.6-4.6c-1.6-0.9-3.2-1.7-4.8-2.5c-0.8-0.4-1.6-0.8-2.4-1.2
						c-0.8-0.4-1.6-0.8-2.4-1.3c0.9-1.4,1.8-2.4,2.7-3.4c0.9-0.9,1.8-1.7,2.6-2.3c1.7-1.3,3.4-2,5.1-2.4c3.4-0.8,6.6-0.1,9.8,1
						c3.2,1.2,6.4,2.9,9.6,4.6c1.6,0.9,3.2,1.7,4.8,2.5c0.8,0.4,1.6,0.8,2.4,1.2C253.7,168.8,254.5,169.2,255.3,169.7z"/>
				</g>
				<g>
					<path class="st3" d="M255.6,169.6c-0.9,1.4-1.8,2.4-2.7,3.4c-0.9,0.9-1.8,1.7-2.6,2.3c-1.7,1.3-3.4,2-5.1,2.4
						c-3.4,0.8-6.6,0.1-9.8-1c-3.2-1.2-6.4-2.9-9.6-4.6c-1.6-0.9-3.2-1.7-4.8-2.5c-0.8-0.4-1.6-0.8-2.4-1.2
						c-0.8-0.4-1.6-0.8-2.4-1.3c0.9-1.4,1.8-2.4,2.7-3.4c0.9-0.9,1.8-1.7,2.6-2.3c1.7-1.3,3.4-2,5.1-2.4c3.4-0.8,6.6-0.1,9.8,1
						c3.2,1.2,6.4,2.9,9.6,4.6c1.6,0.9,3.2,1.7,4.8,2.5c0.8,0.4,1.6,0.8,2.4,1.2C254,168.7,254.8,169.1,255.6,169.6z"/>
					<path class="st3" d="M238.7,177.7c-0.9,1.4-1.8,2.4-2.7,3.4c-0.9,0.9-1.8,1.7-2.6,2.3c-1.7,1.3-3.4,2-5.1,2.4
						c-3.4,0.8-6.6,0.1-9.8-1c-3.2-1.2-6.4-2.9-9.6-4.6c-1.6-0.9-3.2-1.7-4.8-2.5c-0.8-0.4-1.6-0.8-2.4-1.2
						c-0.8-0.4-1.6-0.8-2.4-1.3c0.9-1.4,1.8-2.4,2.7-3.4c0.9-0.9,1.8-1.7,2.6-2.3c1.7-1.3,3.4-2,5.1-2.4c3.4-0.8,6.6-0.1,9.8,1
						c3.2,1.2,6.4,2.9,9.6,4.6c1.6,0.9,3.2,1.7,4.8,2.5c0.8,0.4,1.6,0.8,2.4,1.2C237.1,176.8,237.9,177.2,238.7,177.7z"/>
				</g>
				<g>
					<path class="st3" d="M239,177.5c-0.9,1.4-1.8,2.4-2.7,3.4c-0.9,0.9-1.8,1.7-2.6,2.3c-1.7,1.3-3.4,2-5.1,2.4
						c-3.4,0.8-6.6,0.1-9.8-1c-3.2-1.2-6.4-2.9-9.6-4.6c-1.6-0.9-3.2-1.7-4.8-2.5c-0.8-0.4-1.6-0.8-2.4-1.2
						c-0.8-0.4-1.6-0.8-2.4-1.3c0.9-1.4,1.8-2.4,2.7-3.4c0.9-0.9,1.8-1.7,2.6-2.3c1.7-1.3,3.4-2,5.1-2.4c3.4-0.8,6.6-0.1,9.8,1
						c3.2,1.2,6.4,2.9,9.6,4.6c1.6,0.9,3.2,1.7,4.8,2.5c0.8,0.4,1.6,0.8,2.4,1.2C237.4,176.6,238.2,177,239,177.5z"/>
					<path class="st3" d="M222.1,185.7c-0.9,1.4-1.8,2.4-2.7,3.4c-0.9,0.9-1.8,1.7-2.6,2.3c-1.7,1.3-3.4,2-5.1,2.4
						c-3.4,0.8-6.6,0.1-9.8-1c-3.2-1.2-6.4-2.9-9.6-4.6c-1.6-0.9-3.2-1.7-4.8-2.5c-0.8-0.4-1.6-0.8-2.4-1.2
						c-0.8-0.4-1.6-0.8-2.4-1.3c0.9-1.4,1.8-2.4,2.7-3.4c0.9-0.9,1.8-1.7,2.6-2.3c1.7-1.3,3.4-2,5.1-2.4c3.4-0.8,6.6-0.1,9.8,1
						c3.2,1.2,6.4,2.9,9.6,4.6c1.6,0.9,3.2,1.7,4.8,2.5c0.8,0.4,1.6,0.8,2.4,1.2C220.5,184.8,221.3,185.2,222.1,185.7z"/>
				</g>
				<g>
					<path class="st3" d="M222.4,185.5c-0.9,1.4-1.8,2.4-2.7,3.4c-0.9,0.9-1.8,1.7-2.6,2.3c-1.7,1.3-3.4,2-5.1,2.4
						c-3.4,0.8-6.6,0.1-9.8-1c-3.2-1.2-6.4-2.9-9.6-4.6c-1.6-0.9-3.2-1.7-4.8-2.5c-0.8-0.4-1.6-0.8-2.4-1.2
						c-0.8-0.4-1.6-0.8-2.4-1.3c0.9-1.4,1.8-2.4,2.7-3.4c0.9-0.9,1.8-1.7,2.6-2.3c1.7-1.3,3.4-2,5.1-2.4c3.4-0.8,6.6-0.1,9.8,1
						c3.2,1.2,6.4,2.9,9.6,4.6c1.6,0.9,3.2,1.7,4.8,2.5c0.8,0.4,1.6,0.8,2.4,1.2C220.8,184.6,221.6,185,222.4,185.5z"/>
					<path class="st3" d="M205.5,193.7c-0.9,1.4-1.8,2.4-2.7,3.4c-0.9,0.9-1.8,1.7-2.6,2.3c-2.7,2-5.4,2.7-8,2.8
						c-1.7,0-3.3-0.3-4.9-0.7c-3.9-1.1-7.7-3.2-11.6-5.3c-1.6-0.9-3.2-1.7-4.8-2.5c-0.8-0.4-1.6-0.8-2.4-1.2
						c-0.8-0.4-4.4,5.2-5.2,4.7c0.9-1.4,4.9-8.6,5.6-9.4c0.8-1,1.8-1.7,2.6-2.3c2.7-2,5.4-2.7,8-2.8c1.7,0,3.3,0.3,4.9,0.7
						c3.9,1.1,7.7,3.2,11.6,5.3c1.6,0.9,3.2,1.7,4.8,2.5c0.8,0.4,1.6,0.8,2.4,1.2C204,192.7,204.8,193.1,205.5,193.7z"/>
				</g>
				<g>
					<path class="st3" d="M205.8,193.5c-0.9,1.4-1.8,2.4-2.7,3.4c-0.9,0.9-1.8,1.7-2.6,2.3c-1.7,1.3-3.4,2-5.1,2.4
						c-1.7,0.4-3.3,0.4-5,0.2c-1.3-0.4-2.6-0.9-4.1-1.5c-2.9-1.1-6.2-2.3-9.8-2.9c-1.8-0.3-3.6-0.5-5.6-0.6c-0.9,0-1.9,0-2.9,0.1
						c-1,0-1.9,0.2-3,0.2c0.4-2,1.1-3.6,1.8-5.1c0.8-1.5,1.7-2.7,2.6-3.9c1.9-2.2,4.1-3.6,6.2-4.6c1.1-0.4,2.1-0.8,3.2-0.9
						c1-0.2,2.1-0.3,2.9-0.1c1.6,0.2,3.3,0.7,4.9,1.3c3.2,1.2,6.4,2.9,9.6,4.6c1.6,0.8,3.2,1.7,4.8,2.5l2.4,1.2
						C204.3,192.6,205.1,193,205.8,193.5z"/>
					<path class="st3" d="M189.3,201.5c-0.5,1.2-1,2.1-1.4,3c-0.4,0.8-0.8,1.5-1.2,2.1c-0.8,1.1-1.6,1.9-2.6,2.5
						c-1.9,1.1-4.6,1.5-7.6,2.1c-3,0.5-6.5,1.2-9.9,2.5c-1.7,0.6-3.4,1.5-5,2.2l-2.4,1.1c-0.8,0.4-1.6,0.7-2.5,1
						c-0.5-1.6-0.8-2.9-0.9-4.2l-0.1-0.5l0-0.6c0-0.4,0-0.8,0-1.2c0-0.8,0.1-1.5,0.3-2.2c0.5-2.9,1.6-5.2,3-7.1
						c2.8-3.7,6.6-5.5,10.3-6c3.8-0.6,7.5,0,10.9,1c1.7,0.5,3.3,1.1,4.9,1.9c0.8,0.3,1.5,0.8,2.2,1.1
						C187.9,200.5,188.6,201,189.3,201.5z"/>
				</g>
				<g>
					<path class="st3" d="M189.5,201.4c-0.5,1.2-1,2.1-1.4,3c-0.4,0.8-0.8,1.5-1.2,2.1c-0.8,1.1-1.6,1.9-2.6,2.5
						c-2,1.1-4.6,1.5-7.6,2c-3,0.5-6.5,1.2-9.9,2.4c-1.7,0.6-3.4,1.5-5.1,2.2l-2.4,1.1c-0.8,0.4-1.6,0.7-2.5,1
						c-0.5-1.6-0.8-2.9-0.9-4.2c-0.1-1.6,0-3.2,0.3-4.6c0.5-2.9,1.6-5.2,3-7.1c2.8-3.7,6.6-5.4,10.3-5.9c3.8-0.5,7.5,0.1,10.9,1.1
						c1.7,0.5,3.3,1.2,4.9,1.9c0.8,0.4,1.5,0.8,2.2,1.2C188.1,200.4,188.8,200.9,189.5,201.4z"/>
					<path class="st3" d="M179.7,210.4c0.2,1.3,0.3,2.3,0.3,3.3c0.1,0.9,0.1,1.7,0,2.4c0,0.7-0.2,1.3-0.3,1.9
						c-0.1,0.3-0.2,0.5-0.3,0.8c-0.1,0.4-0.3,0.8-0.5,1.2c-1.5,3.1-4,5.2-6.9,7c-2.9,1.8-6.3,3.2-9.6,4.6c-1.7,0.7-3.3,1.4-5,2.1
						l-2.4,1.1c-0.8,0.4-1.6,0.7-2.5,1c-0.5-1.6-0.8-2.9-0.9-4.2c-0.2-1.3-0.2-2.4-0.2-3.5c0.1-2.1,0.6-4,1.3-5.5
						c1.5-3.1,4-5.2,6.9-7c1.4-0.8,3.1-1.8,4.7-2.6c1.7-0.7,3.4-1.3,5.2-1.7c1.7-0.4,3.5-0.7,5.2-0.9c0.9-0.1,1.7-0.1,2.5-0.2
						C178,210.2,178.9,210.3,179.7,210.4z"/>
				</g>
				<g>
					<path class="st3" d="M181.4,210c0.5,1.6-1.5-0.6-1.3,0.7c0.2,1.3,0.2,2.4,0.2,3.5c-0.1,2.1-0.6,4-1.3,5.5c-1.5,3.1-4,5.2-6.9,7
						c-2.9,1.8-6.3,3.2-9.6,4.6c-1.7,0.7-3.3,1.4-5,2.1c-0.8,0.4-1.6,0.7-2.4,1.1c-0.8,0.4-1.6,0.7-2.5,1c-0.5-1.6-0.8-2.9-0.9-4.2
						c-0.2-1.3-0.2-2.4-0.2-3.5c0.1-2.1,0.6-4,1.3-5.5c1.5-3.1,4-5.2,6.9-7C163.6,213.9,180.5,210.3,181.4,210z"/>
					<path class="st3" d="M175,224.7c0.5,1.6,0.8,2.9,0.9,4.2c0.2,1.3,0.2,2.4,0.2,3.5c-0.1,2.1-0.6,4-1.3,5.5c-1.5,3.1-4,5.2-6.9,7
						c-2.9,1.8-6.3,3.2-9.6,4.6c-1.7,0.7-3.3,1.4-5,2.1c-0.8,0.4-1.6,0.7-2.4,1.1c-0.8,0.4-1.6,0.7-2.5,1c-0.5-1.6-0.8-2.9-0.9-4.2
						c-0.2-1.3-0.2-2.4-0.2-3.5c0.1-2.1,0.6-4,1.3-5.5c1.5-3.1,4-5.2,6.9-7c2.9-1.8,6.3-3.2,9.6-4.6c1.7-0.7,3.3-1.4,5-2.1
						c0.8-0.4,1.6-0.7,2.4-1.1C173.3,225.3,174.1,225,175,224.7z"/>
				</g>
				<g>
					<path class="st3" d="M175.1,224.3c0.5,1.6,0.8,2.9,0.9,4.2c0.2,1.3,0.2,2.4,0.2,3.5c-0.1,2.1-0.6,4-1.3,5.5
						c-1.5,3.1-4,5.2-6.9,7c-2.9,1.8-6.3,3.2-9.6,4.6c-1.7,0.7-3.3,1.4-5,2.1c-0.8,0.4-1.6,0.7-2.4,1.1c-0.8,0.4-1.6,0.7-2.5,1
						c-0.5-1.6-0.8-2.9-0.9-4.2c-0.2-1.3-0.2-2.4-0.2-3.5c0.1-2.1,0.6-4,1.3-5.5c1.5-3.1,4-5.2,6.9-7c2.9-1.8,6.3-3.2,9.6-4.6
						c1.7-0.7,3.3-1.4,5-2.1c0.8-0.4,1.6-0.7,2.4-1.1C173.4,225,174.2,224.6,175.1,224.3z"/>
					<path class="st3" d="M170.9,242.6c0.5,1.6,0.8,2.9,0.9,4.2c0.2,1.3,0.2,2.4,0.2,3.5c-0.1,2.1-0.6,4-1.3,5.5
						c-1.5,3.1-4,5.2-6.9,7c-2.9,1.8-6.3,3.2-9.6,4.6c-1.7,0.7-3.3,1.4-5,2.1c-0.8,0.4-1.6,0.7-2.4,1.1c-0.8,0.4-1.6,0.7-2.5,1
						c-0.5-1.6-0.8-2.9-0.9-4.2c-0.2-1.3-0.2-2.4-0.2-3.5c0.1-2.1,0.6-4,1.3-5.5c1.5-3.1,4-5.2,6.9-7c2.9-1.8,6.3-3.2,9.6-4.6
						c1.7-0.7,3.3-1.4,5-2.1c0.8-0.4,1.6-0.7,2.4-1.1C169.2,243.3,170.1,242.9,170.9,242.6z"/>
				</g>
				<g>
					<path class="st3" d="M171,242.3c0.5,1.6,0.8,2.9,0.9,4.2c0.2,1.3,0.2,2.4,0.2,3.5c-0.1,2.1-0.6,4-1.3,5.5c-1.5,3.1-4,5.2-6.9,7
						c-2.9,1.8-6.3,3.2-9.6,4.6c-1.7,0.7-3.3,1.4-5,2.1c-0.8,0.4-1.6,0.7-2.4,1.1c-0.8,0.4-1.6,0.7-2.5,1c-0.5-1.6-0.8-2.9-0.9-4.2
						c-0.2-1.3-0.2-2.4-0.2-3.5c0.1-2.1,0.6-4,1.3-5.5c1.5-3.1,4-5.2,6.9-7c2.9-1.8,6.3-3.2,9.6-4.6c1.7-0.7,3.3-1.4,5-2.1
						c0.8-0.4,1.6-0.7,2.4-1.1C169.3,242.9,170.1,242.6,171,242.3z"/>
					<path class="st3" d="M166.8,260.5c0.5,1.6,0.8,2.9,0.9,4.2c0.2,1.3,0.2,2.4,0.2,3.5c-0.1,2.1-0.6,4-1.3,5.5
						c-1.5,3.1-4,5.2-6.9,7c-2.9,1.8-6.3,3.2-9.6,4.6c-1.7,0.7-3.3,1.4-5,2.1c-0.8,0.4-1.6,0.7-2.4,1.1c-0.8,0.4-1.6,0.7-2.5,1
						c-0.5-1.6-0.8-2.9-0.9-4.2c-0.2-1.3-0.2-2.4-0.2-3.5c0.1-2.1,0.6-4,1.3-5.5c1.5-3.1,4-5.2,6.9-7c2.9-1.8,6.3-3.2,9.6-4.6
						c1.7-0.7,3.3-1.4,5-2.1c0.8-0.4,1.6-0.7,2.4-1.1C165.2,261.2,166,260.8,166.8,260.5z"/>
				</g>
				<g>
					<path class="st3" d="M166.9,260.2c0.5,1.6,0.8,2.9,0.9,4.2c0.2,1.3,0.2,2.4,0.2,3.5c-0.1,2.1-0.6,4-1.3,5.5
						c-1.5,3.1-4,5.2-6.9,7c-2.9,1.8-6.3,3.2-9.6,4.6c-1.7,0.7-3.3,1.4-5,2.1c-0.8,0.4-1.6,0.7-2.4,1.1c-0.8,0.4-1.6,0.7-2.5,1
						c-0.5-1.6-0.8-2.9-0.9-4.2c-0.2-1.3-0.2-2.4-0.2-3.5c0.1-2.1,0.6-4,1.3-5.5c1.5-3.1,4-5.2,6.9-7c2.9-1.8,6.3-3.2,9.6-4.6
						c1.7-0.7,3.3-1.4,5-2.1c0.8-0.4,1.6-0.7,2.4-1.1C165.2,260.9,166,260.5,166.9,260.2z"/>
					<path class="st3" d="M162.8,278.4c0.5,1.6,0.8,2.9,0.9,4.2c0.2,1.3,0.2,2.4,0.2,3.5c-0.1,2.1-0.6,4-1.3,5.5
						c-1.5,3.1-4,5.2-6.9,7c-2.9,1.8-6.3,3.2-9.6,4.6c-1.7,0.7-3.3,1.4-5,2.1c-0.8,0.4-1.6,0.7-2.4,1.1c-0.8,0.4-1.6,0.7-2.5,1
						c-0.5-1.6-0.8-2.9-0.9-4.2c-0.2-1.3-0.2-2.4-0.2-3.5c0.1-2.1,0.6-4,1.3-5.5c1.5-3.1,4-5.2,6.9-7c2.9-1.8,6.3-3.2,9.6-4.6
						c1.7-0.7,3.3-1.4,5-2.1c0.8-0.4,1.6-0.7,2.4-1.1C161.1,279.1,161.9,278.7,162.8,278.4z"/>
				</g>
				<g>
					<path class="st3" d="M162.8,278.1c0.5,1.6,0.8,2.9,0.9,4.2c0.2,1.3,0.2,2.4,0.2,3.5c-0.1,2.1-0.6,4-1.3,5.5
						c-1.5,3.1-4,5.2-6.9,7c-2.9,1.8-6.3,3.2-9.6,4.6c-1.7,0.7-3.3,1.4-5,2.1c-0.8,0.4-1.6,0.7-2.4,1.1c-0.8,0.4-1.6,0.7-2.5,1
						c-0.5-1.6-0.8-2.9-0.9-4.2c-0.2-1.3-0.2-2.4-0.2-3.5c0.1-2.1,0.6-4,1.3-5.5c1.5-3.1,4-5.2,6.9-7c2.9-1.8,6.3-3.2,9.6-4.6
						c1.7-0.7,3.3-1.4,5-2.1c0.8-0.4,1.6-0.7,2.4-1.1C161.1,278.8,161.9,278.4,162.8,278.1z"/>
					<path class="st3" d="M158.7,296.4c0.5,1.6,0.8,2.9,0.9,4.2c0.2,1.3,0.2,2.4,0.2,3.5c-0.1,2.1-0.6,4-1.3,5.5
						c-1.5,3.1-4,5.2-6.9,7c-2.9,1.8-6.3,3.2-9.6,4.6c-1.7,0.7-3.3,1.4-5,2.1c-0.8,0.4-1.6,0.7-2.4,1.1c-0.8,0.4-1.6,0.7-2.5,1
						c-0.5-1.6-0.8-2.9-0.9-4.2c-0.2-1.3-0.2-2.4-0.2-3.5c0.1-2.1,0.6-4,1.3-5.5c1.5-3.1,4-5.2,6.9-7c2.9-1.8,6.3-3.2,9.6-4.6
						c1.7-0.7,3.3-1.4,5-2.1c0.8-0.4,1.6-0.7,2.4-1.1C157,297.1,157.8,296.7,158.7,296.4z"/>
				</g>
				<g>
					<path class="st3" d="M158.7,296.1c0.5,1.6,0.8,2.9,0.9,4.2c0.2,1.3,0.2,2.4,0.2,3.5c-0.1,2.1-0.6,4-1.3,5.5
						c-1.5,3.1-4,5.2-6.9,7c-2.9,1.8-6.3,3.2-9.6,4.6c-1.7,0.7-3.3,1.4-5,2.1c-0.8,0.4-1.6,0.7-2.4,1.1c-0.8,0.4-1.6,0.7-2.5,1
						c-0.5-1.6-0.8-2.9-0.9-4.2c-0.2-1.3-0.2-2.4-0.2-3.5c0.1-2.1,0.6-4,1.3-5.5c1.5-3.1,4-5.2,6.9-7c2.9-1.8,6.3-3.2,9.6-4.6
						c1.7-0.7,3.3-1.4,5-2.1c0.8-0.4,1.6-0.7,2.4-1.1C157,296.7,157.8,296.4,158.7,296.1z"/>
					<path class="st3" d="M154.6,314.3c0.5,1.6,0.8,2.9,0.9,4.2c0.2,1.3,0.2,2.4,0.2,3.5c-0.1,2.1-0.6,4-1.3,5.5
						c-1.5,3.1-4,5.2-6.9,7c-2.9,1.8-6.3,3.2-9.6,4.6c-1.7,0.7-3.3,1.4-5,2.1c-0.8,0.4-1.6,0.7-2.4,1.1c-0.8,0.4-1.6,0.7-2.5,1
						c-0.5-1.6-0.8-2.9-0.9-4.2c-0.2-1.3-0.2-2.4-0.2-3.5c0.1-2.1,0.6-4,1.3-5.5c1.5-3.1,4-5.2,6.9-7c2.9-1.8,6.3-3.2,9.6-4.6
						c1.7-0.7,3.3-1.4,5-2.1c0.8-0.4,1.6-0.7,2.4-1.1C152.9,315,153.7,314.6,154.6,314.3z"/>
				</g>
				<g>
					<path class="st3" d="M154.6,314c0.5,1.6,0.8,2.9,0.9,4.2c0.2,1.3,0.2,2.4,0.2,3.5c-0.1,2.1-0.6,4-1.3,5.5c-1.5,3.1-4,5.2-6.9,7
						c-2.9,1.8-6.3,3.2-9.6,4.6c-1.7,0.7-3.3,1.4-5,2.1c-0.8,0.4-1.6,0.7-2.4,1.1c-0.8,0.4-1.6,0.7-2.5,1c-0.5-1.6-0.8-2.9-0.9-4.2
						c-0.2-1.3-0.2-2.4-0.2-3.5c0.1-2.1,0.6-4,1.3-5.5c1.5-3.1,4-5.2,6.9-7c2.9-1.8,6.3-3.2,9.6-4.6c1.7-0.7,3.3-1.4,5-2.1
						c0.8-0.4,1.6-0.7,2.4-1.1C152.9,314.7,153.8,314.3,154.6,314z"/>
					<path class="st3" d="M150.5,332.2c0.5,1.6,0.8,2.9,0.9,4.2c0.2,1.3,0.2,2.4,0.2,3.5c-0.1,2.1-0.6,4-1.3,5.5
						c-1.5,3.1-4,5.2-6.9,7c-2.9,1.8-6.3,3.2-9.6,4.6c-1.7,0.7-3.3,1.4-5,2.1c-0.8,0.4-1.6,0.7-2.4,1.1c-0.8,0.4-1.6,0.7-2.5,1
						c-0.5-1.6-0.8-2.9-0.9-4.2c-0.2-1.3-0.2-2.4-0.2-3.5c0.1-2.1,0.6-4,1.3-5.5c1.5-3.1,4-5.2,6.9-7c2.9-1.8,6.3-3.2,9.6-4.6
						c1.7-0.7,3.3-1.4,5-2.1c0.8-0.4,1.6-0.7,2.4-1.1C148.8,332.9,149.6,332.5,150.5,332.2z"/>
				</g>
				<g>
					<path class="st3" d="M150.6,331.9c0.5,1.6,0.8,2.9,0.9,4.2c0.2,1.3,0.2,2.4,0.2,3.5c-0.1,2.1-0.6,4-1.3,5.5
						c-1.5,3.1-4,5.2-6.9,7c-2.9,1.8-6.3,3.2-9.6,4.6c-1.7,0.7-3.3,1.4-5,2.1c-0.8,0.4-1.6,0.7-2.4,1.1c-0.8,0.4-1.6,0.7-2.5,1
						c-0.5-1.6-0.8-2.9-0.9-4.2c-0.2-1.3-0.2-2.4-0.2-3.5c0.1-2.1,0.6-4,1.3-5.5c1.5-3.1,4-5.2,6.9-7c2.9-1.8,6.3-3.2,9.6-4.6
						c1.7-0.7,3.3-1.4,5-2.1c0.8-0.4,1.6-0.7,2.4-1.1C148.9,332.6,149.7,332.2,150.6,331.9z"/>
					<path class="st3" d="M146.4,350.2c0.5,1.6,0.8,2.9,0.9,4.2c0.2,1.3,0.2,2.4,0.2,3.5c-0.1,2.1-0.6,4-1.3,5.5
						c-1.5,3.1-4,5.2-6.9,7c-2.9,1.8-6.3,3.2-9.6,4.6c-1.7,0.7-3.3,1.4-5,2.1c-0.8,0.4-1.6,0.7-2.4,1.1c-0.8,0.4-1.6,0.7-2.5,1
						c-0.5-1.6-0.8-2.9-0.9-4.2c-0.2-1.3-0.2-2.4-0.2-3.5c0.1-2.1,0.6-4,1.3-5.5c1.5-3.1,4-5.2,6.9-7c2.9-1.8,6.3-3.2,9.6-4.6
						c1.7-0.7,3.3-1.4,5-2.1c0.8-0.4,1.6-0.7,2.4-1.1C144.7,350.8,145.5,350.5,146.4,350.2z"/>
				</g>
				<g>
					<path class="st3" d="M146.5,349.8c0.5,1.6,0.8,2.9,0.9,4.2c0.2,1.3,0.2,2.4,0.2,3.5c-0.1,2.1-0.6,4-1.3,5.5
						c-1.5,3.1-4,5.2-6.9,7c-2.9,1.8-6.3,3.2-9.6,4.6c-1.7,0.7-3.3,1.4-5,2.1c-0.8,0.4-1.6,0.7-2.4,1.1c-0.8,0.4-1.6,0.7-2.5,1
						c-0.5-1.6-0.8-2.9-0.9-4.2c-0.2-1.3-0.2-2.4-0.2-3.5c0.1-2.1,0.6-4,1.3-5.5c1.5-3.1,4-5.2,6.9-7c2.9-1.8,6.3-3.2,9.6-4.6
						c1.7-0.7,3.3-1.4,5-2.1c0.8-0.4,1.6-0.7,2.4-1.1C144.8,350.5,145.6,350.1,146.5,349.8z"/>
					<path class="st3" d="M142.3,368.1c0.5,1.6,0.8,2.9,0.9,4.2c0.2,1.3,0.2,2.4,0.2,3.5c-0.1,2.1-0.6,4-1.3,5.5
						c-1.5,3.1-4,5.2-6.9,7c-2.9,1.8-6.3,3.2-9.6,4.6c-1.7,0.7-3.3,1.4-5,2.1c-0.8,0.4-1.6,0.7-2.4,1.1c-0.8,0.4-1.6,0.7-2.5,1
						c-0.5-1.6-0.8-2.9-0.9-4.2c-0.2-1.3-0.2-2.4-0.2-3.5c0.1-2.1,0.6-4,1.3-5.5c1.5-3.1,4-5.2,6.9-7c2.9-1.8,6.3-3.2,9.6-4.6
						c1.7-0.7,3.3-1.4,5-2.1c0.8-0.4,1.6-0.7,2.4-1.1C140.6,368.8,141.4,368.4,142.3,368.1z"/>
				</g>
				<g>
					<path class="st3" d="M142.4,367.8c0.5,1.6,0.8,2.9,0.9,4.2c0.2,1.3,0.2,2.4,0.2,3.5c-0.1,2.1-0.6,4-1.3,5.5
						c-1.5,3.1-4,5.2-6.9,7c-2.9,1.8-6.3,3.2-9.6,4.6c-1.7,0.7-3.3,1.4-5,2.1c-0.8,0.4-1.6,0.7-2.4,1.1c-0.8,0.4-1.6,0.7-2.5,1
						c-0.5-1.6-0.8-2.9-0.9-4.2c-0.2-1.3-0.2-2.4-0.2-3.5c0.1-2.1,0.6-4,1.3-5.5c1.5-3.1,4-5.2,6.9-7c2.9-1.8,6.3-3.2,9.6-4.6
						c1.7-0.7,3.3-1.4,5-2.1c0.8-0.4,1.6-0.7,2.4-1.1C140.7,368.5,141.5,368.1,142.4,367.8z"/>
					<path class="st3" d="M138.2,386c0.5,1.6,0.8,2.9,0.9,4.2c0.2,1.3,0.2,2.4,0.2,3.5c-0.1,2.1-0.6,4-1.3,5.5c-1.5,3.1-4,5.2-6.9,7
						c-2.9,1.8-6.3,3.2-9.6,4.6c-1.7,0.7-3.3,1.4-5,2.1c-0.8,0.4-1.6,0.7-2.4,1.1c-0.8,0.4-1.6,0.7-2.5,1c-0.5-1.6-0.8-2.9-0.9-4.2
						c-0.2-1.3-0.2-2.4-0.2-3.5c0.1-2.1,0.6-4,1.3-5.5c1.5-3.1,4-5.2,6.9-7c2.9-1.8,6.3-3.2,9.6-4.6c1.7-0.7,3.3-1.4,5-2.1
						c0.8-0.4,1.6-0.7,2.4-1.1C136.5,386.7,137.3,386.3,138.2,386z"/>
				</g>
				<g>
					<path class="st3" d="M138.3,385.7c0.5,1.6,0.8,2.9,0.9,4.2c0.2,1.3,0.2,2.4,0.2,3.5c-0.1,2.1-0.6,4-1.3,5.5
						c-1.5,3.1-4,5.2-6.9,7c-2.9,1.8-6.3,3.2-9.6,4.6c-1.7,0.7-3.3,1.4-5,2.1c-0.8,0.4-1.6,0.7-2.4,1.1c-0.8,0.4-1.6,0.7-2.5,1
						c-0.5-1.6-0.8-2.9-0.9-4.2c-0.2-1.3-0.2-2.4-0.2-3.5c0.1-2.1,0.6-4,1.3-5.5c1.5-3.1,4-5.2,6.9-7c2.9-1.8,6.3-3.2,9.6-4.6
						c1.7-0.7,3.3-1.4,5-2.1c0.8-0.4,1.6-0.7,2.4-1.1C136.6,386.4,137.4,386,138.3,385.7z"/>
					<path class="st3" d="M134.1,404c0.5,1.6,0.8,2.9,0.9,4.2c0.2,1.3,0.2,2.4,0.2,3.5c-0.1,2.1-0.6,4-1.3,5.5c-1.5,3.1-4,5.2-6.9,7
						c-2.9,1.8-6.3,3.2-9.6,4.6c-1.7,0.7-3.3,1.4-5,2.1c-0.8,0.4-1.6,0.7-2.4,1.1c-0.8,0.4-1.6,0.7-2.5,1c-0.5-1.6-0.8-2.9-0.9-4.2
						c-0.2-1.3-0.2-2.4-0.2-3.5c0.1-2.1,0.6-4,1.3-5.5c1.5-3.1,4-5.2,6.9-7c2.9-1.8,6.3-3.2,9.6-4.6c1.7-0.7,3.3-1.4,5-2.1
						c0.8-0.4,1.6-0.7,2.4-1.1C132.4,404.6,133.2,404.3,134.1,404z"/>
				</g>
				<g>
					<path class="st3" d="M134.2,403.6c0.5,1.6,0.8,2.9,0.9,4.2c0.2,1.3,0.2,2.4,0.2,3.5c-0.1,2.1-0.6,4-1.3,5.5
						c-1.5,3.1-4,5.2-6.9,7c-2.9,1.8-6.3,3.2-9.6,4.6c-1.7,0.7-3.3,1.3-5,2.2c-0.8,0.5-1.7,0.9-2.5,1.5c-0.8,0.5-1.6,1.1-2.5,1.6
						c-0.6-1.9-0.8-3.8-1-5.2c-0.2-1.3-0.2-2.4-0.2-3.5c0.1-2.1,0.6-4,1.3-5.5c1.5-3.1,4-5.2,6.9-7c2.9-1.8,6.3-3.2,9.6-4.6
						c1.7-0.7,3.3-1.4,5-2.1l2.4-1.1C132.5,404.3,133.3,403.9,134.2,403.6z"/>
					<path class="st3" d="M130,421.9c0.5,1.6,0.8,2.9,0.9,4.2c0.2,1.3,0.2,2.4,0.2,3.5c0,1.1-0.2,2.1-0.4,3
						c-0.2,0.9-0.5,1.8-0.8,2.2c-1.1,1.9-3.2,3.6-5.6,5.6c-2.4,2-5,4.3-7.4,7.1c-1.2,1.4-2.3,2.9-3.2,4.6c-0.5,0.8-0.9,1.7-1.3,2.5
						c-0.4,0.9-0.8,1.8-1.3,2.7c-1.5-1.3-2.6-2.7-3.5-4.1c-0.9-1.4-1.6-2.8-2.1-4.2c-1-2.7-1.2-5.3-0.9-7.6c0.6-4.6,3-8,5.9-10.3
						c1.5-1.3,3-1.8,4.7-2.6c1.6-0.8,3.3-1.5,4.9-2.2c1.7-0.7,3.3-1.4,5-2.1l2.4-1.1C128.3,422.6,129.1,422.2,130,421.9z"/>
				</g>
				<g>
					<path class="st3" d="M130.1,421.6c0.5,1.6,0.8,2.9,0.9,4.2c0.2,1.3,0.2,2.4,0.2,3.5c0,1.1-0.2,2.1-0.4,3
						c-0.1,0.5-0.2,0.9-0.4,1.3l-0.2,0.6c-0.1,0.1-0.1,0.3-0.2,0.4c-1.2,1.9-3.3,3.5-5.7,5.5c-2.4,2-5.1,4.2-7.4,7
						c-1.2,1.4-2.3,2.9-3.2,4.5c-0.5,0.8-0.9,1.7-1.4,2.5c-0.4,0.9-0.9,1.7-1.3,2.7c-1.5-1.3-2.6-2.7-3.5-4.1
						c-0.9-1.4-1.6-2.8-2-4.2c-1-2.7-1.2-5.3-0.9-7.6c0.6-4.6,3.1-8,6-10.3c0.7-0.6,1.5-1,2.3-1.4c0.8-0.4,1.6-0.8,2.4-1.2
						c1.6-0.8,3.3-1.5,4.9-2.2c1.7-0.7,3.3-1.4,5-2.1l2.4-1.1C128.4,422.2,129.2,421.9,130.1,421.6z"/>
					<path class="st3" d="M126.8,438.1c0.8,1,1.4,1.9,1.9,2.7c0.5,0.8,0.9,1.4,1.2,2.1c0.6,1.3,0.9,2.4,0.9,3.5c0,2.2-1,4.7-2,7.6
						c-0.5,1.5-1.1,3-1.6,4.7c-0.4,1.7-0.9,3.5-1.4,5.2c-0.5,1.7-0.9,3.5-1.4,5.2l-0.7,2.6c-0.2,0.9-0.4,1.7-0.8,2.6
						c-1.5-0.6-2.8-1.2-3.9-1.9c-1.1-0.7-2-1.3-2.8-2.1c-0.4-0.4-0.8-0.7-1.1-1.1l-0.5-0.5c-0.2-0.3-0.4-0.5-0.6-0.8
						c-0.8-1-1.4-2.1-1.9-3.1c-1.9-4.3-1.5-8.4-0.1-11.9c1.4-3.5,3.8-6.5,6.3-9c1.3-1.2,2.7-2.3,4-3.3c0.7-0.5,1.4-0.9,2.1-1.4
						C125.2,438.8,126,438.4,126.8,438.1z"/>
				</g>
				<g>
					<path class="st3" d="M126.8,437.9c0.8,1.1,1.4,1.9,1.9,2.7c0.5,0.8,0.9,1.4,1.2,2.1c0.6,1.3,0.8,2.4,0.8,3.5
						c0,2.3-1,4.7-2.1,7.6c-0.5,1.5-1.1,3-1.6,4.6c-0.5,1.7-0.9,3.5-1.4,5.2c-0.5,1.7-0.9,3.5-1.4,5.2l-0.7,2.6
						c-0.2,0.9-0.4,1.7-0.8,2.6c-1.5-0.6-2.8-1.2-3.9-1.9c-1.1-0.7-2-1.3-2.8-2.1c-1.4-1.1-3.3-3.6-4.1-5.6c-1.8-4.3-1.4-8.4,0-11.9
						c1.4-3.5,3.8-6.5,6.4-8.9c1.3-1.2,2.7-2.3,4.1-3.3c0.7-0.5,1.4-0.9,2.1-1.4C125.2,438.6,126,438.2,126.8,437.9z"/>
					<path class="st3" d="M129.7,450.8c1.2,0.5,2.2,0.9,3,1.3c0.4,0.2,0.8,0.4,1.1,0.6c0.2,0.1,0.3,0.2,0.5,0.3
						c0.2,0.2,0.4,0.4,0.6,0.5c1.6,1.4,2.7,2.9,3.5,4.4c1.5,3.1,1.6,6.4,1.2,9.8c-0.4,3.4-1.4,6.9-2.4,10.4
						c-0.5,1.7-0.9,3.5-1.4,5.2l-0.7,2.6c-0.2,0.9-0.4,1.7-0.8,2.6c-1.5-0.6-2.8-1.2-3.9-1.9c-1.1-0.7-2-1.3-2.8-2.1
						c-1.6-1.4-2.7-2.9-3.5-4.4c-1.5-3.1-1.6-6.4-1.2-9.8c0.4-3.4,1.4-6.9,2.4-10.4c0.5-1.7,1.1-3.4,1.8-4.9
						c0.3-0.8,0.7-1.5,1.1-2.3C128.7,452.2,129.1,451.5,129.7,450.8z"/>
				</g>
				<g>
					<path class="st3" d="M129.1,447.3c1.5,0.6,2.8,1.2,3.9,1.9c1.1,0.7,2,1.3,2.8,2.1c1.6,1.4,2.7,2.9,3.5,4.4
						c1.5,3.1,1.6,6.4,1.2,9.8c-0.4,3.4-1.4,6.9-2.4,10.4c-0.5,1.7-1,3.5-1.4,5.2c-0.2,0.9-0.4,1.7-0.7,2.6
						c-0.2,0.9-0.4,1.7-0.8,2.6c-1.5-0.6-2.8-1.2-3.9-1.9c-1.1-0.7-2-1.3-2.8-2.1c-1.6-1.4-2.7-2.9-3.5-4.4
						c-1.5-3.1-1.6-6.4-1.2-9.8C124.6,461.3,128.8,448.2,129.1,447.3z"/>
					<path class="st3" d="M139.7,464.1c1.5,0.6,2.8,1.2,3.9,1.9c1.1,0.7,2,1.3,2.8,2.1c1.6,1.4,2.7,2.9,3.5,4.4
						c1.5,3.1,1.6,6.4,1.2,9.8c-0.4,3.4-1.4,6.9-2.4,10.4c-0.5,1.7-1,3.5-1.4,5.2c-0.2,0.9-0.4,1.7-0.7,2.6
						c-0.2,0.9-0.4,1.7-0.8,2.6c-1.5-0.6-2.8-1.2-3.9-1.9c-1.1-0.7-2-1.3-2.8-2.1c-1.6-1.4-2.7-2.9-3.5-4.4
						c-1.5-3.1-1.6-6.4-1.2-9.8c0.4-3.4,1.4-6.9,2.4-10.4c0.5-1.7,1-3.5,1.4-5.2c0.2-0.9,0.4-1.7,0.7-2.6
						C139.1,465.8,139.4,464.9,139.7,464.1z"/>
				</g>
				<g>
					<path class="st3" d="M139.5,463.8c1.5,0.6,2.8,1.2,3.9,1.9c1.1,0.7,2,1.3,2.8,2.1c1.6,1.4,2.7,2.9,3.5,4.4
						c1.5,3.1,1.6,6.4,1.2,9.8c-0.4,3.4-1.4,6.9-2.4,10.4c-0.5,1.7-1,3.5-1.4,5.2c-0.2,0.9-0.4,1.7-0.7,2.6
						c-0.2,0.9-0.4,1.7-0.8,2.6c-1.5-0.6-2.8-1.2-3.9-1.9c-1.1-0.7-2-1.3-2.8-2.1c-1.6-1.4-2.7-2.9-3.5-4.4
						c-1.5-3.1-1.6-6.4-1.2-9.8c0.4-3.4,1.4-6.9,2.4-10.4c0.5-1.7,1-3.5,1.4-5.2c0.2-0.9,0.4-1.7,0.7-2.6
						C138.9,465.5,139.2,464.7,139.5,463.8z"/>
					<path class="st3" d="M151.1,478.4c1.5,0.6,2.8,1.2,3.9,1.9c1.1,0.7,2,1.3,2.8,2.1c1.6,1.4,2.7,2.9,3.5,4.4
						c1.5,3.1,1.6,6.4,1.2,9.8c-0.4,3.4-1.4,6.9-2.4,10.4c-0.5,1.7-1,3.5-1.4,5.2c-0.2,0.9-0.4,1.7-0.7,2.6
						c-0.2,0.9-0.4,1.7-0.8,2.6c-1.5-0.6-2.8-1.2-3.9-1.9c-1.1-0.7-2-1.3-2.8-2.1c-1.6-1.4-2.7-2.9-3.5-4.4
						c-1.5-3.1-1.6-6.4-1.2-9.8c0.4-3.4,1.4-6.9,2.4-10.4c0.5-1.7,1-3.5,1.4-5.2c0.2-0.9,0.4-1.7,0.7-2.6
						C150.6,480.2,150.8,479.3,151.1,478.4z"/>
				</g>
				<g>
					<path class="st3" d="M150.9,478.2c1.5,0.6,2.8,1.2,3.9,1.9c1.1,0.7,2,1.3,2.8,2.1c1.6,1.4,2.7,2.9,3.5,4.4
						c1.5,3.1,1.6,6.4,1.2,9.8c-0.4,3.4-1.4,6.9-2.4,10.4c-0.5,1.7-1,3.5-1.4,5.2c-0.2,0.9-0.4,1.7-0.7,2.6
						c-0.2,0.9-0.4,1.7-0.8,2.6c-1.5-0.6-2.8-1.2-3.9-1.9c-1.1-0.7-2-1.3-2.8-2.1c-1.6-1.4-2.7-2.9-3.5-4.4
						c-1.5-3.1-1.6-6.4-1.2-9.8c0.4-3.4,1.4-6.9,2.4-10.4c0.5-1.7,1-3.5,1.4-5.2c0.2-0.9,0.4-1.7,0.7-2.6
						C150.4,479.9,150.6,479.1,150.9,478.2z"/>
					<path class="st3" d="M162.6,492.8c1.5,0.6,2.8,1.2,3.9,1.9c1.1,0.7,2,1.3,2.8,2.1c1.6,1.4,2.7,2.9,3.5,4.4
						c1.5,3.1,1.6,6.4,1.2,9.8c-0.4,3.4-1.4,6.9-2.4,10.4c-0.5,1.7-1,3.5-1.4,5.2c-0.2,0.9-0.4,1.7-0.7,2.6
						c-0.2,0.9-0.4,1.7-0.8,2.6c-1.5-0.6-2.8-1.2-3.9-1.9c-1.1-0.7-2-1.3-2.8-2.1c-1.6-1.4-2.7-2.9-3.5-4.4
						c-1.5-3.1-1.6-6.4-1.2-9.8c0.4-3.4,1.4-6.9,2.4-10.4c0.5-1.7,1-3.5,1.4-5.2c0.2-0.9,0.4-1.7,0.7-2.6
						C162.1,494.6,162.3,493.7,162.6,492.8z"/>
				</g>
				<g>
					<path class="st3" d="M162.4,492.6c1.5,0.6,2.8,1.2,3.9,1.9c1.1,0.7,2,1.3,2.8,2.1c1.6,1.4,2.7,2.9,3.5,4.4
						c1.5,3.1,1.6,6.4,1.2,9.8c-0.4,3.4-1.4,6.9-2.4,10.4c-0.5,1.7-1,3.5-1.4,5.2c-0.2,0.9-0.4,1.7-0.7,2.6
						c-0.2,0.9-0.4,1.7-0.8,2.6c-1.5-0.6-2.8-1.2-3.9-1.9c-1.1-0.7-2-1.3-2.8-2.1c-1.6-1.4-2.7-2.9-3.5-4.4
						c-1.5-3.1-1.6-6.4-1.2-9.8c0.4-3.4,1.4-6.9,2.4-10.4c0.5-1.7,1-3.5,1.4-5.2c0.2-0.9,0.4-1.7,0.7-2.6
						C161.9,494.3,162.1,493.4,162.4,492.6z"/>
					<path class="st3" d="M174.1,507.2c1.5,0.6,2.8,1.2,3.9,1.9c1.1,0.7,2,1.3,2.8,2.1c1.6,1.4,2.7,2.9,3.5,4.4
						c1.5,3.1,1.6,6.4,1.2,9.8c-0.4,3.4-1.4,6.9-2.4,10.4c-0.5,1.7-1,3.5-1.4,5.2c-0.2,0.9-0.4,1.7-0.7,2.6
						c-0.2,0.9-0.4,1.7-0.8,2.6c-1.5-0.6-2.8-1.2-3.9-1.9c-1.1-0.7-2-1.3-2.8-2.1c-1.6-1.4-2.7-2.9-3.5-4.4
						c-1.5-3.1-1.6-6.4-1.2-9.8c0.4-3.4,1.4-6.9,2.4-10.4c0.5-1.7,1-3.5,1.4-5.2c0.2-0.9,0.4-1.7,0.7-2.6
						C173.5,508.9,173.8,508.1,174.1,507.2z"/>
				</g>
				<g>
					<path class="st3" d="M173.9,506.9c1.5,0.6,2.8,1.2,3.9,1.9c1.1,0.7,2,1.3,2.8,2.1c1.6,1.4,2.7,2.9,3.5,4.4
						c1.5,3.1,1.6,6.4,1.2,9.8c-0.4,3.4-1.4,6.9-2.4,10.4c-0.5,1.7-1,3.5-1.4,5.2c-0.2,0.9-0.4,1.7-0.7,2.6
						c-0.2,0.9-0.4,1.7-0.8,2.6c-1.5-0.6-2.8-1.2-3.9-1.9c-1.1-0.7-2-1.3-2.8-2.1c-1.6-1.4-2.7-2.9-3.5-4.4
						c-1.5-3.1-1.6-6.4-1.2-9.8c0.4-3.4,1.4-6.9,2.4-10.4c0.5-1.7,1-3.5,1.4-5.2c0.2-0.9,0.4-1.7,0.7-2.6
						C173.3,508.7,173.6,507.8,173.9,506.9z"/>
					<path class="st3" d="M185.5,521.6c1.5,0.6,2.8,1.2,3.9,1.9c1.1,0.7,2,1.3,2.8,2.1c1.6,1.4,2.7,2.9,3.5,4.4
						c1.5,3.1,1.6,6.4,1.2,9.8c-0.4,3.4-1.4,6.9-2.4,10.4c-0.5,1.7-1,3.5-1.4,5.2c-0.2,0.9-0.4,1.7-0.7,2.6
						c-0.2,0.9-0.4,1.7-0.8,2.6c-1.5-0.6-2.8-1.2-3.9-1.9c-1.1-0.7-2-1.3-2.8-2.1c-1.6-1.4-2.7-2.9-3.5-4.4
						c-1.5-3.1-1.6-6.4-1.2-9.8c0.4-3.4,1.4-6.9,2.4-10.4c0.5-1.7,1-3.5,1.4-5.2c0.2-0.9,0.4-1.7,0.7-2.6
						C185,523.3,185.2,522.5,185.5,521.6z"/>
				</g>
				<g>
					<path class="st3" d="M185.3,521.3c1.5,0.6,2.8,1.2,3.9,1.9c1.1,0.7,2,1.3,2.8,2.1c1.6,1.4,2.7,2.9,3.5,4.4
						c1.5,3.1,1.6,6.4,1.2,9.8c-0.4,3.4-1.4,6.9-2.4,10.4c-0.5,1.7-1,3.5-1.4,5.2c-0.2,0.9-0.4,1.7-0.7,2.6
						c-0.2,0.9-0.4,1.7-0.8,2.6c-1.5-0.6-2.8-1.2-3.9-1.9c-1.1-0.7-2-1.3-2.8-2.1c-1.6-1.4-2.7-2.9-3.5-4.4
						c-1.5-3.1-1.6-6.4-1.2-9.8c0.4-3.4,1.4-6.9,2.4-10.4c0.5-1.7,1-3.5,1.4-5.2c0.2-0.9,0.4-1.7,0.7-2.6
						C184.8,523.1,185,522.2,185.3,521.3z"/>
					<g>
						<path class="st2" d="M194.5,568.9h10.4c0.4-1.5,0.8-2.9,1.2-4.4c1-3.5,1.9-7,2.4-10.4c0.4-3.4,0.3-6.7-1.2-9.8
							c-0.8-1.5-1.9-3-3.5-4.4c-0.8-0.7-1.8-1.4-2.8-2.1c-1.1-0.7-2.3-1.3-3.9-1.9c-0.3,0.9-0.5,1.7-0.8,2.6
							c-0.2,0.9-0.4,1.7-0.7,2.6c-0.5,1.7-0.9,3.5-1.4,5.2c-1,3.5-1.9,7-2.4,10.4c-0.4,3.4-0.3,6.7,1.2,9.8
							C193.4,567.3,193.8,568.1,194.5,568.9z"/>
						<path class="st0" d="M190.6,568.9h8.3c-0.1-0.1-0.3-0.2-0.4-0.3c-1.2-1.1-2.1-2.2-2.7-3.4c-1-2.1-1.3-4.6-0.9-8
							c0.4-3.1,1.3-6.3,2.2-9.7l0.1-0.3c0.5-1.8,1-3.5,1.4-5.3c0.1-0.5,0.3-1,0.4-1.5c0.1,0,0.1,0.1,0.2,0.1
							c0.9,0.5,1.7,1.1,2.4,1.7c1.2,1.1,2.1,2.2,2.7,3.4c1,2.1,1.3,4.6,0.9,8c-0.4,3.1-1.3,6.3-2.2,9.7l-0.1,0.3
							c-0.5,1.7-1,3.5-1.4,5.2h6.6c0.3-1.2,0.6-2.4,1-3.5l0.1-0.3c1-3.4,1.9-7,2.4-10.5c0.4-2.9,0.6-7.3-1.5-11.6
							c-1-2-2.4-3.8-4.3-5.4c-1-0.8-2.1-1.6-3.3-2.4c-1.4-0.8-2.8-1.5-4.4-2.1l-3-1.2l-1.1,3.1c-0.3,0.9-0.5,1.7-0.7,2.5l-0.1,0.4
							c-0.2,0.9-0.4,1.7-0.7,2.6c-0.4,1.7-0.9,3.4-1.4,5.2l-0.1,0.3c-1,3.4-1.9,7-2.4,10.5c-0.4,2.9-0.6,7.3,1.5,11.6
							C190.3,568.3,190.5,568.6,190.6,568.9z"/>
					</g>
				</g>
				<g>
					<path class="st2" d="M201.3,568.7c0.5-1.8,0.9-3.5,1.4-5.3l0.1-0.3c0.9-3.4,1.8-6.6,2.2-9.7c0.4-3.4,0.2-5.9-0.9-8
						c-0.6-1.3-1.5-2.4-2.7-3.4c-0.7-0.6-1.5-1.2-2.4-1.7c-0.1,0-0.1-0.1-0.2-0.1c-0.1,0.5-0.3,1-0.4,1.5c-0.5,1.8-0.9,3.5-1.4,5.3
						l-0.1,0.3c-0.9,3.4-1.8,6.6-2.2,9.7c-0.4,3.4-0.2,5.9,0.9,8c0.3,0.7,0.7,1.3,1.2,1.9l0,0c0.4,0.5,0.9,1.1,1.5,1.5
						c0.2,0.2,0.5,0.4,0.7,0.6h2.2C201.3,568.8,201.3,568.7,201.3,568.7z"/>
					<g>
						<path class="st2" d="M219.8,568.9c0-0.1,0-0.2,0.1-0.4c0.4-3.4,0.3-6.7-1.2-9.8c-0.8-1.5-1.9-3-3.5-4.4
							c-0.8-0.7-1.8-1.4-2.8-2.1c-1.1-0.7-2.3-1.3-3.9-1.9c-0.3,0.9-0.5,1.7-0.8,2.6c-0.2,0.9-0.4,1.7-0.7,2.6
							c-0.5,1.7-0.9,3.5-1.4,5.2c-0.8,2.7-1.5,5.5-2,8.1H219.8z"/>
						<path class="st0" d="M206.9,568.9c0.5-2.3,1.1-4.6,1.8-7l0.1-0.3c0.5-1.8,1-3.5,1.4-5.3c0.1-0.5,0.3-1,0.4-1.5
							c0.1,0,0.1,0.1,0.2,0.1c0.9,0.5,1.7,1.1,2.4,1.7c1.2,1.1,2.1,2.2,2.7,3.4c1,2.1,1.3,4.6,0.9,8c0,0.3-0.1,0.5-0.1,0.8h6.4
							c0.4-2.9,0.6-7.3-1.5-11.6c-1-2-2.4-3.8-4.3-5.4c-1-0.8-2.1-1.6-3.3-2.4c-1.4-0.8-2.8-1.5-4.4-2.1l-3-1.2l-1.1,3.1
							c-0.3,0.9-0.5,1.7-0.7,2.5l-0.1,0.4c-0.2,0.9-0.4,1.7-0.7,2.6c-0.4,1.7-0.9,3.4-1.4,5.2l-0.1,0.3c-0.8,2.9-1.6,5.8-2.1,8.7
							H206.9z"/>
					</g>
				</g>
				<g>
					<g>
						<path class="st2" d="M603,568.9c0.2-0.7,0.3-1.4,0.4-2.3c-0.9-0.1-1.8-0.1-2.7-0.2c-0.9,0-1.8,0-2.7-0.1
							c-1.8-0.1-3.6-0.1-5.4-0.2c-3.6-0.2-7.2-0.3-10.6,0c-3.1,0.3-6,1-8.5,2.7H603z"/>
						<path class="st0" d="M606.3,568.9c0.1-0.6,0.3-1.2,0.3-1.8l0.5-3.2l-3.2-0.4c-0.9-0.1-1.8-0.1-2.6-0.2l-0.4,0
							c-0.9,0-1.8,0-2.7-0.1c-1.8-0.1-3.6-0.1-5.4-0.2l-0.3,0c-3.6-0.2-7.2-0.3-10.8,0c-2.9,0.3-7.3,1-11,4
							c-0.7,0.6-1.3,1.2-1.9,1.9H606.3z"/>
					</g>
					<g>
						<path class="st2" d="M578.5,566.7c0.2-1.6,0.6-3,1-4.2c0.4-1.2,0.9-2.3,1.4-3.2c1-1.9,2.2-3.3,3.6-4.4c2.7-2.2,5.9-3,9.3-3.3
							c3.4-0.3,7-0.1,10.6,0c1.8,0.1,3.6,0.2,5.4,0.2c0.9,0,1.8,0,2.7,0.1c0.9,0,1.8,0,2.7,0.2c-0.2,1.6-0.6,3-1,4.2
							c-0.4,1.2-0.9,2.3-1.4,3.2c-1,1.9-2.2,3.3-3.6,4.4c-2.7,2.2-5.9,3-9.3,3.3c-3.4,0.3-7,0.1-10.6,0c-1.8-0.1-3.6-0.2-5.4-0.2
							c-0.9,0-1.8,0-2.7-0.1C580.3,566.8,579.4,566.8,578.5,566.7z"/>
						<path class="st0" d="M606,569.2c1.8-0.6,3.6-1.5,5.3-2.8c1.7-1.4,3.2-3.2,4.4-5.4c0.6-1.1,1.1-2.4,1.6-3.8
							c0.5-1.6,0.9-3.1,1.1-4.7l0.5-3.2l-3.2-0.4c-0.9-0.1-1.8-0.1-2.6-0.2l-0.4,0c-0.9,0-1.8,0-2.7-0.1c-1.8-0.1-3.6-0.1-5.4-0.2
							l-0.3,0c-3.6-0.2-7.3-0.3-10.8,0c-2.9,0.3-7.3,1-11,4c-1.7,1.4-3.2,3.2-4.4,5.4c-0.6,1.1-1.1,2.4-1.6,3.8
							c-0.5,1.6-0.9,3.1-1.1,4.7l-0.4,2.9H606z M582.5,563.5c0.3-1,0.7-1.9,1.1-2.7c0.8-1.4,1.7-2.5,2.8-3.4
							c1.8-1.5,4.2-2.3,7.6-2.6c3.1-0.3,6.4-0.1,9.9,0l0.3,0c1.8,0.1,3.6,0.2,5.4,0.2c0.5,0,1,0,1.6,0c0,0.1,0,0.1-0.1,0.2
							c-0.3,1-0.7,1.9-1.2,2.7c-0.8,1.4-1.7,2.5-2.8,3.4c-1.8,1.5-4.2,2.3-7.6,2.6c-3.1,0.3-6.4,0.1-9.9,0l-0.3,0
							c-1.8-0.1-3.6-0.2-5.5-0.2c-0.5,0-1,0-1.6,0C582.4,563.6,582.5,563.6,582.5,563.5z"/>
					</g>
				</g>
				<g>
					<path class="st3" d="M589.6,552.6c0.2-1.6,0.6-3,1-4.2c0.4-1.2,0.9-2.3,1.4-3.2c1-1.9,2.2-3.3,3.6-4.4c2.7-2.2,5.9-3,9.3-3.3
						c3.4-0.3,7-0.1,10.6,0c1.8,0.1,3.6,0.2,5.4,0.2c0.9,0,1.8,0,2.7,0.1c0.9,0,1.8,0,2.7,0.2c-0.2,1.6-0.6,3-1,4.2
						c-0.4,1.2-0.9,2.3-1.4,3.2c-1,1.9-2.2,3.3-3.6,4.4c-2.7,2.2-5.9,3-9.3,3.3c-3.4,0.3-7,0.1-10.6,0c-1.8-0.1-3.6-0.2-5.4-0.2
						c-0.9,0-1.8,0-2.7-0.1C591.4,552.7,590.6,552.7,589.6,552.6z"/>
				</g>
				<g>
					<path class="st3" d="M589.8,552.6c0.2-1.6,0.6-3,1-4.2c0.4-1.2,0.9-2.3,1.4-3.2c1-1.9,2.2-3.3,3.6-4.4c2.7-2.2,5.9-3,9.3-3.3
						c3.4-0.3,7-0.1,10.6,0c1.8,0.1,3.6,0.2,5.4,0.2c0.9,0,1.8,0,2.7,0.1c0.9,0,1.8,0,2.7,0.2c-0.2,1.6-0.6,3-1,4.2
						c-0.4,1.2-0.9,2.3-1.4,3.2c-1,1.9-2.2,3.3-3.6,4.4c-2.7,2.2-5.9,3-9.3,3.3c-3.4,0.3-7,0.1-10.6,0c-1.8-0.1-3.6-0.2-5.4-0.2
						c-0.9,0-1.8,0-2.7-0.1C591.6,552.7,590.7,552.7,589.8,552.6z"/>
					<path class="st3" d="M601.4,537.9c0.2-1.6,0.6-3,1-4.2c0.4-1.2,0.9-2.3,1.4-3.2c1-1.9,2.2-3.3,3.6-4.4c2.7-2.2,5.9-3,9.3-3.3
						c3.4-0.3,7-0.1,10.6,0c1.8,0.1,3.6,0.2,5.4,0.2c0.9,0,1.8,0,2.7,0.1c0.9,0,1.8,0,2.7,0.2c-0.2,1.6-0.6,3-1,4.2
						c-0.4,1.2-0.9,2.3-1.4,3.2c-1,1.9-2.2,3.3-3.6,4.4c-2.7,2.2-5.9,3-9.3,3.3c-3.4,0.3-7,0.1-10.6,0c-1.8-0.1-3.6-0.2-5.4-0.2
						c-0.9,0-1.8,0-2.7-0.1C603.2,538.1,602.4,538.1,601.4,537.9z"/>
				</g>
				<g>
					<path class="st3" d="M601.2,538.2c0.2-1.6,0.6-3,1-4.2c0.4-1.2,0.9-2.3,1.4-3.2c1-1.9,2.2-3.3,3.6-4.4c2.7-2.2,5.9-3,9.3-3.3
						c3.4-0.3,7-0.1,10.6,0c1.8,0.1,3.6,0.2,5.4,0.2c0.9,0,1.8,0,2.7,0.1c0.9,0,1.8,0,2.7,0.2c-0.2,1.6-0.6,3-1,4.2
						c-0.4,1.2-0.9,2.3-1.4,3.2c-1,1.9-2.2,3.3-3.6,4.4c-2.7,2.2-5.9,3-9.3,3.3c-3.4,0.3-7,0.1-10.6,0c-1.8-0.1-3.6-0.2-5.4-0.2
						c-0.9,0-1.8,0-2.7-0.1C603,538.3,602.2,538.3,601.2,538.2z"/>
					<path class="st3" d="M612.9,523.6c0.2-1.6,0.6-3,1-4.2c0.4-1.2,0.9-2.3,1.4-3.2c1-1.9,2.2-3.3,3.6-4.4c2.7-2.2,5.9-3,9.3-3.3
						c3.4-0.3,7-0.1,10.6,0c1.8,0.1,3.6,0.2,5.4,0.2c0.9,0,1.8,0,2.7,0.1c0.9,0,1.8,0,2.7,0.2c-0.2,1.6-0.6,3-1,4.2
						c-0.4,1.2-0.9,2.3-1.4,3.2c-1,1.9-2.2,3.3-3.6,4.4c-2.7,2.2-5.9,3-9.3,3.3c-3.4,0.3-7,0.1-10.6,0c-1.8-0.1-3.6-0.2-5.4-0.2
						c-0.9,0-1.8,0-2.7-0.1C614.7,523.7,613.8,523.7,612.9,523.6z"/>
				</g>
				<g>
					<path class="st3" d="M612.7,523.8c0.2-1.6,0.6-3,1-4.2c0.4-1.2,0.9-2.3,1.4-3.2c1-1.9,2.2-3.3,3.6-4.4c2.7-2.2,5.9-3,9.3-3.3
						c3.4-0.3,7-0.1,10.6,0c1.8,0.1,3.6,0.2,5.4,0.2c0.9,0,1.8,0,2.7,0.1c0.9,0,1.8,0,2.7,0.2c-0.2,1.6-0.6,3-1,4.2
						c-0.4,1.2-0.9,2.3-1.4,3.2c-1,1.9-2.2,3.3-3.6,4.4c-2.7,2.2-5.9,3-9.3,3.3c-3.4,0.3-7,0.1-10.6,0c-1.8-0.1-3.6-0.2-5.4-0.2
						c-0.9,0-1.8,0-2.7-0.1C614.5,523.9,613.6,523.9,612.7,523.8z"/>
					<path class="st3" d="M624.4,509.2c0.2-1.6,0.6-3,1-4.2c0.4-1.2,0.9-2.3,1.4-3.2c1-1.9,2.2-3.3,3.6-4.4c2.7-2.2,5.9-3,9.3-3.3
						c3.4-0.3,7-0.1,10.6,0c1.8,0.1,3.6,0.2,5.4,0.2c0.9,0,1.8,0,2.7,0.1c0.9,0,1.8,0,2.7,0.2c-0.2,1.6-0.6,3-1,4.2
						c-0.4,1.2-0.9,2.3-1.4,3.2c-1,1.9-2.2,3.3-3.6,4.4c-2.7,2.2-5.9,3-9.3,3.3c-3.4,0.3-7,0.1-10.6,0c-1.8-0.1-3.6-0.2-5.4-0.2
						c-0.9,0-1.8,0-2.7-0.1C626.2,509.3,625.3,509.3,624.4,509.2z"/>
				</g>
				<g>
					<path class="st3" d="M624.2,509.4c0.2-1.6,0.6-3,1-4.2c0.4-1.2,0.9-2.3,1.4-3.2c1-1.9,2.2-3.3,3.6-4.4c2.7-2.2,5.9-3,9.3-3.3
						c3.4-0.3,7-0.1,10.6,0c1.8,0.1,3.6,0.2,5.4,0.2c0.9,0,1.8,0,2.7,0.1c0.9,0,1.8,0,2.7,0.2c-0.2,1.6-0.6,3-1,4.2
						c-0.4,1.2-0.9,2.3-1.4,3.2c-1,1.9-2.2,3.3-3.6,4.4c-2.7,2.2-5.9,3-9.3,3.3c-3.4,0.3-7,0.1-10.6,0c-1.8-0.1-3.6-0.2-5.4-0.2
						c-0.9,0-1.8,0-2.7-0.1C626,509.6,625.1,509.6,624.2,509.4z"/>
					<path class="st3" d="M635.8,494.8c0.2-1.6,0.6-3,1-4.2c0.4-1.2,0.9-2.3,1.4-3.2c1-1.9,2.2-3.3,3.6-4.4c2.7-2.2,5.9-3,9.3-3.3
						c3.4-0.3,7-0.1,10.6,0c1.8,0.1,3.6,0.2,5.4,0.2c0.9,0,1.8,0,2.7,0.1c0.9,0,1.8,0,2.7,0.2c-0.2,1.6-0.6,3-1,4.2
						c-0.4,1.2-0.9,2.3-1.4,3.2c-1,1.9-2.2,3.3-3.6,4.4c-2.7,2.2-5.9,3-9.3,3.3c-3.4,0.3-7,0.1-10.6,0c-1.8-0.1-3.6-0.2-5.4-0.2
						c-0.9,0-1.8,0-2.7-0.1C637.6,494.9,636.8,494.9,635.8,494.8z"/>
				</g>
				<g>
					<path class="st3" d="M635.6,495.1c0.2-1.6,0.6-3,1-4.2c0.4-1.2,0.9-2.3,1.4-3.2c1-1.9,2.2-3.3,3.6-4.4c2.7-2.2,5.9-3,9.3-3.3
						c3.4-0.3,7-0.1,10.6,0c1.8,0.1,3.6,0.2,5.4,0.2c0.9,0,1.8,0,2.7,0.1c0.9,0,1.8,0,2.7,0.2c-0.2,1.6-0.6,3-1,4.2
						c-0.4,1.2-0.9,2.3-1.4,3.2c-1,1.9-2.2,3.3-3.6,4.4c-2.7,2.2-5.9,3-9.3,3.3c-3.4,0.3-7,0.1-10.6,0c-1.8-0.1-3.6-0.2-5.4-0.2
						c-0.9,0-1.8,0-2.7-0.1C637.4,495.2,636.6,495.2,635.6,495.1z"/>
					<path class="st3" d="M647.3,480.4c0.2-1.6,0.6-3,1-4.2c0.4-1.2,0.9-2.3,1.4-3.2c1-1.9,2.2-3.3,3.6-4.4c2.7-2.2,5.9-3,9.3-3.3
						c3.4-0.3,7-0.1,10.6,0c1.8,0.1,3.6,0.2,5.4,0.2c0.9,0,1.8,0,2.7,0.1c0.9,0,1.8,0,2.7,0.2c-0.2,1.6-0.6,3-1,4.2
						c-0.4,1.2-0.9,2.3-1.4,3.2c-1,1.9-2.2,3.3-3.6,4.4c-2.7,2.2-5.9,3-9.3,3.3c-3.4,0.3-7,0.1-10.6,0c-1.8-0.1-3.6-0.2-5.4-0.2
						c-0.9,0-1.8,0-2.7-0.1C649.1,480.6,648.2,480.5,647.3,480.4z"/>
				</g>
				<g>
					<path class="st3" d="M647.1,480.7c0.2-1.6,0.6-3,1-4.2c0.4-1.2,0.9-2.3,1.4-3.2c1-1.9,2.2-3.3,3.6-4.4c2.7-2.2,5.9-3,9.3-3.3
						c3.4-0.3,7-0.1,10.6,0c1.8,0.1,3.6,0.1,5.4,0.2l2.7,0.1c0.9,0.1,1.9-0.1,2.9-0.1c-0.1,0.5-0.2,1-0.3,1.4
						c-0.1,0.4-0.2,0.7-0.2,1.1c-0.2,0.7-0.4,1.3-0.5,2c-0.4,1.2-0.9,2.3-1.4,3.2c-1,1.9-2.2,3.3-3.6,4.4c-2.7,2.2-5.9,3-9.3,3.3
						c-3.4,0.3-7,0.1-10.6,0c-1.8-0.1-3.6-0.1-5.4-0.2l-2.7-0.1C648.9,480.8,648,480.8,647.1,480.7z"/>
					<path class="st3" d="M658.8,466c0.2-1.6,0.6-3,1-4.2c0.4-1.2,0.9-2.3,1.4-3.2c1-1.9,2.2-3.3,3.6-4.4c1.5-1.3,2.4-1.4,3.7-1.7
						c1.3-0.3,2.7-0.5,4.2-0.8c3-0.5,6.5-1.2,9.9-2.5c1.7-0.6,3.4-1.4,5.1-2.3c0.8-0.5,1.7-1,2.4-1.5c0.8-0.5,1.6-1.1,2.5-1.7
						c0.6,1.9,0.9,3.7,1,5.3c0.1,1.7,0,3.2-0.3,4.6c-0.5,2.9-1.6,5.2-3,7.1c-1.4,1.9-3.1,3.2-4.8,4.2c-0.9,0.5-1.8,0.8-2.7,1.2
						c-0.9,0.3-1.7,0.3-2.5,0.4c-3.4,0.3-7,0.1-10.6,0c-1.8-0.1-3.6-0.1-5.4-0.2l-2.7-0.1C660.6,466.2,659.7,466.2,658.8,466z"/>
				</g>
				<g>
					<path class="st3" d="M658.6,466.3c0.2-1.6,0.6-3,1-4.2c0.4-1.2,0.9-2.3,1.4-3.2c1-1.9,2.2-3.3,3.6-4.4c0.6-0.5,1.5-1.1,2-1.3
						c0.5-0.2,1.2-0.3,1.8-0.5c1.3-0.3,2.7-0.5,4.2-0.7c3.1-0.5,6.5-1.1,9.9-2.4c1.7-0.6,3.4-1.4,5.1-2.3c0.8-0.5,1.7-1,2.5-1.5
						c0.8-0.5,1.6-1.1,2.5-1.6c0.6,1.9,0.9,3.7,1,5.3c0.1,1.7-0.1,3.2-0.3,4.6c-0.6,2.8-1.7,5.2-3.1,7c-1.4,1.9-3.1,3.2-4.8,4.1
						c-0.9,0.5-1.8,0.9-2.7,1.1c-0.8,0.2-1.7,0.3-2.5,0.4c-3.4,0.3-7,0.1-10.6,0c-1.8-0.1-3.6-0.1-5.4-0.2l-2.7-0.1
						C660.4,466.4,659.5,466.4,658.6,466.3z"/>
					<path class="st3" d="M669.4,452.4c-0.2-1.3-0.3-2.3-0.3-3.3c-0.1-0.9-0.1-1.7,0-2.4c0.1-1.4,0.5-2.5,1-3.5
						c1.1-1.9,3.2-3.6,5.6-5.6c2.4-2,5-4.3,7.3-7.1c1.2-1.4,2.4-2.7,3.5-4.1l1.7-2.1c0.6-0.7,1.1-1.4,1.8-2c1.1,1.2,2,2.3,2.7,3.4
						c0.7,1.1,1.2,2,1.7,3.2c1,2.7,1.2,5.3,1,7.6c-0.5,4.6-2.9,8-5.9,10.4c-3,2.4-6.5,3.8-10,4.6c-1.8,0.4-3.5,0.7-5.2,0.8
						c-0.8,0.1-1.7,0.1-2.5,0.1C671.1,452.5,670.3,452.5,669.4,452.4z"/>
				</g>
				<g>
					<path class="st3" d="M669.3,452.6c-0.1-1.3-0.2-2.3-0.3-3.3c-0.1-0.9,0-1.7,0-2.4c0.1-1.4,0.5-2.5,1-3.4
						c1.1-1.9,3.2-3.5,5.6-5.5c2.4-2,5-4.3,7.4-7.1c1.2-1.4,2.4-2.7,3.5-4.1l1.7-2.1c0.6-0.7,1.1-1.4,1.8-2c1.1,1.2,2,2.3,2.7,3.4
						c0.4,0.5,0.7,1.1,0.9,1.6c0.3,0.5,0.5,1,0.8,1.7c1,2.7,1.2,5.3,0.9,7.6c-0.6,4.6-3,8-6,10.3c-3,2.3-6.5,3.7-10,4.5
						c-1.8,0.4-3.5,0.6-5.2,0.8c-0.8,0.1-1.7,0.1-2.5,0.1C671,452.8,670.2,452.8,669.3,452.6z"/>
					<path class="st3" d="M673.3,439.9c-0.8-1-1.4-1.9-1.9-2.6c-0.5-0.8-0.9-1.4-1.2-2.1c-0.2-0.3-0.3-0.6-0.4-0.9
						c-0.1-0.4-0.3-0.9-0.4-1.4c-0.2-0.9-0.3-1.8-0.3-2.7c0-3.4,1.3-6.5,3.2-9.3c1.9-2.9,4.3-5.6,6.6-8.3c1.2-1.4,2.4-2.7,3.5-4.1
						l1.7-2.1c0.6-0.7,1.1-1.4,1.8-2c1.1,1.2,2,2.3,2.7,3.4c0.7,1.1,1.3,2.1,1.7,3.1c0.9,2,1.2,3.8,1.2,5.5c0,3.4-1.3,6.5-3.2,9.3
						c-0.9,1.4-2,2.8-3.1,4.2c-1.1,1.4-2.3,2.8-3.6,4c-1.3,1.2-2.7,2.3-4,3.3c-0.7,0.5-1.4,1-2.1,1.4
						C674.8,439.2,674.1,439.6,673.3,439.9z"/>
				</g>
				<g>
					<path class="st3" d="M670.3,448.4c0.8-1.9,2.5-8.1,1.8-9.2c-0.7-1.1-1.3-2.1-1.7-3.1c-0.9-2-1.2-3.8-1.2-5.5
						c0-3.4,1.3-6.5,3.2-9.3c1.9-2.9,4.3-5.6,6.6-8.3c1.2-1.4,2.4-2.7,3.5-4.1c0.6-0.7,1.2-1.4,1.7-2.1c0.6-0.7,1.1-1.4,1.8-2
						c1.1,1.2,2,2.3,2.7,3.4c0.7,1.1,1.3,2.1,1.7,3.1c0.9,2,1.2,3.8,1.2,5.5c0,3.4-1.3,6.5-3.2,9.3c-1.9,2.9-4.3,5.6-6.6,8.3
						c-1.2,1.4-2.4,2.7-3.5,4.1c-0.6,0.7-1.2,1.4-1.7,2.1C676,441.3,671,447.8,670.3,448.4z"/>
					<path class="st3" d="M670.6,424.4c-1.1-1.2-2-2.3-2.7-3.4c-0.7-1.1-1.3-2.1-1.7-3.1c-0.9-2-1.2-3.8-1.2-5.5
						c0-3.4,1.3-6.5,3.2-9.3c1.9-2.9,4.3-5.6,6.6-8.3c1.2-1.4,2.4-2.7,3.5-4.1c0.6-0.7,1.2-1.4,1.7-2.1c0.6-0.7,1.1-1.4,1.8-2
						c1.1,1.2,2,2.3,2.7,3.4c0.7,1.1,1.3,2.1,1.7,3.1c0.9,2,1.2,3.8,1.2,5.5c0,3.4-1.3,6.5-3.2,9.3c-1.9,2.9-4.3,5.6-6.6,8.3
						c-1.2,1.4-2.4,2.7-3.5,4.1c-0.6,0.7-1.2,1.4-1.7,2.1C671.8,423,671.2,423.7,670.6,424.4z"/>
				</g>
				<g>
					<path class="st3" d="M670.7,424.7c-1.1-1.2-2-2.3-2.7-3.4c-0.7-1.1-1.3-2.1-1.7-3.1c-0.9-2-1.2-3.8-1.2-5.5
						c0-3.4,1.3-6.5,3.2-9.3c1.9-2.9,4.3-5.6,6.6-8.3c1.2-1.4,2.4-2.7,3.5-4.1c0.6-0.7,1.2-1.4,1.7-2.1c0.6-0.7,1.1-1.4,1.8-2
						c1.1,1.2,2,2.3,2.7,3.4c0.7,1.1,1.3,2.1,1.7,3.1c0.9,2,1.2,3.8,1.2,5.5c0,3.4-1.3,6.5-3.2,9.3c-1.9,2.9-4.3,5.6-6.6,8.3
						c-1.2,1.4-2.4,2.7-3.5,4.1c-0.6,0.7-1.2,1.4-1.7,2.1C671.9,423.3,671.3,424,670.7,424.7z"/>
					<path class="st3" d="M666.5,406.4c-1.1-1.2-2-2.3-2.7-3.4c-0.7-1.1-1.3-2.1-1.7-3.1c-0.9-2-1.2-3.8-1.2-5.5
						c0-3.4,1.3-6.5,3.2-9.3c1.9-2.9,4.3-5.6,6.6-8.3c1.2-1.4,2.4-2.7,3.5-4.1c0.6-0.7,1.2-1.4,1.7-2.1c0.6-0.7,1.1-1.4,1.8-2
						c1.1,1.2,2,2.3,2.7,3.4c0.7,1.1,1.3,2.1,1.7,3.1c0.9,2,1.2,3.8,1.2,5.5c0,3.4-1.3,6.5-3.2,9.3c-1.9,2.9-4.3,5.6-6.6,8.3
						c-1.2,1.4-2.4,2.7-3.5,4.1c-0.6,0.7-1.2,1.4-1.7,2.1C667.7,405.1,667.2,405.8,666.5,406.4z"/>
				</g>
				<g>
					<path class="st3" d="M666.6,406.8c-1.1-1.2-2-2.3-2.7-3.4c-0.7-1.1-1.3-2.1-1.7-3.1c-0.9-2-1.2-3.8-1.2-5.5
						c0-3.4,1.3-6.5,3.2-9.3c1.9-2.9,4.3-5.6,6.6-8.3c1.2-1.4,2.4-2.7,3.5-4.1c0.6-0.7,1.2-1.4,1.7-2.1c0.6-0.7,1.1-1.4,1.8-2
						c1.1,1.2,2,2.3,2.7,3.4c0.7,1.1,1.3,2.1,1.7,3.1c0.9,2,1.2,3.8,1.2,5.5c0,3.4-1.3,6.5-3.2,9.3c-1.9,2.9-4.3,5.6-6.6,8.3
						c-1.2,1.4-2.4,2.7-3.5,4.1c-0.6,0.7-1.2,1.4-1.7,2.1C667.8,405.4,667.2,406.1,666.6,406.8z"/>
					<path class="st3" d="M662.4,388.5c-1.1-1.2-2-2.3-2.7-3.4c-0.7-1.1-1.3-2.1-1.7-3.1c-0.9-2-1.2-3.8-1.2-5.5
						c0-3.4,1.3-6.5,3.2-9.3c1.9-2.9,4.3-5.6,6.6-8.3c1.2-1.4,2.4-2.7,3.5-4.1c0.6-0.7,1.2-1.4,1.7-2.1c0.6-0.7,1.1-1.4,1.8-2
						c1.1,1.2,2,2.3,2.7,3.4c0.7,1.1,1.3,2.1,1.7,3.1c0.9,2,1.2,3.8,1.2,5.5c0,3.4-1.3,6.5-3.2,9.3c-1.9,2.9-4.3,5.6-6.6,8.3
						c-1.2,1.4-2.4,2.7-3.5,4.1c-0.6,0.7-1.2,1.4-1.7,2.1C663.6,387.2,663.1,387.9,662.4,388.5z"/>
				</g>
				<g>
					<path class="st3" d="M662.5,388.8c-1.1-1.2-2-2.3-2.7-3.4c-0.7-1.1-1.3-2.1-1.7-3.1c-0.9-2-1.2-3.8-1.2-5.5
						c0-3.4,1.3-6.5,3.2-9.3c1.9-2.9,4.3-5.6,6.6-8.3c1.2-1.4,2.4-2.7,3.5-4.1c0.6-0.7,1.2-1.4,1.7-2.1c0.6-0.7,1.1-1.4,1.8-2
						c1.1,1.2,2,2.3,2.7,3.4c0.7,1.1,1.3,2.1,1.7,3.1c0.9,2,1.2,3.8,1.2,5.5c0,3.4-1.3,6.5-3.2,9.3c-1.9,2.9-4.3,5.6-6.6,8.3
						c-1.2,1.4-2.4,2.7-3.5,4.1c-0.6,0.7-1.2,1.4-1.7,2.1C663.7,387.5,663.1,388.2,662.5,388.8z"/>
					<path class="st3" d="M658.3,370.6c-1.1-1.2-2-2.3-2.7-3.4c-0.7-1.1-1.3-2.1-1.7-3.1c-0.9-2-1.2-3.8-1.2-5.5
						c0-3.4,1.3-6.5,3.2-9.3c1.9-2.9,4.3-5.6,6.6-8.3c1.2-1.4,2.4-2.7,3.5-4.1c0.6-0.7,1.2-1.4,1.7-2.1c0.6-0.7,1.1-1.4,1.8-2
						c1.1,1.2,2,2.3,2.7,3.4c0.7,1.1,1.3,2.1,1.7,3.1c0.9,2,1.2,3.8,1.2,5.5c0,3.4-1.3,6.5-3.2,9.3c-1.9,2.9-4.3,5.6-6.6,8.3
						c-1.2,1.4-2.4,2.7-3.5,4.1c-0.6,0.7-1.2,1.4-1.7,2.1C659.5,369.2,659,369.9,658.3,370.6z"/>
				</g>
				<g>
					<path class="st3" d="M658.4,370.9c-1.1-1.2-2-2.3-2.7-3.4c-0.7-1.1-1.3-2.1-1.7-3.1c-0.9-2-1.2-3.8-1.2-5.5
						c0-3.4,1.3-6.5,3.2-9.3c1.9-2.9,4.3-5.6,6.6-8.3c1.2-1.4,2.4-2.7,3.5-4.1c0.6-0.7,1.2-1.4,1.7-2.1c0.6-0.7,1.1-1.4,1.8-2
						c1.1,1.2,2,2.3,2.7,3.4c0.7,1.1,1.3,2.1,1.7,3.1c0.9,2,1.2,3.8,1.2,5.5c0,3.4-1.3,6.5-3.2,9.3c-1.9,2.9-4.3,5.6-6.6,8.3
						c-1.2,1.4-2.4,2.7-3.5,4.1c-0.6,0.7-1.2,1.4-1.7,2.1C659.6,369.6,659,370.2,658.4,370.9z"/>
					<path class="st3" d="M654.2,352.6c-1.1-1.2-2-2.3-2.7-3.4c-0.7-1.1-1.3-2.1-1.7-3.1c-0.9-2-1.2-3.8-1.2-5.5
						c0-3.4,1.3-6.5,3.2-9.3c1.9-2.9,4.3-5.6,6.6-8.3c1.2-1.4,2.4-2.7,3.5-4.1c0.6-0.7,1.2-1.4,1.7-2.1c0.6-0.7,1.1-1.4,1.8-2
						c1.1,1.2,2,2.3,2.7,3.4c0.7,1.1,1.3,2.1,1.7,3.1c0.9,2,1.2,3.8,1.2,5.5c0,3.4-1.3,6.5-3.2,9.3c-1.9,2.9-4.3,5.6-6.6,8.3
						c-1.2,1.4-2.4,2.7-3.5,4.1c-0.6,0.7-1.2,1.4-1.7,2.1C655.4,351.3,654.9,352,654.2,352.6z"/>
				</g>
				<g>
					<path class="st3" d="M654.3,353c-1.1-1.2-2-2.3-2.7-3.4c-0.7-1.1-1.3-2.1-1.7-3.1c-0.9-2-1.2-3.8-1.2-5.5
						c0-3.4,1.3-6.5,3.2-9.3c1.9-2.9,4.3-5.6,6.6-8.3c1.2-1.4,2.4-2.7,3.5-4.1c0.6-0.7,1.2-1.4,1.7-2.1c0.6-0.7,1.1-1.4,1.8-2
						c1.1,1.2,2,2.3,2.7,3.4c0.7,1.1,1.3,2.1,1.7,3.1c0.9,2,1.2,3.8,1.2,5.5c0,3.4-1.3,6.5-3.2,9.3c-1.9,2.9-4.3,5.6-6.6,8.3
						c-1.2,1.4-2.4,2.7-3.5,4.1c-0.6,0.7-1.2,1.4-1.7,2.1C655.5,351.6,655,352.3,654.3,353z"/>
					<path class="st3" d="M650.1,334.7c-1.1-1.2-2-2.3-2.7-3.4c-0.7-1.1-1.3-2.1-1.7-3.1c-0.9-2-1.2-3.8-1.2-5.5
						c0-3.4,1.3-6.5,3.2-9.3c1.9-2.9,4.3-5.6,6.6-8.3c1.2-1.4,2.4-2.7,3.5-4.1c0.6-0.7,1.2-1.4,1.7-2.1c0.6-0.7,1.1-1.4,1.8-2
						c1.1,1.2,2,2.3,2.7,3.4c0.7,1.1,1.3,2.1,1.7,3.1c0.9,2,1.2,3.8,1.2,5.5c0,3.4-1.3,6.5-3.2,9.3c-1.9,2.9-4.3,5.6-6.6,8.3
						c-1.2,1.4-2.4,2.7-3.5,4.1c-0.6,0.7-1.2,1.4-1.7,2.1C651.3,333.4,650.8,334.1,650.1,334.7z"/>
				</g>
				<g>
					<path class="st3" d="M650.2,335c-1.1-1.2-2-2.3-2.7-3.4c-0.7-1.1-1.3-2.1-1.7-3.1c-0.9-2-1.2-3.8-1.2-5.5
						c0-3.4,1.3-6.5,3.2-9.3c1.9-2.9,4.3-5.6,6.6-8.3c1.2-1.4,2.4-2.7,3.5-4.1c0.6-0.7,1.2-1.4,1.7-2.1c0.6-0.7,1.1-1.4,1.8-2
						c1.1,1.2,2,2.3,2.7,3.4c0.7,1.1,1.3,2.1,1.7,3.1c0.9,2,1.2,3.8,1.2,5.5c0,3.4-1.3,6.5-3.2,9.3c-1.9,2.9-4.3,5.6-6.6,8.3
						c-1.2,1.4-2.4,2.7-3.5,4.1c-0.6,0.7-1.2,1.4-1.7,2.1C651.4,333.7,650.9,334.4,650.2,335z"/>
					<path class="st3" d="M646,316.8c-1.1-1.2-2-2.3-2.7-3.4c-0.7-1.1-1.3-2.1-1.7-3.1c-0.9-2-1.2-3.8-1.2-5.5
						c0-3.4,1.3-6.5,3.2-9.3c1.9-2.9,4.3-5.6,6.6-8.3c1.2-1.4,2.4-2.7,3.5-4.1c0.6-0.7,1.2-1.4,1.7-2.1c0.6-0.7,1.1-1.4,1.8-2
						c1.1,1.2,2,2.3,2.7,3.4c0.7,1.1,1.3,2.1,1.7,3.1c0.9,2,1.2,3.8,1.2,5.5c0,3.4-1.3,6.5-3.2,9.3c-1.9,2.9-4.3,5.6-6.6,8.3
						c-1.2,1.4-2.4,2.7-3.5,4.1c-0.6,0.7-1.2,1.4-1.7,2.1C647.3,315.4,646.7,316.1,646,316.8z"/>
				</g>
				<g>
					<path class="st3" d="M646.1,317.1c-1.1-1.2-2-2.3-2.7-3.4c-0.7-1.1-1.3-2.1-1.7-3.1c-0.9-2-1.2-3.8-1.2-5.5
						c0-3.4,1.3-6.5,3.2-9.3c1.9-2.9,4.3-5.6,6.6-8.3c1.2-1.4,2.4-2.7,3.5-4.1c0.6-0.7,1.2-1.4,1.7-2.1c0.6-0.7,1.1-1.4,1.8-2
						c1.1,1.2,2,2.3,2.7,3.4c0.7,1.1,1.3,2.1,1.7,3.1c0.9,2,1.2,3.8,1.2,5.5c0,3.4-1.3,6.5-3.2,9.3c-1.9,2.9-4.3,5.6-6.6,8.3
						c-1.2,1.4-2.4,2.7-3.5,4.1c-0.6,0.7-1.2,1.4-1.7,2.1C647.3,315.8,646.8,316.5,646.1,317.1z"/>
					<path class="st3" d="M641.9,298.9c-1.1-1.2-2-2.3-2.7-3.4c-0.7-1.1-1.3-2.1-1.7-3.1c-0.9-2-1.2-3.8-1.2-5.5
						c0-3.4,1.3-6.5,3.2-9.3c1.9-2.9,4.3-5.6,6.6-8.3c1.2-1.4,2.4-2.7,3.5-4.1c0.6-0.7,1.2-1.4,1.7-2.1c0.6-0.7,1.1-1.4,1.8-2
						c1.1,1.2,2,2.3,2.7,3.4c0.7,1.1,1.3,2.1,1.7,3.1c0.9,2,1.2,3.8,1.2,5.5c0,3.4-1.3,6.5-3.2,9.3c-1.9,2.9-4.3,5.6-6.6,8.3
						c-1.2,1.4-2.4,2.7-3.5,4.1c-0.6,0.7-1.2,1.4-1.7,2.1C643.2,297.5,642.6,298.2,641.9,298.9z"/>
				</g>
				<g>
					<path class="st3" d="M642,299.2c-1.1-1.2-2-2.3-2.7-3.4c-0.7-1.1-1.3-2.1-1.7-3.1c-0.9-2-1.2-3.8-1.2-5.5
						c0-3.4,1.3-6.5,3.2-9.3c1.9-2.9,4.3-5.6,6.6-8.3c1.2-1.4,2.4-2.7,3.5-4.1c0.6-0.7,1.2-1.4,1.7-2.1c0.6-0.7,1.1-1.4,1.8-2
						c1.1,1.2,2,2.3,2.7,3.4c0.7,1.1,1.3,2.1,1.7,3.1c0.9,2,1.2,3.8,1.2,5.5c0,3.4-1.3,6.5-3.2,9.3c-1.9,2.9-4.3,5.6-6.6,8.3
						c-1.2,1.4-2.4,2.7-3.5,4.1c-0.6,0.7-1.2,1.4-1.7,2.1C643.2,297.8,642.7,298.5,642,299.2z"/>
					<path class="st3" d="M637.8,280.9c-1.1-1.2-2-2.3-2.7-3.4c-0.7-1.1-1.3-2.1-1.7-3.1c-0.9-2-1.2-3.8-1.2-5.5
						c0-3.4,1.3-6.5,3.2-9.3c1.9-2.9,4.3-5.6,6.6-8.3c1.2-1.4,2.4-2.7,3.5-4.1c0.6-0.7,1.2-1.4,1.7-2.1c0.6-0.7,1.1-1.4,1.8-2
						c1.1,1.2,2,2.3,2.7,3.4c0.7,1.1,1.3,2.1,1.7,3.1c0.9,2,1.2,3.8,1.2,5.5c0,3.4-1.3,6.5-3.2,9.3c-1.9,2.9-4.3,5.6-6.6,8.3
						c-1.2,1.4-2.4,2.7-3.5,4.1c-0.6,0.7-1.2,1.4-1.7,2.1C639.1,279.6,638.5,280.3,637.8,280.9z"/>
				</g>
				<g>
					<path class="st3" d="M637.9,281.2c-1.1-1.2-2-2.3-2.7-3.4c-0.7-1.1-1.3-2.1-1.7-3.1c-0.9-2-1.2-3.8-1.2-5.5
						c0-3.4,1.3-6.5,3.2-9.3c1.9-2.9,4.3-5.6,6.6-8.3c1.2-1.4,2.4-2.7,3.5-4.1c0.6-0.7,1.2-1.4,1.7-2.1c0.6-0.7,1.1-1.4,1.8-2
						c1.1,1.2,2,2.3,2.7,3.4c0.7,1.1,1.3,2.1,1.7,3.1c0.9,2,1.2,3.8,1.2,5.5c0,3.4-1.3,6.5-3.2,9.3c-1.9,2.9-4.3,5.6-6.6,8.3
						c-1.2,1.4-2.4,2.7-3.5,4.1c-0.6,0.7-1.2,1.4-1.7,2.1C639.1,279.9,638.6,280.6,637.9,281.2z"/>
					<path class="st3" d="M633.7,263c-1.1-1.2-2-2.3-2.7-3.4c-0.7-1.1-1.3-2.1-1.7-3.1c-0.9-2-1.2-3.8-1.2-5.5
						c0-3.4,1.3-6.5,3.2-9.3c1.9-2.9,4.3-5.6,6.6-8.3c1.2-1.4,2.4-2.7,3.5-4.1c0.6-0.7,1.2-1.4,1.7-2.1c0.6-0.7,1.1-1.4,1.8-2
						c1.1,1.2,2,2.3,2.7,3.4c0.7,1.1,1.3,2.1,1.7,3.1c0.9,2,1.2,3.8,1.2,5.5c0,3.4-1.3,6.5-3.2,9.3c-1.9,2.9-4.3,5.6-6.6,8.3
						c-1.2,1.4-2.4,2.7-3.5,4.1c-0.6,0.7-1.2,1.4-1.7,2.1C635,261.7,634.4,262.3,633.7,263z"/>
				</g>
				<g>
					<path class="st3" d="M633.8,263.3c-1.1-1.2-2-2.3-2.7-3.4c-0.7-1.1-1.3-2.1-1.7-3.1c-0.9-2-1.2-3.8-1.2-5.5
						c0-3.4,1.3-6.5,3.2-9.3c1.9-2.9,4.3-5.6,6.6-8.3c1.2-1.4,2.4-2.7,3.5-4.1c0.6-0.7,1.2-1.4,1.7-2.1c0.6-0.7,1.1-1.4,1.8-2
						c1.1,1.2,2,2.3,2.7,3.4c0.7,1.1,1.3,2.1,1.7,3.1c0.9,2,1.2,3.8,1.2,5.5c0,3.4-1.3,6.5-3.2,9.3c-1.9,2.9-4.3,5.6-6.6,8.3
						c-1.2,1.4-2.4,2.7-3.5,4.1c-0.6,0.7-1.2,1.4-1.7,2.1C635.1,262,634.5,262.7,633.8,263.3z"/>
					<path class="st3" d="M629.7,245.1c-1.1-1.2-2-2.3-2.7-3.4c-0.7-1.1-1.3-2.1-1.7-3.1c-0.9-2-1.2-3.8-1.2-5.5
						c0-3.4,1.3-6.5,3.2-9.3c1.9-2.9,4.3-5.6,6.6-8.3c1.2-1.4,2.4-2.7,3.5-4.1c0.6-0.7,1.2-1.4,1.7-2.1c0.6-0.7,1.1-1.4,1.8-2
						c1.1,1.2,2,2.3,2.7,3.4c0.7,1.1,1.3,2.1,1.7,3.1c0.9,2,1.2,3.8,1.2,5.5c0,3.4-1.3,6.5-3.2,9.3c-1.9,2.9-4.3,5.6-6.6,8.3
						c-1.2,1.4-2.4,2.7-3.5,4.1c-0.6,0.7-1.2,1.4-1.7,2.1C630.9,243.7,630.3,244.4,629.7,245.1z"/>
				</g>
				<g>
					<path class="st3" d="M629.7,245.4c-1.1-1.2-2-2.3-2.7-3.4c-0.7-1.1-1.3-2.1-1.7-3.1c-0.9-2-1.2-3.8-1.2-5.5
						c0-3.4,1.3-6.5,3.2-9.3c1.9-2.9,4.3-5.6,6.6-8.3c1.2-1.4,2.3-2.9,3.3-4.5c0.5-0.8,1-1.7,1.4-2.5c0.4-0.9,0.9-1.7,1.3-2.6
						c1.5,1.3,2.6,2.7,3.5,4.2c0.9,1.3,1.6,3,2,3.8c0.9,2,1.2,3.8,1.2,5.5c0,3.4-1.3,6.5-3.2,9.3c-1.9,2.9-4.3,5.6-6.6,8.3
						c-1.2,1.4-2.4,2.7-3.5,4.1l-1.7,2.1C631,244,630.4,244.7,629.7,245.4z"/>
					<path class="st3" d="M625.6,227.1c-1.1-1.2-2-2.3-2.7-3.4c-0.7-1.1-1.3-2.1-1.7-3.1c-0.9-2.3-1-3-1.1-4.2c0-2.3,1-4.7,2.1-7.6
						c1.1-2.9,2.2-6.2,2.8-9.8c0.3-1.8,0.5-3.6,0.5-5.6c0-0.9,0-1.9-0.1-2.9c-0.1-1-0.2-1.9-0.2-3c2,0.4,3.6,1,5.1,1.8
						c1.5,0.8,2.8,1.6,3.9,2.6c2.2,1.9,3.7,4,4.6,6.1c1.9,4.3,1.4,8.4,0,11.9c-0.7,1.8-1.7,3.4-2.7,4.9c-1.1,1.4-2.3,2.7-3.5,4.1
						c-1.2,1.4-2.4,2.7-3.5,4.1l-1.7,2.1C626.8,225.8,626.2,226.5,625.6,227.1z"/>
				</g>
				<g>
					<path class="st3" d="M625.6,227.5c-1.1-1.2-2-2.3-2.7-3.4c-0.7-1.1-1.3-2.1-1.7-3.1c-0.2-0.5-0.4-1-0.5-1.5
						c-0.1-0.4-0.2-0.8-0.3-1.2c-0.1-0.6-0.2-1.1-0.2-1.7c0-2.3,1.1-4.7,2.1-7.6c1.1-2.9,2.2-6.2,2.9-9.8c0.3-1.8,0.5-3.6,0.6-5.6
						c0-0.9,0-1.9-0.1-2.9c0-1-0.2-1.9-0.2-3c2,0.4,3.6,1.1,5.1,1.8c1.5,0.8,2.7,1.7,3.9,2.6c2.2,1.9,3.7,4.1,4.6,6.2
						c1.8,4.3,1.3,8.4-0.1,11.9c-0.7,1.7-1.7,3.4-2.8,4.8c-1.1,1.4-2.3,2.7-3.5,4.1c-1.2,1.4-2.4,2.7-3.5,4.1l-1.7,2.1
						C626.9,226.1,626.3,226.8,625.6,227.5z"/>
					<path class="st3" d="M621.2,212c-1.2-0.5-2.1-0.9-3-1.4c-0.8-0.4-1.5-0.8-2.1-1.2c-1.1-0.8-1.9-1.6-2.5-2.6
						c-1.1-1.9-1.5-4.6-2.1-7.6c-0.1-0.8-0.3-1.6-0.6-2.4c-0.2-0.8-0.4-1.7-0.6-2.6c-0.4-1.7-0.7-3.5-1-5.3c-0.3-1.8-0.7-3.5-1-5.3
						l-0.5-2.6c-0.2-0.9-0.4-1.8-0.5-2.7c1.6-0.1,3-0.1,4.3,0c1.3,0.1,2.4,0.3,3.5,0.6c1,0.3,2,0.6,2.8,1.1c0.4,0.2,0.8,0.4,1.2,0.7
						l0.6,0.4l0.7,0.5c3.7,2.8,5.5,6.5,6.1,10.3c0.6,3.8,0,7.5-1,10.9c-0.5,1.7-1.1,3.3-1.9,4.9c-0.3,0.8-0.7,1.5-1.1,2.2
						C622.2,210.6,621.8,211.3,621.2,212z"/>
				</g>
				<g>
					<path class="st3" d="M621.3,212.2c-1.2-0.5-2.1-1-3-1.4c-0.8-0.4-1.5-0.8-2.1-1.2c-1.1-0.8-1.9-1.6-2.5-2.6
						c-1.1-1.9-1.5-4.6-2-7.6c-0.2-1.5-0.8-3.3-1.1-5c-0.4-1.7-0.7-3.5-1-5.3c-0.3-1.8-0.7-3.5-1-5.3l-0.5-2.6
						c-0.2-0.9-0.4-1.8-0.5-2.7c1.6-0.1,3-0.1,4.3,0c1.3,0.1,2.4,0.3,3.5,0.6c1,0.3,2,0.6,2.8,1.1c0.4,0.2,0.8,0.4,1.2,0.7
						c0.3,0.2,1,0.6,1.4,0.9c3.7,2.8,5.4,6.6,6,10.3c0.5,3.8-0.1,7.5-1.1,10.9c-0.5,1.7-1.2,3.3-1.9,4.9c-0.4,0.8-0.8,1.5-1.2,2.2
						C622.3,210.8,621.9,211.5,621.3,212.2z"/>
					<path class="st3" d="M612.3,202.4c-1.3,0.2-2.3,0.3-3.3,0.3c-1.3-0.1-2.4-0.3-3.5-0.6c-2.1-0.6-3.7-1.4-5.1-2.5
						c-2.7-2.1-4.2-5.1-5.3-8.3c-1.1-3.3-1.7-6.8-2.3-10.4c-0.3-1.8-0.7-3.5-1-5.3l-0.5-2.6c-0.2-0.9-0.4-1.8-0.5-2.7
						c1.6-0.1,3-0.1,4.3,0c1.3,0.1,2.4,0.3,3.5,0.6c2.1,0.6,3.7,1.4,5.1,2.5c2.7,2.1,4.2,5.1,5.3,8.3c1.1,3.3,1.7,6.8,2.3,10.4
						c0.3,1.8,0.7,3.6,0.9,5.3c0.1,0.9,0.1,1.7,0.2,2.5C612.5,200.7,612.5,201.6,612.3,202.4z"/>
				</g>
				<g>
					<path class="st3" d="M613.6,202.9c-1.6,0.1-3,0.1-4.3,0c-1.3-0.1-2.4-0.3-3.5-0.6c-2.1-0.6-3.7-1.4-5.1-2.5
						c-2.7-2.1-4.2-5.1-5.3-8.3c-1.1-3.3-1.7-6.8-2.4-10.4c-0.3-1.8-0.6-3.6-1-5.3c-0.2-0.9-0.3-1.8-0.5-2.6
						c-0.2-0.9-0.4-1.8-0.5-2.7c1.6-0.1,3-0.1,4.3,0c1.3,0.1,2.4,0.3,3.5,0.6c2.1,0.6,3.7,1.4,5.1,2.5c2.7,2.1,4.2,5.1,5.3,8.3
						c1.1,3.3,1.7,6.8,2.3,10.4c0.3,1.8,0.6,3.6,1,5.3c0.2,0.9,0.3,1.8,0.5,2.6C613.4,201.1,613.5,201.9,613.6,202.9z"/>
					<path class="st3" d="M596.8,194.8c-1.6,0.1-3,0.1-4.3,0c-1.3-0.1-2.4-0.3-3.5-0.6c-2.1-0.6-3.7-1.4-5.1-2.5
						c-2.7-2.1-4.2-5.1-5.3-8.3c-1.1-3.3-1.7-6.8-2.3-10.4c-0.3-1.8-0.6-3.6-1-5.3c-0.2-0.9-0.3-1.8-0.5-2.6
						c-0.2-0.9-0.4-1.8-0.5-2.7c1.6-0.1,3-0.1,4.3,0c1.3,0.1,2.4,0.3,3.5,0.6c2.1,0.6,3.7,1.4,5.1,2.5c2.7,2.1,4.2,5.1,5.3,8.3
						c1.1,3.3,1.7,6.8,2.3,10.4c0.3,1.8,0.6,3.6,1,5.3c0.2,0.9,0.3,1.8,0.5,2.6C596.5,193,596.7,193.8,596.8,194.8z"/>
				</g>
				<g>
					<path class="st3" d="M597.1,194.9c-1.6,0.1-3,0.1-4.3,0c-1.3-0.1-2.4-0.3-3.5-0.6c-2.1-0.6-3.7-1.4-5.1-2.5
						c-2.7-2.1-4.2-5.1-5.3-8.3c-1.1-3.3-1.7-6.8-2.3-10.4c-0.3-1.8-0.6-3.6-1-5.3c-0.2-0.9-0.3-1.8-0.5-2.6
						c-0.2-0.9-0.4-1.8-0.5-2.7c1.6-0.1,3-0.1,4.3,0c1.3,0.1,2.4,0.3,3.5,0.6c2.1,0.6,3.7,1.4,5.1,2.5c2.7,2.1,4.2,5.1,5.3,8.3
						c1.1,3.3,1.7,6.8,2.3,10.4c0.3,1.8,0.6,3.6,1,5.3c0.2,0.9,0.3,1.8,0.5,2.6C596.8,193.1,597,194,597.1,194.9z"/>
					<path class="st3" d="M580.2,186.8c-1.6,0.1-3,0.1-4.3,0c-1.3-0.1-2.4-0.3-3.5-0.6c-2.1-0.6-3.7-1.4-5.1-2.5
						c-2.7-2.1-4.2-5.1-5.3-8.3c-1.1-3.3-1.7-6.8-2.3-10.4c-0.3-1.8-0.6-3.6-1-5.3c-0.2-0.9-0.3-1.8-0.5-2.6
						c-0.2-0.9-0.4-1.8-0.5-2.7c1.6-0.1,3-0.1,4.3,0c1.3,0.1,2.4,0.3,3.5,0.6c2.1,0.6,3.7,1.4,5.1,2.5c2.7,2.1,4.2,5.1,5.3,8.3
						c1.1,3.3,1.7,6.8,2.3,10.4c0.3,1.8,0.6,3.6,1,5.3c0.2,0.9,0.3,1.8,0.5,2.6C579.9,185,580.1,185.8,580.2,186.8z"/>
				</g>
				<g>
					<path class="st3" d="M580.5,186.9c-1.6,0.1-3,0.1-4.3,0c-1.3-0.1-2.4-0.3-3.5-0.6c-2.1-0.6-3.7-1.4-5.1-2.5
						c-2.7-2.1-4.2-5.1-5.3-8.3c-1.1-3.3-1.7-6.8-2.3-10.4c-0.3-1.8-0.6-3.6-1-5.3c-0.2-0.9-0.3-1.8-0.5-2.6
						c-0.2-0.9-0.4-1.8-0.5-2.7c1.6-0.1,3-0.1,4.3,0c1.3,0.1,2.4,0.3,3.5,0.6c2.1,0.6,3.7,1.4,5.1,2.5c2.7,2.1,4.2,5.1,5.3,8.3
						c1.1,3.3,1.7,6.8,2.3,10.4c0.3,1.8,0.6,3.6,1,5.3c0.2,0.9,0.3,1.8,0.5,2.6C580.2,185.1,580.4,186,580.5,186.9z"/>
					<path class="st3" d="M563.6,178.8c-1.6,0.1-3,0.1-4.3,0c-1.3-0.1-2.4-0.3-3.5-0.6c-2.1-0.6-3.7-1.4-5.1-2.5
						c-2.7-2.1-4.2-5.1-5.3-8.3c-1.1-3.3-1.7-6.8-2.3-10.4c-0.3-1.8-0.6-3.6-1-5.3c-0.2-0.9-0.3-1.8-0.5-2.6
						c-0.2-0.9-0.4-1.8-0.5-2.7c1.6-0.1,3-0.1,4.3,0c1.3,0.1,2.4,0.3,3.5,0.6c2.1,0.6,3.7,1.4,5.1,2.5c2.7,2.1,4.2,5.1,5.3,8.3
						c1.1,3.3,1.7,6.8,2.3,10.4c0.3,1.8,0.6,3.6,1,5.3c0.2,0.9,0.3,1.8,0.5,2.6C563.4,177,563.5,177.9,563.6,178.8z"/>
				</g>
				<g>
					<path class="st3" d="M563.9,178.9c-1.6,0.1-3,0.1-4.3,0c-1.3-0.1-2.4-0.3-3.5-0.6c-2.1-0.6-3.7-1.4-5.1-2.5
						c-2.7-2.1-4.2-5.1-5.3-8.3c-1.1-3.3-1.7-6.8-2.3-10.4c-0.3-1.8-0.6-3.6-1-5.3c-0.2-0.9-0.3-1.8-0.5-2.6
						c-0.2-0.9-0.4-1.8-0.5-2.7c1.6-0.1,3-0.1,4.3,0c1.3,0.1,2.4,0.3,3.5,0.6c2.1,0.6,3.7,1.4,5.1,2.5c2.7,2.1,4.2,5.1,5.3,8.3
						c1.1,3.3,1.7,6.8,2.3,10.4c0.3,1.8,0.6,3.6,1,5.3c0.2,0.9,0.3,1.8,0.5,2.6C563.7,177.1,563.8,178,563.9,178.9z"/>
					<path class="st3" d="M547.1,170.8c-1.6,0.1-3,0.1-4.3,0c-1.3-0.1-2.4-0.3-3.5-0.6c-2.1-0.6-3.7-1.4-5.1-2.5
						c-2.7-2.1-4.2-5.1-5.3-8.3c-1.1-3.3-1.7-6.8-2.3-10.4c-0.3-1.8-0.6-3.6-1-5.3c-0.2-0.9-0.3-1.8-0.5-2.6
						c-0.2-0.9-0.4-1.8-0.5-2.7c1.6-0.1,3-0.1,4.3,0c1.3,0.1,2.4,0.3,3.5,0.6c2.1,0.6,3.7,1.4,5.1,2.5c2.7,2.1,4.2,5.1,5.3,8.3
						c1.1,3.3,1.7,6.8,2.4,10.4c0.3,1.8,0.6,3.6,1,5.3c0.2,0.9,0.3,1.8,0.5,2.6C546.8,169,547,169.9,547.1,170.8z"/>
				</g>
				<g>
					<path class="st3" d="M547.4,171c-1.6,0.1-3,0.1-4.3,0c-1.3-0.1-2.4-0.3-3.5-0.6c-2.1-0.6-3.7-1.4-5.1-2.5
						c-2.7-2.1-4.2-5.1-5.3-8.3c-1.1-3.3-1.7-6.8-2.3-10.4c-0.3-1.8-0.6-3.6-1-5.3c-0.2-0.9-0.3-1.8-0.5-2.6
						c-0.2-0.9-0.4-1.8-0.5-2.7c1.6-0.1,3-0.1,4.3,0c1.3,0.1,2.4,0.3,3.5,0.6c2.1,0.6,3.7,1.4,5.1,2.5c2.7,2.1,4.2,5.1,5.3,8.3
						c1.1,3.3,1.7,6.8,2.4,10.4c0.3,1.8,0.6,3.6,1,5.3c0.2,0.9,0.3,1.8,0.5,2.6C547.1,169.2,547.3,170,547.4,171z"/>
					<path class="st3" d="M530.5,162.8c-1.6,0.1-3,0.1-4.3,0c-1.3-0.1-2.4-0.3-3.5-0.6c-2.1-0.6-3.7-1.4-5.1-2.5
						c-2.7-2.1-4.2-5.1-5.3-8.3c-1.1-3.3-1.7-6.8-2.3-10.4c-0.3-1.8-0.6-3.6-1-5.3c-0.2-0.9-0.3-1.8-0.5-2.6
						c-0.2-0.9-0.4-1.8-0.5-2.7c1.6-0.1,3-0.1,4.3,0c1.3,0.1,2.4,0.3,3.5,0.6c2.1,0.6,3.7,1.4,5.1,2.5c2.7,2.1,4.2,5.1,5.3,8.3
						c1.1,3.3,1.7,6.8,2.4,10.4c0.3,1.8,0.6,3.6,1,5.3c0.2,0.9,0.3,1.8,0.5,2.6C530.2,161,530.4,161.9,530.5,162.8z"/>
				</g>
				<g>
					<path class="st3" d="M530.8,163c-1.6,0.1-3,0.1-4.3,0c-1.3-0.1-2.4-0.3-3.5-0.6c-2.1-0.6-3.7-1.4-5.1-2.5
						c-2.7-2.1-4.2-5.1-5.3-8.3c-1.1-3.3-1.7-6.8-2.3-10.4c-0.3-1.8-0.6-3.6-1-5.3c-0.2-0.9-0.3-1.8-0.5-2.6
						c-0.2-0.9-0.4-1.8-0.5-2.7c1.6-0.1,3-0.1,4.3,0c1.3,0.1,2.4,0.3,3.5,0.6c2.1,0.6,3.7,1.4,5.1,2.5c2.7,2.1,4.2,5.1,5.3,8.3
						c1.1,3.3,1.7,6.8,2.3,10.4c0.3,1.8,0.6,3.6,1,5.3c0.2,0.9,0.3,1.8,0.5,2.6C530.5,161.2,530.7,162,530.8,163z"/>
					<path class="st3" d="M513.9,154.9c-1.6,0.1-3,0.1-4.3,0c-1.3-0.1-2.4-0.3-3.5-0.6c-2.1-0.6-3.7-1.4-5.1-2.5
						c-2.7-2.1-4.2-5.1-5.3-8.3c-1.1-3.3-1.7-6.8-2.3-10.4c-0.3-1.8-0.6-3.6-1-5.3c-0.2-0.9-0.3-1.8-0.5-2.6
						c-0.2-0.9-0.4-1.8-0.5-2.7c1.6-0.1,3-0.1,4.3,0c1.3,0.1,2.4,0.3,3.5,0.6c2.1,0.6,3.7,1.4,5.1,2.5c2.7,2.1,4.2,5.1,5.3,8.3
						c1.1,3.3,1.7,6.8,2.4,10.4c0.3,1.8,0.6,3.6,1,5.3c0.2,0.9,0.3,1.8,0.5,2.6C513.6,153.1,513.8,153.9,513.9,154.9z"/>
				</g>
				<g>
					<path class="st3" d="M514.2,155c-1.6,0.1-3,0.1-4.3,0c-1.3-0.1-2.4-0.3-3.5-0.6c-2.1-0.6-3.7-1.4-5.1-2.5
						c-2.7-2.1-4.2-5.1-5.3-8.3c-1.1-3.3-1.7-6.8-2.3-10.4c-0.3-1.8-0.6-3.6-1-5.3c-0.2-0.9-0.3-1.8-0.5-2.6
						c-0.2-0.9-0.4-1.8-0.5-2.7c1.6-0.1,3-0.1,4.3,0c1.3,0.1,2.4,0.3,3.5,0.6c2.1,0.6,3.7,1.4,5.1,2.5c2.7,2.1,4.2,5.1,5.3,8.3
						c1.1,3.3,1.7,6.8,2.3,10.4c0.3,1.8,0.6,3.6,1,5.3c0.2,0.9,0.3,1.8,0.5,2.6C513.9,153.2,514.1,154.1,514.2,155z"/>
					<path class="st3" d="M497.4,146.9c-1.6,0.1-3,0.1-4.3,0c-1.3-0.1-2.4-0.3-3.5-0.6c-2.1-0.6-3.7-1.4-5.1-2.5
						c-2.7-2.1-4.2-5.1-5.3-8.3c-1.1-3.3-1.7-6.8-2.3-10.4c-0.3-1.8-0.6-3.6-1-5.3c-0.2-0.9-0.3-1.8-0.5-2.6
						c-0.2-0.9-0.4-1.8-0.5-2.7c1.6-0.1,3-0.1,4.3,0c1.3,0.1,2.4,0.3,3.5,0.6c2.1,0.6,3.7,1.4,5.1,2.5c2.7,2.1,4.2,5.1,5.3,8.3
						c1.1,3.3,1.7,6.8,2.4,10.4c0.3,1.8,0.6,3.6,1,5.3c0.2,0.9,0.3,1.8,0.5,2.6C497.1,145.1,497.3,145.9,497.4,146.9z"/>
				</g>
				<g>
					<path class="st3" d="M497.7,147c-1.6,0.1-3,0.1-4.3,0c-1.3-0.1-2.4-0.3-3.5-0.6c-2.1-0.6-3.7-1.4-5.1-2.5
						c-2.7-2.1-4.2-5.1-5.3-8.3c-1.1-3.3-1.7-6.8-2.3-10.4c-0.3-1.8-0.6-3.6-1-5.3c-0.2-0.9-0.3-1.8-0.5-2.6
						c-0.2-0.9-0.4-1.8-0.5-2.7c1.6-0.1,3-0.1,4.3,0c1.3,0.1,2.4,0.3,3.5,0.6c2.1,0.6,3.7,1.4,5.1,2.5c2.7,2.1,4.2,5.1,5.3,8.3
						c1.1,3.3,1.7,6.8,2.4,10.4c0.3,1.8,0.6,3.6,1,5.3c0.2,0.9,0.3,1.8,0.5,2.6C497.4,145.2,497.6,146.1,497.7,147z"/>
					<path class="st3" d="M480.8,138.9c-1.6,0.1-3,0.1-4.3,0c-1.3-0.1-2.4-0.3-3.5-0.6c-2.1-0.6-3.7-1.4-5.1-2.5
						c-2.7-2.1-4.2-5.1-5.3-8.3c-1.1-3.3-1.7-6.8-2.4-10.4c-0.3-1.8-0.6-3.6-1-5.3c-0.2-0.9-0.3-1.8-0.5-2.6
						c-0.2-0.9-0.4-1.8-0.5-2.7c1.6-0.1,3-0.1,4.3,0c1.3,0.1,2.4,0.3,3.5,0.6c2.1,0.6,3.7,1.4,5.1,2.5c2.7,2.1,4.2,5.1,5.3,8.3
						c1.1,3.3,1.7,6.8,2.4,10.4c0.3,1.8,0.6,3.6,1,5.3c0.2,0.9,0.3,1.8,0.5,2.6C480.5,137.1,480.7,138,480.8,138.9z"/>
				</g>
				<g>
					<path class="st3" d="M481.1,139c-1.6,0.1-3,0.1-4.3,0c-1.3-0.1-2.4-0.3-3.5-0.6c-2.1-0.6-3.7-1.4-5.1-2.5
						c-2.7-2.1-4.2-5.1-5.3-8.3c-1.1-3.3-1.7-6.8-2.3-10.4c-0.3-1.8-0.6-3.6-1-5.3c-0.2-0.9-0.3-1.8-0.5-2.6
						c-0.2-0.9-0.4-1.8-0.5-2.7c1.6-0.1,3-0.1,4.3,0c1.3,0.1,2.4,0.3,3.5,0.6c2.1,0.6,3.7,1.4,5.1,2.5c2.7,2.1,4.2,5.1,5.3,8.3
						c1.1,3.3,1.7,6.8,2.4,10.4c0.3,1.8,0.6,3.6,1,5.3c0.2,0.9,0.3,1.8,0.5,2.6C480.8,137.2,481,138.1,481.1,139z"/>
					<path class="st3" d="M464.2,130.9c-1.6,0.1-3,0.1-4.3,0c-1.3-0.1-2.4-0.3-3.5-0.6c-2.1-0.6-3.7-1.4-5.1-2.5
						c-2.7-2.1-4.2-5.1-5.3-8.3c-1.1-3.3-1.7-6.8-2.4-10.4c-0.3-1.8-0.6-3.6-1-5.3c-0.2-0.9-0.3-1.8-0.5-2.6
						c-0.2-0.9-0.4-1.8-0.5-2.7c1.6-0.1,3-0.1,4.3,0c1.3,0.1,2.4,0.3,3.5,0.6c2.1,0.6,3.7,1.4,5.1,2.5c2.7,2.1,4.2,5.1,5.3,8.3
						c1.1,3.3,1.7,6.8,2.3,10.4c0.3,1.8,0.6,3.6,1,5.3c0.2,0.9,0.3,1.8,0.5,2.6C463.9,129.1,464.1,130,464.2,130.9z"/>
				</g>
				<g>
					<path class="st3" d="M464.5,131.1c-1.6,0.1-3,0.1-4.3,0c-1.3-0.1-2.4-0.3-3.5-0.6c-2.1-0.6-3.7-1.4-5.1-2.5
						c-2.7-2.1-4.2-5.1-5.3-8.3c-1.1-3.3-1.7-6.8-2.3-10.4c-0.3-1.8-0.6-3.6-1-5.3c-0.2-0.9-0.3-1.8-0.5-2.6
						c-0.2-0.9-0.4-1.8-0.5-2.7c1.6-0.1,3-0.1,4.3,0c1.3,0.1,2.4,0.3,3.5,0.6c2.1,0.6,3.7,1.4,5.1,2.5c2.7,2.1,4.2,5.1,5.3,8.3
						c1.1,3.3,1.7,6.8,2.4,10.4c0.3,1.8,0.6,3.6,1,5.3c0.2,0.9,0.3,1.8,0.5,2.6C464.2,129.3,464.4,130.1,464.5,131.1z"/>
					<path class="st3" d="M447.6,122.9c-1.6,0.1-3,0.1-4.3,0c-1.3-0.1-2.4-0.3-3.5-0.6c-2.1-0.6-3.7-1.4-5.1-2.5
						c-2.7-2.1-4.2-5.1-5.3-8.3c-1.1-3.3-1.7-6.8-2.4-10.4c-0.3-1.8-0.6-3.6-1-5.3c-0.2-0.9-0.3-1.8-0.5-2.6
						c-0.2-0.9-0.4-1.8-0.5-2.7c1.6-0.1,3-0.1,4.3,0c1.3,0.1,2.4,0.3,3.5,0.6c2.1,0.6,3.7,1.4,5.1,2.5c2.7,2.1,4.2,5.1,5.3,8.3
						c1.1,3.3,1.7,6.8,2.3,10.4c0.3,1.8,0.6,3.6,1,5.3c0.2,0.9,0.3,1.8,0.5,2.6C447.4,121.1,447.6,122,447.6,122.9z"/>
				</g>
				<g>
					<path class="st3" d="M447.9,123.1c-1.6,0.1-3,0.1-4.3,0c-1.3-0.1-2.4-0.3-3.5-0.6c-2.1-0.6-3.7-1.4-5.1-2.5
						c-2.7-2.1-4.2-5.1-5.3-8.3c-1.1-3.3-1.7-6.8-2.4-10.4c-0.3-1.8-0.6-3.6-1-5.3c-0.2-0.9-0.3-1.8-0.5-2.6
						c-0.2-0.9-0.4-1.8-0.5-2.7c1.6-0.1,3-0.1,4.3,0c1.3,0.1,2.4,0.3,3.5,0.6c2.1,0.6,3.7,1.4,5.1,2.5c2.7,2.1,4.2,5.1,5.3,8.3
						c1.1,3.3,1.7,6.8,2.4,10.4c0.3,1.8,0.6,3.6,1,5.3c0.2,0.9,0.3,1.8,0.5,2.6C447.7,121.3,447.8,122.1,447.9,123.1z"/>
					<path class="st3" d="M431.1,115c-1.6,0.1-3,0.1-4.3,0c-1.3-0.1-2.4-0.3-3.5-0.6c-2.1-0.6-3.7-1.4-5.1-2.5
						c-2.7-2.1-4.2-5.1-5.3-8.3c-1.1-3.3-1.7-6.8-2.4-10.4c-0.3-1.8-0.6-3.6-1-5.3c-0.2-0.9-0.3-1.8-0.5-2.6
						c-0.2-0.9-0.4-1.8-0.5-2.7c1.6-0.1,3-0.1,4.3,0c1.3,0.1,2.4,0.3,3.5,0.6c2.1,0.6,3.7,1.4,5.1,2.5c2.7,2.1,4.2,5.1,5.3,8.3
						c1.1,3.3,1.7,6.8,2.3,10.4c0.3,1.8,0.6,3.6,1,5.3c0.2,0.9,0.3,1.8,0.5,2.6C430.8,113.2,431,114,431.1,115z"/>
				</g>
				<g>
					<path class="st3" d="M431.4,115.1c-1.6,0.1-3,0.1-4.3,0c-1.3-0.1-2.4-0.3-3.5-0.6c-2.1-0.6-3.7-1.4-5.1-2.5
						c-2.7-2.1-4.2-5.1-5.3-8.3c-0.3-0.8-0.5-1.7-0.7-2.5c-0.2-0.8-0.3-1.6-0.5-2.5c-0.4-1.7-0.8-3.4-1.4-5.1
						c-0.6-1.7-1.4-3.4-2.3-5.1c-0.5-0.8-1-1.7-1.5-2.5c-0.5-0.8-1.1-1.6-1.6-2.5c1.9-0.6,3.7-0.9,5.3-0.9c1.7-0.1,3.2,0.1,4.6,0.3
						c1.4,0.3,2.7,0.7,3.9,1.2c0.6,0.3,1.2,0.6,1.6,0.8c0.4,0.2,0.7,0.5,1.1,0.8c2.7,2.1,4.2,5.1,5.3,8.3c1.1,3.3,1.7,6.8,2.3,10.4
						c0.3,1.8,0.7,3.5,1,5.3l0.5,2.6C431.1,113.3,431.3,114.2,431.4,115.1z"/>
					<path class="st3" d="M414.5,107c-1.6,0.1-3,0.1-4.3,0c-1,0-1.7,0-2.5,0c-1.4-0.1-2.5-0.5-3.5-1c-1.9-1.1-3.6-3.2-5.6-5.6
						c-2-2.4-4.3-5-7.1-7.3c-1.4-1.2-2.9-2.2-4.6-3.2c-0.8-0.5-1.7-0.9-2.5-1.3c-0.9-0.4-1.8-0.8-2.7-1.3c1.3-1.5,2.7-2.6,4.1-3.6
						c1.4-0.9,2.8-1.6,4.1-2.1c2.7-1,5.3-1.2,7.6-1c4.6,0.5,8,3,10.4,5.9c2.4,3,3.7,6.5,4.5,10c0.4,1.8,0.6,3.4,1,5.2l0.5,2.6
						C414.2,105.2,414.4,106,414.5,107z"/>
				</g>
				<g>
					<path class="st3" d="M414.8,107.1c-1.6,0.1-3,0.1-4.3,0c-0.7-0.1-1,0-1.4,0c-0.4,0-0.8,0-1.1,0c-1.4-0.1-2.5-0.5-3.4-1.1
						c-1.9-1.1-3.5-3.2-5.5-5.6c-2-2.4-4.3-5.1-7-7.4c-1.4-1.2-2.9-2.3-4.5-3.2c-0.8-0.5-1.7-0.9-2.5-1.4c-0.9-0.4-1.7-0.9-2.7-1.3
						c1.3-1.5,2.7-2.6,4.1-3.5c1.4-0.9,2.8-1.6,4.2-2.1c2.7-1,5.3-1.2,7.6-0.9c4.6,0.6,8,3,10.3,6c2.3,3,3.7,6.5,4.5,10
						c0.4,1.8,0.6,3.4,1,5.2l0.5,2.6C414.5,105.3,414.7,106.2,414.8,107.1z"/>
					<path class="st3" d="M400.9,102.8c-1,0.8-1.9,1.4-2.7,1.9c-0.8,0.5-1.4,0.9-2.1,1.2c-1.3,0.6-2.3,0.9-3.5,0.9
						c-0.6,0-1.1-0.1-1.7-0.2c-0.6-0.1-1.1-0.3-2-0.4c-1.6-0.2-3.3-0.7-4.9-1.3c-3.2-1.2-6.4-2.9-9.6-4.6c-1.6-0.8-3.2-1.7-4.8-2.5
						l-2.4-1.2c-0.8-0.4-1.6-0.8-2.4-1.3c0.9-1.4,1.8-2.4,2.7-3.4c0.9-0.9,1.8-1.7,2.6-2.3c1.7-1.3,3.4-2,5.1-2.4
						c1.7-0.4,3.3-0.4,5-0.2c2,0,3.9,0.5,5.7,1.1c3.5,1.4,6.5,3.7,9,6.3c1.2,1.3,2.3,2.7,3.3,4c0.5,0.7,1,1.4,1.4,2.1
						C400.2,101.2,400.6,102,400.9,102.8z"/>
				</g>
			</g>
			<path class="st0" d="M607.1,568.9c1.3-0.6,2.7-1.3,3.9-2.3c1.8-1.4,3.2-3.2,4.4-5.4c0.6-1.1,1.1-2.4,1.6-3.8
				c0.5-1.6,0.9-3.1,1.1-4.7l0.5-3.2l-3.2-0.4c-0.9-0.1-1.8-0.1-2.6-0.2l-0.4,0c-0.9,0-1.8,0-2.7-0.1c-1.8-0.1-3.6-0.1-5.4-0.2
				l-0.3,0c-3.6-0.2-7.2-0.3-10.8,0c-2.9,0.3-7.3,1-11,4c-1.7,1.4-3.2,3.2-4.4,5.4c-0.6,1.1-1.1,2.4-1.6,3.8
				c-0.5,1.6-0.9,3.1-1.1,4.7l-0.4,2.4H607.1z M582.3,563.7c0.3-1,0.7-1.9,1.1-2.7c0.8-1.4,1.7-2.5,2.8-3.4c1.8-1.5,4.2-2.3,7.6-2.6
				c3.1-0.3,6.4-0.1,9.9,0l0.3,0c1.8,0.1,3.6,0.2,5.4,0.2c0.5,0,1.1,0,1.6,0c0,0.1,0,0.1-0.1,0.2c-0.3,1-0.7,1.9-1.2,2.7
				c-0.8,1.4-1.7,2.5-2.8,3.4c-1.8,1.5-4.2,2.3-7.6,2.6c-3.1,0.3-6.4,0.1-9.9,0l-0.2,0c-1.8-0.1-3.6-0.2-5.4-0.2c-0.5,0-1,0-1.6,0
				C582.2,563.9,582.3,563.8,582.3,563.7z"/>
		</g>
	</g>
	<g>
		<path class="st2" d="M399.6,430.7c1.5-0.1,3,0.3,4.5,1c1.9,0.9,3.4,2.4,4.3,4.1h0.2l27.7,50c-3.6,1.2-7.3,2.2-11.1,3.1
			c-21.2,4.8-42.3,3.4-61.4-3.2l27.6-49.9h0C393.2,432.6,396.3,430.8,399.6,430.7z M352.2,407.6c4.3,0.1,8.2,3.1,9.2,7.5
			c0.5,2.1,0.2,4.1-0.5,5.9l0.2,0.2l-21.8,52.6c-20.3-13.1-36.5-32.6-45.2-56.6l56.2-9.5l0.1,0.1
			C350.9,407.7,351.6,407.6,352.2,407.6z M447.3,407.4c0.7,0,1.5,0,2.2,0.2l0.1-0.1l56.6,9.6c-8.3,23.3-24.2,43.5-45.4,57l-22-53.1
			l0.1-0.1c-2-4.7,0-10.2,4.6-12.4C444.9,407.8,446.1,407.5,447.3,407.4z M391.2,360.9h17.5l10.9,13.6l-3.9,17L400,399l-15.8-7.6
			l-3.9-17L391.2,360.9z M495.9,319.7c6.3,10.3,11.2,21.8,14,34.2c2.8,12.3,3.5,24.6,2.4,36.5l-55-15.9l0-0.2
			c-4.9-1.3-8-6.4-6.8-11.4c0.5-2.1,1.6-3.8,3-5.1l0-0.1L495.9,319.7z M303.8,319.7l42.7,38.2l0,0.2c3.9,3.4,4.4,9.2,1.2,13.2
			c-1.3,1.7-3.1,2.8-5,3.3l0,0.2l-54.8,15.8C285.1,365.1,291.1,340.3,303.8,319.7z M413.6,267c24.8,3,47.6,14.3,65.2,31.4l-46.5,33
			l-0.2-0.1c-4.1,3-9.9,2.3-13.2-1.8c-1.3-1.7-2-3.6-2.1-5.6l0,0L413.6,267z M386.4,267l-3.2,57.1l-0.2,0.1
			c-0.2,5.1-4.4,9.2-9.6,9.2c-2.1,0-4.1-0.7-5.7-1.8l-0.1,0l-46.8-33.2c14.4-14.1,32.8-24.6,54-29.4
			C378.6,268.1,382.5,267.4,386.4,267z M400,182.6c-6,0-10.9,5.4-10.9,12.1c0,0.1,0,0.2,0,0.3c0,0.9-0.1,2,0,2.8
			c0.1,3.8,1,6.8,1.5,10.3c0.9,7.6,1.7,13.9,1.2,19.7c-0.5,2.2-2.1,4.2-3.5,5.6l-0.3,4.6c-6.5,0.5-13.1,1.5-19.7,3
			c-28.2,6.4-52.6,21-71.1,40.6c-1.2-0.8-3.3-2.3-3.9-2.8c-1.9,0.3-3.9,0.9-6.5-0.6c-4.9-3.3-9.3-7.8-14.7-13.2
			c-2.5-2.6-4.2-5.1-7.2-7.6c-0.7-0.6-1.7-1.3-2.4-1.9c-2.3-1.8-5-2.8-7.6-2.9c-3.3-0.1-6.6,1.2-8.7,3.8c-3.7,4.7-2.5,11.9,2.7,16
			c0.1,0,0.1,0.1,0.2,0.1c0.7,0.6,1.6,1.3,2.3,1.8c3.1,2.3,5.9,3.5,9,5.3c6.5,4,11.9,7.4,16.2,11.4c1.7,1.8,2,4.9,2.2,6.3l3.5,3.1
			c-18.7,28.1-27.3,62.8-22.2,98.1l-4.6,1.3c-1.2,1.6-2.9,4-4.7,4.7c-5.6,1.8-11.9,2.4-19.5,3.2c-3.6,0.3-6.7,0.1-10.4,0.8
			c-0.8,0.2-2,0.5-2.9,0.7c0,0-0.1,0-0.1,0c0,0-0.1,0-0.2,0c-6.4,1.6-10.5,7.4-9.2,13.2c1.3,5.8,7.6,9.3,14,7.9c0,0,0.1,0,0.2,0
			c0.1,0,0.1-0.1,0.2-0.1c0.9-0.2,2-0.4,2.8-0.6c3.7-1,6.4-2.5,9.8-3.7c7.2-2.6,13.2-4.7,19-5.6c2.4-0.2,5,1.5,6.3,2.2l4.7-0.8
			c10.9,33.8,33.8,61.2,62.7,78.3l-2,4.7c0.7,1.8,1.5,4.3,1,6.2c-2.1,5.5-5.7,11.3-9.8,17.7c-2,3-4,5.3-5.8,8.7
			c-0.4,0.8-1,2.1-1.4,2.9c-2.8,6-0.7,12.9,4.6,15.5c5.4,2.6,12.1-0.1,15-6.1c0,0,0,0,0,0c0,0,0,0,0,0c0.4-0.8,1-2,1.3-2.8
			c1.5-3.5,2.1-6.6,3.1-10c2.9-7.2,4.5-14.8,8.4-19.5c1.1-1.3,2.9-1.8,4.7-2.3l2.5-4.5c25.2,9.7,53.5,12.3,81.7,5.9
			c6.4-1.5,12.7-3.4,18.7-5.6c0.7,1.2,2,3.6,2.3,4.2c1.9,0.6,3.9,0.9,5.6,3.4c3,5.1,5,11.1,7.5,18.3c1.1,3.4,1.6,6.4,3.2,10
			c0.4,0.8,0.9,1.9,1.3,2.8c2.9,6,9.6,8.8,15,6.2c5.4-2.6,7.4-9.5,4.6-15.5c-0.4-0.9-1-2.1-1.4-2.9c-1.8-3.4-3.8-5.7-5.8-8.7
			c-4.1-6.4-7.5-11.8-9.6-17.3c-0.9-2.8,0.1-4.6,0.8-6.4c-0.4-0.5-1.3-3.1-1.8-4.4c30.1-17.8,52.3-46.1,62.7-78.9
			c1.4,0.2,3.9,0.7,4.6,0.8c1.6-1.1,3.1-2.5,6.1-2.3c5.8,0.8,11.8,3,19,5.6c3.3,1.3,6,2.8,9.8,3.8c0.8,0.2,1.9,0.4,2.8,0.6
			c0.1,0,0.1,0.1,0.2,0.1c0,0,0.1,0,0.2,0c6.5,1.4,12.7-2.1,14-8c1.3-5.8-2.8-11.7-9.2-13.2c-0.9-0.2-2.3-0.6-3.2-0.7
			c-3.8-0.7-6.9-0.5-10.4-0.8c-7.6-0.8-13.9-1.4-19.5-3.2c-2.3-0.9-3.9-3.6-4.7-4.7l-4.4-1.3c2.3-16.5,1.7-33.6-2.3-50.8
			c-4-17.3-11-33.2-20.4-47.1c1.1-1,3.3-2.9,3.9-3.5c0.2-1.9,0-4,2-6.2c4.3-4,9.7-7.3,16.2-11.4c3.1-1.8,5.9-3,9-5.3
			c0.7-0.5,1.7-1.3,2.4-1.9c5.2-4.2,6.4-11.3,2.7-16c-3.7-4.7-11-5.1-16.2-1c-0.7,0.6-1.8,1.4-2.4,1.9c-2.9,2.5-4.7,5-7.2,7.6
			c-5.4,5.4-9.8,10-14.7,13.3c-2.1,1.2-5.2,0.8-6.6,0.7l-4.1,3c-23.6-24.7-55.7-40.6-90.3-43.6c-0.1-1.4-0.2-4.1-0.3-4.9
			c-1.4-1.4-3.1-2.5-3.6-5.4c-0.5-5.8,0.3-12.1,1.2-19.7c0.5-3.5,1.3-6.5,1.5-10.3c0-0.9,0-2.1,0-3.1C410.9,188,406,182.6,400,182.6
			z"/>
	</g>
</g>
</svg>
