<?xml version="1.0" encoding="utf-8"?>
<!-- Generator: Adobe Illustrator 22.1.0, SVG Export Plug-In . SVG Version: 6.00 Build 0)  -->
<svg version="1.1"
	 id="svg2" inkscape:export-filename="/home/thockin/src/kubernetes/kubernetes.png" inkscape:export-xdpi="250.55" inkscape:export-ydpi="250.55" inkscape:version="0.48.4 r9939" sodipodi:docname="name_white.svg" xmlns:cc="http://creativecommons.org/ns#" xmlns:dc="http://purl.org/dc/elements/1.1/" xmlns:inkscape="http://www.inkscape.org/namespaces/inkscape" xmlns:rdf="http://www.w3.org/1999/02/22-rdf-syntax-ns#" xmlns:sodipodi="http://sodipodi.sourceforge.net/DTD/sodipodi-0.dtd" xmlns:svg="http://www.w3.org/2000/svg"
	 xmlns="http://www.w3.org/2000/svg" xmlns:xlink="http://www.w3.org/1999/xlink" x="0px" y="0px"
	 viewBox="-314.683 -489.175 800 800" enable-background="new -314.683 -489.175 800 800" xml:space="preserve">
<g>
	<g>
		<path fill="#326CE5" d="M78.544-188.473l-89.671,43.183c-4.28,2.061-7.389,5.959-8.446,10.591L-41.72-37.667
			c-1.057,4.632,0.052,9.493,3.014,13.207l62.054,77.814c2.962,3.714,7.454,5.878,12.205,5.878h99.527
			c4.751,0,9.243-2.163,12.205-5.878l62.054-77.814c2.962-3.714,4.071-8.575,3.014-13.207l-22.147-97.032
			c-1.057-4.632-4.166-8.53-8.446-10.591L92.09-188.473C87.81-190.535,82.824-190.535,78.544-188.473z"/>
		<circle fill="#326CE5" cx="85.317" cy="-268.217" r="66.5"/>
	</g>
	<g>
		<g>
			<path fill="#326CE5" d="M-55.656-20.643c-2.632-3.301-3.618-7.621-2.679-11.737l25.773-112.92
				c0.939-4.116,3.702-7.58,7.506-9.412l9.898-4.767l-37.079-17.856c-4.28-2.061-9.266-2.061-13.546,0l-68.376,32.928
				c-4.28,2.061-7.389,5.959-8.446,10.591l-16.887,73.989c-1.057,4.632,0.052,9.493,3.014,13.207l47.318,59.334
				c2.962,3.714,7.454,5.878,12.205,5.878h72.589L-55.656-20.643z"/>
			<circle fill="#326CE5" cx="-59.01" cy="-241.299" r="52.78"/>
		</g>
		<g>
			<path fill="#326CE5" d="M330.127-59.826l-16.888-73.989c-1.057-4.632-4.166-8.53-8.446-10.591l-68.376-32.928
				c-4.28-2.061-9.266-2.061-13.546,0l-37.079,17.856l9.898,4.767c3.804,1.832,6.566,5.296,7.506,9.412l25.773,112.92
				c0.939,4.116-0.047,8.436-2.679,11.737l-31.289,39.235h72.589c4.751,0,9.243-2.163,12.205-5.878l47.318-59.334
				C330.075-50.334,331.184-55.195,330.127-59.826z"/>
			<circle fill="#326CE5" cx="229.645" cy="-241.299" r="52.78"/>
		</g>
	</g>
	<g>
		<polygon fill="#FFFFFF" points="85.304,-178.702 179.277,-133.831 202.497,-32.98 137.477,47.901 33.179,47.912 -31.858,-32.956 
			-8.661,-133.809 		"/>
		<polygon fill="none" points="85.304,-178.702 179.277,-133.831 202.497,-32.981 137.477,47.901 33.179,47.912 -31.858,-32.956 
			-8.661,-133.809 		"/>
		<path fill="#326CE5" d="M84.433-189.587c-2.257,0.112-4.49,0.678-6.524,1.651l-89.009,42.529
			c-4.589,2.191-8.077,6.528-9.21,11.451l-21.958,95.533c-1.012,4.388-0.158,9.168,2.31,12.944c0.301,0.462,0.622,0.911,0.968,1.343
			l61.61,76.603c3.175,3.947,8.214,6.354,13.306,6.352l98.801-0.023c5.089,0.004,10.128-2.398,13.307-6.341l61.586-76.613
			c3.178-3.949,4.424-9.359,3.29-14.287l-21.994-95.532c-1.133-4.925-4.621-9.261-9.208-11.453l-89.021-42.506
			C90.13-189.158,87.264-189.73,84.433-189.587z"/>
		<path fill="#FFFFFF" d="M85.142-35.588c0.738-0.026,1.487,0.125,2.199,0.468c0.932,0.448,1.652,1.154,2.106,2.003h0.101
			l13.559,24.498c-1.761,0.589-3.57,1.094-5.42,1.514C87.32-4.751,76.983-5.464,67.624-8.653l13.524-24.454h0.023
			C81.981-34.622,83.52-35.528,85.142-35.588z M61.909-46.869c2.116,0.029,4.016,1.499,4.507,3.653
			c0.231,1.009,0.119,2.009-0.261,2.892l0.08,0.102L55.58-14.471c-9.963-6.393-17.898-15.964-22.142-27.707l27.502-4.667
			l0.046,0.057C61.295-46.846,61.606-46.874,61.909-46.869z M108.502-46.983c0.365-0.02,0.728,0.014,1.081,0.08l0.046-0.057
			l27.743,4.689c-4.061,11.407-11.831,21.29-22.211,27.903L104.393-40.38l0.034-0.046c-0.989-2.298,0-4.994,2.277-6.09
			C107.287-46.798,107.896-46.953,108.502-46.983z M81.023-69.774h8.572l5.327,6.66l-1.912,8.31l-7.697,3.7l-7.718-3.71l-1.912-8.31
			L81.023-69.774z M132.261-89.923c3.109,5.039,5.462,10.667,6.864,16.768c1.386,6.028,1.733,12.046,1.162,17.862l-26.956-7.764
			l-0.023-0.114c-2.414-0.66-3.897-3.115-3.335-5.578c0.229-1.009,0.765-1.862,1.49-2.494l-0.01-0.057L132.261-89.923z
			 M38.22-89.933L59.143-71.22l-0.023,0.114c1.889,1.642,2.167,4.492,0.592,6.466c-0.646,0.809-1.51,1.351-2.437,1.606l-0.023,0.091
			l-26.819,7.741C29.068-67.683,32.008-79.818,38.22-89.933z M91.996-115.753c12.122,1.492,23.331,6.98,31.921,15.391L101.149-84.22
			l-0.08-0.034c-2.021,1.477-4.868,1.11-6.442-0.864c-0.646-0.809-0.986-1.761-1.025-2.722l-0.023-0.01L91.996-115.753z
			 M78.643-115.753L77.06-87.806l-0.114,0.057c-0.105,2.501-2.163,4.497-4.688,4.497c-1.035,0-1.991-0.331-2.768-0.898l-0.044,0.023
			L46.53-100.373c7.042-6.926,16.051-12.044,26.431-14.401C74.859-115.204,76.754-115.524,78.643-115.753z M85.313-157.077
			c-2.942,0.002-5.327,2.652-5.327,5.92c0,0.051,0.011,0.099,0.013,0.149c-0.005,0.443-0.027,0.978-0.013,1.366
			c0.071,1.885,0.482,3.328,0.729,5.066c0.448,3.717,0.823,6.8,0.592,9.664c-0.226,1.081-1.021,2.069-1.731,2.755l-0.127,2.254
			c-3.196,0.265-6.415,0.751-9.63,1.48c-13.833,3.141-25.743,10.267-34.811,19.888c-0.589-0.402-1.619-1.14-1.925-1.366
			c-0.952,0.128-1.912,0.422-3.164-0.308c-2.383-1.604-4.555-3.82-7.182-6.489c-1.204-1.275-2.076-2.492-3.508-3.723
			c-0.324-0.28-0.82-0.657-1.183-0.945c-1.119-0.891-2.437-1.355-3.712-1.4c-1.636-0.057-3.214,0.584-4.246,1.878
			c-1.834,2.3-1.247,5.817,1.309,7.855c0.027,0.021,0.053,0.037,0.08,0.057c0.351,0.285,0.781,0.649,1.105,0.887
			c1.517,1.121,2.905,1.695,4.416,2.585c3.186,1.968,5.827,3.6,7.922,5.568c0.818,0.872,0.963,2.408,1.071,3.074l1.708,1.524
			c-9.141,13.757-13.372,30.749-10.872,48.063l-2.23,0.649c-0.589,0.76-1.42,1.955-2.29,2.31c-2.741,0.863-5.825,1.181-9.55,1.571
			c-1.75,0.146-3.259,0.059-5.112,0.411c-0.408,0.076-0.977,0.224-1.423,0.329c-0.016,0.004-0.03,0.009-0.046,0.013
			c-0.023,0.005-0.055,0.016-0.078,0.021c-3.141,0.76-5.159,3.646-4.509,6.489c0.649,2.846,3.718,4.575,6.877,3.893
			c0.023-0.005,0.055-0.005,0.08-0.01c0.036-0.009,0.066-0.025,0.101-0.034c0.441-0.098,0.993-0.204,1.379-0.308
			c1.821-0.489,3.141-1.206,4.781-1.834c3.524-1.263,6.444-2.32,9.288-2.732c1.188-0.092,2.44,0.734,3.063,1.081l2.321-0.398
			C24.826-23.255,36.025-9.862,50.206-1.46l-0.968,2.323c0.348,0.902,0.733,2.122,0.473,3.013c-1.034,2.681-2.805,5.511-4.822,8.666
			c-0.977,1.458-1.976,2.59-2.856,4.258c-0.212,0.398-0.48,1.012-0.683,1.434c-1.37,2.931-0.367,6.305,2.264,7.57
			c2.647,1.275,5.932-0.07,7.355-3.004c0.001-0.005,0.009-0.007,0.01-0.012c0.002-0.002-0.002-0.007,0-0.011
			c0.203-0.416,0.489-0.964,0.66-1.355c0.756-1.729,1.007-3.211,1.537-4.883c1.411-3.541,2.184-7.257,4.125-9.571
			c0.532-0.633,1.398-0.878,2.296-1.119l1.206-2.186c12.364,4.746,26.202,6.019,40.027,2.881c3.153-0.717,6.197-1.644,9.141-2.755
			c0.338,0.601,0.969,1.757,1.138,2.049c0.913,0.297,1.908,0.45,2.719,1.651c1.453,2.479,2.446,5.415,3.656,8.96
			c0.53,1.672,0.793,3.154,1.547,4.882c0.173,0.395,0.457,0.95,0.66,1.366c1.42,2.946,4.716,4.294,7.366,3.017
			c2.631-1.266,3.636-4.64,2.266-7.57c-0.204-0.421-0.484-1.035-0.696-1.433c-0.88-1.668-1.88-2.789-2.856-4.246
			c-2.017-3.156-3.691-5.778-4.724-8.46c-0.432-1.382,0.073-2.243,0.409-3.141c-0.201-0.231-0.633-1.537-0.887-2.152
			c14.738-8.702,25.608-22.594,30.713-38.636c0.69,0.108,1.889,0.32,2.277,0.398c0.802-0.528,1.539-1.219,2.983-1.105
			c2.844,0.411,5.765,1.468,9.291,2.732c1.638,0.628,2.958,1.357,4.781,1.845c0.384,0.103,0.935,0.199,1.377,0.295
			c0.036,0.009,0.067,0.027,0.103,0.034c0.023,0.005,0.057,0.007,0.078,0.012c3.159,0.679,6.227-1.05,6.877-3.894
			c0.649-2.844-1.368-5.731-4.507-6.489c-0.457-0.103-1.105-0.281-1.55-0.365c-1.853-0.35-3.362-0.263-5.11-0.409
			c-3.725-0.391-6.811-0.708-9.552-1.571c-1.117-0.434-1.912-1.764-2.3-2.312l-2.15-0.626c1.115-8.07,0.815-16.469-1.117-24.874
			c-1.948-8.481-5.391-16.24-9.982-23.074c0.551-0.502,1.594-1.425,1.889-1.697c0.087-0.955,0.012-1.958,1.001-3.017
			c2.096-1.967,4.737-3.598,7.924-5.567c1.512-0.889,2.91-1.462,4.427-2.583c0.343-0.255,0.813-0.657,1.172-0.946
			c2.556-2.039,3.145-5.553,1.309-7.855c-1.834-2.3-5.39-2.517-7.945-0.477c-0.363,0.288-0.857,0.663-1.183,0.944
			c-1.432,1.231-2.315,2.446-3.519,3.723c-2.627,2.668-4.799,4.895-7.182,6.499c-1.034,0.602-2.547,0.393-3.234,0.352l-2.026,1.446
			c-11.555-12.116-27.287-19.863-44.226-21.367c-0.048-0.71-0.11-1.992-0.127-2.378c-0.692-0.663-1.53-1.231-1.741-2.665
			c-0.231-2.864,0.155-5.946,0.603-9.664c0.247-1.738,0.66-3.181,0.729-5.066c0.016-0.429-0.009-1.051-0.01-1.515
			C90.64-154.425,88.257-157.077,85.313-157.077z"/>
		<path fill="none" d="M85.142-35.588c0.738-0.026,1.487,0.125,2.199,0.468c0.932,0.448,1.652,1.154,2.106,2.003h0.101
			l13.559,24.498c-1.761,0.589-3.57,1.094-5.42,1.514C87.32-4.751,76.983-5.464,67.624-8.653l13.524-24.454h0.023
			C81.981-34.622,83.52-35.528,85.142-35.588z M61.909-46.869c2.116,0.029,4.016,1.499,4.507,3.653
			c0.231,1.009,0.119,2.009-0.261,2.892l0.08,0.102L55.58-14.471c-9.963-6.393-17.898-15.964-22.142-27.707l27.502-4.667
			l0.046,0.057C61.295-46.846,61.606-46.874,61.909-46.869z M108.502-46.983c0.365-0.02,0.728,0.014,1.081,0.08l0.046-0.057
			l27.743,4.689c-4.061,11.407-11.831,21.29-22.211,27.903L104.393-40.38l0.034-0.046c-0.989-2.298,0-4.994,2.277-6.09
			C107.287-46.798,107.896-46.953,108.502-46.983z M81.023-69.774h8.572l5.327,6.66l-1.912,8.31l-7.697,3.7l-7.718-3.71l-1.912-8.31
			L81.023-69.774z M132.261-89.923c3.109,5.039,5.462,10.667,6.864,16.768c1.386,6.028,1.733,12.046,1.162,17.862l-26.956-7.764
			l-0.023-0.114c-2.414-0.66-3.897-3.115-3.335-5.578c0.229-1.009,0.765-1.862,1.49-2.494l-0.01-0.057L132.261-89.923z
			 M38.22-89.933L59.143-71.22l-0.023,0.114c1.889,1.642,2.167,4.492,0.592,6.466c-0.646,0.809-1.51,1.351-2.437,1.606l-0.023,0.091
			l-26.819,7.741C29.068-67.683,32.008-79.818,38.22-89.933z M91.996-115.753c12.122,1.492,23.331,6.98,31.921,15.391L101.149-84.22
			l-0.08-0.034c-2.021,1.477-4.868,1.11-6.442-0.864c-0.646-0.809-0.986-1.761-1.025-2.722l-0.023-0.01L91.996-115.753z
			 M78.643-115.753L77.06-87.806l-0.114,0.057c-0.105,2.501-2.163,4.497-4.688,4.497c-1.035,0-1.991-0.331-2.768-0.898l-0.044,0.023
			L46.53-100.373c7.042-6.926,16.051-12.044,26.431-14.401C74.859-115.204,76.754-115.524,78.643-115.753z M85.313-157.077
			c-2.942,0.002-5.327,2.652-5.327,5.92c0,0.051,0.011,0.099,0.013,0.149c-0.005,0.443-0.027,0.978-0.013,1.366
			c0.071,1.885,0.482,3.328,0.729,5.066c0.448,3.717,0.823,6.8,0.592,9.664c-0.226,1.081-1.021,2.069-1.731,2.755l-0.127,2.254
			c-3.196,0.265-6.415,0.751-9.63,1.48c-13.833,3.141-25.743,10.267-34.811,19.888c-0.589-0.402-1.619-1.14-1.925-1.366
			c-0.952,0.128-1.912,0.422-3.164-0.308c-2.383-1.604-4.555-3.82-7.182-6.489c-1.204-1.275-2.076-2.492-3.508-3.723
			c-0.324-0.28-0.82-0.657-1.183-0.945c-1.119-0.891-2.437-1.355-3.712-1.4c-1.636-0.057-3.214,0.584-4.246,1.878
			c-1.834,2.3-1.247,5.817,1.309,7.855c0.027,0.021,0.053,0.037,0.08,0.057c0.351,0.285,0.781,0.649,1.105,0.887
			c1.517,1.121,2.905,1.695,4.416,2.585c3.186,1.968,5.827,3.6,7.922,5.568c0.818,0.872,0.963,2.408,1.071,3.074l1.708,1.524
			c-9.141,13.757-13.372,30.749-10.872,48.063l-2.23,0.649c-0.589,0.76-1.42,1.955-2.29,2.31c-2.741,0.863-5.825,1.181-9.55,1.571
			c-1.75,0.146-3.259,0.059-5.112,0.411c-0.408,0.076-0.977,0.224-1.423,0.329c-0.016,0.004-0.03,0.009-0.046,0.013
			c-0.023,0.005-0.055,0.016-0.078,0.021c-3.141,0.76-5.159,3.646-4.509,6.489c0.649,2.846,3.718,4.575,6.877,3.893
			c0.023-0.005,0.055-0.005,0.08-0.01c0.036-0.009,0.066-0.025,0.101-0.034c0.441-0.098,0.993-0.204,1.379-0.308
			c1.821-0.489,3.141-1.206,4.781-1.834c3.524-1.263,6.444-2.32,9.288-2.732c1.188-0.092,2.44,0.734,3.063,1.081l2.321-0.398
			C24.826-23.255,36.025-9.862,50.206-1.46l-0.968,2.323c0.348,0.902,0.733,2.122,0.473,3.013c-1.034,2.681-2.805,5.511-4.822,8.666
			c-0.977,1.458-1.976,2.59-2.856,4.258c-0.212,0.398-0.48,1.012-0.683,1.434c-1.37,2.931-0.367,6.305,2.264,7.57
			c2.647,1.275,5.932-0.07,7.355-3.004c0.001-0.005,0.009-0.007,0.01-0.012c0.002-0.002-0.002-0.007,0-0.011
			c0.203-0.416,0.489-0.964,0.66-1.355c0.756-1.729,1.007-3.211,1.537-4.883c1.411-3.541,2.184-7.257,4.125-9.571
			c0.532-0.633,1.398-0.878,2.296-1.119l1.206-2.186c12.364,4.746,26.202,6.019,40.027,2.881c3.153-0.717,6.197-1.644,9.141-2.755
			c0.338,0.601,0.969,1.757,1.138,2.049c0.913,0.297,1.908,0.45,2.719,1.651c1.453,2.479,2.446,5.415,3.656,8.96
			c0.53,1.672,0.793,3.154,1.547,4.882c0.173,0.395,0.457,0.95,0.66,1.366c1.42,2.946,4.716,4.294,7.366,3.017
			c2.631-1.266,3.636-4.64,2.266-7.57c-0.204-0.421-0.484-1.035-0.696-1.433c-0.88-1.668-1.88-2.789-2.856-4.246
			c-2.017-3.156-3.691-5.778-4.724-8.46c-0.432-1.382,0.073-2.243,0.409-3.141c-0.201-0.231-0.633-1.537-0.887-2.152
			c14.738-8.702,25.608-22.594,30.713-38.636c0.69,0.108,1.889,0.32,2.277,0.398c0.802-0.528,1.539-1.219,2.983-1.105
			c2.844,0.411,5.765,1.468,9.291,2.732c1.638,0.628,2.958,1.357,4.781,1.845c0.384,0.103,0.935,0.199,1.377,0.295
			c0.036,0.009,0.067,0.027,0.103,0.034c0.023,0.005,0.057,0.007,0.078,0.012c3.159,0.679,6.227-1.05,6.877-3.894
			c0.649-2.844-1.368-5.731-4.507-6.489c-0.457-0.103-1.105-0.281-1.55-0.365c-1.853-0.35-3.362-0.263-5.11-0.409
			c-3.725-0.391-6.811-0.708-9.552-1.571c-1.117-0.434-1.912-1.764-2.3-2.312l-2.15-0.626c1.115-8.07,0.815-16.469-1.117-24.874
			c-1.948-8.481-5.391-16.24-9.982-23.074c0.551-0.502,1.594-1.425,1.889-1.697c0.087-0.955,0.012-1.958,1.001-3.017
			c2.096-1.967,4.737-3.598,7.924-5.567c1.512-0.889,2.91-1.462,4.427-2.583c0.343-0.255,0.813-0.657,1.172-0.946
			c2.556-2.039,3.145-5.553,1.309-7.855c-1.834-2.3-5.39-2.517-7.945-0.477c-0.363,0.288-0.857,0.663-1.183,0.944
			c-1.432,1.231-2.315,2.446-3.519,3.723c-2.627,2.668-4.799,4.895-7.182,6.499c-1.034,0.602-2.547,0.393-3.234,0.352l-2.026,1.446
			c-11.555-12.116-27.287-19.863-44.226-21.367c-0.048-0.71-0.11-1.992-0.127-2.378c-0.692-0.663-1.53-1.231-1.741-2.665
			c-0.231-2.864,0.155-5.946,0.603-9.664c0.247-1.738,0.66-3.181,0.729-5.066c0.016-0.429-0.009-1.051-0.01-1.515
			C90.64-154.425,88.257-157.077,85.313-157.077z"/>
	</g>
	<g>
		<path fill="#326CE5" d="M-96.519,111.153c1.188-1.289,2.414-2.631,3.683-4.027c1.267-1.396,2.495-2.778,3.682-4.147
			c1.188-1.37,2.307-2.671,3.358-3.907c1.052-1.233,1.956-2.308,2.711-3.222h14.354c-2.863,3.289-5.658,6.429-8.385,9.418
			c-2.728,2.991-5.712,6.076-8.952,9.257c1.62,1.46,3.293,3.206,5.023,5.234c1.728,2.028,3.402,4.125,5.022,6.29
			c1.621,2.164,3.105,4.327,4.456,6.491c1.35,2.164,2.483,4.139,3.403,5.924h-13.88c-0.863-1.407-1.847-2.963-2.952-4.67
			c-1.105-1.705-2.277-3.41-3.518-5.115s-2.547-3.343-3.922-4.913c-1.375-1.569-2.737-2.896-4.083-3.979v18.678h-12.071V77.541
			l12.071-1.944V111.153z"/>
		<path fill="#326CE5" d="M-26.117,137.006c-2.053,0.595-4.699,1.147-7.939,1.66c-3.241,0.513-6.644,0.771-10.208,0.771
			c-3.619,0-6.63-0.486-9.033-1.459c-2.404-0.972-4.308-2.335-5.711-4.091c-1.405-1.755-2.404-3.849-2.998-6.279
			c-0.595-2.43-0.891-5.104-0.891-8.02V95.849h12.071v22.279c0,3.889,0.512,6.698,1.539,8.426c1.025,1.729,2.943,2.593,5.752,2.593
			c0.863,0,1.782-0.041,2.754-0.122s1.835-0.175,2.593-0.283V95.849h12.071V137.006z"/>
		<path fill="#326CE5" d="M24.84,117.157c0,3.402-0.5,6.48-1.499,9.235c-1,2.755-2.444,5.104-4.334,7.049
			c-1.891,1.944-4.213,3.442-6.967,4.496c-2.754,1.053-5.887,1.579-9.397,1.579c-1.458,0-2.985-0.068-4.578-0.202
			c-1.594-0.136-3.159-0.312-4.699-0.526c-1.539-0.217-3.011-0.473-4.415-0.77c-1.405-0.297-2.647-0.607-3.727-0.932V77.541
			l12.071-1.944v21.226c1.35-0.594,2.754-1.053,4.213-1.377c1.458-0.324,3.024-0.486,4.699-0.486c3.024,0,5.698,0.526,8.021,1.58
			c2.322,1.053,4.266,2.552,5.833,4.496c1.566,1.944,2.754,4.281,3.565,7.008C24.435,110.77,24.84,113.808,24.84,117.157z
			 M12.526,116.833c0-7.777-2.863-11.666-8.588-11.666c-1.243,0-2.471,0.162-3.686,0.486c-1.215,0.323-2.201,0.729-2.957,1.215
			v21.955c0.594,0.108,1.35,0.202,2.269,0.283c0.917,0.081,1.917,0.122,2.998,0.122c3.293,0,5.778-1.135,7.453-3.403
			C11.688,123.557,12.526,120.559,12.526,116.833z"/>
		<path fill="#326CE5" d="M32.13,117.481c0-3.78,0.58-7.089,1.742-9.925c1.161-2.835,2.686-5.197,4.577-7.089
			c1.89-1.89,4.063-3.321,6.521-4.294c2.457-0.972,4.982-1.458,7.575-1.458c6.048,0,10.828,1.851,14.339,5.55
			c3.51,3.7,5.266,9.142,5.266,16.324c0,0.702-0.028,1.473-0.081,2.309c-0.054,0.838-0.109,1.58-0.162,2.229H44.526
			c0.27,2.484,1.43,4.455,3.483,5.914c2.052,1.458,4.807,2.188,8.264,2.188c2.214,0,4.387-0.203,6.521-0.608
			c2.133-0.404,3.875-0.903,5.226-1.498l1.62,9.803c-0.648,0.324-1.513,0.647-2.592,0.972c-1.081,0.324-2.282,0.607-3.605,0.851
			c-1.324,0.243-2.742,0.446-4.253,0.608c-1.513,0.161-3.025,0.242-4.537,0.242c-3.836,0-7.17-0.566-10.005-1.701
			c-2.835-1.134-5.185-2.686-7.048-4.658c-1.863-1.971-3.241-4.307-4.132-7.008C32.576,123.53,32.13,120.614,32.13,117.481z
			 M60.486,112.863c-0.055-1.025-0.23-2.025-0.527-2.998c-0.297-0.972-0.757-1.835-1.377-2.592c-0.622-0.756-1.405-1.378-2.35-1.863
			c-0.946-0.486-2.12-0.729-3.524-0.729c-1.351,0-2.512,0.23-3.484,0.688c-0.972,0.46-1.782,1.067-2.43,1.823
			c-0.648,0.757-1.148,1.634-1.499,2.633c-0.352,1-0.607,2.013-0.77,3.038H60.486z"/>
		<path fill="#326CE5" d="M98.886,117.157c0-3.079,0.499-5.981,1.499-8.709c0.999-2.727,2.443-5.104,4.334-7.13
			c1.89-2.025,4.185-3.632,6.886-4.82c2.7-1.188,5.779-1.782,9.236-1.782c2.269,0,4.347,0.202,6.238,0.607
			c1.89,0.405,3.727,0.986,5.509,1.742l-2.511,9.641c-1.134-0.432-2.377-0.811-3.727-1.134c-1.351-0.324-2.864-0.486-4.537-0.486
			c-3.564,0-6.226,1.107-7.98,3.321c-1.756,2.216-2.633,5.132-2.633,8.75c0,3.835,0.823,6.805,2.471,8.911
			c1.647,2.106,4.523,3.16,8.628,3.16c1.458,0,3.024-0.135,4.699-0.405c1.673-0.27,3.213-0.701,4.618-1.296l1.702,9.884
			c-1.405,0.595-3.16,1.105-5.266,1.539c-2.106,0.432-4.429,0.647-6.967,0.647c-3.889,0-7.238-0.581-10.046-1.741
			c-2.809-1.161-5.118-2.741-6.927-4.739c-1.81-1.998-3.133-4.361-3.97-7.089C99.304,123.302,98.886,120.345,98.886,117.157z"/>
		<path fill="#326CE5" d="M167.1,106.544c-1.081-0.27-2.349-0.553-3.808-0.851c-1.458-0.296-3.025-0.445-4.699-0.445
			c-0.757,0-1.661,0.068-2.714,0.202c-1.053,0.136-1.851,0.284-2.39,0.445v32.568h-12.071V98.118
			c2.16-0.756,4.711-1.471,7.656-2.146c2.943-0.675,6.224-1.013,9.843-1.013c0.648,0,1.43,0.04,2.349,0.121
			c0.918,0.081,1.835,0.19,2.754,0.324c0.918,0.136,1.836,0.298,2.755,0.486c0.917,0.189,1.701,0.419,2.349,0.688L167.1,106.544z"/>
		<path fill="#326CE5" d="M172.772,117.481c0-3.78,0.58-7.089,1.742-9.925c1.161-2.835,2.686-5.197,4.577-7.089
			c1.89-1.89,4.063-3.321,6.521-4.294c2.457-0.972,4.982-1.458,7.575-1.458c6.048,0,10.828,1.851,14.339,5.55
			c3.51,3.7,5.266,9.142,5.266,16.324c0,0.702-0.028,1.473-0.081,2.309c-0.054,0.838-0.109,1.58-0.162,2.229h-27.383
			c0.27,2.484,1.43,4.455,3.483,5.914c2.052,1.458,4.807,2.188,8.264,2.188c2.214,0,4.387-0.203,6.521-0.608
			c2.133-0.404,3.875-0.903,5.226-1.498l1.62,9.803c-0.648,0.324-1.513,0.647-2.592,0.972c-1.081,0.324-2.282,0.607-3.605,0.851
			c-1.324,0.243-2.742,0.446-4.253,0.608c-1.513,0.161-3.025,0.242-4.537,0.242c-3.836,0-7.17-0.566-10.005-1.701
			c-2.835-1.134-5.185-2.686-7.048-4.658c-1.863-1.971-3.241-4.307-4.132-7.008C173.217,123.53,172.772,120.614,172.772,117.481z
			 M201.127,112.863c-0.055-1.025-0.23-2.025-0.527-2.998c-0.297-0.972-0.757-1.835-1.377-2.592
			c-0.622-0.756-1.405-1.378-2.35-1.863c-0.946-0.486-2.12-0.729-3.524-0.729c-1.351,0-2.512,0.23-3.484,0.688
			c-0.972,0.46-1.782,1.067-2.43,1.823c-0.648,0.757-1.148,1.634-1.499,2.633c-0.352,1-0.607,2.013-0.77,3.038H201.127z"/>
		<path fill="#326CE5" d="M248.075,113.997c-1.081,4.105-2.228,8.183-3.443,12.233c-1.215,4.051-2.499,8.13-3.849,12.233h-9.397
			c-0.975-2.269-2.032-4.969-3.168-8.102c-1.138-3.132-2.316-6.548-3.534-10.248c-1.219-3.699-2.465-7.615-3.738-11.747
			s-2.505-8.305-3.696-12.518h12.719c0.435,1.945,0.909,4.065,1.425,6.36c0.517,2.296,1.06,4.658,1.631,7.089
			c0.571,2.43,1.168,4.875,1.793,7.332c0.624,2.458,1.262,4.82,1.916,7.088c0.701-2.376,1.39-4.806,2.065-7.291
			c0.675-2.483,1.323-4.928,1.944-7.332c0.621-2.402,1.215-4.726,1.783-6.967c0.567-2.241,1.066-4.334,1.499-6.279h8.75
			c0.432,1.945,0.918,4.038,1.458,6.279c0.539,2.241,1.106,4.564,1.701,6.967c0.594,2.404,1.215,4.849,1.863,7.332
			c0.648,2.485,1.323,4.915,2.025,7.291c0.652-2.268,1.304-4.63,1.956-7.088c0.652-2.457,1.263-4.902,1.834-7.332
			c0.57-2.431,1.113-4.793,1.629-7.089c0.516-2.295,0.991-4.415,1.426-6.36h12.558c-1.192,4.213-2.424,8.386-3.698,12.518
			s-2.519,8.048-3.737,11.747c-1.219,3.7-2.41,7.116-3.575,10.248c-1.165,3.133-2.234,5.833-3.209,8.102h-9.397
			c-1.351-4.104-2.674-8.183-3.97-12.233C250.343,122.18,249.154,118.102,248.075,113.997z"/>
	</g>
</g>
</svg>
