<?xml version="1.0" encoding="UTF-8" standalone="no"?>
<!-- Created with Inkscape (http://www.inkscape.org/) -->

<svg
   xmlns:dc="http://purl.org/dc/elements/1.1/"
   xmlns:cc="http://creativecommons.org/ns#"
   xmlns:rdf="http://www.w3.org/1999/02/22-rdf-syntax-ns#"
   xmlns:svg="http://www.w3.org/2000/svg"
   xmlns="http://www.w3.org/2000/svg"
   xmlns:sodipodi="http://sodipodi.sourceforge.net/DTD/sodipodi-0.dtd"
   xmlns:inkscape="http://www.inkscape.org/namespaces/inkscape"
   width="18.035334mm"
   height="17.500378mm"
   viewBox="0 0 18.035334 17.500378"
   version="1.1"
   id="svg13826"
   inkscape:version="0.91 r13725"
   sodipodi:docname="cluster.svg">
  <defs
     id="defs13820" />
  <sodipodi:namedview
     id="base"
     pagecolor="#ffffff"
     bordercolor="#666666"
     borderopacity="1.0"
     inkscape:pageopacity="0.0"
     inkscape:pageshadow="2"
     inkscape:zoom="8"
     inkscape:cx="16.847496"
     inkscape:cy="33.752239"
     inkscape:document-units="mm"
     inkscape:current-layer="layer1"
     showgrid="false"
     inkscape:window-width="1440"
     inkscape:window-height="775"
     inkscape:window-x="0"
     inkscape:window-y="1"
     inkscape:window-maximized="1"
     fit-margin-top="0"
     fit-margin-left="0"
     fit-margin-right="0"
     fit-margin-bottom="0" />
  <metadata
     id="metadata13823">
    <rdf:RDF>
      <cc:Work
         rdf:about="">
        <dc:format>image/svg+xml</dc:format>
        <dc:type
           rdf:resource="http://purl.org/dc/dcmitype/StillImage" />
        <dc:title />
      </cc:Work>
    </rdf:RDF>
  </metadata>
  <g
     inkscape:label="Calque 1"
     inkscape:groupmode="layer"
     id="layer1"
     transform="translate(-0.99262638,-1.174181)">
    <g
       id="g70"
       transform="matrix(1.0148887,0,0,1.0148887,16.902146,-2.698726)">
      <path
         inkscape:export-ydpi="250.55"
         inkscape:export-xdpi="250.55"
         inkscape:export-filename="new.png"
         inkscape:connector-curvature="0"
         id="path3055"
         d="m -6.8492015,4.2724668 a 1.1191255,1.1099671 0 0 0 -0.4288818,0.1085303 l -5.8524037,2.7963394 a 1.1191255,1.1099671 0 0 0 -0.605524,0.7529759 l -1.443828,6.2812846 a 1.1191255,1.1099671 0 0 0 0.151943,0.851028 1.1191255,1.1099671 0 0 0 0.06362,0.08832 l 4.0508,5.036555 a 1.1191255,1.1099671 0 0 0 0.874979,0.417654 l 6.4961011,-0.0015 a 1.1191255,1.1099671 0 0 0 0.8749788,-0.416906 L 1.3818872,15.149453 A 1.1191255,1.1099671 0 0 0 1.5981986,14.210104 L 0.15212657,7.9288154 A 1.1191255,1.1099671 0 0 0 -0.45339794,7.1758396 L -6.3065496,4.3809971 A 1.1191255,1.1099671 0 0 0 -6.8492015,4.2724668 Z"
         style="fill:#326ce5;fill-opacity:1;stroke:none;stroke-width:0;stroke-miterlimit:4;stroke-dasharray:none;stroke-opacity:1" />
      <path
         id="path3054-2-9"
         d="M -6.8523435,3.8176372 A 1.1814304,1.171762 0 0 0 -7.3044284,3.932904 l -6.1787426,2.9512758 a 1.1814304,1.171762 0 0 0 -0.639206,0.794891 l -1.523915,6.6308282 a 1.1814304,1.171762 0 0 0 0.160175,0.89893 1.1814304,1.171762 0 0 0 0.06736,0.09281 l 4.276094,5.317236 a 1.1814304,1.171762 0 0 0 0.92363,0.440858 l 6.8576188,-0.0015 a 1.1814304,1.171762 0 0 0 0.9236308,-0.44011 l 4.2745966,-5.317985 a 1.1814304,1.171762 0 0 0 0.228288,-0.990993 L 0.53894439,7.6775738 A 1.1814304,1.171762 0 0 0 -0.10026101,6.8834313 L -6.2790037,3.9321555 A 1.1814304,1.171762 0 0 0 -6.8523435,3.8176372 Z m 0.00299,0.4550789 a 1.1191255,1.1099671 0 0 1 0.5426517,0.1085303 l 5.85315169,2.7948425 A 1.1191255,1.1099671 0 0 1 0.15197811,7.9290648 L 1.598051,14.21035 a 1.1191255,1.1099671 0 0 1 -0.2163123,0.939348 l -4.0493032,5.037304 a 1.1191255,1.1099671 0 0 1 -0.8749789,0.416906 l -6.4961006,0.0015 a 1.1191255,1.1099671 0 0 1 -0.874979,-0.417652 l -4.0508,-5.036554 a 1.1191255,1.1099671 0 0 1 -0.06362,-0.08832 1.1191255,1.1099671 0 0 1 -0.151942,-0.851028 l 1.443827,-6.2812853 a 1.1191255,1.1099671 0 0 1 0.605524,-0.7529758 l 5.8524036,-2.7963395 a 1.1191255,1.1099671 0 0 1 0.4288819,-0.1085303 z"
         style="color:#000000;font-style:normal;font-variant:normal;font-weight:normal;font-stretch:normal;font-size:medium;line-height:normal;font-family:Sans;-inkscape-font-specification:Sans;text-indent:0;text-align:start;text-decoration:none;text-decoration-line:none;letter-spacing:normal;word-spacing:normal;text-transform:none;writing-mode:lr-tb;direction:ltr;baseline-shift:baseline;text-anchor:start;display:inline;overflow:visible;visibility:visible;fill:#ffffff;fill-opacity:1;fill-rule:nonzero;stroke:none;stroke-width:0;stroke-miterlimit:4;stroke-dasharray:none;marker:none;enable-background:accumulate"
         inkscape:connector-curvature="0" />
    </g>
    <g
      transform="translate(.4,.6) scale(0.3)"
      fill-rule="nonzero">
      <path fill="#fff" d="M32.006 8.135a1.41 1.41 0 0 0-1.31 1.48v.376c.037.425.099.848.184 1.266.123.8.167 1.611.132 2.42a1.46 1.46 0 0 1-.436.69l-.03.564a17.44 17.44 0 0 0-2.406.372 17.13 17.13 0 0 0-8.708 4.97l-.48-.34c-.264.08-.548.05-.79-.08a12.44 12.44 0 0 1-1.794-1.62c-.273-.326-.565-.637-.874-.93l-.296-.236a1.6 1.6 0 0 0-.926-.35 1.28 1.28 0 0 0-1.062.472 1.41 1.41 0 0 0 .328 1.966l.276.2c.355.236.724.452 1.104.646.713.394 1.382.864 1.996 1.4a1.48 1.48 0 0 1 .266.768l.436.4A17.24 17.24 0 0 0 14.9 34.581l-.56.16a1.83 1.83 0 0 1-.572.576c-.781.209-1.581.341-2.388.394-.428.009-.856.042-1.28.1l-.354.08h-.04a1.34 1.34 0 0 0-.774 2.264 1.34 1.34 0 0 0 1.368.33h.026l.36-.04a10.69 10.69 0 0 0 1.196-.436c.75-.3 1.528-.53 2.324-.68a1.46 1.46 0 0 1 .764.27l.6-.1c1.3 4.034 4.032 7.452 7.68 9.606l-.244.51c.112.234.154.494.12.752-.33.764-.734 1.496-1.206 2.184a11.16 11.16 0 0 0-.716 1.066l-.17.36a1.34 1.34 0 0 0 1.3 2.002 1.34 1.34 0 0 0 1.106-.864l.166-.34c.152-.4.28-.808.384-1.2.354-.874.546-1.812 1.03-2.392a1.08 1.08 0 0 1 .572-.28l.3-.546a17.24 17.24 0 0 0 12.292.03l.266.51a1.04 1.04 0 0 1 .68.41 12.59 12.59 0 0 1 .912 2.24c.106.415.235.822.388 1.222l.166.34a1.34 1.34 0 0 0 2.374.262 1.34 1.34 0 0 0 .032-1.402l-.174-.36c-.218-.367-.457-.722-.716-1.062a14.17 14.17 0 0 1-1.2-2.114 1.04 1.04 0 0 1 .136-.8c-.085-.174-.159-.354-.222-.538a17.35 17.35 0 0 0 7.646-9.64l.568.1a1.06 1.06 0 0 1 .746-.276 14.54 14.54 0 0 1 2.324.68c.39.2.79.332 1.196.46.096.026.236.048.344.074h.026a1.34 1.34 0 0 0 1.682-1.702 1.34 1.34 0 0 0-1.088-.892l-.388-.092c-.424-.058-.852-.091-1.28-.1a12.2 12.2 0 0 1-2.388-.394 1.5 1.5 0 0 1-.576-.576l-.54-.16a17.3 17.3 0 0 0-2.772-11.986l.472-.436c-.02-.274.07-.546.248-.756a12.57 12.57 0 0 1 1.98-1.392 11.13 11.13 0 0 0 1.104-.646l.292-.236a1.34 1.34 0 0 0-.265-2.404 1.34 1.34 0 0 0-1.393.322l-.296.236a11.15 11.15 0 0 0-.874.93c-.528.604-1.112 1.154-1.746 1.646a1.48 1.48 0 0 1-.808.088l-.506.36c-2.92-3.06-6.854-4.96-11.07-5.34 0-.2-.026-.5-.03-.594a1.05 1.05 0 0 1-.436-.664c-.028-.808.023-1.616.152-2.414.086-.4.146-.84.184-1.266v-.4a1.41 1.41 0 0 0-1.31-1.48zm-1.668 10.332l-.4 6.986h-.03c-.02.432-.274.8-.664 1.008s-.852.146-1.2-.108l-5.73-4.06a13.72 13.72 0 0 1 6.606-3.598c.468-.1.94-.176 1.414-.228zm3.336 0c3.01.374 5.812 1.726 8 3.848l-5.676 4.034a1.18 1.18 0 0 1-1.908-.904zm-13.44 6.454l5.24 4.676v.03a1.18 1.18 0 0 1-.462 2.018v.02l-6.724 1.934a13.72 13.72 0 0 1 1.948-8.68zm23.506 0a13.96 13.96 0 0 1 2.004 8.654l-6.734-1.94v-.026a1.16 1.16 0 0 1-.834-.87 1.18 1.18 0 0 1 .372-1.148l5.2-4.654zm-12.808 5.04h2.144l1.31 1.664-.476 2.08-1.926.926-1.93-.926-.454-2.08zm6.868 5.676c.09-.01.2-.01.27 0l6.934 1.17c-1 2.88-2.974 5.34-5.55 6.986l-2.68-6.488a1.18 1.18 0 0 1 1.018-1.638zm-11.646.03a1.18 1.18 0 0 1 .968.536 1.17 1.17 0 0 1 .094 1.1v.026l-2.664 6.436a13.76 13.76 0 0 1-5.516-6.914l6.874-1.166c.077-.008.155-.008.232 0zm5.808 2.8a1.18 1.18 0 0 1 1.074.616h.026l3.388 6.114-1.354.4a13.79 13.79 0 0 1-7.516-.388l3.4-6.114a1.18 1.18 0 0 1 1-.59z" />
    </g>
   </g>
</svg>
