<?xml version="1.0" encoding="UTF-8" standalone="no"?>
<!-- Created with Inkscape (http://www.inkscape.org/) -->

<svg
   xmlns:dc="http://purl.org/dc/elements/1.1/"
   xmlns:cc="http://creativecommons.org/ns#"
   xmlns:rdf="http://www.w3.org/1999/02/22-rdf-syntax-ns#"
   xmlns:svg="http://www.w3.org/2000/svg"
   xmlns="http://www.w3.org/2000/svg"
   xmlns:sodipodi="http://sodipodi.sourceforge.net/DTD/sodipodi-0.dtd"
   xmlns:inkscape="http://www.inkscape.org/namespaces/inkscape"
   width="18.035334mm"
   height="17.500378mm"
   viewBox="0 0 18.035334 17.500378"
   version="1.1"
   id="svg13826"
   inkscape:version="0.92.4 5da689c313, 2019-01-14"
   sodipodi:docname="etcd.svg">
  <defs
     id="defs13820" />
  <sodipodi:namedview
     id="base"
     pagecolor="#ffffff"
     bordercolor="#666666"
     borderopacity="1.0"
     inkscape:pageopacity="0.0"
     inkscape:pageshadow="2"
     inkscape:zoom="5.6568543"
     inkscape:cx="-40.594342"
     inkscape:cy="20.272431"
     inkscape:document-units="mm"
     inkscape:current-layer="layer1"
     showgrid="false"
     inkscape:window-width="1920"
     inkscape:window-height="1043"
     inkscape:window-x="0"
     inkscape:window-y="0"
     inkscape:window-maximized="1"
     fit-margin-top="0"
     fit-margin-left="0"
     fit-margin-right="0"
     fit-margin-bottom="0" />
  <metadata
     id="metadata13823">
    <rdf:RDF>
      <cc:Work
         rdf:about="">
        <dc:format>image/svg+xml</dc:format>
        <dc:type
           rdf:resource="http://purl.org/dc/dcmitype/StillImage" />
        <dc:title />
      </cc:Work>
    </rdf:RDF>
  </metadata>
  <g
     inkscape:label="Calque 1"
     inkscape:groupmode="layer"
     id="layer1"
     transform="translate(-0.99262638,-1.174181)">
    <g
       id="g70"
       transform="matrix(1.0148887,0,0,1.0148887,16.902146,-2.698726)">
      <path
         inkscape:export-ydpi="250.55"
         inkscape:export-xdpi="250.55"
         inkscape:export-filename="new.png"
         inkscape:connector-curvature="0"
         id="path3055"
         d="m -6.8492015,4.2724668 a 1.1191255,1.1099671 0 0 0 -0.4288818,0.1085303 l -5.8524037,2.7963394 a 1.1191255,1.1099671 0 0 0 -0.605524,0.7529759 l -1.443828,6.2812846 a 1.1191255,1.1099671 0 0 0 0.151943,0.851028 1.1191255,1.1099671 0 0 0 0.06362,0.08832 l 4.0508,5.036555 a 1.1191255,1.1099671 0 0 0 0.874979,0.417654 l 6.4961011,-0.0015 a 1.1191255,1.1099671 0 0 0 0.8749788,-0.416906 L 1.3818872,15.149453 A 1.1191255,1.1099671 0 0 0 1.5981986,14.210104 L 0.15212657,7.9288154 A 1.1191255,1.1099671 0 0 0 -0.45339794,7.1758396 L -6.3065496,4.3809971 A 1.1191255,1.1099671 0 0 0 -6.8492015,4.2724668 Z"
         style="fill:#326ce5;fill-opacity:1;stroke:none;stroke-width:0;stroke-miterlimit:4;stroke-dasharray:none;stroke-opacity:1" />
      <path
         id="path3054-2-9"
         d="M -6.8523435,3.8176372 A 1.1814304,1.171762 0 0 0 -7.3044284,3.932904 l -6.1787426,2.9512758 a 1.1814304,1.171762 0 0 0 -0.639206,0.794891 l -1.523915,6.6308282 a 1.1814304,1.171762 0 0 0 0.160175,0.89893 1.1814304,1.171762 0 0 0 0.06736,0.09281 l 4.276094,5.317236 a 1.1814304,1.171762 0 0 0 0.92363,0.440858 l 6.8576188,-0.0015 a 1.1814304,1.171762 0 0 0 0.9236308,-0.44011 l 4.2745966,-5.317985 a 1.1814304,1.171762 0 0 0 0.228288,-0.990993 L 0.53894439,7.6775738 A 1.1814304,1.171762 0 0 0 -0.10026101,6.8834313 L -6.2790037,3.9321555 A 1.1814304,1.171762 0 0 0 -6.8523435,3.8176372 Z m 0.00299,0.4550789 a 1.1191255,1.1099671 0 0 1 0.5426517,0.1085303 l 5.85315169,2.7948425 A 1.1191255,1.1099671 0 0 1 0.15197811,7.9290648 L 1.598051,14.21035 a 1.1191255,1.1099671 0 0 1 -0.2163123,0.939348 l -4.0493032,5.037304 a 1.1191255,1.1099671 0 0 1 -0.8749789,0.416906 l -6.4961006,0.0015 a 1.1191255,1.1099671 0 0 1 -0.874979,-0.417652 l -4.0508,-5.036554 a 1.1191255,1.1099671 0 0 1 -0.06362,-0.08832 1.1191255,1.1099671 0 0 1 -0.151942,-0.851028 l 1.443827,-6.2812853 a 1.1191255,1.1099671 0 0 1 0.605524,-0.7529758 l 5.8524036,-2.7963395 a 1.1191255,1.1099671 0 0 1 0.4288819,-0.1085303 z"
         style="color:#000000;font-style:normal;font-variant:normal;font-weight:normal;font-stretch:normal;font-size:medium;line-height:normal;font-family:Sans;-inkscape-font-specification:Sans;text-indent:0;text-align:start;text-decoration:none;text-decoration-line:none;letter-spacing:normal;word-spacing:normal;text-transform:none;writing-mode:lr-tb;direction:ltr;baseline-shift:baseline;text-anchor:start;display:inline;overflow:visible;visibility:visible;fill:#ffffff;fill-opacity:1;fill-rule:nonzero;stroke:none;stroke-width:0;stroke-miterlimit:4;stroke-dasharray:none;marker:none;enable-background:accumulate"
         inkscape:connector-curvature="0" />
    </g>
    <path
       id="path2078"
       d="m 9.9922551,5.0101377 c -0.1383198,-0.0044 -3.9953108,1.8917791 -4.0457408,1.9890241 -0.121149,0.233682 -0.9988,4.2814782 -0.94724,4.3687242 0.03,0.05065 0.662201,0.852305 1.40457,1.780771 l 1.349801,1.687753 2.22157,0.0011 2.2215797,0.0011 1.41282,-1.765785 1.41388,-1.765265 -0.49456,-2.1688598 c -0.2722,-1.1927395 -0.51565,-2.1882794 -0.54052,-2.2122694 -0.0695,-0.06688 -3.921171,-1.9137391 -3.9961599,-1.9161601 z"
       style="opacity:1;fill:#ffffff;fill-opacity:1;stroke:#eeeeee;stroke-width:0;stroke-miterlimit:10;stroke-dasharray:none;stroke-dashoffset:11.23642349;stroke-opacity:1"
       inkscape:connector-curvature="0"
       sodipodi:nodetypes="ccccccccccccc" />
    <path
       inkscape:connector-curvature="0"
       style="fill:#326ce5;fill-opacity:1;stroke-width:0.03359297"
       d="m 14.176587,10.528588 c -0.04038,0.0034 -0.08097,0.005 -0.124059,0.005 -0.250132,0 -0.492809,-0.05865 -0.711734,-0.166084 0.07289,-0.4181455 0.10387,-0.8394013 0.09574,-1.2591116 C 13.199199,8.765044 12.927938,8.4411072 12.621703,8.1426666 12.754564,7.8935747 12.950948,7.6792508 13.196144,7.5272763 l 0.10525,-0.065067 -0.08205,-0.092515 C 12.796721,6.8937935 12.292323,6.5258506 11.720437,6.2761888 L 11.60639,6.2265729 11.57743,6.3471033 C 11.50924,6.6280424 11.366669,6.8815004 11.170955,7.0848732 A 6.5117284,6.5117284 0 0 0 9.9966791,6.6009667 6.517439,6.517439 0 0 0 8.824216,7.0838659 C 8.62931,6.8807297 8.4870773,6.6279087 8.4191852,6.3477762 L 8.3899915,6.2272457 8.2763801,6.2766278 C 7.7117155,6.5226971 7.1934105,6.9006174 6.777698,7.3694067 l -0.08227,0.092718 0.1051471,0.065067 c 0.2444216,0.1513707 0.4402687,0.364452 0.572893,0.612166 -0.3052923,0.2972974 -0.5762539,0.6201936 -0.8134211,0.9619347 -0.00924,0.419543 0.020151,0.8438553 0.093389,1.2677986 -0.2178171,0.106388 -0.4591485,0.164403 -0.7076358,0.164403 -0.0436,0 -0.084419,-0.0017 -0.1240603,-0.0049 l -0.1235535,-0.0094 0.011592,0.123319 c 0.060535,0.624091 0.2542991,1.217645 0.576254,1.764404 l 0.062816,0.10669 0.094395,-0.08009 a 1.6138063,1.6138063 0 0 1 0.7638051,-0.357764 6.545926,6.545926 0 0 0 0.6537186,1.064764 c 0.3973366,0.138974 0.8113033,0.242709 1.2388409,0.304453 0.040984,0.28275 0.00835,0.575178 -0.1031928,0.845567 l -0.047022,0.11458 0.1209322,0.02664 c 0.3097274,0.06809 0.6222418,0.102794 0.9282062,0.102794 l 0.9279404,-0.102794 0.121069,-0.02664 -0.04713,-0.114786 c -0.111264,-0.270421 -0.143912,-0.563184 -0.10289,-0.84597 0.425826,-0.06183 0.838281,-0.16528 1.234138,-0.303848 a 6.5542573,6.5542573 0 0 0 0.654458,-1.065772 1.6209952,1.6209952 0 0 1 0.767534,0.358101 l 0.09436,0.07995 0.06255,-0.106424 c 0.322492,-0.547464 0.516258,-1.140985 0.575852,-1.76407 l 0.01161,-0.123116 z m -2.85191,1.508189 c -0.438992,0.119396 -0.884837,0.179655 -1.3279961,0.179655 -0.4443658,0 -0.8896428,-0.06024 -1.3290378,-0.179655 A 5.1482907,5.1482907 0 0 1 8.0988459,10.838515 C 7.9622586,10.418032 7.8823406,9.9775285 7.8591614,9.5238899 8.1428867,9.173078 8.465582,8.8657685 8.8221033,8.6070365 A 5.1269592,5.1269592 0 0 1 9.9966809,7.9683993 5.1478538,5.1478538 0 0 1 11.169008,8.6056585 c 0.3579,0.26011 0.682005,0.569805 0.967144,0.9227983 -0.02432,0.4510515 -0.105214,0.8890392 -0.242007,1.3088162 a 5.131897,5.131897 0 0 1 -0.569468,1.199504 z m -0.96546,-2.1162886 c 0,0.3101276 0.251342,0.5610006 0.561069,0.5610006 0.309626,0 0.560667,-0.250805 0.560667,-0.5610006 0,-0.3089223 -0.251041,-0.5607348 -0.560667,-0.5607348 -0.309727,0 -0.561036,0.2518125 -0.561036,0.5607348 z m -0.724868,0 c 0,0.3101276 -0.2512761,0.5610006 -0.5610047,0.5610006 -0.3099283,0 -0.5604978,-0.250805 -0.5604978,-0.5610006 0,-0.3088214 0.2506046,-0.5606339 0.5605341,-0.5606339 0.309725,0 0.5610011,0.2518125 0.5610011,0.5606665 z"
       id="path4590" />
  </g>
</svg>
