<?xml version="1.0" encoding="UTF-8" standalone="no"?>
<!-- Created with Inkscape (http://www.inkscape.org/) -->

<svg
   xmlns:dc="http://purl.org/dc/elements/1.1/"
   xmlns:cc="http://creativecommons.org/ns#"
   xmlns:rdf="http://www.w3.org/1999/02/22-rdf-syntax-ns#"
   xmlns:svg="http://www.w3.org/2000/svg"
   xmlns="http://www.w3.org/2000/svg"
   xmlns:sodipodi="http://sodipodi.sourceforge.net/DTD/sodipodi-0.dtd"
   xmlns:inkscape="http://www.inkscape.org/namespaces/inkscape"
   id="svg3131"
   version="1.1"
   inkscape:version="0.48.4 r9939"
   width="2020"
   height="1970"
   sodipodi:docname="kube_logo_pixels_40.png">
  <metadata
     id="metadata3137">
    <rdf:RDF>
      <cc:Work
         rdf:about="">
        <dc:format>image/svg+xml</dc:format>
        <dc:type
           rdf:resource="http://purl.org/dc/dcmitype/StillImage" />
        <dc:title></dc:title>
      </cc:Work>
    </rdf:RDF>
  </metadata>
  <defs
     id="defs3135" />
  <sodipodi:namedview
     pagecolor="#ffffff"
     bordercolor="#666666"
     borderopacity="1"
     objecttolerance="10"
     gridtolerance="10"
     guidetolerance="10"
     inkscape:pageopacity="0"
     inkscape:pageshadow="2"
     inkscape:window-width="1474"
     inkscape:window-height="1113"
     id="namedview3133"
     showgrid="false"
     fit-margin-top="10"
     fit-margin-left="10"
     fit-margin-right="10"
     fit-margin-bottom="10"
     inkscape:zoom="0.34231221"
     inkscape:cx="922.96642"
     inkscape:cy="1253.586"
     inkscape:window-x="2020"
     inkscape:window-y="25"
     inkscape:window-maximized="0"
     inkscape:current-layer="svg3131" />
  <path
     inkscape:connector-curvature="0"
     id="path3155"
     d="m 560.00001,1936.4286 c 0,-18.9497 -0.27645,-23.8479 -1.40992,-24.9814 -1.11623,-1.1162 -6.27191,-1.4659 -24.75001,-1.6785 L 510.5,1909.5 l -0.26865,-23.3401 c -0.21095,-18.3267 -0.56749,-23.6389 -1.65992,-24.7313 -1.09243,-1.0925 -6.40465,-1.449 -24.73135,-1.6599 L 460.5,1859.5 460,1835 l -0.5,-24.5 -24.5,-0.5 -24.5,-0.5 -0.5,-24.5 -0.5,-24.5 -24.5,-0.5 -24.5,-0.5 -0.25965,-48.3311 c -0.21405,-39.8419 -0.50561,-48.577 -1.65992,-49.7313 -1.10391,-1.1039 -6.3401,-1.4572 -24.74035,-1.6689 L 310.5,1659.5 l -0.26865,-23.3401 c -0.21095,-18.3267 -0.56749,-23.6389 -1.65992,-24.7313 -1.09243,-1.0925 -6.40465,-1.449 -24.73135,-1.6599 L 260.5,1609.5 l -0.26865,-23.3401 c -0.21095,-18.3267 -0.56749,-23.6389 -1.65992,-24.7313 -1.09243,-1.0925 -6.40465,-1.449 -24.73135,-1.6599 L 210.5,1559.5 210,1535 l -0.5,-24.5 -24.5,-0.5 -24.5,-0.5 -0.25965,-48.3311 c -0.21405,-39.8419 -0.50561,-48.577 -1.65992,-49.7313 -1.10391,-1.1039 -6.3401,-1.4572 -24.74035,-1.6689 L 110.5,1409.5 l -0.26865,-23.3401 c -0.21095,-18.3267 -0.56749,-23.6389 -1.65992,-24.7313 -1.09242,-1.0925 -6.40464,-1.449 -24.73135,-1.6599 L 60.5,1359.5 60,1335 59.5,1310.5 34.75,1310.2325 10,1309.9651 10,1209.9825 10,1110 l 23.57143,0 c 19.05729,0 23.84408,-0.2726 24.99509,-1.4237 1.20873,-1.2087 1.46215,-16.2683 1.67857,-99.75 L 60.5,910.5 83.84008,910.23135 c 18.44643,-0.21233 23.63487,-0.56344 24.74606,-1.67463 1.18999,-1.18998 1.44498,-20.35167 1.65992,-124.73135 L 110.5,660.5 l 23.34008,-0.26865 c 18.43862,-0.21224 23.63513,-0.56371 24.74509,-1.67366 1.18411,-1.18411 1.44508,-16.86408 1.65992,-99.73135 L 160.5,460.5 l 23.34008,-0.26865 c 18.40025,-0.21179 23.63644,-0.56501 24.74035,-1.66892 1.15431,-1.15432 1.44587,-9.88944 1.65992,-49.73135 L 210.5,360.5 l 48.33108,-0.25965 c 39.84191,-0.21405 48.57703,-0.50561 49.73135,-1.65992 1.10391,-1.10391 1.45713,-6.3401 1.66892,-24.74035 L 310.5,310.5 l 48.33108,-0.25965 c 39.84191,-0.21405 48.57703,-0.50561 49.73135,-1.65992 1.10391,-1.10391 1.45713,-6.3401 1.66892,-24.74035 L 410.5,260.5 l 48.33108,-0.25965 c 39.84191,-0.21405 48.57703,-0.50561 49.73135,-1.65992 1.10391,-1.10391 1.45713,-6.3401 1.66892,-24.74035 L 510.5,210.5 l 48.33108,-0.25965 c 39.84191,-0.21405 48.57703,-0.50561 49.73135,-1.65992 1.10391,-1.10391 1.45713,-6.3401 1.66892,-24.74035 L 610.5,160.5 l 48.33108,-0.25965 c 39.84192,-0.21405 48.57704,-0.50561 49.73136,-1.65992 1.10391,-1.10391 1.45713,-6.3401 1.66891,-24.74035 l 0.26866,-23.34008 48.33107,-0.25965 c 39.84191,-0.21405 48.57703,-0.5056 49.73135,-1.65992 1.10391,-1.10391 1.45713,-6.3401 1.66892,-24.740354 l 0.26865,-23.34008 48.33108,-0.25965 c 40.14765,-0.21569 48.57133,-0.4999 49.75,-1.67857 C 909.72604,57.416816 910,52.591836 910,33.571426 L 910,10 l 100,0 100,0 0,23.571426 c 0,19.02041 0.274,23.84539 1.4189,24.99035 1.1787,1.17867 9.6024,1.46288 49.75,1.67857 l 48.3311,0.25965 0.2687,23.34008 c 0.2117,18.400254 0.565,23.636444 1.6689,24.740354 1.1543,1.15432 9.8894,1.44587 49.7313,1.65992 L 1309.5,110.5 l 0.2687,23.34008 c 0.2117,18.40025 0.565,23.63644 1.6689,24.74035 1.1543,1.15431 9.8894,1.44587 49.7313,1.65992 L 1409.5,160.5 l 0.2687,23.34008 c 0.2117,18.40025 0.565,23.63644 1.6689,24.74035 1.1543,1.15431 9.8894,1.44587 49.7313,1.65992 L 1509.5,210.5 l 0.2687,23.34008 c 0.2117,18.40025 0.565,23.63644 1.6689,24.74035 1.1543,1.15431 9.8894,1.44587 49.7313,1.65992 L 1609.5,260.5 l 0.2687,23.34008 c 0.2117,18.40025 0.565,23.63644 1.6689,24.74035 1.1543,1.15431 9.8894,1.44587 49.7313,1.65992 L 1709.5,310.5 l 0.2687,23.34008 c 0.2117,18.40025 0.565,23.63644 1.6689,24.74035 1.1543,1.15431 9.8894,1.44587 49.7313,1.65992 L 1809.5,360.5 l 0.2597,48.33108 c 0.214,39.84191 0.5056,48.57703 1.6599,49.73135 1.1039,1.10391 6.3401,1.45713 24.7403,1.66892 L 1859.5,460.5 l 0.2549,98.32634 c 0.2148,82.86727 0.4758,98.54724 1.6599,99.73135 1.11,1.10995 6.3065,1.46142 24.7451,1.67366 L 1909.5,660.5 l 0.2549,98.32634 c 0.2148,82.86727 0.4758,98.54724 1.6599,99.73135 1.11,1.10995 6.3065,1.46142 24.7451,1.67366 L 1959.5,860.5 l 0.2539,123.3254 c 0.2166,105.1484 0.464,123.5353 1.6786,124.75 1.1523,1.1522 5.9313,1.4246 24.9961,1.4246 l 23.5714,0 0,100 0,100 -23.5714,0 c -18.9497,0 -23.8479,0.2764 -24.9814,1.4099 -1.1162,1.1162 -1.4659,6.2719 -1.6785,24.75 l -0.2687,23.3401 -23.3401,0.2687 c -18.3267,0.2109 -23.6389,0.5674 -24.7313,1.6599 -1.0925,1.0924 -1.449,6.4046 -1.6599,24.7313 l -0.2687,23.3401 -23.3401,0.2687 c -18.4002,0.2117 -23.6364,0.565 -24.7403,1.6689 -1.1543,1.1543 -1.4459,9.8894 -1.6599,49.7313 l -0.2597,48.3311 -24.5,0.5 -24.5,0.5 -0.5,24.5 -0.5,24.5 -23.3401,0.2687 c -18.3267,0.2109 -23.6389,0.5674 -24.7313,1.6599 -1.0925,1.0924 -1.449,6.4046 -1.6599,24.7313 l -0.2687,23.3401 -23.3401,0.2687 c -18.3267,0.2109 -23.6389,0.5674 -24.7313,1.6599 -1.0925,1.0924 -1.449,6.4046 -1.6599,24.7313 l -0.2687,23.3401 -23.3401,0.2687 c -18.4002,0.2117 -23.6364,0.565 -24.7403,1.6689 -1.1543,1.1543 -1.4459,9.8894 -1.6599,49.7313 l -0.2597,48.3311 -24.5,0.5 -24.5,0.5 -0.5,24.5 -0.5,24.5 -23.3401,0.2687 c -18.3267,0.2109 -23.6389,0.5674 -24.7313,1.6599 -1.0925,1.0924 -1.449,6.4046 -1.6599,24.7313 l -0.2687,23.3401 -23.3401,0.2687 c -18.3267,0.2109 -23.6389,0.5674 -24.7313,1.6599 -1.0925,1.0924 -1.449,6.4046 -1.6599,24.7313 l -0.2687,23.3401 -23.3401,0.2687 c -18.4781,0.2126 -23.6338,0.5623 -24.75,1.6785 -1.1335,1.1335 -1.4099,6.0317 -1.4099,24.9814 l 0,23.5714 -450,0 -449.99999,0 0,-23.5714 z"
     style="fill:#ffffff;fill-opacity:1" />
  <path
     inkscape:connector-curvature="0"
     id="path3153"
     d="M 559.20001,1910.8 C 558.33389,1909.9339 558,1902.9778 558,1885.8 l 0,-23.8 -23.8,0 c -17.17778,0 -24.13389,-0.3339 -25,-1.2 -0.90055,-0.9005 -1.2,-13.3778 -1.2,-50 l 0,-48.8 -23.8,0 c -17.17778,0 -24.13389,-0.3339 -25,-1.2 -0.86611,-0.8661 -1.2,-7.8222 -1.2,-25 l 0,-23.8 -23.8,0 c -17.17778,0 -24.13389,-0.3339 -25,-1.2 -0.86611,-0.8661 -1.2,-7.8222 -1.2,-25 l 0,-23.8 -23.8,0 c -17.17778,0 -24.13389,-0.3339 -25,-1.2 -0.86611,-0.8661 -1.2,-7.8222 -1.2,-25 l 0,-23.8 -23.8,0 c -17.17778,0 -24.13389,-0.3339 -25,-1.2 -0.86611,-0.8661 -1.2,-7.8222 -1.2,-25 l 0,-23.8 -23.8,0 c -17.17778,0 -24.13389,-0.3339 -25,-1.2 -0.90055,-0.9005 -1.2,-13.3778 -1.2,-50 l 0,-48.8 -23.8,0 c -17.17778,0 -24.13389,-0.3339 -25,-1.2 -0.86611,-0.8661 -1.2,-7.8222 -1.2,-25 l 0,-23.8 -23.8,0 c -17.17778,0 -24.13389,-0.3339 -25,-1.2 -0.86611,-0.8661 -1.2,-7.8222 -1.2,-25 l 0,-23.8 -23.8,0 c -17.17778,0 -24.13389,-0.3339 -25,-1.2 -0.90054,-0.9005 -1.2,-13.3778 -1.2,-50 l 0,-48.8 -23.8,0 c -17.17777,0 -24.13389,-0.3339 -25,-1.2 -1.7369,-1.7369 -1.7369,-149.8631 0,-151.6 0.86611,-0.8661 7.82223,-1.2 25,-1.2 l 23.8,0 0,-98.8 c 0,-75.5111 0.28287,-99.08286 1.2,-100 0.86611,-0.86611 7.82222,-1.2 25,-1.2 l 23.8,0 0,-123.8 c 0,-94.95556 0.27959,-124.07959 1.2,-125 0.86611,-0.86611 7.82222,-1.2 25,-1.2 l 23.8,0 0,-98.8 c 0,-75.51111 0.28286,-99.08286 1.2,-100 0.86611,-0.86611 7.82222,-1.2 25,-1.2 l 23.8,0 0,-23.8 c 0,-17.17778 0.33389,-24.13389 1.2,-25 0.86611,-0.86611 7.82222,-1.2 25,-1.2 l 23.8,0 0,-23.8 c 0,-17.17778 0.33389,-24.13389 1.2,-25 0.90055,-0.90055 13.37778,-1.2 50,-1.2 l 48.8,0 0,-23.8 c 0,-17.17778 0.33389,-24.13389 1.2,-25 0.90055,-0.90055 13.37778,-1.2 50,-1.2 l 48.8,0 0,-23.8 c 0,-17.17778 0.33389,-24.13389 1.2,-25 0.90055,-0.90055 13.37778,-1.2 50.00001,-1.2 l 48.8,0 0,-23.8 c 0,-17.17778 0.33388,-24.13389 1.2,-25 0.90055,-0.90055 13.37778,-1.2 49.99999,-1.2 l 48.80001,0 0,-23.8 c 0,-17.17778 0.33388,-24.13389 1.2,-25 0.90055,-0.90055 13.37778,-1.2 49.99999,-1.2 l 48.8,0 0,-23.8 c 0,-17.17778 0.33389,-24.13389 1.2,-25 0.90055,-0.90054 13.37778,-1.2 50,-1.2 l 48.8,0 0,-23.800004 c 0,-17.17777 0.33389,-24.13389 1.2,-25 1.74066,-1.74066 199.8593,-1.74066 201.6,0 0.8661,0.86611 1.2,7.82223 1.2,25 L 1112,108 l 48.8,0 c 36.6222,0 49.0995,0.29946 50,1.2 0.8661,0.86611 1.2,7.82222 1.2,25 l 0,23.8 48.8,0 c 36.6222,0 49.0995,0.29945 50,1.2 0.8661,0.86611 1.2,7.82222 1.2,25 l 0,23.8 48.8,0 c 36.6222,0 49.0995,0.29945 50,1.2 0.8661,0.86611 1.2,7.82222 1.2,25 l 0,23.8 48.8,0 c 36.6222,0 49.0995,0.29945 50,1.2 0.8661,0.86611 1.2,7.82222 1.2,25 l 0,23.8 48.8,0 c 36.6222,0 49.0995,0.29945 50,1.2 0.8661,0.86611 1.2,7.82222 1.2,25 l 0,23.8 48.8,0 c 36.6222,0 49.0995,0.29945 50,1.2 0.8661,0.86611 1.2,7.82222 1.2,25 l 0,23.8 23.8,0 c 17.1778,0 24.1339,0.33389 25,1.2 0.8661,0.86611 1.2,7.82222 1.2,25 l 0,23.8 23.8,0 c 17.1778,0 24.1339,0.33389 25,1.2 0.9171,0.91714 1.2,24.48889 1.2,100 l 0,98.8 23.8,0 c 17.1778,0 24.1339,0.33389 25,1.2 0.9171,0.91714 1.2,24.48889 1.2,100 l 0,98.8 23.8,0 c 17.1778,0 24.1339,0.33389 25,1.2 0.9204,0.92041 1.2,30.04444 1.2,125 l 0,123.8 23.8,0 c 17.1778,0 24.1339,0.3339 25,1.2 1.7407,1.7407 1.7407,199.8593 0,201.6 -0.8661,0.8661 -7.8222,1.2 -25,1.2 l -23.8,0 0,23.8 c 0,17.1778 -0.3339,24.1339 -1.2,25 -0.8661,0.8661 -7.8222,1.2 -25,1.2 l -23.8,0 0,23.8 c 0,17.1778 -0.3339,24.1339 -1.2,25 -0.8661,0.8661 -7.8222,1.2 -25,1.2 l -23.8,0 0,23.8 c 0,17.1778 -0.3339,24.1339 -1.2,25 -0.8661,0.8661 -7.8222,1.2 -25,1.2 l -23.8,0 0,48.8 c 0,36.6222 -0.2995,49.0995 -1.2,50 -0.8661,0.8661 -7.8222,1.2 -25,1.2 l -23.8,0 0,23.8 c 0,17.1778 -0.3339,24.1339 -1.2,25 -0.8661,0.8661 -7.8222,1.2 -25,1.2 l -23.8,0 0,23.8 c 0,17.1778 -0.3339,24.1339 -1.2,25 -0.8661,0.8661 -7.8222,1.2 -25,1.2 l -23.8,0 0,23.8 c 0,17.1778 -0.3339,24.1339 -1.2,25 -0.8661,0.8661 -7.8222,1.2 -25,1.2 l -23.8,0 0,48.8 c 0,36.6222 -0.2995,49.0995 -1.2,50 -0.8661,0.8661 -7.8222,1.2 -25,1.2 l -23.8,0 0,23.8 c 0,17.1778 -0.3339,24.1339 -1.2,25 -0.8661,0.8661 -7.8222,1.2 -25,1.2 l -23.8,0 0,23.8 c 0,17.1778 -0.3339,24.1339 -1.2,25 -1.7494,1.7494 -899.85061,1.7494 -901.59999,0 z m 198.8,-301.6 c 0,-36.6222 0.29945,-49.0995 1.19999,-50 0.86611,-0.8661 7.82222,-1.2 25,-1.2 l 23.8,0 0,-23.8 c 0,-17.1778 0.33389,-24.1339 1.2,-25 1.74627,-1.7463 399.8537,-1.7463 401.6,0 0.8661,0.8661 1.2,7.8222 1.2,25 l 0,23.8 23.8,0 c 17.1778,0 24.1339,0.3339 25,1.2 0.9005,0.9005 1.2,13.3778 1.2,50 l 0,48.8 48,0 48,0 0,-23 0,-23 -23.8,0 c -17.1778,0 -24.1339,-0.3339 -25,-1.2 -0.9005,-0.9005 -1.2,-13.3778 -1.2,-50 l 0,-48.8 -23.8,0 c -17.1778,0 -24.1339,-0.3339 -25,-1.2 -1.7064,-1.7064 -1.7064,-49.8936 0,-51.6 0.8661,-0.8661 7.8222,-1.2 25,-1.2 l 23.8,0 0,-23.8 c 0,-17.1778 0.3339,-24.1339 1.2,-25 0.8661,-0.8661 7.8222,-1.2 25,-1.2 l 23.8,0 0,-23.8 c 0,-17.1778 0.3339,-24.1339 1.2,-25 0.8661,-0.8661 7.8222,-1.2 25,-1.2 l 23.8,0 0,-23.8 c 0,-17.1778 0.3339,-24.1339 1.2,-25 0.8661,-0.8661 7.8222,-1.2 25,-1.2 l 23.8,0 0,-48.8 c 0,-36.6222 0.2995,-49.0995 1.2,-50 0.8661,-0.8661 7.8222,-1.2 25,-1.2 l 23.8,0 0,-23.8 c 0,-17.1778 0.3339,-24.1339 1.2,-25 1.7294,-1.7294 99.8706,-1.7294 101.6,0 0.8661,0.8661 1.2,7.8222 1.2,25 l 0,23.8 48,0 48,0 0,-23 0,-23 -23.8,0 c -17.1778,0 -24.1339,-0.3339 -25,-1.2 -0.8661,-0.8661 -1.2,-7.8222 -1.2,-25 l 0,-23.8 -73.8,0 c -56.0667,0 -74.0883,-0.2883 -75,-1.2 -0.9226,-0.9226 -1.2,-35.6 -1.2,-150 l 0,-148.8 -23.8,0 c -17.1778,0 -24.1339,-0.33389 -25,-1.2 -1.7294,-1.72935 -1.7294,-99.87065 0,-101.6 0.8661,-0.86611 7.8222,-1.2 25,-1.2 l 23.8,0 0,-23.8 c 0,-17.17778 0.3339,-24.13389 1.2,-25 0.8661,-0.86611 7.8222,-1.2 25,-1.2 l 23.8,0 0,-48 0,-48 -23,0 -23,0 0,23.8 c 0,17.17778 -0.3339,24.13389 -1.2,25 -0.8661,0.86611 -7.8222,1.2 -25,1.2 l -23.8,0 0,23.8 c 0,17.17778 -0.3339,24.13389 -1.2,25 -1.7294,1.72935 -99.8706,1.72935 -101.6,0 -0.8661,-0.86611 -1.2,-7.82222 -1.2,-25 l 0,-23.8 -48.8,0 c -36.6222,0 -49.0995,-0.29945 -50,-1.2 -0.8661,-0.86611 -1.2,-7.82222 -1.2,-25 l 0,-23.8 -23.8,0 c -17.1778,0 -24.1339,-0.33389 -25,-1.2 -0.8661,-0.86611 -1.2,-7.82222 -1.2,-25 l 0,-23.8 -73.8,0 c -56.0667,0 -74.0883,-0.28835 -75,-1.2 -0.9171,-0.91714 -1.2,-24.48889 -1.2,-100 l 0,-98.8 -48,0 -48,0 0,98.8 c 0,75.51111 -0.28286,99.08286 -1.2,100 -0.91165,0.91165 -18.93333,1.2 -75,1.2 l -73.8,0 0,23.8 c 0,17.17778 -0.33389,24.13389 -1.2,25 -0.90055,0.90055 -13.37778,1.2 -50,1.2 l -48.79999,0 0,23.8 c 0,17.17778 -0.33389,24.13389 -1.2,25 -0.86611,0.86611 -7.82222,1.2 -25,1.2 l -23.8,0 0,23.8 c 0,17.17778 -0.33389,24.13389 -1.2,25 -1.72936,1.72935 -99.87065,1.72935 -101.6,0 C 558.33389,659.93389 558,652.97778 558,635.8 l 0,-23.8 -23.8,0 c -17.17778,0 -24.13389,-0.33389 -25,-1.2 -0.86611,-0.86611 -1.2,-7.82222 -1.2,-25 l 0,-23.8 -23,0 -23,0 0,48 0,48 23.8,0 c 17.17778,0 24.13389,0.33389 25,1.2 0.86611,0.86611 1.2,7.82222 1.2,25 l 0,23.8 23.8,0 c 17.17778,0 24.1339,0.33389 25.00001,1.2 1.72935,1.72935 1.72935,99.87065 0,101.6 -0.86611,0.86611 -7.82223,1.2 -25.00001,1.2 l -23.8,0 0,148.8 c 0,114.4 -0.27742,149.0774 -1.2,150 -0.91165,0.9117 -18.93333,1.2 -75,1.2 l -73.8,0 0,23.8 c 0,17.1778 -0.33389,24.1339 -1.2,25 -0.86611,0.8661 -7.82222,1.2 -25,1.2 l -23.8,0 0,23 0,23 48,0 48,0 0,-23.8 c 0,-17.1778 0.33389,-24.1339 1.2,-25 1.72935,-1.7294 99.87065,-1.7294 101.6,0 0.86611,0.8661 1.2,7.8222 1.2,25 l 0,23.8 23.8,0 c 17.17778,0 24.1339,0.3339 25.00001,1.2 0.90055,0.9005 1.2,13.3778 1.2,50 l 0,48.8 23.8,0 c 17.17778,0 24.13389,0.3339 25,1.2 0.86611,0.8661 1.2,7.8222 1.2,25 l 0,23.8 23.8,0 c 17.17778,0 24.13389,0.3339 25,1.2 0.86611,0.8661 1.2,7.8222 1.2,25 l 0,23.8 23.8,0 c 17.17778,0 24.13389,0.3339 25,1.2 0.86611,0.8661 1.2,7.8222 1.2,25 l 0,23.8 23.8,0 c 17.17778,0 24.13388,0.3339 24.99999,1.2 1.70636,1.7064 1.70636,49.8936 0,51.6 -0.86611,0.8661 -7.82221,1.2 -24.99999,1.2 l -23.8,0 0,48.8 c 0,36.6222 -0.29945,49.0995 -1.2,50 -0.86611,0.8661 -7.82222,1.2 -25,1.2 l -23.8,0 0,23 0,23 48,0 48,0 0,-48.8 z M 909.2,1410.8 c -1.72935,-1.7294 -1.72935,-99.8706 0,-101.6 0.86611,-0.8661 7.82222,-1.2 25,-1.2 l 23.8,0 0,-48.8 c 0,-36.6222 0.29945,-49.0995 1.2,-50 1.72935,-1.7294 99.8706,-1.7294 101.6,0 0.9005,0.9005 1.2,13.3778 1.2,50 l 0,48.8 23.8,0 c 17.1778,0 24.1339,0.3339 25,1.2 1.7294,1.7294 1.7294,99.8706 0,101.6 -1.7407,1.7407 -199.85934,1.7407 -201.6,0 z m -150,-50 c -0.86611,-0.8661 -1.19999,-7.8222 -1.19999,-25 l 0,-23.8 -23.8,0 c -17.17778,0 -24.13389,-0.3339 -25,-1.2 -0.86611,-0.8661 -1.2,-7.8222 -1.2,-25 l 0,-23.8 -23.8,0 c -17.17778,0 -24.13389,-0.3339 -25.00001,-1.2 -1.72934,-1.7294 -1.72934,-99.8706 0,-101.6 0.90056,-0.9005 13.37779,-1.2 50.00001,-1.2 l 48.8,0 0,-23.8 c 0,-17.1778 0.33388,-24.1339 1.19999,-25 1.72935,-1.7294 99.87065,-1.7294 101.6,0 1.73691,1.7369 1.73691,149.8631 0,151.6 -0.86611,0.8661 -7.82222,1.2 -25,1.2 l -23.8,0 0,48.8 c 0,36.6222 -0.29945,49.0995 -1.2,50 -0.86829,0.8683 -8,1.2 -25.8,1.2 -17.8,0 -24.93171,-0.3317 -25.8,-1.2 z m 450,0 c -0.9005,-0.9005 -1.2,-13.3778 -1.2,-50 l 0,-48.8 -23.8,0 c -17.1778,0 -24.1339,-0.3339 -25,-1.2 -1.7369,-1.7369 -1.7369,-149.8631 0,-151.6 0.9011,-0.9011 13.5556,-1.2 50.8,-1.2 37.2444,0 49.8989,0.2989 50.8,1.2 0.8661,0.8661 1.2,7.8222 1.2,25 l 0,23.8 48.8,0 c 36.6222,0 49.0995,0.2995 50,1.2 1.7294,1.7294 1.7294,99.8706 0,101.6 -0.8661,0.8661 -7.8222,1.2 -25,1.2 l -23.8,0 0,23.8 c 0,17.1778 -0.3339,24.1339 -1.2,25 -0.8661,0.8661 -7.8222,1.2 -25,1.2 l -23.8,0 0,23.8 c 0,17.1778 -0.3339,24.1339 -1.2,25 -0.8683,0.8683 -8,1.2 -25.8,1.2 -17.8,0 -24.9317,-0.3317 -25.8,-1.2 z m -250,-250 c -0.86611,-0.8661 -1.2,-7.8222 -1.2,-25 l 0,-23.8 -23.8,0 c -17.17778,0 -24.13389,-0.3339 -25,-1.2 -1.70636,-1.7064 -1.70636,-49.8936 0,-51.6 0.86611,-0.8661 7.82222,-1.2 25,-1.2 l 23.8,0 0,-23.8 c 0,-17.1778 0.33389,-24.1339 1.2,-25 1.72935,-1.7293 99.8706,-1.7293 101.6,0 0.8661,0.8661 1.2,7.8222 1.2,25 l 0,23.8 23.8,0 c 17.1778,0 24.1339,0.3339 25,1.2 1.7064,1.7064 1.7064,49.8936 0,51.6 -0.8661,0.8661 -7.8222,1.2 -25,1.2 l -23.8,0 0,23.8 c 0,17.1778 -0.3339,24.1339 -1.2,25 -1.7294,1.7294 -99.87065,1.7294 -101.6,0 z m -349.99999,-50 c -1.74067,-1.7407 -1.74067,-199.85934 0,-201.6 0.86611,-0.86611 7.82222,-1.2 25,-1.2 L 658,858 l 0,-23.8 c 0,-17.17778 0.33389,-24.13389 1.2,-25 1.70637,-1.70636 49.89365,-1.70636 51.60001,0 0.8661,0.86611 1.19999,7.82222 1.19999,25 l 0,23.8 23.80001,0 c 17.17778,0 24.13388,0.33389 24.99999,1.2 0.86611,0.86611 1.2,7.82222 1.2,25 l 0,23.8 23.8,0 c 17.17778,0 24.13389,0.33389 25,1.2 1.72935,1.72935 1.72935,99.8707 0,101.6 -0.90055,0.9005 -13.37778,1.2 -50,1.2 l -48.8,0 0,23.8 c 0,17.1778 -0.33389,24.1339 -1.19999,25 -1.72936,1.7294 -99.87066,1.7294 -101.6,0 z m 699.99999,0 c -0.8661,-0.8661 -1.2,-7.8222 -1.2,-25 l 0,-23.8 -48.8,0 c -36.6222,0 -49.0995,-0.2995 -50,-1.2 -1.7294,-1.7293 -1.7294,-99.87065 0,-101.6 0.8661,-0.86611 7.8222,-1.2 25,-1.2 l 23.8,0 0,-23.8 c 0,-17.17778 0.3339,-24.13389 1.2,-25 0.8661,-0.86611 7.8222,-1.2 25,-1.2 l 23.8,0 0,-23.8 c 0,-17.17778 0.3339,-24.13389 1.2,-25 1.7064,-1.70636 49.8936,-1.70636 51.6,0 0.8661,0.86611 1.2,7.82222 1.2,25 l 0,23.8 23.8,0 c 17.1778,0 24.1339,0.33389 25,1.2 1.7407,1.74066 1.7407,199.8593 0,201.6 -1.7294,1.7294 -99.8706,1.7294 -101.6,0 z m -450,-200 c -0.86611,-0.86611 -1.2,-7.82222 -1.2,-25 l 0,-23.8 -23.8,0 c -17.17778,0 -24.13389,-0.33389 -25,-1.2 -0.86611,-0.86611 -1.2,-7.82222 -1.2,-25 l 0,-23.8 -48.8,0 c -36.62221,0 -49.09944,-0.29945 -49.99999,-1.2 -0.86829,-0.86829 -1.2,-8 -1.2,-25.8 0,-17.8 0.33171,-24.93171 1.2,-25.8 0.86611,-0.86611 7.82222,-1.2 25,-1.2 l 23.8,0 0,-23.8 c 0,-17.17778 0.33389,-24.13389 1.19999,-25 0.90055,-0.90055 13.37778,-1.2 50,-1.2 l 48.8,0 0,-23.8 c 0,-17.17778 0.33389,-24.13389 1.2,-25 1.72935,-1.72935 99.87065,-1.72935 101.6,0 1.74291,1.74291 1.74291,249.85709 0,251.6 -1.72935,1.72935 -99.87065,1.72935 -101.6,0 z m 200,0 c -1.7429,-1.74291 -1.7429,-249.85709 0,-251.6 1.7294,-1.72935 99.8706,-1.72935 101.6,0 0.8661,0.86611 1.2,7.82222 1.2,25 l 0,23.8 48.8,0 c 36.6222,0 49.0995,0.29945 50,1.2 1.7294,1.72935 1.7294,99.87065 0,101.6 -0.8661,0.86611 -7.8222,1.2 -25,1.2 l -23.8,0 0,23.8 c 0,17.17778 -0.3339,24.13389 -1.2,25 -0.8661,0.86611 -7.8222,1.2 -25,1.2 l -23.8,0 0,23.8 c 0,17.17778 -0.3339,24.13389 -1.2,25 -1.7294,1.72935 -99.8706,1.72935 -101.6,0 z"
     style="fill:#326ce5;fill-opacity:1" />
</svg>
