<?xml version="1.0" encoding="UTF-8" standalone="no"?>
<!-- Created with Inkscape (http://www.inkscape.org/) -->

<svg
   xmlns:dc="http://purl.org/dc/elements/1.1/"
   xmlns:cc="http://creativecommons.org/ns#"
   xmlns:rdf="http://www.w3.org/1999/02/22-rdf-syntax-ns#"
   xmlns:svg="http://www.w3.org/2000/svg"
   xmlns="http://www.w3.org/2000/svg"
   xmlns:sodipodi="http://sodipodi.sourceforge.net/DTD/sodipodi-0.dtd"
   xmlns:inkscape="http://www.inkscape.org/namespaces/inkscape"
   width="761.57269"
   height="740.32532"
   id="svg2"
   version="1.1"
   inkscape:version="0.48.4 r9939"
   sodipodi:docname="shirt2-var1.svg"
   inkscape:export-filename="/home/thockin/Downloads/kubernetes.png"
   inkscape:export-xdpi="90"
   inkscape:export-ydpi="90">
  <defs
     id="defs4" />
  <sodipodi:namedview
     id="base"
     pagecolor="#ffffff"
     bordercolor="#666666"
     borderopacity="1.0"
     inkscape:pageopacity="0.0"
     inkscape:pageshadow="2"
     inkscape:zoom="0.75130096"
     inkscape:cx="246.84251"
     inkscape:cy="363.69274"
     inkscape:document-units="px"
     inkscape:current-layer="layer1"
     showgrid="false"
     inkscape:window-width="1519"
     inkscape:window-height="822"
     inkscape:window-x="73"
     inkscape:window-y="25"
     inkscape:window-maximized="0"
     inkscape:snap-global="false"
     fit-margin-top="10"
     fit-margin-left="10"
     fit-margin-right="10"
     fit-margin-bottom="10" />
  <metadata
     id="metadata7">
    <rdf:RDF>
      <cc:Work
         rdf:about="">
        <dc:format>image/svg+xml</dc:format>
        <dc:type
           rdf:resource="http://purl.org/dc/dcmitype/StillImage" />
        <dc:title></dc:title>
      </cc:Work>
    </rdf:RDF>
  </metadata>
  <g
     inkscape:label="Layer 1"
     inkscape:groupmode="layer"
     id="layer1"
     transform="translate(8.8111836,-148.45869)">
    <path
       sodipodi:type="star"
       style="fill:#326de5;fill-opacity:1;stroke:#326de5;stroke-width:380.98913574;stroke-linejoin:round;stroke-miterlimit:80.40000153;stroke-opacity:1;stroke-dasharray:none"
       id="path3830"
       sodipodi:sides="7"
       sodipodi:cx="-347.3974"
       sodipodi:cy="46.861542"
       sodipodi:r1="475.7049"
       sodipodi:r2="428.59528"
       sodipodi:arg1="0.74383795"
       sodipodi:arg2="1.1926369"
       inkscape:flatsided="true"
       inkscape:rounded="0"
       inkscape:randomized="0"
       d="M 2.6620553,368.96948 -380.97303,521.38006 -739.32498,316.46852 l -63.22249,-407.931099 279.5148,-303.770211 411.77173,29.13584 233.95617,340.102005 z"
       transform="matrix(0.16160512,0.49827496,-0.50393927,0.15142774,452.72272,690.70609)"
       inkscape:transform-center-x="-0.85618651"
       inkscape:transform-center-y="-12.266552" />
    <g
       id="g3832"
       transform="translate(1.2915278,-1.3229382)">
      <path
         transform="matrix(0.80952381,0,0,0.76190476,106.54427,196.57542)"
         d="m 354.05253,98.7715 c 0,15.4372 -12.51432,27.95151 -27.95152,27.95151 -15.43719,0 -27.95151,-12.51431 -27.95151,-27.95151 0,-15.437196 12.51432,-27.951516 27.95151,-27.951516 15.4372,0 27.95152,12.51432 27.95152,27.951516 z"
         sodipodi:ry="27.951515"
         sodipodi:rx="27.951515"
         sodipodi:cy="98.7715"
         sodipodi:cx="326.10101"
         id="path3811"
         style="fill:none;stroke:#ffffff;stroke-width:25.46623993;stroke-miterlimit:4;stroke-opacity:1;stroke-dasharray:none"
         sodipodi:type="arc" />
      <path
         transform="matrix(0.80952381,0,0,0.76190476,-87.792239,296.41611)"
         d="m 354.05253,98.7715 c 0,15.4372 -12.51432,27.95151 -27.95152,27.95151 -15.43719,0 -27.95151,-12.51431 -27.95151,-27.95151 0,-15.437196 12.51432,-27.951516 27.95151,-27.951516 15.4372,0 27.95152,12.51432 27.95152,27.951516 z"
         sodipodi:ry="27.951515"
         sodipodi:rx="27.951515"
         sodipodi:cy="98.7715"
         sodipodi:cx="326.10101"
         id="path3811-3"
         style="fill:none;stroke:#ffffff;stroke-width:25.46623993;stroke-miterlimit:4;stroke-opacity:1;stroke-dasharray:none"
         sodipodi:type="arc" />
      <path
         transform="matrix(0.80952381,0,0,0.76190476,-141.70912,508.05594)"
         d="m 354.05253,98.7715 c 0,15.4372 -12.51432,27.95151 -27.95152,27.95151 -15.43719,0 -27.95151,-12.51431 -27.95151,-27.95151 0,-15.437196 12.51432,-27.951516 27.95151,-27.951516 15.4372,0 27.95152,12.51432 27.95152,27.951516 z"
         sodipodi:ry="27.951515"
         sodipodi:rx="27.951515"
         sodipodi:cy="98.7715"
         sodipodi:cx="326.10101"
         id="path3811-6"
         style="fill:none;stroke:#ffffff;stroke-width:25.46623993;stroke-miterlimit:4;stroke-opacity:1;stroke-dasharray:none"
         sodipodi:type="arc" />
      <path
         transform="matrix(0.80952381,0,0,0.76190476,1.3933301,679.09606)"
         d="m 354.05253,98.7715 c 0,15.4372 -12.51432,27.95151 -27.95152,27.95151 -15.43719,0 -27.95151,-12.51431 -27.95151,-27.95151 0,-15.437196 12.51432,-27.951516 27.95151,-27.951516 15.4372,0 27.95152,12.51432 27.95152,27.951516 z"
         sodipodi:ry="27.951515"
         sodipodi:rx="27.951515"
         sodipodi:cy="98.7715"
         sodipodi:cx="326.10101"
         id="path3811-0"
         style="fill:none;stroke:#ffffff;stroke-width:25.46623993;stroke-miterlimit:4;stroke-opacity:1;stroke-dasharray:none"
         sodipodi:type="arc" />
      <path
         transform="matrix(0.80952381,0,0,0.76190476,218.35726,680.43401)"
         d="m 354.05253,98.7715 c 0,15.4372 -12.51432,27.95151 -27.95152,27.95151 -15.43719,0 -27.95151,-12.51431 -27.95151,-27.95151 0,-15.437196 12.51432,-27.951516 27.95151,-27.951516 15.4372,0 27.95152,12.51432 27.95152,27.951516 z"
         sodipodi:ry="27.951515"
         sodipodi:rx="27.951515"
         sodipodi:cy="98.7715"
         sodipodi:cx="326.10101"
         id="path3811-62"
         style="fill:none;stroke:#ffffff;stroke-width:25.46623993;stroke-miterlimit:4;stroke-opacity:1;stroke-dasharray:none"
         sodipodi:type="arc" />
      <path
         transform="matrix(0.80952381,0,0,0.76190476,358.79765,510.05594)"
         d="m 354.05253,98.7715 c 0,15.4372 -12.51432,27.95151 -27.95152,27.95151 -15.43719,0 -27.95151,-12.51431 -27.95151,-27.95151 0,-15.437196 12.51432,-27.951516 27.95151,-27.951516 15.4372,0 27.95152,12.51432 27.95152,27.951516 z"
         sodipodi:ry="27.951515"
         sodipodi:rx="27.951515"
         sodipodi:cy="98.7715"
         sodipodi:cx="326.10101"
         id="path3811-61"
         style="fill:none;stroke:#ffffff;stroke-width:25.46623993;stroke-miterlimit:4;stroke-opacity:1;stroke-dasharray:none"
         sodipodi:type="arc" />
      <path
         transform="matrix(0.80952381,0,0,0.76190476,305.54282,295.74714)"
         d="m 354.05253,98.7715 c 0,15.4372 -12.51432,27.95151 -27.95152,27.95151 -15.43719,0 -27.95151,-12.51431 -27.95151,-27.95151 0,-15.437196 12.51432,-27.951516 27.95151,-27.951516 15.4372,0 27.95152,12.51432 27.95152,27.951516 z"
         sodipodi:ry="27.951515"
         sodipodi:rx="27.951515"
         sodipodi:cy="98.7715"
         sodipodi:cx="326.10101"
         id="path3811-8"
         style="fill:none;stroke:#ffffff;stroke-width:25.46623993;stroke-miterlimit:4;stroke-opacity:1;stroke-dasharray:none"
         sodipodi:type="arc" />
      <path
         transform="matrix(0.77639752,0,0,0.77018634,233.6833,422.16745)"
         d="m 393.98326,142.69531 c 0,118.35184 -95.94312,214.29495 -214.29495,214.29495 -118.351835,0 -214.294954,-95.94311 -214.294954,-214.29495 0,-118.351832 95.943119,-214.29495 214.294954,-214.29495 118.35183,0 214.29495,95.943118 214.29495,214.29495 z"
         sodipodi:ry="214.29495"
         sodipodi:rx="214.29495"
         sodipodi:cy="142.69531"
         sodipodi:cx="179.68831"
         id="path3866"
         style="fill:none;stroke:#ffffff;stroke-width:25.86366272;stroke-miterlimit:4;stroke-opacity:1;stroke-dasharray:none"
         sodipodi:type="arc" />
      <path
         transform="matrix(1.8095238,0,0,1.8095238,-218.22572,352.00902)"
         d="m 354.05253,98.7715 c 0,15.4372 -12.51432,27.95151 -27.95152,27.95151 -15.43719,0 -27.95151,-12.51431 -27.95151,-27.95151 0,-15.437196 12.51432,-27.951516 27.95151,-27.951516 15.4372,0 27.95152,12.51432 27.95152,27.951516 z"
         sodipodi:ry="27.951515"
         sodipodi:rx="27.951515"
         sodipodi:cy="98.7715"
         sodipodi:cx="326.10101"
         id="path3811-7"
         style="fill:none;stroke:#ffffff;stroke-width:11.05263138;stroke-miterlimit:4;stroke-opacity:1;stroke-dasharray:none"
         sodipodi:type="arc" />
      <path
         transform="translate(-8.8111836,148.45869)"
         inkscape:connector-curvature="0"
         id="path3907"
         d="m 379.34199,137.37121 0,192.99856"
         style="fill:none;stroke:#ffffff;stroke-width:20;stroke-linecap:butt;stroke-linejoin:miter;stroke-miterlimit:4;stroke-opacity:1;stroke-dasharray:none" />
      <path
         inkscape:connector-curvature="0"
         id="path3907-9"
         d="M 185.93911,382.72636 336.83447,503.05524"
         style="fill:none;stroke:#ffffff;stroke-width:20;stroke-linecap:butt;stroke-linejoin:miter;stroke-miterlimit:4;stroke-opacity:1;stroke-dasharray:none" />
      <path
         inkscape:connector-curvature="0"
         id="path3907-2"
         d="m 134.99852,582.50155 188.15754,-42.9556"
         style="fill:none;stroke:#ffffff;stroke-width:20;stroke-linecap:butt;stroke-linejoin:miter;stroke-miterlimit:4;stroke-opacity:1;stroke-dasharray:none" />
      <path
         inkscape:connector-curvature="0"
         id="path3907-9-0"
         d="M 268.549,742.89691 352.27493,569.00493"
         style="fill:none;stroke:#ffffff;stroke-width:20;stroke-linecap:butt;stroke-linejoin:miter;stroke-miterlimit:4;stroke-opacity:1;stroke-dasharray:none" />
      <path
         inkscape:connector-curvature="0"
         id="path3907-9-2"
         d="M 475.93101,742.67896 392.17473,568.8016"
         style="fill:none;stroke:#ffffff;stroke-width:20;stroke-linecap:butt;stroke-linejoin:miter;stroke-miterlimit:4;stroke-opacity:1;stroke-dasharray:none" />
      <path
         inkscape:connector-curvature="0"
         id="path3907-2-3"
         d="M 609.16393,581.84573 420.99889,538.92298"
         style="fill:none;stroke:#ffffff;stroke-width:20;stroke-linecap:butt;stroke-linejoin:miter;stroke-miterlimit:4;stroke-opacity:1;stroke-dasharray:none" />
      <path
         inkscape:connector-curvature="0"
         id="path3907-9-0-7"
         d="M 557.74726,382.32729 406.87291,502.68252"
         style="fill:none;stroke:#ffffff;stroke-width:20;stroke-linecap:butt;stroke-linejoin:miter;stroke-miterlimit:4;stroke-opacity:1;stroke-dasharray:none" />
    </g>
  </g>
</svg>
