<?xml version="1.0" encoding="UTF-8" standalone="no"?>
<svg
   xmlns:dc="http://purl.org/dc/elements/1.1/"
   xmlns:cc="http://creativecommons.org/ns#"
   xmlns:rdf="http://www.w3.org/1999/02/22-rdf-syntax-ns#"
   xmlns:svg="http://www.w3.org/2000/svg"
   xmlns="http://www.w3.org/2000/svg"
   xmlns:sodipodi="http://sodipodi.sourceforge.net/DTD/sodipodi-0.dtd"
   xmlns:inkscape="http://www.inkscape.org/namespaces/inkscape"
   version="1.1"
   x="0px"
   y="0px"
   viewBox="0 0 911.99997 1152"
   enable-background="new 0 0 100 100"
   xml:space="preserve"
   id="svg14"
   sodipodi:docname="design2a.svg"
   width="9.5in"
   height="12in"
   inkscape:version="0.92.3 (2405546, 2018-03-11)"
   inkscape:export-filename="/home/jberkus/Dropbox/drawing/design2.svg.png"
   inkscape:export-xdpi="300"
   inkscape:export-ydpi="300"><metadata
     id="metadata20"><rdf:RDF><cc:Work
         rdf:about=""><dc:format>image/svg+xml</dc:format><dc:type
           rdf:resource="http://purl.org/dc/dcmitype/StillImage" /><dc:title></dc:title></cc:Work></rdf:RDF></metadata><defs
     id="defs18" /><sodipodi:namedview
     pagecolor="#ffffff"
     bordercolor="#666666"
     borderopacity="1"
     objecttolerance="10"
     gridtolerance="10"
     guidetolerance="10"
     inkscape:pageopacity="0"
     inkscape:pageshadow="2"
     inkscape:window-width="3200"
     inkscape:window-height="1605"
     id="namedview16"
     showgrid="false"
     units="in"
     inkscape:zoom="0.944"
     inkscape:cx="456.78285"
     inkscape:cy="476.03836"
     inkscape:window-x="0"
     inkscape:window-y="55"
     inkscape:window-maximized="1"
     inkscape:current-layer="svg14" /><path
     inkscape:connector-curvature="0"
     id="path2"
     d="M 764.10455,641.62285 V 761.51063 H 695.82647 V 586.825 H 607.5636 v 127.59186 h -57.5962 c 3.23754,-10.03229 5.02618,-20.70408 5.02618,-31.80554 0,-39.1299 -21.76345,-73.24366 -53.80908,-90.97002 V 436.00102 c 25.32074,-16.45734 42.14795,-44.94542 42.14795,-77.33051 0,-38.08071 -23.19237,-70.82552 -56.19727,-84.88471 v -59.35434 c 9.95243,-9.52267 16.22766,-22.85242 16.22766,-37.68101 0,-24.49116 -16.98708,-44.94543 -39.75976,-50.5811 V 12.306941 h -24.981 V 126.16935 c -22.77268,5.63567 -39.75977,26.08994 -39.75977,50.5811 0,14.82859 6.26524,28.15834 16.22766,37.68101 v 59.36434 c -32.9949,14.05918 -56.19726,46.81398 -56.19726,84.8847 0,32.39508 16.81721,60.87317 42.14795,77.33051 v 155.65027 c -28.56828,15.79785 -48.90281,44.66565 -52.97971,78.47963 h -96.89631 v 87.71253 H 202.87137 V 468.83576 H 102.94736 V 711.76889 H 16.34322 v 171.53805 h 881 V 641.62285 Z m -375.84417,123.505 c 7.70414,5.88547 16.21766,10.70177 25.39069,14.26902 v 78.92929 h -92.32979 z m 50.37169,20.54419 c 4.09688,0.48963 8.25372,0.81937 12.48051,0.81937 4.49658,0 8.89324,-0.3797 13.22994,-0.93927 v 72.76402 h -25.71045 z m 50.69145,-6.55495 c 9.06311,-3.59724 17.47671,-8.4535 25.08093,-14.32898 l 73.32423,93.52805 H 489.32352 Z M 426.01167,493.81655 h 50.19183 v 24.98078 h -50.19183 z m 96.4806,-97.33327 c -25.91795,35.87019 -46.78283,42.16941 -72.50327,42.16941 -28.33547,0.0693 -58.01769,-22.42645 -67.76193,-38.98016 -15.70973,-26.68801 -13.74235,-63.99226 -5.95557,-80.09368 8.64395,-17.87388 31.49301,-30.05638 51.44949,-34.93705 24.57821,-6.01099 45.2316,-7.78872 73.32494,7.84496 26.64661,14.82859 41.80444,71.78721 21.44634,103.99652 z M 451.11258,149.47143 c 15.03856,0 27.26926,12.24058 27.26926,27.26902 0,15.02844 -12.24069,27.26903 -27.26926,27.26903 -15.02857,0 -27.26926,-12.24059 -27.26926,-27.26903 0,-15.02844 12.2307,-27.26902 27.26926,-27.26902 z m -11.0516,78.29977 c 3.56729,0.76941 7.25449,1.22905 11.0516,1.22905 3.79711,0 7.48431,-0.44965 11.0416,-1.22905 v 39.39969 c -3.62724,-0.43966 -7.29445,-0.72944 -11.0416,-0.72944 -3.74715,0 -7.42436,0.28978 -11.0516,0.72944 z m 11.0516,223.11837 c 8.71337,0 17.10699,-1.28901 25.10091,-3.55726 v 21.50345 h -50.19183 v -21.50345 c 7.98393,2.26825 16.37754,3.55726 25.09092,3.55726 z m -25.10091,92.88855 h 50.19183 v 38.14066 c -8.05388,-2.00846 -16.4375,-3.18755 -25.10091,-3.18755 -8.66342,0 -17.04704,1.17909 -25.10091,3.18755 v -38.14066 z m 27.34807,47.94903 c 51.34447,0 84.14058,30.19938 92.0176,86.60933 7.31913,57.84002 -52.24255,96.12757 -89.91921,97.8095 -38.90529,1.73678 -98.10525,-24.68086 -96.10522,-96.15145 1.5736,-56.23213 37.46094,-87.1282 94.00683,-88.26738 z M 41.324222,736.74968 H 127.92836 V 493.81655 h 49.962 v 288.99769 h 98.25528 v -87.71253 h 71.90532 c 2.37819,19.69485 10.2522,37.69101 22.0832,52.42967 L 290.55468,858.32616 H 41.324222 Z M 872.36222,858.32616 H 619.46455 L 532.33081,747.19164 c 1.99848,-2.51806 3.89704,-5.10607 5.6557,-7.794 h 94.5481 V 611.80579 h 38.30087 V 786.49141 H 789.07556 V 666.60364 h 83.27667 v 191.72252 z"
     style="stroke-width:9.99235725"
     sodipodi:nodetypes="cccccccsccsccsccccsccsccccccccccccccccccccsccccccccccccccccsssscssssscsccsccsccccscccscccccsscccccccccccccccccccccccccc" /><path
     inkscape:connector-curvature="0"
     id="path4"
     d="m 114.62872,259.78365 c 7.87402,0 15.67808,-1.299 23.31228,-3.87702 16.96709,20.72406 42.18791,32.83475 69.31728,32.83475 30.16706,0 57.65615,-14.83859 74.22355,-39.40969 6.62497,2.24827 13.43978,3.3874 20.35452,3.3874 36.20247,0 65.64008,-29.44735 65.64008,-65.63951 0,-30.84627 -21.1639,-56.78632 -50.52157,-63.63105 -8.19377,-25.6203 -31.93572,-43.406615 -59.51474,-43.406615 -4.52656,0 -9.40285,0.73943 -14.97861,2.28823 -10.27219,-10.16218 -24.1916,-16.05764 -38.76052,-16.12759 -12.99013,-15.857801 -32.29544,-25.130668 -53.00969,-25.130668 -37.8712,0 -68.677767,30.806298 -68.677767,68.677173 0,2.3382 0.139893,4.67641 0.429673,7.07456 -26.150113,12.28055 -43.057255,38.25058 -43.057255,67.7279 0,41.4781 33.75433,75.23213 75.242769,75.23213 z m -14.28912,-123.12529 11.74106,-3.51729 -3.2875,-11.80092 c -1.23905,-4.44658 -1.80862,-8.12375 -1.80862,-11.60108 0,-24.091475 19.60509,-43.696395 43.69677,-43.696395 14.79874,0 28.49832,7.47425 36.62215,19.99462 l 4.30672,6.634905 8.91322,-1.19908 c 10.33214,-1.45888 21.39373,3.68717 27.7489,12.57033 l 5.55577,7.75404 8.9532,-3.31745 c 6.23525,-2.30822 11.16151,-3.47733 14.66884,-3.47733 18.406,0 33.98415,13.22983 37.03184,31.45581 l 1.58879,9.47271 9.57272,0.89931 c 21.02401,1.97848 36.87196,19.26518 36.87196,40.21906 0,22.42275 -18.24613,40.65873 -40.65908,40.65873 -6.61497,0 -13.16999,-1.75865 -19.48518,-5.23598 l -11.39134,-6.27517 -5.81558,11.64105 c -11.06158,22.15295 -33.24471,35.91237 -57.88597,35.91237 -22.11319,0 -42.4777,-11.17141 -54.47857,-29.87702 l -6.03541,-9.39277 -10.01239,4.9362 c -7.2345,3.56726 -14.66884,5.37587 -22.0932,5.37587 -27.708921,0 -50.26177,-22.54266 -50.26177,-50.26134 -0.02998,-22.19293 14.429027,-41.44812 35.94267,-47.87318 z"
     style="stroke-width:9.99235725" /><path
     inkscape:connector-curvature="0"
     id="path6"
     d="m 665.83375,539.89857 c 11.30141,0 22.58283,-2.65795 33.0049,-7.72405 3.92701,1.65872 8.0239,2.79784 12.19073,3.3774 9.85251,11.32129 24.08168,17.91622 39.16022,17.91622 23.70197,0 43.81667,-15.79785 50.02196,-37.99078 4.92625,-1.66872 9.52275,-4.18678 13.56968,-7.43428 7.19452,3.08762 14.88867,4.68639 22.69274,4.68639 32.54525,0 59.02511,-26.47963 59.02511,-59.02459 0,-34.46349 -30.12709,-62.45196 -64.77074,-58.70485 -9.17303,-22.03305 -31.21626,-36.88163 -55.8875,-36.21214 -10.10232,-17.9362 -29.1878,-29.44735 -50.15186,-29.44735 -27.13936,0 -50.43165,19.13528 -56.19726,45.29516 -3.95699,3.57725 -7.27447,7.86395 -9.77257,12.62029 -38.85045,3.59723 -69.36725,36.37202 -69.36725,76.15142 0.01,42.18755 34.31391,76.49116 76.48184,76.49116 z m -0.60954,-127.99154 11.38135,0.41968 2.64798,-9.40277 c 1.29902,-4.60646 4.10688,-8.60338 7.90399,-11.26134 l 4.53655,-3.17755 0.68948,-5.49578 c 2.06843,-16.33743 15.96786,-28.65795 32.31542,-28.65795 13.77952,0 26.14012,8.8332 30.75661,21.99308 l 3.57728,10.20215 10.62192,-2.0784 c 2.29826,-0.44965 4.56653,-0.67948 6.7149,-0.67948 16.48746,0 30.54677,11.82091 33.41459,28.10838 l 2.51808,14.26903 13.73955,-4.58648 c 3.78712,-1.25903 7.20452,-1.87855 10.44206,-1.87855 18.77572,0 34.04411,15.26825 34.04411,34.04381 0,18.76557 -15.26839,34.04381 -34.04411,34.04381 -6.45509,0 -12.59042,-1.86856 -18.20615,-5.53574 l -9.78256,-6.39508 -7.03465,9.33282 c -3.21756,4.2867 -7.96395,6.97464 -13.35984,7.57418 l -10.05236,1.11913 -0.99924,10.06226 c -1.38894,14.00923 -12.94016,24.5711 -26.85957,24.5711 -8.90323,0 -17.25688,-4.48655 -22.353,-12.00076 l -3.70718,-5.45581 -6.59499,-0.01 c -4.31672,-0.01 -8.45357,-1.21906 -12.28066,-3.58724 l -6.48507,-4.00692 -6.52503,3.93697 c -8.31368,5.00615 -17.19693,7.55419 -26.38994,7.55419 -28.3984,0 -51.49084,-23.10223 -51.49084,-51.50038 0,-28.39816 23.07246,-51.51038 50.86132,-51.52037 z"
     style="stroke-width:9.99235725" /><g
     inkscape:groupmode="layer"
     id="layer1"
     inkscape:label="kube icon"><path
       style="stroke-width:0.36686286"
       d="m 388.86199,815.8623 c -1.10282,-0.24558 -2.07606,-0.83378 -3.14013,-1.89785 -3.73874,-3.73878 -3.01119,-9.21267 2.16657,-16.30065 2.62825,-3.59789 6.40458,-9.85404 8.00688,-13.26483 1.4512,-3.08917 1.45509,-3.1095 1.01671,-5.31952 -0.37264,-1.8787 -0.35259,-2.42738 0.13094,-3.58243 0.31395,-0.75019 0.57088,-1.50358 0.57088,-1.67424 0,-0.17064 -2.0223,-1.65084 -4.494,-3.2893 -6.12349,-4.05911 -9.85383,-7.09823 -15.63292,-12.73619 -11.68629,-11.40096 -20.45285,-24.94613 -25.73592,-39.76486 l -1.22367,-3.43225 -1.80285,0.23916 c -1.43945,0.19094 -2.13539,0.0781 -3.45282,-0.55962 -2.86262,-1.38575 -7.01348,-0.51641 -18.45501,3.86521 -6.78237,2.59732 -9.67218,3.31928 -12.00591,2.9994 -3.31863,-0.45487 -6.05126,-2.63971 -6.90743,-5.52286 -0.64596,-2.17512 -0.42388,-3.8429 0.79548,-5.9757 1.91289,-3.34558 5.24234,-4.70003 12.96792,-5.27528 6.20204,-0.46182 11.84558,-1.19283 15.41484,-1.99667 2.49564,-0.56209 2.90913,-0.78865 4.44759,-2.4373 1.14881,-1.23107 2.21424,-1.97513 3.30173,-2.30572 0.88315,-0.26845 1.58004,-0.62865 1.54885,-0.80045 -0.0315,-0.1718 -0.25903,-2.51663 -0.50631,-5.21076 -0.61152,-6.66572 -0.27625,-18.94934 0.68828,-25.20927 2.23555,-14.5102 7.7197,-29.19482 15.38439,-41.19453 l 1.25527,-1.96513 -1.281,-1.33664 c -0.82792,-0.86384 -1.49226,-2.07932 -1.87803,-3.43626 -0.53476,-1.88092 -0.85417,-2.30651 -3.06589,-4.0859 -2.85548,-2.29727 -8.42783,-5.93215 -12.95469,-8.4505 -4.21313,-2.34385 -7.1,-4.69175 -8.31968,-6.76637 -0.84304,-1.4341 -1.00516,-2.13399 -1.00516,-4.33813 0,-2.32835 0.12558,-2.80641 1.10061,-4.19076 2.29299,-3.25557 6.45624,-4.18501 10.43994,-2.33068 1.59001,0.74008 3.47823,2.42957 9.17164,8.20594 3.94317,4.00069 8.2193,8.03707 9.50261,8.96975 2.12131,1.54171 2.52189,1.69577 4.40895,1.69577 1.60954,0 2.37877,0.20597 3.42531,0.91715 0.74235,0.50444 1.41204,0.91717 1.48816,0.91717 0.0756,0 1.52943,-1.34104 3.22959,-2.98008 15.68679,-15.12346 35.18456,-25.02582 56.19243,-28.53865 2.27105,-0.37976 5.22365,-0.80084 6.56124,-0.93572 l 2.43201,-0.24526 0.17504,-1.82184 c 0.10783,-1.12274 0.46032,-2.13397 0.91854,-2.6353 1.51588,-1.65848 1.93011,-3.03253 1.92633,-6.38991 0,-3.36552 -0.65447,-9.79778 -1.6253,-16.06846 -0.7057,-4.5582 -0.71484,-6.1966 -0.0472,-8.41523 1.47063,-4.88642 6.20015,-7.62802 10.24412,-5.93833 1.93746,0.80954 3.75039,2.64724 4.63102,4.69445 0.7245,1.68409 0.79832,2.34746 0.64365,5.78075 -0.0966,2.1331 -0.43606,5.52924 -0.75537,7.54698 -0.88389,5.58534 -1.42086,12.49421 -1.14355,14.71335 0.2332,1.86664 1.14429,3.59687 2.25897,4.29004 0.28014,0.17422 0.47176,1.02215 0.47176,2.08781 0,0.98693 0.12558,1.87206 0.27909,1.96694 0.15351,0.0949 2.25845,0.4447 4.67754,0.77737 22.43829,3.08561 43.02984,13.01148 59.66499,28.76059 1.94649,1.84277 3.66429,3.3505 3.81749,3.3505 0.15309,0 0.81952,-0.41273 1.48092,-0.91717 0.87969,-0.67102 1.65522,-0.91715 2.8896,-0.91715 0.92788,0 2.28165,-0.24842 3.00835,-0.55204 2.03427,-0.84998 6.81618,-5.07166 12.05904,-10.64618 5.72093,-6.08292 8.21447,-8.03566 10.99959,-8.61384 2.62248,-0.54442 5.3444,0.18735 7.1168,1.91327 1.6087,1.56662 2.23114,3.10785 2.23114,5.52507 0,4.0543 -2.82523,7.46005 -8.86956,10.69197 -3.53955,1.89264 -11.75632,7.2506 -14.01844,9.14102 -1.80002,1.50437 -2.79237,3.17933 -2.79237,4.71325 0,0.47186 -0.65058,1.48616 -1.52387,2.37601 l -1.52386,1.55266 1.47378,2.31328 c 10.21734,16.03821 15.68899,33.77328 16.47912,53.41314 0.20769,5.16295 -0.2646,14.84202 -0.84,17.21396 -0.17157,0.70727 0.0147,0.86436 1.45719,1.22753 1.20876,0.30436 1.9636,0.80179 2.80423,1.84788 0.63273,0.78727 1.59684,1.6593 2.14263,1.93782 2.21183,1.12889 8.79512,2.21419 16.97766,2.79892 5.96495,0.42627 8.35485,0.88455 10.65603,2.04343 3.93687,1.98255 5.71389,6.25072 4.15559,9.98119 -1.28793,3.08326 -4.07159,4.83362 -7.68464,4.83213 -2.99586,-10e-4 -4.53358,-0.40315 -10.44214,-2.72913 -11.32425,-4.45797 -16.99625,-5.61402 -19.34048,-3.94193 -1.05136,0.74992 -1.33854,0.79422 -2.89191,0.44612 -0.94846,-0.21258 -1.75717,-0.33961 -1.79707,-0.28232 -0.0399,0.0573 -0.52983,1.4249 -1.08896,3.03909 -5.12505,14.79651 -13.64023,28.28906 -25.1434,39.84043 -5.88641,5.91105 -9.88638,9.21232 -16.5207,13.63469 -2.11869,1.41226 -3.99494,2.69715 -4.16945,2.85533 -0.17535,0.15888 -0.0336,1.03181 0.31763,1.95051 0.51334,1.34404 0.5566,1.88814 0.22575,2.83736 -0.22523,0.64594 -0.4095,1.63159 -0.4095,2.19035 0,1.62893 3.67395,8.51587 7.91994,14.84628 5.67147,8.45573 6.55819,10.7091 5.67042,14.40965 -1.21244,5.0539 -6.38537,7.35055 -11.07204,4.91573 -3.18423,-1.6542 -4.56614,-4.1929 -7.77599,-14.28487 -1.80285,-5.66813 -3.89434,-10.83429 -5.29494,-13.07863 -0.61173,-0.9804 -1.42474,-1.64863 -2.62027,-2.1537 -1.32752,-0.56088 -1.92581,-1.0954 -2.55612,-2.28357 l -0.82299,-1.55128 -4.65591,1.55702 c -5.39228,1.80329 -11.39282,3.2065 -18.4086,4.30478 -7.28228,1.13999 -22.13558,1.11378 -29.6813,-0.0523 -5.71966,-0.88394 -14.42857,-3.00959 -19.62166,-4.78923 -1.79141,-0.61388 -3.37229,-1.0449 -3.5132,-0.95783 -0.14091,0.087 -0.55051,0.81113 -0.91035,1.609 -0.51471,1.14134 -0.99897,1.58234 -2.27115,2.06822 -2.59959,0.99278 -4.05373,3.41146 -6.83844,11.3745 -0.91728,2.62307 -2.11302,6.2522 -2.65713,8.06474 -1.77492,5.91248 -3.7843,9.118 -6.51682,10.39636 -2.0265,0.94807 -3.74882,1.16789 -5.71673,0.72964 z m 76.80498,-49.79049 c 4.66725,-0.82762 12.64788,-2.83188 13.12405,-3.29598 0.26849,-0.26164 -18.88309,-35.33102 -20.91999,-38.30774 -1.04086,-1.52101 -3.25321,-2.97102 -5.12988,-3.36212 -1.78857,-0.37274 -4.84764,0.65497 -6.21043,2.08644 -0.6321,0.66394 -2.92278,4.42638 -5.0903,8.36099 -2.16762,3.93461 -6.90385,12.5006 -10.5252,19.03554 -4.94686,8.92722 -6.46432,11.95572 -6.10239,12.17938 1.52282,0.94113 11.80242,3.27247 17.55831,3.98207 4.8636,0.5996 18.29384,0.20839 23.29583,-0.67858 z m 35.03535,-14.2828 c 11.04096,-7.69797 20.9013,-19.0948 26.89669,-31.08784 1.40711,-2.8148 4.35834,-9.75604 4.20042,-9.87945 -0.39396,-0.30791 -42.6909,-7.1652 -44.1547,-7.15848 -4.7165,0.0216 -8.23589,4.34979 -7.12478,8.76217 0.23132,0.91866 3.9774,10.26203 8.32472,20.76302 4.34731,10.501 8.05045,19.47411 8.22937,19.94024 0.36866,0.9608 0.28403,0.99205 3.62828,-1.33966 z m -86.31777,-18.23937 c 5.55229,-13.41159 8.26318,-20.40187 8.41585,-21.70064 0.45213,-3.84695 -2.4886,-7.54208 -6.42222,-8.06968 -1.46601,-0.19662 -43.59726,6.72855 -44.22001,7.2685 -0.41307,0.35815 1.53583,5.22561 4.08954,10.21375 5.98563,11.69164 15.28096,22.38343 26.29357,30.24367 1.60031,1.14222 3.07682,2.02104 3.28115,1.95294 0.20433,-0.0681 4.0573,-9.02695 8.56212,-19.90854 z m 43.25475,-38.92287 c 3.2046,-1.5446 5.85837,-2.82839 5.89732,-2.85287 0.29442,-0.18494 2.93276,-12.94501 2.74197,-13.26108 -0.13461,-0.22301 -1.9782,-2.57638 -4.09689,-5.22973 l -3.85203,-4.82426 -6.64807,-0.003 -6.64818,-0.003 -3.7379,4.62629 c -2.0559,2.54448 -3.92238,4.92152 -4.14771,5.28233 -0.3192,0.51114 -0.0913,2.05659 1.0311,6.99778 l 1.44081,6.34176 5.86982,2.84094 c 3.22833,1.56252 5.97177,2.85268 6.09651,2.86701 0.12474,0.0143 2.84865,-1.23772 6.05325,-2.78232 z m -69.56387,-9.452 c 10.99676,-3.16672 20.67723,-6.07061 21.51209,-6.45308 2.85736,-1.3089 4.92103,-5.04689 4.32988,-7.84301 -0.57886,-2.73845 -1.89,-4.0855 -18.13255,-18.62911 -8.97603,-8.03719 -16.42022,-14.61307 -16.54275,-14.61307 -0.42672,0 -4.09542,6.99748 -5.89449,11.24267 -2.34791,5.54019 -4.12251,11.44363 -5.31636,17.68481 -1.46633,7.66597 -1.73439,25.03787 -0.37853,24.52927 0.23573,-0.0884 9.42596,-2.75177 20.42271,-5.91848 z m 148.34621,3.95476 c 0.41002,-2.99187 0.25063,-11.17758 -0.31122,-15.98109 -1.32699,-11.34362 -4.81079,-22.39586 -10.00839,-31.7516 -1.14902,-2.06818 -2.17812,-3.76034 -2.28701,-3.76034 -0.10878,0 -7.602,6.62931 -16.65142,14.73179 -17.67759,15.82761 -17.80979,15.97222 -17.82596,19.49639 -0.0126,2.81848 1.50224,5.19494 4.19076,6.57326 1.36658,0.70063 40.80521,12.28811 42.06773,12.35998 0.43396,0.0247 0.65446,-0.421 0.82551,-1.66839 z M 434.94229,647.13049 c 1.7955,-0.86918 3.28209,-2.82153 3.78955,-4.97673 0.18123,-0.76941 0.82037,-10.06606 1.42044,-20.65922 0.60008,-10.59317 1.16403,-20.20956 1.25328,-21.36977 l 0.16233,-2.10946 -1.15752,6e-5 c -1.47189,8e-5 -6.03141,0.86901 -10.5126,2.00345 -9.59689,2.42951 -19.44022,7.03176 -27.88149,13.03597 -4.33356,3.08236 -9.99043,8.00114 -9.81319,8.53277 0.18396,0.55177 34.2343,24.73979 36.04387,25.60409 1.9698,0.94083 4.6766,0.9161 6.69533,-0.0611 z m 39.65272,0.0401 c 1.72043,-0.78069 36.37946,-25.21062 36.37946,-25.64255 0,-0.36925 -5.68754,-5.26231 -8.88006,-7.63968 -8.4735,-6.30979 -19.12313,-11.3735 -29.48516,-14.01958 -4.6978,-1.19963 -10.26952,-2.13375 -10.62243,-1.78088 -0.11907,0.11907 0.3527,10.10937 1.04843,22.20066 1.14135,19.83688 1.33717,22.12502 2.00434,23.42637 1.90554,3.7168 5.84252,5.14058 9.55542,3.45566 z"
       id="path3792-3"
       inkscape:connector-curvature="0" /><path
       style="stroke-width:0.32876515"
       d="m 394.67199,480.7038 c -0.9921,-0.21922 -1.8677,-0.74429 -2.825,-1.69417 -3.3634,-3.33752 -2.7089,-8.22394 1.9491,-14.55124 2.3646,-3.21177 5.7619,-8.7965 7.2034,-11.84123 1.3056,-2.75764 1.3091,-2.77579 0.9146,-4.74863 -0.3352,-1.67708 -0.3171,-2.16687 0.1181,-3.19796 0.2825,-0.66968 0.5136,-1.34221 0.5136,-1.49456 0,-0.15233 -1.8194,-1.47366 -4.043,-2.93628 -5.5089,-3.62349 -8.8649,-6.33645 -14.064,-11.36933 -10.51342,-10.17741 -18.40012,-22.26888 -23.15302,-35.49725 l -1.1009,-3.0639 -1.6219,0.21349 c -1.295,0.17045 -1.9211,0.0697 -3.1063,-0.49956 -2.5754,-1.23703 -6.3095,-0.46099 -16.603,3.4504 -6.1015,2.31856 -8.7014,2.96305 -10.801,2.67749 -2.9854,-0.40604 -5.44381,-2.35641 -6.21411,-4.93014 -0.5811,-1.94168 -0.38128,-3.43048 0.71563,-5.33437 1.72098,-2.98653 4.71628,-4.19562 11.66648,-4.70914 5.5796,-0.41226 10.6566,-1.06481 13.8679,-1.78239 2.2451,-0.50176 2.6171,-0.704 4.0012,-2.17572 1.0334,-1.09896 1.992,-1.76316 2.9703,-2.05827 0.7945,-0.23964 1.4216,-0.56117 1.3934,-0.71455 -0.029,-0.15335 -0.233,-2.24654 -0.4555,-4.65153 -0.5502,-5.95034 -0.2485,-16.91566 0.6191,-22.50378 2.0113,-12.95296 6.9451,-26.06159 13.8406,-36.77349 l 1.1293,-1.75421 -1.1524,-1.1932 c -0.7449,-0.77113 -1.3427,-1.85618 -1.6897,-3.06749 -0.4809,-1.67906 -0.7684,-2.05897 -2.7581,-3.64739 -2.5689,-2.05074 -7.582,-5.2955 -11.6547,-7.54359 -3.7902,-2.0923 -6.3874,-4.18822 -7.4847,-6.04018 -0.7584,-1.2802 -0.9042,-1.90498 -0.9042,-3.87256 0,-2.07847 0.1134,-2.50522 0.9901,-3.74101 2.0629,-2.90618 5.8084,-3.73587 9.3922,-2.08055 1.4305,0.66065 3.1292,2.16884 8.2512,7.32527 3.5474,3.57133 7.3944,7.17453 8.5489,8.0071 1.9084,1.37625 2.2687,1.51378 3.9665,1.51378 1.448,0 2.14012,0.18386 3.08162,0.81873 0.6678,0.45031 1.2703,0.81873 1.3388,0.81873 0.068,0 1.376,-1.19711 2.9054,-2.66025 14.1126,-13.5004 31.6535,-22.34002 50.553,-25.47585 2.0432,-0.33901 4.6993,-0.7149 5.9028,-0.8353 l 2.1878,-0.21893 0.1576,-1.62632 c 0.096,-1.00225 0.414,-1.90495 0.8262,-2.35248 1.3639,-1.4805 1.7366,-2.70708 1.7331,-5.70413 0,-3.00433 -0.5886,-8.74627 -1.4622,-14.34398 -0.6349,-4.06901 -0.6431,-5.53157 -0.043,-7.5121 1.3232,-4.36201 5.5779,-6.80937 9.216,-5.30102 1.7431,0.72265 3.3742,2.36314 4.1662,4.19063 0.6519,1.50336 0.7184,2.09554 0.5792,5.16036 -0.088,1.90417 -0.3923,4.93583 -0.6796,6.73702 -0.7951,4.98592 -1.2783,11.15332 -1.0288,13.1343 0.2098,1.66631 1.0296,3.21086 2.0322,3.82963 0.2522,0.15553 0.4245,0.91245 0.4245,1.86375 0,0.88101 0.1134,1.67114 0.251,1.75584 0.1382,0.0847 2.0318,0.39698 4.2082,0.69393 20.1863,2.75447 38.7113,11.61509 53.677,25.67398 1.751,1.645 3.2965,2.99092 3.4344,2.99092 0.1376,0 0.7373,-0.36842 1.3321,-0.81873 0.7915,-0.59901 1.4892,-0.81873 2.5997,-0.81873 0.8347,0 2.0527,-0.22176 2.7065,-0.49279 1.8301,-0.75876 6.132,-4.52734 10.8487,-9.50362 5.1467,-5.4301 7.39,-7.17327 9.8956,-7.68939 2.3594,-0.48598 4.8082,0.16726 6.4027,1.70792 1.4472,1.39851 2.0071,2.77433 2.0071,4.93213 0,3.61918 -2.5416,6.65944 -7.9794,9.54449 -3.1843,1.68953 -10.5763,6.47247 -12.6115,8.16001 -1.6194,1.34292 -2.5121,2.83811 -2.5121,4.20741 0,0.42122 -0.5852,1.32666 -1.3709,2.12102 l -1.3709,1.38601 1.3259,2.06503 c 9.1918,14.31697 14.1144,30.14868 14.8253,47.68078 0.1867,4.60886 -0.2381,13.24915 -0.7558,15.36654 -0.1544,0.63137 0.014,0.7716 1.311,1.09578 1.0874,0.2717 1.7665,0.71575 2.5228,1.64956 0.5693,0.70279 1.4364,1.48123 1.9276,1.72986 1.9898,1.00773 7.9125,1.97655 15.2737,2.49853 5.3664,0.38052 7.5164,0.78963 9.5866,1.82412 3.5417,1.76979 5.1406,5.57991 3.7385,8.91001 -1.1586,2.75237 -3.6629,4.31487 -6.9134,4.31354 -2.6951,-9.3e-4 -4.0785,-0.35989 -9.3941,-2.43623 -10.1877,-3.97954 -15.2905,-5.01152 -17.3995,-3.51887 -0.9458,0.66942 -1.2042,0.70897 -2.6018,0.39822 -0.8532,-0.18976 -1.5808,-0.30316 -1.6166,-0.252 -0.037,0.0512 -0.4766,1.27197 -0.9797,2.71292 -4.6106,13.20854 -12.2713,25.25304 -22.6199,35.5647 -5.2957,5.27668 -8.8943,8.22366 -14.8627,12.17141 -1.9062,1.26069 -3.5941,2.40769 -3.751,2.54889 -0.1577,0.14182 -0.03,0.92108 0.2858,1.74117 0.4617,1.19981 0.5006,1.68551 0.203,2.53287 -0.2026,0.5766 -0.3684,1.45648 -0.3684,1.95527 0,1.45411 3.3052,7.60194 7.1251,13.25296 5.1022,7.54824 5.9,9.5598 5.1013,12.86319 -1.0907,4.51151 -5.7446,6.56168 -9.9608,4.38817 -2.8647,-1.47666 -4.108,-3.74291 -6.9957,-12.7518 -1.6219,-5.05983 -3.5034,-9.67154 -4.7635,-11.67501 -0.5502,-0.87519 -1.2817,-1.47171 -2.3573,-1.92258 -1.1943,-0.50067 -1.7325,-0.97783 -2.2995,-2.03848 l -0.7404,-1.38481 -4.1887,1.38994 c -4.8511,1.60975 -10.2495,2.86236 -16.561,3.84278 -6.5514,1.01764 -19.914,0.99424 -26.7026,-0.0467 -5.1456,-0.78908 -12.9805,-2.68659 -17.6525,-4.27524 -1.6116,-0.54799 -3.0337,-0.93277 -3.1604,-0.85504 -0.1269,0.0777 -0.4954,0.72408 -0.8191,1.43633 -0.4631,1.01884 -0.8986,1.41251 -2.0432,1.84625 -2.3387,0.88624 -3.647,3.04533 -6.1522,10.15377 -0.8252,2.34156 -1.9009,5.58121 -2.3903,7.19923 -1.597,5.27794 -3.4046,8.13944 -5.8629,9.2806 -1.823,0.84633 -3.3726,1.04256 -5.1429,0.65135 z m 69.0969,-44.44692 c 4.1988,-0.73879 11.3785,-2.52795 11.8069,-2.94225 0.2415,-0.23356 -16.9879,-31.53926 -18.8204,-34.1965 -0.9364,-1.35778 -2.9267,-2.65217 -4.6151,-3.0013 -1.609,-0.33273 -4.3613,0.58469 -5.5872,1.86253 -0.5686,0.59267 -2.6294,3.95133 -4.5794,7.46368 -1.95,3.51234 -6.211,11.15902 -9.4689,16.99262 -4.4503,7.96914 -5.8155,10.67262 -5.4898,10.87228 1.3699,0.84013 10.6179,2.92126 15.796,3.5547 4.3755,0.53527 16.4579,0.18603 20.9579,-0.60576 z m 31.5191,-12.74994 c 9.9329,-6.87182 18.8038,-17.04553 24.1974,-27.75146 1.266,-2.51272 3.9209,-8.70903 3.7789,-8.81917 -0.3544,-0.27487 -38.4063,-6.39623 -39.7234,-6.39024 -4.2431,0.0194 -7.4093,3.88297 -6.4096,7.8218 0.208,0.82008 3.5781,9.1607 7.4891,18.53472 3.9111,9.37402 7.2425,17.38412 7.4035,17.80023 0.3316,0.85769 0.2555,0.88558 3.2641,-1.19588 z m -77.6548,-16.28191 c 4.9951,-11.97225 7.4339,-18.21232 7.5712,-19.37171 0.4068,-3.43408 -2.2389,-6.73264 -5.7776,-7.20362 -1.319,-0.17553 -39.222,6.00642 -39.7821,6.48843 -0.3717,0.31972 1.3817,4.6648 3.6791,9.11759 5.3848,10.43689 13.7473,19.98123 23.6548,26.9979 1.4395,1.01964 2.7679,1.80413 2.9518,1.74335 0.1839,-0.0608 3.6502,-8.05817 7.7028,-17.77194 z m 38.9136,-34.74561 c 2.8831,-1.37884 5.2705,-2.52486 5.3056,-2.5467 0.2648,-0.1651 2.6383,-11.55574 2.4666,-11.8379 -0.1209,-0.19906 -1.7797,-2.29988 -3.6855,-4.66848 l -3.4655,-4.3065 -5.9808,-0.002 -5.9811,-0.002 -3.3628,4.12979 c -1.8495,2.2714 -3.5286,4.39334 -3.7314,4.71542 -0.2873,0.45629 -0.083,1.83589 0.9276,6.24678 l 1.2963,5.66116 5.2806,2.53605 c 2.9044,1.39483 5.3726,2.54652 5.4847,2.55931 0.1122,0.0128 2.5628,-1.10488 5.4457,-2.48372 z m -62.5824,-8.43761 c 9.8931,-2.82688 18.602,-5.4191 19.3531,-5.76052 2.5707,-1.16843 4.4272,-4.50526 3.8955,-7.00129 -0.5209,-2.44457 -1.7003,-3.64705 -16.3129,-16.62982 -8.0752,-7.17464 -14.7722,-13.04478 -14.8825,-13.04478 -0.3838,0 -3.6843,6.2465 -5.3029,10.03609 -2.11232,4.94561 -3.70882,10.21549 -4.78282,15.78686 -1.3191,6.84325 -1.5603,22.35077 -0.3406,21.89677 0.212,-0.079 8.48002,-2.45644 18.37312,-5.28331 z m 133.4582,3.53033 c 0.3689,-2.67078 0.2255,-9.97798 -0.28,-14.26599 -1.1938,-10.1262 -4.328,-19.9923 -9.004,-28.34397 -1.0337,-1.84623 -1.9594,-3.35678 -2.0574,-3.35678 -0.098,0 -6.8391,5.91784 -14.9802,13.15075 -15.9036,14.12899 -16.0225,14.25807 -16.0371,17.40403 -0.011,2.51599 1.3515,4.6374 3.7702,5.86781 1.2294,0.62543 36.71,10.96934 37.8459,11.03349 0.3903,0.022 0.5885,-0.37582 0.7426,-1.48934 z m -91.2949,-37.49167 c 1.6152,-0.77589 2.9527,-2.51871 3.4093,-4.44262 0.163,-0.68684 0.738,-8.98574 1.2779,-18.44204 0.5399,-9.4563 1.0471,-18.04065 1.1275,-19.07634 l 0.1459,-1.88307 -1.0412,5e-5 c -1.3242,8e-5 -5.4263,0.77575 -9.4576,1.78844 -8.6337,2.16878 -17.4892,6.2771 -25.0832,11.63694 -3.8988,2.75157 -8.9879,7.14245 -8.8284,7.61701 0.1655,0.49256 30.7984,22.0847 32.4264,22.85622 1.7721,0.83988 4.2074,0.8178 6.0234,-0.0545 z m 35.6731,0.0358 c 1.5478,-0.6969 32.7284,-22.50497 32.7284,-22.89055 0,-0.32962 -5.1165,-4.69755 -7.9887,-6.81979 -7.623,-5.63261 -17.2039,-10.15289 -26.5261,-12.51498 -4.2264,-1.07087 -9.2388,-1.90474 -9.5563,-1.58974 -0.1075,0.10627 0.3173,9.02442 0.9431,19.81805 1.0269,17.70797 1.2031,19.75054 1.8033,20.91223 1.7143,3.3179 5.2562,4.58888 8.5963,3.08478 z"
       id="path3792"
       inkscape:connector-curvature="0" /></g></svg>