<?xml version="1.0" encoding="UTF-8" standalone="no"?>
<!-- Created with Inkscape (http://www.inkscape.org/) -->

<svg
   xmlns:dc="http://purl.org/dc/elements/1.1/"
   xmlns:cc="http://creativecommons.org/ns#"
   xmlns:rdf="http://www.w3.org/1999/02/22-rdf-syntax-ns#"
   xmlns:svg="http://www.w3.org/2000/svg"
   xmlns="http://www.w3.org/2000/svg"
   xmlns:sodipodi="http://sodipodi.sourceforge.net/DTD/sodipodi-0.dtd"
   xmlns:inkscape="http://www.inkscape.org/namespaces/inkscape"
   width="761.57269"
   height="740.32532"
   id="svg2"
   version="1.1"
   inkscape:version="0.92.4 (5da689c313, 2019-01-14)"
   sodipodi:docname="logo_7x7_boxes_CHOPPED_6_without_wheel.svg"
   inkscape:export-filename="/home/thockin/Downloads/kubernetes.png"
   inkscape:export-xdpi="90"
   inkscape:export-ydpi="90">
  <defs
     id="defs4" />
  <sodipodi:namedview
     id="base"
     pagecolor="#ffffff"
     bordercolor="#666666"
     borderopacity="1.0"
     inkscape:pageopacity="0.0"
     inkscape:pageshadow="2"
     inkscape:zoom="0.75130096"
     inkscape:cx="408.33331"
     inkscape:cy="384.01591"
     inkscape:document-units="px"
     inkscape:current-layer="layer1"
     showgrid="false"
     inkscape:window-width="1519"
     inkscape:window-height="822"
     inkscape:window-x="45"
     inkscape:window-y="258"
     inkscape:window-maximized="0"
     inkscape:snap-global="true"
     fit-margin-top="10"
     fit-margin-left="10"
     fit-margin-right="10"
     fit-margin-bottom="10"
     inkscape:snap-nodes="false" />
  <metadata
     id="metadata7">
    <rdf:RDF>
      <cc:Work
         rdf:about="">
        <dc:format>image/svg+xml</dc:format>
        <dc:type
           rdf:resource="http://purl.org/dc/dcmitype/StillImage" />
        <dc:title></dc:title>
      </cc:Work>
    </rdf:RDF>
  </metadata>
  <g
     inkscape:label="Layer 1"
     inkscape:groupmode="layer"
     id="layer1"
     transform="translate(8.8111836,-148.45869)">
    <path
       style="opacity:1;fill:#1544a7;fill-opacity:1;fill-rule:nonzero;stroke:none;stroke-width:2;stroke-miterlimit:4;stroke-dasharray:none;stroke-opacity:1"
       d="m 610.98765,374.49775 v 97.42969 h 70.99609 L 659.5521,374.49775 Z"
       id="rect5072-8-3-6-3"
       inkscape:connector-curvature="0" />
    <path
       style="opacity:1;fill:#1544a7;fill-opacity:1;fill-rule:nonzero;stroke:none;stroke-width:2;stroke-miterlimit:4;stroke-dasharray:none;stroke-opacity:1"
       d="m 138.96226,300.44697 -13.67383,6.5332 a 46.724621,46.342246 0 0 0 -25.28126,31.4375 l -9.67187,42.08008 h 48.62696 z"
       id="rect5072-1"
       inkscape:connector-curvature="0" />
    <path
       style="opacity:1;fill:#326ce5;fill-opacity:1;fill-rule:nonzero;stroke:none;stroke-width:2;stroke-miterlimit:4;stroke-dasharray:none;stroke-opacity:1"
       d="m 311.78257,206.49189 -100.41016,47.97852 v 30.59766 h 100.41016 z"
       id="rect5072-4"
       inkscape:connector-curvature="0" />
    <path
       style="opacity:1;fill:#1544a7;fill-opacity:1;fill-rule:nonzero;stroke:none;stroke-width:2;stroke-miterlimit:4;stroke-dasharray:none;stroke-opacity:1"
       d="m 510.60093,246.49775 v 30.57032 h 64.02148 z"
       id="rect5072-8-3"
       inkscape:connector-curvature="0" />
    <path
       style="opacity:1;fill:#326ce5;fill-opacity:1;fill-rule:nonzero;stroke:none;stroke-width:2;stroke-miterlimit:4;stroke-dasharray:none;stroke-opacity:1"
       d="m 217.37241,291.06807 v 97.42968 h 45.28907 c 16.52463,-11.00403 35.02827,-19.54933 55.12109,-24.99023 v -72.43945 z"
       id="rect5072-4-6"
       inkscape:connector-curvature="0" />
    <path
       style="opacity:1;fill:#b8cbf6;fill-opacity:1;fill-rule:nonzero;stroke:none;stroke-width:2;stroke-miterlimit:4;stroke-dasharray:none;stroke-opacity:1"
       d="m 543.72984,469.92744 c 2.09375,6.13899 3.90371,12.43619 5.38671,18.89258 5.29905,23.06991 6.12476,46.12683 3.0625,68.28125 l 5.90625,1.71875 c 1.06152,1.50251 3.24424,5.15347 6.3125,6.34375 2.9492,0.92874 6.04994,1.62268 9.3379,2.19336 h 41.27539 V 469.92744 Z M 514.60093,514.404 v 31.8711 l 0.26562,0.0762 c 1.02703,-10.45984 0.96381,-21.15904 -0.26562,-31.94727 z"
       id="rect5072-8-3-0-4"
       inkscape:connector-curvature="0" />
    <path
       style="opacity:1;fill:#1544a7;fill-opacity:1;fill-rule:nonzero;stroke:none;stroke-width:2;stroke-miterlimit:4;stroke-dasharray:none;stroke-opacity:1"
       d="m 322.70444,662.78877 -5.30664,9.59375 c 25.69263,8.75467 54.06672,10.7129 82.53125,4.25 5.07891,-1.15317 10.04471,-2.53702 14.875,-4.15625 l -5.36132,-9.6875 z m -6.92187,49.05469 v 48.375 h 100.41016 v -48.02735 c -2.52111,0.68471 -5.0652,1.32585 -7.63868,1.91016 -31.6906,7.19538 -63.4071,5.93719 -92.77148,-2.25781 z"
       id="rect5072-8-5-3-0"
       inkscape:connector-curvature="0" />
    <path
       style="opacity:1;fill:#326ce5;fill-opacity:1;fill-rule:nonzero;stroke:none;stroke-width:2;stroke-miterlimit:4;stroke-dasharray:none;stroke-opacity:1"
       d="m 229.37241,668.78877 v 97.42969 h 29.62891 c -1.88011,-4.14902 -1.93946,-9.29293 0.27148,-14.02344 0.55882,-1.15818 1.2961,-2.84161 1.875,-3.9375 2.41922,-4.57989 5.1629,-7.68558 7.84375,-11.6875 5.53675,-8.66221 10.39765,-16.43177 13.23633,-23.79297 0.71319,-2.44462 -0.34141,-5.79411 -1.29883,-8.26953 l 2.65625,-6.375 c -13.74472,-8.14435 -26.46157,-18.00407 -37.81836,-29.34375 z m 83.30664,43.40625 -3.3125,6 c -2.46561,0.66014 -4.84405,1.33008 -6.30273,3.07031 -5.32691,6.35508 -7.45265,16.5533 -11.32227,26.27344 -1.45714,4.59119 -2.14662,8.65923 -4.21875,13.40625 -0.46897,1.07438 -1.25657,2.5762 -1.8125,3.71875 -0.004,0.009 0.004,0.0223 0,0.0312 -0.005,0.0114 -0.0253,0.0199 -0.0312,0.0312 -0.24987,0.51592 -0.52248,1.01282 -0.8125,1.49219 h 44.91602 v -48.375 c -5.7984,-1.61822 -11.50705,-3.5003 -17.10352,-5.64844 z"
       id="rect5072-4-6-2"
       inkscape:connector-curvature="0" />
    <path
       style="opacity:1;fill:#1544a7;fill-opacity:1;fill-rule:nonzero;stroke:none;stroke-width:2;stroke-miterlimit:4;stroke-dasharray:none;stroke-opacity:1"
       d="m 124.96226,569.35713 v 7.35547 c 1.76724,-1.25308 3.81765,-2.2181 6.09179,-2.76758 0.0642,-0.0146 0.15195,-0.047 0.21875,-0.0625 0.0426,-0.01 0.0824,-0.0222 0.125,-0.0312 1.22553,-0.28748 2.78617,-0.69407 3.90625,-0.90625 5.08907,-0.96405 9.23094,-0.72585 14.03125,-1.125 6.9729,-0.73102 13.11549,-1.37969 18.7129,-2.46289 z m 56.11133,19.56836 c -0.20473,-0.003 -0.40946,0.004 -0.61329,0.0195 -7.80827,1.12978 -15.82306,4.02923 -25.5,7.5 -4.49806,1.72329 -8.12166,3.69162 -13.125,5.03125 -1.05748,0.28315 -2.5724,0.57839 -3.78125,0.84375 -0.0972,0.0238 -0.18335,0.0714 -0.28125,0.0937 -0.0652,0.0145 -0.15615,0.0171 -0.21875,0.0312 -4.58592,0.98852 -9.09103,0.11249 -12.59179,-2.07422 v 66.41797 H 225.37241 V 648.14619 C 212.37894,631.2589 202.06833,611.98548 195.24155,590.82002 l -6.375,1.09375 c -1.60231,-0.89681 -4.72209,-2.94612 -7.79296,-2.98828 z"
       id="rect5072-8-30"
       inkscape:connector-curvature="0" />
    <path
       style="opacity:1;fill:#b8cbf6;fill-opacity:1;fill-rule:nonzero;stroke:none;stroke-width:2;stroke-miterlimit:4;stroke-dasharray:none;stroke-opacity:1"
       d="m 124.96226,469.92744 v 97.42969 h 43.08594 c 2.61019,-0.50512 5.1127,-1.09583 7.50585,-1.84961 2.38589,-0.97901 4.66695,-4.25914 6.28125,-6.34375 l 6.125,-1.78125 c -4.35985,-30.19238 -1.25405,-60.02557 8.01758,-87.45508 z m 100.41015,43.13672 c -1.24629,10.9642 -1.30849,22.19727 -0.0684,33.53711 l 0.0684,-0.0195 z"
       id="rect5072-8-0-4"
       inkscape:connector-curvature="0" />
    <path
       style="opacity:1;fill:#326ce5;fill-opacity:1;fill-rule:nonzero;stroke:none;stroke-width:2;stroke-miterlimit:4;stroke-dasharray:none;stroke-opacity:1"
       d="m 244.94468,471.92744 c -5.92032,13.5844 -9.8638,28.10655 -11.57227,43.13672 v 33.51758 l 73.55664,-21.23047 0.0625,-0.25 c 2.54542,-0.69551 4.9163,-2.1852 6.6875,-4.40625 4.32388,-5.42206 3.55937,-13.24303 -1.625,-17.75 l 0.0625,-0.3125 -36.56445,-32.70508 z"
       id="rect5072-4-6-5"
       inkscape:connector-curvature="0" />
    <path
       style="opacity:1;fill:#326ce5;fill-opacity:1;fill-rule:nonzero;stroke:none;stroke-width:2;stroke-miterlimit:4;stroke-dasharray:none;stroke-opacity:1"
       d="m 307.7103,563.47627 c -0.83025,-0.0117 -1.68674,0.0633 -2.53125,0.21875 l -0.125,-0.15625 -75.5,12.8125 c 11.65198,32.23842 33.43409,58.5139 60.78125,76.0625 l 29.25,-70.6875 -0.21875,-0.28125 c 1.04325,-2.42375 1.35094,-5.16792 0.71875,-7.9375 -1.35038,-5.916 -6.56326,-9.94975 -12.375,-10.03125 z m -86.33789,76.66992 v 18.64258 h 16.39453 c -5.84082,-5.83203 -11.32439,-12.05305 -16.39453,-18.64258 z"
       id="rect5072-4-78"
       inkscape:connector-curvature="0" />
    <path
       style="opacity:1;fill:#b8cbf6;fill-opacity:1;fill-rule:nonzero;stroke:none;stroke-width:2;stroke-miterlimit:4;stroke-dasharray:none;stroke-opacity:1"
       d="m 377.49155,600.44502 c -4.45378,0.16363 -8.67858,2.64809 -10.90625,6.8125 h -0.0625 l -31.81836,57.53125 h 86.73829 l -31.85743,-57.5625 h -0.28125 c -1.24452,-2.32681 -3.22174,-4.26747 -5.78125,-5.5 -1.9526,-0.94027 -4.0068,-1.35565 -6.03125,-1.28125 z"
       id="rect5072-8-5-68"
       inkscape:connector-curvature="0" />
    <path
       style="opacity:1;fill:#326ce5;fill-opacity:1;fill-rule:nonzero;stroke:none;stroke-width:2;stroke-miterlimit:4;stroke-dasharray:none;stroke-opacity:1"
       d="m 429.61655,573.16377 c -1.66661,0.0842 -3.33785,0.51084 -4.9375,1.28125 -6.248,3.00919 -8.96561,10.40876 -6.25,16.71875 l -0.0937,0.125 29.5625,71.40625 c 28.49594,-18.15357 49.82325,-45.28065 60.96875,-76.59375 l -76.15625,-12.875 -0.125,0.15625 c -0.97317,-0.17915 -1.96878,-0.26925 -2.96875,-0.21875 z m 86.98438,77.65234 c -4.83203,6.29951 -10.05756,12.30679 -15.6582,17.97266 h 15.6582 z"
       id="rect5072-0-8"
       inkscape:connector-curvature="0" />
    <path
       style="opacity:1;fill:#1544a7;fill-opacity:1;fill-rule:nonzero;stroke:none;stroke-width:2;stroke-miterlimit:4;stroke-dasharray:none;stroke-opacity:1"
       d="m 620.98765,656.78877 v 79.25195 l 63.70703,-79.25195 z"
       id="rect5072-8-3-6-6-9"
       inkscape:connector-curvature="0" />
    <path
       style="opacity:1;fill:#326ce5;fill-opacity:1;fill-rule:nonzero;stroke:none;stroke-width:2;stroke-miterlimit:4;stroke-dasharray:none;stroke-opacity:1"
       d="m 585.7357,569.35713 c 5.10167,0.88547 10.66337,1.46764 16.88085,2.11914 4.80033,0.3989 8.94213,0.16122 14.03125,1.125 1.21775,0.23062 2.99607,0.71487 4.25,1 2.28363,0.55112 4.34134,1.52071 6.11329,2.78125 v -7.02539 z m -15.64454,19.22461 c -3.07378,0.17293 -4.86251,1.78142 -6.78711,3.05078 -1.06846,-0.21439 -4.3576,-0.79633 -6.25,-1.09375 -6.7101,21.08765 -17.0578,40.81391 -30.45312,58.27734 v 17.97266 h 100.41016 v -66.77539 c -3.50385,2.19598 -8.01794,3.07715 -12.61329,2.08789 -0.0626,-0.0143 -0.15345,-0.0168 -0.21875,-0.0312 -0.0979,-0.0223 -0.18405,-0.0701 -0.28125,-0.0937 -1.20887,-0.2653 -2.72376,-0.52941 -3.78125,-0.8125 -5.0034,-1.33937 -8.62685,-3.33944 -13.125,-5.0625 -9.67712,-3.47027 -17.69168,-6.37063 -25.5,-7.5 -0.49569,-0.039 -0.96127,-0.0442 -1.40039,-0.0195 z"
       id="rect5072-8-3-4"
       inkscape:connector-curvature="0" />
    <path
       style="opacity:1;fill:#82a6ef;fill-opacity:1;fill-rule:nonzero;stroke:none;stroke-width:2;stroke-miterlimit:4;stroke-dasharray:none;stroke-opacity:1"
       d="m 530.60093,370.49775 v 23.4336 c 0.46178,-0.15508 0.91179,-0.3377 1.32812,-0.58008 6.54468,-4.40598 12.50626,-10.5178 19.71875,-17.84375 1.60501,-1.70193 3.00405,-3.36306 4.4668,-5.00977 z m 58.54297,0 c 0.76595,5.32826 -1.49216,11.18023 -6.3711,15.07227 -0.98985,0.79616 -2.2765,1.89799 -3.21875,2.59375 -4.16671,3.07677 -8.00458,4.65123 -12.15625,7.09375 -8.74671,5.40227 -15.99866,9.88056 -21.75,15.28125 -2.7166,2.90572 -2.51284,5.65708 -2.75,8.28125 -0.81131,0.74534 -3.67245,3.27896 -5.1875,4.65625 9.11053,13.56033 16.56223,28.45011 22.01954,44.45117 h 71.28125 v -97.42969 z"
       id="rect5072-8-3-69"
       inkscape:connector-curvature="0" />
    <path
       style="opacity:1;fill:#1544a7;fill-opacity:1;fill-rule:nonzero;stroke:none;stroke-width:2;stroke-miterlimit:4;stroke-dasharray:none;stroke-opacity:1"
       d="m 468.2103,372.49775 c 12.06786,7.95697 23.24957,17.27172 33.28125,27.79102 l 5.5625,-3.96875 c 1.60836,0.0947 4.86301,0.51263 7.54688,-0.38867 v -23.4336 z m -54.01757,15.40039 v 74.25196 l 55.73632,-39.51758 c -15.81463,-15.4868 -34.86677,-27.35658 -55.73632,-34.73438 z m 78.64257,63.39063 -20.82617,18.63867 h 30.60547 c -2.85225,-6.49229 -6.1244,-12.71461 -9.7793,-18.63867 z"
       id="rect5072-0-5"
       inkscape:connector-curvature="0" />
    <path
       style="opacity:1;fill:#82a6ef;fill-opacity:1;fill-rule:nonzero;stroke:none;stroke-width:2;stroke-miterlimit:4;stroke-dasharray:none;stroke-opacity:1"
       d="m 221.37241,370.49775 v 23.80274 c 2.7405,1.05715 4.98886,0.44487 7.21289,0.14453 0.84027,0.62086 3.66603,2.64807 5.28125,3.75 9.77728,-10.37363 20.76292,-19.68495 32.79493,-27.69727 z m 100.41016,15.22852 c -21.68941,7.50936 -40.73856,19.58197 -56.29102,34.875 l 56.29102,39.9043 z m -79.10352,63.53125 c -3.67157,5.9813 -6.92362,12.22054 -9.73437,18.66992 h 30.60742 z"
       id="rect5072-4-7"
       inkscape:connector-curvature="0" />
    <path
       style="opacity:1;fill:#326ce5;fill-opacity:1;fill-rule:nonzero;stroke:none;stroke-width:2;stroke-miterlimit:4;stroke-dasharray:none;stroke-opacity:1"
       d="m 112.96226,374.49775 v 97.42969 h 71.01562 c 5.32353,-15.7493 12.67345,-30.70827 21.82617,-44.48242 l -4.6875,-4.1875 c -0.29892,-1.82458 -0.69148,-6.04333 -2.9375,-8.4375 -5.75163,-5.40039 -13.003,-9.87944 -21.75,-15.28125 -4.1518,-2.4423 -7.95813,-4.0172 -12.125,-7.09375 -0.88629,-0.65437 -2.06703,-1.65588 -3.03125,-2.4375 -0.0717,-0.0555 -0.14755,-0.0996 -0.21875,-0.15625 -4.96653,-3.95975 -7.20777,-9.95 -6.31835,-15.35352 z m 74.51562,0 c 1.54655,1.73851 3.00489,3.49249 4.70117,5.29102 7.21288,7.32557 13.17384,13.40687 19.71875,17.8125 0.50962,0.29682 0.99758,0.5152 1.47461,0.69922 v -23.80274 z"
       id="rect5072-8-54"
       inkscape:connector-curvature="0" />
    <path
       style="opacity:1;fill:#82a6ef;fill-opacity:1;fill-rule:nonzero;stroke:none;stroke-width:2;stroke-miterlimit:4;stroke-dasharray:none;stroke-opacity:1"
       d="m 315.78257,279.06807 v 72.43945 c 2.5245,-0.68361 5.0727,-1.32187 7.64648,-1.90625 8.82515,-2.00376 17.66068,-3.33533 26.4375,-4.0625 l 0.34375,-6.1875 c 1.94712,-1.88509 4.13131,-4.5971 4.75,-7.5625 0.63617,-7.86389 -0.39472,-16.32459 -1.625,-26.53125 -0.6791,-4.76876 -1.80738,-8.73025 -2,-13.90625 -0.0396,-1.06164 0.0195,-2.53064 0.0312,-3.75 -0.003,-0.13691 -0.0312,-0.26852 -0.0312,-0.40625 -3.1e-4,-2.96397 0.72685,-5.73452 1.97461,-8.12695 z m 62.82813,0 c 1.24776,2.39261 1.97429,5.16298 1.9746,8.12695 0.005,1.27224 0.075,2.97962 0.0312,4.15625 -0.19262,5.176 -1.3209,9.13749 -2,13.90625 -1.23028,10.20666 -2.29242,18.66736 -1.65625,26.53125 0.57783,3.93564 2.87754,5.49085 4.78125,7.3125 0.0433,1.06008 0.21369,4.58253 0.34375,6.53125 11.61849,1.0321 23.03001,3.13343 34.10743,6.22461 v -72.78906 z"
       id="rect5072-8-5-3"
       inkscape:connector-curvature="0" />
    <path
       style="opacity:1;fill:#1544a7;fill-opacity:1;fill-rule:nonzero;stroke:none;stroke-width:2;stroke-miterlimit:4;stroke-dasharray:none;stroke-opacity:1"
       d="m 205.37241,254.47041 -64.03906,30.59766 h 64.03906 z"
       id="rect5072-8"
       inkscape:connector-curvature="0" />
    <path
       style="opacity:1;fill:#326ce5;fill-opacity:1;fill-rule:nonzero;stroke:none;stroke-width:2;stroke-miterlimit:4;stroke-dasharray:none;stroke-opacity:1"
       d="m 436.19273,188.55439 v 78.51368 h 100.4082 v -30.57032 z"
       id="rect5072-0"
       inkscape:connector-curvature="0" />
    <path
       style="opacity:1;fill:#b8cbf6;fill-opacity:1;fill-rule:nonzero;stroke:none;stroke-width:2;stroke-miterlimit:4;stroke-dasharray:none;stroke-opacity:1"
       d="m 628.98765,286.4333 v 80.06445 h 48.56445 l -9.70117,-42.14258 a 46.724621,46.342246 0 0 0 -25.28125,-31.4375 z"
       id="rect5072-8-3-6-6"
       inkscape:connector-curvature="0" />
    <path
       style="opacity:1;fill:#82a6ef;fill-opacity:1;fill-rule:nonzero;stroke:none;stroke-width:2;stroke-miterlimit:4;stroke-dasharray:none;stroke-opacity:1"
       d="M 82.3353,368.49775 59.938816,465.92744 H 130.96226 V 368.49775 Z"
       id="rect5072-15"
       inkscape:connector-curvature="0" />
    <path
       style="opacity:1;fill:#1544a7;fill-opacity:1;stroke:none;stroke-width:2;stroke-miterlimit:4;stroke-dasharray:none;stroke-opacity:1"
       d="m 418.19273,774.21842 v 97.34375 l 85.4082,-0.0195 a 46.724621,46.342246 0 0 0 15,-2.49023 v -94.83398 h -29.66992 c -1.32891,2.7934 -3.48944,5.11678 -6.37696,6.50781 -6.71828,3.23644 -14.93623,0.3203 -19.22461,-6.50781 z"
       id="path3055-56"
       inkscape:connector-curvature="0" />
    <rect
       style="opacity:1;fill:#326ce5;fill-opacity:1;fill-rule:nonzero;stroke:none;stroke-width:2;stroke-miterlimit:4;stroke-dasharray:none;stroke-opacity:1"
       id="rect5072-8-5-9"
       width="100.41"
       height="97.43"
       x="323.78186"
       y="764.21802" />
    <path
       style="opacity:1;fill:#326ce5;fill-opacity:1;fill-rule:nonzero;stroke:none;stroke-width:2;stroke-miterlimit:4;stroke-dasharray:none;stroke-opacity:1"
       d="m 534.60093,766.21846 v 94.83398 a 46.724621,46.342246 0 0 0 21.53125,-14.91602 l 64.24219,-79.91796 z"
       id="rect5072-8-3-48"
       inkscape:connector-curvature="0" />
    <path
       style="opacity:1;fill:#326ce5;fill-opacity:1;stroke:none;stroke-width:2;stroke-miterlimit:4;stroke-dasharray:none;stroke-opacity:1"
       d="m 642.98765,469.92744 v 97.42969 h 93.42578 l -22.42969,-97.42969 z"
       id="path3055-5"
       inkscape:connector-curvature="0" />
    <path
       style="opacity:1;fill:#82a6ef;fill-opacity:1;stroke:none;stroke-width:2;stroke-miterlimit:4;stroke-dasharray:none;stroke-opacity:1"
       d="m 632.98765,569.35713 v 7.00781 c 4.93251,3.49617 7.5963,9.30062 6.28515,15.04883 -0.83949,3.68043 -3.16444,6.66733 -6.28515,8.61523 v 66.75977 h 63.70703 l 26.5,-32.96485 a 46.724621,46.342246 0 0 0 9.03125,-39.21875 l -5.8125,-25.24804 z"
       id="path3055-3"
       inkscape:connector-curvature="0" />
    <path
       style="opacity:1;fill:#b8cbf6;fill-opacity:1;fill-rule:nonzero;stroke:none;stroke-width:2;stroke-miterlimit:4;stroke-dasharray:none;stroke-opacity:1"
       d="m 518.94273,666.78877 c -11.29922,11.43079 -24.10329,21.48837 -38.20118,29.8125 0.69869,1.68616 1.88372,5.27148 2.4375,5.90625 -0.92472,2.46726 -2.31211,4.82843 -1.125,8.625 2.83907,7.36105 7.43154,14.55683 12.96875,23.21875 2.68105,4.00177 5.42429,7.07649 7.84375,11.65625 0.57895,1.09586 1.34736,2.77936 1.90625,3.9375 2.25674,4.82512 2.15189,10.08265 0.15821,14.27344 h 29.66992 v -97.42969 z m -67.29493,43.75 c -5.67755,2.14546 -11.49539,4.03376 -17.45507,5.65234 v 48.02735 h 45.13671 c -0.35639,-0.56748 -0.69528,-1.15308 -0.99414,-1.77344 -0.5565,-1.14514 -1.34016,-2.66805 -1.8125,-3.75 -2.07238,-4.74692 -2.79262,-8.81514 -4.25,-13.40625 -3.32035,-9.72959 -6.04586,-17.78477 -10.03125,-24.59375 -2.22831,-3.29511 -4.96316,-3.71607 -7.46875,-4.53125 -0.46387,-0.7993 -2.19402,-3.97367 -3.125,-5.625 z"
       id="rect5072-0-2-6"
       inkscape:connector-curvature="0" />
    <path
       style="opacity:1;fill:#82a6ef;fill-opacity:1;stroke:none;stroke-width:2;stroke-miterlimit:4;stroke-dasharray:none;stroke-opacity:1"
       d="m 211.37241,756.21846 v 94.88281 a 46.724621,46.342246 0 0 0 15.00977,2.5039 l 85.40039,-0.0195 v -97.36718 h -44.91602 c -4.23989,7.00826 -12.57441,10.03175 -19.375,6.75781 -2.97336,-1.43144 -5.17396,-3.85307 -6.49023,-6.75781 z"
       id="path3055-9"
       inkscape:connector-curvature="0" />
    <path
       style="opacity:1;fill:#1544a7;fill-opacity:1;fill-rule:nonzero;stroke:none;stroke-width:2;stroke-miterlimit:4;stroke-dasharray:none;stroke-opacity:1"
       d="m 65.188816,656.78877 63.773444,79.29297 v -79.29297 z"
       id="rect5072-1-4"
       inkscape:connector-curvature="0" />
    <path
       style="opacity:1;fill:#82a6ef;fill-opacity:1;stroke:none;stroke-width:2;stroke-miterlimit:4;stroke-dasharray:none;stroke-opacity:1"
       d="m 112.96226,660.78877 v 79.29297 l 14.58789,18.13672 h 85.82226 v -97.42969 z"
       id="path3055-1"
       inkscape:connector-curvature="0" />
    <path
       style="opacity:1;fill:#b8cbf6;fill-opacity:1;stroke:none;stroke-width:2;stroke-miterlimit:4;stroke-dasharray:none;stroke-opacity:1"
       d="m 39.544285,577.35713 -5.81836,25.31054 a 46.724621,46.342246 0 0 0 6.34375,35.53125 46.724621,46.342246 0 0 0 2.65625,3.6875 l 26.462891,32.90235 H 132.96226 V 608.3708 c -3.11909,-1.9483 -5.44303,-4.93422 -6.28321,-8.61328 -1.31242,-5.74701 1.35172,-11.54821 6.28321,-15.04492 v -7.35547 z"
       id="path3055-27"
       inkscape:connector-curvature="0" />
    <path
       style="opacity:1;fill:#326ce5;fill-opacity:1;stroke:none;stroke-width:2;stroke-miterlimit:4;stroke-dasharray:none;stroke-opacity:1"
       d="M 39.938816,469.92744 17.544285,567.35713 H 110.96226 V 469.92744 Z"
       id="path3055-0"
       inkscape:connector-curvature="0" />
    <path
       style="opacity:1;fill:#b8cbf6;fill-opacity:1;stroke:none;stroke-width:2;stroke-miterlimit:4;stroke-dasharray:none;stroke-opacity:1"
       d="m 380.20249,167.69306 a 46.724621,46.342246 0 0 0 -4.66406,0.006 46.724621,46.342246 0 0 0 -17.90625,4.53125 l -29.84961,14.26172 v 78.57618 h 37.52734 c 2.53011,-4.85118 7.2411,-8.1225 12.65039,-8.12305 5.40929,-5.5e-4 10.12028,3.2715 12.6504,8.12305 h 37.58203 v -78.51368 l -29.99805,-14.32422 a 46.724621,46.342246 0 0 0 -17.99219,-4.53711 z"
       id="path3055-60"
       inkscape:connector-curvature="0" />
    <path
       style="opacity:1;fill:#326ce5;fill-opacity:1;fill-rule:nonzero;stroke:none;stroke-width:2;stroke-miterlimit:4;stroke-dasharray:none;stroke-opacity:1"
       d="m 365.6478,378.38252 c -5.18409,0.6284 -10.38776,1.50547 -15.59375,2.6875 -5.57383,1.26554 -10.99824,2.83053 -16.27148,4.65625 v 74.7793 l 6.61523,4.68945 0.125,-0.0625 c 2.13081,1.55646 4.75294,2.46875 7.59375,2.46875 6.93504,0 12.58366,-5.4804 12.875,-12.34375 l 0.3125,-0.15625 z m 36.65625,0 4.34375,76.59375 0.0625,0.0312 c 0.11178,2.63636 1.04118,5.24779 2.8125,7.46875 4.32407,5.42139 12.14005,6.42669 17.6875,2.375 l 0.21875,0.0937 6.76368,-4.79492 v -74.25196 c -10.24745,-3.62267 -20.93106,-6.16794 -31.88868,-7.51562 z"
       id="rect5072-8-5-6"
       inkscape:connector-curvature="0" />
    <path
       style="opacity:1;fill:#326ce5;fill-opacity:1;fill-rule:nonzero;stroke:none;stroke-width:2;stroke-miterlimit:4;stroke-dasharray:none;stroke-opacity:1"
       d="M 368.99023 358.14258 L 354.33398 376.39258 L 359.58398 399.20508 L 380.77148 409.39258 L 401.89648 399.23633 L 407.14648 376.42383 L 392.52148 358.14258 L 368.99023 358.14258 z "
       transform="translate(-8.8111836,148.45869)"
       id="rect5072-8-5-3-2" />
    <path
       style="opacity:1;fill:#82a6ef;fill-opacity:1;fill-rule:nonzero;stroke:none;stroke-width:2;stroke-miterlimit:4;stroke-dasharray:none;stroke-opacity:1"
       d="m 484.00913,469.92744 -36.29883,32.48633 0.0312,0.15625 c -1.99153,1.73111 -3.46172,4.07413 -4.09375,6.84375 -1.54268,6.76088 2.52975,13.50146 9.15625,15.3125 l 0.0625,0.3125 73.73438,21.23633 V 514.404 c -0.64698,-5.67725 -1.61128,-11.37818 -2.92188,-17.08398 -2.19956,-9.57598 -5.25675,-18.72551 -9.06445,-27.39258 z"
       id="rect5072-0-2-5"
       inkscape:connector-curvature="0" />
    <path
       style="opacity:1;fill:#326ce5;fill-opacity:1;stroke:none;stroke-width:2;stroke-miterlimit:4;stroke-dasharray:none;stroke-opacity:1"
       d="m 518.60093,275.06807 v 97.42968 h 25.51367 c 1.54913,-1.74394 3.1699,-3.47156 5.18945,-5.20898 0.89647,-0.77123 2.25144,-1.8029 3.25,-2.59375 7.01538,-5.59633 16.77567,-5.00158 21.8125,1.3125 1.5339,1.92287 2.44195,4.15704 2.77735,6.49023 h 41.86719 v -80.05468 l -36.38868,-17.375 z"
       id="path3055-7"
       inkscape:connector-curvature="0" />
    <path
       style="opacity:1;fill:#b8cbf6;fill-opacity:1;fill-rule:nonzero;stroke:none;stroke-width:2;stroke-miterlimit:4;stroke-dasharray:none;stroke-opacity:1"
       d="m 430.19273,273.06807 v 72.78906 c 19.23633,5.36795 37.46214,13.72475 54.01757,24.64062 h 46.39063 v -97.42968 z"
       id="rect5072-0-2"
       inkscape:connector-curvature="0" />
    <path
       style="opacity:1;fill:#b8cbf6;fill-opacity:1;fill-rule:nonzero;stroke:none;stroke-width:2;stroke-miterlimit:4;stroke-dasharray:none;stroke-opacity:1"
       d="m 133.55015,770.21846 64.30078,79.94921 a 46.724621,46.342246 0 0 0 21.52148,14.9336 v -94.88281 z"
       id="rect5072-8-6"
       inkscape:connector-curvature="0" />
    <path
       style="opacity:1;fill:#b8cbf6;fill-opacity:1;stroke:none;stroke-width:2;stroke-miterlimit:4;stroke-dasharray:none;stroke-opacity:1"
       d="m 157.33335,265.06807 -36.37109,17.3789 v 80.05078 h 41.77344 c 0.36717,-2.23074 1.25331,-4.36362 2.7246,-6.20898 2.83231,-3.5524 7.16036,-5.31019 11.65625,-5.15625 3.4968,0.11973 7.11762,1.39618 10.1875,3.84375 0.99742,0.7892 2.35828,1.82668 3.25,2.59375 1.91132,1.64411 3.45713,3.27899 4.92383,4.92773 h 25.89453 v -97.42968 z"
       id="path3055-93"
       inkscape:connector-curvature="0" />
    <path
       style="opacity:1;fill:#82a6ef;fill-opacity:1;stroke:none;stroke-width:2;stroke-miterlimit:4;stroke-dasharray:none;stroke-opacity:1"
       d="m 544.60093,668.78877 v 97.42969 h 85.77344 l 14.63672,-18.20704 v -79.22265 z"
       id="path3055-2"
       inkscape:connector-curvature="0" />
  </g>
</svg>
