<svg xmlns="http://www.w3.org/2000/svg" xmlns:xlink="http://www.w3.org/1999/xlink" xmlns:lucid="lucid" width="2244" height="1324"><g transform="translate(1122 22)" lucid:page-tab-id="0_0"><path d="M-1500-500h3000v2000h-3000z" fill="#fff"/><path d="M-1120-14a6 6 0 0 1 6-6h2228a6 6 0 0 1 6 6v1308a6 6 0 0 1-6 6h-2228a6 6 0 0 1-6-6z" stroke="#3a414a" stroke-width="4" fill="#fff"/><path d="M460 206a6 6 0 0 1 6-6h288.77a6 6 0 0 1 6 6v308a6 6 0 0 1-6 6H466a6 6 0 0 1-6-6z" stroke="#3a414a" stroke-width="4" fill="#fff"/><path d="M-66.92 966a6 6 0 0 1 6-6h221.84a6 6 0 0 1 6 6v71.8a6 6 0 0 1-6 6H-60.92a6 6 0 0 1-6-6z" stroke="#3a414a" stroke-width="2" fill="#0086ff"/><use xlink:href="#a" transform="matrix(1,0,0,1,-61.92307692307692,964.9999999999999) translate(5.518518518518505 42.145833333333336)"/><use xlink:href="#b" transform="matrix(1,0,0,1,-61.92307692307692,964.9999999999999) translate(104.55555555555554 42.145833333333336)"/><path d="M-66.92 1066a6 6 0 0 1 6-6h221.84a6 6 0 0 1 6 6v71.8a6 6 0 0 1-6 6H-60.92a6 6 0 0 1-6-6z" stroke="#3a414a" stroke-width="2" fill="#0086ff"/><use xlink:href="#c" transform="matrix(1,0,0,1,-61.92307692307692,1065) translate(40.33333333333333 42.145833333333336)"/><path d="M499.23 966a6 6 0 0 1 6-6h221.85a6 6 0 0 1 6 6v71.8a6 6 0 0 1-6 6H505.23a6 6 0 0 1-6-6z" stroke="#3a414a" stroke-width="2" fill="#93eaff"/><use xlink:href="#d" transform="matrix(1,0,0,1,504.2307692307693,964.9999999999999) translate(13.740740740740733 42.145833333333336)"/><use xlink:href="#e" transform="matrix(1,0,0,1,504.2307692307693,964.9999999999999) translate(78.77777777777777 42.145833333333336)"/><path d="M499.23 1066a6 6 0 0 1 6-6h221.85a6 6 0 0 1 6 6v71.8a6 6 0 0 1-6 6H505.23a6 6 0 0 1-6-6z" stroke="#3a414a" stroke-width="2" fill="#93eaff"/><use xlink:href="#f" transform="matrix(1,0,0,1,504.2307692307693,1065) translate(24.77777777777777 42.145833333333336)"/><use xlink:href="#g" transform="matrix(1,0,0,1,504.2307692307693,1065) translate(86.85185185185185 42.145833333333336)"/><path d="M782.3 969.16a6 6 0 0 1 6-6h221.85a6 6 0 0 1 6 6v71.8a6 6 0 0 1-6 6H788.3a6 6 0 0 1-6-6z" stroke="#3a414a" stroke-width="2" fill="#93eaff"/><use xlink:href="#h" transform="matrix(1,0,0,1,787.3076923076924,968.1631479821725) translate(63.185185185185176 42.145833333333336)"/><path d="M782.3 1069.16a6 6 0 0 1 6-6h221.85a6 6 0 0 1 6 6v71.8a6 6 0 0 1-6 6H788.3a6 6 0 0 1-6-6z" stroke="#3a414a" stroke-width="2" fill="#93eaff"/><use xlink:href="#i" transform="matrix(1,0,0,1,787.3076923076924,1068.1631479821726) translate(75.07407407407408 42.145833333333336)"/><path d="M216.15 966a6 6 0 0 1 6-6H444a6 6 0 0 1 6 6v71.8a6 6 0 0 1-6 6H222.15a6 6 0 0 1-6-6z" stroke="#3a414a" stroke-width="2" fill="#93eaff"/><use xlink:href="#j" transform="matrix(1,0,0,1,221.1538461538462,964.9999999999999) translate(69.07407407407408 25.958333333333336)"/><use xlink:href="#k" transform="matrix(1,0,0,1,221.1538461538462,964.9999999999999) translate(30.703703703703695 57.958333333333336)"/><path d="M216.15 1066a6 6 0 0 1 6-6H444a6 6 0 0 1 6 6v71.8a6 6 0 0 1-6 6H222.15a6 6 0 0 1-6-6z" stroke="#3a414a" stroke-width="2" fill="#0086ff"/><use xlink:href="#l" transform="matrix(1,0,0,1,221.1538461538462,1065) translate(62.48148148148147 42.145833333333336)"/><path d="M-350 966a6 6 0 0 1 6-6h221.85a6 6 0 0 1 6 6v71.8a6 6 0 0 1-6 6H-344a6 6 0 0 1-6-6z" stroke="#3a414a" stroke-width="2" fill="#0086ff"/><use xlink:href="#m" transform="matrix(1,0,0,1,-345,964.9999999999999) translate(16.666666666666657 42.145833333333336)"/><use xlink:href="#n" transform="matrix(1,0,0,1,-345,964.9999999999999) translate(99.33333333333334 42.145833333333336)"/><path d="M-350 1066a6 6 0 0 1 6-6h221.85a6 6 0 0 1 6 6v71.8a6 6 0 0 1-6 6H-344a6 6 0 0 1-6-6z" stroke="#3a414a" stroke-width="2" fill="#0086ff"/><use xlink:href="#o" transform="matrix(1,0,0,1,-345,1065) translate(78.77777777777777 42.145833333333336)"/><path d="M-633.08 966a6 6 0 0 1 6-6h221.85a6 6 0 0 1 6 6v71.8a6 6 0 0 1-6 6h-221.85a6 6 0 0 1-6-6z" stroke="#3a414a" stroke-width="2" fill="#0086ff"/><use xlink:href="#p" transform="matrix(1,0,0,1,-628.0769230769231,964.9999999999999) translate(35.925925925925924 42.145833333333336)"/><path d="M-633.08 1066a6 6 0 0 1 6-6h221.85a6 6 0 0 1 6 6v71.8a6 6 0 0 1-6 6h-221.85a6 6 0 0 1-6-6z" stroke="#3a414a" stroke-width="2" fill="#0086ff"/><use xlink:href="#q" transform="matrix(1,0,0,1,-628.0769230769231,1065) translate(59.51851851851852 42.145833333333336)"/><path d="M-916.15 966a6 6 0 0 1 6-6h221.84a6 6 0 0 1 6 6v71.8a6 6 0 0 1-6 6h-221.85a6 6 0 0 1-6-6z" stroke="#3a414a" stroke-width="2" fill="#0086ff"/><use xlink:href="#r" transform="matrix(1,0,0,1,-911.1538461538462,964.9999999999999) translate(78.77777777777777 42.145833333333336)"/><path d="M-916.15 1066a6 6 0 0 1 6-6h221.84a6 6 0 0 1 6 6v71.8a6 6 0 0 1-6 6h-221.85a6 6 0 0 1-6-6z" stroke="#3a414a" stroke-width="2" fill="#0086ff"/><use xlink:href="#s" transform="matrix(1,0,0,1,-911.1538461538462,1065) translate(84.66666666666666 42.145833333333336)"/><path d="M-350 366a6 6 0 0 1 6-6h221.85a6 6 0 0 1 6 6v71.8a6 6 0 0 1-6 6H-344a6 6 0 0 1-6-6z" stroke="#3a414a" stroke-width="2" fill="#0086ff"/><use xlink:href="#t" transform="matrix(1,0,0,1,-345,364.99999999999994) translate(79.48148148148148 42.145833333333336)"/><path d="M-350 466a6 6 0 0 1 6-6h221.85a6 6 0 0 1 6 6v71.8a6 6 0 0 1-6 6H-344a6 6 0 0 1-6-6z" stroke="#3a414a" stroke-width="2" fill="#0086ff"/><use xlink:href="#u" transform="matrix(1,0,0,1,-345,464.99999999999994) translate(54.37037037037037 42.145833333333336)"/><path d="M-633.08 366a6 6 0 0 1 6-6h221.85a6 6 0 0 1 6 6v71.8a6 6 0 0 1-6 6h-221.85a6 6 0 0 1-6-6z" stroke="#3a414a" stroke-width="2" fill="#0086ff"/><use xlink:href="#v" transform="matrix(1,0,0,1,-628.0769230769231,364.99999999999994) translate(38.96296296296295 25.958333333333336)"/><use xlink:href="#w" transform="matrix(1,0,0,1,-628.0769230769231,364.99999999999994) translate(40.96296296296296 57.958333333333336)"/><path d="M-633.08 466a6 6 0 0 1 6-6h221.85a6 6 0 0 1 6 6v71.8a6 6 0 0 1-6 6h-221.85a6 6 0 0 1-6-6z" stroke="#3a414a" stroke-width="2" fill="#0086ff"/><use xlink:href="#x" transform="matrix(1,0,0,1,-628.0769230769231,464.99999999999994) translate(65.74074074074073 42.145833333333336)"/><path d="M-916.15 366a6 6 0 0 1 6-6h221.84a6 6 0 0 1 6 6v71.8a6 6 0 0 1-6 6h-221.85a6 6 0 0 1-6-6z" stroke="#3a414a" stroke-width="2" fill="#0086ff"/><use xlink:href="#y" transform="matrix(1,0,0,1,-911.1538461538462,364.99999999999994) translate(33.66666666666667 42.145833333333336)"/><path d="M-916.15 466a6 6 0 0 1 6-6h221.84a6 6 0 0 1 6 6v71.8a6 6 0 0 1-6 6h-221.85a6 6 0 0 1-6-6z" stroke="#3a414a" stroke-width="2" fill="#0086ff"/><use xlink:href="#z" transform="matrix(1,0,0,1,-911.1538461538462,464.99999999999994) translate(61.66666666666667 42.145833333333336)"/><path d="M-66.92 466a6 6 0 0 1 6-6h221.84a6 6 0 0 1 6 6v71.8a6 6 0 0 1-6 6H-60.92a6 6 0 0 1-6-6z" stroke="#3a414a" stroke-width="2" fill="#93eaff"/><use xlink:href="#A" transform="matrix(1,0,0,1,-61.92307692307685,465) translate(47 25.958333333333336)"/><use xlink:href="#B" transform="matrix(1,0,0,1,-61.92307692307685,465) translate(119.2962962962963 25.958333333333336)"/><use xlink:href="#C" transform="matrix(1,0,0,1,-61.92307692307685,465) translate(25.92592592592591 57.958333333333336)"/><use xlink:href="#D" transform="matrix(1,0,0,1,-61.92307692307685,465) translate(132.22222222222223 57.958333333333336)"/><path d="M-350 666a6 6 0 0 1 6-6h221.85a6 6 0 0 1 6 6v71.8a6 6 0 0 1-6 6H-344a6 6 0 0 1-6-6z" stroke="#3a414a" stroke-width="2" fill="#0086ff"/><use xlink:href="#E" transform="matrix(1,0,0,1,-345,665) translate(90.59259259259258 42.145833333333336)"/><path d="M-350 766a6 6 0 0 1 6-6h221.85a6 6 0 0 1 6 6v71.8a6 6 0 0 1-6 6H-344a6 6 0 0 1-6-6z" stroke="#3a414a" stroke-width="2" fill="#0086ff"/><use xlink:href="#F" transform="matrix(1,0,0,1,-345,765) translate(98.7037037037037 42.145833333333336)"/><path d="M-633.08 666a6 6 0 0 1 6-6h221.85a6 6 0 0 1 6 6v71.8a6 6 0 0 1-6 6h-221.85a6 6 0 0 1-6-6z" stroke="#3a414a" stroke-width="2" fill="#0086ff"/><use xlink:href="#G" transform="matrix(1,0,0,1,-628.0769230769231,665) translate(81.77777777777777 42.145833333333336)"/><path d="M-633.08 766a6 6 0 0 1 6-6h221.85a6 6 0 0 1 6 6v71.8a6 6 0 0 1-6 6h-221.85a6 6 0 0 1-6-6z" stroke="#3a414a" stroke-width="2" fill="#0086ff"/><use xlink:href="#H" transform="matrix(1,0,0,1,-628.0769230769231,765) translate(46.14814814814814 42.145833333333336)"/><path d="M-916.15 666a6 6 0 0 1 6-6h221.84a6 6 0 0 1 6 6v71.8a6 6 0 0 1-6 6h-221.85a6 6 0 0 1-6-6z" stroke="#3a414a" stroke-width="2" fill="#0086ff"/><use xlink:href="#I" transform="matrix(1,0,0,1,-911.1538461538462,665) translate(19.59259259259258 42.145833333333336)"/><path d="M-916.15 766a6 6 0 0 1 6-6h221.84a6 6 0 0 1 6 6v71.8a6 6 0 0 1-6 6h-221.85a6 6 0 0 1-6-6z" stroke="#3a414a" stroke-width="2" fill="#0086ff"/><use xlink:href="#J" transform="matrix(1,0,0,1,-911.1538461538462,765) translate(37.37037037037035 42.145833333333336)"/><path d="M-66.92 666a6 6 0 0 1 6-6h221.84a6 6 0 0 1 6 6v71.8a6 6 0 0 1-6 6H-60.92a6 6 0 0 1-6-6z" stroke="#3a414a" stroke-width="2" fill="#0086ff"/><use xlink:href="#K" transform="matrix(1,0,0,1,-61.92307692307686,665) translate(11.555555555555543 42.145833333333336)"/><path d="M-66.92 766a6 6 0 0 1 6-6h221.84a6 6 0 0 1 6 6v71.8a6 6 0 0 1-6 6H-60.92a6 6 0 0 1-6-6z" stroke="#3a414a" stroke-width="2" fill="#0086ff"/><use xlink:href="#L" transform="matrix(1,0,0,1,-61.92307692307686,765) translate(59.48148148148148 42.145833333333336)"/><path d="M216.15 766a6 6 0 0 1 6-6H444a6 6 0 0 1 6 6v71.8a6 6 0 0 1-6 6H222.15a6 6 0 0 1-6-6z" stroke="#3a414a" stroke-width="2" fill="#0086ff"/><use xlink:href="#M" transform="matrix(1,0,0,1,221.15384615384625,765) translate(53.74074074074072 42.145833333333336)"/><path d="M499.23 766a6 6 0 0 1 6-6h221.85a6 6 0 0 1 6 6v71.8a6 6 0 0 1-6 6H505.23a6 6 0 0 1-6-6z" stroke="#3a414a" stroke-width="2" fill="#93eaff"/><use xlink:href="#N" transform="matrix(1,0,0,1,504.2307692307693,765) translate(72.77777777777777 42.145833333333336)"/><path d="M-1054 560a6 6 0 0 1-6-6V326a6 6 0 0 1 6-6h48a6 6 0 0 1 6 6v228a6 6 0 0 1-6 6z" fill="none"/><use xlink:href="#O" transform="matrix(6.123233995736766e-17,-1,1,6.123233995736766e-17,-1060,560) translate(59.85185185185185 37.111111111111114)"/><path d="M-1054 860a6 6 0 0 1-6-6V626a6 6 0 0 1 6-6h48a6 6 0 0 1 6 6v228a6 6 0 0 1-6 6z" fill="none"/><use xlink:href="#P" transform="matrix(6.123233995736766e-17,-1,1,6.123233995736766e-17,-1060,860) translate(33.333333333333314 37.111111111111114)"/><path d="M-1054 1160a6 6 0 0 1-6-6V926a6 6 0 0 1 6-6h48a6 6 0 0 1 6 6v228a6 6 0 0 1-6 6z" fill="none"/><use xlink:href="#Q" transform="matrix(6.123233995736766e-17,-1,1,6.123233995736766e-17,-1060,1160) translate(56.8395061728395 37.111111111111114)"/><path d="M-1060 46a6 6 0 0 1 6-6H394a6 6 0 0 1 6 6v48a6 6 0 0 1-6 6h-1448a6 6 0 0 1-6-6z" fill="none"/><use xlink:href="#R" transform="matrix(1,0,0,1,-1060,40) translate(0 67.55555555555556)"/><use xlink:href="#S" transform="matrix(1,0,0,1,-1060,40) translate(486.72839506172835 67.55555555555556)"/><use xlink:href="#T" transform="matrix(1,0,0,1,-1060,40) translate(973.4567901234568 67.55555555555556)"/><path d="M490.4 306a6 6 0 0 1 6-6H718.2a6 6 0 0 1 6 6v71.8a6 6 0 0 1-6 6H496.38a6 6 0 0 1-6-6z" stroke="#3a414a" stroke-width="2" fill="#0086ff"/><g><use xlink:href="#U" transform="matrix(1,0,0,1,495.38461538461536,304.99999999999994) translate(89.03703703703704 42.145833333333336)"/></g><path d="M490.4 406a6 6 0 0 1 6-6H718.2a6 6 0 0 1 6 6v71.8a6 6 0 0 1-6 6H496.38a6 6 0 0 1-6-6z" stroke="#3a414a" stroke-width="2" fill="#93eaff"/><g><use xlink:href="#V" transform="matrix(1,0,0,1,495.38461538461536,404.99999999999994) translate(15.481481481481467 42.145833333333336)"/><use xlink:href="#W" transform="matrix(1,0,0,1,495.38461538461536,404.99999999999994) translate(128.74074074074076 42.145833333333336)"/></g><path d="M490.4 229.8a6 6 0 0 1 6-6h228a6 6 0 0 1 6 6v48a6 6 0 0 1-6 6h-228a6 6 0 0 1-6-6z" fill="none"/><g><use xlink:href="#X" transform="matrix(1,0,0,1,490.38461538461536,223.7954492379386) translate(91.52469135802468 36.22222222222222)"/></g><path d="M-1068 591h2186M-1068 882h2186" stroke="#3a414a" stroke-width="4" stroke-linecap="round" fill="none"/><defs><path fill="#fff" d="M67-125c0 53 21 87 73 88 37 1 54-22 65-47l45 17C233-25 199 4 140 4 58 4 20-42 15-125 8-235 124-281 211-232c18 10 29 29 36 50l-46 12c-8-25-30-41-62-41-52 0-71 34-72 86" id="Y"/><path fill="#fff" d="M25 0v-261h50V0H25" id="Z"/><path fill="#fff" d="M85 4C-2 5 27-109 22-190h50c7 57-23 150 33 157 60-5 35-97 40-157h50l1 190h-47c-2-12 1-28-3-38-12 25-28 42-61 42" id="aa"/><path fill="#fff" d="M137-138c1-29-70-34-71-4 15 46 118 7 119 86 1 83-164 76-172 9l43-7c4 19 20 25 44 25 33 8 57-30 24-41C81-84 22-81 20-136c-2-80 154-74 161-7" id="ab"/><path fill="#fff" d="M115-3C79 11 28 4 28-45v-112H4v-33h27l15-45h31v45h36v33H77v99c-1 23 16 31 38 25v30" id="ac"/><path fill="#fff" d="M185-48c-13 30-37 53-82 52C43 2 14-33 14-96s30-98 90-98c62 0 83 45 84 108H66c0 31 8 55 39 56 18 0 30-7 34-22zm-45-69c5-46-57-63-70-21-2 6-4 13-4 21h74" id="ad"/><path fill="#fff" d="M135-150c-39-12-60 13-60 57V0H25l-1-190h47c2 13-1 29 3 40 6-28 27-53 61-41v41" id="ae"/><g id="a"><use transform="matrix(0.07407407407407408,0,0,0.07407407407407408,0,0)" xlink:href="#Y"/><use transform="matrix(0.07407407407407408,0,0,0.07407407407407408,19.185185185185187,0)" xlink:href="#Z"/><use transform="matrix(0.07407407407407408,0,0,0.07407407407407408,26.592592592592595,0)" xlink:href="#aa"/><use transform="matrix(0.07407407407407408,0,0,0.07407407407407408,42.814814814814824,0)" xlink:href="#ab"/><use transform="matrix(0.07407407407407408,0,0,0.07407407407407408,57.62962962962964,0)" xlink:href="#ac"/><use transform="matrix(0.07407407407407408,0,0,0.07407407407407408,66.44444444444446,0)" xlink:href="#ad"/><use transform="matrix(0.07407407407407408,0,0,0.07407407407407408,81.25925925925927,0)" xlink:href="#ae"/></g><path fill="#fff" d="M24 0v-248h52v208h133V0H24" id="af"/><path fill="#fff" d="M25-224v-37h50v37H25zM25 0v-190h50V0H25" id="ag"/><path fill="#fff" d="M121-226c-27-7-43 5-38 36h38v33H83V0H34v-157H6v-33h28c-9-59 32-81 87-68v32" id="ah"/><path fill="#fff" d="M190-63c-7 42-38 67-86 67-59 0-84-38-90-98-12-110 154-137 174-36l-49 2c-2-19-15-32-35-32-30 0-35 28-38 64-6 74 65 87 74 30" id="ai"/><path fill="#fff" d="M123 10C108 53 80 86 19 72V37c35 8 53-11 59-39L3-190h52l48 148c12-52 28-100 44-148h51" id="aj"/><g id="b"><use transform="matrix(0.07407407407407408,0,0,0.07407407407407408,0,0)" xlink:href="#af"/><use transform="matrix(0.07407407407407408,0,0,0.07407407407407408,16.222222222222225,0)" xlink:href="#ag"/><use transform="matrix(0.07407407407407408,0,0,0.07407407407407408,23.629629629629633,0)" xlink:href="#ah"/><use transform="matrix(0.07407407407407408,0,0,0.07407407407407408,32.44444444444445,0)" xlink:href="#ad"/><use transform="matrix(0.07407407407407408,0,0,0.07407407407407408,47.25925925925927,0)" xlink:href="#ai"/><use transform="matrix(0.07407407407407408,0,0,0.07407407407407408,62.07407407407408,0)" xlink:href="#aj"/><use transform="matrix(0.07407407407407408,0,0,0.07407407407407408,76.8888888888889,0)" xlink:href="#ai"/><use transform="matrix(0.07407407407407408,0,0,0.07407407407407408,91.70370370370371,0)" xlink:href="#Z"/><use transform="matrix(0.07407407407407408,0,0,0.07407407407407408,99.11111111111113,0)" xlink:href="#ad"/></g><path fill="#fff" d="M169-182c-1-43-94-46-97-3 18 66 151 10 154 114 3 95-165 93-204 36-6-8-10-19-12-30l50-8c3 46 112 56 116 5-17-69-150-10-154-114-4-87 153-88 188-35 5 8 8 18 10 28" id="ak"/><path fill="#fff" d="M114-157C55-157 80-60 75 0H25v-261h50l-1 109c12-26 28-41 61-42 86-1 58 113 63 194h-50c-7-57 23-157-34-157" id="al"/><path fill="#fff" d="M88-194c31-1 46 15 58 34l-1-101h50l1 261h-48c-2-10 0-23-3-31C134-8 116 4 84 4 32 4 16-41 15-95c0-56 19-97 73-99zm17 164c33 0 40-30 41-66 1-37-9-64-41-64s-38 30-39 65c0 43 13 65 39 65" id="am"/><path fill="#fff" d="M135-194c87-1 58 113 63 194h-50c-7-57 23-157-34-157-59 0-34 97-39 157H25l-1-190h47c2 12-1 28 3 38 12-26 28-41 61-42" id="an"/><path fill="#fff" d="M195-6C206 82 75 100 31 46c-4-6-6-13-8-21l49-6c3 16 16 24 34 25 40 0 42-37 40-79-11 22-30 35-61 35-53 0-70-43-70-97 0-56 18-96 73-97 30 0 46 14 59 34l2-30h47zm-90-29c32 0 41-27 41-63 0-35-9-62-40-62-32 0-39 29-40 63 0 36 9 62 39 62" id="ao"/><g id="c"><use transform="matrix(0.07407407407407408,0,0,0.07407407407407408,0,0)" xlink:href="#ak"/><use transform="matrix(0.07407407407407408,0,0,0.07407407407407408,17.77777777777778,0)" xlink:href="#ai"/><use transform="matrix(0.07407407407407408,0,0,0.07407407407407408,32.592592592592595,0)" xlink:href="#al"/><use transform="matrix(0.07407407407407408,0,0,0.07407407407407408,48.814814814814824,0)" xlink:href="#ad"/><use transform="matrix(0.07407407407407408,0,0,0.07407407407407408,63.62962962962964,0)" xlink:href="#am"/><use transform="matrix(0.07407407407407408,0,0,0.07407407407407408,79.85185185185186,0)" xlink:href="#aa"/><use transform="matrix(0.07407407407407408,0,0,0.07407407407407408,96.07407407407409,0)" xlink:href="#Z"/><use transform="matrix(0.07407407407407408,0,0,0.07407407407407408,103.4814814814815,0)" xlink:href="#ag"/><use transform="matrix(0.07407407407407408,0,0,0.07407407407407408,110.8888888888889,0)" xlink:href="#an"/><use transform="matrix(0.07407407407407408,0,0,0.07407407407407408,127.11111111111113,0)" xlink:href="#ao"/></g><path d="M24-248c120-7 223 5 221 122C244-46 201 0 124 0H24v-248zM76-40c74 7 117-18 117-86 0-67-45-88-117-82v168" id="ap"/><path d="M133-34C117-15 103 5 69 4 32 3 11-16 11-54c-1-60 55-63 116-61 1-26-3-47-28-47-18 1-26 9-28 27l-52-2c7-38 36-58 82-57s74 22 75 68l1 82c-1 14 12 18 25 15v27c-30 8-71 5-69-32zm-48 3c29 0 43-24 42-57-32 0-66-3-65 30 0 17 8 27 23 27" id="aq"/><path d="M115-3C79 11 28 4 28-45v-112H4v-33h27l15-45h31v45h36v33H77v99c-1 23 16 31 38 25v30" id="ar"/><g id="d"><use transform="matrix(0.07407407407407408,0,0,0.07407407407407408,0,0)" xlink:href="#ap"/><use transform="matrix(0.07407407407407408,0,0,0.07407407407407408,19.185185185185187,0)" xlink:href="#aq"/><use transform="matrix(0.07407407407407408,0,0,0.07407407407407408,34,0)" xlink:href="#ar"/><use transform="matrix(0.07407407407407408,0,0,0.07407407407407408,42.814814814814824,0)" xlink:href="#aq"/></g><path d="M24-248c93 1 206-16 204 79-1 75-69 88-152 82V0H24v-248zm52 121c47 0 100 7 100-41 0-47-54-39-100-39v80" id="as"/><path d="M135-150c-39-12-60 13-60 57V0H25l-1-190h47c2 13-1 29 3 40 6-28 27-53 61-41v41" id="at"/><path d="M110-194c64 0 96 36 96 99 0 64-35 99-97 99-61 0-95-36-95-99 0-62 34-99 96-99zm-1 164c35 0 45-28 45-65 0-40-10-65-43-65-34 0-45 26-45 65 0 36 10 65 43 65" id="au"/><path d="M185-48c-13 30-37 53-82 52C43 2 14-33 14-96s30-98 90-98c62 0 83 45 84 108H66c0 31 8 55 39 56 18 0 30-7 34-22zm-45-69c5-46-57-63-70-21-2 6-4 13-4 21h74" id="av"/><path d="M190-63c-7 42-38 67-86 67-59 0-84-38-90-98-12-110 154-137 174-36l-49 2c-2-19-15-32-35-32-30 0-35 28-38 64-6 74 65 87 74 30" id="aw"/><path d="M25-224v-37h50v37H25zM25 0v-190h50V0H25" id="ax"/><path d="M135-194c87-1 58 113 63 194h-50c-7-57 23-157-34-157-59 0-34 97-39 157H25l-1-190h47c2 12-1 28 3 38 12-26 28-41 61-42" id="ay"/><g id="e"><use transform="matrix(0.07407407407407408,0,0,0.07407407407407408,0,0)" xlink:href="#as"/><use transform="matrix(0.07407407407407408,0,0,0.07407407407407408,17.77777777777778,0)" xlink:href="#at"/><use transform="matrix(0.07407407407407408,0,0,0.07407407407407408,28.148148148148152,0)" xlink:href="#au"/><use transform="matrix(0.07407407407407408,0,0,0.07407407407407408,44.37037037037039,0)" xlink:href="#ar"/><use transform="matrix(0.07407407407407408,0,0,0.07407407407407408,53.1851851851852,0)" xlink:href="#av"/><use transform="matrix(0.07407407407407408,0,0,0.07407407407407408,68.00000000000001,0)" xlink:href="#aw"/><use transform="matrix(0.07407407407407408,0,0,0.07407407407407408,82.81481481481484,0)" xlink:href="#ar"/><use transform="matrix(0.07407407407407408,0,0,0.07407407407407408,91.62962962962965,0)" xlink:href="#ax"/><use transform="matrix(0.07407407407407408,0,0,0.07407407407407408,99.03703703703705,0)" xlink:href="#au"/><use transform="matrix(0.07407407407407408,0,0,0.07407407407407408,115.25925925925928,0)" xlink:href="#ay"/></g><path d="M88-194c31-1 46 15 58 34l-1-101h50l1 261h-48c-2-10 0-23-3-31C134-8 116 4 84 4 32 4 16-41 15-95c0-56 19-97 73-99zm17 164c33 0 40-30 41-66 1-37-9-64-41-64s-38 30-39 65c0 43 13 65 39 65" id="az"/><g id="f"><use transform="matrix(0.07407407407407408,0,0,0.07407407407407408,0,0)" xlink:href="#av"/><use transform="matrix(0.07407407407407408,0,0,0.07407407407407408,14.814814814814817,0)" xlink:href="#ar"/><use transform="matrix(0.07407407407407408,0,0,0.07407407407407408,23.629629629629633,0)" xlink:href="#aw"/><use transform="matrix(0.07407407407407408,0,0,0.07407407407407408,38.44444444444445,0)" xlink:href="#az"/></g><path d="M140-251c80 0 125 45 125 126S219 4 139 4C58 4 15-44 15-125s44-126 125-126zm-1 214c52 0 73-35 73-88 0-50-21-86-72-86-52 0-73 35-73 86s22 88 72 88" id="aA"/><path d="M135-194c53 0 70 44 70 98 0 56-19 98-73 100-31 1-45-17-59-34 3 33 2 69 2 105H25l-1-265h48c2 10 0 23 3 31 11-24 29-35 60-35zM114-30c33 0 39-31 40-66 0-38-9-64-40-64-56 0-55 130 0 130" id="aB"/><g id="g"><use transform="matrix(0.07407407407407408,0,0,0.07407407407407408,0,0)" xlink:href="#aA"/><use transform="matrix(0.07407407407407408,0,0,0.07407407407407408,20.740740740740744,0)" xlink:href="#aB"/><use transform="matrix(0.07407407407407408,0,0,0.07407407407407408,36.96296296296297,0)" xlink:href="#av"/><use transform="matrix(0.07407407407407408,0,0,0.07407407407407408,51.777777777777786,0)" xlink:href="#at"/><use transform="matrix(0.07407407407407408,0,0,0.07407407407407408,62.14814814814816,0)" xlink:href="#aq"/><use transform="matrix(0.07407407407407408,0,0,0.07407407407407408,76.96296296296298,0)" xlink:href="#ar"/><use transform="matrix(0.07407407407407408,0,0,0.07407407407407408,85.7777777777778,0)" xlink:href="#au"/><use transform="matrix(0.07407407407407408,0,0,0.07407407407407408,102.00000000000003,0)" xlink:href="#at"/></g><path d="M169-182c-1-43-94-46-97-3 18 66 151 10 154 114 3 95-165 93-204 36-6-8-10-19-12-30l50-8c3 46 112 56 116 5-17-69-150-10-154-114-4-87 153-88 188-35 5 8 8 18 10 28" id="aC"/><path d="M128 0H69L1-190h53L99-40l48-150h52" id="aD"/><path d="M195-6C206 82 75 100 31 46c-4-6-6-13-8-21l49-6c3 16 16 24 34 25 40 0 42-37 40-79-11 22-30 35-61 35-53 0-70-43-70-97 0-56 18-96 73-97 30 0 46 14 59 34l2-30h47zm-90-29c32 0 41-27 41-63 0-35-9-62-40-62-32 0-39 29-40 63 0 36 9 62 39 62" id="aE"/><g id="h"><use transform="matrix(0.07407407407407408,0,0,0.07407407407407408,0,0)" xlink:href="#aC"/><use transform="matrix(0.07407407407407408,0,0,0.07407407407407408,17.77777777777778,0)" xlink:href="#av"/><use transform="matrix(0.07407407407407408,0,0,0.07407407407407408,32.592592592592595,0)" xlink:href="#at"/><use transform="matrix(0.07407407407407408,0,0,0.07407407407407408,42.96296296296297,0)" xlink:href="#aD"/><use transform="matrix(0.07407407407407408,0,0,0.07407407407407408,57.777777777777786,0)" xlink:href="#ax"/><use transform="matrix(0.07407407407407408,0,0,0.07407407407407408,65.18518518518519,0)" xlink:href="#ay"/><use transform="matrix(0.07407407407407408,0,0,0.07407407407407408,81.40740740740742,0)" xlink:href="#aE"/></g><path d="M182-130c37 4 62 22 62 59C244 23 116-4 24 0v-248c84 5 203-23 205 63 0 31-19 50-47 55zM76-148c40-3 101 13 101-30 0-44-60-28-101-31v61zm0 110c48-3 116 14 116-37 0-48-69-32-116-35v72" id="aF"/><path d="M114-157C55-157 80-60 75 0H25v-261h50l-1 109c12-26 28-41 61-42 86-1 58 113 63 194h-50c-7-57 23-157-34-157" id="aG"/><g id="i"><use transform="matrix(0.07407407407407408,0,0,0.07407407407407408,0,0)" xlink:href="#aF"/><use transform="matrix(0.07407407407407408,0,0,0.07407407407407408,19.185185185185187,0)" xlink:href="#aq"/><use transform="matrix(0.07407407407407408,0,0,0.07407407407407408,34,0)" xlink:href="#ar"/><use transform="matrix(0.07407407407407408,0,0,0.07407407407407408,42.814814814814824,0)" xlink:href="#aw"/><use transform="matrix(0.07407407407407408,0,0,0.07407407407407408,57.62962962962964,0)" xlink:href="#aG"/></g><g id="j"><use transform="matrix(0.07407407407407408,0,0,0.07407407407407408,0,0)" xlink:href="#ap"/><use transform="matrix(0.07407407407407408,0,0,0.07407407407407408,19.185185185185187,0)" xlink:href="#av"/><use transform="matrix(0.07407407407407408,0,0,0.07407407407407408,34,0)" xlink:href="#aD"/><use transform="matrix(0.07407407407407408,0,0,0.07407407407407408,48.81481481481481,0)" xlink:href="#ax"/><use transform="matrix(0.07407407407407408,0,0,0.07407407407407408,56.22222222222223,0)" xlink:href="#aw"/><use transform="matrix(0.07407407407407408,0,0,0.07407407407407408,71.03703703703704,0)" xlink:href="#av"/></g><path d="M230 0l2-204L168 0h-37L68-204 70 0H24v-248h70l56 185 57-185h69V0h-46" id="aH"/><path d="M220-157c-53 9-28 100-34 157h-49v-107c1-27-5-49-29-50C55-147 81-57 75 0H25l-1-190h47c2 12-1 28 3 38 10-53 101-56 108 0 13-22 24-43 59-42 82 1 51 116 57 194h-49v-107c-1-25-5-48-29-50" id="aI"/><g id="k"><use transform="matrix(0.07407407407407408,0,0,0.07407407407407408,0,0)" xlink:href="#aH"/><use transform="matrix(0.07407407407407408,0,0,0.07407407407407408,22.148148148148152,0)" xlink:href="#aq"/><use transform="matrix(0.07407407407407408,0,0,0.07407407407407408,36.96296296296297,0)" xlink:href="#ay"/><use transform="matrix(0.07407407407407408,0,0,0.07407407407407408,53.18518518518519,0)" xlink:href="#aq"/><use transform="matrix(0.07407407407407408,0,0,0.07407407407407408,68,0)" xlink:href="#aE"/><use transform="matrix(0.07407407407407408,0,0,0.07407407407407408,84.22222222222223,0)" xlink:href="#av"/><use transform="matrix(0.07407407407407408,0,0,0.07407407407407408,99.03703703703704,0)" xlink:href="#aI"/><use transform="matrix(0.07407407407407408,0,0,0.07407407407407408,122.74074074074073,0)" xlink:href="#av"/><use transform="matrix(0.07407407407407408,0,0,0.07407407407407408,137.55555555555557,0)" xlink:href="#ay"/><use transform="matrix(0.07407407407407408,0,0,0.07407407407407408,153.7777777777778,0)" xlink:href="#ar"/></g><path fill="#fff" d="M110-194c64 0 96 36 96 99 0 64-35 99-97 99-61 0-95-36-95-99 0-62 34-99 96-99zm-1 164c35 0 45-28 45-65 0-40-10-65-43-65-34 0-45 26-45 65 0 36 10 65 43 65" id="aJ"/><path fill="#fff" d="M133-34C117-15 103 5 69 4 32 3 11-16 11-54c-1-60 55-63 116-61 1-26-3-47-28-47-18 1-26 9-28 27l-52-2c7-38 36-58 82-57s74 22 75 68l1 82c-1 14 12 18 25 15v27c-30 8-71 5-69-32zm-48 3c29 0 43-24 42-57-32 0-66-3-65 30 0 17 8 27 23 27" id="aK"/><g id="l"><use transform="matrix(0.07407407407407408,0,0,0.07407407407407408,0,0)" xlink:href="#ak"/><use transform="matrix(0.07407407407407408,0,0,0.07407407407407408,17.77777777777778,0)" xlink:href="#ac"/><use transform="matrix(0.07407407407407408,0,0,0.07407407407407408,26.592592592592595,0)" xlink:href="#aJ"/><use transform="matrix(0.07407407407407408,0,0,0.07407407407407408,42.814814814814824,0)" xlink:href="#ae"/><use transform="matrix(0.07407407407407408,0,0,0.07407407407407408,53.1851851851852,0)" xlink:href="#aK"/><use transform="matrix(0.07407407407407408,0,0,0.07407407407407408,68.00000000000001,0)" xlink:href="#ao"/><use transform="matrix(0.07407407407407408,0,0,0.07407407407407408,84.22222222222226,0)" xlink:href="#ad"/></g><g id="m"><use transform="matrix(0.07407407407407408,0,0,0.07407407407407408,0,0)" xlink:href="#Y"/><use transform="matrix(0.07407407407407408,0,0,0.07407407407407408,19.185185185185187,0)" xlink:href="#Z"/><use transform="matrix(0.07407407407407408,0,0,0.07407407407407408,26.592592592592595,0)" xlink:href="#aJ"/><use transform="matrix(0.07407407407407408,0,0,0.07407407407407408,42.814814814814824,0)" xlink:href="#aa"/><use transform="matrix(0.07407407407407408,0,0,0.07407407407407408,59.03703703703705,0)" xlink:href="#am"/></g><path fill="#fff" d="M24-248c93 1 206-16 204 79-1 75-69 88-152 82V0H24v-248zm52 121c47 0 100 7 100-41 0-47-54-39-100-39v80" id="aL"/><path fill="#fff" d="M128 0H69L1-190h53L99-40l48-150h52" id="aM"/><g id="n"><use transform="matrix(0.07407407407407408,0,0,0.07407407407407408,0,0)" xlink:href="#aL"/><use transform="matrix(0.07407407407407408,0,0,0.07407407407407408,17.77777777777778,0)" xlink:href="#ae"/><use transform="matrix(0.07407407407407408,0,0,0.07407407407407408,28.148148148148152,0)" xlink:href="#aJ"/><use transform="matrix(0.07407407407407408,0,0,0.07407407407407408,44.37037037037039,0)" xlink:href="#aM"/><use transform="matrix(0.07407407407407408,0,0,0.07407407407407408,59.185185185185205,0)" xlink:href="#ag"/><use transform="matrix(0.07407407407407408,0,0,0.07407407407407408,66.59259259259261,0)" xlink:href="#am"/><use transform="matrix(0.07407407407407408,0,0,0.07407407407407408,82.81481481481484,0)" xlink:href="#ad"/><use transform="matrix(0.07407407407407408,0,0,0.07407407407407408,97.62962962962965,0)" xlink:href="#ae"/></g><path fill="#fff" d="M175 0L67-191c6 58 2 128 3 191H24v-248h59L193-55c-6-58-2-129-3-193h46V0h-61" id="aN"/><g id="o"><use transform="matrix(0.07407407407407408,0,0,0.07407407407407408,0,0)" xlink:href="#aN"/><use transform="matrix(0.07407407407407408,0,0,0.07407407407407408,19.185185185185187,0)" xlink:href="#aJ"/><use transform="matrix(0.07407407407407408,0,0,0.07407407407407408,35.40740740740741,0)" xlink:href="#am"/><use transform="matrix(0.07407407407407408,0,0,0.07407407407407408,51.62962962962963,0)" xlink:href="#ad"/></g><path fill="#fff" d="M199 0l-22-63H83L61 0H9l90-248h61L250 0h-51zm-33-102l-36-108c-10 38-24 72-36 108h72" id="aO"/><g id="p"><use transform="matrix(0.07407407407407408,0,0,0.07407407407407408,0,0)" xlink:href="#aO"/><use transform="matrix(0.07407407407407408,0,0,0.07407407407407408,19.185185185185187,0)" xlink:href="#aa"/><use transform="matrix(0.07407407407407408,0,0,0.07407407407407408,35.40740740740741,0)" xlink:href="#ac"/><use transform="matrix(0.07407407407407408,0,0,0.07407407407407408,44.22222222222223,0)" xlink:href="#aJ"/><use transform="matrix(0.07407407407407408,0,0,0.07407407407407408,60.444444444444464,0)" xlink:href="#ab"/><use transform="matrix(0.07407407407407408,0,0,0.07407407407407408,75.25925925925927,0)" xlink:href="#ai"/><use transform="matrix(0.07407407407407408,0,0,0.07407407407407408,90.07407407407408,0)" xlink:href="#aK"/><use transform="matrix(0.07407407407407408,0,0,0.07407407407407408,104.88888888888889,0)" xlink:href="#Z"/><use transform="matrix(0.07407407407407408,0,0,0.07407407407407408,112.29629629629629,0)" xlink:href="#ag"/><use transform="matrix(0.07407407407407408,0,0,0.07407407407407408,119.70370370370371,0)" xlink:href="#an"/><use transform="matrix(0.07407407407407408,0,0,0.07407407407407408,135.92592592592592,0)" xlink:href="#ao"/></g><path fill="#fff" d="M231 0h-52l-39-155L100 0H48L-1-190h46L77-45c9-52 24-97 36-145h53l37 145 32-145h46" id="aP"/><path fill="#fff" d="M147 0L96-86 75-71V0H25v-261h50v150l67-79h53l-66 74L201 0h-54" id="aQ"/><g id="q"><use transform="matrix(0.07407407407407408,0,0,0.07407407407407408,0,0)" xlink:href="#aN"/><use transform="matrix(0.07407407407407408,0,0,0.07407407407407408,19.185185185185187,0)" xlink:href="#ad"/><use transform="matrix(0.07407407407407408,0,0,0.07407407407407408,34,0)" xlink:href="#ac"/><use transform="matrix(0.07407407407407408,0,0,0.07407407407407408,42.814814814814824,0)" xlink:href="#aP"/><use transform="matrix(0.07407407407407408,0,0,0.07407407407407408,63.55555555555556,0)" xlink:href="#aJ"/><use transform="matrix(0.07407407407407408,0,0,0.07407407407407408,79.77777777777779,0)" xlink:href="#ae"/><use transform="matrix(0.07407407407407408,0,0,0.07407407407407408,90.14814814814817,0)" xlink:href="#aQ"/></g><path fill="#fff" d="M135-194c53 0 70 44 70 98 0 56-19 98-73 100-31 1-45-17-59-34 3 33 2 69 2 105H25l-1-265h48c2 10 0 23 3 31 11-24 29-35 60-35zM114-30c33 0 39-31 40-66 0-38-9-64-40-64-56 0-55 130 0 130" id="aR"/><g id="r"><use transform="matrix(0.07407407407407408,0,0,0.07407407407407408,0,0)" xlink:href="#aO"/><use transform="matrix(0.07407407407407408,0,0,0.07407407407407408,19.185185185185187,0)" xlink:href="#aR"/><use transform="matrix(0.07407407407407408,0,0,0.07407407407407408,35.40740740740741,0)" xlink:href="#aR"/><use transform="matrix(0.07407407407407408,0,0,0.07407407407407408,51.62962962962963,0)" xlink:href="#ab"/></g><g id="s"><use transform="matrix(0.07407407407407408,0,0,0.07407407407407408,0,0)" xlink:href="#ad"/><use transform="matrix(0.07407407407407408,0,0,0.07407407407407408,14.814814814814817,0)" xlink:href="#ac"/><use transform="matrix(0.07407407407407408,0,0,0.07407407407407408,23.629629629629633,0)" xlink:href="#ai"/><use transform="matrix(0.07407407407407408,0,0,0.07407407407407408,38.44444444444445,0)" xlink:href="#am"/></g><path fill="#fff" d="M24-248c120-7 223 5 221 122C244-46 201 0 124 0H24v-248zM76-40c74 7 117-18 117-86 0-67-45-88-117-82v168" id="aS"/><g id="t"><use transform="matrix(0.07407407407407408,0,0,0.07407407407407408,0,0)" xlink:href="#aS"/><use transform="matrix(0.07407407407407408,0,0,0.07407407407407408,19.185185185185187,0)" xlink:href="#aJ"/><use transform="matrix(0.07407407407407408,0,0,0.07407407407407408,35.40740740740741,0)" xlink:href="#ai"/><use transform="matrix(0.07407407407407408,0,0,0.07407407407407408,50.22222222222223,0)" xlink:href="#ab"/></g><path fill="#fff" d="M195 0l-88-114-31 24V0H24v-248h52v113l112-113h60L142-143 257 0h-62" id="aT"/><path fill="#fff" d="M138-131c27 9 52 24 51 61 0 53-36 74-89 74S11-19 11-69c0-35 22-54 51-61-78-25-46-121 38-121 51 0 83 19 83 66 0 30-18 49-45 54zm-38-16c24 0 32-13 32-36 1-23-11-34-32-34-22 0-33 12-32 34 0 22 9 36 32 36zm1 116c27 0 37-17 37-43 0-25-13-39-39-39-24 0-37 15-37 40 0 27 11 42 39 42" id="aU"/><path fill="#fff" d="M14-72v-43h91v43H14" id="aV"/><path fill="#fff" d="M24 0v-248h52V0H24" id="aW"/><g id="u"><use transform="matrix(0.07407407407407408,0,0,0.07407407407407408,0,0)" xlink:href="#aT"/><use transform="matrix(0.07407407407407408,0,0,0.07407407407407408,19.185185185185187,0)" xlink:href="#aU"/><use transform="matrix(0.07407407407407408,0,0,0.07407407407407408,34,0)" xlink:href="#ab"/><use transform="matrix(0.07407407407407408,0,0,0.07407407407407408,48.81481481481481,0)" xlink:href="#aV"/><use transform="matrix(0.07407407407407408,0,0,0.07407407407407408,57.62962962962964,0)" xlink:href="#aW"/><use transform="matrix(0.07407407407407408,0,0,0.07407407407407408,65.03703703703704,0)" xlink:href="#an"/><use transform="matrix(0.07407407407407408,0,0,0.07407407407407408,81.25925925925927,0)" xlink:href="#ah"/><use transform="matrix(0.07407407407407408,0,0,0.07407407407407408,90.07407407407408,0)" xlink:href="#ae"/><use transform="matrix(0.07407407407407408,0,0,0.07407407407407408,100.44444444444444,0)" xlink:href="#aK"/></g><path fill="#fff" d="M135-194c52 0 70 43 70 98 0 56-19 99-73 100-30 1-46-15-58-35L72 0H24l1-261h50v104c11-23 29-37 60-37zM114-30c31 0 40-27 40-66 0-37-7-63-39-63s-41 28-41 65c0 36 8 64 40 64" id="aX"/><g id="v"><use transform="matrix(0.07407407407407408,0,0,0.07407407407407408,0,0)" xlink:href="#Y"/><use transform="matrix(0.07407407407407408,0,0,0.07407407407407408,19.185185185185187,0)" xlink:href="#aJ"/><use transform="matrix(0.07407407407407408,0,0,0.07407407407407408,35.40740740740741,0)" xlink:href="#an"/><use transform="matrix(0.07407407407407408,0,0,0.07407407407407408,51.62962962962963,0)" xlink:href="#ac"/><use transform="matrix(0.07407407407407408,0,0,0.07407407407407408,60.44444444444445,0)" xlink:href="#ae"/><use transform="matrix(0.07407407407407408,0,0,0.07407407407407408,70.81481481481482,0)" xlink:href="#ag"/><use transform="matrix(0.07407407407407408,0,0,0.07407407407407408,78.22222222222223,0)" xlink:href="#aX"/><use transform="matrix(0.07407407407407408,0,0,0.07407407407407408,94.44444444444446,0)" xlink:href="#aa"/><use transform="matrix(0.07407407407407408,0,0,0.07407407407407408,110.66666666666669,0)" xlink:href="#ac"/><use transform="matrix(0.07407407407407408,0,0,0.07407407407407408,119.4814814814815,0)" xlink:href="#aJ"/><use transform="matrix(0.07407407407407408,0,0,0.07407407407407408,135.70370370370372,0)" xlink:href="#ae"/></g><path fill="#fff" d="M24 0v-248h195v40H76v63h132v40H76v65h150V0H24" id="aY"/><path fill="#fff" d="M144 0l-44-69L55 0H2l70-98-66-92h53l41 62 40-62h54l-67 91 71 99h-54" id="aZ"/><g id="w"><use transform="matrix(0.07407407407407408,0,0,0.07407407407407408,0,0)" xlink:href="#aY"/><use transform="matrix(0.07407407407407408,0,0,0.07407407407407408,17.77777777777778,0)" xlink:href="#aZ"/><use transform="matrix(0.07407407407407408,0,0,0.07407407407407408,32.592592592592595,0)" xlink:href="#aR"/><use transform="matrix(0.07407407407407408,0,0,0.07407407407407408,48.814814814814824,0)" xlink:href="#ad"/><use transform="matrix(0.07407407407407408,0,0,0.07407407407407408,63.62962962962964,0)" xlink:href="#ae"/><use transform="matrix(0.07407407407407408,0,0,0.07407407407407408,74.00000000000001,0)" xlink:href="#ag"/><use transform="matrix(0.07407407407407408,0,0,0.07407407407407408,81.40740740740742,0)" xlink:href="#ad"/><use transform="matrix(0.07407407407407408,0,0,0.07407407407407408,96.22222222222223,0)" xlink:href="#an"/><use transform="matrix(0.07407407407407408,0,0,0.07407407407407408,112.44444444444446,0)" xlink:href="#ai"/><use transform="matrix(0.07407407407407408,0,0,0.07407407407407408,127.25925925925925,0)" xlink:href="#ad"/></g><path fill="#fff" d="M136-208V0H84v-208H4v-40h212v40h-80" id="ba"/><g id="x"><use transform="matrix(0.07407407407407408,0,0,0.07407407407407408,0,0)" xlink:href="#ba"/><use transform="matrix(0.07407407407407408,0,0,0.07407407407407408,14.222222222222225,0)" xlink:href="#ad"/><use transform="matrix(0.07407407407407408,0,0,0.07407407407407408,29.03703703703704,0)" xlink:href="#ab"/><use transform="matrix(0.07407407407407408,0,0,0.07407407407407408,43.85185185185187,0)" xlink:href="#ac"/><use transform="matrix(0.07407407407407408,0,0,0.07407407407407408,52.66666666666668,0)" xlink:href="#ag"/><use transform="matrix(0.07407407407407408,0,0,0.07407407407407408,60.07407407407409,0)" xlink:href="#an"/><use transform="matrix(0.07407407407407408,0,0,0.07407407407407408,76.29629629629632,0)" xlink:href="#ao"/></g><g id="y"><use transform="matrix(0.07407407407407408,0,0,0.07407407407407408,0,0)" xlink:href="#aO"/><use transform="matrix(0.07407407407407408,0,0,0.07407407407407408,19.185185185185187,0)" xlink:href="#ae"/><use transform="matrix(0.07407407407407408,0,0,0.07407407407407408,29.555555555555554,0)" xlink:href="#ai"/><use transform="matrix(0.07407407407407408,0,0,0.07407407407407408,44.370370370370374,0)" xlink:href="#al"/><use transform="matrix(0.07407407407407408,0,0,0.07407407407407408,60.592592592592595,0)" xlink:href="#ag"/><use transform="matrix(0.07407407407407408,0,0,0.07407407407407408,68,0)" xlink:href="#ac"/><use transform="matrix(0.07407407407407408,0,0,0.07407407407407408,76.81481481481481,0)" xlink:href="#ad"/><use transform="matrix(0.07407407407407408,0,0,0.07407407407407408,91.62962962962962,0)" xlink:href="#ai"/><use transform="matrix(0.07407407407407408,0,0,0.07407407407407408,106.44444444444443,0)" xlink:href="#ac"/><use transform="matrix(0.07407407407407408,0,0,0.07407407407407408,115.25925925925924,0)" xlink:href="#aa"/><use transform="matrix(0.07407407407407408,0,0,0.07407407407407408,131.48148148148147,0)" xlink:href="#ae"/><use transform="matrix(0.07407407407407408,0,0,0.07407407407407408,141.85185185185185,0)" xlink:href="#ad"/></g><path fill="#fff" d="M240-174c0 40-23 61-54 70L253 0h-59l-57-94H76V0H24v-248c93 4 217-23 216 74zM76-134c48-2 112 12 112-38 0-48-66-32-112-35v73" id="bb"/><g id="z"><use transform="matrix(0.07407407407407408,0,0,0.07407407407407408,0,0)" xlink:href="#bb"/><use transform="matrix(0.07407407407407408,0,0,0.07407407407407408,19.185185185185187,0)" xlink:href="#ad"/><use transform="matrix(0.07407407407407408,0,0,0.07407407407407408,34,0)" xlink:href="#Z"/><use transform="matrix(0.07407407407407408,0,0,0.07407407407407408,41.407407407407405,0)" xlink:href="#ad"/><use transform="matrix(0.07407407407407408,0,0,0.07407407407407408,56.22222222222222,0)" xlink:href="#aK"/><use transform="matrix(0.07407407407407408,0,0,0.07407407407407408,71.03703703703704,0)" xlink:href="#ab"/><use transform="matrix(0.07407407407407408,0,0,0.07407407407407408,85.85185185185185,0)" xlink:href="#ad"/></g><path d="M24 0v-248h52v208h133V0H24" id="bc"/><g id="A"><use transform="matrix(0.07407407407407408,0,0,0.07407407407407408,0,0)" xlink:href="#bc"/><use transform="matrix(0.07407407407407408,0,0,0.07407407407407408,16.222222222222225,0)" xlink:href="#au"/><use transform="matrix(0.07407407407407408,0,0,0.07407407407407408,32.44444444444445,0)" xlink:href="#ay"/><use transform="matrix(0.07407407407407408,0,0,0.07407407407407408,48.66666666666667,0)" xlink:href="#aE"/></g><g id="B"><use transform="matrix(0.07407407407407408,0,0,0.07407407407407408,0,0)" xlink:href="#ar"/><use transform="matrix(0.07407407407407408,0,0,0.07407407407407408,8.814814814814817,0)" xlink:href="#av"/><use transform="matrix(0.07407407407407408,0,0,0.07407407407407408,23.629629629629633,0)" xlink:href="#at"/><use transform="matrix(0.07407407407407408,0,0,0.07407407407407408,34.00000000000001,0)" xlink:href="#aI"/></g><path d="M137-138c1-29-70-34-71-4 15 46 118 7 119 86 1 83-164 76-172 9l43-7c4 19 20 25 44 25 33 8 57-30 24-41C81-84 22-81 20-136c-2-80 154-74 161-7" id="bd"/><path d="M85 4C-2 5 27-109 22-190h50c7 57-23 150 33 157 60-5 35-97 40-157h50l1 190h-47c-2-12 1-28-3-38-12 25-28 42-61 42" id="be"/><g id="C"><use transform="matrix(0.07407407407407408,0,0,0.07407407407407408,0,0)" xlink:href="#bd"/><use transform="matrix(0.07407407407407408,0,0,0.07407407407407408,14.814814814814817,0)" xlink:href="#be"/><use transform="matrix(0.07407407407407408,0,0,0.07407407407407408,31.03703703703704,0)" xlink:href="#aB"/><use transform="matrix(0.07407407407407408,0,0,0.07407407407407408,47.25925925925927,0)" xlink:href="#aB"/><use transform="matrix(0.07407407407407408,0,0,0.07407407407407408,63.481481481481495,0)" xlink:href="#au"/><use transform="matrix(0.07407407407407408,0,0,0.07407407407407408,79.70370370370374,0)" xlink:href="#at"/><use transform="matrix(0.07407407407407408,0,0,0.07407407407407408,90.07407407407409,0)" xlink:href="#ar"/></g><path d="M67-93c0 74 22 123 53 168H70C40 30 18-18 18-93s22-123 52-168h50c-32 44-53 94-53 168" id="bf"/><path d="M136-208V0H84v-208H4v-40h212v40h-80" id="bg"/><path d="M102-93c0 74-22 123-52 168H0C30 29 54-18 53-93c0-74-22-123-53-168h50c30 45 52 94 52 168" id="bh"/><g id="D"><use transform="matrix(0.07407407407407408,0,0,0.07407407407407408,0,0)" xlink:href="#bf"/><use transform="matrix(0.07407407407407408,0,0,0.07407407407407408,8.814814814814817,0)" xlink:href="#bc"/><use transform="matrix(0.07407407407407408,0,0,0.07407407407407408,23.03703703703704,0)" xlink:href="#bg"/><use transform="matrix(0.07407407407407408,0,0,0.07407407407407408,39.25925925925927,0)" xlink:href="#aC"/><use transform="matrix(0.07407407407407408,0,0,0.07407407407407408,57.037037037037045,0)" xlink:href="#bh"/></g><g id="E"><use transform="matrix(0.07407407407407408,0,0,0.07407407407407408,0,0)" xlink:href="#Y"/><use transform="matrix(0.07407407407407408,0,0,0.07407407407407408,19.185185185185187,0)" xlink:href="#af"/><use transform="matrix(0.07407407407407408,0,0,0.07407407407407408,35.40740740740741,0)" xlink:href="#aW"/></g><path fill="#fff" d="M238-95c0 69-44 99-111 99C63 4 22-25 22-93v-155h51v151c-1 38 19 59 55 60 90 1 49-130 58-211h52v153" id="bi"/><g id="F"><use transform="matrix(0.07407407407407408,0,0,0.07407407407407408,0,0)" xlink:href="#bi"/><use transform="matrix(0.07407407407407408,0,0,0.07407407407407408,19.185185185185187,0)" xlink:href="#aW"/></g><g id="G"><use transform="matrix(0.07407407407407408,0,0,0.07407407407407408,0,0)" xlink:href="#aO"/><use transform="matrix(0.07407407407407408,0,0,0.07407407407407408,19.185185185185187,0)" xlink:href="#aa"/><use transform="matrix(0.07407407407407408,0,0,0.07407407407407408,35.40740740740741,0)" xlink:href="#ac"/><use transform="matrix(0.07407407407407408,0,0,0.07407407407407408,44.22222222222223,0)" xlink:href="#al"/></g><g id="H"><use transform="matrix(0.07407407407407408,0,0,0.07407407407407408,0,0)" xlink:href="#ak"/><use transform="matrix(0.07407407407407408,0,0,0.07407407407407408,17.77777777777778,0)" xlink:href="#ai"/><use transform="matrix(0.07407407407407408,0,0,0.07407407407407408,32.592592592592595,0)" xlink:href="#aK"/><use transform="matrix(0.07407407407407408,0,0,0.07407407407407408,47.40740740740741,0)" xlink:href="#Z"/><use transform="matrix(0.07407407407407408,0,0,0.07407407407407408,54.814814814814824,0)" xlink:href="#aK"/><use transform="matrix(0.07407407407407408,0,0,0.07407407407407408,69.62962962962965,0)" xlink:href="#aX"/><use transform="matrix(0.07407407407407408,0,0,0.07407407407407408,85.85185185185188,0)" xlink:href="#ag"/><use transform="matrix(0.07407407407407408,0,0,0.07407407407407408,93.2592592592593,0)" xlink:href="#Z"/><use transform="matrix(0.07407407407407408,0,0,0.07407407407407408,100.66666666666669,0)" xlink:href="#ag"/><use transform="matrix(0.07407407407407408,0,0,0.07407407407407408,108.07407407407409,0)" xlink:href="#ac"/><use transform="matrix(0.07407407407407408,0,0,0.07407407407407408,116.88888888888891,0)" xlink:href="#aj"/></g><path fill="#fff" d="M230 0l2-204L168 0h-37L68-204 70 0H24v-248h70l56 185 57-185h69V0h-46" id="bj"/><g id="I"><use transform="matrix(0.07407407407407408,0,0,0.07407407407407408,0,0)" xlink:href="#aO"/><use transform="matrix(0.07407407407407408,0,0,0.07407407407407408,19.185185185185187,0)" xlink:href="#aL"/><use transform="matrix(0.07407407407407408,0,0,0.07407407407407408,36.96296296296296,0)" xlink:href="#aW"/><use transform="matrix(0.07407407407407408,0,0,0.07407407407407408,44.37037037037037,0)" xlink:href="#aV"/><use transform="matrix(0.07407407407407408,0,0,0.07407407407407408,53.18518518518518,0)" xlink:href="#bj"/><use transform="matrix(0.07407407407407408,0,0,0.07407407407407408,75.33333333333334,0)" xlink:href="#aK"/><use transform="matrix(0.07407407407407408,0,0,0.07407407407407408,90.14814814814817,0)" xlink:href="#ai"/><use transform="matrix(0.07407407407407408,0,0,0.07407407407407408,104.96296296296296,0)" xlink:href="#al"/><use transform="matrix(0.07407407407407408,0,0,0.07407407407407408,121.18518518518519,0)" xlink:href="#ag"/><use transform="matrix(0.07407407407407408,0,0,0.07407407407407408,128.5925925925926,0)" xlink:href="#an"/><use transform="matrix(0.07407407407407408,0,0,0.07407407407407408,144.81481481481484,0)" xlink:href="#ad"/><use transform="matrix(0.07407407407407408,0,0,0.07407407407407408,159.62962962962965,0)" xlink:href="#ae"/><use transform="matrix(0.07407407407407408,0,0,0.07407407407407408,170.00000000000003,0)" xlink:href="#aj"/></g><g id="J"><use transform="matrix(0.07407407407407408,0,0,0.07407407407407408,0,0)" xlink:href="#bj"/><use transform="matrix(0.07407407407407408,0,0,0.07407407407407408,22.148148148148152,0)" xlink:href="#aa"/><use transform="matrix(0.07407407407407408,0,0,0.07407407407407408,38.37037037037038,0)" xlink:href="#Z"/><use transform="matrix(0.07407407407407408,0,0,0.07407407407407408,45.777777777777786,0)" xlink:href="#ac"/><use transform="matrix(0.07407407407407408,0,0,0.07407407407407408,54.5925925925926,0)" xlink:href="#ag"/><use transform="matrix(0.07407407407407408,0,0,0.07407407407407408,62.000000000000014,0)" xlink:href="#ai"/><use transform="matrix(0.07407407407407408,0,0,0.07407407407407408,76.81481481481484,0)" xlink:href="#Z"/><use transform="matrix(0.07407407407407408,0,0,0.07407407407407408,84.22222222222226,0)" xlink:href="#aa"/><use transform="matrix(0.07407407407407408,0,0,0.07407407407407408,100.44444444444447,0)" xlink:href="#ab"/><use transform="matrix(0.07407407407407408,0,0,0.07407407407407408,115.2592592592593,0)" xlink:href="#ac"/><use transform="matrix(0.07407407407407408,0,0,0.07407407407407408,124.0740740740741,0)" xlink:href="#ad"/><use transform="matrix(0.07407407407407408,0,0,0.07407407407407408,138.8888888888889,0)" xlink:href="#ae"/></g><path fill="#fff" d="M220-157c-53 9-28 100-34 157h-49v-107c1-27-5-49-29-50C55-147 81-57 75 0H25l-1-190h47c2 12-1 28 3 38 10-53 101-56 108 0 13-22 24-43 59-42 82 1 51 116 57 194h-49v-107c-1-25-5-48-29-50" id="bk"/><g id="K"><use transform="matrix(0.07407407407407408,0,0,0.07407407407407408,0,0)" xlink:href="#aW"/><use transform="matrix(0.07407407407407408,0,0,0.07407407407407408,7.407407407407408,0)" xlink:href="#an"/><use transform="matrix(0.07407407407407408,0,0,0.07407407407407408,23.629629629629633,0)" xlink:href="#ab"/><use transform="matrix(0.07407407407407408,0,0,0.07407407407407408,38.44444444444445,0)" xlink:href="#ac"/><use transform="matrix(0.07407407407407408,0,0,0.07407407407407408,47.25925925925927,0)" xlink:href="#ae"/><use transform="matrix(0.07407407407407408,0,0,0.07407407407407408,57.62962962962964,0)" xlink:href="#aa"/><use transform="matrix(0.07407407407407408,0,0,0.07407407407407408,73.85185185185186,0)" xlink:href="#bk"/><use transform="matrix(0.07407407407407408,0,0,0.07407407407407408,97.55555555555557,0)" xlink:href="#ad"/><use transform="matrix(0.07407407407407408,0,0,0.07407407407407408,112.37037037037038,0)" xlink:href="#an"/><use transform="matrix(0.07407407407407408,0,0,0.07407407407407408,128.5925925925926,0)" xlink:href="#ac"/><use transform="matrix(0.07407407407407408,0,0,0.07407407407407408,137.40740740740742,0)" xlink:href="#aK"/><use transform="matrix(0.07407407407407408,0,0,0.07407407407407408,152.22222222222223,0)" xlink:href="#ac"/><use transform="matrix(0.07407407407407408,0,0,0.07407407407407408,161.03703703703704,0)" xlink:href="#ag"/><use transform="matrix(0.07407407407407408,0,0,0.07407407407407408,168.44444444444446,0)" xlink:href="#aJ"/><use transform="matrix(0.07407407407407408,0,0,0.07407407407407408,184.66666666666669,0)" xlink:href="#an"/></g><g id="L"><use transform="matrix(0.07407407407407408,0,0,0.07407407407407408,0,0)" xlink:href="#ak"/><use transform="matrix(0.07407407407407408,0,0,0.07407407407407408,17.77777777777778,0)" xlink:href="#ad"/><use transform="matrix(0.07407407407407408,0,0,0.07407407407407408,32.592592592592595,0)" xlink:href="#ai"/><use transform="matrix(0.07407407407407408,0,0,0.07407407407407408,47.40740740740741,0)" xlink:href="#aa"/><use transform="matrix(0.07407407407407408,0,0,0.07407407407407408,63.629629629629626,0)" xlink:href="#ae"/><use transform="matrix(0.07407407407407408,0,0,0.07407407407407408,74,0)" xlink:href="#ag"/><use transform="matrix(0.07407407407407408,0,0,0.07407407407407408,81.4074074074074,0)" xlink:href="#ac"/><use transform="matrix(0.07407407407407408,0,0,0.07407407407407408,90.22222222222223,0)" xlink:href="#aj"/></g><path fill="#fff" d="M275 0h-61l-44-196L126 0H64L0-248h53L97-49l45-199h58l43 199 44-199h52" id="bl"/><g id="M"><use transform="matrix(0.07407407407407408,0,0,0.07407407407407408,0,0)" xlink:href="#bl"/><use transform="matrix(0.07407407407407408,0,0,0.07407407407407408,24.888888888888893,0)" xlink:href="#ag"/><use transform="matrix(0.07407407407407408,0,0,0.07407407407407408,32.296296296296305,0)" xlink:href="#an"/><use transform="matrix(0.07407407407407408,0,0,0.07407407407407408,48.51851851851853,0)" xlink:href="#am"/><use transform="matrix(0.07407407407407408,0,0,0.07407407407407408,64.74074074074076,0)" xlink:href="#aJ"/><use transform="matrix(0.07407407407407408,0,0,0.07407407407407408,80.96296296296299,0)" xlink:href="#aP"/><use transform="matrix(0.07407407407407408,0,0,0.07407407407407408,101.70370370370374,0)" xlink:href="#ab"/></g><path d="M25 0v-261h50V0H25" id="bm"/><path d="M123 10C108 53 80 86 19 72V37c35 8 53-11 59-39L3-190h52l48 148c12-52 28-100 44-148h51" id="bn"/><g id="N"><use transform="matrix(0.07407407407407408,0,0,0.07407407407407408,0,0)" xlink:href="#as"/><use transform="matrix(0.07407407407407408,0,0,0.07407407407407408,17.77777777777778,0)" xlink:href="#au"/><use transform="matrix(0.07407407407407408,0,0,0.07407407407407408,34,0)" xlink:href="#bm"/><use transform="matrix(0.07407407407407408,0,0,0.07407407407407408,41.407407407407405,0)" xlink:href="#ax"/><use transform="matrix(0.07407407407407408,0,0,0.07407407407407408,48.81481481481481,0)" xlink:href="#aw"/><use transform="matrix(0.07407407407407408,0,0,0.07407407407407408,63.629629629629626,0)" xlink:href="#bn"/></g><path d="M25-224v-37h50v37H25zM75 22c2 45-34 59-81 51V38c22 5 31-5 31-27v-201h50V22" id="bo"/><g id="O"><use transform="matrix(0.09876543209876544,0,0,0.09876543209876544,0,0)" xlink:href="#as"/><use transform="matrix(0.09876543209876544,0,0,0.09876543209876544,23.703703703703706,0)" xlink:href="#at"/><use transform="matrix(0.09876543209876544,0,0,0.09876543209876544,37.53086419753087,0)" xlink:href="#au"/><use transform="matrix(0.09876543209876544,0,0,0.09876543209876544,59.1604938271605,0)" xlink:href="#bo"/><use transform="matrix(0.09876543209876544,0,0,0.09876543209876544,69.03703703703704,0)" xlink:href="#av"/><use transform="matrix(0.09876543209876544,0,0,0.09876543209876544,88.79012345679013,0)" xlink:href="#aw"/><use transform="matrix(0.09876543209876544,0,0,0.09876543209876544,108.54320987654322,0)" xlink:href="#ar"/></g><path d="M186 0v-106H76V0H24v-248h52v99h110v-99h50V0h-50" id="bp"/><path d="M12 0v-35l95-120H19v-35h142v35L67-36h103V0H12" id="bq"/><g id="P"><use transform="matrix(0.09876543209876544,0,0,0.09876543209876544,0,0)" xlink:href="#bp"/><use transform="matrix(0.09876543209876544,0,0,0.09876543209876544,25.58024691358025,0)" xlink:href="#au"/><use transform="matrix(0.09876543209876544,0,0,0.09876543209876544,47.20987654320988,0)" xlink:href="#at"/><use transform="matrix(0.09876543209876544,0,0,0.09876543209876544,61.037037037037045,0)" xlink:href="#ax"/><use transform="matrix(0.09876543209876544,0,0,0.09876543209876544,70.91358024691358,0)" xlink:href="#bq"/><use transform="matrix(0.09876543209876544,0,0,0.09876543209876544,88.69135802469137,0)" xlink:href="#au"/><use transform="matrix(0.09876543209876544,0,0,0.09876543209876544,110.320987654321,0)" xlink:href="#ay"/><use transform="matrix(0.09876543209876544,0,0,0.09876543209876544,131.95061728395063,0)" xlink:href="#ar"/><use transform="matrix(0.09876543209876544,0,0,0.09876543209876544,143.70370370370372,0)" xlink:href="#aq"/><use transform="matrix(0.09876543209876544,0,0,0.09876543209876544,163.4567901234568,0)" xlink:href="#bm"/></g><path d="M147 0H94L2-248h55l64 206c17-72 42-137 63-206h54" id="br"/><g id="Q"><use transform="matrix(0.09876543209876544,0,0,0.09876543209876544,0,0)" xlink:href="#br"/><use transform="matrix(0.09876543209876544,0,0,0.09876543209876544,21.728395061728396,0)" xlink:href="#av"/><use transform="matrix(0.09876543209876544,0,0,0.09876543209876544,41.48148148148148,0)" xlink:href="#at"/><use transform="matrix(0.09876543209876544,0,0,0.09876543209876544,55.308641975308646,0)" xlink:href="#ar"/><use transform="matrix(0.09876543209876544,0,0,0.09876543209876544,67.06172839506173,0)" xlink:href="#ax"/><use transform="matrix(0.09876543209876544,0,0,0.09876543209876544,76.93827160493828,0)" xlink:href="#aw"/><use transform="matrix(0.09876543209876544,0,0,0.09876543209876544,96.69135802469137,0)" xlink:href="#aq"/><use transform="matrix(0.09876543209876544,0,0,0.09876543209876544,116.44444444444446,0)" xlink:href="#bm"/></g><path fill="#0c73f0" d="M195 0l-88-114-31 24V0H24v-248h52v113l112-113h60L142-143 257 0h-62" id="bs"/><path fill="#0c73f0" d="M85 4C-2 5 27-109 22-190h50c7 57-23 150 33 157 60-5 35-97 40-157h50l1 190h-47c-2-12 1-28-3-38-12 25-28 42-61 42" id="bt"/><path fill="#0c73f0" d="M135-194c52 0 70 43 70 98 0 56-19 99-73 100-30 1-46-15-58-35L72 0H24l1-261h50v104c11-23 29-37 60-37zM114-30c31 0 40-27 40-66 0-37-7-63-39-63s-41 28-41 65c0 36 8 64 40 64" id="bu"/><path fill="#0c73f0" d="M185-48c-13 30-37 53-82 52C43 2 14-33 14-96s30-98 90-98c62 0 83 45 84 108H66c0 31 8 55 39 56 18 0 30-7 34-22zm-45-69c5-46-57-63-70-21-2 6-4 13-4 21h74" id="bv"/><path fill="#0c73f0" d="M135-150c-39-12-60 13-60 57V0H25l-1-190h47c2 13-1 29 3 40 6-28 27-53 61-41v41" id="bw"/><path fill="#0c73f0" d="M135-194c87-1 58 113 63 194h-50c-7-57 23-157-34-157-59 0-34 97-39 157H25l-1-190h47c2 12-1 28 3 38 12-26 28-41 61-42" id="bx"/><path fill="#0c73f0" d="M115-3C79 11 28 4 28-45v-112H4v-33h27l15-45h31v45h36v33H77v99c-1 23 16 31 38 25v30" id="by"/><path fill="#0c73f0" d="M137-138c1-29-70-34-71-4 15 46 118 7 119 86 1 83-164 76-172 9l43-7c4 19 20 25 44 25 33 8 57-30 24-41C81-84 22-81 20-136c-2-80 154-74 161-7" id="bz"/><g id="R"><use transform="matrix(0.2345679012345679,0,0,0.2345679012345679,0,0)" xlink:href="#bs"/><use transform="matrix(0.2345679012345679,0,0,0.2345679012345679,60.75308641975308,0)" xlink:href="#bt"/><use transform="matrix(0.2345679012345679,0,0,0.2345679012345679,112.12345679012344,0)" xlink:href="#bu"/><use transform="matrix(0.2345679012345679,0,0,0.2345679012345679,163.49382716049382,0)" xlink:href="#bv"/><use transform="matrix(0.2345679012345679,0,0,0.2345679012345679,210.4074074074074,0)" xlink:href="#bw"/><use transform="matrix(0.2345679012345679,0,0,0.2345679012345679,243.2469135802469,0)" xlink:href="#bx"/><use transform="matrix(0.2345679012345679,0,0,0.2345679012345679,294.61728395061726,0)" xlink:href="#bv"/><use transform="matrix(0.2345679012345679,0,0,0.2345679012345679,341.53086419753083,0)" xlink:href="#by"/><use transform="matrix(0.2345679012345679,0,0,0.2345679012345679,369.4444444444444,0)" xlink:href="#bv"/><use transform="matrix(0.2345679012345679,0,0,0.2345679012345679,416.35802469135797,0)" xlink:href="#bz"/></g><path fill="#0c73f0" d="M67-125c0 53 21 87 73 88 37 1 54-22 65-47l45 17C233-25 199 4 140 4 58 4 20-42 15-125 8-235 124-281 211-232c18 10 29 29 36 50l-46 12c-8-25-30-41-62-41-52 0-71 34-72 86" id="bA"/><path fill="#0c73f0" d="M110-194c64 0 96 36 96 99 0 64-35 99-97 99-61 0-95-36-95-99 0-62 34-99 96-99zm-1 164c35 0 45-28 45-65 0-40-10-65-43-65-34 0-45 26-45 65 0 36 10 65 43 65" id="bB"/><path fill="#0c73f0" d="M220-157c-53 9-28 100-34 157h-49v-107c1-27-5-49-29-50C55-147 81-57 75 0H25l-1-190h47c2 12-1 28 3 38 10-53 101-56 108 0 13-22 24-43 59-42 82 1 51 116 57 194h-49v-107c-1-25-5-48-29-50" id="bC"/><path fill="#0c73f0" d="M25-224v-37h50v37H25zM25 0v-190h50V0H25" id="bD"/><path fill="#0c73f0" d="M123 10C108 53 80 86 19 72V37c35 8 53-11 59-39L3-190h52l48 148c12-52 28-100 44-148h51" id="bE"/><g id="S"><use transform="matrix(0.2345679012345679,0,0,0.2345679012345679,0,0)" xlink:href="#bA"/><use transform="matrix(0.2345679012345679,0,0,0.2345679012345679,60.75308641975308,0)" xlink:href="#bB"/><use transform="matrix(0.2345679012345679,0,0,0.2345679012345679,112.12345679012344,0)" xlink:href="#bC"/><use transform="matrix(0.2345679012345679,0,0,0.2345679012345679,187.18518518518516,0)" xlink:href="#bC"/><use transform="matrix(0.2345679012345679,0,0,0.2345679012345679,262.2469135802469,0)" xlink:href="#bt"/><use transform="matrix(0.2345679012345679,0,0,0.2345679012345679,313.61728395061726,0)" xlink:href="#bx"/><use transform="matrix(0.2345679012345679,0,0,0.2345679012345679,364.98765432098764,0)" xlink:href="#bD"/><use transform="matrix(0.2345679012345679,0,0,0.2345679012345679,388.44444444444446,0)" xlink:href="#by"/><use transform="matrix(0.2345679012345679,0,0,0.2345679012345679,416.358024691358,0)" xlink:href="#bE"/></g><path fill="#0c73f0" d="M169-182c-1-43-94-46-97-3 18 66 151 10 154 114 3 95-165 93-204 36-6-8-10-19-12-30l50-8c3 46 112 56 116 5-17-69-150-10-154-114-4-87 153-88 188-35 5 8 8 18 10 28" id="bF"/><path fill="#0c73f0" d="M190-63c-7 42-38 67-86 67-59 0-84-38-90-98-12-110 154-137 174-36l-49 2c-2-19-15-32-35-32-30 0-35 28-38 64-6 74 65 87 74 30" id="bG"/><g id="T"><use transform="matrix(0.2345679012345679,0,0,0.2345679012345679,0,0)" xlink:href="#bF"/><use transform="matrix(0.2345679012345679,0,0,0.2345679012345679,56.29629629629629,0)" xlink:href="#by"/><use transform="matrix(0.2345679012345679,0,0,0.2345679012345679,84.20987654320987,0)" xlink:href="#bw"/><use transform="matrix(0.2345679012345679,0,0,0.2345679012345679,117.04938271604938,0)" xlink:href="#bt"/><use transform="matrix(0.2345679012345679,0,0,0.2345679012345679,168.41975308641975,0)" xlink:href="#bG"/><use transform="matrix(0.2345679012345679,0,0,0.2345679012345679,215.33333333333331,0)" xlink:href="#by"/><use transform="matrix(0.2345679012345679,0,0,0.2345679012345679,243.2469135802469,0)" xlink:href="#bt"/><use transform="matrix(0.2345679012345679,0,0,0.2345679012345679,294.61728395061726,0)" xlink:href="#bw"/><use transform="matrix(0.2345679012345679,0,0,0.2345679012345679,327.45679012345676,0)" xlink:href="#bv"/></g><path fill="#fff" d="M67-125c0 54 23 88 75 88 28 0 53-7 68-21v-34h-60v-39h108v91C232-14 192 4 140 4 58 4 20-42 15-125 8-236 126-280 215-234c19 10 29 26 37 47l-47 15c-11-23-29-39-63-39-53 1-75 33-75 86" id="bH"/><g id="U"><use transform="matrix(0.07407407407407408,0,0,0.07407407407407408,0,0)" xlink:href="#ak"/><use transform="matrix(0.07407407407407408,0,0,0.07407407407407408,17.77777777777778,0)" xlink:href="#aW"/><use transform="matrix(0.07407407407407408,0,0,0.07407407407407408,25.185185185185187,0)" xlink:href="#bH"/></g><path d="M275 0h-61l-44-196L126 0H64L0-248h53L97-49l45-199h58l43 199 44-199h52" id="bI"/><path d="M147 0L96-86 75-71V0H25v-261h50v150l67-79h53l-66 74L201 0h-54" id="bJ"/><g id="V"><use transform="matrix(0.07407407407407408,0,0,0.07407407407407408,0,0)" xlink:href="#bI"/><use transform="matrix(0.07407407407407408,0,0,0.07407407407407408,24.592592592592595,0)" xlink:href="#au"/><use transform="matrix(0.07407407407407408,0,0,0.07407407407407408,40.81481481481482,0)" xlink:href="#at"/><use transform="matrix(0.07407407407407408,0,0,0.07407407407407408,51.1851851851852,0)" xlink:href="#bJ"/><use transform="matrix(0.07407407407407408,0,0,0.07407407407407408,66.00000000000001,0)" xlink:href="#ax"/><use transform="matrix(0.07407407407407408,0,0,0.07407407407407408,73.40740740740742,0)" xlink:href="#ay"/><use transform="matrix(0.07407407407407408,0,0,0.07407407407407408,89.62962962962965,0)" xlink:href="#aE"/></g><path d="M67-125c0 54 23 88 75 88 28 0 53-7 68-21v-34h-60v-39h108v91C232-14 192 4 140 4 58 4 20-42 15-125 8-236 126-280 215-234c19 10 29 26 37 47l-47 15c-11-23-29-39-63-39-53 1-75 33-75 86" id="bK"/><g id="W"><use transform="matrix(0.07407407407407408,0,0,0.07407407407407408,0,0)" xlink:href="#bK"/><use transform="matrix(0.07407407407407408,0,0,0.07407407407407408,20.740740740740744,0)" xlink:href="#at"/><use transform="matrix(0.07407407407407408,0,0,0.07407407407407408,31.111111111111114,0)" xlink:href="#au"/><use transform="matrix(0.07407407407407408,0,0,0.07407407407407408,47.33333333333334,0)" xlink:href="#be"/><use transform="matrix(0.07407407407407408,0,0,0.07407407407407408,63.55555555555557,0)" xlink:href="#aB"/></g><path d="M195 0l-88-114-31 24V0H24v-248h52v113l112-113h60L142-143 257 0h-62" id="bL"/><g id="X"><use transform="matrix(0.08641975308641976,0,0,0.08641975308641976,0,0)" xlink:href="#bL"/><use transform="matrix(0.08641975308641976,0,0,0.08641975308641976,22.38271604938272,0)" xlink:href="#av"/><use transform="matrix(0.08641975308641976,0,0,0.08641975308641976,39.66666666666667,0)" xlink:href="#bn"/></g></defs></g></svg>