<?xml version="1.0" standalone="no"?>
<!DOCTYPE svg PUBLIC "-//W3C//DTD SVG 20010904//EN"
 "http://www.w3.org/TR/2001/REC-SVG-20010904/DTD/svg10.dtd">
<svg version="1.0" xmlns="http://www.w3.org/2000/svg"
 width="960.000000pt" height="540.000000pt" viewBox="0 0 960.000000 540.000000"
 preserveAspectRatio="xMidYMid meet">

<g transform="translate(0.000000,540.000000) scale(0.100000,-0.100000)"
fill="#000000" stroke="none">
<path d="M7991 4913 c-6 -21 -26 -101 -45 -178 -20 -77 -39 -150 -42 -162 l-6
-23 432 0 432 0 -6 23 c-3 12 -22 85 -42 162 -19 77 -39 157 -45 178 l-10 37
-329 0 -329 0 -10 -37z m668 -10 c5 -21 28 -107 50 -190 l40 -153 -419 0 -418
0 44 173 c25 94 47 180 50 190 5 16 29 17 324 17 l319 0 10 -37z"/>
<path d="M8090 4751 c-20 -39 13 -71 47 -45 17 13 16 14 -9 8 -25 -6 -28 -3
-28 21 0 24 3 27 25 23 14 -3 25 -1 25 3 0 18 -49 9 -60 -10z"/>
<path d="M8426 4755 c-3 -9 -6 -26 -5 -38 1 -16 4 -12 10 12 10 34 6 55 -5 26z"/>
<path d="M8456 4755 c-3 -9 -6 -26 -5 -38 1 -16 4 -12 10 12 10 34 6 55 -5 26z"/>
<path d="M8164 4735 c-10 -26 3 -47 23 -37 10 5 24 7 31 5 7 -3 12 4 12 16 0
28 20 27 21 -1 l0 -23 9 23 c5 12 14 22 19 22 5 0 7 -10 4 -22 -4 -19 -3 -20
6 -8 20 29 12 40 -28 40 -33 0 -40 -4 -44 -22 l-4 -23 -2 23 c-1 26 -38 31
-47 7z m34 -7 c-6 -18 -28 -21 -28 -4 0 9 7 16 16 16 9 0 14 -5 12 -12z"/>
<path d="M8308 4725 c-3 -14 -1 -25 3 -25 5 0 9 9 9 20 0 28 20 25 21 -2 0
-22 1 -22 11 2 l11 25 7 -25 c5 -14 8 -20 9 -13 1 6 4 18 7 27 5 13 -1 16 -34
16 -34 0 -40 -3 -44 -25z"/>
<path d="M8401 4743 c0 -6 -4 -20 -7 -30 -5 -14 -4 -15 5 -7 7 7 11 20 8 30
-3 11 -5 14 -6 7z"/>
<path d="M8484 4736 c-10 -25 3 -47 22 -39 16 6 16 7 -2 14 -17 7 -17 8 4 8
14 1 22 6 20 14 -7 18 -37 21 -44 3z m33 -2 c-3 -3 -12 -4 -19 -1 -8 3 -5 6 6
6 11 1 17 -2 13 -5z"/>
<path d="M8544 4736 c-10 -25 3 -47 22 -39 16 6 16 7 -2 14 -17 7 -17 8 4 8
14 1 22 6 20 14 -7 18 -37 21 -44 3z m33 -2 c-3 -3 -12 -4 -19 -1 -8 3 -5 6 6
6 11 1 17 -2 13 -5z"/>
<path d="M504 4820 c-45 -18 -64 -58 -64 -132 0 -64 3 -72 29 -99 38 -38 106
-41 145 -6 34 30 38 61 9 65 -16 2 -23 -2 -23 -12 0 -9 -11 -23 -25 -32 -47
-31 -95 12 -95 85 0 44 20 90 42 96 30 10 66 -3 73 -25 9 -28 55 -28 48 0 -13
51 -85 82 -139 60z"/>
<path d="M1965 4821 c-9 -16 3 -31 26 -31 14 0 19 6 17 17 -4 20 -33 29 -43
14z"/>
<path d="M2510 4818 c-73 -39 -79 -192 -9 -242 30 -20 108 -21 137 0 18 12 22
25 22 70 l0 55 -47 -3 c-36 -2 -49 -7 -51 -20 -3 -14 3 -18 27 -18 26 0 31 -4
31 -25 0 -47 -57 -59 -95 -20 -20 19 -25 34 -25 77 0 66 20 98 60 98 20 0 35
-8 46 -25 18 -27 54 -34 54 -11 0 8 -10 27 -23 41 -26 31 -89 42 -127 23z"/>
<path d="M3610 4823 c-32 -12 -50 -37 -50 -68 0 -39 20 -58 85 -82 36 -13 51
-24 53 -40 7 -45 -75 -56 -98 -13 -13 24 -50 27 -50 5 0 -9 11 -27 25 -40 19
-19 35 -25 70 -25 56 0 83 13 95 46 17 44 -4 72 -75 104 -36 16 -65 35 -65 43
0 38 71 52 92 17 17 -27 58 -27 51 -1 -3 11 -13 27 -23 36 -20 18 -85 29 -110
18z"/>
<path d="M2070 4781 c0 -10 -9 -21 -20 -24 -11 -3 -20 -10 -20 -17 0 -7 9 -14
20 -17 17 -5 20 -14 20 -72 0 -74 10 -91 52 -91 33 0 39 25 8 33 -17 4 -20 14
-20 65 0 51 3 60 20 65 11 3 20 10 20 17 0 7 -9 14 -20 17 -11 3 -20 14 -20
24 0 12 -7 19 -20 19 -13 0 -20 -7 -20 -19z"/>
<path d="M3790 4780 c0 -11 -7 -20 -15 -20 -8 0 -15 -9 -15 -20 0 -11 7 -20
15 -20 12 0 15 -13 15 -61 0 -76 12 -99 50 -99 32 0 42 23 15 34 -11 4 -15 21
-15 66 0 47 3 60 15 60 8 0 15 9 15 20 0 11 -7 20 -15 20 -8 0 -15 9 -15 20 0
15 -7 20 -25 20 -18 0 -25 -5 -25 -20z"/>
<path d="M4450 4780 c0 -11 -7 -20 -15 -20 -8 0 -15 -9 -15 -20 0 -11 7 -20
15 -20 12 0 15 -13 15 -61 0 -33 5 -69 10 -80 13 -24 70 -27 70 -4 0 8 -7 15
-15 15 -12 0 -15 14 -15 65 0 51 3 65 15 65 8 0 15 9 15 20 0 11 -7 20 -15 20
-8 0 -15 9 -15 20 0 15 -7 20 -25 20 -18 0 -25 -5 -25 -20z"/>
<path d="M705 4735 c-20 -19 -25 -34 -25 -75 0 -66 30 -100 88 -100 56 0 87
36 87 102 0 42 -4 53 -28 74 -38 32 -90 32 -122 -1z m93 -27 c7 -7 12 -31 12
-55 0 -37 -4 -45 -25 -55 -48 -22 -85 47 -55 103 12 21 50 25 68 7z"/>
<path d="M900 4660 c0 -93 1 -100 20 -100 17 0 19 8 22 78 l3 77 30 0 30 0 3
-77 c3 -75 4 -78 27 -78 23 0 24 3 27 78 l3 77 30 0 30 0 3 -77 c3 -75 4 -78
27 -78 24 0 25 3 25 64 0 114 -32 155 -102 128 -20 -7 -36 -7 -57 1 -22 8 -36
8 -55 -1 -16 -7 -26 -8 -26 -2 0 6 -9 10 -20 10 -19 0 -20 -7 -20 -100z"/>
<path d="M1220 4660 c0 -100 0 -100 25 -100 23 0 24 3 27 78 l3 77 30 0 30 0
3 -77 c3 -70 5 -78 22 -78 18 0 20 7 20 68 0 72 10 92 46 92 28 0 34 -17 34
-96 0 -57 2 -64 20 -64 18 0 20 7 20 78 0 90 -15 122 -58 122 -15 0 -37 -7
-49 -15 -18 -13 -22 -13 -33 0 -14 17 -53 20 -81 5 -13 -7 -19 -7 -19 0 0 5
-9 10 -20 10 -19 0 -20 -7 -20 -100z"/>
<path d="M1543 4744 c-9 -24 4 -154 18 -170 8 -9 32 -13 80 -12 l69 1 0 99 c0
97 0 99 -22 96 -21 -3 -23 -9 -26 -80 -3 -80 -13 -95 -53 -83 -16 6 -19 17
-19 86 0 73 -2 79 -20 79 -11 0 -23 -7 -27 -16z"/>
<path d="M1757 4753 c-4 -3 -7 -48 -7 -100 0 -92 0 -93 25 -93 23 0 24 3 27
78 l3 77 30 0 30 0 3 -77 c3 -75 4 -78 27 -78 24 0 25 3 25 64 0 67 -12 115
-33 128 -19 12 -62 9 -76 -4 -11 -10 -14 -10 -18 0 -5 13 -25 16 -36 5z"/>
<path d="M1967 4754 c-4 -4 -7 -49 -7 -101 0 -93 0 -93 25 -93 l26 0 -3 97
c-2 79 -6 98 -18 101 -9 1 -19 0 -23 -4z"/>
<path d="M2160 4758 c0 -2 16 -47 35 -101 27 -76 33 -102 25 -118 -6 -10 -17
-19 -25 -19 -8 0 -15 -9 -15 -20 0 -23 27 -27 53 -7 15 11 97 226 97 255 0 6
-9 12 -20 12 -16 0 -23 -13 -37 -60 -10 -33 -21 -60 -24 -60 -3 0 -14 27 -24
60 -15 51 -22 60 -42 60 -12 0 -23 -1 -23 -2z"/>
<path d="M2710 4660 c0 -93 1 -100 20 -100 18 0 20 7 20 71 0 69 1 71 30 82
18 7 30 19 30 29 0 21 -30 24 -48 6 -9 -9 -12 -9 -12 0 0 7 -9 12 -20 12 -19
0 -20 -7 -20 -100z"/>
<path d="M2855 4735 c-20 -19 -25 -34 -25 -75 0 -66 30 -100 88 -100 56 0 87
36 87 102 0 42 -4 53 -28 74 -38 32 -90 32 -122 -1z m93 -27 c7 -7 12 -31 12
-55 0 -37 -4 -45 -25 -55 -48 -22 -85 47 -55 103 12 21 50 25 68 7z"/>
<path d="M3050 4671 c0 -61 4 -92 13 -99 7 -6 43 -11 80 -10 l67 1 0 99 c0 97
0 99 -22 96 -21 -3 -23 -9 -26 -80 -2 -67 -5 -78 -23 -83 -36 -12 -49 11 -49
91 0 67 -2 74 -20 74 -18 0 -20 -7 -20 -89z"/>
<path d="M3254 4745 c-3 -6 -3 -67 -2 -136 3 -116 4 -124 23 -124 16 0 21 8
23 40 3 40 4 41 36 37 48 -6 74 12 86 58 13 47 5 87 -23 117 -16 18 -29 22
-79 20 -33 -1 -62 -6 -64 -12z m114 -37 c27 -27 6 -118 -28 -118 -31 0 -40 14
-40 64 0 29 3 56 7 59 11 11 48 8 61 -5z"/>
<path d="M3910 4660 c0 -93 1 -100 20 -100 18 0 20 7 20 68 0 70 10 92 42 92
11 0 18 7 18 20 0 23 -29 27 -48 8 -9 -9 -12 -9 -12 0 0 7 -9 12 -20 12 -19 0
-20 -7 -20 -100z"/>
<path d="M4040 4676 c0 -107 7 -116 95 -114 l65 1 0 98 c0 92 -1 99 -20 99
-18 0 -20 -7 -20 -69 0 -70 -14 -101 -44 -101 -26 0 -36 26 -36 97 0 66 -2 73
-20 73 -18 0 -20 -7 -20 -84z"/>
<path d="M4265 4735 c-20 -19 -25 -34 -25 -73 0 -70 27 -102 85 -102 36 0 48
5 65 28 l22 27 -21 3 c-12 2 -28 -4 -37 -12 -46 -47 -98 31 -64 95 13 23 58
26 66 4 4 -8 16 -15 29 -15 18 0 22 4 18 20 -14 52 -97 67 -138 25z"/>
<path d="M4567 4754 c-12 -12 -7 -138 6 -164 11 -23 19 -25 85 -27 l73 -2 -3
97 c-3 89 -5 97 -23 97 -18 0 -20 -8 -23 -70 -3 -76 -14 -98 -46 -93 -19 3
-22 11 -26 83 -4 61 -9 80 -20 83 -9 1 -19 0 -23 -4z"/>
<path d="M4770 4660 l0 -100 25 0 c24 0 25 2 25 75 0 71 1 75 24 81 29 7 42
32 22 40 -8 3 -24 1 -35 -6 -14 -7 -21 -7 -21 0 0 5 -9 10 -20 10 -19 0 -20
-7 -20 -100z"/>
<path d="M4937 4749 c-50 -29 -59 -120 -16 -165 26 -28 93 -33 125 -10 26 20
6 43 -24 27 -28 -15 -48 -14 -66 5 -27 26 -18 33 47 36 l62 3 -3 35 c-5 62
-73 99 -125 69z m81 -51 c3 -15 -4 -18 -37 -18 -44 0 -44 0 -35 25 9 22 68 17
72 -7z"/>
<path d="M7900 4275 l0 -205 430 0 430 0 0 205 0 205 -430 0 -430 0 0 -205z
m850 0 l0 -195 -420 0 -420 0 0 195 0 195 420 0 420 0 0 -195z"/>
<path d="M8263 4304 c-4 -10 0 -22 10 -29 23 -17 21 -28 -3 -22 -11 3 -20 1
-20 -4 0 -13 48 -11 56 2 4 7 -4 20 -17 30 -13 10 -21 21 -17 25 4 4 15 1 24
-7 15 -12 17 -12 12 1 -7 22 -37 24 -45 4z"/>
<path d="M8366 4301 c-26 -29 -17 -56 19 -56 20 0 31 6 33 18 2 11 -3 17 -15
17 -14 0 -15 -2 -4 -9 17 -11 -3 -25 -24 -17 -19 7 -19 17 -1 41 12 16 16 17
30 6 9 -7 16 -9 16 -3 0 5 -7 13 -16 16 -21 8 -18 9 -38 -13z"/>
<path d="M8325 4280 c-4 -17 -5 -34 -2 -36 3 -3 8 9 12 26 4 17 5 34 2 36 -3
3 -8 -9 -12 -26z"/>
<path d="M451 4353 c-22 -82 -91 -362 -91 -368 0 -3 207 -5 460 -5 253 0 460
2 460 5 0 6 -69 286 -91 368 l-10 37 -359 0 -359 0 -10 -37z m728 -10 c6 -21
28 -109 49 -195 l40 -158 -448 0 -448 0 40 158 c21 86 43 174 49 195 l10 37
349 0 349 0 10 -37z"/>
<path d="M602 4288 c-16 -16 -15 -49 1 -72 17 -23 60 -18 65 8 4 19 3 19 -13
2 -24 -23 -39 -15 -43 22 -4 37 19 52 45 31 14 -12 16 -12 11 1 -6 19 -49 25
-66 8z"/>
<path d="M810 4286 c0 -8 -10 -16 -22 -18 -18 -2 -23 -10 -23 -33 0 -25 4 -30
28 -33 26 -3 27 -2 27 47 0 28 -2 51 -5 51 -3 0 -5 -6 -5 -14z m-3 -42 c8 -21
-13 -42 -28 -27 -13 13 -5 43 11 43 6 0 13 -7 17 -16z"/>
<path d="M1027 4293 c-11 -10 -8 -81 3 -88 9 -5 16 41 11 69 -1 5 4 13 11 17
10 7 9 9 -3 9 -9 0 -19 -3 -22 -7z"/>
<path d="M686 4254 c-8 -22 12 -56 31 -52 22 4 38 32 30 52 -8 21 -53 21 -61
0z m51 -9 c5 -16 -14 -38 -26 -31 -18 12 -13 48 6 44 9 -2 18 -7 20 -13z"/>
<path d="M835 4250 c-11 -34 32 -68 50 -40 3 5 0 7 -8 4 -8 -3 -18 -1 -22 5
-4 7 4 11 20 11 21 0 26 4 21 16 -3 9 -6 18 -6 20 0 2 -11 4 -24 4 -16 0 -27
-7 -31 -20z m45 0 c0 -5 -7 -10 -15 -10 -8 0 -15 5 -15 10 0 6 7 10 15 10 8 0
15 -4 15 -10z"/>
<path d="M945 4249 c-10 -30 18 -58 43 -43 9 6 17 22 17 35 0 34 -50 41 -60 8z
m52 -4 c5 -16 -14 -38 -26 -31 -18 12 -13 48 6 44 9 -2 18 -7 20 -13z"/>
<path d="M591 4126 c-17 -20 -10 -67 12 -80 19 -12 48 0 55 25 3 9 -2 8 -16
-5 -18 -15 -24 -16 -37 -6 -19 16 -19 44 0 60 12 10 19 10 27 2 17 -17 33 -15
18 3 -16 19 -44 19 -59 1z"/>
<path d="M870 4126 c0 -8 -10 -16 -22 -18 -18 -2 -23 -10 -23 -33 0 -25 4 -30
28 -33 26 -3 27 -2 27 47 0 28 -2 51 -5 51 -3 0 -5 -6 -5 -14z m-3 -42 c1 -5
-2 -16 -7 -24 -12 -20 -35 2 -26 25 6 17 27 16 33 -1z"/>
<path d="M1038 4119 c-2 -7 -18 -13 -34 -14 -26 0 -29 -4 -29 -30 0 -23 5 -31
21 -33 13 -2 24 4 28 14 5 14 4 15 -8 5 -19 -16 -36 -6 -36 19 0 15 6 19 30
17 26 -2 30 -6 30 -29 0 -16 4 -28 9 -28 4 0 7 18 5 41 -3 44 -9 58 -16 38z"/>
<path d="M674 4096 c-10 -26 1 -51 23 -54 25 -4 46 27 37 52 -8 20 -53 21 -60
2z m46 -15 c0 -11 -5 -23 -11 -27 -15 -9 -33 12 -26 30 9 23 37 20 37 -3z"/>
<path d="M752 4073 c1 -37 1 -37 5 -5 6 43 33 44 33 0 0 -23 3 -29 11 -21 6 6
9 21 7 34 -2 18 -10 25 -30 27 -26 3 -28 1 -26 -35z"/>
<path d="M902 4078 c-2 -34 0 -38 23 -38 22 0 25 4 24 38 -1 35 -2 35 -8 8 -9
-42 -29 -44 -34 -4 l-4 33 -1 -37z"/>
<path d="M1430 4386 c0 -2 -20 -92 -45 -200 -25 -109 -45 -199 -45 -202 0 -2
211 -4 470 -4 259 0 470 2 470 5 0 6 -69 286 -91 368 l-10 37 -374 0 c-206 0
-375 -2 -375 -4z m749 -43 c6 -21 28 -109 49 -195 l40 -158 -458 0 c-431 0
-458 1 -454 18 2 9 20 87 39 172 19 85 37 165 40 178 l5 22 365 0 364 0 10
-37z"/>
<path d="M1582 4288 c-14 -17 -4 -33 26 -42 12 -4 22 -11 22 -16 0 -15 -21
-23 -33 -11 -17 17 -31 13 -17 -4 16 -19 44 -19 60 0 15 18 6 33 -28 46 -19 7
-22 13 -14 21 8 8 16 7 28 -3 15 -12 17 -12 12 1 -6 20 -42 25 -56 8z"/>
<path d="M1952 4248 c2 -23 8 -43 14 -45 7 -2 9 8 6 27 -5 38 13 39 26 1 7
-20 7 -32 -1 -40 -6 -6 -8 -13 -5 -17 9 -8 36 36 43 71 l6 30 -14 -24 -15 -24
-6 21 c-4 12 -14 22 -22 22 -8 0 -14 5 -14 10 0 6 -5 10 -11 10 -6 0 -9 -17
-7 -42z"/>
<path d="M1664 4256 c-11 -29 0 -51 26 -51 21 0 25 5 25 30 0 24 -5 31 -23 33
-13 2 -24 -3 -28 -12z m46 -6 c0 -5 -7 -10 -15 -10 -8 0 -15 5 -15 10 0 6 7
10 15 10 8 0 15 -4 15 -10z m-8 -32 c-9 -9 -15 -9 -24 0 -9 9 -7 12 12 12 19
0 21 -3 12 -12z"/>
<path d="M1735 4249 c-5 -13 -1 -27 8 -36 16 -17 47 -11 47 8 0 8 -4 9 -13 0
-17 -13 -27 -5 -27 22 0 14 5 18 20 14 11 -3 20 -1 20 4 0 5 -11 9 -24 9 -16
0 -27 -7 -31 -21z"/>
<path d="M1802 4238 c3 -28 7 -33 31 -34 25 -1 27 2 26 35 -1 35 -2 35 -8 7
-9 -41 -31 -46 -31 -7 0 17 -5 31 -11 31 -6 0 -9 -14 -7 -32z"/>
<path d="M1881 4233 c2 -35 2 -35 6 -8 3 16 10 33 16 37 8 5 6 8 -5 8 -14 0
-18 -8 -17 -37z"/>
<path d="M1920 4234 c0 -21 4 -33 10 -29 6 3 10 19 10 36 0 16 -4 29 -10 29
-5 0 -10 -16 -10 -36z"/>
<path d="M1521 4088 c1 -29 4 -43 6 -30 5 27 29 29 45 2 7 -11 17 -20 22 -20
4 0 1 11 -8 25 -10 15 -12 25 -6 25 6 0 10 10 8 23 -2 17 -11 23 -35 25 l-33
3 1 -53z m57 25 c2 -8 -6 -13 -22 -13 -17 0 -26 5 -26 16 0 19 41 16 48 -3z"/>
<path d="M1614 4096 c-11 -29 0 -51 26 -51 21 0 25 5 25 30 0 24 -5 31 -23 33
-13 2 -24 -3 -28 -12z m36 -6 c0 -5 -4 -10 -9 -10 -6 0 -13 5 -16 10 -3 6 1
10 9 10 9 0 16 -4 16 -10z m2 -32 c-9 -9 -15 -9 -24 0 -9 9 -7 12 12 12 19 0
21 -3 12 -12z"/>
<path d="M1684 4098 c-4 -6 -3 -13 2 -15 22 -8 38 -22 31 -29 -3 -4 -14 -1
-23 7 -15 12 -17 12 -12 -1 6 -19 37 -25 52 -10 8 8 5 16 -14 31 -16 14 -19
19 -7 15 9 -3 17 -1 17 4 0 14 -37 12 -46 -2z"/>
<path d="M1750 4063 c0 -26 4 -43 8 -37 4 7 16 13 27 15 15 3 20 12 20 34 0
25 -4 31 -27 33 -27 3 -28 2 -28 -45z m45 12 c0 -10 -5 -20 -11 -22 -13 -4
-27 24 -18 38 9 15 29 4 29 -16z"/>
<path d="M1824 4095 c-14 -37 26 -69 53 -42 22 22 8 57 -23 57 -14 0 -27 -7
-30 -15z m46 -13 c0 -10 -3 -22 -7 -25 -10 -11 -32 13 -26 29 8 20 33 17 33
-4z"/>
<path d="M1901 4073 c1 -35 2 -36 8 -9 9 41 31 46 31 7 0 -17 5 -31 11 -31 6
0 9 14 7 33 -2 27 -8 33 -30 35 -26 3 -28 1 -27 -35z"/>
<path d="M1970 4096 c0 -8 9 -18 20 -21 11 -3 20 -11 20 -16 0 -13 -14 -11
-29 4 -11 10 -13 9 -9 -3 6 -18 50 -20 55 -3 2 6 -8 19 -24 28 -24 14 -24 15
-5 12 12 -3 22 -1 22 4 0 5 -11 9 -25 9 -15 0 -25 -6 -25 -14z"/>
<path d="M2044 4096 c-11 -29 0 -51 26 -51 21 0 25 5 25 30 0 24 -5 31 -23 33
-13 2 -24 -3 -28 -12z m36 -6 c0 -5 -4 -10 -9 -10 -6 0 -13 5 -16 10 -3 6 1
10 9 10 9 0 16 -4 16 -10z m2 -32 c-9 -9 -15 -9 -24 0 -9 9 -7 12 12 12 19 0
21 -3 12 -12z"/>
<path d="M2451 4353 c-22 -82 -91 -362 -91 -368 0 -3 207 -5 460 -5 253 0 460
2 460 5 0 6 -69 286 -91 368 l-10 37 -359 0 -359 0 -10 -37z m728 -10 c6 -21
28 -109 49 -195 l40 -158 -448 0 -448 0 40 158 c21 86 43 174 49 195 l10 37
349 0 349 0 10 -37z"/>
<path d="M2583 4204 c-7 -18 20 -44 44 -44 7 0 13 -5 13 -10 0 -18 -29 -23
-47 -9 -14 12 -16 12 -11 -1 3 -9 17 -15 34 -15 22 0 30 5 32 21 2 16 -4 24
-28 33 -17 6 -29 15 -25 21 8 13 35 13 35 0 0 -5 5 -10 11 -10 8 0 8 5 -1 15
-17 20 -49 19 -57 -1z"/>
<path d="M2668 4200 c-5 -17 3 -80 11 -80 7 0 6 79 -2 86 -3 3 -7 0 -9 -6z"/>
<path d="M2704 4176 c-11 -29 0 -51 26 -51 21 0 25 5 25 30 0 24 -5 31 -23 33
-13 2 -24 -3 -28 -12z m46 -6 c0 -5 -7 -10 -15 -10 -8 0 -15 5 -15 10 0 6 7
10 15 10 8 0 15 -4 15 -10z m-8 -32 c-9 -9 -15 -9 -24 0 -9 9 -7 12 12 12 19
0 21 -3 12 -12z"/>
<path d="M2775 4170 c-11 -34 32 -69 50 -40 3 5 0 7 -8 4 -8 -3 -18 -1 -22 5
-4 7 4 11 20 11 36 0 30 34 -7 38 -19 2 -28 -2 -33 -18z m45 0 c0 -5 -7 -10
-15 -10 -8 0 -15 5 -15 10 0 6 7 10 15 10 8 0 15 -4 15 -10z"/>
<path d="M2851 4153 c1 -38 1 -38 9 -9 5 16 15 33 22 37 9 6 6 9 -9 9 -20 0
-23 -5 -22 -37z"/>
<path d="M2903 4155 c0 -22 2 -30 4 -17 2 12 2 30 0 40 -3 9 -5 -1 -4 -23z"/>
<path d="M2920 4161 c0 -17 5 -33 10 -36 6 -4 10 7 10 24 0 43 27 41 33 -1 4
-32 4 -32 5 5 2 35 0 37 -28 37 -27 0 -30 -3 -30 -29z"/>
<path d="M2999 4173 c-1 -10 0 -22 1 -28 2 -5 2 -18 2 -28 0 -10 6 -21 14 -24
24 -9 44 17 44 58 0 37 -2 39 -30 39 -21 0 -30 -5 -31 -17z m39 -15 c-2 -13
-7 -23 -13 -23 -5 0 -11 10 -13 23 -2 15 2 22 13 22 11 0 15 -7 13 -22z m-1
-44 c-3 -3 -12 -4 -19 -1 -8 3 -5 6 6 6 11 1 17 -2 13 -5z"/>
<path d="M120 3992 c0 -7 -9 -12 -20 -12 -11 0 -20 -4 -20 -10 0 -5 9 -10 20
-10 11 0 20 -5 20 -12 0 -9 3 -9 12 0 7 7 33 12 59 12 32 0 49 5 52 15 7 17
-9 30 -18 15 -9 -14 -78 -13 -93 2 -9 9 -12 9 -12 0z"/>
<path d="M7926 3979 l-26 -20 0 -160 c0 -156 1 -160 25 -184 l24 -25 381 0
381 0 24 25 c24 24 25 28 25 184 l0 160 -26 20 c-26 20 -37 21 -404 21 -367 0
-378 -1 -404 -21z m804 -9 c18 -18 20 -33 20 -169 0 -135 -2 -151 -21 -175
l-20 -26 -377 0 c-467 0 -422 -21 -422 197 0 140 2 155 20 173 19 19 33 20
400 20 367 0 381 -1 400 -20z"/>
<path d="M8151 3868 c-1 -43 9 -48 32 -15 l16 22 0 -22 c1 -33 15 -28 34 12 9
19 13 35 8 35 -4 0 -13 -10 -19 -22 l-11 -23 0 23 c-1 30 -19 28 -34 -5 l-12
-27 -6 30 c-6 28 -7 27 -8 -8z"/>
<path d="M8351 3893 c0 -7 -9 -13 -20 -13 -11 0 -21 -9 -24 -22 -8 -29 -1 -36
8 -9 9 28 25 27 26 -1 0 -13 3 -17 6 -10 4 10 8 10 21 0 14 -11 15 -10 9 6 -5
12 -3 23 5 29 9 6 8 7 -4 3 -10 -3 -18 1 -21 12 -3 9 -5 11 -6 5z"/>
<path d="M8245 3859 c-12 -37 35 -48 49 -12 8 20 -1 33 -24 33 -10 0 -22 -10
-25 -21z m35 -3 c0 -8 -4 -17 -9 -21 -12 -7 -24 12 -16 25 9 15 25 12 25 -4z"/>
<path d="M8395 3860 c-4 -12 -5 -24 -2 -27 3 -2 8 5 12 17 4 12 5 24 2 27 -3
2 -8 -5 -12 -17z"/>
<path d="M8418 3855 c-3 -14 -1 -25 3 -25 5 0 9 9 9 20 0 28 20 25 21 -2 0
-22 1 -22 8 -3 10 25 5 35 -18 35 -12 0 -20 -9 -23 -25z"/>
<path d="M8476 3863 c-4 -11 -1 -22 8 -29 21 -15 20 -28 -1 -19 -15 5 -16 4
-5 -6 16 -17 37 3 46 44 6 24 3 27 -18 27 -13 0 -27 -8 -30 -17z m34 -8 c0 -8
-4 -15 -10 -15 -5 0 -10 7 -10 15 0 8 5 15 10 15 6 0 10 -7 10 -15z"/>
<path d="M8207 3743 c-13 -12 -7 -43 8 -43 8 0 15 -5 15 -11 0 -6 -7 -8 -17
-4 -14 5 -15 4 -6 -6 17 -17 40 3 45 41 4 25 1 30 -17 30 -12 0 -25 -3 -28 -7z
m33 -18 c0 -8 -7 -15 -15 -15 -16 0 -20 12 -8 23 11 12 23 8 23 -8z"/>
<path d="M8264 3728 c-3 -11 -4 -22 -1 -25 3 -2 8 5 12 16 3 12 11 21 17 21 5
0 8 -6 5 -14 -3 -8 1 -20 9 -27 12 -10 18 -9 31 4 24 24 10 45 -31 45 -26 0
-37 -5 -42 -20z m76 8 c0 -2 -3 -11 -6 -20 -9 -23 -24 -20 -24 4 0 11 7 20 15
20 8 0 15 -2 15 -4z"/>
<path d="M8361 3723 c0 -18 3 -33 8 -33 16 0 41 30 41 48 -1 11 -7 6 -17 -13
l-17 -30 -7 30 -7 30 -1 -32z"/>
<path d="M8415 3714 c-3 -20 -4 -39 -1 -42 3 -3 6 2 6 11 0 10 5 14 14 11 16
-6 40 31 31 46 -3 6 -14 10 -24 10 -14 0 -21 -10 -26 -36z m35 12 c0 -8 -4
-18 -10 -21 -5 -3 -10 3 -10 14 0 12 5 21 10 21 6 0 10 -6 10 -14z"/>
<path d="M132 3918 c-15 -15 -15 -61 0 -76 7 -7 29 -12 50 -12 48 0 77 36 60
75 -7 14 -18 25 -27 25 -20 0 -19 -10 3 -26 13 -10 15 -17 6 -31 -14 -23 -67
-29 -83 -10 -12 15 -5 47 10 47 5 0 9 5 9 10 0 14 -13 13 -28 -2z"/>
<path d="M3360 3685 l0 -205 460 0 460 0 0 205 0 205 -460 0 -460 0 0 -205z
m910 0 l0 -195 -450 0 -450 0 0 195 0 195 450 0 450 0 0 -195z"/>
<path d="M3580 3685 c0 -25 5 -45 10 -45 6 0 10 9 10 20 0 26 8 25 37 -2 13
-12 23 -16 23 -10 0 6 -5 14 -10 17 -8 5 -7 11 1 21 19 23 3 44 -36 44 -35 0
-35 0 -35 -45z m65 20 c0 -5 -10 -11 -22 -13 -16 -2 -23 2 -23 13 0 11 7 15
23 13 12 -2 22 -7 22 -13z"/>
<path d="M3753 3685 c0 -27 2 -38 4 -22 2 15 2 37 0 50 -2 12 -4 0 -4 -28z"/>
<path d="M3680 3691 c-16 -32 13 -72 41 -55 17 10 9 22 -11 17 -11 -3 -20 0
-20 6 0 6 11 11 25 11 27 0 32 9 13 28 -18 18 -36 15 -48 -7z m35 -1 c3 -5 -1
-10 -10 -10 -9 0 -13 5 -10 10 3 6 8 10 10 10 2 0 7 -4 10 -10z"/>
<path d="M3793 3703 c-18 -7 -16 -48 3 -63 12 -11 18 -11 30 2 14 14 13 15
-10 11 -15 -3 -26 -1 -26 6 0 6 11 11 25 11 27 0 32 9 13 28 -13 13 -16 13
-35 5z m32 -13 c3 -5 -3 -10 -15 -10 -12 0 -18 5 -15 10 3 6 10 10 15 10 5 0
12 -4 15 -10z"/>
<path d="M3864 3699 c-5 -9 -2 -10 9 -6 9 3 19 2 22 -2 2 -5 -6 -12 -20 -15
-26 -7 -34 -31 -12 -39 29 -10 48 5 45 37 -3 32 -30 48 -44 25z m36 -38 c0 -5
-7 -11 -15 -15 -15 -5 -20 5 -8 17 9 10 23 9 23 -2z"/>
<path d="M3937 3703 c-13 -13 -7 -30 16 -42 l22 -12 -22 5 c-13 2 -23 0 -23
-4 0 -14 17 -21 34 -14 22 9 20 35 -4 41 -11 3 -17 9 -15 14 3 4 13 5 22 2 11
-4 14 -3 9 5 -8 13 -29 16 -39 5z"/>
<path d="M4002 3698 c-27 -27 1 -73 36 -61 20 8 14 22 -8 16 -11 -3 -20 0 -20
6 0 6 11 11 25 11 23 0 24 2 15 20 -12 23 -30 26 -48 8z m33 -8 c3 -5 -1 -10
-10 -10 -9 0 -13 5 -10 10 3 6 8 10 10 10 2 0 7 -4 10 -10z"/>
<path d="M4360 3685 l0 -205 460 0 460 0 0 205 0 205 -460 0 -460 0 0 -205z
m910 0 l0 -195 -450 0 -450 0 0 195 0 195 450 0 450 0 0 -195z"/>
<path d="M4622 3723 c12 -3 18 -17 21 -46 l4 -42 1 42 c2 35 6 42 25 46 12 2
2 4 -23 4 -25 1 -37 -1 -28 -4z"/>
<path d="M4827 3724 c-13 -13 -8 -84 6 -84 9 0 12 12 9 38 -5 50 -6 54 -15 46z"/>
<path d="M4693 3703 c-18 -7 -16 -48 3 -63 12 -11 18 -11 30 2 14 14 13 15
-10 11 -15 -3 -26 -1 -26 6 0 6 11 11 25 11 27 0 32 9 13 28 -13 13 -16 13
-35 5z m32 -13 c3 -5 -3 -10 -15 -10 -12 0 -18 5 -15 10 3 6 10 10 15 10 5 0
12 -4 15 -10z"/>
<path d="M4760 3700 c-13 -9 -11 -13 10 -31 l25 -21 -24 6 c-22 5 -23 4 -8
-11 13 -13 19 -14 31 -3 21 17 20 27 -4 35 -11 3 -20 11 -20 17 0 5 7 7 16 4
8 -3 12 -2 9 4 -8 12 -16 12 -35 0z"/>
<path d="M4863 3675 c0 -22 2 -30 4 -17 2 12 2 30 0 40 -3 9 -5 -1 -4 -23z"/>
<path d="M4891 3671 c1 -36 1 -36 8 -6 7 36 25 36 29 0 4 -32 22 -33 22 -1 0
27 -17 43 -42 43 -14 0 -18 -8 -17 -36z"/>
<path d="M4971 3701 c-21 -14 -9 -54 19 -62 21 -5 22 -7 8 -14 -9 -4 -23 -3
-30 1 -10 5 -10 4 -2 -5 7 -7 20 -11 30 -9 28 5 33 93 6 95 -10 1 -24 -2 -31
-6z m37 -30 c-5 -24 -38 -27 -38 -3 0 10 3 21 6 25 11 11 35 -5 32 -22z"/>
<path d="M5360 3685 l0 -205 460 0 460 0 0 205 0 205 -460 0 -460 0 0 -205z
m910 0 l0 -195 -450 0 -450 0 0 195 0 195 450 0 450 0 0 -195z"/>
<path d="M5570 3708 c1 -61 24 -87 61 -68 14 8 19 21 18 53 l-2 42 -6 -40 c-5
-32 -11 -41 -28 -43 -21 -3 -23 1 -23 37 0 23 -4 41 -10 41 -5 0 -10 -10 -10
-22z"/>
<path d="M5811 3689 c-1 -35 3 -48 15 -53 20 -8 44 11 44 34 0 21 -25 44 -39
36 -5 -4 -12 2 -14 11 -3 10 -5 -3 -6 -28z m46 -23 c-4 -9 -11 -16 -17 -16
-17 0 -24 31 -9 41 18 11 34 -5 26 -25z"/>
<path d="M5910 3685 c0 -25 5 -45 10 -45 6 0 10 20 10 45 0 25 -4 45 -10 45
-5 0 -10 -20 -10 -45z"/>
<path d="M5978 3718 c-7 -16 2 -77 11 -83 8 -4 5 84 -2 91 -3 3 -7 -1 -9 -8z"/>
<path d="M5677 3703 c-13 -13 -7 -30 16 -42 l22 -12 -22 5 c-13 2 -23 1 -23
-4 0 -12 25 -19 40 -10 17 10 5 40 -15 40 -9 0 -14 4 -10 10 3 5 13 6 22 3 11
-4 14 -3 9 5 -8 13 -29 16 -39 5z"/>
<path d="M5744 3699 c-5 -9 -2 -10 9 -6 9 3 19 2 22 -3 4 -6 0 -10 -8 -10 -24
0 -40 -25 -23 -39 23 -20 47 -2 44 33 -3 32 -30 48 -44 25z m36 -39 c0 -5 -7
-10 -16 -10 -8 0 -12 5 -9 10 3 6 10 10 16 10 5 0 9 -4 9 -10z"/>
<path d="M5880 3670 c0 -16 5 -30 10 -30 6 0 10 14 10 30 0 17 -4 30 -10 30
-5 0 -10 -13 -10 -30z"/>
<path d="M5940 3670 c0 -16 5 -30 10 -30 6 0 10 14 10 30 0 17 -4 30 -10 30
-5 0 -10 -13 -10 -30z"/>
<path d="M6011 3698 c-1 -4 4 -19 9 -34 7 -19 7 -30 -1 -40 -9 -11 -9 -14 0
-14 7 0 19 16 27 35 17 42 18 68 0 37 l-12 -23 -12 23 c-6 13 -11 20 -11 16z"/>
<path d="M6360 3685 l0 -205 460 0 460 0 0 205 0 205 -460 0 -460 0 0 -205z
m910 0 l0 -195 -450 0 -450 0 0 195 0 195 450 0 450 0 0 -195z"/>
<path d="M6560 3685 c0 -25 5 -45 10 -45 6 0 10 9 10 20 0 11 3 20 8 20 4 0
13 -9 20 -20 7 -11 17 -20 23 -20 6 0 1 12 -10 27 -20 25 -21 27 -4 47 13 16
11 15 -10 -3 -27 -24 -27 -24 -27 -3 0 12 -4 22 -10 22 -5 0 -10 -20 -10 -45z"/>
<path d="M6659 3728 c-1 -2 -3 -22 -5 -45 -3 -31 0 -43 12 -47 26 -10 43 12
40 52 -1 30 -6 38 -24 40 -12 2 -22 2 -23 0z m31 -23 c0 -8 -4 -15 -10 -15 -5
0 -10 7 -10 15 0 8 5 15 10 15 6 0 10 -7 10 -15z m8 -43 c2 -7 -6 -12 -17 -12
-21 0 -27 11 -14 24 9 9 26 2 31 -12z"/>
<path d="M6937 3717 c-3 -8 -2 -29 3 -48 l8 -34 2 30 c1 17 3 38 5 48 4 20
-10 23 -18 4z"/>
<path d="M6730 3700 c-13 -9 -11 -13 10 -31 l25 -21 -24 6 c-22 5 -23 4 -8
-11 13 -13 19 -14 31 -3 21 17 20 27 -4 35 -11 3 -20 11 -20 17 0 5 7 7 16 4
8 -3 12 -2 9 4 -8 12 -16 12 -35 0z"/>
<path d="M6833 3675 c0 -22 2 -30 4 -17 2 12 2 30 0 40 -3 9 -5 -1 -4 -23z"/>
<path d="M6861 3671 c1 -36 1 -36 8 -6 7 36 25 36 29 0 4 -32 22 -33 22 -1 0
27 -17 43 -42 43 -14 0 -18 -8 -17 -36z"/>
<path d="M6971 3671 c2 -30 3 -32 6 -8 2 15 9 27 14 27 5 0 9 4 9 8 0 5 -7 9
-15 9 -11 0 -15 -10 -14 -36z"/>
<path d="M7025 3701 c-3 -6 0 -8 8 -5 8 3 18 1 21 -4 3 -6 -5 -13 -19 -16 -26
-7 -34 -31 -12 -39 29 -10 48 5 45 37 -3 31 -30 48 -43 27z m35 -40 c0 -13
-28 -22 -35 -11 -3 4 1 11 7 13 20 8 28 8 28 -2z"/>
<path d="M360 3670 l0 -200 460 0 460 0 0 200 0 200 -460 0 -460 0 0 -200z
m910 0 l0 -190 -450 0 -450 0 0 190 0 190 450 0 450 0 0 -190z"/>
<path d="M490 3695 c-6 -14 -14 -36 -20 -50 -6 -16 -6 -25 0 -25 6 0 10 7 10
15 0 21 46 19 54 -1 4 -9 9 -15 11 -12 6 6 -32 98 -40 98 -3 0 -10 -11 -15
-25z m30 -27 c0 -5 -6 -8 -14 -8 -9 0 -12 7 -9 21 4 16 8 17 14 7 5 -7 9 -16
9 -20z"/>
<path d="M672 3670 c0 -39 2 -47 7 -26 8 38 31 47 31 12 0 -13 5 -28 11 -31 7
-5 9 5 7 26 -2 26 -8 35 -25 37 -12 2 -24 11 -26 20 -3 9 -5 -8 -5 -38z"/>
<path d="M778 3700 c-5 -17 3 -80 11 -80 7 0 6 79 -2 86 -3 3 -7 0 -9 -6z"/>
<path d="M952 3668 c2 -23 8 -43 13 -45 8 -2 11 30 6 80 -1 4 -6 7 -12 7 -6 0
-9 -17 -7 -42z"/>
<path d="M561 3652 c1 -35 2 -36 8 -8 8 39 29 45 33 9 2 -22 8 -28 27 -28 13
0 27 7 29 15 5 13 3 13 -12 1 -20 -17 -42 -1 -32 24 4 11 12 14 27 10 14 -5
19 -3 15 3 -3 6 -26 10 -51 10 l-45 0 1 -36z"/>
<path d="M740 3655 c0 -19 5 -35 10 -35 6 0 10 16 10 35 0 19 -4 35 -10 35 -5
0 -10 -16 -10 -35z"/>
<path d="M814 3676 c-15 -39 23 -74 50 -46 8 9 6 11 -11 6 -12 -4 -24 -2 -28
4 -4 6 4 10 20 10 20 0 26 4 23 18 -4 22 -46 29 -54 8z m41 -6 c3 -5 -3 -10
-15 -10 -12 0 -18 5 -15 10 3 6 10 10 15 10 5 0 12 -4 15 -10z"/>
<path d="M885 3669 c-5 -13 -1 -27 8 -36 16 -17 47 -11 47 8 0 8 -5 8 -16 -2
-13 -10 -17 -10 -24 1 -12 20 0 42 21 37 11 -3 17 -1 13 4 -10 17 -43 9 -49
-12z"/>
<path d="M993 3660 c2 -30 6 -35 30 -38 25 -3 27 -1 27 32 0 20 -4 36 -10 36
-5 0 -10 -14 -10 -31 0 -39 -22 -34 -32 7 -6 27 -6 27 -5 -6z"/>
<path d="M1060 3654 c0 -21 4 -33 10 -29 6 3 10 17 10 30 0 13 6 26 13 28 6 3
2 6 -10 6 -20 1 -23 -4 -23 -35z"/>
<path d="M1105 3670 c-4 -12 -1 -27 5 -35 14 -16 50 -20 50 -6 0 5 -9 7 -20 4
-11 -3 -20 0 -20 6 0 6 12 11 26 11 20 0 25 4 20 16 -3 9 -6 18 -6 20 0 2 -11
4 -24 4 -16 0 -27 -7 -31 -20z m45 0 c0 -5 -7 -10 -15 -10 -8 0 -15 5 -15 10
0 6 7 10 15 10 8 0 15 -4 15 -10z"/>
<path d="M1360 3670 l0 -200 460 0 460 0 0 200 0 200 -460 0 -460 0 0 -200z
m910 0 l0 -190 -450 0 -450 0 0 190 0 190 450 0 450 0 0 -190z"/>
<path d="M1506 3777 c-20 -30 -10 -66 20 -73 23 -6 61 13 49 24 -2 3 -11 -1
-20 -8 -22 -19 -45 -5 -45 29 0 31 26 49 44 31 16 -16 30 -12 16 5 -18 22 -47
18 -64 -8z"/>
<path d="M1851 3752 c-1 -52 -1 -53 27 -50 23 3 27 8 27 33 0 23 -5 31 -22 33
-12 2 -24 11 -26 20 -3 9 -5 -7 -6 -36z m46 -8 c8 -21 -13 -42 -28 -27 -13 13
-5 43 11 43 6 0 13 -7 17 -16z"/>
<path d="M1738 3778 c-6 -19 6 -71 17 -75 8 -2 11 30 6 80 -1 12 -19 8 -23 -5z"/>
<path d="M1998 3778 c-8 -23 7 -71 22 -76 12 -4 13 -2 3 9 -16 16 -17 46 -2
51 7 2 6 8 -4 16 -12 10 -16 10 -19 0z"/>
<path d="M1594 3756 c-11 -29 0 -51 26 -51 21 0 25 5 25 30 0 24 -5 31 -23 33
-13 2 -24 -3 -28 -12z m43 -12 c8 -21 -13 -42 -28 -27 -13 13 -5 43 11 43 6 0
13 -7 17 -16z"/>
<path d="M1672 3733 c1 -37 1 -37 5 -5 3 18 10 32 18 32 8 0 15 -14 18 -32 4
-32 4 -32 5 5 2 33 0 37 -23 37 -23 0 -25 -4 -23 -37z"/>
<path d="M1781 3733 c2 -35 2 -35 6 -8 3 16 10 33 16 37 8 5 6 8 -5 8 -14 0
-18 -8 -17 -37z"/>
<path d="M1823 3735 c0 -22 2 -30 4 -17 2 12 2 30 0 40 -3 9 -5 -1 -4 -23z"/>
<path d="M1932 3738 c-2 -34 0 -38 23 -38 22 0 25 4 24 38 -1 35 -2 35 -8 8
-9 -42 -29 -44 -34 -4 l-4 33 -1 -37z"/>
<path d="M2035 3750 c-7 -23 10 -50 30 -50 20 0 37 27 30 50 -4 13 -15 20 -30
20 -15 0 -26 -7 -30 -20z m45 -15 c0 -16 -6 -25 -15 -25 -9 0 -15 9 -15 25 0
16 6 25 15 25 9 0 15 -9 15 -25z"/>
<path d="M2111 3733 c1 -27 3 -31 6 -13 2 14 12 31 21 38 14 11 13 12 -6 12
-19 0 -22 -5 -21 -37z"/>
<path d="M1497 3633 c-4 -3 -7 -26 -7 -50 l0 -43 43 2 c36 1 38 2 10 5 -40 5
-46 33 -8 33 14 0 25 5 25 10 0 6 -11 10 -25 10 -34 0 -32 28 3 33 26 4 26 4
-4 6 -17 0 -34 -2 -37 -6z"/>
<path d="M1589 3593 c7 -14 8 -24 1 -28 -5 -3 -10 -11 -10 -17 0 -7 5 -6 14 1
10 8 16 9 21 1 3 -5 11 -10 17 -10 7 0 6 5 -2 15 -7 8 -9 23 -4 37 6 19 5 21
-8 11 -11 -10 -17 -10 -27 0 -11 10 -11 8 -2 -10z"/>
<path d="M1651 3558 c1 -29 3 -46 5 -38 3 9 15 20 27 25 14 7 22 19 22 35 0
20 -6 26 -27 28 -28 3 -28 2 -27 -50z m42 29 c3 -8 1 -20 -4 -28 -11 -19 -34
3 -26 25 8 20 23 21 30 3z"/>
<path d="M1724 3596 c-15 -39 23 -74 50 -46 8 9 6 11 -11 6 -12 -4 -24 -2 -28
4 -4 6 4 10 20 10 20 0 26 4 23 18 -4 22 -46 29 -54 8z m41 -6 c3 -5 -3 -10
-15 -10 -12 0 -18 5 -15 10 3 6 10 10 15 10 5 0 12 -4 15 -10z"/>
<path d="M1801 3573 c2 -35 2 -35 6 -8 3 16 10 33 16 37 8 5 6 8 -5 8 -14 0
-18 -8 -17 -37z"/>
<path d="M1843 3575 c0 -22 2 -30 4 -17 2 12 2 30 0 40 -3 9 -5 -1 -4 -23z"/>
<path d="M1874 3596 c-15 -39 23 -74 50 -46 8 9 6 11 -11 6 -12 -4 -24 -2 -28
4 -4 6 4 10 20 10 20 0 26 4 23 18 -4 22 -46 29 -54 8z m36 -6 c0 -5 -7 -10
-15 -10 -8 0 -15 5 -15 10 0 6 7 10 15 10 8 0 15 -4 15 -10z"/>
<path d="M1940 3575 c0 -19 5 -35 10 -35 6 0 10 14 10 30 0 42 27 40 33 -2 4
-32 4 -32 5 5 2 35 0 37 -28 37 -28 0 -30 -3 -30 -35z"/>
<path d="M2021 3591 c-7 -13 -6 -23 3 -36 14 -20 46 -15 46 7 0 10 -2 10 -9
-1 -12 -18 -31 -5 -31 21 0 15 5 19 20 15 11 -3 20 -1 20 4 0 17 -39 9 -49
-10z"/>
<path d="M2084 3595 c-13 -33 25 -70 48 -47 8 8 5 9 -11 5 -12 -3 -21 -1 -21
6 0 6 8 11 18 11 26 0 34 11 21 27 -15 18 -48 17 -55 -2z m46 -5 c0 -5 -7 -10
-15 -10 -8 0 -15 5 -15 10 0 6 7 10 15 10 8 0 15 -4 15 -10z"/>
<path d="M2360 3670 l0 -200 460 0 460 0 0 200 0 200 -460 0 -460 0 0 -200z
m910 0 l0 -190 -450 0 -450 0 0 190 0 190 450 0 450 0 0 -190z"/>
<path d="M2680 3670 c0 -50 1 -51 26 -48 15 2 33 12 40 23 19 29 -2 69 -39 73
-26 3 -27 2 -27 -48z m41 30 c23 -13 25 -55 3 -64 -29 -11 -34 -6 -34 34 0 43
2 45 31 30z"/>
<path d="M2774 3676 c-11 -29 0 -51 26 -51 21 0 25 5 25 30 0 24 -5 31 -23 33
-13 2 -24 -3 -28 -12z m41 -21 c0 -28 -29 -25 -33 3 -3 19 0 23 15 20 10 -2
18 -12 18 -23z"/>
<path d="M2845 3679 c-4 -5 -4 -21 -1 -35 5 -19 12 -24 28 -22 12 2 24 10 26
18 5 13 3 13 -12 1 -15 -13 -19 -13 -27 0 -13 20 -5 34 19 33 12 0 19 3 16 8
-7 12 -42 10 -49 -3z"/>
<path d="M2910 3674 c0 -9 9 -18 20 -21 11 -3 20 -10 20 -15 0 -6 -10 -8 -21
-5 -16 4 -19 3 -11 -5 6 -6 18 -8 26 -5 20 8 21 37 2 37 -8 0 -18 5 -22 12 -5
8 0 9 14 6 12 -4 22 -2 22 3 0 5 -11 9 -25 9 -16 0 -25 -6 -25 -16z"/>
<path d="M142 3794 c-31 -21 -30 -69 3 -90 34 -22 83 -10 96 24 12 32 -3 72
-27 72 -16 0 -16 -2 0 -19 20 -22 14 -61 -10 -61 -10 0 -14 13 -14 45 0 49
-10 56 -48 29z m28 -44 c0 -32 -11 -38 -29 -16 -14 16 -4 46 15 46 9 0 14 -11
14 -30z"/>
<path d="M70 3660 c0 -5 7 -10 16 -10 8 0 12 5 9 10 -3 6 -10 10 -16 10 -5 0
-9 -4 -9 -10z"/>
<path d="M120 3660 c0 -6 30 -10 69 -10 50 0 74 -4 85 -16 15 -14 16 -14 16 4
0 11 -7 23 -16 26 -26 10 -154 7 -154 -4z"/>
<path d="M136 3605 c-19 -19 -21 -66 -4 -83 7 -7 29 -12 50 -12 29 0 41 6 55
26 15 24 15 29 2 53 -18 32 -77 41 -103 16z m87 -27 c23 -35 -49 -68 -81 -36
-16 16 -15 23 4 43 20 20 63 16 77 -7z"/>
<path d="M7900 3315 l0 -205 75 0 c61 0 85 -5 127 -26 l51 -26 57 26 c57 26
61 26 304 26 l246 0 0 205 0 205 -430 0 -430 0 0 -205z m850 0 l0 -195 -244 0
c-238 0 -245 -1 -297 -24 l-52 -25 -48 25 c-39 19 -64 24 -124 24 l-75 0 0
195 0 195 420 0 420 0 0 -195z"/>
<path d="M8084 3326 c-13 -53 37 -66 55 -14 6 17 9 33 6 36 -4 4 -9 -6 -21
-45 -2 -7 -11 -13 -20 -13 -13 0 -15 6 -10 30 7 36 -1 40 -10 6z"/>
<path d="M8164 3329 c-3 -5 0 -17 8 -26 11 -15 11 -16 -4 -10 -10 3 -18 2 -18
-3 0 -6 9 -10 20 -10 11 0 20 7 20 15 0 8 -4 15 -10 15 -5 0 -10 4 -10 10 0 5
7 7 15 4 8 -4 15 -4 15 -1 0 10 -30 16 -36 6z"/>
<path d="M8216 3324 c-19 -19 -16 -38 7 -42 23 -5 41 32 23 47 -11 9 -18 8
-30 -5z m29 -4 c3 -5 -1 -10 -10 -10 -9 0 -13 5 -10 10 3 6 8 10 10 10 2 0 7
-4 10 -10z"/>
<path d="M8284 3332 c-6 -4 -15 -18 -19 -32 -8 -28 -6 -27 18 13 19 29 19 31
1 19z"/>
<path d="M8341 3327 c-17 -17 -13 -47 7 -48 14 0 14 -2 -3 -9 -19 -8 -19 -9 1
-9 20 -1 33 21 34 55 0 17 -26 24 -39 11z m21 -29 c-15 -15 -26 -4 -18 18 5
13 9 15 18 6 9 -9 9 -15 0 -24z"/>
<path d="M8457 3331 c14 -16 6 -41 -14 -41 -10 0 -13 7 -8 23 5 19 4 20 -5 4
-6 -9 -8 -22 -5 -27 10 -16 34 -11 44 9 8 14 7 22 -7 32 -14 11 -15 11 -5 0z"/>
<path d="M8563 3333 c-7 -3 -13 -9 -13 -15 0 -6 6 -6 15 2 13 10 15 9 15 -9 0
-18 -4 -21 -20 -16 -16 5 -20 2 -20 -17 0 -13 4 -18 8 -12 4 6 15 13 25 17 9
3 17 15 17 26 0 22 -9 30 -27 24z"/>
<path d="M8394 3315 c-3 -8 -4 -20 -2 -27 3 -7 7 -1 10 15 6 29 1 36 -8 12z"/>
<path d="M8487 3311 c-6 -24 0 -31 25 -31 12 0 18 7 17 23 -1 16 -2 18 -6 5
-2 -10 -10 -18 -18 -18 -8 0 -11 7 -8 20 3 11 3 20 0 20 -2 0 -7 -9 -10 -19z"/>
<path d="M122 3465 l1 -35 59 0 c32 0 58 4 58 10 0 6 -15 10 -34 10 -47 0 -66
9 -66 31 0 10 -4 19 -10 19 -5 0 -9 -16 -8 -35z"/>
<path d="M91 3391 c-15 -15 -21 -34 -21 -66 l0 -45 85 0 c50 0 85 4 85 10 0 6
-16 10 -35 10 -34 0 -35 1 -35 38 0 44 -8 57 -37 66 -15 5 -28 1 -42 -13z m57
-53 c3 -36 2 -38 -27 -38 -28 0 -31 3 -31 33 0 40 7 49 35 45 15 -2 21 -12 23
-40z"/>
<path d="M2607 2873 c1173 -2 3093 -2 4265 0 1173 1 214 2 -2132 2 -2346 0
-3305 -1 -2133 -2z"/>
<path d="M70 2830 c0 -6 35 -10 85 -10 50 0 85 4 85 10 0 6 -35 10 -85 10 -50
0 -85 -4 -85 -10z"/>
<path d="M360 2600 l0 -200 455 0 455 0 0 200 0 200 -455 0 -455 0 0 -200z
m900 0 l0 -190 -445 0 -445 0 0 190 0 190 445 0 445 0 0 -190z"/>
<path d="M726 2687 c-18 -48 -21 -71 -5 -44 13 22 45 22 53 1 4 -9 9 -14 12
-11 8 7 -26 97 -36 97 -4 0 -15 -19 -24 -43z m34 -2 c0 -8 -4 -15 -10 -15 -5
0 -10 7 -10 15 0 8 5 15 10 15 6 0 10 -7 10 -15z"/>
<path d="M807 2723 c-11 -10 -8 -93 3 -93 6 0 10 9 10 20 0 14 7 20 24 20 28
0 42 26 25 46 -12 15 -51 19 -62 7z m53 -28 c0 -8 -9 -15 -20 -15 -11 0 -20 7
-20 15 0 8 9 15 20 15 11 0 20 -7 20 -15z"/>
<path d="M903 2680 c0 -30 2 -43 4 -27 2 15 2 39 0 55 -2 15 -4 2 -4 -28z"/>
<path d="M517 2563 c-11 -10 -8 -81 3 -88 6 -4 10 8 11 27 l1 33 10 -32 c13
-40 23 -42 36 -5 l10 27 1 -27 c1 -16 6 -28 12 -28 6 0 9 19 7 48 -3 53 -18
57 -34 9 l-11 -32 -16 38 c-17 39 -19 41 -30 30z"/>
<path d="M773 2520 c0 -31 2 -41 4 -22 3 18 10 32 18 32 8 0 15 -14 18 -32 4
-32 4 -32 5 5 2 30 -1 37 -17 37 -11 0 -22 8 -24 18 -3 9 -4 -8 -4 -38z"/>
<path d="M625 2530 c-4 -7 2 -9 19 -4 34 8 34 -4 0 -16 -32 -13 -26 -35 9 -36
24 -1 27 3 27 32 0 29 -3 34 -24 34 -14 0 -28 -5 -31 -10z m40 -40 c-3 -5 -10
-10 -16 -10 -5 0 -9 5 -9 10 0 6 7 10 16 10 8 0 12 -4 9 -10z"/>
<path d="M707 2533 c-4 -3 -7 -17 -7 -30 0 -26 25 -42 42 -25 7 7 4 10 -8 9
-13 -1 -20 6 -22 22 -3 20 0 23 17 18 12 -3 21 -1 21 4 0 10 -33 12 -43 2z"/>
<path d="M843 2505 c0 -22 2 -30 4 -17 2 12 2 30 0 40 -3 9 -5 -1 -4 -23z"/>
<path d="M871 2503 c1 -35 2 -36 8 -9 9 41 31 46 31 7 0 -17 5 -31 11 -31 6 0
9 14 7 33 -2 27 -8 33 -30 35 -26 3 -28 1 -27 -35z"/>
<path d="M944 2526 c-15 -39 23 -74 50 -46 8 9 6 11 -11 6 -12 -4 -24 -2 -28
4 -4 6 4 10 20 10 20 0 26 4 23 18 -4 22 -46 29 -54 8z m46 -6 c0 -5 -7 -10
-15 -10 -8 0 -15 5 -15 10 0 6 7 10 15 10 8 0 15 -4 15 -10z"/>
<path d="M1021 2503 c1 -36 2 -36 8 -9 8 41 26 43 41 5 11 -26 11 -32 -1 -39
-7 -5 -10 -12 -7 -15 4 -4 11 -4 16 -1 14 8 43 96 33 96 -5 0 -12 -10 -15 -22
l-7 -23 -11 23 c-7 13 -20 22 -35 22 -20 0 -23 -4 -22 -37z"/>
<path d="M1360 2600 l0 -200 460 0 460 0 0 200 0 200 -460 0 -460 0 0 -200z
m910 0 l0 -190 -450 0 -450 0 0 190 0 190 450 0 450 0 0 -190z"/>
<path d="M1700 2606 c-23 -55 -23 -56 -10 -56 6 0 10 7 10 15 0 9 9 15 25 15
16 0 25 -6 25 -15 0 -8 4 -15 10 -15 10 0 -15 77 -31 94 -5 5 -17 -12 -29 -38z
m28 -15 c-15 -5 -19 4 -11 24 6 18 7 18 13 -1 4 -10 3 -21 -2 -23z"/>
<path d="M1892 2600 c0 -39 2 -47 7 -26 9 41 31 46 31 7 0 -17 5 -31 11 -31 6
0 9 14 7 33 -2 24 -8 33 -25 35 -12 2 -24 11 -26 20 -3 9 -5 -8 -5 -38z"/>
<path d="M1852 2598 c2 -23 8 -43 13 -45 8 -2 11 30 6 80 -1 4 -6 7 -12 7 -6
0 -9 -17 -7 -42z"/>
<path d="M1782 2588 c-2 -34 0 -38 23 -38 23 0 25 4 23 38 -1 36 -1 36 -5 5
-3 -19 -10 -33 -18 -33 -8 0 -15 14 -18 33 -4 31 -4 31 -5 -5z"/>
<path d="M2360 2600 l0 -200 460 0 460 0 0 200 0 200 -460 0 -460 0 0 -200z
m910 0 l0 -190 -450 0 -450 0 0 190 0 190 450 0 450 0 0 -190z"/>
<path d="M2736 2634 c-20 -19 -21 -58 -2 -74 18 -14 58 -10 64 8 3 11 1 11
-18 0 -18 -11 -23 -11 -36 6 -17 24 -17 28 -1 50 11 15 17 17 35 7 12 -6 22
-8 22 -2 0 9 -23 21 -40 21 -5 0 -16 -7 -24 -16z"/>
<path d="M2822 2603 l-2 -53 33 1 c29 2 29 2 5 6 -24 4 -27 9 -31 51 l-3 47
-2 -52z"/>
<path d="M2903 2600 c0 -30 2 -43 4 -27 2 15 2 39 0 55 -2 15 -4 2 -4 -28z"/>
<path d="M3360 2600 l0 -200 460 0 460 0 0 200 0 200 -460 0 -460 0 0 -200z
m910 0 l0 -190 -450 0 -450 0 0 190 0 190 450 0 450 0 0 -190z"/>
<path d="M3410 2600 c0 -22 5 -40 10 -40 6 0 10 18 10 40 0 22 -4 40 -10 40
-5 0 -10 -18 -10 -40z"/>
<path d="M3948 2630 c-5 -17 3 -80 11 -80 7 0 6 79 -2 86 -3 3 -7 0 -9 -6z"/>
<path d="M4048 2630 c-5 -17 3 -80 11 -80 7 0 6 79 -2 86 -3 3 -7 0 -9 -6z"/>
<path d="M3570 2597 c0 -20 4 -38 8 -41 11 -6 9 60 -1 70 -4 4 -7 -9 -7 -29z"/>
<path d="M3453 2613 c-15 -6 -18 -53 -3 -53 6 0 10 11 10 25 0 14 5 25 10 25
6 0 10 -11 10 -25 0 -14 5 -25 10 -25 11 0 13 20 4 44 -6 16 -18 19 -41 9z"/>
<path d="M3514 2608 c-4 -6 0 -16 9 -23 21 -15 22 -29 1 -21 -8 3 -12 2 -9 -4
8 -13 32 -13 41 1 4 7 -4 20 -17 31 l-24 19 24 -6 c16 -5 21 -4 17 4 -9 14
-33 14 -42 -1z"/>
<path d="M3613 2613 c-15 -6 -18 -53 -3 -53 6 0 10 11 10 25 0 14 5 25 10 25
6 0 10 -8 10 -17 0 -31 16 -46 39 -38 21 6 31 55 11 55 -5 0 -10 -11 -10 -25
0 -14 -4 -25 -10 -25 -5 0 -10 11 -10 24 0 18 -21 41 -33 35 -1 0 -8 -3 -14
-6z"/>
<path d="M3711 2581 c1 -36 1 -36 8 -6 3 17 11 30 16 30 5 0 13 -13 16 -30 7
-30 7 -30 8 -3 1 35 21 48 21 14 0 -14 5 -26 11 -26 6 0 9 12 7 28 -3 25 -7
27 -45 28 -43 0 -43 0 -42 -35z"/>
<path d="M3817 2613 c-4 -3 -7 -17 -7 -30 0 -27 26 -41 43 -24 9 9 8 11 -4 6
-10 -4 -20 -2 -24 4 -3 6 2 11 13 11 26 0 34 11 21 27 -12 14 -32 17 -42 6z
m33 -13 c0 -5 -7 -10 -16 -10 -8 0 -12 5 -9 10 3 6 10 10 16 10 5 0 9 -4 9
-10z"/>
<path d="M3881 2581 c1 -36 1 -36 8 -6 3 17 11 30 16 30 5 0 13 -13 17 -30 6
-29 6 -29 5 5 -2 29 -6 35 -24 36 -20 1 -23 -3 -22 -35z"/>
<path d="M3985 2611 c-3 -6 0 -8 8 -5 8 3 18 1 22 -5 3 -7 -2 -11 -14 -11 -14
0 -21 -6 -21 -20 0 -15 6 -19 25 -18 22 2 26 7 23 33 -3 30 -30 46 -43 26z
m30 -41 c-3 -5 -10 -10 -16 -10 -5 0 -9 5 -9 10 0 6 7 10 16 10 8 0 12 -4 9
-10z"/>
<path d="M4083 2585 c0 -22 2 -30 4 -17 2 12 2 30 0 40 -3 9 -5 -1 -4 -23z"/>
<path d="M4112 2608 c-16 -16 -15 -33 3 -48 12 -10 18 -10 30 0 20 16 19 46
-1 54 -20 8 -18 8 -32 -6z m35 -14 c8 -21 -13 -42 -28 -27 -13 13 -5 43 11 43
6 0 13 -7 17 -16z"/>
<path d="M4171 2581 c1 -35 2 -35 8 -7 9 42 29 44 34 4 l5 -33 -2 35 c-1 29
-5 35 -23 36 -20 1 -23 -3 -22 -35z"/>
<path d="M4360 2600 l0 -200 460 0 460 0 0 200 0 200 -460 0 -460 0 0 -200z
m910 0 l0 -190 -450 0 -450 0 0 190 0 190 450 0 450 0 0 -190z"/>
<path d="M4491 2598 c2 -52 2 -53 8 -13 l7 40 8 -32 c11 -46 25 -50 39 -11
l12 33 6 -35 c6 -31 7 -29 8 18 1 63 -11 67 -29 10 l-13 -43 -14 43 c-20 57
-33 53 -32 -10z"/>
<path d="M4843 2600 c0 -30 2 -43 4 -27 2 15 2 39 0 55 -2 15 -4 2 -4 -28z"/>
<path d="M4670 2595 c0 -25 5 -45 10 -45 6 0 10 20 10 45 0 25 -4 45 -10 45
-5 0 -10 -20 -10 -45z"/>
<path d="M4708 2630 c-5 -17 3 -80 11 -80 7 0 6 79 -2 86 -3 3 -7 0 -9 -6z"/>
<path d="M5008 2630 c-5 -17 3 -80 11 -80 7 0 6 79 -2 86 -3 3 -7 0 -9 -6z"/>
<path d="M4603 2590 c2 -30 6 -35 30 -38 25 -3 27 -1 27 32 0 20 -4 36 -10 36
-5 0 -10 -14 -10 -31 0 -39 -22 -34 -32 7 -6 27 -6 27 -5 -6z"/>
<path d="M4743 2585 c0 -22 2 -30 4 -17 2 12 2 30 0 40 -3 9 -5 -1 -4 -23z"/>
<path d="M4774 2606 c-10 -26 1 -51 24 -54 12 -2 22 1 22 6 0 5 -8 9 -17 8
-12 -1 -19 7 -21 23 -3 20 0 23 17 18 12 -3 21 -1 21 4 0 15 -40 10 -46 -5z"/>
<path d="M4872 2588 c-2 -34 0 -38 23 -38 22 0 25 4 24 38 -1 35 -2 35 -8 8
-9 -42 -29 -44 -34 -4 l-4 33 -1 -37z"/>
<path d="M4940 2604 c0 -9 9 -18 20 -21 11 -3 20 -10 20 -15 0 -6 -10 -8 -21
-5 -16 4 -19 3 -11 -5 6 -6 18 -8 26 -5 20 8 21 37 2 37 -8 0 -18 5 -22 12 -5
8 0 9 14 6 12 -4 22 -2 22 3 0 5 -11 9 -25 9 -16 0 -25 -6 -25 -16z"/>
<path d="M5044 2606 c-15 -38 22 -74 49 -47 7 7 4 8 -10 5 -12 -3 -24 -1 -27
5 -5 7 3 11 19 11 20 0 26 4 23 18 -4 22 -46 29 -54 8z m46 -6 c0 -5 -7 -10
-15 -10 -8 0 -15 5 -15 10 0 6 7 10 15 10 8 0 15 -4 15 -10z"/>
<path d="M5121 2583 c1 -27 3 -31 6 -13 2 14 12 31 21 38 14 11 13 12 -6 12
-19 0 -22 -5 -21 -37z"/>
<path d="M5360 2600 l0 -200 460 0 460 0 0 200 0 200 -460 0 -460 0 0 -200z
m910 0 l0 -190 -450 0 -450 0 0 190 0 190 450 0 450 0 0 -190z"/>
<path d="M5537 2643 c-16 -16 -5 -40 25 -51 26 -9 30 -14 20 -24 -10 -10 -17
-10 -32 0 -27 16 -35 15 -20 -4 18 -20 64 -14 68 9 3 13 -6 22 -27 30 -17 6
-31 15 -31 19 0 14 22 20 33 9 17 -17 31 -13 17 4 -13 16 -42 20 -53 8z"/>
<path d="M5757 2643 c-11 -10 -8 -81 3 -88 6 -4 10 13 10 44 0 52 -1 56 -13
44z"/>
<path d="M5861 2603 c-1 -50 0 -53 24 -53 18 0 26 7 31 24 7 31 -1 46 -26 46
-10 0 -21 8 -23 18 -3 9 -5 -7 -6 -35z m46 -9 c1 -5 -2 -16 -7 -24 -12 -20
-35 2 -26 25 6 17 27 16 33 -1z"/>
<path d="M5960 2600 c0 -32 4 -49 10 -45 6 3 10 24 10 45 0 21 -4 42 -10 45
-6 4 -10 -13 -10 -45z"/>
<path d="M6022 2598 c2 -23 8 -43 14 -45 7 -2 9 8 6 27 -6 40 13 39 27 -2 9
-24 8 -33 -1 -39 -7 -4 -10 -11 -6 -14 9 -9 36 34 42 70 l6 30 -14 -30 -14
-30 -7 28 c-4 15 -13 27 -21 27 -8 0 -14 5 -14 10 0 6 -5 10 -11 10 -6 0 -9
-17 -7 -42z"/>
<path d="M5615 2609 c-4 -5 -4 -21 -1 -35 5 -19 12 -24 28 -22 12 2 24 10 26
18 5 13 3 13 -12 1 -20 -17 -42 -1 -32 24 4 11 12 14 27 10 15 -5 19 -4 15 4
-9 14 -43 14 -51 0z"/>
<path d="M5686 2612 c-3 -6 3 -8 14 -5 11 3 20 0 20 -6 0 -6 -9 -11 -20 -11
-13 0 -20 -7 -20 -20 0 -16 6 -20 30 -18 28 2 31 5 28 33 -2 22 -9 31 -25 33
-11 2 -24 -1 -27 -6z m34 -42 c0 -5 -7 -10 -15 -10 -8 0 -15 5 -15 10 0 6 7
10 15 10 8 0 15 -4 15 -10z"/>
<path d="M5785 2610 c-4 -7 2 -9 19 -4 34 8 34 -4 0 -16 -32 -13 -26 -35 9
-36 24 -1 27 3 27 32 0 29 -3 34 -24 34 -14 0 -28 -5 -31 -10z m40 -40 c-3 -5
-10 -10 -16 -10 -5 0 -9 5 -9 10 0 6 7 10 16 10 8 0 12 -4 9 -10z"/>
<path d="M5930 2585 c0 -19 5 -35 10 -35 6 0 10 16 10 35 0 19 -4 35 -10 35
-5 0 -10 -16 -10 -35z"/>
<path d="M5993 2585 c0 -22 2 -30 4 -17 2 12 2 30 0 40 -3 9 -5 -1 -4 -23z"/>
<path d="M6360 2600 l0 -200 460 0 460 0 0 200 0 200 -460 0 -460 0 0 -200z
m910 0 l0 -190 -450 0 -450 0 0 190 0 190 450 0 450 0 0 -190z"/>
<path d="M6761 2615 c-1 -44 12 -65 41 -65 30 0 54 79 28 95 -6 4 -10 -10 -10
-35 0 -27 -5 -43 -15 -47 -22 -8 -28 1 -36 50 l-6 42 -2 -40z"/>
<path d="M6863 2600 c0 -30 2 -43 4 -27 2 15 2 39 0 55 -2 15 -4 2 -4 -28z"/>
<path d="M7360 2600 l0 -200 460 0 460 0 0 200 0 200 -460 0 -460 0 0 -200z
m910 0 l0 -190 -450 0 -450 0 0 190 0 190 450 0 450 0 0 -190z"/>
<path d="M7550 2647 c0 -22 23 -97 31 -97 4 0 11 16 15 35 7 40 20 38 29 -5 9
-42 19 -37 33 16 12 45 9 76 -4 38 -15 -48 -17 -49 -27 -16 -12 40 -23 41 -32
2 -7 -32 -25 -41 -25 -12 0 17 -20 55 -20 39z"/>
<path d="M7830 2636 c0 -8 -10 -16 -22 -18 -18 -2 -23 -10 -23 -33 0 -25 4
-30 28 -33 26 -3 27 -2 27 47 0 28 -2 51 -5 51 -3 0 -5 -6 -5 -14z m-3 -42 c8
-21 -13 -42 -28 -27 -13 13 -5 43 11 43 6 0 13 -7 17 -16z"/>
<path d="M7683 2585 c0 -22 2 -30 4 -17 2 12 2 30 0 40 -3 9 -5 -1 -4 -23z"/>
<path d="M7711 2583 c1 -35 2 -36 8 -9 9 41 31 46 31 7 0 -17 5 -31 11 -31 6
0 9 14 7 33 -2 27 -8 33 -30 35 -26 3 -28 1 -27 -35z"/>
<path d="M7859 2604 c-16 -20 -1 -48 29 -52 16 -2 23 3 28 22 3 14 3 30 -1 35
-9 16 -41 13 -56 -5z m45 -3 c9 -14 -4 -41 -20 -41 -8 0 -14 10 -14 25 0 25
23 35 34 16z"/>
<path d="M7934 2591 c7 -38 13 -48 22 -38 4 4 -1 21 -10 39 l-17 33 5 -34z"/>
<path d="M7960 2599 c0 -11 5 -17 10 -14 6 3 10 -3 10 -14 0 -31 17 -25 29 11
13 36 6 53 -7 17 l-9 -24 -7 23 c-9 28 -26 29 -26 1z"/>
<path d="M8030 2604 c0 -9 9 -18 20 -21 11 -3 20 -10 20 -15 0 -6 -9 -8 -20
-5 -11 3 -20 1 -20 -5 0 -5 10 -8 22 -6 26 3 38 38 14 38 -8 0 -18 5 -22 12
-5 8 0 9 14 6 12 -4 20 -2 16 3 -9 15 -44 10 -44 -7z"/>
<path d="M8360 2600 l0 -200 460 0 460 0 0 200 0 200 -460 0 -460 0 0 -200z
m910 0 l0 -190 -450 0 -450 0 0 190 0 190 450 0 450 0 0 -190z"/>
<path d="M8593 2634 c-6 -16 12 -37 41 -47 8 -3 7 -8 -1 -18 -10 -10 -16 -10
-25 -1 -17 17 -33 15 -18 -3 16 -19 44 -19 60 0 15 17 6 33 -26 45 -25 10 -33
30 -11 30 7 0 19 -6 26 -12 11 -11 13 -10 9 2 -7 22 -47 25 -55 4z"/>
<path d="M8962 2598 c2 -23 8 -43 14 -45 7 -2 9 8 6 27 -6 40 13 39 27 -2 9
-24 8 -33 -1 -39 -7 -4 -10 -11 -6 -14 9 -9 35 34 43 70 l6 30 -14 -24 -15
-24 -6 21 c-4 12 -14 22 -22 22 -8 0 -14 5 -14 10 0 6 -5 10 -11 10 -6 0 -9
-17 -7 -42z"/>
<path d="M8673 2604 c-8 -22 9 -49 33 -49 30 0 27 59 -4 63 -14 2 -25 -3 -29
-14z m44 0 c-3 -3 -12 -4 -19 -1 -8 3 -5 6 6 6 11 1 17 -2 13 -5z m-5 -36 c-9
-9 -15 -9 -24 0 -9 9 -7 12 12 12 19 0 21 -3 12 -12z"/>
<path d="M8745 2599 c-5 -13 -1 -27 8 -36 16 -17 47 -11 47 8 0 8 -4 9 -13 0
-17 -13 -27 -5 -27 22 0 14 5 18 20 14 11 -3 20 -1 20 4 0 5 -11 9 -24 9 -16
0 -27 -7 -31 -21z"/>
<path d="M8810 2598 c0 -33 12 -47 38 -45 18 1 22 7 21 37 -1 34 -1 34 -8 6
-9 -41 -31 -46 -31 -7 0 17 -4 31 -10 31 -5 0 -10 -10 -10 -22z"/>
<path d="M8891 2583 c2 -35 2 -35 6 -8 3 16 10 33 16 37 8 5 6 8 -5 8 -14 0
-18 -8 -17 -37z"/>
<path d="M8930 2584 c0 -21 4 -33 10 -29 6 3 10 19 10 36 0 16 -4 29 -10 29
-5 0 -10 -16 -10 -36z"/>
<path d="M127 2783 c-13 -12 -7 -71 8 -83 22 -18 31 -4 11 16 -10 9 -15 23
-12 31 3 8 6 17 6 19 0 2 7 4 15 4 10 0 15 -10 15 -28 0 -33 30 -65 53 -57 19
8 29 43 18 64 -5 9 -6 22 -4 29 3 9 -10 12 -49 12 -30 0 -58 -3 -61 -7z m91
-25 c19 -19 15 -48 -7 -48 -13 0 -20 9 -23 30 -5 32 9 39 30 18z"/>
<path d="M120 2660 c0 -5 -9 -10 -20 -10 -11 0 -20 -4 -20 -10 0 -5 9 -10 20
-10 11 0 20 -5 20 -12 0 -9 3 -9 12 0 7 7 34 12 60 12 41 0 48 3 48 20 0 11
-4 20 -10 20 -5 0 -10 -4 -10 -10 0 -5 -18 -10 -40 -10 -22 0 -40 5 -40 10 0
6 -4 10 -10 10 -5 0 -10 -4 -10 -10z"/>
<path d="M126 2581 c-3 -5 -5 -27 -4 -50 l1 -41 59 0 c32 0 58 4 58 10 0 6
-20 10 -45 10 -32 0 -47 5 -53 18 -16 30 -3 42 49 42 27 0 49 5 49 10 0 12
-107 13 -114 1z"/>
<path d="M150 2457 c-31 -15 -39 -66 -15 -91 50 -50 144 19 98 72 -24 27 -53
34 -83 19z m70 -32 c25 -30 -9 -63 -54 -51 -28 7 -41 33 -25 52 15 18 63 18
79 -1z"/>
<path d="M230 2300 c0 -22 -3 -40 -6 -40 -3 0 -25 16 -48 35 -24 19 -46 35
-50 35 -3 0 -6 -22 -6 -50 0 -27 5 -50 10 -50 6 0 10 16 10 36 l0 36 40 -36
c22 -20 45 -36 50 -36 6 0 10 25 10 55 0 30 -2 55 -5 55 -3 0 -5 -18 -5 -40z"/>
<path d="M381 2264 c-19 -24 -21 -40 -21 -179 0 -139 2 -155 21 -179 l20 -26
415 0 415 0 24 25 c24 24 25 28 25 180 0 152 -1 156 -25 180 l-24 25 -415 0
-415 0 -20 -26z m869 -4 c18 -18 20 -33 20 -169 0 -135 -2 -151 -21 -175 l-20
-26 -410 0 c-396 0 -410 1 -429 20 -18 18 -20 33 -20 175 0 142 2 157 20 175
19 19 33 20 430 20 397 0 411 -1 430 -20z"/>
<path d="M533 2213 c-25 -10 -14 -41 19 -52 25 -9 29 -14 20 -23 -10 -10 -17
-10 -33 1 -18 10 -20 10 -17 -1 3 -7 17 -14 31 -16 34 -4 50 26 23 42 -10 6
-25 17 -34 24 -15 12 -12 13 17 8 29 -5 32 -4 21 9 -13 15 -25 17 -47 8z"/>
<path d="M608 2200 c-5 -17 3 -80 11 -80 7 0 6 79 -2 86 -3 3 -7 0 -9 -6z"/>
<path d="M828 2198 c-3 -7 -18 -12 -34 -13 -25 0 -29 -4 -29 -30 0 -32 27 -47
48 -26 9 9 5 11 -13 9 -19 -2 -25 2 -25 17 0 15 7 20 28 20 23 1 27 -3 27 -27
0 -16 5 -28 13 -28 10 0 13 28 8 83 -1 12 -19 8 -23 -5z"/>
<path d="M1100 2200 c0 -5 -7 -10 -15 -10 -9 0 -18 -7 -22 -15 -5 -14 -8 -14
-25 2 -24 22 -53 7 -53 -28 0 -19 6 -25 28 -27 15 -2 27 1 27 6 0 6 -9 8 -20
5 -11 -3 -20 0 -20 6 0 17 50 13 56 -4 4 -9 19 -15 35 -15 28 0 29 2 29 45 0
25 -4 45 -10 45 -5 0 -10 -4 -10 -10z m-75 -30 c3 -5 -1 -10 -9 -10 -9 0 -16
5 -16 10 0 6 4 10 9 10 6 0 13 -4 16 -10z m75 -21 c0 -10 -7 -19 -15 -19 -15
0 -21 31 -9 43 11 10 24 -3 24 -24z"/>
<path d="M640 2155 c0 -19 5 -35 10 -35 6 0 10 11 10 25 0 14 5 25 10 25 6 0
10 5 10 10 0 6 -9 10 -20 10 -16 0 -20 -7 -20 -35z"/>
<path d="M692 2158 c-2 -36 0 -38 28 -38 27 0 30 3 30 29 0 17 -4 33 -10 36
-6 4 -10 -7 -10 -24 0 -43 -27 -41 -33 2 -4 31 -4 31 -5 -5z"/>
<path d="M872 2158 c-2 -34 0 -38 23 -38 23 0 25 4 23 38 -1 36 -1 36 -5 5 -3
-19 -10 -33 -18 -33 -8 0 -15 14 -18 33 -4 31 -4 31 -5 -5z"/>
<path d="M941 2153 c1 -38 1 -38 9 -9 5 16 15 33 22 37 9 6 6 9 -9 9 -20 0
-23 -5 -22 -37z"/>
<path d="M592 2008 l-2 -48 33 1 c29 2 29 2 5 6 -24 4 -27 10 -31 46 l-4 42
-1 -47z"/>
<path d="M664 2016 c-11 -29 0 -51 26 -51 21 0 25 5 25 30 0 24 -5 31 -23 33
-13 2 -24 -3 -28 -12z m44 -24 c2 -14 -2 -22 -12 -22 -19 0 -29 17 -22 36 8
22 30 12 34 -14z"/>
<path d="M740 2015 c-16 -20 -3 -55 21 -55 12 0 17 -4 14 -11 -4 -6 -13 -8
-21 -5 -8 3 -14 1 -14 -5 0 -6 10 -9 23 -7 19 3 22 10 25 51 3 41 1 47 -16 47
-11 0 -25 -7 -32 -15z m38 -23 c2 -15 -2 -22 -12 -22 -11 0 -16 9 -16 26 0 31
23 28 28 -4z"/>
<path d="M817 2023 c-15 -15 -7 -55 13 -60 11 -3 20 -10 20 -15 0 -5 -10 -6
-22 -3 -18 6 -20 4 -12 -5 7 -6 20 -10 30 -8 15 2 20 14 22 51 3 44 1 47 -21
47 -13 0 -27 -3 -30 -7z m36 -16 c3 -8 1 -20 -4 -28 -11 -19 -34 3 -26 25 8
20 23 21 30 3z"/>
<path d="M887 2023 c-11 -10 -8 -63 3 -63 6 0 10 16 10 35 0 36 -2 40 -13 28z"/>
<path d="M917 2024 c-10 -11 -9 -64 2 -64 5 0 11 11 13 25 4 36 22 36 30 0 6
-29 6 -29 5 5 -2 27 -7 36 -22 38 -12 2 -24 0 -28 -4z"/>
<path d="M990 2009 c-13 -23 2 -49 26 -49 8 0 14 -5 14 -11 0 -6 -9 -9 -20 -6
-11 3 -20 1 -20 -4 0 -13 34 -11 48 3 7 7 12 29 12 50 0 34 -3 38 -25 38 -14
0 -29 -8 -35 -21z m40 -20 c0 -10 -7 -19 -15 -19 -15 0 -21 31 -9 43 11 10 24
-3 24 -24z"/>
<path d="M1401 2264 c-19 -24 -21 -40 -21 -179 0 -139 2 -155 21 -179 l20 -26
415 0 415 0 24 25 c24 24 25 28 25 180 0 152 -1 156 -25 180 l-24 25 -415 0
-415 0 -20 -26z m869 -4 c18 -18 20 -33 20 -172 0 -142 -1 -153 -22 -175 l-21
-23 -409 0 c-395 0 -409 1 -428 20 -18 18 -20 33 -20 175 0 142 2 157 20 175
19 19 33 20 430 20 397 0 411 -1 430 -20z"/>
<path d="M1470 2085 c0 -45 19 -66 21 -22 l0 22 9 -22 c13 -32 27 -28 36 10
l8 32 7 -35 c6 -33 6 -33 8 13 1 55 -12 61 -29 15 l-13 -33 -10 33 c-15 49
-37 41 -37 -13z"/>
<path d="M1650 2085 c0 -25 5 -45 10 -45 6 0 10 20 10 45 0 25 -4 45 -10 45
-5 0 -10 -20 -10 -45z"/>
<path d="M1688 2120 c-5 -17 3 -80 11 -80 7 0 6 79 -2 86 -3 3 -7 0 -9 -6z"/>
<path d="M1754 2117 c-8 -22 -1 -70 11 -74 6 -2 9 14 8 38 -1 45 -9 60 -19 36z"/>
<path d="M1583 2080 c2 -30 6 -35 30 -38 25 -3 27 -1 27 33 0 22 -4 34 -10 30
-5 -3 -10 -18 -10 -31 0 -35 -23 -26 -32 12 -6 27 -6 27 -5 -6z"/>
<path d="M1720 2076 c0 -20 5 -36 10 -36 6 0 10 13 10 29 0 17 -4 33 -10 36
-6 4 -10 -8 -10 -29z"/>
<path d="M1790 2091 c-5 -11 -7 -27 -4 -35 7 -18 49 -22 59 -6 4 7 -2 9 -19 4
-16 -4 -26 -2 -26 5 0 6 12 11 26 11 20 0 25 4 20 16 -3 9 -6 18 -6 20 0 13
-41 1 -50 -15z m40 -1 c0 -5 -7 -10 -16 -10 -8 0 -12 5 -9 10 3 6 10 10 16 10
5 0 9 -4 9 -10z"/>
<path d="M1860 2076 c0 -20 5 -36 10 -36 6 0 10 14 10 31 0 39 22 34 32 -7 6
-27 6 -27 5 6 -2 30 -6 35 -29 38 -26 3 -28 1 -28 -32z"/>
<path d="M1946 2101 c-4 -5 3 -7 14 -4 11 3 20 1 20 -5 0 -6 -10 -12 -22 -14
-35 -5 -29 -32 8 -36 29 -3 30 -2 26 33 -3 26 -9 35 -23 35 -10 0 -20 -4 -23
-9z m34 -41 c0 -5 -7 -10 -15 -10 -8 0 -15 5 -15 10 0 6 7 10 15 10 8 0 15 -4
15 -10z"/>
<path d="M2011 2071 l1 -36 9 33 c12 40 29 42 29 2 0 -16 5 -30 11 -30 6 0 9
14 7 33 -3 27 -7 32 -30 33 -26 1 -28 -2 -27 -35z"/>
<path d="M2091 2096 c-20 -24 -9 -51 22 -54 15 -2 27 1 27 6 0 6 -9 8 -20 5
-16 -4 -20 0 -20 21 0 29 9 33 29 14 11 -11 13 -10 9 2 -6 21 -32 24 -47 6z"/>
<path d="M2151 2103 c-1 -6 4 -24 9 -39 7 -19 7 -30 -1 -40 -9 -11 -9 -14 0
-14 6 0 21 21 32 46 20 49 19 76 -2 30 l-13 -27 -12 28 c-7 15 -13 23 -13 16z"/>
<path d="M2421 2264 c-19 -24 -21 -40 -21 -179 0 -139 2 -155 21 -179 l20 -26
414 0 414 0 20 26 c19 25 21 40 21 190 0 157 -1 163 -22 178 -19 14 -78 16
-434 16 l-413 0 -20 -26z m863 0 c13 -13 16 -43 16 -175 0 -146 -2 -161 -20
-179 -19 -19 -33 -20 -425 -20 -392 0 -406 1 -425 20 -18 18 -20 33 -20 175 0
142 2 157 20 175 19 19 33 20 429 20 359 0 412 -2 425 -16z"/>
<path d="M2691 2083 c1 -26 4 -38 6 -26 3 15 13 23 31 25 19 2 27 9 27 23 0
15 -8 21 -32 23 l-33 3 1 -48z m54 22 c0 -5 -10 -11 -22 -13 -16 -2 -23 2 -23
13 0 11 7 15 23 13 12 -2 22 -7 22 -13z"/>
<path d="M2853 2085 c0 -27 2 -38 4 -22 2 15 2 37 0 50 -2 12 -4 0 -4 -28z"/>
<path d="M2774 2096 c-11 -28 1 -51 28 -54 31 -4 48 29 28 53 -16 19 -49 19
-56 1z m44 -24 c2 -14 -2 -22 -12 -22 -19 0 -28 14 -20 35 9 21 28 14 32 -13z"/>
<path d="M2883 2075 c0 -22 2 -30 4 -17 2 12 2 30 0 40 -3 9 -5 -1 -4 -23z"/>
<path d="M2910 2095 c-18 -22 -3 -55 26 -55 13 0 24 4 24 9 0 5 -9 7 -21 4
-17 -5 -20 -2 -17 18 2 16 9 24 20 23 10 -1 15 2 12 7 -8 14 -30 11 -44 -6z"/>
<path d="M2973 2096 c18 -45 19 -68 6 -77 -8 -5 -9 -9 -3 -9 6 0 16 6 21 13
14 18 34 79 28 86 -3 3 -8 -5 -12 -17 -6 -25 -23 -30 -23 -8 0 8 -5 18 -12 22
-8 5 -9 2 -5 -10z"/>
<path d="M4455 2255 c-24 -24 -25 -27 -25 -185 0 -158 1 -161 25 -185 l24 -25
411 0 411 0 24 25 c24 24 25 27 25 185 0 158 -1 161 -25 185 l-24 25 -411 0
-411 0 -24 -25z m865 -5 c18 -18 20 -33 20 -177 0 -147 -1 -158 -22 -180 l-21
-23 -406 0 c-402 0 -405 0 -428 22 -22 21 -23 27 -23 177 0 145 1 156 22 178
l21 23 409 0 c395 0 409 -1 428 -20z"/>
<path d="M4621 2068 c1 -29 4 -43 6 -30 6 28 27 28 47 0 9 -12 19 -19 22 -15
4 4 -1 16 -11 27 -11 13 -14 20 -6 20 7 0 11 10 9 23 -2 17 -11 23 -35 25
l-33 3 1 -53z m57 25 c2 -8 -6 -13 -22 -13 -17 0 -26 5 -26 16 0 19 41 16 48
-3z"/>
<path d="M4787 2113 c-11 -10 -8 -81 3 -88 6 -4 10 13 10 44 0 52 -1 56 -13
44z"/>
<path d="M4921 2074 c-1 -46 1 -51 20 -50 43 2 53 66 10 66 -11 0 -22 8 -24
18 -3 9 -5 -6 -6 -34z m46 -10 c1 -5 -2 -16 -7 -24 -12 -20 -35 2 -26 25 6 17
27 16 33 -1z"/>
<path d="M5020 2069 c0 -31 4 -48 10 -44 6 3 10 26 10 51 0 24 -4 44 -10 44
-5 0 -10 -23 -10 -51z"/>
<path d="M5082 2068 c2 -23 8 -43 14 -45 7 -2 9 8 6 27 -5 38 13 39 26 1 7
-20 7 -32 -1 -40 -6 -6 -8 -13 -5 -17 9 -8 36 36 43 71 l6 30 -14 -24 -15 -24
-6 21 c-4 12 -14 22 -22 22 -8 0 -14 5 -14 10 0 6 -5 10 -11 10 -6 0 -9 -17
-7 -42z"/>
<path d="M4714 2076 c-11 -29 0 -51 26 -51 21 0 25 5 25 30 0 24 -5 31 -23 33
-13 2 -24 -3 -28 -12z m43 -2 c-3 -3 -12 -4 -19 -1 -8 3 -5 6 6 6 11 1 17 -2
13 -5z m-5 -36 c-9 -9 -15 -9 -24 0 -9 9 -7 12 12 12 19 0 21 -3 12 -12z"/>
<path d="M4810 2061 c0 -17 5 -33 10 -36 6 -4 10 8 10 29 0 20 -4 36 -10 36
-5 0 -10 -13 -10 -29z"/>
<path d="M4845 2080 c-4 -7 3 -9 22 -5 l28 6 -28 -16 c-34 -19 -31 -40 6 -41
24 -1 27 3 27 32 0 29 -3 34 -24 34 -14 0 -28 -5 -31 -10z m37 -42 c-6 -6 -15
-8 -19 -4 -4 4 -1 11 7 16 19 12 27 3 12 -12z"/>
<path d="M4990 2054 c0 -21 4 -33 10 -29 6 3 10 19 10 36 0 16 -4 29 -10 29
-5 0 -10 -16 -10 -36z"/>
<path d="M5050 2054 c0 -21 4 -33 10 -29 6 3 10 19 10 36 0 16 -4 29 -10 29
-5 0 -10 -16 -10 -36z"/>
<path d="M3436 2249 l-26 -20 0 -159 0 -159 26 -20 c26 -20 37 -21 440 -21
401 0 415 1 434 20 18 18 20 33 20 178 0 126 -3 162 -16 180 l-15 22 -418 0
c-408 0 -419 -1 -445 -21z m874 -8 c5 -11 10 -86 10 -172 0 -128 -3 -155 -17
-171 -15 -17 -42 -18 -430 -18 -400 0 -414 1 -433 20 -18 18 -20 33 -20 170 0
137 2 152 20 170 19 19 33 20 440 20 404 0 420 -1 430 -19z"/>
<path d="M3786 2160 c-18 -45 -21 -75 -5 -47 5 9 19 17 29 17 10 0 24 -8 29
-17 6 -10 11 -12 11 -6 0 20 -31 93 -40 93 -4 0 -15 -18 -24 -40z m34 -5 c0
-8 -4 -15 -10 -15 -5 0 -10 7 -10 15 0 8 5 15 10 15 6 0 10 -7 10 -15z"/>
<path d="M3860 2156 c0 -25 5 -48 10 -51 6 -3 10 3 10 14 0 14 6 21 19 21 24
0 45 25 37 45 -3 9 -18 15 -41 15 -35 0 -35 0 -35 -44z m55 14 c0 -8 -8 -16
-17 -18 -13 -2 -18 3 -18 18 0 15 5 20 18 18 9 -2 17 -10 17 -18z"/>
<path d="M3963 2150 c0 -30 2 -43 4 -27 2 15 2 39 0 55 -2 15 -4 2 -4 -28z"/>
<path d="M3552 1993 c3 -46 4 -48 36 -51 18 -2 32 1 32 7 0 6 -11 11 -25 11
-34 0 -32 28 3 33 l27 4 -27 2 c-17 0 -28 7 -28 15 0 8 12 17 28 19 21 3 19 4
-11 6 l-38 1 3 -47z"/>
<path d="M3644 1974 c0 -32 1 -34 12 -20 11 16 13 16 21 2 7 -12 9 -7 9 18 0
28 -3 33 -13 24 -9 -7 -13 -7 -13 1 0 6 -3 11 -7 11 -5 0 -8 -16 -9 -36z"/>
<path d="M3711 1963 c0 -27 3 -41 7 -33 4 8 13 15 21 15 19 0 36 29 28 49 -4
9 -17 16 -32 16 -23 0 -25 -3 -24 -47z m37 15 c-2 -13 -7 -23 -13 -23 -5 0
-11 10 -13 23 -2 15 2 22 13 22 11 0 15 -7 13 -22z"/>
<path d="M3780 1973 c0 -20 4 -32 10 -28 6 3 10 17 10 31 0 13 5 24 10 24 6 0
10 -8 10 -18 0 -41 45 -56 59 -19 14 36 3 46 -50 45 l-49 0 0 -35z m87 21 c-3
-3 -12 -4 -19 -1 -8 3 -5 6 6 6 11 1 17 -2 13 -5z m3 -28 c0 -11 -19 -15 -25
-6 -3 5 1 10 9 10 9 0 16 -2 16 -4z"/>
<path d="M3903 1978 c2 -25 7 -33 22 -33 28 0 30 29 3 44 l-23 12 23 -5 c12
-2 22 0 22 5 0 5 -11 9 -25 9 -22 0 -24 -4 -22 -32z m37 -12 c0 -11 -19 -15
-25 -6 -3 5 1 10 9 10 9 0 16 -2 16 -4z"/>
<path d="M3967 2003 c-9 -9 12 -33 30 -33 8 0 11 -5 8 -10 -4 -6 -16 -8 -28
-4 -17 5 -19 3 -11 -6 16 -16 48 -9 52 11 1 9 -7 21 -20 28 l-23 12 23 -5 c12
-2 20 0 16 5 -6 10 -38 12 -47 2z"/>
<path d="M4030 1980 c0 -16 5 -30 10 -30 6 0 10 14 10 30 0 17 -4 30 -10 30
-5 0 -10 -13 -10 -30z"/>
<path d="M4064 1996 c-10 -25 0 -51 20 -54 24 -5 46 22 39 48 -6 24 -51 28
-59 6z m46 -15 c0 -11 -5 -23 -11 -27 -15 -9 -33 12 -26 30 9 23 37 20 37 -3z"/>
<path d="M4142 1973 c1 -37 1 -37 5 -5 6 43 33 44 33 0 0 -24 3 -29 11 -21 7
7 9 23 5 37 -5 19 -13 26 -31 26 -22 0 -25 -4 -23 -37z"/>
<path d="M70 2190 c0 -5 4 -10 9 -10 6 0 13 5 16 10 3 6 -1 10 -9 10 -9 0 -16
-4 -16 -10z"/>
<path d="M120 2190 c0 -6 27 -10 60 -10 33 0 60 4 60 10 0 6 -27 10 -60 10
-33 0 -60 -4 -60 -10z"/>
<path d="M122 2135 l1 -35 59 0 c32 0 58 4 58 10 0 6 -12 10 -27 10 -48 0 -73
11 -73 31 0 11 -4 19 -10 19 -5 0 -9 -16 -8 -35z"/>
<path d="M137 2062 c-36 -39 -7 -102 46 -102 30 0 69 47 62 73 -14 47 -77 64
-108 29z m77 -15 c43 -32 -16 -81 -61 -51 -27 17 -29 27 -7 48 19 19 44 20 68
3z"/>
<path d="M70 1920 c0 -5 16 -10 35 -10 35 0 35 0 35 -45 0 -45 0 -45 -35 -45
-19 0 -35 -4 -35 -10 0 -6 35 -10 85 -10 85 0 119 16 48 22 -37 3 -38 4 -41
46 l-3 42 40 0 c23 0 41 5 41 10 0 6 -35 10 -85 10 -50 0 -85 -4 -85 -10z"/>
<path d="M7808 1773 c222 -2 582 -2 800 0 218 1 37 2 -403 2 -440 0 -619 -1
-397 -2z"/>
<path d="M878 1763 c222 -2 582 -2 800 0 218 1 37 2 -403 2 -440 0 -619 -1
-397 -2z"/>
<path d="M387 1603 c-15 -41 -21 -69 -15 -72 6 -2 15 4 20 13 12 21 57 21 74
-1 7 -10 16 -15 19 -11 11 11 -41 133 -58 136 -10 2 -22 -18 -40 -65z m53 -5
c0 -5 -6 -8 -14 -8 -9 0 -12 7 -9 21 4 16 8 17 14 7 5 -7 9 -16 9 -20z"/>
<path d="M740 1600 c0 -40 4 -70 10 -70 6 0 10 30 10 70 0 40 -4 70 -10 70 -6
0 -10 -30 -10 -70z"/>
<path d="M790 1655 c0 -8 5 -15 10 -15 6 0 10 7 10 15 0 8 -4 15 -10 15 -5 0
-10 -7 -10 -15z"/>
<path d="M1110 1655 c0 -9 5 -15 11 -13 6 2 11 8 11 13 0 5 -5 11 -11 13 -6 2
-11 -4 -11 -13z"/>
<path d="M2380 1599 c0 -52 3 -70 13 -67 6 3 13 17 15 31 4 35 11 34 43 -4 33
-41 60 -36 28 5 -20 26 -21 29 -6 38 23 12 21 45 -2 58 -11 5 -36 10 -55 10
l-36 0 0 -71z m69 42 c18 -11 5 -31 -20 -31 -12 0 -19 7 -19 20 0 21 16 26 39
11z"/>
<path d="M3280 1600 c0 -53 3 -71 13 -68 6 3 14 22 16 44 l3 39 12 -39 c16
-55 31 -55 47 1 l13 48 4 -47 c5 -74 22 -57 22 22 0 63 -2 70 -20 70 -14 0
-22 -11 -31 -42 l-12 -43 -12 40 c-8 29 -18 41 -33 43 -21 3 -22 0 -22 -68z"/>
<path d="M7374 1656 c-10 -25 1 -119 14 -124 9 -3 12 15 12 67 0 66 -12 93
-26 57z"/>
<path d="M7546 1648 c-9 -16 -12 -37 -7 -67 8 -58 31 -67 31 -13 0 23 5 43 13
45 9 4 8 8 -3 17 -11 9 -12 13 -2 17 17 7 15 23 -3 23 -8 0 -21 -10 -29 -22z"/>
<path d="M1052 1643 c-16 -30 0 -107 22 -111 15 -3 17 0 11 14 -16 40 -17 56
-5 64 10 6 9 12 -3 30 -14 21 -16 21 -25 3z"/>
<path d="M4362 1643 c-5 -10 -7 -37 -4 -61 4 -45 24 -64 45 -43 8 8 8 11 -2
11 -8 0 -12 12 -10 38 3 54 0 72 -11 72 -5 0 -13 -8 -18 -17z"/>
<path d="M7881 1642 c-9 -18 -2 -77 13 -101 9 -14 36 -15 36 -1 0 6 -4 10 -10
10 -15 0 -12 57 3 64 10 5 10 7 0 12 -7 3 -13 12 -13 20 0 20 -17 17 -29 -4z"/>
<path d="M8243 1645 c-16 -30 -2 -109 20 -113 18 -4 24 13 7 23 -14 9 -12 52
3 58 8 4 9 8 1 14 -6 4 -13 15 -16 23 -4 12 -7 11 -15 -5z"/>
<path d="M510 1563 c0 -35 4 -63 10 -63 6 0 10 9 10 21 0 16 4 19 20 14 28 -9
50 11 50 45 0 35 -17 49 -58 48 l-32 -1 0 -64z m64 32 c6 -17 -2 -45 -14 -45
-15 0 -32 30 -26 45 7 19 32 19 40 0z"/>
<path d="M620 1565 c0 -51 3 -65 15 -65 8 0 15 9 15 19 0 14 5 18 19 14 29 -8
57 40 43 72 -10 21 -19 25 -52 25 l-40 0 0 -65z m65 15 c0 -36 -29 -33 -33 3
-3 23 0 28 15 25 12 -2 18 -12 18 -28z"/>
<path d="M790 1580 c0 -27 5 -50 10 -50 6 0 10 23 10 50 0 28 -4 50 -10 50 -5
0 -10 -22 -10 -50z"/>
<path d="M847 1624 c-13 -13 -7 -71 8 -84 19 -15 65 -5 65 15 0 18 -12 19 -28
3 -16 -16 -35 3 -30 28 3 14 12 18 32 17 38 -3 28 21 -10 25 -16 2 -33 0 -37
-4z"/>
<path d="M947 1624 c-16 -16 -5 -23 26 -17 22 4 29 2 22 -5 -5 -5 -19 -12 -30
-14 -14 -2 -20 -11 -20 -28 0 -22 4 -25 38 -25 l38 0 -3 45 c-3 42 -5 45 -33
48 -17 2 -34 0 -38 -4z m53 -53 c0 -14 -18 -23 -31 -15 -8 4 -7 9 2 15 18 11
29 11 29 0z"/>
<path d="M1110 1579 c0 -66 24 -62 28 4 2 37 0 47 -12 47 -12 0 -16 -12 -16
-51z"/>
<path d="M1172 1618 c-7 -7 -12 -24 -12 -40 0 -50 66 -62 91 -17 23 43 -44 92
-79 57z m56 -34 c2 -12 -4 -24 -12 -27 -19 -7 -40 18 -32 39 8 22 40 13 44
-12z"/>
<path d="M1280 1579 c0 -57 17 -66 22 -12 2 27 8 39 21 41 14 3 17 -4 17 -37
0 -23 5 -41 11 -41 6 0 9 19 7 48 -3 47 -3 47 -40 49 l-38 1 0 -49z"/>
<path d="M1391 1616 c-9 -11 -8 -18 4 -30 9 -9 23 -16 31 -16 8 0 14 -5 14
-11 0 -7 -12 -8 -32 -4 -31 6 -32 5 -14 -10 24 -18 48 -19 64 -3 20 20 14 37
-20 53 -31 14 -31 15 -5 10 20 -4 27 -1 27 10 0 19 -53 20 -69 1z"/>
<path d="M2522 1618 c-34 -34 2 -97 48 -83 27 9 25 26 -2 23 -13 -2 -25 2 -28
7 -3 6 10 11 28 13 36 4 36 5 22 33 -12 21 -50 25 -68 7z m48 -18 c0 -5 -9
-10 -21 -10 -11 0 -17 5 -14 10 3 6 13 10 21 10 8 0 14 -4 14 -10z"/>
<path d="M2616 1613 c-7 -18 16 -43 41 -43 7 0 13 -5 13 -11 0 -7 -11 -8 -32
-3 -29 6 -31 5 -19 -10 24 -29 81 -14 81 21 0 7 -15 20 -32 28 -24 10 -27 14
-11 12 12 -1 23 3 25 8 2 6 -11 11 -28 13 -23 2 -33 -2 -38 -15z"/>
<path d="M2732 1618 c-7 -7 -12 -24 -12 -40 0 -50 66 -62 91 -17 23 43 -44 92
-79 57z m56 -34 c2 -12 -4 -24 -12 -27 -19 -7 -40 18 -32 39 8 22 40 13 44
-12z"/>
<path d="M2842 1583 c3 -48 3 -48 41 -49 l37 -1 0 48 c0 57 -17 66 -22 12 -2
-26 -8 -38 -18 -38 -10 0 -16 12 -18 38 -5 55 -24 45 -20 -10z"/>
<path d="M2950 1578 c0 -26 5 -48 10 -48 6 0 10 11 10 24 0 35 10 56 26 56 8
0 14 4 14 9 0 5 -13 9 -30 9 -29 -1 -30 -3 -30 -50z"/>
<path d="M3032 1618 c-19 -19 -15 -66 8 -78 24 -13 56 -5 64 15 6 17 -15 20
-30 5 -15 -15 -38 14 -30 36 4 12 13 14 32 10 19 -5 25 -3 22 6 -6 18 -50 22
-66 6z"/>
<path d="M3132 1618 c-34 -34 2 -97 48 -83 29 9 24 26 -5 19 -19 -5 -25 -2
-25 10 0 11 9 16 30 16 33 0 35 3 20 31 -12 21 -50 25 -68 7z m48 -18 c0 -5
-7 -10 -15 -10 -8 0 -15 5 -15 10 0 6 7 10 15 10 8 0 15 -4 15 -10z"/>
<path d="M3447 1623 c-15 -14 -6 -23 18 -17 35 9 31 -5 -5 -17 -51 -18 -32
-57 28 -56 29 0 32 3 32 33 0 49 -9 64 -39 64 -15 0 -31 -3 -34 -7z m43 -52
c0 -12 -20 -25 -27 -18 -7 7 6 27 18 27 5 0 9 -4 9 -9z"/>
<path d="M3540 1578 c0 -59 23 -63 28 -5 2 23 8 37 17 37 9 0 15 -14 17 -37 2
-20 9 -38 16 -41 10 -3 12 8 10 44 l-3 49 -42 1 -43 2 0 -50z"/>
<path d="M3657 1624 c-13 -14 5 -24 31 -18 18 5 24 3 17 -4 -5 -5 -19 -12 -30
-14 -14 -2 -20 -11 -20 -28 0 -22 4 -25 38 -25 l38 -1 -3 46 c-3 42 -5 45 -33
48 -17 2 -34 0 -38 -4z m53 -53 c0 -14 -18 -23 -31 -15 -8 4 -7 9 2 15 18 11
29 11 29 0z"/>
<path d="M3760 1611 c-14 -28 -13 -38 10 -61 12 -12 26 -17 36 -13 12 4 15 2
12 -8 -6 -15 -11 -15 -40 -4 -13 5 -18 2 -18 -9 0 -12 10 -16 39 -16 45 0 51
9 51 81 l0 49 -40 0 c-29 0 -42 -5 -50 -19z m60 -26 c0 -18 -5 -25 -20 -25
-15 0 -20 7 -20 25 0 18 5 25 20 25 15 0 20 -7 20 -25z"/>
<path d="M3877 1624 c-11 -12 -8 -69 5 -82 17 -17 43 -15 59 4 11 13 9 15 -12
12 -13 -2 -25 2 -27 7 -1 6 9 11 23 13 20 3 26 8 23 25 -2 16 -11 23 -33 25
-17 2 -34 0 -38 -4z m53 -24 c0 -5 -9 -10 -21 -10 -11 0 -17 5 -14 10 3 6 13
10 21 10 8 0 14 -4 14 -10z"/>
<path d="M3972 1582 c4 -59 28 -70 28 -13 0 54 27 58 32 4 4 -52 28 -56 28 -4
0 30 4 41 15 41 11 0 15 -11 15 -41 0 -28 4 -39 13 -37 14 5 21 41 13 73 -6
22 -11 24 -77 23 l-70 -1 3 -45z"/>
<path d="M4141 1608 c-20 -55 35 -104 70 -62 11 13 9 15 -12 12 -13 -2 -25 2
-27 7 -1 6 9 11 23 13 20 3 26 8 23 25 -5 33 -65 37 -77 5z m59 -8 c0 -5 -9
-10 -21 -10 -11 0 -17 5 -14 10 3 6 13 10 21 10 8 0 14 -4 14 -10z"/>
<path d="M4250 1579 c0 -57 17 -66 22 -12 2 27 8 39 21 41 14 3 17 -4 17 -37
0 -23 5 -41 11 -41 6 0 9 19 7 48 -3 47 -3 47 -40 49 l-38 1 0 -49z"/>
<path d="M7430 1578 c0 -56 17 -65 22 -11 2 27 8 39 21 41 14 3 17 -4 17 -37
0 -23 5 -41 10 -41 16 0 23 27 16 65 -7 33 -9 35 -46 33 l-40 -1 0 -49z"/>
<path d="M7602 1583 c4 -57 22 -64 26 -10 2 24 8 37 18 37 8 0 14 5 14 10 0 6
-14 10 -31 10 -30 0 -30 -1 -27 -47z"/>
<path d="M7680 1615 c0 -11 7 -14 25 -9 35 9 31 -5 -5 -17 -19 -7 -30 -18 -30
-30 0 -21 0 -21 52 -24 36 -2 36 -2 31 34 -8 57 -11 61 -43 61 -20 0 -30 -5
-30 -15z m50 -44 c0 -12 -20 -25 -27 -18 -7 7 6 27 18 27 5 0 9 -4 9 -9z"/>
<path d="M7781 1616 c-9 -11 -8 -18 4 -30 9 -9 23 -16 31 -16 8 0 14 -5 14
-11 0 -7 -12 -8 -32 -4 -31 6 -32 5 -14 -10 24 -18 48 -19 64 -3 20 20 14 37
-20 53 -28 12 -29 14 -9 12 13 -1 26 4 28 11 6 17 -51 16 -66 -2z"/>
<path d="M7942 1583 c4 -55 28 -73 28 -20 0 25 7 39 23 50 22 16 21 16 -16 16
l-38 1 3 -47z"/>
<path d="M8020 1586 c0 -47 7 -53 55 -52 29 1 30 3 33 49 2 36 0 47 -12 47
-10 0 -16 -12 -18 -37 -2 -26 -8 -38 -18 -38 -10 0 -16 12 -18 38 -4 52 -22
47 -22 -7z"/>
<path d="M8142 1618 c-19 -19 -15 -66 8 -78 24 -13 56 -5 64 15 6 17 -15 20
-30 5 -15 -15 -38 14 -30 36 4 12 13 14 32 10 19 -5 25 -3 22 6 -6 18 -50 22
-66 6z"/>
<path d="M8300 1586 c0 -47 7 -53 55 -52 29 1 30 3 33 49 2 36 0 47 -12 47
-10 0 -16 -12 -18 -37 -2 -26 -8 -38 -18 -38 -10 0 -16 12 -18 38 -4 52 -22
47 -22 -7z"/>
<path d="M8410 1579 c0 -60 23 -65 28 -6 2 24 8 37 18 37 8 0 14 5 14 10 0 6
-13 10 -30 10 -29 0 -30 -1 -30 -51z"/>
<path d="M8492 1618 c-34 -34 2 -97 48 -83 30 9 25 28 -5 21 -18 -5 -25 -2
-25 9 0 10 10 15 30 15 33 0 35 3 20 31 -12 21 -50 25 -68 7z m48 -18 c0 -5
-7 -10 -15 -10 -8 0 -15 5 -15 10 0 6 7 10 15 10 8 0 15 -4 15 -10z"/>
<path d="M3370 1255 l0 -205 460 0 460 0 0 205 0 205 -460 0 -460 0 0 -205z
m910 0 l0 -195 -450 0 -450 0 0 195 0 195 450 0 450 0 0 -195z"/>
<path d="M3591 1248 c2 -52 2 -52 8 -13 l6 40 25 -37 c14 -21 28 -38 33 -38 4
0 7 23 7 51 0 31 -4 48 -10 44 -5 -3 -10 -18 -10 -33 l0 -27 -21 33 c-12 17
-25 32 -30 32 -5 0 -8 -24 -8 -52z"/>
<path d="M4010 1248 c1 -46 2 -51 14 -36 12 16 14 16 31 0 18 -16 18 -16 2 9
-12 20 -13 29 -4 39 10 10 8 12 -5 7 -12 -4 -18 -1 -18 8 0 7 -4 17 -10 20 -6
4 -10 -14 -10 -47z"/>
<path d="M3762 1248 c2 -23 8 -43 13 -45 6 -2 9 15 7 42 -2 25 -8 45 -14 45
-5 0 -8 -19 -6 -42z"/>
<path d="M3685 1250 c-11 -36 33 -68 51 -38 5 8 2 9 -9 5 -9 -3 -19 -2 -22 3
-4 6 2 10 13 10 24 0 32 8 25 26 -8 22 -51 17 -58 -6z m42 4 c-3 -3 -12 -4
-19 -1 -8 3 -5 6 6 6 11 1 17 -2 13 -5z"/>
<path d="M3795 1249 c4 -13 11 -31 16 -39 7 -12 10 -10 15 9 l7 23 13 -23 12
-24 11 28 c16 40 13 57 -4 27 -14 -25 -14 -25 -15 -2 0 12 -4 22 -8 22 -5 0
-14 -10 -20 -22 -8 -18 -11 -19 -11 -6 -1 9 -6 20 -12 24 -8 4 -9 -1 -4 -17z"/>
<path d="M3893 1254 c-8 -20 8 -48 30 -52 19 -4 39 30 31 52 -8 21 -53 21 -61
0z m45 -16 c-4 -27 -23 -34 -32 -13 -8 21 1 35 20 35 10 0 14 -8 12 -22z"/>
<path d="M3971 1233 c2 -35 2 -35 6 -8 3 16 10 33 16 37 8 5 6 8 -5 8 -14 0
-18 -8 -17 -37z"/>
<path d="M6360 1255 l0 -205 460 0 460 0 0 205 0 205 -460 0 -460 0 0 -205z
m910 0 l0 -195 -450 0 -450 0 0 195 0 195 450 0 450 0 0 -195z"/>
<path d="M6607 1294 c-15 -15 -6 -35 19 -44 14 -6 24 -16 21 -23 -5 -13 -10
-13 -42 -1 -18 7 -18 6 -6 -9 17 -21 44 -22 61 -2 15 17 6 33 -26 45 -13 5
-24 14 -24 20 0 13 37 13 43 0 3 -6 4 -5 3 2 -3 14 -38 23 -49 12z"/>
<path d="M6687 1283 c-6 -11 4 -83 12 -83 7 0 6 79 -2 86 -3 3 -7 2 -10 -3z"/>
<path d="M6727 1264 c-11 -11 -8 -52 3 -59 6 -3 19 -3 31 0 28 9 23 59 -6 63
-12 2 -24 0 -28 -4z m41 -26 c-2 -13 -10 -23 -18 -23 -8 0 -16 10 -18 23 -3
17 2 22 18 22 16 0 21 -5 18 -22z"/>
<path d="M6790 1241 c0 -17 5 -33 10 -36 6 -4 10 6 10 24 0 16 6 32 13 34 6 3
2 6 -10 6 -19 1 -23 -4 -23 -28z"/>
<path d="M6840 1262 c0 -6 10 -8 22 -4 14 3 19 2 14 -6 -4 -7 -14 -12 -22 -12
-9 0 -14 -7 -12 -17 2 -12 13 -18 31 -18 25 -1 28 2 25 30 -2 24 -8 31 -30 33
-16 2 -28 -1 -28 -6z m32 -44 c-6 -6 -15 -8 -19 -4 -4 4 -1 11 7 16 19 12 27
3 12 -12z"/>
<path d="M6913 1254 c-8 -21 10 -49 31 -48 9 1 16 -3 16 -8 0 -6 -12 -8 -26
-5 -16 3 -22 1 -16 -5 6 -6 18 -8 28 -6 14 2 20 14 22 46 3 39 2 42 -23 42
-14 0 -28 -7 -32 -16z m47 -14 c0 -21 -24 -28 -35 -10 -8 14 3 30 21 30 8 0
14 -9 14 -20z"/>
<path d="M6986 1255 c-13 -35 31 -74 50 -43 4 7 3 8 -4 4 -7 -4 -18 -4 -24 0
-9 6 -5 10 12 14 33 8 32 34 -1 38 -17 2 -29 -3 -33 -13z m41 -1 c-3 -3 -12
-4 -19 -1 -8 3 -5 6 6 6 11 1 17 -2 13 -5z"/>
<path d="M360 1240 l0 -210 460 0 460 0 0 210 0 210 -460 0 -460 0 0 -210z
m910 0 l0 -200 -450 0 -450 0 0 200 0 200 450 0 450 0 0 -200z"/>
<path d="M686 1250 c-18 -45 -21 -75 -5 -47 5 9 19 17 29 17 10 0 24 -8 29
-17 16 -27 13 -4 -5 44 -9 24 -20 43 -24 43 -4 0 -15 -18 -24 -40z m34 -5 c0
-8 -4 -15 -10 -15 -5 0 -10 7 -10 15 0 8 5 15 10 15 6 0 10 -7 10 -15z"/>
<path d="M760 1216 c0 -25 5 -46 10 -46 6 0 10 4 10 9 0 5 9 11 21 14 16 4 20
12 17 34 -2 22 -9 29 -30 31 -27 3 -28 2 -28 -42z m50 15 c0 -11 -5 -23 -11
-27 -14 -8 -29 14 -22 33 8 20 33 16 33 -6z"/>
<path d="M841 1213 c1 -27 3 -40 6 -31 2 9 10 15 17 12 19 -7 39 22 31 46 -4
13 -15 20 -31 20 -22 0 -24 -4 -23 -47z m37 15 c-2 -13 -7 -23 -13 -23 -5 0
-11 10 -13 23 -2 15 2 22 13 22 11 0 15 -7 13 -22z"/>
<path d="M910 1246 c0 -8 9 -18 20 -21 11 -3 20 -11 20 -16 0 -13 -14 -11 -29
4 -11 10 -13 9 -9 -3 6 -20 42 -19 46 1 1 8 -7 21 -20 28 l-23 12 23 -5 c12
-2 22 0 22 5 0 5 -11 9 -25 9 -15 0 -25 -6 -25 -14z"/>
<path d="M1360 1240 l0 -210 460 0 460 0 0 210 0 210 -460 0 -460 0 0 -210z
m910 0 l0 -200 -450 0 -450 0 0 200 0 200 450 0 450 0 0 -200z"/>
<path d="M1617 1364 c-15 -16 -5 -36 23 -45 17 -6 30 -15 30 -19 0 -13 -24
-18 -42 -8 -11 5 -18 5 -18 -1 0 -13 34 -23 54 -15 28 11 19 41 -16 53 -25 9
-29 14 -20 23 10 10 17 10 33 -1 18 -10 20 -10 17 1 -5 14 -50 23 -61 12z"/>
<path d="M1695 1320 c-11 -34 32 -68 50 -40 3 5 0 7 -8 4 -8 -3 -18 -1 -22 5
-3 6 2 11 13 11 24 0 32 8 25 26 -8 22 -51 17 -58 -6z m42 4 c-3 -3 -12 -4
-19 -1 -8 3 -5 6 6 6 11 1 17 -2 13 -5z"/>
<path d="M1771 1303 c1 -36 2 -36 8 -9 9 41 27 43 47 5 l16 -33 14 34 c8 18
12 35 9 38 -2 3 -8 -6 -13 -19 l-9 -23 -12 22 c-7 14 -21 22 -36 22 -22 0 -25
-4 -24 -37z"/>
<path d="M1880 1304 c0 -21 4 -33 10 -29 6 3 10 19 10 36 0 16 -4 29 -10 29
-5 0 -10 -16 -10 -36z"/>
<path d="M1917 1333 c-13 -12 -7 -54 8 -60 9 -3 24 2 34 11 16 15 19 15 24 1
7 -18 33 -20 43 -3 4 7 3 8 -4 4 -7 -4 -18 -4 -24 0 -9 6 -5 10 12 14 32 8 32
34 0 38 -19 2 -29 -5 -43 -29 -18 -33 -42 -35 -42 -3 0 14 6 18 23 17 13 -2
21 1 17 7 -7 11 -38 13 -48 3z m100 -9 c-3 -3 -12 -4 -19 -1 -8 3 -5 6 6 6 11
1 17 -2 13 -5z"/>
<path d="M1611 1196 c-17 -20 -10 -66 12 -80 19 -12 47 0 56 25 3 9 -1 8 -13
-4 -21 -20 -28 -21 -44 -5 -17 17 -15 43 4 59 13 10 19 10 36 0 16 -10 19 -10
16 1 -6 19 -52 22 -67 4z"/>
<path d="M1883 1160 c0 -30 2 -43 4 -27 2 15 2 39 0 55 -2 15 -4 2 -4 -28z"/>
<path d="M1772 1158 c2 -23 8 -43 13 -45 8 -2 11 30 6 80 -1 4 -6 7 -12 7 -6
0 -9 -17 -7 -42z"/>
<path d="M1700 1171 c0 -5 9 -7 20 -4 29 8 25 -6 -5 -17 -40 -15 -26 -48 15
-35 14 4 20 15 20 36 0 24 -4 29 -25 29 -14 0 -25 -4 -25 -9z m32 -43 c-6 -6
-15 -8 -19 -4 -4 4 -1 11 7 16 19 12 27 3 12 -12z"/>
<path d="M1810 1171 c0 -5 9 -7 20 -4 29 8 25 -6 -5 -17 -35 -13 -23 -44 14
-35 32 8 30 5 24 38 -4 20 -11 27 -29 27 -13 0 -24 -4 -24 -9z m32 -43 c-6 -6
-15 -8 -19 -4 -4 4 -1 11 7 16 19 12 27 3 12 -12z"/>
<path d="M1914 1166 c-11 -29 0 -51 26 -51 21 0 25 5 25 30 0 24 -5 31 -23 33
-13 2 -24 -3 -28 -12z m44 -18 c-2 -13 -10 -23 -18 -23 -8 0 -16 10 -18 23 -3
17 2 22 18 22 16 0 21 -5 18 -22z"/>
<path d="M1983 1164 c-8 -21 10 -49 31 -48 9 1 16 -2 16 -7 0 -5 -10 -9 -22
-9 -15 0 -19 -3 -12 -10 22 -22 44 1 44 46 0 40 -2 44 -25 44 -15 0 -28 -7
-32 -16z m47 -12 c0 -10 -3 -22 -7 -25 -10 -11 -32 13 -26 29 8 20 33 17 33
-4z"/>
<path d="M2360 1250 l0 -200 460 0 460 0 0 200 0 200 -460 0 -460 0 0 -200z
m910 0 l0 -190 -450 0 -450 0 0 190 0 190 450 0 450 0 0 -190z"/>
<path d="M2496 1257 c-18 -48 -21 -71 -5 -44 5 9 19 17 29 17 10 0 24 -8 29
-17 16 -27 13 -4 -5 44 -9 24 -20 43 -24 43 -4 0 -15 -19 -24 -43z m34 -2 c0
-8 -4 -15 -10 -15 -5 0 -10 7 -10 15 0 8 5 15 10 15 6 0 10 -7 10 -15z"/>
<path d="M2973 1250 c0 -30 2 -43 4 -27 2 15 2 39 0 55 -2 15 -4 2 -4 -28z"/>
<path d="M2649 1279 c-2 -28 3 -64 11 -72 4 -5 6 10 4 33 -3 41 -13 67 -15 39z"/>
<path d="M2570 1248 c0 -33 12 -47 38 -45 18 1 22 7 21 37 -1 34 -1 34 -8 6
-9 -41 -31 -46 -31 -7 0 17 -4 31 -10 31 -5 0 -10 -10 -10 -22z"/>
<path d="M2683 1254 c-8 -20 8 -48 30 -52 19 -4 39 30 31 52 -8 21 -53 21 -61
0z m45 -16 c-4 -27 -23 -34 -32 -13 -8 21 1 35 20 35 10 0 14 -8 12 -22z"/>
<path d="M2760 1254 c0 -9 9 -18 20 -21 11 -3 17 -10 14 -15 -3 -5 -13 -7 -23
-3 -12 5 -13 3 -4 -6 14 -14 43 -5 43 14 0 8 -10 19 -22 26 l-23 12 23 -5 c12
-2 22 0 22 5 0 5 -11 9 -25 9 -16 0 -25 -6 -25 -16z"/>
<path d="M2823 1254 c-3 -9 -2 -24 4 -33 13 -20 45 -21 51 -1 4 12 2 13 -9 3
-20 -20 -29 -16 -29 13 0 21 4 25 20 21 11 -3 20 -1 20 4 0 16 -50 10 -57 -7z"/>
<path d="M2896 1261 c-3 -4 7 -7 22 -5 l27 4 -28 -12 c-35 -15 -32 -43 6 -44
24 -1 27 2 27 32 0 29 -3 34 -24 34 -14 0 -27 -4 -30 -9z m34 -41 c0 -5 -4
-10 -9 -10 -6 0 -13 5 -16 10 -3 6 1 10 9 10 9 0 16 -4 16 -10z"/>
<path d="M3003 1235 c0 -22 2 -30 4 -17 2 12 2 30 0 40 -3 9 -5 -1 -4 -23z"/>
<path d="M3032 1233 c1 -37 1 -37 5 -5 3 18 10 32 18 32 8 0 15 -14 18 -32 4
-32 4 -32 5 5 2 33 0 37 -23 37 -23 0 -25 -4 -23 -37z"/>
<path d="M3099 1253 c-1 -10 0 -22 1 -28 1 -5 3 -17 3 -25 0 -22 18 -30 39
-19 13 7 18 21 18 49 0 38 -2 40 -30 40 -21 0 -30 -5 -31 -17z m39 -28 c-1
-25 -6 -35 -17 -35 -13 0 -13 2 -2 9 9 6 10 11 2 15 -16 10 -13 46 4 46 10 0
14 -10 13 -35z"/>
<path d="M7360 1250 l0 -200 460 0 460 0 0 200 0 200 -460 0 -460 0 0 -200z
m910 0 l0 -190 -450 0 -450 0 0 190 0 190 450 0 450 0 0 -190z"/>
<path d="M7661 1366 c-17 -20 -10 -67 12 -80 19 -12 47 0 56 25 3 9 -1 8 -13
-4 -21 -20 -28 -21 -44 -5 -17 17 -15 43 3 58 12 10 19 10 27 2 17 -17 33 -15
18 3 -16 19 -44 19 -59 1z"/>
<path d="M7753 1330 c0 -30 2 -43 4 -27 2 15 2 39 0 55 -2 15 -4 2 -4 -28z"/>
<path d="M7970 1365 c0 -8 -9 -15 -19 -15 -26 0 -34 -15 -27 -45 5 -19 12 -24
31 -23 23 2 25 6 25 50 0 26 -2 48 -5 48 -3 0 -5 -7 -5 -15z m-3 -41 c8 -21
-13 -42 -28 -27 -13 13 -5 43 11 43 6 0 13 -7 17 -16z"/>
<path d="M7774 1335 c-14 -37 26 -69 53 -42 22 22 8 57 -23 57 -14 0 -27 -7
-30 -15z m46 -20 c0 -15 -6 -25 -14 -25 -16 0 -25 19 -18 38 8 22 32 13 32
-13z"/>
<path d="M7853 1320 c2 -31 5 -35 30 -36 24 -1 27 2 27 32 0 19 -4 34 -10 34
-5 0 -10 -14 -10 -31 0 -39 -22 -34 -32 7 -6 27 -6 27 -5 -6z"/>
<path d="M7581 1168 c1 -29 4 -43 6 -31 3 15 13 23 31 25 21 2 27 8 27 28 0
21 -5 26 -32 28 l-33 3 1 -53z m48 33 c18 -11 5 -31 -20 -31 -12 0 -19 7 -19
20 0 21 16 26 39 11z"/>
<path d="M7920 1206 c0 -7 -9 -16 -21 -19 -16 -4 -20 -12 -17 -34 2 -22 9 -29
31 -31 26 -3 27 -2 27 47 0 28 -4 51 -10 51 -5 0 -10 -6 -10 -14z m0 -52 c0
-31 -23 -28 -28 4 -2 15 2 22 12 22 11 0 16 -9 16 -26z"/>
<path d="M7660 1161 c0 -17 5 -33 10 -36 6 -4 10 6 10 24 0 16 6 32 13 34 6 3
2 6 -10 6 -19 1 -23 -4 -23 -28z"/>
<path d="M7711 1172 c-13 -25 8 -56 35 -50 29 5 27 62 -3 66 -13 2 -26 -4 -32
-16z m44 -17 c0 -28 -29 -25 -33 3 -3 19 0 23 15 20 10 -2 18 -12 18 -23z"/>
<path d="M7780 1187 c0 -2 5 -18 11 -35 13 -37 23 -34 38 10 l11 33 -20 -25
c-15 -20 -20 -21 -20 -8 0 9 -4 20 -10 23 -5 3 -10 4 -10 2z"/>
<path d="M7853 1155 c0 -22 2 -30 4 -17 2 12 2 30 0 40 -3 9 -5 -1 -4 -23z"/>
<path d="M7954 1176 c-13 -35 25 -71 49 -46 9 10 7 11 -10 6 -12 -4 -24 -2
-28 4 -4 6 4 10 20 10 20 0 26 4 23 18 -4 22 -46 29 -54 8z m46 -6 c0 -5 -7
-10 -15 -10 -8 0 -15 5 -15 10 0 6 7 10 15 10 8 0 15 -4 15 -10z"/>
<path d="M8031 1153 c2 -35 2 -35 6 -8 3 16 10 33 16 37 8 5 6 8 -5 8 -14 0
-18 -8 -17 -37z"/>
<path d="M8360 1250 l0 -200 460 0 460 0 0 200 0 200 -460 0 -460 0 0 -200z
m910 0 l0 -190 -450 0 -450 0 0 190 0 190 450 0 450 0 0 -190z"/>
<path d="M8626 1365 c-19 -20 -21 -45 -3 -69 15 -21 58 -18 65 4 5 13 3 13
-11 1 -25 -20 -47 -6 -47 29 0 35 22 49 47 29 14 -12 16 -12 11 1 -7 21 -43
24 -62 5z"/>
<path d="M8713 1330 c0 -30 2 -43 4 -27 2 15 2 39 0 55 -2 15 -4 2 -4 -28z"/>
<path d="M8878 1357 c-8 -22 7 -70 22 -75 13 -5 13 -3 1 11 -8 10 -11 27 -7
41 6 25 -8 46 -16 23z"/>
<path d="M8743 1320 c2 -30 5 -35 27 -35 21 0 26 5 28 33 2 18 -1 32 -7 32 -6
0 -11 -14 -11 -31 0 -39 -22 -34 -32 7 -6 27 -6 27 -5 -6z"/>
<path d="M8815 1340 c-8 -14 3 -30 21 -30 8 0 14 -5 14 -11 0 -6 -9 -8 -21 -4
-15 5 -19 4 -15 -4 10 -16 43 -13 50 4 3 9 -5 21 -22 30 -24 14 -24 16 -4 12
12 -3 22 -1 22 4 0 12 -37 11 -45 -1z"/>
<path d="M8915 1330 c-11 -33 32 -68 49 -41 4 5 -3 7 -14 4 -11 -3 -20 0 -20
6 0 6 8 11 18 11 24 0 32 8 25 26 -8 22 -51 17 -58 -6z m45 0 c0 -5 -7 -10
-15 -10 -8 0 -15 5 -15 10 0 6 7 10 15 10 8 0 15 -4 15 -10z"/>
<path d="M8991 1313 c1 -27 3 -31 6 -13 2 14 12 31 21 38 14 11 13 12 -6 12
-19 0 -22 -5 -21 -37z"/>
<path d="M8572 1173 l-2 -53 33 1 c29 2 29 2 5 6 -24 4 -27 9 -31 51 l-3 47
-2 -52z"/>
<path d="M8672 1203 c-4 -10 -5 -34 -1 -53 l6 -35 2 33 c0 17 5 32 9 32 4 0 8
9 8 20 0 25 -12 26 -24 3z"/>
<path d="M8983 1170 c0 -30 2 -43 4 -27 2 15 2 39 0 55 -2 15 -4 2 -4 -28z"/>
<path d="M8643 1155 c0 -22 2 -30 4 -17 2 12 2 30 0 40 -3 9 -5 -1 -4 -23z"/>
<path d="M8705 1170 c-11 -33 32 -68 49 -41 4 5 -3 7 -14 4 -11 -3 -20 0 -20
6 0 6 8 11 18 11 24 0 32 8 25 26 -8 22 -51 17 -58 -6z m45 0 c0 -5 -7 -10
-15 -10 -8 0 -15 5 -15 10 0 6 7 10 15 10 8 0 15 -4 15 -10z"/>
<path d="M8784 1176 c-10 -25 1 -51 20 -51 11 0 21 7 23 15 4 12 3 13 -5 1
-13 -18 -32 -5 -32 21 0 15 5 19 20 15 11 -3 20 -1 20 4 0 15 -40 10 -46 -5z"/>
<path d="M8851 1163 c5 -15 7 -38 4 -51 -4 -16 -2 -21 5 -17 11 7 22 31 34 75
l7 25 -15 -25 -16 -25 -6 23 c-3 12 -10 22 -15 22 -5 0 -4 -12 2 -27z"/>
<path d="M8914 1176 c-3 -8 -4 -23 -2 -33 4 -22 49 -25 56 -3 5 13 3 13 -12 1
-20 -17 -42 -1 -32 24 4 11 12 14 27 10 15 -5 19 -4 15 4 -10 16 -46 14 -52
-3z"/>
<path d="M9014 1176 c-15 -39 23 -74 50 -46 8 9 6 11 -11 6 -12 -4 -24 -2 -28
4 -4 6 4 10 20 10 20 0 26 4 23 18 -4 22 -46 29 -54 8z m36 -6 c0 -5 -7 -10
-15 -10 -8 0 -15 5 -15 10 0 6 7 10 15 10 8 0 15 -4 15 -10z"/>
<path d="M4360 1240 l0 -200 460 0 460 0 0 200 0 200 -460 0 -460 0 0 -200z
m910 0 l0 -190 -450 0 -450 0 0 190 0 190 450 0 450 0 0 -190z"/>
<path d="M4671 1238 c2 -52 2 -52 8 -13 l6 40 23 -38 c29 -46 42 -40 42 19 0
51 -17 60 -22 12 l-3 -33 -20 33 c-10 17 -23 32 -27 32 -4 0 -7 -24 -7 -52z"/>
<path d="M4880 1275 c0 -8 -9 -15 -20 -15 -15 0 -20 -7 -20 -29 0 -34 12 -45
40 -36 16 5 20 15 20 51 0 24 -4 44 -10 44 -5 0 -10 -7 -10 -15z m0 -51 c0
-31 -23 -28 -28 4 -2 15 2 22 12 22 11 0 16 -9 16 -26z"/>
<path d="M4764 1245 c-14 -37 26 -69 53 -42 22 22 8 57 -23 57 -14 0 -27 -7
-30 -15z m46 -14 c0 -11 -5 -23 -11 -27 -14 -8 -29 14 -22 33 8 20 33 16 33
-6z"/>
<path d="M4913 1244 c-8 -22 10 -49 33 -49 14 0 20 8 22 33 3 29 1 32 -23 32
-14 0 -28 -7 -32 -16z m44 0 c-3 -3 -12 -4 -19 -1 -8 3 -5 6 6 6 11 1 17 -2
13 -5z m-2 -34 c-3 -5 -10 -10 -16 -10 -5 0 -9 5 -9 10 0 6 7 10 16 10 8 0 12
-4 9 -10z"/>
<path d="M5360 1240 l0 -200 460 0 460 0 0 200 0 200 -460 0 -460 0 0 -200z
m910 0 l0 -190 -450 0 -450 0 0 190 0 190 450 0 450 0 0 -190z"/>
<path d="M5507 1284 c-15 -16 -5 -36 23 -45 17 -6 30 -15 30 -19 0 -16 -20
-21 -40 -10 -13 7 -20 7 -20 1 0 -13 45 -25 59 -16 23 13 11 43 -21 54 -25 9
-29 14 -20 23 10 10 17 10 33 -1 18 -10 20 -10 17 1 -5 14 -50 23 -61 12z"/>
<path d="M5650 1245 c0 -25 5 -45 10 -45 6 0 10 11 10 25 0 38 28 32 33 -7 4
-32 4 -32 5 5 2 31 -1 37 -18 37 -11 0 -20 7 -20 15 0 8 -4 15 -10 15 -5 0
-10 -20 -10 -45z"/>
<path d="M5850 1276 c0 -8 -10 -16 -22 -18 -18 -2 -23 -10 -23 -33 0 -26 4
-30 28 -31 26 -1 27 1 27 47 0 27 -2 49 -5 49 -3 0 -5 -6 -5 -14z m-3 -42 c8
-21 -13 -42 -28 -27 -13 13 -5 43 11 43 6 0 13 -7 17 -16z"/>
<path d="M5953 1240 c0 -30 2 -43 4 -27 2 15 2 39 0 55 -2 15 -4 2 -4 -28z"/>
<path d="M5586 1244 c-8 -22 12 -56 31 -52 9 2 19 10 21 18 4 12 3 13 -10 3
-17 -15 -28 -7 -28 20 0 14 5 18 20 14 11 -3 20 -1 20 4 0 16 -48 10 -54 -7z"/>
<path d="M5728 1242 c-10 -36 29 -71 47 -42 3 5 0 7 -8 4 -8 -3 -18 -1 -22 5
-4 7 4 11 20 11 20 0 26 4 23 18 -5 25 -54 29 -60 4z m39 2 c-3 -3 -12 -4 -19
-1 -8 3 -5 6 6 6 11 1 17 -2 13 -5z"/>
<path d="M5883 1230 c2 -29 6 -35 25 -36 19 -1 22 3 21 35 -1 36 -1 36 -8 6
-3 -16 -11 -30 -16 -30 -5 0 -13 14 -17 30 -6 29 -6 29 -5 -5z"/>
<path d="M5983 1225 c0 -22 2 -30 4 -17 2 12 2 30 0 40 -3 9 -5 -1 -4 -23z"/>
<path d="M6011 1223 c1 -35 2 -36 8 -9 8 38 31 47 31 12 0 -13 5 -28 11 -31 7
-5 9 5 7 26 -2 29 -7 35 -30 37 -26 3 -28 1 -27 -35z"/>
<path d="M6083 1244 c-8 -21 10 -49 31 -48 9 1 16 -3 16 -8 0 -6 -12 -8 -26
-5 -23 4 -24 3 -10 -11 23 -23 46 1 46 49 0 35 -3 39 -25 39 -15 0 -28 -7 -32
-16z m47 -13 c0 -11 -4 -22 -9 -25 -12 -8 -34 21 -26 34 11 17 35 11 35 -9z"/>
<path d="M70 1240 c0 -6 35 -10 85 -10 50 0 85 4 85 10 0 6 -35 10 -85 10 -50
0 -85 -4 -85 -10z"/>
<path d="M175 1191 c-49 -6 -50 -7 -53 -42 -2 -23 2 -40 13 -49 22 -18 32 -4
11 18 -18 21 -12 52 10 52 8 0 14 -9 14 -21 0 -31 19 -59 40 -59 26 0 42 32
31 62 -4 13 -6 29 -4 36 3 6 1 11 -4 10 -4 0 -30 -4 -58 -7z m50 -42 c8 -23
-7 -45 -23 -35 -5 3 -12 17 -14 31 -4 19 -1 25 13 25 10 0 21 -9 24 -21z"/>
<path d="M132 1058 c-15 -15 -15 -61 0 -76 7 -7 29 -12 50 -12 48 0 77 36 60
75 -7 14 -18 25 -27 25 -20 0 -19 -10 3 -26 24 -18 4 -48 -36 -52 -39 -4 -61
27 -37 52 8 8 15 17 15 20 0 10 -15 7 -28 -6z"/>
<path d="M385 955 c-24 -24 -25 -27 -25 -185 0 -158 1 -161 25 -185 l24 -25
411 0 411 0 24 25 c24 24 25 27 25 185 0 158 -1 161 -25 185 l-24 25 -411 0
-411 0 -24 -25z m865 -5 c18 -18 20 -33 20 -177 0 -147 -1 -158 -22 -180 l-21
-23 -406 0 c-402 0 -405 0 -428 22 -22 21 -23 27 -23 177 0 145 1 156 22 178
l21 23 409 0 c395 0 409 -1 428 -20z"/>
<path d="M560 770 c0 -27 5 -50 10 -50 6 0 10 23 10 50 0 28 -4 50 -10 50 -5
0 -10 -22 -10 -50z"/>
<path d="M670 810 c0 -5 6 -10 14 -10 10 0 16 -14 19 -42 l4 -43 1 43 c1 30 6
42 17 42 8 0 15 5 15 10 0 6 -16 10 -35 10 -19 0 -35 -4 -35 -10z"/>
<path d="M790 770 l0 -50 38 2 c36 1 36 1 5 5 -40 5 -46 33 -8 33 14 0 25 5
25 10 0 6 -11 10 -25 10 -14 0 -25 5 -25 10 0 6 14 10 30 10 17 0 30 5 30 10
0 6 -16 10 -35 10 l-35 0 0 -50z"/>
<path d="M920 805 c0 -8 -9 -15 -19 -15 -26 0 -34 -15 -27 -46 5 -17 13 -24
31 -24 23 0 25 3 25 50 0 28 -2 50 -5 50 -3 0 -5 -7 -5 -15z m-5 -50 c0 -10
-6 -20 -12 -22 -8 -3 -13 5 -13 22 0 17 5 25 13 23 6 -3 12 -13 12 -23z"/>
<path d="M595 770 c-7 -23 10 -50 30 -50 20 0 37 27 30 50 -4 13 -15 20 -30
20 -15 0 -26 -7 -30 -20z m45 -15 c0 -16 -6 -25 -15 -25 -9 0 -15 9 -15 25 0
16 6 25 15 25 9 0 15 -9 15 -25z"/>
<path d="M951 772 c-5 -10 -6 -24 -1 -32 4 -7 6 -19 3 -27 -7 -18 24 -28 42
-13 9 7 15 29 15 51 0 35 -3 39 -25 39 -13 0 -29 -8 -34 -18z m37 -14 c-2 -13
-7 -23 -13 -23 -5 0 -11 10 -13 23 -2 15 2 22 13 22 11 0 15 -7 13 -22z m2
-42 c0 -11 -19 -15 -25 -6 -3 5 1 10 9 10 9 0 16 -2 16 -4z"/>
<path d="M1024 776 c-15 -39 23 -74 50 -46 8 9 6 11 -11 5 -14 -4 -23 -2 -23
4 0 6 9 11 21 11 14 0 19 5 17 18 -4 22 -46 29 -54 8z m46 -6 c0 -5 -7 -10
-15 -10 -8 0 -15 5 -15 10 0 6 7 10 15 10 8 0 15 -4 15 -10z"/>
<path d="M6385 955 c-25 -24 -25 -27 -25 -189 0 -157 1 -166 22 -186 21 -19
33 -20 438 -20 405 0 417 1 438 20 21 20 22 29 22 186 0 162 0 165 -25 189
l-24 25 -411 0 -411 0 -24 -25z m865 -5 c18 -18 20 -33 20 -180 0 -147 -2
-162 -20 -180 -19 -19 -33 -20 -430 -20 -397 0 -411 1 -430 20 -18 18 -20 33
-20 177 0 147 1 158 22 180 l21 23 409 0 c395 0 409 -1 428 -20z"/>
<path d="M6690 845 c0 -43 1 -45 28 -45 33 0 52 16 52 45 0 29 -19 45 -52 45
-27 0 -28 -2 -28 -45z m55 0 c0 -23 -5 -31 -22 -33 -20 -3 -23 1 -23 33 0 32
3 36 23 33 17 -2 22 -10 22 -33z"/>
<path d="M6858 880 c-2 -7 -2 -27 0 -46 4 -33 6 -34 49 -34 44 0 44 0 41 33
-2 24 -8 33 -25 35 -13 2 -23 -1 -23 -7 0 -6 6 -8 14 -5 8 3 17 1 21 -5 3 -7
-2 -11 -15 -11 -11 0 -23 -7 -26 -15 -11 -28 -25 -15 -22 20 2 34 -7 56 -14
35z m82 -60 c0 -5 -7 -10 -15 -10 -8 0 -15 5 -15 10 0 6 7 10 15 10 8 0 15 -4
15 -10z"/>
<path d="M6784 859 c-5 -9 -2 -10 10 -6 10 4 23 4 29 0 7 -4 2 -9 -13 -13 -14
-3 -26 -14 -28 -23 -3 -13 4 -17 28 -17 29 0 31 2 28 33 -2 24 -8 33 -25 35
-11 2 -25 -2 -29 -9z m41 -39 c-3 -5 -10 -10 -16 -10 -5 0 -9 5 -9 10 0 6 7
10 16 10 8 0 12 -4 9 -10z"/>
<path d="M6531 683 c0 -39 2 -44 9 -25 6 15 18 22 35 22 20 0 25 5 25 25 0 22
-4 25 -35 25 l-35 0 1 -47z m59 22 c0 -9 -9 -15 -25 -15 -16 0 -25 6 -25 15 0
9 9 15 25 15 16 0 25 -6 25 -15z"/>
<path d="M6738 720 c-5 -17 3 -80 11 -80 7 0 6 79 -2 86 -3 3 -7 0 -9 -6z"/>
<path d="M6918 718 c-7 -16 2 -78 11 -78 7 0 6 79 -2 86 -2 3 -7 -1 -9 -8z"/>
<path d="M6621 673 c2 -31 3 -33 6 -10 2 15 9 27 14 27 5 0 9 5 9 10 0 6 -7
10 -15 10 -11 0 -15 -10 -14 -37z"/>
<path d="M6664 696 c-11 -29 0 -51 26 -51 21 0 25 5 25 30 0 24 -5 31 -23 33
-13 2 -24 -3 -28 -12z m43 -12 c8 -21 -13 -42 -28 -27 -13 13 -5 43 11 43 6 0
13 -7 17 -16z"/>
<path d="M6774 696 c-11 -29 1 -51 29 -54 15 -2 27 1 27 6 0 6 -8 8 -19 5 -10
-3 -22 0 -25 6 -5 7 3 11 19 11 20 0 26 4 23 18 -4 22 -46 29 -54 8z m41 -6
c3 -5 -3 -10 -15 -10 -12 0 -18 5 -15 10 3 6 10 10 15 10 5 0 12 -4 15 -10z"/>
<path d="M6851 696 c-19 -23 -4 -56 25 -56 13 0 24 4 24 9 0 5 -9 7 -20 4 -15
-4 -20 0 -20 14 0 27 11 35 28 20 13 -10 14 -9 10 3 -7 21 -32 24 -47 6z"/>
<path d="M6953 675 c0 -22 2 -30 4 -17 2 12 2 30 0 40 -3 9 -5 -1 -4 -23z"/>
<path d="M6984 696 c-11 -29 0 -51 26 -51 21 0 25 5 25 30 0 24 -5 31 -23 33
-13 2 -24 -3 -28 -12z m41 -22 c0 -10 -8 -20 -17 -22 -18 -3 -26 27 -11 42 12
11 28 0 28 -20z"/>
<path d="M7050 676 c0 -42 17 -49 22 -8 4 36 21 34 30 -4 6 -28 6 -27 5 6 -2
30 -6 35 -29 38 -26 3 -28 1 -28 -32z"/>
<path d="M70 930 c0 -5 7 -10 15 -10 8 0 15 5 15 10 0 6 -7 10 -15 10 -8 0
-15 -4 -15 -10z"/>
<path d="M120 930 c0 -6 27 -10 60 -10 33 0 60 4 60 10 0 6 -27 10 -60 10 -33
0 -60 -4 -60 -10z"/>
<path d="M120 892 c0 -7 -9 -12 -20 -12 -11 0 -20 -4 -20 -10 0 -5 9 -10 20
-10 16 0 20 -7 21 -32 1 -18 1 -39 0 -45 -1 -9 16 -13 59 -13 70 0 80 15 15
23 -53 5 -52 5 -57 37 -3 24 0 25 49 28 33 2 53 8 57 17 6 17 -10 30 -19 15
-9 -14 -78 -13 -93 2 -9 9 -12 9 -12 0z"/>
<path d="M142 734 c-31 -21 -30 -69 3 -90 51 -33 121 19 97 71 -7 14 -19 25
-28 25 -16 0 -16 -2 0 -19 20 -22 14 -61 -10 -61 -10 0 -14 13 -14 45 0 49
-10 56 -48 29z m28 -44 c0 -32 -11 -38 -29 -16 -14 16 -4 46 15 46 9 0 14 -11
14 -30z"/>
<path d="M70 621 c0 -4 34 -21 76 -36 l77 -28 -73 -27 c-41 -14 -76 -32 -78
-40 -3 -9 1 -11 14 -6 11 4 50 19 87 33 47 18 67 30 65 41 -2 8 -37 27 -78 43
-81 31 -90 33 -90 20z"/>
<path d="M350 290 l0 -210 76 0 c61 0 88 -5 134 -26 l57 -25 58 25 c57 26 60
26 326 26 l269 0 0 210 0 210 -460 0 -460 0 0 -210z m910 0 l0 -200 -265 0
c-261 0 -265 0 -321 -25 l-57 -25 -55 25 c-42 19 -71 25 -128 25 l-74 0 0 200
0 200 450 0 450 0 0 -200z"/>
<path d="M460 284 l0 -65 48 3 47 3 0 50 c1 63 -8 75 -56 75 l-39 0 0 -66z
m78 34 c3 -14 -3 -18 -27 -18 -25 0 -31 4 -31 21 0 16 5 20 27 17 17 -2 29
-10 31 -20z m5 -52 c8 -19 -1 -26 -35 -26 -21 0 -28 5 -28 20 0 15 7 20 29 20
16 0 31 -6 34 -14z"/>
<path d="M790 285 l0 -65 39 0 c42 0 56 11 66 53 11 44 -16 77 -65 77 l-40 0
0 -65z m74 39 c19 -18 21 -55 4 -72 -7 -7 -25 -12 -40 -12 -26 0 -28 3 -28 43
0 24 3 47 7 50 11 12 41 7 57 -9z"/>
<path d="M1029 335 c-3 -11 -3 -41 -1 -67 3 -36 8 -48 20 -48 12 0 13 3 4 12
-16 16 -15 65 1 71 8 4 9 8 1 14 -6 4 -13 15 -16 23 -3 11 -6 9 -9 -5z"/>
<path d="M593 270 c0 -30 2 -43 4 -27 2 15 2 39 0 55 -2 15 -4 2 -4 -28z"/>
<path d="M636 305 c-32 -32 -8 -93 33 -82 13 3 21 1 21 -8 0 -18 -21 -24 -44
-13 -14 8 -17 7 -14 -4 3 -7 16 -14 31 -16 34 -4 49 24 45 85 -3 42 -6 47 -30
50 -15 2 -33 -3 -42 -12z m52 -34 c4 -26 -13 -42 -35 -34 -14 5 -18 45 -6 57
14 14 38 0 41 -23z"/>
<path d="M933 313 c-25 -10 -12 -22 17 -16 39 7 40 -13 1 -22 -29 -6 -46 -28
-35 -46 3 -5 23 -8 45 -7 38 1 39 2 39 38 0 51 -25 71 -67 53z m47 -58 c0 -20
-28 -31 -42 -17 -10 10 8 23 40 31 1 1 2 -6 2 -14z"/>
<path d="M1080 305 c-12 -14 -11 -16 13 -10 42 11 56 -7 16 -20 -23 -8 -34
-18 -34 -31 0 -15 8 -19 40 -20 l41 -2 -6 47 c-4 40 -8 46 -31 49 -15 2 -31
-4 -39 -13z m50 -60 c-7 -8 -19 -15 -26 -15 -8 0 -14 7 -14 15 0 10 10 15 26
15 22 0 25 -2 14 -15z"/>
<path d="M7360 290 l0 -210 76 0 c61 0 88 -5 134 -26 l57 -25 58 25 c57 26 60
26 326 26 l269 0 0 210 0 210 -460 0 -460 0 0 -210z m910 0 l0 -200 -265 0
c-261 0 -265 0 -321 -25 l-57 -25 -55 25 c-42 19 -71 25 -128 25 l-74 0 0 200
0 200 450 0 450 0 0 -200z"/>
<path d="M7483 338 c2 -7 13 -37 23 -65 10 -29 24 -53 30 -53 13 0 60 117 51
127 -4 3 -11 -5 -16 -18 -5 -13 -15 -39 -22 -57 l-14 -34 -19 56 c-11 31 -23
56 -29 56 -5 0 -7 -6 -4 -12z"/>
<path d="M7610 286 c0 -37 4 -66 10 -66 6 0 10 24 11 53 l1 52 17 -49 c9 -28
22 -51 27 -53 6 -2 17 18 26 44 l16 48 1 -47 c2 -74 21 -57 21 17 0 49 -3 65
-14 65 -8 0 -17 -11 -20 -25 -3 -13 -11 -37 -17 -52 l-11 -28 -18 50 c-10 29
-24 51 -33 53 -15 3 -17 -6 -17 -62z"/>
<path d="M7760 309 c0 -6 5 -29 12 -50 12 -40 25 -50 33 -24 16 49 17 50 27
18 5 -18 13 -33 17 -33 11 0 31 56 30 84 -1 15 -4 12 -11 -11 -14 -41 -24 -42
-32 -2 -7 36 -22 30 -35 -14 l-9 -32 -7 33 c-7 32 -25 54 -25 31z"/>
<path d="M7910 305 c-11 -13 -8 -14 19 -9 40 8 40 -8 1 -23 -20 -8 -30 -18
-30 -33 0 -18 5 -21 40 -18 40 2 40 2 40 44 0 29 -5 44 -16 48 -25 10 -41 7
-54 -9z m50 -54 c0 -6 -5 -13 -10 -16 -15 -9 -43 3 -35 15 8 13 45 13 45 1z"/>
<path d="M8005 312 c-9 -10 -5 -92 5 -92 6 0 10 16 10 35 0 28 5 38 23 45 12
5 20 10 17 11 -13 5 -50 6 -55 1z"/>
<path d="M8075 300 c-28 -31 -10 -74 31 -78 21 -2 33 2 37 12 7 19 -4 21 -20
5 -13 -13 -43 -5 -43 11 0 5 16 10 35 10 28 0 35 4 35 20 0 18 -26 40 -48 40
-5 0 -17 -9 -27 -20z m55 -10 c0 -5 -12 -10 -26 -10 -14 0 -23 4 -19 10 3 6
15 10 26 10 10 0 19 -4 19 -10z"/>
</g>
</svg>
