<svg height="17.500378mm" viewBox="0 0 18.035334 17.500378" width="18.035334mm" xmlns="http://www.w3.org/2000/svg"><g transform="matrix(1.0148887 0 0 1.0148887 15.90952 -3.872907)"><path d="m-6.8492015 4.2724668a1.1191255 1.1099671 0 0 0 -.4288818.1085303l-5.8524037 2.7963394a1.1191255 1.1099671 0 0 0 -.605524.7529759l-1.443828 6.2812846a1.1191255 1.1099671 0 0 0 .151943.851028 1.1191255 1.1099671 0 0 0 .06362.08832l4.0508 5.036555a1.1191255 1.1099671 0 0 0 .874979.417654l6.4961011-.0015a1.1191255 1.1099671 0 0 0 .8749788-.416906l4.0493043-5.037295a1.1191255 1.1099671 0 0 0 .2163114-.939349l-1.44607203-6.2812886a1.1191255 1.1099671 0 0 0 -.60552451-.7529758l-5.85315166-2.7948425a1.1191255 1.1099671 0 0 0 -.5426519-.1085303z" fill="#326ce5"/><path d="m-6.8523435 3.8176372a1.1814304 1.171762 0 0 0 -.4520849.1152668l-6.1787426 2.9512758a1.1814304 1.171762 0 0 0 -.639206.794891l-1.523915 6.6308282a1.1814304 1.171762 0 0 0 .160175.89893 1.1814304 1.171762 0 0 0 .06736.09281l4.276094 5.317236a1.1814304 1.171762 0 0 0 .92363.440858l6.8576188-.0015a1.1814304 1.171762 0 0 0 .9236308-.44011l4.2745966-5.317985a1.1814304 1.171762 0 0 0 .228288-.990993l-1.52615681-6.6315712a1.1814304 1.171762 0 0 0 -.6392054-.7941425l-6.17874269-2.9512758a1.1814304 1.171762 0 0 0 -.5733398-.1145183zm.00299.4550789a1.1191255 1.1099671 0 0 1 .5426517.1085303l5.85315169 2.7948425a1.1191255 1.1099671 0 0 1 .60552822.7529759l1.44607289 6.2812852a1.1191255 1.1099671 0 0 1 -.2163123.939348l-4.0493032 5.037304a1.1191255 1.1099671 0 0 1 -.8749789.416906l-6.4961006.0015a1.1191255 1.1099671 0 0 1 -.874979-.417652l-4.0508-5.036554a1.1191255 1.1099671 0 0 1 -.06362-.08832 1.1191255 1.1099671 0 0 1 -.151942-.851028l1.443827-6.2812853a1.1191255 1.1099671 0 0 1 .605524-.7529758l5.8524036-2.7963395a1.1191255 1.1099671 0 0 1 .4288819-.1085303z" fill="#fff"/></g><g fill="#fff" transform="translate(-1.570514 -.39937)"><path d="m11.672502 3.9600347v2.142506h2.20296v-2.142506zm0 3.08405v.5462191c.2587-.06122.52685-.09715.80357-.09715.49701 0 .96978.106323 1.39939.2945548v-.7436239zm-6.2838598.03307v2.1425051h2.20297v-2.1425051zm3.1419301 0v2.1425051h.9281098c.3102901-.520329.7495899-.954616 1.2748599-1.2572889v-.8852163zm-3.1620802 3.1171223v2.142506h2.2029701v-2.142506zm3.1517501 0v2.142506h.7064101c-.16935-.410763-.26458-.859621-.26458-1.329635 0-.28008.0371-.551296.0997-.812871z"/><path d="m12.608072 7.9394728c-1.7599 0-3.1997998 1.439912-3.1997998 3.1998052 0 1.759893 1.4398998 3.199805 3.1997998 3.199805 1.75989 0 3.199799-1.439912 3.199799-3.199805 0-1.7598932-1.439909-3.1998052-3.199799-3.1998052zm1.34392 4.5437232-1.6639-1.023938v-1.9198832h.47997v1.6639002l1.43992.863947z" stroke-width=".319981"/></g></svg>