<svg height="17.500378mm" viewBox="0 0 18.035334 17.500378" width="18.035334mm" xmlns="http://www.w3.org/2000/svg"><g transform="matrix(1.0148887 0 0 1.0148887 15.90952 -3.872907)"><path d="m-6.8492015 4.2724668a1.1191255 1.1099671 0 0 0 -.4288818.1085303l-5.8524037 2.7963394a1.1191255 1.1099671 0 0 0 -.605524.7529759l-1.443828 6.2812846a1.1191255 1.1099671 0 0 0 .151943.851028 1.1191255 1.1099671 0 0 0 .06362.08832l4.0508 5.036555a1.1191255 1.1099671 0 0 0 .874979.417654l6.4961011-.0015a1.1191255 1.1099671 0 0 0 .8749788-.416906l4.0493043-5.037295a1.1191255 1.1099671 0 0 0 .2163114-.939349l-1.44607203-6.2812886a1.1191255 1.1099671 0 0 0 -.60552451-.7529758l-5.85315166-2.7948425a1.1191255 1.1099671 0 0 0 -.5426519-.1085303z" fill="#326ce5"/><path d="m-6.8523435 3.8176372a1.1814304 1.171762 0 0 0 -.4520849.1152668l-6.1787426 2.9512758a1.1814304 1.171762 0 0 0 -.639206.794891l-1.523915 6.6308282a1.1814304 1.171762 0 0 0 .160175.89893 1.1814304 1.171762 0 0 0 .06736.09281l4.276094 5.317236a1.1814304 1.171762 0 0 0 .92363.440858l6.8576188-.0015a1.1814304 1.171762 0 0 0 .9236308-.44011l4.2745966-5.317985a1.1814304 1.171762 0 0 0 .228288-.990993l-1.52615681-6.6315712a1.1814304 1.171762 0 0 0 -.6392054-.7941425l-6.17874269-2.9512758a1.1814304 1.171762 0 0 0 -.5733398-.1145183zm.00299.4550789a1.1191255 1.1099671 0 0 1 .5426517.1085303l5.85315169 2.7948425a1.1191255 1.1099671 0 0 1 .60552822.7529759l1.44607289 6.2812852a1.1191255 1.1099671 0 0 1 -.2163123.939348l-4.0493032 5.037304a1.1191255 1.1099671 0 0 1 -.8749789.416906l-6.4961006.0015a1.1191255 1.1099671 0 0 1 -.874979-.417652l-4.0508-5.036554a1.1191255 1.1099671 0 0 1 -.06362-.08832 1.1191255 1.1099671 0 0 1 -.151942-.851028l1.443827-6.2812853a1.1191255 1.1099671 0 0 1 .605524-.7529758l5.8524036-2.7963395a1.1191255 1.1099671 0 0 1 .4288819-.1085303z" fill="#fff"/></g><g fill="#fff"><path d="m-1268.627-202.22852-10.623 3.08008 10.623 3.08203 3.1563-.91601c1.4424-1.33758 3.3634-2.16602 5.4668-2.16602.5107 0 1.0088.054 1.4941.14649l.5059-.14649z" fill-rule="evenodd" transform="matrix(.35667150509 0 0 .35667150509 460.398484 75.864889)"/><path d="m-1279.25-197.96875v11.30273l8.8418 4.89649v-3.4707c0-1.05099.4282-1.91553 1.0801-2.61524l.025-7.1543z" fill-rule="evenodd" transform="matrix(.35667150509 0 0 .35667150509 460.398484 75.864889)"/><path d="m-1266.8301-195.34375-1.1211.33398.01 2.53321c.1843-1.03627.568-2.00466 1.1113-2.86719zm6.8262 2.99219c-.7386 0-1.2734.53483-1.2734 1.27344v1.27148h2.5449v-1.27148c0-.73857-.533-1.27344-1.2715-1.27344z" fill-rule="evenodd" transform="matrix(.35667150509 0 0 .35667150509 460.398484 75.864889)"/><path d="m-329.23047-49.712891c-.59817 0-1.08398.485821-1.08398 1.083985v.65039c-.2384 0-.4336.195197-.4336.433594v1.734375c0 .238401.1952.431641.4336.431641h2.16797c.2384 0 .43359-.19324.43359-.431641v-1.734375c0-.238397-.19519-.433594-.43359-.433594v-.65039c0-.598164-.48583-1.083985-1.08399-1.083985zm0 .433594c.35976 0 .65039.290624.65039.650391v.65039h-1.30078v-.65039c0-.359767.29062-.650391.65039-.650391z" stroke-width=".4191" transform="matrix(1.92106708095 0 0 1.92106708095 643.46731353546 100.94056186391)"/></g></svg>