<svg height="17.500378mm" viewBox="0 0 18.035334 17.500378" width="18.035334mm" xmlns="http://www.w3.org/2000/svg"><g transform="matrix(1.0148887 0 0 1.0148887 15.90952 -3.872907)"><path d="m-6.8492015 4.2724668a1.1191255 1.1099671 0 0 0 -.4288818.1085303l-5.8524037 2.7963394a1.1191255 1.1099671 0 0 0 -.605524.7529759l-1.443828 6.2812846a1.1191255 1.1099671 0 0 0 .151943.851028 1.1191255 1.1099671 0 0 0 .06362.08832l4.0508 5.036555a1.1191255 1.1099671 0 0 0 .874979.417654l6.4961011-.0015a1.1191255 1.1099671 0 0 0 .8749788-.416906l4.0493043-5.037295a1.1191255 1.1099671 0 0 0 .2163114-.939349l-1.44607203-6.2812886a1.1191255 1.1099671 0 0 0 -.60552451-.7529758l-5.85315166-2.7948425a1.1191255 1.1099671 0 0 0 -.5426519-.1085303z" fill="#326ce5"/><path d="m-6.8523435 3.8176372a1.1814304 1.171762 0 0 0 -.4520849.1152668l-6.1787426 2.9512758a1.1814304 1.171762 0 0 0 -.639206.794891l-1.523915 6.6308282a1.1814304 1.171762 0 0 0 .160175.89893 1.1814304 1.171762 0 0 0 .06736.09281l4.276094 5.317236a1.1814304 1.171762 0 0 0 .92363.440858l6.8576188-.0015a1.1814304 1.171762 0 0 0 .9236308-.44011l4.2745966-5.317985a1.1814304 1.171762 0 0 0 .228288-.990993l-1.52615681-6.6315712a1.1814304 1.171762 0 0 0 -.6392054-.7941425l-6.17874269-2.9512758a1.1814304 1.171762 0 0 0 -.5733398-.1145183zm.00299.4550789a1.1191255 1.1099671 0 0 1 .5426517.1085303l5.85315169 2.7948425a1.1191255 1.1099671 0 0 1 .60552822.7529759l1.44607289 6.2812852a1.1191255 1.1099671 0 0 1 -.2163123.939348l-4.0493032 5.037304a1.1191255 1.1099671 0 0 1 -.8749789.416906l-6.4961006.0015a1.1191255 1.1099671 0 0 1 -.874979-.417652l-4.0508-5.036554a1.1191255 1.1099671 0 0 1 -.06362-.08832 1.1191255 1.1099671 0 0 1 -.151942-.851028l1.443827-6.2812853a1.1191255 1.1099671 0 0 1 .605524-.7529758l5.8524036-2.7963395a1.1191255 1.1099671 0 0 1 .4288819-.1085303z" fill="#fff"/></g><g fill="#fff" transform="translate(-.794412 -.081871)"><path d="m7.6643247 3.2185244c-.00874 0-.3153973.114869-.6814892.255202-.3660922.140326-.6799322.260197-.697384.266452-.017452.0063-.031787.01797-.031787.02588 0 .0079.073047.204806.1623361.437539.089289.232732.1607937.431393.158764.441647-.00249.01261-.08309.04904-.248772.11233-.1348269.0515-.2436373.09885-.2416288.10519.00535.01693 1.6596799.755489 1.685687.752565.017467-.002.099812-.176733.3952135-.838824.2052227-.459967.3730696-.843272.3730696-.85186 0-.0086-.00438-.01389-.00965-.01178-.2018484.08106-.4893423.183997-.5011163.17948-.00867-.0035-.090417-.201228-.1816239-.43986-.1071485-.280341-.1713614-.433969-.1816235-.433969zm2.1501928 2.215556c-2.2081446 0-4.1566855 1.408429-4.852756 3.5076367-.2548091.7684534-.3197364 1.6315619-.183945 2.4461109.1905627 1.143092.7745362 2.193072 1.6547911 2.975625.05075.04512.094827.08215.098045.08215.00321 0 .2379835-.232485.5216545-.516475.2894218-.289748.5211646-.530909.5280827-.549513.030336-.08159-.037243-.22968-.1610858-.353247-.12775-.127463-.2642395-.190528-.350746-.161978-.022843.0075-.1247838.100542-.2782393.25413-.133175.133287-.2508183.242343-.2614521.242343-.022481 0-.150351-.156221-.2832395-.346103-.3045811-.43521-.5262815-.927757-.6557732-1.457274-.04227-.172849-.097759-.500071-.088936-.524511.00401-.01113.089381-.01447.373605-.01447.3994528 0 .4219443-.0028.4691492-.06286.048952-.06223.074544-.154369.080364-.289134.0062-.143589-.012352-.241332-.061613-.325385-.049366-.08424-.047912-.0841-.4745069-.08429-.2081513-.000093-.3858913-.0049-.3950355-.01071-.014428-.0091-.013972-.03442.00321-.191981.073354-.6721305.3217755-1.3595193.6920264-1.9144581.085696-.1284438.2399143-.328781.2530583-.328781.00718 0 .1494039.135719.3160995.301636l.3030636.3016318.062327-.0064c.175522-.01811.405418-.228523.4543266-.4159287.00858-.03286.012325-.07526.00839-.0943-.0052291-.02533-.0876685-.1156956-.3078836-.3369937-.2727152-.2740527-.2991579-.3041159-.2843121-.3221688.052038-.06329.3700426-.2951432.5786239-.4218251.5192301-.3153549 1.2220109-.552754 1.7583722-.593983l.09554-.0073.0034.4468281.0034.4466449.04786.04465c.137582.128299.5118594.1324638.6566665.0073l.04554-.03947.0057-.4484323.0059-.4484339.09233.00169c.113385.0024.385702.04885.59416.1016169.59871.1515299 1.162725.432814 1.64354.8195369.06063.04876.110367.09734.110367.1078651 0 .010541-.133756.1529399-.297169.316458l-.29717.2971679.000734.06626c.002.1984881.271845.4686097.468971.4696847l.06661.000678.297347-.2971685c.163519-.163414.302952-.297171.309851-.297171.0069 0 .05508.05696.107152.126621.400383.5356355.682455 1.1854219.7965 1.8349843.03927.2237034.0615.4498535.04607.4684345-.01095.0132-.08367.01607-.40325.01607h-.390036l-.03376.02841c-.07416.0624-.128331.259391-.112331.408786.01297.121129.04778.217001.09822.271096l.04429.04751.393249.0034c.389665.0033.393071.0035.393071.02732 0 .0534-.03806.279765-.07536.448255-.120507.544293-.367004 1.099957-.685954 1.546031-.135113.188966-.245486.323055-.265738.323065-.0096.000005-.126275-.10909-.259487-.242522-.273172-.273622-.283188-.280029-.38825-.249486-.187587.05453-.39264.280888-.410394.452897l-.0064.06126.455933.464864c.583107.594534.590812.601878.617913.587374.04346-.02326.329631-.295499.453791-.431646.34547-.378825.603375-.753134.82418-1.196535.544189-1.092788.676134-2.342889.373425-3.5387069-.24818-.9803704-.808101-1.8907246-1.579793-2.5684355-.930197-.8169112-2.122809-1.2658262-3.3622655-1.2658262zm-.9645507 2.107152c-.2027993.00141-.4310042.1178071-.4966513.253416-.022318.0461-.023952.05857-.0125.09679.00723.024119.2156465.5646523.4632565 1.2011807l.4502189 1.1572459-.040897.08304c-.1311303.265387-.082398.564087.1262616.772747.183795.183794.447462.245967.6884555.162158.04655-.01619.120048-.05372.163229-.08322.321157-.219438.385522-.672838.138406-.974553-.08154-.09955-.168584-.157937-.3380671-.2268061-.0261-.01061-.07922-.1405754-.4832594-1.1815348-.2496869-.6432878-.4611472-1.1811395-.4698628-1.1952845-.029409-.04773-.081966-.06592-.1885888-.06518z" stroke-width=".011538"/><path d="m19.062498 46.468956c-.703011-.598733-2.115758-2.256368-2.831392-3.322192-1.230282-1.832311-2.255707-4.365136-2.725409-6.731826-.33362-1.681014-.304034-5.066952.05915-6.769016 1.469224-6.885567 6.496712-12.185832 13.193976-13.909841 5.012271-1.290258 10.216806-.392403 14.59711 2.518207 1.329816.883632 3.615416 3.09608 4.496602 4.352685 3.421514 4.879218 4.316279 10.776288 2.473492 16.301891-.852857 2.557293-2.196327 4.749308-4.160978 6.789078l-1.250362 1.29817-1.852344-1.849256c-1.083861-1.082054-1.852345-1.947502-1.852345-2.086065 0-.587565.984329-1.578818 1.56779-1.578818.12418 0 .639404.401066 1.14494.891258 1.07232 1.039771.984824 1.058722 2.015352-.436517 1.319733-1.914856 2.228877-4.21594 2.587267-6.548491l.08163-.53125h-1.445278-1.445277l-.204284-.395042c-.238895-.461972-.199362-1.714445.06414-2.03194.132339-.159458.441283-.198018 1.586534-.198018h1.422195v-.486191c0-1.26262-.72098-3.834803-1.527994-5.451309-.424907-.851118-1.69499-2.8125-1.82122-2.8125-.04584 0-.571191.485591-1.167454 1.079091-.95412.949698-1.123415 1.069226-1.411873.996827-.505292-.12682-1.303697-.914951-1.386362-1.36852-.06585-.361326.01813-.49051.987863-1.519562 1.226634-1.301667 1.243107-1.157571-.250375-2.190015-1.872745-1.294628-4.64284-2.371899-6.621618-2.575102l-.761533-.0782-.07549 1.597806c-.05499 1.163875-.125709 1.648018-.260384 1.782694-.277291.277291-1.313511.336852-1.863373.107105l-.465182-.194365v-1.631378-1.631379l-.46875.0027c-1.220066.007-4.130165.919278-5.648283 1.770582-.949661.532535-2.632967 1.739506-2.632967 1.887901 0 .06655.481056.612604 1.069013 1.213447.962614.983713 1.060343 1.126985.981908 1.439496-.112764.449287-.915211 1.249706-1.366401 1.362948-.319324.08015-.451969-.01158-1.44241-.997432-.632705-.629774-1.149616-1.049311-1.230934-.999054-.220256.136126-1.310186 1.80043-1.750492 2.672971-.802789 1.590861-1.803334 5.279249-1.585845 5.846017.05211.135794.376782.175419 1.437309.175419 1.509377 0 1.675832.06924 1.827602.760244.04685.213297.04813.634885.0028.93686-.12142.80969-.36447.927896-1.907906.927896-1.492063 0-1.430506-.08454-1.096066 1.50533.488373 2.321644 1.600037 4.641719 3.168516 6.612784l.243193.305612.997644-.899362c.574344-.517764 1.1098-.899364 1.261975-.899364.337868 0 1.189289.765318 1.389705 1.249165.146859.354549.125161.404299-.476442 1.092401-.34667.396514-1.182775 1.266043-1.858011 1.932288l-1.227701 1.211352-.584998-.498223z" transform="matrix(.28222222 0 0 .28222222 .992626 1.174181)"/></g></svg>