<svg height="17.500378mm" viewBox="0 0 18.035334 17.500378" width="18.035334mm" xmlns="http://www.w3.org/2000/svg"><g transform="matrix(1.0148887 0 0 1.0148887 15.90952 -3.872907)"><path d="m-6.8492015 4.2724668a1.1191255 1.1099671 0 0 0 -.4288818.1085303l-5.8524037 2.7963394a1.1191255 1.1099671 0 0 0 -.605524.7529759l-1.443828 6.2812846a1.1191255 1.1099671 0 0 0 .151943.851028 1.1191255 1.1099671 0 0 0 .06362.08832l4.0508 5.036555a1.1191255 1.1099671 0 0 0 .874979.417654l6.4961011-.0015a1.1191255 1.1099671 0 0 0 .8749788-.416906l4.0493043-5.037295a1.1191255 1.1099671 0 0 0 .2163114-.939349l-1.44607203-6.2812886a1.1191255 1.1099671 0 0 0 -.60552451-.7529758l-5.85315166-2.7948425a1.1191255 1.1099671 0 0 0 -.5426519-.1085303z" fill="#326ce5"/><path d="m-6.8523435 3.8176372a1.1814304 1.171762 0 0 0 -.4520849.1152668l-6.1787426 2.9512758a1.1814304 1.171762 0 0 0 -.639206.794891l-1.523915 6.6308282a1.1814304 1.171762 0 0 0 .160175.89893 1.1814304 1.171762 0 0 0 .06736.09281l4.276094 5.317236a1.1814304 1.171762 0 0 0 .92363.440858l6.8576188-.0015a1.1814304 1.171762 0 0 0 .9236308-.44011l4.2745966-5.317985a1.1814304 1.171762 0 0 0 .228288-.990993l-1.52615681-6.6315712a1.1814304 1.171762 0 0 0 -.6392054-.7941425l-6.17874269-2.9512758a1.1814304 1.171762 0 0 0 -.5733398-.1145183zm.00299.4550789a1.1191255 1.1099671 0 0 1 .5426517.1085303l5.85315169 2.7948425a1.1191255 1.1099671 0 0 1 .60552822.7529759l1.44607289 6.2812852a1.1191255 1.1099671 0 0 1 -.2163123.939348l-4.0493032 5.037304a1.1191255 1.1099671 0 0 1 -.8749789.416906l-6.4961006.0015a1.1191255 1.1099671 0 0 1 -.874979-.417652l-4.0508-5.036554a1.1191255 1.1099671 0 0 1 -.06362-.08832 1.1191255 1.1099671 0 0 1 -.151942-.851028l1.443827-6.2812853a1.1191255 1.1099671 0 0 1 .605524-.7529758l5.8524036-2.7963395a1.1191255 1.1099671 0 0 1 .4288819-.1085303z" fill="#fff"/></g><g transform="translate(-1.182459 -.963814)"><path d="m5.5709564 8.1928071c0 .621121 2.0725501 1.124639 4.6291696 1.124639 2.556621 0 4.62917-.503518 4.62917-1.124639v3.0423909c0 .62112-2.072549 1.124638-4.62917 1.124638-2.5566195 0-4.6291696-.503518-4.6291696-1.124638z" fill="#fff" fill-rule="evenodd"/><path d="m5.5709564 8.1928071c0-.621119 2.0725501-1.124637 4.6291696-1.124637 2.556621 0 4.62917.503518 4.62917 1.124637 0 .621121-2.072549 1.124639-4.62917 1.124639-2.5566195 0-4.6291696-.503518-4.6291696-1.124639z" fill="#fff" fill-rule="evenodd"/><path d="m14.829296 8.1928071c0 .621121-2.072549 1.124639-4.62917 1.124639-2.5566195 0-4.6291696-.503518-4.6291696-1.124639 0-.621119 2.0725501-1.124637 4.6291696-1.124637 2.556621 0 4.62917.503518 4.62917 1.124637v3.0423909c0 .62112-2.072549 1.124638-4.62917 1.124638-2.5566195 0-4.6291696-.503518-4.6291696-1.124638v-3.0423909" fill="none" stroke="#326ce5" stroke-linejoin="round" stroke-miterlimit="10" stroke-width=".264583"/></g></svg>