<?xml version="1.0" encoding="UTF-8" standalone="no"?>
<!-- Created with Inkscape (http://www.inkscape.org/) -->

<svg
   xmlns:dc="http://purl.org/dc/elements/1.1/"
   xmlns:cc="http://creativecommons.org/ns#"
   xmlns:rdf="http://www.w3.org/1999/02/22-rdf-syntax-ns#"
   xmlns:svg="http://www.w3.org/2000/svg"
   xmlns="http://www.w3.org/2000/svg"
   xmlns:sodipodi="http://sodipodi.sourceforge.net/DTD/sodipodi-0.dtd"
   xmlns:inkscape="http://www.inkscape.org/namespaces/inkscape"
   width="18.035334mm"
   height="17.500378mm"
   viewBox="0 0 18.035334 17.500378"
   version="1.1"
   id="svg11531"
   inkscape:version="0.91 r13725"
   sodipodi:docname="master.svg">
  <defs
     id="defs11525" />
  <sodipodi:namedview
     id="base"
     pagecolor="#ffffff"
     bordercolor="#666666"
     borderopacity="1.0"
     inkscape:pageopacity="0.0"
     inkscape:pageshadow="2"
     inkscape:zoom="8"
     inkscape:cx="16.968621"
     inkscape:cy="33.509081"
     inkscape:document-units="mm"
     inkscape:current-layer="layer1"
     showgrid="false"
     inkscape:window-width="1440"
     inkscape:window-height="771"
     inkscape:window-x="55"
     inkscape:window-y="0"
     inkscape:window-maximized="0"
     fit-margin-top="0"
     fit-margin-left="0"
     fit-margin-right="0"
     fit-margin-bottom="0" />
  <metadata
     id="metadata11528">
    <rdf:RDF>
      <cc:Work
         rdf:about="">
        <dc:format>image/svg+xml</dc:format>
        <dc:type
           rdf:resource="http://purl.org/dc/dcmitype/StillImage" />
        <dc:title />
      </cc:Work>
    </rdf:RDF>
  </metadata>
  <g
     inkscape:label="Calque 1"
     inkscape:groupmode="layer"
     id="layer1"
     transform="translate(-0.99262638,-1.174181)">
    <g
       id="g70"
       transform="matrix(1.0148887,0,0,1.0148887,16.902146,-2.698726)">
      <path
         inkscape:export-ydpi="250.55"
         inkscape:export-xdpi="250.55"
         inkscape:export-filename="new.png"
         inkscape:connector-curvature="0"
         id="path3055"
         d="m -6.8492015,4.2724668 a 1.1191255,1.1099671 0 0 0 -0.4288818,0.1085303 l -5.8524037,2.7963394 a 1.1191255,1.1099671 0 0 0 -0.605524,0.7529759 l -1.443828,6.2812846 a 1.1191255,1.1099671 0 0 0 0.151943,0.851028 1.1191255,1.1099671 0 0 0 0.06362,0.08832 l 4.0508,5.036555 a 1.1191255,1.1099671 0 0 0 0.874979,0.417654 l 6.4961011,-0.0015 a 1.1191255,1.1099671 0 0 0 0.8749788,-0.416906 L 1.3818872,15.149453 A 1.1191255,1.1099671 0 0 0 1.5981986,14.210104 L 0.15212657,7.9288154 A 1.1191255,1.1099671 0 0 0 -0.45339794,7.1758396 L -6.3065496,4.3809971 A 1.1191255,1.1099671 0 0 0 -6.8492015,4.2724668 Z"
         style="fill:#326ce5;fill-opacity:1;stroke:none;stroke-width:0;stroke-miterlimit:4;stroke-dasharray:none;stroke-opacity:1" />
      <path
         id="path3054-2-9"
         d="M -6.8523435,3.8176372 A 1.1814304,1.171762 0 0 0 -7.3044284,3.932904 l -6.1787426,2.9512758 a 1.1814304,1.171762 0 0 0 -0.639206,0.794891 l -1.523915,6.6308282 a 1.1814304,1.171762 0 0 0 0.160175,0.89893 1.1814304,1.171762 0 0 0 0.06736,0.09281 l 4.276094,5.317236 a 1.1814304,1.171762 0 0 0 0.92363,0.440858 l 6.8576188,-0.0015 a 1.1814304,1.171762 0 0 0 0.9236308,-0.44011 l 4.2745966,-5.317985 a 1.1814304,1.171762 0 0 0 0.228288,-0.990993 L 0.53894439,7.6775738 A 1.1814304,1.171762 0 0 0 -0.10026101,6.8834313 L -6.2790037,3.9321555 A 1.1814304,1.171762 0 0 0 -6.8523435,3.8176372 Z m 0.00299,0.4550789 a 1.1191255,1.1099671 0 0 1 0.5426517,0.1085303 l 5.85315169,2.7948425 A 1.1191255,1.1099671 0 0 1 0.15197811,7.9290648 L 1.598051,14.21035 a 1.1191255,1.1099671 0 0 1 -0.2163123,0.939348 l -4.0493032,5.037304 a 1.1191255,1.1099671 0 0 1 -0.8749789,0.416906 l -6.4961006,0.0015 a 1.1191255,1.1099671 0 0 1 -0.874979,-0.417652 l -4.0508,-5.036554 a 1.1191255,1.1099671 0 0 1 -0.06362,-0.08832 1.1191255,1.1099671 0 0 1 -0.151942,-0.851028 l 1.443827,-6.2812853 a 1.1191255,1.1099671 0 0 1 0.605524,-0.7529758 l 5.8524036,-2.7963395 a 1.1191255,1.1099671 0 0 1 0.4288819,-0.1085303 z"
         style="color:#000000;font-style:normal;font-variant:normal;font-weight:normal;font-stretch:normal;font-size:medium;line-height:normal;font-family:Sans;-inkscape-font-specification:Sans;text-indent:0;text-align:start;text-decoration:none;text-decoration-line:none;letter-spacing:normal;word-spacing:normal;text-transform:none;writing-mode:lr-tb;direction:ltr;baseline-shift:baseline;display:inline;overflow:visible;visibility:visible;fill:#ffffff;fill-opacity:1;fill-rule:nonzero;stroke:none;stroke-width:0;stroke-miterlimit:4;stroke-dasharray:none;marker:none;enable-background:accumulate"
         text-anchor="start"
         inkscape:connector-curvature="0" />
    </g>
    <text
       id="text2066"
       y="16"
       x="9.8966055"
       style="font-style:normal;font-weight:normal;font-size:2.2px;line-height:6.61458349px;font-family:Sans;letter-spacing:0px;word-spacing:0px;fill:#ffffff;fill-opacity:1;stroke:none;stroke-width:0.26458332px;stroke-linecap:butt;stroke-linejoin:miter;stroke-opacity:1"
       xml:space="preserve"><tspan
         style="font-style:normal;font-variant:normal;font-weight:normal;font-stretch:normal;font-size:2.2px;font-family:Arial;-inkscape-font-specification:'Arial, Normal';text-align:center;writing-mode:lr-tb;fill:#ffffff;fill-opacity:1;stroke-width:0.26458332px"
         text-anchor="middle"
         y="16"
         x="9.8966055"
         id="tspan2064"
         sodipodi:role="line">control</tspan></text>
          <text
       id="text2066"
       y="17.811775"
       x="9.8966055"
       style="font-style:normal;font-weight:normal;font-size:2.2px;line-height:6.61458349px;font-family:Sans;letter-spacing:0px;word-spacing:0px;fill:#ffffff;fill-opacity:1;stroke:none;stroke-width:0.26458332px;stroke-linecap:butt;stroke-linejoin:miter;stroke-opacity:1"
       xml:space="preserve"><tspan
         style="font-style:normal;font-variant:normal;font-weight:normal;font-stretch:normal;font-size:2.2px;font-family:Arial;-inkscape-font-specification:'Arial, Normal';text-align:center;writing-mode:lr-tb;fill:#ffffff;fill-opacity:1;stroke-width:0.26458332px"
         text-anchor="middle"
         y="17.811775"
         x="9.8966055"
         id="tspan2064"
         sodipodi:role="line">plane</tspan></text>
    <path
       id="path1984"
       d="m 9.9922574,4.4469925 c -0.1383234,-0.0044 -3.9953139,1.8917791 -4.0457429,1.9890241 -0.121153,0.233682 -0.998802,4.2814784 -0.947235,4.3687244 0.03,0.05065 0.662199,0.852305 1.404567,1.780771 l 1.349798,1.687754 2.2215743,0.0011 2.2215722,0.0011 1.412819,-1.765784 1.41388,-1.765265 -0.49456,-2.1688607 C 14.25673,7.3828155 14.01329,6.3872756 13.98842,6.3632856 13.91892,6.2964056 10.06724,4.4495465 9.9922574,4.4471255 Z m 0.2361666,1.9828241 c 0.186637,0.008 0.205792,0.291571 0.605128,0.321427 0.5216,0.039 0.465508,-0.446651 0.864553,-0.108522 0.399044,0.338125 -0.0889,0.362641 0.03514,0.870749 0.12409,0.5081041 0.568801,0.3050991 0.370523,0.7890987 -0.198279,0.484002 -0.372613,0.02728 -0.81751,0.302308 -0.444897,0.275023 -0.114564,0.635346 -0.636138,0.596347 -0.521652,-0.039 -0.140467,-0.346065 -0.53951,-0.684197 C 9.711566,8.1788955 9.4703718,8.6044873 9.3463088,8.0963797 9.2222188,7.5882716 9.632244,7.8553625 9.830523,7.3713607 10.029224,6.8873136 9.5494288,6.7901076 9.9943524,6.5150816 c 0.05564,-0.03434 0.1018906,-0.05688 0.1421056,-0.07028 0.03508,-0.01167 0.06533,-0.01614 0.09197,-0.01497 z m 0.521493,0.572059 c -0.07578,-5.306e-4 -0.151209,0.01021 -0.223758,0.03204 -0.400393,0.120732 -0.626954,0.5433219 -0.505909,0.943613 0.12094,0.3999197 0.54311,0.6261487 0.943107,0.5053937 0.399838,-0.120746 0.626268,-0.5426107 0.505909,-0.9425788 C 11.373516,7.2225236 11.081837,7.0041896 10.749917,7.0018776 Z M 7.7572695,8.3036033 c 0.03969,7.9e-4 0.08832,0.009 0.1482991,0.02739 0.4799279,0.147138 -0.0077,0.399503 0.334354,0.766879 0.3420531,0.367377 0.6285182,-0.101086 0.7410452,0.388091 0.112527,0.4891777 -0.3499913,0.192921 -0.4971261,0.6728277 -0.1471612,0.479904 0.4014791,0.494083 0.03411,0.836123 -0.367374,0.342041 -0.3418151,-0.20606 -0.8309501,-0.09353 -0.489188,0.112527 -0.227039,0.594654 -0.70694,0.447516 -0.479928,-0.147137 0.0077,-0.3995 -0.334354,-0.766876 -0.342054,-0.367379 -0.628518,0.100571 -0.741045,-0.388607 -0.112528,-0.48918 0.349991,-0.192924 0.497125,-0.6728267 0.147162,-0.479907 -0.401981,-0.49357 -0.03461,-0.83561 0.367374,-0.342043 0.342291,0.206065 0.831453,0.09354 0.428043,-0.09846 0.280643,-0.479607 0.558641,-0.474906 z m 3.5672165,0.524516 c 0.04551,5.36e-4 0.100807,0.01243 0.170022,0.03927 0.55327,0.214739 -0.175234,0.545894 0.253735,0.9560137 0.428969,0.410118 0.727472,-0.3327417 0.966867,0.210323 0.239369,0.543065 -0.510434,0.262432 -0.497126,0.855763 0.01323,0.593331 0.749591,0.27872 0.534829,0.83199 -0.214709,0.553268 -0.545888,-0.175247 -0.955992,0.25373 -0.410131,0.428977 0.33221,0.726972 -0.210847,0.966348 -0.543057,0.23938 -0.261382,-0.509939 -0.854736,-0.496609 -0.593328,0.01333 -0.279215,0.749072 -0.83251,0.534334 C 9.3454848,12.764543 10.073987,12.433388 9.644993,12.023268 9.2160238,11.613148 8.9180238,12.356008 8.6786546,11.812945 8.4392867,11.26988 9.1885598,11.551032 9.1752778,10.957701 9.1617878,10.36437 8.4256867,10.678462 8.6404225,10.125192 8.8551588,9.5719223 9.1868138,10.300955 9.596945,9.871978 10.007048,9.4430013 9.2641778,9.1444903 9.807262,8.9051143 c 0.543055,-0.239377 0.26191,0.509939 0.855237,0.496609 0.519192,-0.01167 0.343429,-0.576408 0.661987,-0.573608 z m -3.8814095,0.25528 c -0.417988,-1.58e-4 -0.756946,0.338564 -0.757078,0.7565447 -1.59e-4,0.418182 0.338905,0.757219 0.757078,0.75706 0.4179631,-1.48e-4 0.756682,-0.339095 0.7565239,-0.75706 C 8.1994675,9.4221803 7.8608276,9.0835473 7.4430765,9.0833993 Z M 10.69663,9.808421 c -0.615684,4.2e-5 -1.114846,0.498983 -1.11519,1.114661 -2.38e-4,0.616082 0.499109,1.11565 1.11519,1.115692 0.616268,2.22e-4 1.115907,-0.499425 1.115669,-1.115692 0,-0.615866 -0.499798,-1.114883 -1.115669,-1.114661 z"
       style="opacity:1;fill:#ffffff;fill-opacity:1;stroke:#eeeeee;stroke-width:0;stroke-miterlimit:10;stroke-dasharray:none;stroke-dashoffset:11.23642349;stroke-opacity:1"
       inkscape:connector-curvature="0"
       sodipodi:nodetypes="cccccccccccccscccccsccccccccccccccscscccccccccccccccccccccscccccccccccccc" />
  </g>
</svg>
