<?xml version="1.0" encoding="UTF-8" standalone="no"?>
<!-- Created with Inkscape (http://www.inkscape.org/) -->

<svg
   xmlns:dc="http://purl.org/dc/elements/1.1/"
   xmlns:cc="http://creativecommons.org/ns#"
   xmlns:rdf="http://www.w3.org/1999/02/22-rdf-syntax-ns#"
   xmlns:svg="http://www.w3.org/2000/svg"
   xmlns="http://www.w3.org/2000/svg"
   xmlns:sodipodi="http://sodipodi.sourceforge.net/DTD/sodipodi-0.dtd"
   xmlns:inkscape="http://www.inkscape.org/namespaces/inkscape"
   width="18.035334mm"
   height="17.500378mm"
   viewBox="0 0 18.035334 17.500378"
   version="1.1"
   id="svg13826"
   inkscape:version="0.92.4 5da689c313, 2019-01-14"
   sodipodi:docname="etcd.svg">
  <defs
     id="defs13820" />
  <sodipodi:namedview
     id="base"
     pagecolor="#ffffff"
     bordercolor="#666666"
     borderopacity="1.0"
     inkscape:pageopacity="0.0"
     inkscape:pageshadow="2"
     inkscape:zoom="8"
     inkscape:cx="16.847496"
     inkscape:cy="33.752239"
     inkscape:document-units="mm"
     inkscape:current-layer="layer1"
     showgrid="false"
     inkscape:window-width="1440"
     inkscape:window-height="771"
     inkscape:window-x="19"
     inkscape:window-y="0"
     inkscape:window-maximized="0"
     fit-margin-top="0"
     fit-margin-left="0"
     fit-margin-right="0"
     fit-margin-bottom="0" />
  <metadata
     id="metadata13823">
    <rdf:RDF>
      <cc:Work
         rdf:about="">
        <dc:format>image/svg+xml</dc:format>
        <dc:type
           rdf:resource="http://purl.org/dc/dcmitype/StillImage" />
        <dc:title />
      </cc:Work>
    </rdf:RDF>
  </metadata>
  <g
     inkscape:label="Calque 1"
     inkscape:groupmode="layer"
     id="layer1"
     transform="translate(-0.99262638,-1.174181)">
    <g
       id="g70"
       transform="matrix(1.0148887,0,0,1.0148887,16.902146,-2.698726)">
      <path
         inkscape:export-ydpi="250.55"
         inkscape:export-xdpi="250.55"
         inkscape:export-filename="new.png"
         inkscape:connector-curvature="0"
         id="path3055"
         d="m -6.8492015,4.2724668 a 1.1191255,1.1099671 0 0 0 -0.4288818,0.1085303 l -5.8524037,2.7963394 a 1.1191255,1.1099671 0 0 0 -0.605524,0.7529759 l -1.443828,6.2812846 a 1.1191255,1.1099671 0 0 0 0.151943,0.851028 1.1191255,1.1099671 0 0 0 0.06362,0.08832 l 4.0508,5.036555 a 1.1191255,1.1099671 0 0 0 0.874979,0.417654 l 6.4961011,-0.0015 a 1.1191255,1.1099671 0 0 0 0.8749788,-0.416906 L 1.3818872,15.149453 A 1.1191255,1.1099671 0 0 0 1.5981986,14.210104 L 0.15212657,7.9288154 A 1.1191255,1.1099671 0 0 0 -0.45339794,7.1758396 L -6.3065496,4.3809971 A 1.1191255,1.1099671 0 0 0 -6.8492015,4.2724668 Z"
         style="fill:#326ce5;fill-opacity:1;stroke:none;stroke-width:0;stroke-miterlimit:4;stroke-dasharray:none;stroke-opacity:1" />
      <path
         id="path3054-2-9"
         d="M -6.8523435,3.8176372 A 1.1814304,1.171762 0 0 0 -7.3044284,3.932904 l -6.1787426,2.9512758 a 1.1814304,1.171762 0 0 0 -0.639206,0.794891 l -1.523915,6.6308282 a 1.1814304,1.171762 0 0 0 0.160175,0.89893 1.1814304,1.171762 0 0 0 0.06736,0.09281 l 4.276094,5.317236 a 1.1814304,1.171762 0 0 0 0.92363,0.440858 l 6.8576188,-0.0015 a 1.1814304,1.171762 0 0 0 0.9236308,-0.44011 l 4.2745966,-5.317985 a 1.1814304,1.171762 0 0 0 0.228288,-0.990993 L 0.53894439,7.6775738 A 1.1814304,1.171762 0 0 0 -0.10026101,6.8834313 L -6.2790037,3.9321555 A 1.1814304,1.171762 0 0 0 -6.8523435,3.8176372 Z m 0.00299,0.4550789 a 1.1191255,1.1099671 0 0 1 0.5426517,0.1085303 l 5.85315169,2.7948425 A 1.1191255,1.1099671 0 0 1 0.15197811,7.9290648 L 1.598051,14.21035 a 1.1191255,1.1099671 0 0 1 -0.2163123,0.939348 l -4.0493032,5.037304 a 1.1191255,1.1099671 0 0 1 -0.8749789,0.416906 l -6.4961006,0.0015 a 1.1191255,1.1099671 0 0 1 -0.874979,-0.417652 l -4.0508,-5.036554 a 1.1191255,1.1099671 0 0 1 -0.06362,-0.08832 1.1191255,1.1099671 0 0 1 -0.151942,-0.851028 l 1.443827,-6.2812853 a 1.1191255,1.1099671 0 0 1 0.605524,-0.7529758 l 5.8524036,-2.7963395 a 1.1191255,1.1099671 0 0 1 0.4288819,-0.1085303 z"
         style="color:#000000;font-style:normal;font-variant:normal;font-weight:normal;font-stretch:normal;font-size:medium;line-height:normal;font-family:Sans;-inkscape-font-specification:Sans;text-indent:0;text-align:start;text-decoration:none;text-decoration-line:none;letter-spacing:normal;word-spacing:normal;text-transform:none;writing-mode:lr-tb;direction:ltr;baseline-shift:baseline;display:inline;overflow:visible;visibility:visible;fill:#ffffff;fill-opacity:1;fill-rule:nonzero;stroke:none;stroke-width:0;stroke-miterlimit:4;stroke-dasharray:none;marker:none;enable-background:accumulate"
         text-anchor="start"
         inkscape:connector-curvature="0" />
    </g>
    <text
       id="text2066"
       y="16.811775"
       x="10.058525"
       style="font-style:normal;font-weight:normal;line-height:0%;font-family:sans-serif;letter-spacing:0px;word-spacing:0px;fill:#ffffff;fill-opacity:1;stroke:none;stroke-width:0.26458332px;stroke-linecap:butt;stroke-linejoin:miter;stroke-opacity:1"
       xml:space="preserve"><tspan
         style="font-style:normal;font-variant:normal;font-weight:normal;font-stretch:normal;font-size:2.82222223px;line-height:6.61458302;font-family:Arial;-inkscape-font-specification:'Arial, Normal';text-align:center;writing-mode:lr-tb;fill:#ffffff;fill-opacity:1;stroke-width:0.26458332px"
         text-anchor="middle"
         y="16.811775"
         x="10.058525"
         id="tspan2064"
         sodipodi:role="line">etcd</tspan></text>
    <path
       id="path2078"
       d="m 9.9922551,4.4469924 c -0.1383198,-0.0044 -3.9953108,1.8917791 -4.0457408,1.9890241 -0.121149,0.233682 -0.9988,4.2814785 -0.94724,4.3687245 0.03,0.05065 0.662201,0.852305 1.40457,1.780771 l 1.349801,1.687753 2.22157,0.0011 2.2215797,0.0011 1.41282,-1.765785 1.41388,-1.765265 -0.49456,-2.1688601 c -0.2722,-1.1927395 -0.51565,-2.1882794 -0.54052,-2.2122694 -0.0695,-0.06688 -3.921171,-1.9137391 -3.9961599,-1.9161601 z"
       style="opacity:1;fill:#ffffff;fill-opacity:1;stroke:#eeeeee;stroke-width:0;stroke-miterlimit:10;stroke-dasharray:none;stroke-dashoffset:11.23642349;stroke-opacity:1"
       inkscape:connector-curvature="0"
       sodipodi:nodetypes="ccccccccccccc" />
    <path
       inkscape:connector-curvature="0"
       style="fill:#326ce5;fill-opacity:1;stroke-width:0.03359316"
       d="m 14.151044,9.9095586 c -0.04038,0.00338 -0.08097,0.00498 -0.124063,0.00498 -0.250136,0 -0.492818,-0.058652 -0.711745,-0.1660825 0.07289,-0.4181427 0.10387,-0.8393954 0.09575,-1.2591032 -0.237339,-0.3433203 -0.508606,-0.667255 -0.814843,-0.9656935 0.132864,-0.2490902 0.32925,-0.4634127 0.57445,-0.6153861 l 0.105252,-0.065067 -0.08204,-0.092515 C 12.771152,6.2747901 12.266747,5.9068496 11.694851,5.6571895 L 11.5808,5.6075745 11.55185,5.7281041 C 11.48366,6.0090413 11.341088,6.2624974 11.145373,6.4658689 A 6.5118438,6.5116843 0 0 0 9.9710601,5.9819652 6.5175545,6.5173949 0 0 0 8.7985778,6.4648611 C 8.6036684,6.2617263 8.4614333,6.0089071 8.3935399,5.7287764 L 8.3643457,5.6082468 8.2507324,5.6576286 C 7.6860579,5.9036961 7.1677436,6.2816139 6.7520236,6.7503999 l -0.082271,0.092718 0.1051489,0.065067 C 7.0193276,7.0595537 7.2151782,7.2726335 7.3478048,7.520346 7.042507,7.8176413 6.7715407,8.1405352 6.5343693,8.4822739 c -0.00924,0.4195399 0.020152,0.8438491 0.09339,1.2677893 -0.2178209,0.1063869 -0.4591566,0.1644022 -0.7076482,0.1644022 -0.0436,0 -0.084421,-0.00169 -0.1240626,-0.00488 l -0.1235557,-0.00944 0.011593,0.1233186 c 0.060535,0.624087 0.2543036,1.217636 0.576264,1.764392 l 0.062818,0.106688 0.094396,-0.08009 a 1.613835,1.6137953 0 0 1 0.7638186,-0.357758 6.5460419,6.5458815 0 0 0 0.65373,1.064755 c 0.3973437,0.138973 0.8113179,0.242709 1.238863,0.304453 0.040986,0.282747 0.00835,0.575173 -0.1031951,0.845561 l -0.047022,0.114578 0.1209335,0.02665 c 0.3097342,0.06809 0.6222523,0.102794 0.9282233,0.102794 l 0.9279559,-0.102794 0.121073,-0.02665 -0.04714,-0.114784 c -0.111266,-0.27042 -0.143915,-0.563181 -0.102892,-0.845966 0.425832,-0.06182 0.838296,-0.165278 1.23416,-0.303845 a 6.5543737,6.5542129 0 0 0 0.65447,-1.065764 1.6210239,1.6209841 0 0 1 0.767547,0.358097 l 0.09435,0.07996 0.06255,-0.106424 c 0.3225,-0.54746 0.516269,-1.140977 0.575864,-1.764058 l 0.01164,-0.1231153 z m -2.851962,1.5081784 c -0.438999,0.119396 -0.884853,0.179654 -1.3280199,0.179654 -0.4443729,0 -0.8896575,-0.06024 -1.3290598,-0.179654 A 5.1483818,5.1482557 0 0 1 8.0731949,10.219483 C 7.9366054,9.7990039 7.8566858,9.3585035 7.8335063,8.9048685 8.1172363,8.5540584 8.4399375,8.2467518 8.796465,7.9880213 A 5.12705,5.1269243 0 0 1 9.9710621,7.3493885 5.147945,5.1478187 0 0 1 11.143411,7.9866434 c 0.357907,0.2601084 0.682016,0.5698014 0.967159,0.922792 -0.02433,0.4510478 -0.105214,0.8890325 -0.24201,1.3088066 a 5.1319879,5.1318621 0 0 1 -0.569478,1.199495 z M 10.333604,9.3014636 c 0,0.3101252 0.251348,0.5609972 0.561081,0.5609972 0.309632,0 0.560676,-0.2508035 0.560676,-0.5609972 0,-0.3089201 -0.251044,-0.5607306 -0.560676,-0.5607306 -0.309733,0 -0.561047,0.2518105 -0.561047,0.5607306 z m -0.7248791,0 c 0,0.3101252 -0.2512797,0.5609972 -0.561014,0.5609972 -0.309934,0 -0.5605081,-0.2508035 -0.5605081,-0.5609972 0,-0.3088187 0.250609,-0.5606294 0.5605439,-0.5606294 0.3097303,0 0.5610111,0.2518107 0.5610111,0.5606621 z"
       id="path4590" />
  </g>
</svg>
