<svg height="17.500378mm" viewBox="0 0 18.035334 17.500378" width="18.035334mm" xmlns="http://www.w3.org/2000/svg"><g transform="translate(-.992626 -1.174181)"><g transform="matrix(1.0148887 0 0 1.0148887 16.902146 -2.698726)"><path d="m-6.8492015 4.2724668a1.1191255 1.1099671 0 0 0 -.4288818.1085303l-5.8524037 2.7963394a1.1191255 1.1099671 0 0 0 -.605524.7529759l-1.443828 6.2812846a1.1191255 1.1099671 0 0 0 .151943.851028 1.1191255 1.1099671 0 0 0 .06362.08832l4.0508 5.036555a1.1191255 1.1099671 0 0 0 .874979.417654l6.4961011-.0015a1.1191255 1.1099671 0 0 0 .8749788-.416906l4.0493043-5.037295a1.1191255 1.1099671 0 0 0 .2163114-.939349l-1.44607203-6.2812886a1.1191255 1.1099671 0 0 0 -.60552451-.7529758l-5.85315166-2.7948425a1.1191255 1.1099671 0 0 0 -.5426519-.1085303z" fill="#326ce5"/><path d="m-6.8523435 3.8176372a1.1814304 1.171762 0 0 0 -.4520849.1152668l-6.1787426 2.9512758a1.1814304 1.171762 0 0 0 -.639206.794891l-1.523915 6.6308282a1.1814304 1.171762 0 0 0 .160175.89893 1.1814304 1.171762 0 0 0 .06736.09281l4.276094 5.317236a1.1814304 1.171762 0 0 0 .92363.440858l6.8576188-.0015a1.1814304 1.171762 0 0 0 .9236308-.44011l4.2745966-5.317985a1.1814304 1.171762 0 0 0 .228288-.990993l-1.52615681-6.6315712a1.1814304 1.171762 0 0 0 -.6392054-.7941425l-6.17874269-2.9512758a1.1814304 1.171762 0 0 0 -.5733398-.1145183zm.00299.4550789a1.1191255 1.1099671 0 0 1 .5426517.1085303l5.85315169 2.7948425a1.1191255 1.1099671 0 0 1 .60552822.7529759l1.44607289 6.2812852a1.1191255 1.1099671 0 0 1 -.2163123.939348l-4.0493032 5.037304a1.1191255 1.1099671 0 0 1 -.8749789.416906l-6.4961006.0015a1.1191255 1.1099671 0 0 1 -.874979-.417652l-4.0508-5.036554a1.1191255 1.1099671 0 0 1 -.06362-.08832 1.1191255 1.1099671 0 0 1 -.151942-.851028l1.443827-6.2812853a1.1191255 1.1099671 0 0 1 .605524-.7529758l5.8524036-2.7963395a1.1191255 1.1099671 0 0 1 .4288819-.1085303z" fill="#fff"/></g><g fill="#fff"><text font-family="Sans" font-size="10.583333" letter-spacing="0" stroke-width=".264583" word-spacing="0" x="9.976531" y="16.811775"><tspan fill="#fff" font-family="Arial" font-size="2.822222" stroke-width=".264583" text-anchor="middle" x="9.976531" y="16.811775">node</tspan></text><path d="m9.9921803 4.0942544c-.1383298-.0044-3.9950998 1.8918731-4.0455299 1.9891191-.12117.233682-.9989 4.2818275-.94731 4.3690745.03.05065.66219.851861 1.40458 1.780327l1.3498201 1.688014 2.2211901.000931 2.2216404.000931 1.41321-1.765731 1.41365-1.765228-.49479-2.1685764c-.2722-1.1927661-.51566-2.1886141-.54053-2.2126041-.0695-.06688-3.92096-1.9137941-3.9959307-1.9162151zm.1961407.947753.90893.2635771-.90893.263576-.9089209-.263576zm-.9089209.36452.8511209.2532261-.004 1.183289-.8468109-.469347zm1.8178509 0v.9671681l-.84679.469347-.004-1.183289zm-2.1974805 1.6146781.9089396.2635757-.9089396.263577-.9089201-.263577zm2.2087005 0 .90894.2635757-.90894.263577-.90893-.263577zm-3.1176206.3645197.8511202.252792-.004 1.1832908-.8468199-.468915zm1.8178597 0v.9671678l-.8468098.468915-.004-1.1832908zm.3908309 0 .85113.252792-.004 1.1832908-.84682-.468915zm1.81787 0v.9671678l-.84682.468915-.004-1.1832908zm-3.4496605 1.5150282c.2706299.0096.0611.281909.3684101.427935.3277495.1557644.3953995-.235354.6013395.06341.20599.2987664-.18339.2232394-.15443.5849568.029.3617188.40165.2248588.24589.5526068-.15575.327746-.28532-.04764-.5840895.158317-.2987401.205957.006.460208-.35546.489192-.3617401.02898-.1015001-.270447-.42924-.426208-.32775-.155765-.3953801.234921-.6013402-.06385-.2059599-.298767.1838299-.22281.15485-.584528-.029-.3617182-.4016499-.2248592-.24587-.5526042.1557501-.3277494.2848801.04764.5836502-.1583204.2987898-.205956-.006-.460208.3559099-.48919.022499-.0018.0424-.0023.0604-.0018zm2.3359605.362794c.48335.01358.0146.4672184.45596.6647664.44144.1975482.46714-.454103.79937-.102669.33221.3514322-.31997.3406402-.14753.7924552.17243.451813.65163.0092.63802.49264-.0137.483411-.46723.01456-.66477.455977-.19755.441412.4541.467143.10266.799357-.35141.332212-.34021-.319974-.79202-.147534-.45183.172437-.009.65161-.49265.638019-.48339-.01358-.0146-.467216-.45596-.664764-.4414105-.197551-.4675805.454102-.7997909.102669-.3322097-.351431.3199804-.340209.14754-.792025-.17245-.451815-.6516296-.0092-.6380295-.492642.013699-.483408.4672095-.01499.6647795-.456405.1975204-.441414-.45411-.467143-.10269-.7993572.3514505-.332214.3406505.3199712.7924609.147534.45184-.17244.009-.6516114.49265-.6380214zm-2.3148207.2536554c-.2936499.00009-.5316098.238249-.5314498.5318982.0000799.293481.2379701.531377.5314498.531467.2936602.000159.5318202-.23781.5319-.531467.0001601-.2938252-.2380699-.5320572-.5319-.5318982zm2.2643607.4805634c-.58689-.000196-1.0627109.4756148-1.0625209 1.0625028.00005.586719.4758009 1.062267 1.0625209 1.062071.58654-.000058 1.06201-.475531 1.06206-1.062071.00019-.586708-.47535-1.0624448-1.06206-1.0625028z"/></g></g></svg>