<svg xmlns="http://www.w3.org/2000/svg" viewBox="0 0 350 200"><defs><style>.cls-1{fill:#fff}.cls-2{fill:#326de6}.cls-3{opacity:.1;fill:url(#linear-gradient)}.cls-4{fill:none;stroke:#326de6;stroke-miterlimit:10;stroke-width:1.2px}.cls-5{fill:#06f7c9;stroke:#011f38;stroke-linecap:round;stroke-linejoin:round;stroke-width:.8px}</style><linearGradient id="linear-gradient" x1="140.96" y1="100.17" x2="209.04" y2="100.17" gradientUnits="userSpaceOnUse"><stop offset="0" stop-color="#326de6"/><stop offset="1" stop-color="#10ffc6"/></linearGradient></defs><title>16.07.28_k8s_visual_diagrams</title><g id="Graphics"><path class="cls-1" d="M175 167.25l-58.1-33.54V66.63L175 33.08l58.1 33.55v67.08L175 167.25z"/><path class="cls-2" d="M175 168.16a.91.91 0 0 1-.46-.12l-58.1-33.54a.91.91 0 0 1-.46-.79V66.63a.91.91 0 0 1 .46-.79l58.1-33.54a.91.91 0 0 1 .91 0l58.1 33.54a.91.91 0 0 1 .46.79v67.08a.91.91 0 0 1-.46.79L175.46 168a.91.91 0 0 1-.46.16zm-57.18-35l57.18 33 57.18-33v-66L175 34.14l-57.18 33z"/><circle class="cls-3" cx="175" cy="100.17" r="34.04"/><circle class="cls-4" cx="175" cy="100.17" r="34.13"/><path class="cls-5" d="M163.14 93.32L175 86.47l11.86 6.85-11.86 6.85-11.86-6.85z"/><path class="cls-5" d="M163.14 107.02v-13.7l11.86 6.85v13.69l-11.86-6.84zM175 113.86v-13.69l11.86-6.85v13.7L175 113.86z"/></g></svg>