<?xml version="1.0" encoding="utf-8"?>
<!-- Generator: Adobe Illustrator 19.2.1, SVG Export Plug-In . SVG Version: 6.00 Build 0)  -->
<svg version="1.1" xmlns="http://www.w3.org/2000/svg" xmlns:xlink="http://www.w3.org/1999/xlink" x="0px" y="0px"
	 viewBox="0 0 394 440.4" style="enable-background:new 0 0 394 440.4;" xml:space="preserve">
<style type="text/css">
	.st0{fill:#FFFFFF;stroke:#326DE6;stroke-width:2;stroke-linecap:round;stroke-linejoin:round;stroke-miterlimit:10;}
	.st1{opacity:0.71;fill:#326CE6;}
	.st2{opacity:0.45;fill:#FFFFFF;}
	.st3{fill:#FFFFFF;stroke:#006DE9;stroke-width:2;stroke-linecap:round;stroke-linejoin:round;stroke-miterlimit:10;}
	.st4{fill:#006DE9;}
	.st5{fill:#A0CAEA;}
	.st6{fill:#FFFFFF;}
	.st7{opacity:0.13;}
	.st8{fill:url(#SVGID_1_);}
	.st9{fill:url(#SVGID_2_);}
	.st10{fill:#FFFFFF;stroke:#006DE9;stroke-linecap:round;stroke-linejoin:round;stroke-miterlimit:10;}
	.st11{fill:#FFFFFF;stroke:#006DE9;stroke-width:6;stroke-linecap:round;stroke-linejoin:round;stroke-miterlimit:10;}
	.st12{fill:#FFFFFF;stroke:#326DE6;stroke-width:3.2;stroke-linecap:round;stroke-linejoin:round;stroke-miterlimit:10;}
	.st13{fill:#326DE6;}
	.st14{fill:none;stroke:#326DE6;stroke-width:2.4;stroke-miterlimit:10;}
	.st15{fill:#A0CAE9;}
	.st16{fill:#FFFFFF;stroke:#326DE6;stroke-width:1.6;stroke-linecap:round;stroke-linejoin:round;stroke-miterlimit:10;}
	.st17{fill:#FFFFFF;stroke:#326DE6;stroke-width:1.6;stroke-miterlimit:10;}
	.st18{fill:none;stroke:#06F7C9;stroke-width:2;stroke-miterlimit:10;}
	.st19{fill:none;stroke:#06F7C9;stroke-width:2;stroke-miterlimit:10;stroke-dasharray:2.3749,1.5832;}
	.st20{fill:none;stroke:#06F7C9;stroke-width:2;stroke-miterlimit:10;stroke-dasharray:2.4006,1.6004;}
	.st21{fill:none;stroke:#EEF406;stroke-width:2;stroke-miterlimit:10;stroke-dasharray:2.4,1.6;}
	.st22{fill:none;stroke:#EEF406;stroke-width:2;stroke-miterlimit:10;}
	.st23{fill:none;stroke:#EEF406;stroke-width:2;stroke-miterlimit:10;stroke-dasharray:2.3975,1.5984;}
	.st24{fill:none;stroke:#EEF406;stroke-width:2;stroke-miterlimit:10;stroke-dasharray:2.395,1.5966;}
	.st25{fill:none;stroke:#EEF406;stroke-width:2;stroke-miterlimit:10;stroke-dasharray:2.3963,1.5976;}
	.st26{opacity:0.1;fill:#EEF406;}
	.st27{opacity:2.000000e-02;fill:#EEF406;}
	.st28{opacity:0.1;fill:#06F7C9;}
	.st29{fill:none;stroke:#006DE9;stroke-width:0.8;stroke-miterlimit:10;}
	.st30{opacity:0.1;fill:url(#SVGID_3_);}
	.st31{opacity:0.1;fill:url(#SVGID_4_);}
	.st32{opacity:0.1;fill:url(#SVGID_5_);}
	.st33{opacity:0.1;fill:url(#SVGID_6_);}
	.st34{fill:none;stroke:#326DE6;stroke-width:1.2;stroke-miterlimit:10;}
	.st35{opacity:0.1;fill:url(#SVGID_7_);}
	.st36{opacity:0.1;fill:url(#SVGID_8_);}
	.st37{opacity:0.1;fill:url(#SVGID_9_);}
	.st38{opacity:0.1;fill:url(#SVGID_10_);}
	.st39{fill:none;stroke:#326DE6;stroke-width:2;stroke-miterlimit:10;}
	.st40{opacity:0.4;fill:none;stroke:#EEF406;stroke-width:2;stroke-miterlimit:10;}
	.st41{fill:none;stroke:#EEF406;stroke-width:2.4596;stroke-miterlimit:10;}
	.st42{fill:#011F38;}
	.st43{opacity:0.4;}
	.st44{opacity:0.1;}
	.st45{fill:#326DE6;stroke:#EEF406;stroke-width:2;stroke-miterlimit:10;}
	.st46{fill:none;stroke:#FFFFFF;stroke-width:1.2;stroke-linecap:round;stroke-linejoin:round;}
	.st47{fill:#06F7C9;stroke:#FFFFFF;stroke-width:0.3;stroke-linecap:round;stroke-linejoin:round;stroke-miterlimit:10;}
	.st48{fill:none;stroke:#011F38;stroke-width:1.2;stroke-linecap:round;stroke-linejoin:round;}
	.st49{fill:#326DE6;stroke:#06F7C9;stroke-width:2;stroke-miterlimit:10;}
	.st50{fill:#06F7C9;stroke:#011F38;stroke-width:0.8;stroke-linecap:round;stroke-linejoin:round;stroke-miterlimit:10;}
	.st51{fill:#8115FF;stroke:#011F38;stroke-width:0.8;stroke-linecap:round;stroke-linejoin:round;stroke-miterlimit:10;}
	.st52{opacity:0.3;}
	.st53{opacity:0.2;fill:#6D6E71;}
	.st54{fill:#EEF406;}
	.st55{fill:#06F7C9;}
	.st56{fill:#FFFFFF;stroke:#06F7C9;stroke-width:2;stroke-miterlimit:10;stroke-dasharray:2.4,1.6;}
	.st57{fill:#FFFFFF;stroke:#EEF406;stroke-width:1.6;stroke-miterlimit:10;stroke-dasharray:2.4,1.6;}
	.st58{fill:none;stroke:#06F7C9;stroke-width:2;stroke-miterlimit:10;stroke-dasharray:2.4938,1.6626;}
	.st59{fill:none;stroke:#06F7C9;stroke-width:2;stroke-miterlimit:10;stroke-dasharray:2.0084,1.3389;}
	.st60{fill:none;stroke:#06F7C9;stroke-width:2;stroke-miterlimit:10;stroke-dasharray:2.724,1.816;}
	.st61{fill:#011F38;stroke:#414042;stroke-width:0.3;stroke-linecap:round;stroke-linejoin:round;stroke-miterlimit:10;}
	.st62{fill:none;stroke:#011F38;stroke-width:0.3;stroke-linecap:round;stroke-linejoin:round;stroke-miterlimit:10;}
	.st63{fill:none;stroke:#011F38;stroke-width:0.2813;stroke-linecap:round;stroke-linejoin:round;stroke-miterlimit:10;}
</style>
<symbol  id="node_high_level" viewBox="-81 -93 162 186.1">
	<polygon class="st0" points="-80,-46 -80,46 0,92 80,46 80,-46 0,-92 	"/>
	<g id="Isolation_Mode_3_">
	</g>
</symbol>
<symbol  id="node_x5F_empty" viewBox="-87.5 -100.6 175.1 201.1">
	
		<use xlink:href="#node_high_level"  width="162" height="186.1" id="XMLID_201_" x="-81" y="-93" transform="matrix(1.0808 0 0 1.0808 -3.292006e-05 -3.749943e-05)" style="overflow:visible;"/>
	<g>
		<polygon class="st1" points="76.8,-28.1 -14,-80.3 0,-88.3 76.7,-44.4 		"/>
		<polygon class="st2" points="76.8,-28.1 32.1,-53.8 38.8,-66.1 76.7,-44.4 		"/>
	</g>
</symbol>
<symbol  id="node_x5F_new" viewBox="-87.6 -101 175.2 202">
	<polygon class="st3" points="0,-100 -86.6,-50 -86.6,50 0,100 86.6,50 86.6,-50 	"/>
	<polygon class="st4" points="-86.6,-20.2 -86.6,-50 0,-100 25.8,-85.1 	"/>
	<polygon class="st5" points="-40.8,-70.7 -32.9,-57 15.7,-85.1 0,-94.3 	"/>
	
		<text transform="matrix(0.866 -0.5 -0.5 -0.866 -33.9256 -70.7388)" class="st6" style="font-family:'RobotoSlab-Regular'; font-size:11.3632px;">Docker</text>
	
		<text transform="matrix(0.866 -0.5 -0.5 -0.866 -76.0668 -46.4087)" class="st6" style="font-family:'RobotoSlab-Regular'; font-size:11.3632px;">Kubelt</text>
</symbol>
<g id="CLUSTER">
</g>
<g id="master">
	<g id="master_x5F_level1">
	</g>
	<polygon class="st12" points="130.9,265.9 106.7,235.6 115.3,197.8 150.2,181 185.1,197.8 193.8,235.6 169.6,265.9 	"/>
</g>
<g id="Node">
	<g id="Node_x5F_level3_x5F_1">
		<g id="Isolation_Mode">
		</g>
	</g>
	<g>
		<polygon class="st17" points="213.8,179.8 155.7,146.2 155.7,79.1 213.8,45.6 271.9,79.1 271.9,146.2 		"/>
	</g>
	<g>
		<polygon class="st17" points="86.6,179.7 28.6,146.1 28.6,79.1 86.6,45.5 144.7,79.1 144.7,146.1 		"/>
	</g>
	<g>
		<polygon class="st17" points="86.6,401.4 28.6,367.9 28.6,300.8 86.6,267.2 144.7,300.8 144.7,367.9 		"/>
	</g>
</g>
<g id="service">
	<g>
		<g>
			<path class="st18" d="M85.4,154.7c0.4,0,0.8,0,1.2,0v0h1.2"/>
			<line class="st19" x1="89.4" y1="154.7" x2="235.1" y2="154.7"/>
			<path class="st18" d="M235.9,154.7h1.2v0c0.4,0,0.8,0,1.2,0"/>
			<path class="st20" d="M239.9,154.7c24.1-1.5,43.3-21.5,43.3-46c0-25.4-20.7-46.1-46.1-46.1H86.6c-25.4,0-46.1,20.7-46.1,46.1
				c0,24.8,19.6,45,44.1,46.1"/>
		</g>
	</g>
	<path class="st21" d="M86,384.5c-25.4,0-46.1-20.7-46.1-46.1c0-25.4,20.7-46.1,46.1-46.1s46.1,20.7,46.1,46.1
		C132.1,363.8,111.4,384.5,86,384.5z"/>
</g>
<g id="pods">
	<circle class="st26" cx="86" cy="338.3" r="34.1"/>
	<circle class="st22" cx="86" cy="338.3" r="34.1"/>
	<circle class="st28" cx="190.6" cy="108.6" r="20.5"/>
	<circle class="st28" cx="237.1" cy="108.6" r="20.5"/>
	<circle class="st28" cx="86.6" cy="108.6" r="34.1"/>
	<circle class="st18" cx="190.6" cy="108.6" r="20.5"/>
	<circle class="st18" cx="237.1" cy="108.6" r="20.5"/>
	<circle class="st18" cx="86.6" cy="108.6" r="34.1"/>
</g>
<g id="IP">
	<g>
		<path class="st42" d="M38.2,313.2l-0.4,0.9l-0.9-0.2c-0.1,0.1-0.3,0.2-0.4,0.4c-0.1,0.2-0.3,0.4-0.4,0.6c-0.2,0.3-0.2,0.6-0.2,0.9
			s0.2,0.4,0.4,0.5c0.2,0.1,0.4,0.1,0.7,0c0.2-0.1,0.5-0.4,0.9-0.8c0.5-0.6,1-1,1.5-1.2s1-0.2,1.5,0c0.5,0.2,0.8,0.7,1,1.2
			c0.1,0.6,0,1.2-0.3,1.9c-0.2,0.5-0.5,0.9-0.9,1.2s-0.7,0.5-1.1,0.7l-1.3-0.6l0.5-1l0.9,0.3c0.2-0.1,0.3-0.2,0.5-0.4
			c0.2-0.2,0.3-0.4,0.4-0.7c0.2-0.3,0.2-0.6,0.2-0.9c-0.1-0.2-0.2-0.4-0.4-0.5c-0.2-0.1-0.5-0.1-0.7,0c-0.2,0.1-0.5,0.3-0.8,0.7
			c-0.6,0.6-1.1,1.1-1.5,1.3c-0.5,0.2-1,0.2-1.5,0c-0.5-0.2-0.8-0.6-0.9-1.2c-0.1-0.6,0-1.2,0.3-1.8c0.2-0.5,0.5-0.9,0.8-1.2
			c0.3-0.3,0.7-0.6,1-0.7L38.2,313.2z"/>
		<path class="st42" d="M44,312.7c-0.4,0.6-0.9,1-1.5,1.1c-0.6,0.1-1.2,0-1.9-0.4l-0.2-0.1c-0.6-0.4-1.1-0.9-1.3-1.5
			c-0.2-0.6-0.1-1.2,0.2-1.8c0.4-0.6,0.8-0.9,1.4-1c0.5-0.1,1.1,0,1.7,0.4l0.6,0.4l-1.6,2.6l0,0c0.3,0.2,0.6,0.2,0.9,0.1
			c0.3-0.1,0.5-0.2,0.7-0.5c0.2-0.3,0.3-0.5,0.3-0.7s0.1-0.4,0.1-0.7l0.9,0.1c0,0.3,0,0.6-0.1,0.9C44.4,312,44.2,312.3,44,312.7z
			 M40.3,310.6c-0.1,0.2-0.2,0.4-0.1,0.7s0.3,0.4,0.5,0.6h0l0.9-1.4l-0.1-0.1c-0.2-0.2-0.5-0.2-0.7-0.2S40.5,310.4,40.3,310.6z"/>
		<path class="st42" d="M44.7,309.9l0.3-0.6l-2.5-1.9l-0.5,0.5l-0.7-0.5l1.2-1.6l0.6,0.4c-0.1-0.3-0.2-0.5-0.2-0.7s0.1-0.5,0.2-0.7
			c0-0.1,0.1-0.1,0.1-0.2c0.1-0.1,0.1-0.1,0.2-0.1l0.9,0.9l-0.3,0.4c-0.1,0.2-0.2,0.3-0.2,0.5c0,0.2,0,0.3,0.1,0.4l2,1.5l0.5-0.4
			l0.7,0.5l-1.6,2.2L44.7,309.9z"/>
		<path class="st42" d="M45.9,302.8l-0.3,0.4l2.1,1l0.4,0.3l0,0l-0.3-0.4l-1.2-2l-0.4,0.3l-0.6-0.6l1.5-1.7l0.6,0.6l-0.2,0.4
			l2.1,3.9l-0.9,1l-4.1-1.7l-0.3,0.3l-0.6-0.6l1.5-1.7L45.9,302.8z"/>
		<path class="st42" d="M48.4,297.4l-1,0.9l-0.7-0.7l1-0.9L48.4,297.4z M50.6,302.8l0.4-0.6l-2.2-2.3l-0.6,0.4l-0.6-0.6l1.5-1.4
			l2.8,3l0.6-0.3l0.6,0.6l-2,1.8L50.6,302.8z"/>
		<path class="st42" d="M54.7,299c0.2-0.2,0.3-0.3,0.3-0.5c0-0.2,0-0.4-0.2-0.6l1-0.8l0,0c0.3,0.4,0.5,0.8,0.4,1.4
			c-0.1,0.5-0.4,1-0.8,1.3c-0.6,0.5-1.2,0.7-1.8,0.5c-0.6-0.1-1.2-0.5-1.6-1.1l-0.1-0.1c-0.5-0.6-0.7-1.2-0.7-1.8
			c0-0.6,0.3-1.2,0.9-1.7c0.3-0.3,0.6-0.4,1-0.5c0.3-0.1,0.6-0.1,1-0.1l0.9,1l-0.9,0.7l-0.7-0.5c-0.1,0-0.2,0-0.3,0
			s-0.2,0.1-0.3,0.2c-0.3,0.2-0.4,0.5-0.4,0.8c0.1,0.3,0.2,0.7,0.5,1l0.1,0.1c0.3,0.4,0.6,0.6,0.9,0.7
			C54.1,299.3,54.4,299.3,54.7,299z"/>
		<path class="st42" d="M59.3,297c-0.6,0.4-1.2,0.5-1.9,0.4c-0.6-0.2-1.1-0.5-1.5-1.1l-0.1-0.2c-0.4-0.6-0.6-1.3-0.5-1.9
			s0.4-1.1,1-1.5c0.6-0.4,1.1-0.5,1.7-0.4c0.5,0.1,1,0.5,1.4,1.1l0.4,0.6l-2.5,1.7l0,0c0.2,0.3,0.4,0.4,0.7,0.5
			c0.3,0.1,0.6,0,0.9-0.2c0.3-0.2,0.4-0.3,0.6-0.5c0.1-0.2,0.3-0.4,0.4-0.6l0.8,0.5c-0.1,0.3-0.2,0.5-0.5,0.8
			C59.9,296.5,59.6,296.8,59.3,297z M56.9,293.5c-0.2,0.1-0.3,0.3-0.3,0.6c0,0.2,0,0.5,0.2,0.8l0,0l1.4-0.9l-0.1-0.1
			c-0.2-0.2-0.3-0.4-0.6-0.5C57.3,293.3,57.1,293.4,56.9,293.5z"/>
		<path class="st42" d="M62.9,293.7l0.4-0.3l-0.5-6.3l1.3-0.6l4.3,4.6l0.5-0.1l0.3,0.8l-2.1,0.9l-0.3-0.8l0.4-0.3l-0.7-0.7l-2,0.9
			l0.1,1l0.5-0.1l0.3,0.8l-2.1,0.9L62.9,293.7z M64.3,290.9l1.4-0.6l-1.7-1.9l0,0L64.3,290.9z"/>
		<path class="st42" d="M73.7,289.7l1.1-0.4l-1-4.5l-1.1,0.2l-0.2-0.8l2.4-1l1.2,5.7l1.2-0.1l0.2,0.8l-3.6,0.8L73.7,289.7z"/>
		<path class="st42" d="M82.3,286.4c0.1,0.9,0,1.6-0.4,2.1c-0.4,0.5-0.9,0.8-1.6,0.9c-0.7,0.1-1.3-0.1-1.8-0.5
			c-0.5-0.4-0.8-1.1-0.9-2l-0.2-1.5c-0.1-0.9,0-1.6,0.4-2.1s0.9-0.8,1.6-0.9c0.7-0.1,1.3,0.1,1.8,0.5c0.5,0.4,0.8,1.1,0.9,2
			L82.3,286.4z M80.8,284.9c-0.1-0.5-0.2-0.9-0.4-1.2c-0.2-0.2-0.4-0.3-0.7-0.3c-0.3,0-0.5,0.2-0.7,0.5s-0.2,0.7-0.1,1.2l0.2,1.8
			c0.1,0.5,0.2,0.9,0.4,1.2s0.4,0.3,0.7,0.3c0.3,0,0.5-0.2,0.7-0.5c0.1-0.3,0.2-0.7,0.1-1.2L80.8,284.9z"/>
		<path class="st42" d="M84.9,289l-1.4,0.1l0-1.2l1.4-0.1L84.9,289z"/>
		<path class="st42" d="M85.6,288.1l1.2-0.1l0.1-4.6l-1.2,0l0-0.8l2.5-0.4l-0.2,5.9l1.1,0.2l0,0.8l-3.7-0.1L85.6,288.1z"/>
		<path class="st42" d="M94.7,287c-0.1,0.9-0.4,1.6-0.9,2c-0.5,0.4-1.1,0.6-1.8,0.5c-0.7-0.1-1.2-0.4-1.6-0.9s-0.5-1.2-0.4-2.1
			l0.2-1.5c0.1-0.9,0.4-1.5,0.9-2c0.5-0.4,1.1-0.6,1.8-0.5c0.7,0.1,1.2,0.4,1.6,0.9c0.4,0.5,0.5,1.2,0.4,2.1L94.7,287z M93.6,285.2
			c0.1-0.5,0-0.9-0.1-1.2c-0.1-0.3-0.3-0.4-0.7-0.5c-0.3,0-0.6,0.1-0.7,0.3c-0.2,0.2-0.3,0.6-0.4,1.2l-0.2,1.8c-0.1,0.5,0,1,0.1,1.2
			c0.1,0.3,0.3,0.4,0.7,0.5c0.3,0,0.5-0.1,0.7-0.3c0.2-0.2,0.3-0.6,0.4-1.2L93.6,285.2z"/>
		<path class="st42" d="M96.6,290.1l-1.3-0.3l0.2-1.2l1.3,0.3L96.6,290.1z"/>
		<path class="st42" d="M99.5,289.9c0.4,0.1,0.7,0,1-0.2c0.3-0.2,0.5-0.6,0.7-1.1l0-0.1c-0.2,0.1-0.4,0.2-0.7,0.3
			c-0.2,0-0.5,0-0.7,0c-0.6-0.2-1-0.5-1.3-1c-0.2-0.5-0.3-1.1,0-1.8c0.2-0.7,0.6-1.2,1.1-1.5c0.5-0.3,1.1-0.4,1.8-0.2
			c0.7,0.2,1.1,0.6,1.4,1.2c0.3,0.6,0.3,1.3,0.1,2.1l-0.4,1.4c-0.2,0.9-0.7,1.4-1.3,1.8c-0.6,0.3-1.3,0.4-2,0.2
			c-0.2-0.1-0.5-0.2-0.7-0.3c-0.2-0.1-0.4-0.2-0.6-0.4l0.4-0.9c0.2,0.1,0.4,0.2,0.5,0.3C99,289.7,99.2,289.8,99.5,289.9z
			 M100.3,287.8c0.2,0.1,0.4,0.1,0.6,0c0.2,0,0.3-0.1,0.5-0.2l0.2-0.7c0.1-0.5,0.2-0.9,0.1-1.2c-0.1-0.3-0.3-0.5-0.6-0.6
			c-0.3-0.1-0.5,0-0.8,0.2c-0.2,0.2-0.4,0.5-0.5,0.9c-0.1,0.4-0.1,0.7,0,1C99.8,287.6,100,287.8,100.3,287.8z"/>
		<path class="st42" d="M103.8,292.3l-1.3-0.5l0.4-1.1l1.3,0.5L103.8,292.3z"/>
		<path class="st42" d="M104.8,291.8l1.1,0.3l1.9-4.2l-1.1-0.5l0.3-0.7l2.5,0.6l-2.4,5.4l1,0.6l-0.3,0.7l-3.3-1.5L104.8,291.8z"/>
	</g>
	<g>
		<path class="st42" d="M115,54.6h-1l-0.2-0.9c-0.1-0.1-0.3-0.1-0.5-0.2c-0.2-0.1-0.5-0.1-0.7-0.1c-0.4,0-0.7,0.1-0.9,0.2
			c-0.2,0.2-0.3,0.4-0.3,0.6c0,0.2,0.1,0.4,0.3,0.6s0.6,0.3,1.1,0.5c0.8,0.2,1.3,0.5,1.7,0.8c0.4,0.3,0.6,0.8,0.6,1.4
			c0,0.6-0.2,1-0.7,1.4s-1.1,0.5-1.8,0.5c-0.5,0-1-0.1-1.5-0.3s-0.8-0.4-1.1-0.7V57h1.1l0.1,1c0.1,0.1,0.3,0.2,0.6,0.3
			c0.2,0.1,0.5,0.1,0.8,0.1c0.4,0,0.7-0.1,0.9-0.2c0.2-0.2,0.3-0.4,0.3-0.6c0-0.3-0.1-0.5-0.3-0.6c-0.2-0.2-0.5-0.3-1-0.5
			c-0.8-0.2-1.4-0.5-1.8-0.8c-0.4-0.3-0.6-0.8-0.6-1.3c0-0.6,0.2-1,0.7-1.4s1.1-0.5,1.8-0.5c0.5,0,1,0.1,1.4,0.2s0.8,0.4,1.1,0.6
			V54.6z"/>
		<path class="st42" d="M118.1,59.4c-0.7,0-1.3-0.2-1.8-0.7s-0.7-1.1-0.7-1.8v-0.2c0-0.8,0.2-1.4,0.6-1.9c0.4-0.5,1-0.7,1.7-0.7
			c0.7,0,1.2,0.2,1.6,0.6s0.6,1,0.6,1.7v0.7h-3l0,0c0,0.3,0.1,0.6,0.3,0.8c0.2,0.2,0.5,0.3,0.8,0.3c0.3,0,0.6,0,0.8-0.1
			c0.2-0.1,0.4-0.2,0.7-0.3l0.4,0.8c-0.2,0.2-0.5,0.3-0.8,0.4S118.5,59.4,118.1,59.4z M118,55.2c-0.3,0-0.5,0.1-0.6,0.3
			c-0.1,0.2-0.2,0.4-0.3,0.8l0,0h1.7v-0.1c0-0.3-0.1-0.5-0.2-0.7C118.5,55.3,118.3,55.2,118,55.2z"/>
		<path class="st42" d="M120.9,58.5l0.7-0.1v-3.1l-0.7-0.1v-0.8h2l0.1,0.7c0.1-0.3,0.3-0.5,0.5-0.6s0.4-0.2,0.7-0.2
			c0.1,0,0.1,0,0.2,0c0.1,0,0.1,0,0.2,0l-0.1,1.2l-0.6,0c-0.2,0-0.4,0-0.5,0.1c-0.1,0.1-0.2,0.2-0.3,0.3v2.5l0.7,0.1v0.8h-2.7V58.5z
			"/>
		<path class="st42" d="M127.1,55l-0.5,0.1l0.7,2.3l0.1,0.5h0l0.1-0.5l0.7-2.3l-0.5-0.1v-0.8h2.3V55l-0.4,0.1l-1.5,4.2h-1.3
			l-1.5-4.2l-0.4-0.1v-0.8h2.3V55z"/>
		<path class="st42" d="M130.4,58.5l0.7-0.1v-3.1l-0.7-0.1v-0.8h2.1v4.1l0.7,0.1v0.8h-2.7V58.5z M132.4,53H131v-1h1.4V53z"/>
		<path class="st42" d="M135.9,58.3c0.2,0,0.4-0.1,0.6-0.2c0.1-0.1,0.2-0.3,0.2-0.6h1.2l0,0c0,0.5-0.2,0.9-0.6,1.3
			c-0.4,0.3-0.9,0.5-1.5,0.5c-0.8,0-1.3-0.2-1.7-0.7c-0.4-0.5-0.6-1.1-0.6-1.8v-0.1c0-0.7,0.2-1.4,0.6-1.8c0.4-0.5,1-0.7,1.8-0.7
			c0.4,0,0.8,0.1,1.1,0.2c0.3,0.1,0.6,0.3,0.8,0.5l0,1.4h-1.1l-0.2-0.8c-0.1-0.1-0.2-0.1-0.3-0.1c-0.1,0-0.2-0.1-0.3-0.1
			c-0.4,0-0.7,0.1-0.8,0.4s-0.2,0.6-0.2,1.1v0.1c0,0.5,0.1,0.8,0.2,1.1C135.3,58.2,135.5,58.3,135.9,58.3z"/>
		<path class="st42" d="M141,59.4c-0.7,0-1.3-0.2-1.8-0.7s-0.7-1.1-0.7-1.8v-0.2c0-0.8,0.2-1.4,0.6-1.9c0.4-0.5,1-0.7,1.7-0.7
			c0.7,0,1.2,0.2,1.6,0.6s0.6,1,0.6,1.7v0.7h-3l0,0c0,0.3,0.1,0.6,0.3,0.8c0.2,0.2,0.5,0.3,0.8,0.3c0.3,0,0.6,0,0.8-0.1
			c0.2-0.1,0.4-0.2,0.7-0.3l0.4,0.8c-0.2,0.2-0.5,0.3-0.8,0.4S141.4,59.4,141,59.4z M140.9,55.2c-0.3,0-0.5,0.1-0.6,0.3
			c-0.1,0.2-0.2,0.4-0.3,0.8l0,0h1.7v-0.1c0-0.3-0.1-0.5-0.2-0.7C141.4,55.3,141.1,55.2,140.9,55.2z"/>
		<path class="st42" d="M149,52.5c0.8,0,1.4,0.2,1.9,0.5s0.7,0.8,0.7,1.4c0,0.3-0.1,0.6-0.2,0.8c-0.2,0.2-0.4,0.4-0.7,0.6
			c0.4,0.1,0.7,0.3,0.9,0.6c0.2,0.3,0.3,0.6,0.3,1c0,0.7-0.2,1.1-0.6,1.5c-0.4,0.3-1,0.5-1.8,0.5H146v-0.8l0.7-0.1v-4.9l-0.7-0.1
			v-0.8h0.7H149z M148.1,55.3h1c0.4,0,0.6-0.1,0.8-0.2c0.2-0.2,0.3-0.4,0.3-0.7c0-0.3-0.1-0.5-0.3-0.7s-0.5-0.2-0.9-0.2h-0.9V55.3z
			 M148.1,56.3v2h1.3c0.4,0,0.6-0.1,0.8-0.2s0.3-0.4,0.3-0.7c0-0.3-0.1-0.6-0.2-0.8c-0.2-0.2-0.4-0.3-0.8-0.3H148.1z"/>
		<path class="st42" d="M154.8,58.5l1.2-0.1v-4.6h-1.2v-0.8l2.5-0.5v5.9l1.2,0.1v0.8h-3.7V58.5z"/>
		<path class="st42" d="M163.8,56.6c0,0.9-0.2,1.6-0.6,2.1c-0.4,0.5-1,0.7-1.7,0.7c-0.7,0-1.3-0.2-1.7-0.7c-0.4-0.5-0.6-1.2-0.6-2.1
			v-1.5c0-0.9,0.2-1.6,0.6-2.1c0.4-0.5,1-0.7,1.7-0.7c0.7,0,1.3,0.2,1.7,0.7c0.4,0.5,0.6,1.2,0.6,2.1V56.6z M162.4,55
			c0-0.5-0.1-0.9-0.2-1.2c-0.2-0.3-0.4-0.4-0.7-0.4c-0.3,0-0.5,0.1-0.7,0.4s-0.2,0.6-0.2,1.2v1.8c0,0.5,0.1,0.9,0.2,1.2
			c0.2,0.2,0.4,0.4,0.7,0.4c0.3,0,0.5-0.1,0.7-0.4s0.2-0.6,0.2-1.2V55z"/>
		<path class="st42" d="M166.1,59.3h-1.4v-1.2h1.4V59.3z"/>
		<path class="st42" d="M166.9,58.5l1.2-0.1v-4.6h-1.2v-0.8l2.5-0.5v5.9l1.2,0.1v0.8h-3.7V58.5z"/>
		<path class="st42" d="M175.9,56.6c0,0.9-0.2,1.6-0.6,2.1c-0.4,0.5-1,0.7-1.7,0.7c-0.7,0-1.3-0.2-1.7-0.7c-0.4-0.5-0.6-1.2-0.6-2.1
			v-1.5c0-0.9,0.2-1.6,0.6-2.1c0.4-0.5,1-0.7,1.7-0.7c0.7,0,1.3,0.2,1.7,0.7c0.4,0.5,0.6,1.2,0.6,2.1V56.6z M174.6,55
			c0-0.5-0.1-0.9-0.2-1.2c-0.2-0.3-0.4-0.4-0.7-0.4c-0.3,0-0.5,0.1-0.7,0.4s-0.2,0.6-0.2,1.2v1.8c0,0.5,0.1,0.9,0.2,1.2
			c0.2,0.2,0.4,0.4,0.7,0.4c0.3,0,0.5-0.1,0.7-0.4s0.2-0.6,0.2-1.2V55z"/>
		<path class="st42" d="M178.3,59.3H177v-1.2h1.4V59.3z"/>
		<path class="st42" d="M181.2,58.3c0.4,0,0.7-0.1,0.9-0.4s0.3-0.7,0.3-1.3v-0.1c-0.2,0.2-0.3,0.3-0.5,0.4s-0.4,0.2-0.7,0.2
			c-0.6,0-1.1-0.2-1.5-0.6c-0.4-0.4-0.5-1-0.5-1.7c0-0.7,0.2-1.3,0.6-1.7s1-0.7,1.6-0.7c0.7,0,1.3,0.2,1.7,0.7
			c0.4,0.5,0.7,1.2,0.7,2v1.5c0,0.9-0.2,1.6-0.7,2.1c-0.5,0.5-1.1,0.7-1.9,0.7c-0.2,0-0.5,0-0.7-0.1c-0.3,0-0.5-0.1-0.7-0.2l0.2-1
			c0.2,0.1,0.4,0.1,0.6,0.2C180.7,58.3,180.9,58.3,181.2,58.3z M181.4,56.2c0.2,0,0.4,0,0.6-0.1c0.2-0.1,0.3-0.2,0.4-0.3V55
			c0-0.5-0.1-0.9-0.3-1.1c-0.2-0.3-0.4-0.4-0.7-0.4c-0.3,0-0.5,0.1-0.7,0.4c-0.2,0.3-0.3,0.6-0.3,1c0,0.4,0.1,0.7,0.2,1
			C180.9,56,181.1,56.2,181.4,56.2z"/>
		<path class="st42" d="M186.1,59.3h-1.4v-1.2h1.4V59.3z"/>
		<path class="st42" d="M186.9,59.3v-0.9l2.2-2.4c0.3-0.4,0.5-0.7,0.7-0.9c0.1-0.3,0.2-0.5,0.2-0.7c0-0.3-0.1-0.5-0.2-0.7
			c-0.2-0.2-0.4-0.3-0.7-0.3c-0.3,0-0.6,0.1-0.7,0.3c-0.2,0.2-0.2,0.5-0.2,0.9h-1.3l0,0c0-0.6,0.2-1.1,0.6-1.6
			c0.4-0.4,1-0.6,1.7-0.6c0.7,0,1.3,0.2,1.7,0.5s0.6,0.9,0.6,1.5c0,0.4-0.1,0.8-0.3,1.1c-0.2,0.3-0.6,0.8-1.1,1.4l-1.2,1.3l0,0h1.8
			l0.1-0.7h1v1.7H186.9z"/>
	</g>
	<g>
		<path class="st42" d="M171.6,95.3l0.5-0.8l-3.4-2.6l-0.5,0.9l-0.2-0.2l0.6-1.3l3.8,2.9l0.6-0.7l0.2,0.2l-1.4,1.8L171.6,95.3z"/>
		<path class="st42" d="M174.5,89.6c0.5,0.5,0.7,0.9,0.8,1.4c0,0.5-0.1,0.8-0.5,1.2c-0.4,0.3-0.8,0.5-1.2,0.4s-0.9-0.3-1.4-0.8
			l-0.8-0.8c-0.5-0.5-0.7-0.9-0.8-1.4c0-0.5,0.1-0.9,0.5-1.2c0.4-0.3,0.8-0.5,1.2-0.4s0.9,0.3,1.4,0.8L174.5,89.6z M173.3,89
			c-0.4-0.4-0.7-0.6-1.1-0.7c-0.3-0.1-0.6,0-0.9,0.3c-0.3,0.3-0.4,0.6-0.3,0.9s0.3,0.7,0.6,1.1l0.9,0.9c0.4,0.4,0.7,0.6,1.1,0.7
			c0.3,0.1,0.7,0,0.9-0.3c0.3-0.3,0.4-0.6,0.3-0.9c-0.1-0.3-0.3-0.7-0.6-1.1L173.3,89z"/>
		<path class="st42" d="M176.9,90.3l-0.4,0.3l-0.3-0.5l0.4-0.3L176.9,90.3z"/>
		<path class="st42" d="M177.5,89.4l0.8-0.5l-2.3-3.7l-0.8,0.7l-0.2-0.3l1.1-1l2.5,4.1l0.8-0.4l0.2,0.3l-1.9,1.2L177.5,89.4z"/>
		<path class="st42" d="M182.1,85.2c0.3,0.6,0.3,1.1,0.2,1.6s-0.4,0.8-0.9,1c-0.5,0.2-0.9,0.2-1.3,0s-0.7-0.6-1-1.2l-0.5-1
			c-0.3-0.6-0.3-1.1-0.2-1.6c0.1-0.4,0.4-0.8,0.9-1c0.5-0.2,0.9-0.2,1.3,0c0.4,0.2,0.7,0.6,1,1.2L182.1,85.2z M181.3,84.2
			c-0.2-0.5-0.5-0.8-0.8-1c-0.3-0.2-0.6-0.2-1,0c-0.3,0.2-0.6,0.4-0.6,0.7c-0.1,0.3,0,0.7,0.2,1.2l0.5,1.2c0.2,0.5,0.5,0.8,0.8,1
			c0.3,0.2,0.6,0.2,1,0c0.3-0.2,0.6-0.4,0.6-0.7c0.1-0.3,0-0.8-0.2-1.2L181.3,84.2z"/>
		<path class="st42" d="M184.2,86.6l-0.5,0.1l-0.2-0.6l0.5-0.1L184.2,86.6z"/>
		<path class="st42" d="M185,86.1l0.9-0.2l-0.8-4.2l-1,0.3l-0.1-0.3l1.3-0.6l0.9,4.7l0.9-0.1l0.1,0.3l-2.2,0.4L185,86.1z"/>
		<path class="st42" d="M190.9,83.7c0,0.7-0.1,1.2-0.3,1.5c-0.3,0.4-0.6,0.6-1.1,0.6c-0.5,0-0.9-0.1-1.2-0.5
			c-0.3-0.3-0.5-0.8-0.5-1.5l-0.1-1.1c0-0.7,0.1-1.2,0.3-1.5c0.3-0.4,0.6-0.6,1.1-0.6c0.5,0,0.9,0.1,1.2,0.5s0.5,0.8,0.5,1.5
			L190.9,83.7z M190.4,82.5c0-0.5-0.1-0.9-0.4-1.2c-0.2-0.3-0.5-0.4-0.9-0.4c-0.4,0-0.7,0.2-0.8,0.5c-0.2,0.3-0.3,0.7-0.2,1.2
			l0.1,1.3c0,0.5,0.1,0.9,0.4,1.2s0.5,0.4,0.9,0.4c0.4,0,0.7-0.2,0.8-0.5c0.2-0.3,0.3-0.7,0.2-1.2L190.4,82.5z"/>
		<path class="st42" d="M192.3,85.8l-0.5,0l0-0.6l0.5,0L192.3,85.8z"/>
		<path class="st42" d="M196.1,84.7l0.8,0.1l-0.1,0.3l-0.8-0.1l-0.2,0.9l0.6,0.2l-0.1,0.3l-1.5-0.3l0.1-0.3l0.6,0.1l0.2-0.9
			l-2.4-0.4l0-0.2l3-3.1l0.5,0.1L196.1,84.7z M193.9,84.3l1.9,0.4l0.5-2.9l0,0l-0.2,0.3L193.9,84.3z"/>
	</g>
	<g>
		<path class="st42" d="M218.1,95.3l0.5-0.8l-3.4-2.6l-0.5,0.9l-0.2-0.2l0.6-1.3l3.8,2.9l0.6-0.7l0.2,0.2l-1.4,1.8L218.1,95.3z"/>
		<path class="st42" d="M221,89.6c0.5,0.5,0.7,0.9,0.8,1.4c0,0.5-0.1,0.8-0.5,1.2c-0.4,0.3-0.8,0.5-1.2,0.4s-0.9-0.3-1.4-0.8
			l-0.8-0.8c-0.5-0.5-0.7-0.9-0.8-1.4c0-0.5,0.1-0.9,0.5-1.2c0.4-0.3,0.8-0.5,1.2-0.4s0.9,0.3,1.4,0.8L221,89.6z M219.8,89
			c-0.4-0.4-0.7-0.6-1.1-0.7c-0.3-0.1-0.6,0-0.9,0.3c-0.3,0.3-0.4,0.6-0.3,0.9s0.3,0.7,0.6,1.1l0.9,0.9c0.4,0.4,0.7,0.6,1.1,0.7
			c0.3,0.1,0.7,0,0.9-0.3c0.3-0.3,0.4-0.6,0.3-0.9c-0.1-0.3-0.3-0.7-0.6-1.1L219.8,89z"/>
		<path class="st42" d="M223.4,90.3l-0.4,0.3l-0.3-0.5l0.4-0.3L223.4,90.3z"/>
		<path class="st42" d="M224,89.4l0.8-0.5l-2.3-3.7l-0.8,0.7l-0.2-0.3l1.1-1l2.5,4.1l0.8-0.4l0.2,0.3l-1.9,1.2L224,89.4z"/>
		<path class="st42" d="M228.6,85.2c0.3,0.6,0.3,1.1,0.2,1.6s-0.4,0.8-0.9,1c-0.5,0.2-0.9,0.2-1.3,0s-0.7-0.6-1-1.2l-0.5-1
			c-0.3-0.6-0.3-1.1-0.2-1.6c0.1-0.4,0.4-0.8,0.9-1c0.5-0.2,0.9-0.2,1.3,0c0.4,0.2,0.7,0.6,1,1.2L228.6,85.2z M227.8,84.2
			c-0.2-0.5-0.5-0.8-0.8-1c-0.3-0.2-0.6-0.2-1,0c-0.3,0.2-0.6,0.4-0.6,0.7c-0.1,0.3,0,0.7,0.2,1.2l0.5,1.2c0.2,0.5,0.5,0.8,0.8,1
			c0.3,0.2,0.6,0.2,1,0c0.3-0.2,0.6-0.4,0.6-0.7c0.1-0.3,0-0.8-0.2-1.2L227.8,84.2z"/>
		<path class="st42" d="M230.7,86.6l-0.5,0.1l-0.2-0.6l0.5-0.1L230.7,86.6z"/>
		<path class="st42" d="M231.6,86.1l0.9-0.2l-0.8-4.2l-1,0.3l-0.1-0.3l1.3-0.6l0.9,4.7l0.9-0.1l0.1,0.3l-2.2,0.4L231.6,86.1z"/>
		<path class="st42" d="M237.4,83.7c0,0.7-0.1,1.2-0.3,1.5c-0.3,0.4-0.6,0.6-1.1,0.6c-0.5,0-0.9-0.1-1.2-0.5
			c-0.3-0.3-0.5-0.8-0.5-1.5l-0.1-1.1c0-0.7,0.1-1.2,0.3-1.5c0.3-0.4,0.6-0.6,1.1-0.6c0.5,0,0.9,0.1,1.2,0.5s0.5,0.8,0.5,1.5
			L237.4,83.7z M236.9,82.5c0-0.5-0.1-0.9-0.4-1.2c-0.2-0.3-0.5-0.4-0.9-0.4c-0.4,0-0.7,0.2-0.8,0.5c-0.2,0.3-0.3,0.7-0.2,1.2
			l0.1,1.3c0,0.5,0.1,0.9,0.4,1.2s0.5,0.4,0.9,0.4c0.4,0,0.7-0.2,0.8-0.5c0.2-0.3,0.3-0.7,0.2-1.2L236.9,82.5z"/>
		<path class="st42" d="M238.8,85.8l-0.5,0l0-0.6l0.5,0L238.8,85.8z"/>
		<path class="st42" d="M241.1,83.2l0.5,0.1c0.4,0.1,0.7,0,0.9-0.1s0.4-0.4,0.4-0.7c0.1-0.3,0-0.6-0.1-0.8c-0.1-0.2-0.4-0.4-0.7-0.4
			c-0.3-0.1-0.6,0-0.8,0.1s-0.4,0.4-0.4,0.7l-0.4-0.1l0,0c0.1-0.4,0.3-0.7,0.6-0.9c0.3-0.2,0.7-0.3,1.2-0.2c0.4,0.1,0.8,0.3,1,0.6
			c0.2,0.3,0.3,0.7,0.2,1.1c0,0.2-0.2,0.4-0.3,0.6c-0.2,0.2-0.4,0.3-0.7,0.4c0.3,0.1,0.5,0.3,0.6,0.6c0.1,0.2,0.1,0.5,0.1,0.8
			c-0.1,0.4-0.3,0.8-0.6,1c-0.3,0.2-0.7,0.3-1.2,0.2c-0.4-0.1-0.8-0.3-1.1-0.6c-0.3-0.3-0.4-0.7-0.3-1.1l0,0l0.4,0.1
			c-0.1,0.3,0,0.6,0.2,0.8c0.2,0.2,0.5,0.4,0.8,0.5c0.4,0.1,0.7,0,0.9-0.1c0.2-0.1,0.4-0.4,0.4-0.7c0.1-0.4,0-0.6-0.2-0.8
			c-0.2-0.2-0.5-0.3-0.9-0.4l-0.5-0.1L241.1,83.2z"/>
	</g>
	<g>
		<path class="st42" d="M53.2,93.2l0.4-0.8l-3.9-1.9l-0.3,1l-0.3-0.1l0.4-1.4l4.3,2.1l0.5-0.8l0.3,0.1l-1,2L53.2,93.2z"/>
		<path class="st42" d="M54.7,87c0.6,0.3,0.9,0.7,1.1,1.2c0.2,0.4,0.1,0.9-0.2,1.3c-0.3,0.4-0.6,0.7-1.1,0.7c-0.5,0.1-1-0.1-1.5-0.4
			l-1-0.6c-0.6-0.3-0.9-0.7-1.1-1.2c-0.2-0.4-0.1-0.9,0.2-1.3c0.3-0.4,0.6-0.7,1.1-0.7c0.5-0.1,1,0.1,1.5,0.4L54.7,87z M53.5,86.7
			c-0.4-0.3-0.8-0.4-1.2-0.4c-0.3,0-0.6,0.2-0.8,0.5c-0.2,0.3-0.2,0.6-0.1,1c0.1,0.3,0.4,0.6,0.9,0.9l1.1,0.7
			c0.4,0.3,0.8,0.4,1.2,0.4c0.4,0,0.6-0.2,0.8-0.5c0.2-0.3,0.2-0.6,0.1-1c-0.1-0.3-0.4-0.6-0.9-0.9L53.5,86.7z"/>
		<path class="st42" d="M57.2,87l-0.3,0.4L56.5,87l0.3-0.4L57.2,87z"/>
		<path class="st42" d="M57.6,86l0.5-0.7l-3.3-2.7l-0.5,0.9L54,83.2l0.7-1.3l3.7,3l0.6-0.7l0.2,0.2l-1.4,1.7L57.6,86z"/>
		<path class="st42" d="M60.5,80.3c0.5,0.5,0.7,0.9,0.8,1.4c0.1,0.4-0.1,0.9-0.4,1.2c-0.3,0.4-0.8,0.5-1.2,0.5
			c-0.5-0.1-0.9-0.3-1.4-0.8l-0.8-0.8c-0.5-0.5-0.7-0.9-0.8-1.4c-0.1-0.5,0.1-0.9,0.4-1.2c0.4-0.4,0.8-0.5,1.2-0.5
			c0.5,0.1,0.9,0.3,1.4,0.8L60.5,80.3z M59.3,79.8c-0.4-0.4-0.7-0.6-1.1-0.6c-0.3-0.1-0.6,0.1-0.9,0.3C57,79.7,56.9,80,57,80.4
			c0.1,0.3,0.3,0.7,0.6,1.1l0.9,0.9c0.4,0.4,0.7,0.6,1.1,0.6c0.3,0.1,0.7,0,0.9-0.3c0.3-0.3,0.4-0.6,0.3-0.9
			c-0.1-0.3-0.3-0.7-0.6-1.1L59.3,79.8z"/>
		<path class="st42" d="M62.9,80.9l-0.4,0.3l-0.4-0.4l0.4-0.3L62.9,80.9z"/>
		<path class="st42" d="M63.5,80l0.7-0.6L61.5,76l-0.7,0.7l-0.2-0.2l0.9-1.1l2.9,3.8l0.8-0.5l0.2,0.2l-1.8,1.4L63.5,80z"/>
		<path class="st42" d="M67.5,75.1c0.4,0.6,0.5,1.1,0.5,1.5c0,0.5-0.3,0.8-0.7,1.1c-0.4,0.3-0.8,0.3-1.3,0.2
			c-0.4-0.2-0.8-0.5-1.2-1.1l-0.6-1c-0.4-0.6-0.5-1.1-0.5-1.5s0.3-0.8,0.7-1.1c0.4-0.3,0.8-0.3,1.3-0.2c0.4,0.2,0.8,0.5,1.2,1.1
			L67.5,75.1z M66.5,74.3c-0.3-0.4-0.6-0.7-0.9-0.9c-0.3-0.1-0.6-0.1-1,0.1c-0.3,0.2-0.5,0.5-0.5,0.8c0,0.3,0.1,0.7,0.4,1.2l0.7,1.1
			c0.3,0.4,0.6,0.7,0.9,0.9c0.3,0.1,0.6,0.1,1-0.1c0.3-0.2,0.5-0.5,0.5-0.8c0-0.3-0.1-0.7-0.4-1.2L66.5,74.3z"/>
		<path class="st42" d="M69.8,76.2l-0.4,0.2l-0.3-0.5l0.4-0.2L69.8,76.2z"/>
		<path class="st42" d="M70.6,75.7l-0.1-0.3l0.8-2.4c0.1-0.4,0.2-0.8,0.3-1.1c0-0.3,0-0.5-0.1-0.7c-0.1-0.3-0.3-0.5-0.6-0.6
			c-0.2-0.1-0.5-0.1-0.8,0c-0.4,0.2-0.6,0.4-0.7,0.7c-0.1,0.3-0.1,0.6,0.1,0.9l-0.4,0.2l0,0c-0.2-0.4-0.2-0.8-0.1-1.2
			c0.1-0.4,0.4-0.7,0.9-0.9c0.4-0.2,0.8-0.2,1.1-0.1s0.6,0.4,0.8,0.8c0.1,0.3,0.1,0.6,0.1,0.9c0,0.3-0.1,0.7-0.3,1.2l-0.7,2l0,0
			l2-0.9l-0.3-0.7l0.3-0.1l0.4,1L70.6,75.7z"/>
	</g>
	<g>
		<path class="st42" d="M52.5,322.9l0.4-0.8l-3.9-1.9l-0.3,1l-0.3-0.1l0.4-1.4l4.3,2.1l0.5-0.8l0.3,0.1l-1,2L52.5,322.9z"/>
		<path class="st42" d="M54.1,316.7c0.6,0.3,0.9,0.7,1.1,1.2s0.1,0.9-0.2,1.3c-0.3,0.4-0.6,0.7-1.1,0.7c-0.5,0.1-1-0.1-1.5-0.4
			l-1-0.6c-0.6-0.3-0.9-0.7-1.1-1.2c-0.2-0.4-0.1-0.9,0.2-1.3c0.3-0.4,0.6-0.7,1.1-0.7c0.5-0.1,1,0.1,1.5,0.4L54.1,316.7z
			 M52.8,316.5c-0.4-0.3-0.8-0.4-1.2-0.4c-0.3,0-0.6,0.2-0.8,0.5c-0.2,0.3-0.2,0.6-0.1,1c0.1,0.3,0.4,0.6,0.9,0.9l1.1,0.7
			c0.4,0.3,0.8,0.4,1.2,0.4c0.4,0,0.6-0.2,0.8-0.5c0.2-0.3,0.2-0.6,0.1-1s-0.4-0.6-0.9-0.9L52.8,316.5z"/>
		<path class="st42" d="M56.6,316.7l-0.3,0.4l-0.5-0.3l0.3-0.4L56.6,316.7z"/>
		<path class="st42" d="M56.9,315.7l0.5-0.7l-3.3-2.7l-0.5,0.9l-0.2-0.2l0.7-1.3l3.7,3l0.6-0.7l0.2,0.2l-1.4,1.7L56.9,315.7z"/>
		<path class="st42" d="M59.8,310.1c0.5,0.5,0.7,0.9,0.8,1.4c0.1,0.4-0.1,0.9-0.4,1.2c-0.3,0.4-0.8,0.5-1.2,0.5
			c-0.5-0.1-0.9-0.3-1.4-0.8l-0.8-0.8c-0.5-0.5-0.7-0.9-0.8-1.4c-0.1-0.5,0.1-0.9,0.4-1.2c0.4-0.4,0.8-0.5,1.2-0.5
			c0.5,0.1,0.9,0.3,1.4,0.8L59.8,310.1z M58.7,309.5c-0.4-0.4-0.7-0.6-1.1-0.6c-0.3-0.1-0.6,0-0.9,0.3c-0.3,0.3-0.4,0.6-0.3,0.9
			c0.1,0.3,0.3,0.7,0.6,1.1l0.9,0.9c0.4,0.4,0.7,0.6,1.1,0.6c0.3,0.1,0.7,0,0.9-0.3c0.3-0.3,0.4-0.6,0.3-0.9s-0.3-0.7-0.6-1.1
			L58.7,309.5z"/>
		<path class="st42" d="M62.3,310.6l-0.4,0.3l-0.4-0.4l0.4-0.3L62.3,310.6z"/>
		<path class="st42" d="M62.8,309.7l0.7-0.6l-2.6-3.4l-0.7,0.7l-0.2-0.2l0.9-1.1l2.9,3.8l0.8-0.5l0.2,0.2L63,310L62.8,309.7z"/>
		<path class="st42" d="M66.9,304.9c0.4,0.6,0.5,1.1,0.5,1.5c0,0.5-0.3,0.8-0.7,1.1c-0.4,0.3-0.8,0.3-1.3,0.2s-0.8-0.5-1.2-1.1
			l-0.6-1c-0.4-0.6-0.5-1.1-0.5-1.5c0-0.5,0.3-0.8,0.7-1.1c0.4-0.3,0.8-0.3,1.3-0.2c0.4,0.2,0.8,0.5,1.2,1.1L66.9,304.9z
			 M65.9,304.1c-0.3-0.4-0.6-0.7-0.9-0.9c-0.3-0.1-0.6-0.1-1,0.1c-0.3,0.2-0.5,0.5-0.5,0.8c0,0.3,0.1,0.7,0.4,1.2l0.7,1.1
			c0.3,0.4,0.6,0.7,0.9,0.9s0.6,0.1,1-0.1c0.3-0.2,0.5-0.5,0.5-0.8c0-0.3-0.1-0.7-0.4-1.2L65.9,304.1z"/>
		<path class="st42" d="M69.2,305.9l-0.4,0.2l-0.3-0.5l0.4-0.2L69.2,305.9z"/>
		<path class="st42" d="M69.9,305.2l0.8-0.4l-1.8-3.9l-0.9,0.5l-0.1-0.3l1.2-0.9l2,4.4l0.9-0.3l0.1,0.3l-2.1,0.9L69.9,305.2z"/>
	</g>
</g>
<g id="deployments">
	<g>
		<g>
			<circle class="st45" cx="140.6" cy="241.8" r="14.1"/>
			<g>
				<g>
					<path class="st46" d="M145,233.5c3,1.6,5,4.7,5,8.3c0,5.2-4.2,9.4-9.4,9.4s-9.4-4.2-9.4-9.4c0-4.1,2.6-7.6,6.3-8.9"/>
					<g>
						<polygon class="st6" points="146.4,236.4 145.4,233.7 148,232.6 146.5,231.9 143.8,233 144.8,235.6 						"/>
					</g>
				</g>
			</g>
			<g>
				<path class="st6" d="M135.4,245.5l0.8-0.1l3.3-9.5h2.2l3.3,9.5l0.8,0.1v1.3h-3.7v-1.3l0.8-0.1l-0.5-1.5h-3.5l-0.5,1.5l0.8,0.1
					v1.3h-3.7V245.5z M139.4,242.3h2.5l-1.2-3.8h0L139.4,242.3z"/>
			</g>
		</g>
		<g>
			<circle class="st49" cx="159.9" cy="211.5" r="14.1"/>
			<g>
				<g>
					<path class="st46" d="M164.3,203.2c3,1.6,5,4.7,5,8.3c0,5.2-4.2,9.4-9.4,9.4s-9.4-4.2-9.4-9.4c0-4.1,2.6-7.6,6.3-8.9"/>
					<g>
						<polygon class="st6" points="165.7,206.1 164.6,203.4 167.3,202.4 165.7,201.7 163,202.7 164.1,205.4 						"/>
					</g>
				</g>
			</g>
			<g>
				<path class="st6" d="M160.1,205.8c1.3,0,2.3,0.2,3,0.7s1.1,1.2,1.1,2.2c0,0.5-0.1,1-0.4,1.3c-0.3,0.4-0.7,0.7-1.2,0.9
					c0.7,0.1,1.1,0.4,1.5,0.9c0.3,0.5,0.5,1,0.5,1.6c0,1-0.3,1.8-1,2.4c-0.7,0.5-1.7,0.8-2.9,0.8h-5.3v-1.3l1.2-0.2v-7.8l-1.2-0.2
					v-1.3h1.2H160.1z M158.6,210.3h1.6c0.6,0,1-0.1,1.3-0.4c0.3-0.2,0.5-0.6,0.5-1c0-0.5-0.2-0.9-0.5-1.1c-0.3-0.2-0.8-0.4-1.4-0.4
					h-1.5V210.3z M158.6,211.8v3.1h2c0.6,0,1-0.1,1.3-0.4c0.3-0.3,0.5-0.6,0.5-1.1c0-0.5-0.1-0.9-0.4-1.2c-0.3-0.3-0.7-0.4-1.2-0.4
					H158.6z"/>
			</g>
		</g>
	</g>
</g>
<g id="containers_x2F_volumes">
	<g>
		<polygon class="st51" points="74.8,101.8 86.6,94.9 98.5,101.8 86.6,108.6 		"/>
		<polygon class="st51" points="74.8,115.4 74.8,101.8 86.6,108.6 86.6,122.3 		"/>
		<polygon class="st51" points="86.6,122.3 86.6,108.6 98.5,101.8 98.5,115.4 		"/>
	</g>
	<g>
		<polygon class="st51" points="74.2,331.5 86,324.6 97.9,331.5 86,338.3 		"/>
		<polygon class="st51" points="74.2,345.2 74.2,331.5 86,338.3 86,352 		"/>
		<polygon class="st51" points="86,352 86,338.3 97.9,331.5 97.9,345.2 		"/>
	</g>
	<g>
		<polygon class="st51" points="178.7,101.7 190.6,94.9 202.4,101.7 190.6,108.6 		"/>
		<polygon class="st51" points="178.7,115.4 178.7,101.7 190.6,108.6 190.6,122.3 		"/>
		<polygon class="st51" points="190.6,122.3 190.6,108.6 202.4,101.7 202.4,115.4 		"/>
	</g>
	<g>
		<polygon class="st51" points="225.2,101.7 237.1,94.9 248.9,101.7 237.1,108.6 		"/>
		<polygon class="st51" points="225.2,115.4 225.2,101.7 237.1,108.6 237.1,122.3 		"/>
		<polygon class="st51" points="237.1,122.3 237.1,108.6 248.9,101.7 248.9,115.4 		"/>
	</g>
</g>
<g id="labels_x2F_selectors">
</g>
<g id="description">
	<g>
		<path class="st42" d="M315.9,138.6h-0.9l-0.2-1.2c-0.2-0.1-0.4-0.3-0.7-0.4s-0.6-0.1-1-0.1c-0.6,0-1.1,0.1-1.4,0.4s-0.5,0.6-0.5,1
			c0,0.4,0.2,0.7,0.5,0.9s0.9,0.5,1.6,0.7c0.9,0.2,1.6,0.6,2,1s0.7,1,0.7,1.6c0,0.7-0.3,1.2-0.8,1.7s-1.3,0.6-2.2,0.6
			c-0.7,0-1.2-0.1-1.7-0.3s-0.9-0.5-1.2-0.8V142h0.9l0.2,1.2c0.2,0.2,0.5,0.3,0.8,0.5s0.7,0.2,1.1,0.2c0.6,0,1-0.1,1.4-0.4
			s0.5-0.6,0.5-1c0-0.4-0.1-0.7-0.4-1s-0.8-0.5-1.6-0.7c-0.9-0.2-1.6-0.5-2.1-0.9s-0.8-0.9-0.8-1.6c0-0.7,0.3-1.2,0.8-1.7
			s1.3-0.7,2.2-0.7c0.6,0,1.1,0.1,1.6,0.3s0.9,0.5,1.2,0.7V138.6z"/>
		<path class="st42" d="M320.1,144.7c-0.9,0-1.6-0.3-2.1-0.9s-0.8-1.4-0.8-2.3v-0.3c0-0.9,0.3-1.7,0.8-2.3s1.2-0.9,1.9-0.9
			c0.9,0,1.5,0.3,1.9,0.8s0.7,1.2,0.7,2.1v0.7h-4.1l0,0c0,0.6,0.2,1.1,0.5,1.5s0.7,0.6,1.2,0.6c0.4,0,0.7-0.1,1-0.2s0.5-0.3,0.8-0.5
			l0.5,0.8c-0.2,0.2-0.5,0.4-0.9,0.6S320.6,144.7,320.1,144.7z M319.9,139c-0.4,0-0.7,0.2-1,0.5s-0.4,0.7-0.5,1.2l0,0h2.9v-0.2
			c0-0.5-0.1-0.8-0.4-1.1S320.4,139,319.9,139z"/>
		<path class="st42" d="M323.6,139v-0.7h2l0.1,0.9c0.2-0.3,0.4-0.6,0.7-0.8s0.6-0.3,0.9-0.3c0.1,0,0.2,0,0.3,0s0.2,0,0.2,0l-0.2,1.1
			l-0.7,0c-0.3,0-0.6,0.1-0.8,0.2s-0.4,0.3-0.5,0.6v3.6l1,0.2v0.7h-3.1v-0.7l1-0.2v-4.5L323.6,139z"/>
		<path class="st42" d="M330.9,139l-0.8,0.1l1.3,3.6l0.1,0.5h0l0.1-0.5l1.3-3.6l-0.8-0.1v-0.7h2.4v0.7l-0.5,0.1l-2.1,5.5h-0.9
			l-2.2-5.5l-0.5-0.1v-0.7h2.4V139z"/>
		<path class="st42" d="M335.4,143.8l1-0.2v-4.5l-1-0.2v-0.7h2.1v5.4l1,0.2v0.7h-3.1V143.8z M337.5,136.6h-1.2v-1.2h1.2V136.6z"/>
		<path class="st42" d="M342.2,143.8c0.4,0,0.7-0.1,1-0.4s0.4-0.5,0.4-0.9h1l0,0c0,0.5-0.2,1-0.7,1.5s-1.1,0.6-1.8,0.6
			c-0.9,0-1.6-0.3-2.1-0.9s-0.7-1.4-0.7-2.3v-0.2c0-0.9,0.2-1.7,0.7-2.3s1.2-0.9,2.1-0.9c0.5,0,1,0.1,1.4,0.3s0.7,0.4,1,0.7l0.1,1.4
			h-0.9l-0.3-1c-0.1-0.1-0.3-0.2-0.5-0.3s-0.5-0.1-0.7-0.1c-0.6,0-1,0.2-1.3,0.7s-0.4,1-0.4,1.6v0.2c0,0.6,0.1,1.2,0.4,1.6
			S341.6,143.8,342.2,143.8z"/>
		<path class="st42" d="M348.7,144.7c-0.9,0-1.6-0.3-2.1-0.9s-0.8-1.4-0.8-2.3v-0.3c0-0.9,0.3-1.7,0.8-2.3s1.2-0.9,1.9-0.9
			c0.9,0,1.5,0.3,1.9,0.8s0.7,1.2,0.7,2.1v0.7H347l0,0c0,0.6,0.2,1.1,0.5,1.5s0.7,0.6,1.2,0.6c0.4,0,0.7-0.1,1-0.2s0.5-0.3,0.8-0.5
			l0.5,0.8c-0.2,0.2-0.5,0.4-0.9,0.6S349.2,144.7,348.7,144.7z M348.5,139c-0.4,0-0.7,0.2-1,0.5s-0.4,0.7-0.5,1.2l0,0h2.9v-0.2
			c0-0.5-0.1-0.8-0.4-1.1S349,139,348.5,139z"/>
	</g>
	<line class="st62" x1="307.3" y1="142.2" x2="249.9" y2="142.2"/>
	<g>
		<path class="st42" d="M313.3,235c1.1,0,2,0.3,2.7,1s1,1.6,1,2.7v1.2c0,1.1-0.3,2-1,2.7s-1.6,1-2.7,1h-3.6v-0.7l1-0.2v-6.7l-1-0.2
			V235h1H313.3z M311.9,235.9v6.7h1.5c0.8,0,1.4-0.3,1.9-0.8s0.7-1.2,0.7-2v-1.2c0-0.8-0.2-1.5-0.7-2s-1.1-0.8-1.9-0.8H311.9z"/>
		<path class="st42" d="M321.1,243.6c-0.9,0-1.6-0.3-2.1-0.9s-0.8-1.4-0.8-2.3v-0.3c0-0.9,0.3-1.7,0.8-2.3s1.2-0.9,1.9-0.9
			c0.9,0,1.5,0.3,1.9,0.8s0.7,1.2,0.7,2.1v0.7h-4.1l0,0c0,0.6,0.2,1.1,0.5,1.5s0.7,0.6,1.2,0.6c0.4,0,0.7-0.1,1-0.2s0.5-0.3,0.8-0.5
			l0.5,0.8c-0.2,0.2-0.5,0.4-0.9,0.6S321.6,243.6,321.1,243.6z M320.9,237.9c-0.4,0-0.7,0.2-1,0.5s-0.4,0.7-0.5,1.2l0,0h2.9v-0.2
			c0-0.5-0.1-0.8-0.4-1.1S321.4,237.9,320.9,237.9z"/>
		<path class="st42" d="M324.5,245.2l1-0.2v-7l-1-0.2v-0.7h1.9l0.1,0.8c0.2-0.3,0.5-0.5,0.8-0.7s0.7-0.2,1.1-0.2
			c0.8,0,1.4,0.3,1.8,0.9s0.7,1.4,0.7,2.5v0.1c0,0.9-0.2,1.7-0.7,2.2s-1,0.8-1.8,0.8c-0.4,0-0.7-0.1-1-0.2s-0.5-0.3-0.8-0.6v2.2
			l1,0.2v0.7h-3.1V245.2z M329.7,240.4c0-0.7-0.1-1.3-0.4-1.8s-0.7-0.7-1.3-0.7c-0.3,0-0.6,0.1-0.8,0.2s-0.4,0.4-0.6,0.6v3.1
			c0.1,0.3,0.3,0.5,0.6,0.6s0.5,0.2,0.9,0.2c0.5,0,1-0.2,1.2-0.6s0.4-0.9,0.4-1.6V240.4z"/>
		<path class="st42" d="M331.7,235.1v-0.7h2.1v8.2l1,0.2v0.7h-3.1v-0.7l1-0.2v-7.3L331.7,235.1z"/>
		<path class="st42" d="M335.5,240.3c0-0.9,0.3-1.7,0.8-2.3s1.2-0.9,2.1-0.9c0.9,0,1.6,0.3,2.1,0.9s0.8,1.4,0.8,2.3v0.1
			c0,0.9-0.3,1.7-0.8,2.3s-1.2,0.9-2.1,0.9c-0.9,0-1.6-0.3-2.1-0.9s-0.8-1.4-0.8-2.3V240.3z M336.6,240.4c0,0.7,0.1,1.2,0.4,1.7
			s0.7,0.7,1.3,0.7c0.5,0,1-0.2,1.2-0.7s0.4-1,0.4-1.7v-0.1c0-0.7-0.1-1.2-0.4-1.7s-0.7-0.7-1.3-0.7s-1,0.2-1.3,0.7s-0.4,1-0.4,1.7
			V240.4z"/>
		<path class="st42" d="M348.2,237.9l-0.6,0.1l-2.4,6.5c-0.2,0.4-0.4,0.8-0.7,1.1s-0.7,0.5-1.2,0.5c-0.1,0-0.2,0-0.4,0
			s-0.3,0-0.3-0.1l0.1-0.9c0,0,0,0,0.2,0s0.3,0,0.3,0c0.2,0,0.4-0.1,0.6-0.3s0.3-0.5,0.4-0.7l0.3-0.7l-2.1-5.4l-0.6-0.1v-0.7h2.6
			v0.7l-0.7,0.1l1.1,3.1l0.2,0.8h0l1.3-3.9l-0.7-0.1v-0.7h2.6V237.9z"/>
		<path class="st42" d="M348.7,242.8l1-0.2v-4.5l-1-0.2v-0.7h2l0.1,0.8c0.2-0.3,0.5-0.5,0.8-0.7s0.7-0.2,1.1-0.2s0.8,0.1,1.1,0.3
			s0.5,0.5,0.7,0.9c0.2-0.4,0.5-0.6,0.8-0.9s0.7-0.3,1.1-0.3c0.6,0,1.2,0.2,1.5,0.7s0.6,1.1,0.6,2v2.9l1,0.2v0.7h-3.1v-0.7l1-0.2
			v-2.9c0-0.6-0.1-1.1-0.3-1.3s-0.5-0.4-1-0.4c-0.4,0-0.7,0.1-1,0.4s-0.4,0.6-0.4,1.1v3.1l1,0.2v0.7h-3.1v-0.7l1-0.2v-2.9
			c0-0.6-0.1-1-0.3-1.3s-0.5-0.4-1-0.4c-0.4,0-0.6,0.1-0.9,0.2s-0.4,0.3-0.5,0.6v3.8l1,0.2v0.7h-3.1V242.8z"/>
		<path class="st42" d="M363.1,243.6c-0.9,0-1.6-0.3-2.1-0.9s-0.8-1.4-0.8-2.3v-0.3c0-0.9,0.3-1.7,0.8-2.3s1.2-0.9,1.9-0.9
			c0.9,0,1.5,0.3,1.9,0.8s0.7,1.2,0.7,2.1v0.7h-4.1l0,0c0,0.6,0.2,1.1,0.5,1.5s0.7,0.6,1.2,0.6c0.4,0,0.7-0.1,1-0.2s0.5-0.3,0.8-0.5
			l0.5,0.8c-0.2,0.2-0.5,0.4-0.9,0.6S363.6,243.6,363.1,243.6z M362.9,237.9c-0.4,0-0.7,0.2-1,0.5s-0.4,0.7-0.5,1.2l0,0h2.9v-0.2
			c0-0.5-0.1-0.8-0.4-1.1S363.4,237.9,362.9,237.9z"/>
		<path class="st42" d="M366.5,242.8l1-0.2v-4.5l-1-0.2v-0.7h2l0.1,0.9c0.2-0.3,0.5-0.6,0.8-0.8s0.7-0.3,1.1-0.3
			c0.7,0,1.2,0.2,1.6,0.6s0.6,1,0.6,1.9v3.1l1,0.2v0.7h-3.1v-0.7l1-0.2v-3.1c0-0.6-0.1-1-0.3-1.2s-0.6-0.4-1-0.4
			c-0.3,0-0.6,0.1-0.9,0.2s-0.5,0.4-0.6,0.7v3.7l1,0.2v0.7h-3.1V242.8z"/>
		<path class="st42" d="M376.4,235.6v1.5h1.2v0.9h-1.2v3.8c0,0.3,0.1,0.5,0.2,0.6s0.3,0.2,0.5,0.2c0.1,0,0.2,0,0.3,0s0.2,0,0.3-0.1
			l0.2,0.8c-0.1,0.1-0.3,0.1-0.5,0.2s-0.4,0.1-0.6,0.1c-0.5,0-0.8-0.1-1.1-0.4s-0.4-0.7-0.4-1.3V238h-1v-0.9h1v-1.5H376.4z"/>
	</g>
	<line class="st62" x1="307.3" y1="241.1" x2="145" y2="241.1"/>
</g>
<g id="Layer_14">
</g>
</svg>
