<svg xmlns="http://www.w3.org/2000/svg" xmlns:xlink="http://www.w3.org/1999/xlink" viewBox="0 0 350 200"><defs><style>.cls-1{opacity:0.13;}.cls-2{fill:url(#linear-gradient);}.cls-3,.cls-4{fill:#fff;}.cls-3,.cls-4,.cls-5,.cls-7{stroke:#326de6;}.cls-3,.cls-4,.cls-6,.cls-7{stroke-linecap:round;stroke-linejoin:round;}.cls-3,.cls-5,.cls-6,.cls-7{stroke-width:0.8px;}.cls-4{stroke-width:1.2px;}.cls-5,.cls-7{fill:none;}.cls-5{stroke-miterlimit:10;}.cls-6{fill:#06f7c9;stroke:#011f38;}.cls-8{fill:#326de6;}</style><linearGradient id="linear-gradient" x1="181.65" y1="100" x2="302.12" y2="100" gradientUnits="userSpaceOnUse"><stop offset="0" stop-color="#326de6"/><stop offset="1" stop-color="#06f7c9"/></linearGradient></defs><title>16.07.28_k8s_visual_diagrams</title><g id="Graphics"><g class="cls-1"><polygon class="cls-2" points="290.19 64.54 302.12 116.81 268.69 158.72 215.07 158.72 181.65 116.81 193.58 64.54 241.88 41.28 290.19 64.54"/></g><polygon class="cls-3" points="257.17 90.84 243.2 82.77 243.2 66.64 257.17 58.58 271.14 66.64 271.14 82.77 257.17 90.84"/><polygon class="cls-3" points="225.04 109.43 211.07 117.49 197.11 109.43 197.11 93.3 211.07 85.23 225.04 93.3 225.04 109.43"/><polygon class="cls-3" points="226.59 90.84 212.63 82.77 212.63 66.64 226.59 58.58 240.56 66.64 240.56 82.77 226.59 90.84"/><polygon class="cls-3" points="226.44 144.14 212.47 136.08 212.47 119.95 226.44 111.89 240.41 119.95 240.41 136.08 226.44 144.14"/><polygon class="cls-3" points="257.32 144.14 243.36 136.08 243.36 119.95 257.32 111.89 271.29 119.95 271.29 136.08 257.32 144.14"/><polygon class="cls-3" points="286.66 109.43 272.69 117.49 258.72 109.43 258.72 93.3 272.69 85.23 286.66 93.3 286.66 109.43"/><line class="cls-4" x1="241.82" y1="101.23" x2="241.82" y2="103.08"/><line class="cls-4" x1="242.75" y1="102.16" x2="240.9" y2="102.16"/><polygon class="cls-4" points="252.18 104.23 250.96 98.89 250.14 95.3 250.14 95.3 250.14 95.3 250.14 95.3 250.14 95.3 250.14 95.3 245.22 92.93 241.88 91.32 241.88 91.32 241.88 91.32 241.88 91.32 233.64 95.29 233.62 95.3 233.62 95.3 233.62 95.3 233.62 95.3 232.6 99.77 232.6 99.77 232.6 99.77 232.6 99.77 231.81 103.23 231.58 104.23 231.58 104.23 231.58 104.23 231.58 104.23 234 107.26 234.43 107.81 234.43 107.81 237.3 111.4 237.3 111.4 237.3 111.4 237.3 111.4 237.3 111.4 241.88 111.4 241.88 111.4 246.47 111.4 246.47 111.4 246.47 111.4 246.47 111.4 246.47 111.4 246.47 111.4 248.63 108.69 249.32 107.82 249.32 107.82 252.18 104.23 252.18 104.23 252.18 104.23 252.18 104.23"/><circle class="cls-5" cx="68.81" cy="100.33" r="20.93"/><polygon class="cls-6" points="59.12 94.72 68.81 89.13 78.51 94.72 68.81 100.33 59.12 94.72"/><polygon class="cls-6" points="59.12 105.92 59.12 94.72 68.81 100.33 68.81 111.52 59.12 105.92"/><polygon class="cls-6" points="68.81 111.52 68.81 100.33 78.51 94.72 78.51 105.92 68.81 111.52"/><line class="cls-7" x1="106.55" y1="100.33" x2="163.02" y2="100.33"/><polygon class="cls-8" points="160.37 103.6 159.82 103.01 162.71 100.33 159.82 97.64 160.37 97.05 163.88 100.33 160.37 103.6"/></g></svg>