<svg xmlns="http://www.w3.org/2000/svg" xmlns:xlink="http://www.w3.org/1999/xlink" viewBox="0 0 350 200"><defs><style>.cls-1{fill:#fff}.cls-2{fill:#326de6}.cls-3,.cls-6{opacity:.1}.cls-3{fill:url(#linear-gradient)}.cls-4,.cls-5{fill:none;stroke-miterlimit:10}.cls-4{stroke:#326de6;stroke-width:1.2px}.cls-5{stroke:#06f7c9;stroke-width:2.48px;stroke-dasharray:2.42 1.62}.cls-6{fill:url(#linear-gradient-2)}</style><linearGradient id="linear-gradient" x1="211.39" y1="99.89" x2="265.46" y2="99.89" gradientUnits="userSpaceOnUse"><stop offset="0" stop-color="#326de6"/><stop offset="1" stop-color="#10ffc6"/></linearGradient><linearGradient id="linear-gradient-2" x1="84.54" y1="100.11" x2="138.61" y2="100.11" xlink:href="#linear-gradient"/></defs><title>16.07.28_k8s_visual_diagrams</title><g id="nav_bar_closed"><path class="cls-1" d="M238.42 166.97l-58.09-33.54V66.34l58.09-33.54 58.1 33.54v67.09l-58.1 33.54z"/><path class="cls-2" d="M238.42 167.88a.91.91 0 0 1-.46-.12l-58.1-33.54a.91.91 0 0 1-.46-.79V66.34a.91.91 0 0 1 .46-.79L238 32a.91.91 0 0 1 .91 0L297 65.55a.91.91 0 0 1 .46.79v67.08a.91.91 0 0 1-.46.79l-58.1 33.54a.91.91 0 0 1-.48.13zm-57.18-35l57.18 33 57.18-33v-66l-57.18-33-57.18 33z"/><circle class="cls-3" cx="238.42" cy="99.89" r="27.03"/><circle class="cls-4" cx="238.42" cy="99.89" r="27.1"/><path class="cls-1" d="M111.58 167.2l-58.1-33.54V66.57l58.1-33.54 58.09 33.54v67.09l-58.09 33.54z"/><path class="cls-2" d="M111.58 168.11a.91.91 0 0 1-.46-.12L53 134.45a.91.91 0 0 1-.46-.79V66.57a.91.91 0 0 1 .46-.79l58.1-33.54a.91.91 0 0 1 .91 0l58.1 33.54a.91.91 0 0 1 .46.79v67.08a.91.91 0 0 1-.46.79L112 168a.91.91 0 0 1-.42.11zm-57.18-35l57.18 33 57.18-33v-66l-57.18-33L54.4 67.1z"/><rect class="cls-5" x="71.33" y="61.02" width="205.79" height="78.99" rx="39.5" ry="39.5"/><circle class="cls-6" cx="111.58" cy="100.11" r="27.03"/><circle class="cls-4" cx="111.58" cy="100.11" r="27.1"/></g></svg>