<?xml version="1.0" encoding="utf-8"?>
<!-- Generator: Adobe Illustrator 19.2.1, SVG Export Plug-In . SVG Version: 6.00 Build 0)  -->
<svg version="1.1" xmlns="http://www.w3.org/2000/svg" xmlns:xlink="http://www.w3.org/1999/xlink" x="0px" y="0px"
	 viewBox="0 0 476.1 385.3" style="enable-background:new 0 0 476.1 385.3;" xml:space="preserve">
<style type="text/css">
	.st0{fill:#FFFFFF;stroke:#006DE9;stroke-linecap:round;stroke-linejoin:round;stroke-miterlimit:10;}
	.st1{fill:#FFFFFF;stroke:#006DE9;stroke-width:6;stroke-linecap:round;stroke-linejoin:round;stroke-miterlimit:10;}
	.st2{fill:#FFFFFF;stroke:#326DE6;stroke-width:2;stroke-linecap:round;stroke-linejoin:round;stroke-miterlimit:10;}
	.st3{opacity:0.71;fill:#326CE6;}
	.st4{opacity:0.45;fill:#FFFFFF;}
	.st5{fill:#FFFFFF;stroke:#006DE9;stroke-width:2;stroke-linecap:round;stroke-linejoin:round;stroke-miterlimit:10;}
	.st6{fill:#006DE9;}
	.st7{fill:#A0CAEA;}
	.st8{fill:#FFFFFF;}
	.st9{opacity:0.13;}
	.st10{fill:url(#SVGID_1_);}
	.st11{fill:url(#SVGID_2_);}
	.st12{fill:#FFFFFF;stroke:#326DE6;stroke-width:3.2;stroke-linecap:round;stroke-linejoin:round;stroke-miterlimit:10;}
	.st13{fill:#326DE6;}
	.st14{fill:none;stroke:#326DE6;stroke-width:2.4;stroke-miterlimit:10;}
	.st15{fill:#A0CAE9;}
	.st16{fill:#FFFFFF;stroke:#326DE6;stroke-width:1.6;stroke-linecap:round;stroke-linejoin:round;stroke-miterlimit:10;}
	.st17{fill:#FFFFFF;stroke:#326DE6;stroke-width:1.6;stroke-miterlimit:10;}
	.st18{fill:none;stroke:#06F7C9;stroke-width:2;stroke-miterlimit:10;}
	.st19{fill:none;stroke:#06F7C9;stroke-width:2;stroke-miterlimit:10;stroke-dasharray:2.3749,1.5832;}
	.st20{fill:none;stroke:#06F7C9;stroke-width:2;stroke-miterlimit:10;stroke-dasharray:2.4006,1.6004;}
	.st21{fill:none;stroke:#EEF406;stroke-width:2;stroke-miterlimit:10;stroke-dasharray:2.4,1.6;}
	.st22{fill:none;stroke:#EEF406;stroke-width:2;stroke-miterlimit:10;}
	.st23{fill:none;stroke:#EEF406;stroke-width:2;stroke-miterlimit:10;stroke-dasharray:2.3975,1.5984;}
	.st24{fill:none;stroke:#EEF406;stroke-width:2;stroke-miterlimit:10;stroke-dasharray:2.395,1.5966;}
	.st25{fill:none;stroke:#EEF406;stroke-width:2;stroke-miterlimit:10;stroke-dasharray:2.3963,1.5976;}
	.st26{opacity:0.1;fill:#EEF406;}
	.st27{opacity:2.000000e-02;fill:#EEF406;}
	.st28{opacity:0.1;fill:#06F7C9;}
	.st29{fill:none;stroke:#006DE9;stroke-width:0.8;stroke-miterlimit:10;}
	.st30{opacity:0.1;fill:url(#SVGID_3_);}
	.st31{opacity:0.1;fill:url(#SVGID_4_);}
	.st32{opacity:0.1;fill:url(#SVGID_5_);}
	.st33{opacity:0.1;fill:url(#SVGID_6_);}
	.st34{fill:none;stroke:#326DE6;stroke-width:1.2;stroke-miterlimit:10;}
	.st35{opacity:0.1;fill:url(#SVGID_7_);}
	.st36{opacity:0.1;fill:url(#SVGID_8_);}
	.st37{opacity:0.1;fill:url(#SVGID_9_);}
	.st38{opacity:0.1;fill:url(#SVGID_10_);}
	.st39{fill:none;stroke:#326DE6;stroke-width:2;stroke-miterlimit:10;}
	.st40{opacity:0.4;fill:none;stroke:#EEF406;stroke-width:2;stroke-miterlimit:10;}
	.st41{fill:none;stroke:#EEF406;stroke-width:2.4596;stroke-miterlimit:10;}
	.st42{fill:#011F38;}
	.st43{opacity:0.4;}
	.st44{opacity:0.1;}
	.st45{fill:#326DE6;stroke:#EEF406;stroke-width:2;stroke-miterlimit:10;}
	.st46{fill:none;stroke:#FFFFFF;stroke-width:1.2;stroke-linecap:round;stroke-linejoin:round;}
	.st47{fill:#06F7C9;stroke:#FFFFFF;stroke-width:0.3;stroke-linecap:round;stroke-linejoin:round;stroke-miterlimit:10;}
	.st48{fill:none;stroke:#011F38;stroke-width:1.2;stroke-linecap:round;stroke-linejoin:round;}
	.st49{fill:#326DE6;stroke:#06F7C9;stroke-width:2;stroke-miterlimit:10;}
	.st50{fill:#06F7C9;stroke:#011F38;stroke-width:0.8;stroke-linecap:round;stroke-linejoin:round;stroke-miterlimit:10;}
	.st51{fill:#8115FF;stroke:#011F38;stroke-width:0.8;stroke-linecap:round;stroke-linejoin:round;stroke-miterlimit:10;}
	.st52{opacity:0.3;}
	.st53{opacity:0.2;fill:#6D6E71;}
	.st54{fill:#EEF406;}
	.st55{fill:#06F7C9;}
	.st56{fill:#FFFFFF;stroke:#06F7C9;stroke-width:2;stroke-miterlimit:10;stroke-dasharray:2.4,1.6;}
	.st57{fill:#FFFFFF;stroke:#EEF406;stroke-width:1.6;stroke-miterlimit:10;stroke-dasharray:2.4,1.6;}
	.st58{fill:none;stroke:#06F7C9;stroke-width:2;stroke-miterlimit:10;stroke-dasharray:2.4938,1.6626;}
	.st59{fill:none;stroke:#06F7C9;stroke-width:2;stroke-miterlimit:10;stroke-dasharray:2.0084,1.3389;}
	.st60{fill:none;stroke:#06F7C9;stroke-width:2;stroke-miterlimit:10;stroke-dasharray:2.724,1.816;}
	.st61{fill:#011F38;stroke:#414042;stroke-width:0.3;stroke-linecap:round;stroke-linejoin:round;stroke-miterlimit:10;}
	.st62{fill:none;stroke:#011F38;stroke-width:0.3;stroke-linecap:round;stroke-linejoin:round;stroke-miterlimit:10;}
	.st63{fill:none;stroke:#011F38;stroke-width:0.2813;stroke-linecap:round;stroke-linejoin:round;stroke-miterlimit:10;}
</style>
<symbol  id="master_x5F_level1_1_" viewBox="-68.6 -66.9 137.2 133.9">
	<g>
		<g>
			<line class="st0" x1="0" y1="-11.1" x2="0" y2="0.7"/>
			<line class="st0" x1="5.9" y1="-5.2" x2="-5.9" y2="-5.2"/>
		</g>
		<polygon class="st1" points="-29.2,-63.9 -65.6,-18.3 -52.6,38.6 0,63.9 52.6,38.6 65.6,-18.3 29.2,-63.9 		"/>
	</g>
</symbol>
<symbol  id="node_high_level" viewBox="-81 -93 162 186.1">
	<polygon class="st2" points="-80,-46 -80,46 0,92 80,46 80,-46 0,-92 	"/>
	<g id="Isolation_Mode_3_">
	</g>
</symbol>
<symbol  id="node_x5F_empty" viewBox="-87.5 -100.6 175.1 201.1">
	
		<use xlink:href="#node_high_level"  width="162" height="186.1" id="XMLID_201_" x="-81" y="-93" transform="matrix(1.0808 0 0 1.0808 -3.292006e-05 -3.749943e-05)" style="overflow:visible;"/>
	<g>
		<polygon class="st3" points="76.8,-28.1 -14,-80.3 0,-88.3 76.7,-44.4 		"/>
		<polygon class="st4" points="76.8,-28.1 32.1,-53.8 38.8,-66.1 76.7,-44.4 		"/>
	</g>
</symbol>
<symbol  id="node_x5F_new" viewBox="-87.6 -101 175.2 202">
	<polygon class="st5" points="0,-100 -86.6,-50 -86.6,50 0,100 86.6,50 86.6,-50 	"/>
	<polygon class="st6" points="-86.6,-20.2 -86.6,-50 0,-100 25.8,-85.1 	"/>
	<polygon class="st7" points="-40.8,-70.7 -32.9,-57 15.7,-85.1 0,-94.3 	"/>
	
		<text transform="matrix(0.866 -0.5 -0.5 -0.866 -33.9256 -70.7388)" class="st8" style="font-family:'RobotoSlab-Regular'; font-size:11.3632px;">Docker</text>
	
		<text transform="matrix(0.866 -0.5 -0.5 -0.866 -76.0668 -46.4087)" class="st8" style="font-family:'RobotoSlab-Regular'; font-size:11.3632px;">Kubelt</text>
</symbol>
<g id="CLUSTER">
	<g id="XMLID_8_" class="st9">
		<g>
			<linearGradient id="SVGID_1_" gradientUnits="userSpaceOnUse" x1="27.9955" y1="185.5114" x2="342.4509" y2="185.5114">
				<stop  offset="0" style="stop-color:#326DE6"/>
				<stop  offset="1" style="stop-color:#10FFC6"/>
			</linearGradient>
			<polygon class="st10" points="311.3,92.9 342.5,229.4 255.2,338.8 115.3,338.8 28,229.4 59.1,92.9 185.2,32.2 			"/>
		</g>
	</g>
</g>
<g id="master">
	<g id="master_x5F_level1">
	</g>
	
		<use xlink:href="#master_x5F_level1_1_"  width="137.2" height="133.9" x="-68.6" y="-66.9" transform="matrix(0.4 0 0 -0.4 185.2213 187.4709)" style="overflow:visible;"/>
</g>
<g id="Node">
	<g id="Node_x5F_level3_x5F_1">
		<g id="Isolation_Mode">
		</g>
	</g>
	<polygon class="st16" points="224.6,160.7 189,140.1 189,98.9 224.6,78.4 260.3,98.9 260.3,140.1 	"/>
	<polygon class="st13" points="189,127.8 189,140.1 224.6,160.7 235.2,154.5 	"/>
	<polygon class="st7" points="207.8,148.6 211.1,143 231.1,154.5 224.6,158.3 	"/>
	<g>
		<path class="st8" d="M213.7,146.5c0.4,0.2,0.6,0.5,0.7,0.9c0.1,0.4,0,0.7-0.2,1.1l-0.2,0.4c-0.2,0.4-0.5,0.6-0.9,0.7
			c-0.4,0.1-0.7,0-1.1-0.2l-1.2-0.7l0.1-0.2l0.4,0.1l1.3-2.3l-0.3-0.2l0.1-0.3l0.3,0.2L213.7,146.5z M213.1,146.5l-1.3,2.3l0.5,0.3
			c0.3,0.2,0.5,0.2,0.8,0.1c0.3-0.1,0.5-0.3,0.6-0.5l0.2-0.4c0.2-0.3,0.2-0.5,0.2-0.8c-0.1-0.3-0.2-0.5-0.5-0.6L213.1,146.5z"/>
		<path class="st8" d="M214.3,149.2c0.2-0.3,0.4-0.5,0.7-0.6c0.3-0.1,0.6-0.1,0.9,0.1c0.3,0.2,0.5,0.4,0.5,0.7
			c0.1,0.3,0,0.6-0.2,0.9l0,0c-0.2,0.3-0.4,0.5-0.7,0.6c-0.3,0.1-0.6,0.1-0.9-0.1c-0.3-0.2-0.5-0.4-0.5-0.7
			C214.1,149.9,214.1,149.6,214.3,149.2L214.3,149.2z M214.7,149.5c-0.1,0.2-0.2,0.4-0.2,0.6c0,0.2,0.1,0.4,0.3,0.5
			c0.2,0.1,0.4,0.1,0.5,0c0.2-0.1,0.3-0.3,0.5-0.5l0,0c0.1-0.2,0.2-0.4,0.2-0.6c0-0.2-0.1-0.4-0.3-0.5c-0.2-0.1-0.4-0.1-0.6,0
			S214.9,149.2,214.7,149.5L214.7,149.5z"/>
		<path class="st8" d="M217.1,151.9c0.1,0.1,0.3,0.1,0.4,0.1c0.1,0,0.2-0.1,0.3-0.2l0.4,0.2l0,0c-0.1,0.2-0.3,0.3-0.5,0.3
			c-0.3,0-0.5,0-0.7-0.1c-0.3-0.2-0.5-0.4-0.5-0.7c0-0.3,0-0.6,0.2-0.9l0-0.1c0.2-0.3,0.4-0.5,0.7-0.6c0.3-0.1,0.6-0.1,0.9,0.1
			c0.2,0.1,0.3,0.2,0.4,0.4c0.1,0.1,0.2,0.3,0.2,0.4l-0.3,0.5l-0.3-0.2l0.1-0.4c0-0.1-0.1-0.1-0.1-0.2c-0.1-0.1-0.1-0.1-0.2-0.2
			c-0.2-0.1-0.4-0.1-0.6,0c-0.2,0.1-0.3,0.3-0.4,0.5l0,0.1c-0.1,0.2-0.2,0.4-0.2,0.6C216.8,151.7,216.9,151.8,217.1,151.9z"/>
		<path class="st8" d="M219.7,150l0.1-0.3l0.7,0.4l-1,1.8l0.2,0.1l0.8-0.3l-0.2-0.1l0.1-0.3l0.9,0.5l-0.1,0.3l-0.3-0.1l-1,0.3
			l0.2,1.3l0.2,0.2l-0.1,0.2l-0.9-0.5l0.1-0.2l0.2,0.1l-0.2-1l-0.3-0.1L219,153l0.3,0.2l-0.1,0.2l-1-0.6l0.1-0.2l0.4,0.1l1.4-2.5
			L219.7,150z"/>
		<path class="st8" d="M221.5,154.9c-0.3-0.2-0.5-0.4-0.5-0.7s0-0.6,0.2-0.9l0-0.1c0.2-0.3,0.4-0.5,0.7-0.6c0.3-0.1,0.6-0.1,0.8,0.1
			c0.3,0.2,0.5,0.4,0.5,0.6c0,0.3,0,0.5-0.2,0.8l-0.1,0.2l-1.4-0.8l0,0c-0.1,0.2-0.2,0.4-0.1,0.6c0,0.2,0.1,0.3,0.3,0.4
			c0.1,0.1,0.3,0.1,0.4,0.1c0.1,0,0.2,0,0.3,0l0,0.3c-0.1,0-0.3,0-0.4,0C221.9,155.1,221.7,155,221.5,154.9z M222.6,153
			c-0.1-0.1-0.3-0.1-0.4,0c-0.2,0.1-0.3,0.2-0.4,0.3l0,0l1,0.6l0-0.1c0.1-0.2,0.1-0.3,0.1-0.5C222.8,153.2,222.7,153.1,222.6,153z"
			/>
		<path class="st8" d="M223.9,153.7l0.1-0.3l0.7,0.4l-0.1,0.3c0.1-0.1,0.2-0.1,0.4-0.1c0.1,0,0.2,0,0.4,0.1c0,0,0.1,0,0.1,0.1
			c0,0,0.1,0,0.1,0.1l-0.3,0.3l-0.2-0.1c-0.1-0.1-0.2-0.1-0.3-0.1c-0.1,0-0.2,0-0.3,0.1l-0.7,1.2l0.3,0.2l-0.1,0.2l-1-0.6l0.1-0.2
			l0.4,0.1l0.9-1.5L223.9,153.7z"/>
	</g>
	<g>
		<path class="st8" d="M194.3,135.3l0.1-0.3l0.7,0.4l-1,1.8l0.2,0.1l0.8-0.3l-0.2-0.1l0.1-0.3l0.9,0.5l-0.1,0.3l-0.3-0.1l-1,0.3
			l0.2,1.3l0.2,0.2l-0.1,0.2l-0.9-0.5l0.1-0.2l0.2,0.1l-0.2-1l-0.3-0.1l-0.4,0.7l0.3,0.2l-0.1,0.2l-1-0.6l0.1-0.2l0.4,0.1l1.4-2.5
			L194.3,135.3z"/>
		<path class="st8" d="M196.8,140.2c-0.1,0.1-0.3,0.1-0.4,0.1c-0.1,0-0.3,0-0.4-0.1c-0.2-0.1-0.4-0.3-0.4-0.5c0-0.2,0-0.5,0.2-0.8
			l0.6-1l-0.2-0.2l0.1-0.3l0.2,0.1l0.4,0.2l-0.7,1.3c-0.1,0.2-0.2,0.4-0.2,0.5c0,0.1,0.1,0.2,0.2,0.3c0.1,0.1,0.3,0.1,0.4,0.1
			s0.2,0,0.3-0.1l0.7-1.2l-0.3-0.2l0.1-0.3l0.3,0.2l0.4,0.2l-1.1,1.8l0.2,0.2l-0.1,0.2l-0.6-0.3L196.8,140.2z"/>
		<path class="st8" d="M200.1,141.2c-0.2,0.3-0.4,0.5-0.7,0.6c-0.3,0.1-0.5,0.1-0.8-0.1c-0.1-0.1-0.2-0.2-0.3-0.3
			c-0.1-0.1-0.1-0.2-0.1-0.4l-0.2,0.3l-0.3-0.2l1.6-2.8l-0.3-0.2l0.1-0.3l0.7,0.4l-0.7,1.2c0.1-0.1,0.2-0.1,0.4-0.1
			c0.1,0,0.3,0,0.4,0.1c0.3,0.2,0.4,0.4,0.4,0.7C200.4,140.5,200.3,140.8,200.1,141.2L200.1,141.2z M199.7,140.9
			c0.1-0.2,0.2-0.5,0.2-0.7c0-0.2-0.1-0.4-0.3-0.5c-0.1-0.1-0.2-0.1-0.4-0.1c-0.1,0-0.2,0.1-0.3,0.1l-0.5,0.9c0,0.1,0,0.2,0.1,0.3
			c0.1,0.1,0.1,0.2,0.3,0.3c0.2,0.1,0.4,0.1,0.5,0C199.5,141.3,199.6,141.2,199.7,140.9L199.7,140.9z"/>
		<path class="st8" d="M200.9,143c-0.3-0.2-0.5-0.4-0.5-0.7s0-0.6,0.2-0.9l0-0.1c0.2-0.3,0.4-0.5,0.7-0.6c0.3-0.1,0.6-0.1,0.8,0.1
			c0.3,0.2,0.5,0.4,0.5,0.6c0,0.3,0,0.5-0.2,0.8l-0.1,0.2l-1.4-0.8l0,0c-0.1,0.2-0.2,0.4-0.1,0.6c0,0.2,0.1,0.3,0.3,0.4
			c0.1,0.1,0.3,0.1,0.4,0.1c0.1,0,0.2,0,0.3,0l0,0.3c-0.1,0-0.3,0-0.4,0C201.2,143.2,201.1,143.1,200.9,143z M201.9,141
			c-0.1-0.1-0.3-0.1-0.4,0c-0.2,0.1-0.3,0.2-0.4,0.3l0,0l1,0.6l0-0.1c0.1-0.2,0.1-0.3,0.1-0.5C202.2,141.3,202.1,141.1,201.9,141z"
			/>
		<path class="st8" d="M203.7,140.8l0.1-0.3l0.7,0.4l-1.6,2.8l0.3,0.2l-0.1,0.2l-1-0.6l0.1-0.2l0.4,0.1l1.4-2.5L203.7,140.8z"/>
		<path class="st8" d="M204.3,145c-0.3-0.2-0.5-0.4-0.5-0.7c-0.1-0.3,0-0.6,0.2-0.9l0-0.1c0.2-0.3,0.4-0.5,0.7-0.6
			c0.3-0.1,0.6-0.1,0.8,0.1c0.3,0.2,0.5,0.4,0.5,0.6c0,0.3,0,0.5-0.2,0.8l-0.1,0.2l-1.4-0.8l0,0c-0.1,0.2-0.2,0.4-0.1,0.6
			c0,0.2,0.1,0.3,0.3,0.4c0.1,0.1,0.3,0.1,0.4,0.1s0.2,0,0.3,0l0,0.3c-0.1,0-0.3,0-0.4,0C204.7,145.1,204.5,145.1,204.3,145z
			 M205.4,143c-0.1-0.1-0.3-0.1-0.4,0c-0.2,0.1-0.3,0.2-0.4,0.3l0,0l1,0.6l0-0.1c0.1-0.2,0.1-0.3,0.1-0.5
			C205.6,143.2,205.5,143.1,205.4,143z"/>
		<path class="st8" d="M207.8,143.4l-0.3,0.5l0.4,0.2l-0.2,0.3l-0.4-0.2l-0.8,1.3c-0.1,0.1-0.1,0.2-0.1,0.2c0,0.1,0.1,0.1,0.1,0.2
			c0,0,0.1,0,0.1,0.1c0,0,0.1,0,0.1,0l-0.1,0.3c-0.1,0-0.1,0-0.2,0c-0.1,0-0.2-0.1-0.2-0.1c-0.2-0.1-0.3-0.2-0.3-0.4s0-0.3,0.1-0.5
			l0.8-1.3l-0.3-0.2l0.2-0.3l0.3,0.2l0.3-0.5L207.8,143.4z"/>
	</g>
	<polygon class="st16" points="182.3,140.1 146.6,160.7 111,140.1 111,99 146.6,78.4 182.3,99 	"/>
	<polygon class="st13" points="136,154.5 146.6,160.7 182.3,140.1 182.2,127.9 	"/>
	<polygon class="st7" points="163.4,148.6 160.2,143 180.2,131.4 180.2,138.9 	"/>
	<g>
		<path class="st8" d="M164.6,142.5c0.4-0.2,0.7-0.3,1.1-0.2c0.4,0.1,0.6,0.3,0.9,0.7l0.2,0.4c0.2,0.4,0.3,0.7,0.2,1.1
			c-0.1,0.4-0.3,0.7-0.7,0.9l-1.2,0.7l-0.1-0.2l0.3-0.2l-1.3-2.3l-0.4,0.1l-0.1-0.3l0.3-0.2L164.6,142.5z M164.3,143.1l1.3,2.3
			l0.5-0.3c0.3-0.2,0.4-0.4,0.5-0.6c0.1-0.3,0-0.5-0.2-0.8l-0.2-0.4c-0.2-0.3-0.4-0.5-0.6-0.5c-0.3-0.1-0.5-0.1-0.8,0.1L164.3,143.1
			z"/>
		<path class="st8" d="M167.3,143.4c-0.2-0.3-0.2-0.6-0.2-0.9c0.1-0.3,0.2-0.5,0.5-0.7c0.3-0.2,0.6-0.2,0.9-0.1
			c0.3,0.1,0.5,0.3,0.7,0.6l0,0c0.2,0.3,0.2,0.6,0.2,0.9c-0.1,0.3-0.2,0.5-0.5,0.7c-0.3,0.2-0.6,0.2-0.9,0.1
			C167.7,144,167.5,143.7,167.3,143.4L167.3,143.4z M167.7,143.2c0.1,0.2,0.3,0.4,0.5,0.5s0.4,0.1,0.6,0c0.2-0.1,0.3-0.3,0.3-0.5
			c0-0.2,0-0.4-0.2-0.6l0,0c-0.1-0.2-0.3-0.4-0.5-0.5c-0.2-0.1-0.4-0.1-0.6,0c-0.2,0.1-0.3,0.3-0.3,0.5S167.5,142.9,167.7,143.2
			L167.7,143.2z"/>
		<path class="st8" d="M171,142.3c0.1-0.1,0.2-0.2,0.3-0.3c0.1-0.1,0-0.3,0-0.4l0.3-0.2l0,0c0.1,0.2,0.1,0.4,0,0.6
			c-0.1,0.2-0.2,0.4-0.5,0.6c-0.3,0.2-0.6,0.2-0.9,0.1c-0.3-0.1-0.5-0.3-0.7-0.6l0-0.1c-0.2-0.3-0.2-0.6-0.2-0.9
			c0-0.3,0.2-0.5,0.5-0.7c0.2-0.1,0.3-0.2,0.5-0.2s0.3,0,0.5,0l0.3,0.5l-0.3,0.2l-0.3-0.3c-0.1,0-0.2,0-0.2,0c-0.1,0-0.2,0-0.3,0.1
			c-0.2,0.1-0.3,0.3-0.3,0.5c0,0.2,0.1,0.4,0.2,0.6l0,0.1c0.1,0.2,0.3,0.4,0.4,0.5C170.6,142.5,170.8,142.5,171,142.3z"/>
		<path class="st8" d="M170.6,139.1l-0.1-0.3l0.7-0.4l1,1.8l0.2-0.1l0.1-0.8l-0.2,0.1l-0.1-0.3l0.9-0.5l0.1,0.3l-0.2,0.2l-0.2,1
			l1.2,0.5l0.3-0.1l0.1,0.2l-0.9,0.5l-0.1-0.2l0.2-0.1l-1-0.4l-0.3,0.1l0.4,0.7l0.4-0.1l0.1,0.2l-1,0.6l-0.1-0.2l0.3-0.2L171,139
			L170.6,139.1z"/>
		<path class="st8" d="M175.8,140c-0.3,0.2-0.6,0.2-0.9,0.1c-0.3-0.1-0.5-0.3-0.7-0.6l-0.1-0.1c-0.2-0.3-0.2-0.6-0.2-0.9
			c0.1-0.3,0.2-0.5,0.5-0.7c0.3-0.2,0.6-0.2,0.8-0.1c0.2,0.1,0.5,0.3,0.6,0.6l0.1,0.2l-1.4,0.8v0c0.1,0.2,0.3,0.3,0.4,0.4
			c0.2,0.1,0.4,0.1,0.5,0c0.1-0.1,0.2-0.2,0.3-0.3c0.1-0.1,0.1-0.2,0.2-0.3l0.3,0.2c0,0.1-0.1,0.2-0.2,0.4
			C176.1,139.8,175.9,139.9,175.8,140z M174.6,138.1c-0.1,0.1-0.2,0.2-0.2,0.4c0,0.2,0,0.3,0.1,0.5l0,0l1-0.6l0-0.1
			c-0.1-0.2-0.2-0.3-0.3-0.3C174.9,138,174.8,138,174.6,138.1z"/>
		<path class="st8" d="M175.8,137.4l-0.1-0.3l0.7-0.4l0.2,0.3c0-0.1,0-0.3,0.1-0.4c0.1-0.1,0.1-0.2,0.3-0.3c0,0,0.1,0,0.1,0
			c0,0,0.1,0,0.1,0l0.2,0.4l-0.2,0.1c-0.1,0.1-0.2,0.1-0.2,0.2s-0.1,0.2,0,0.3l0.7,1.2l0.4-0.1l0.1,0.2l-1,0.6l-0.1-0.2l0.3-0.2
			l-0.9-1.5L175.8,137.4z"/>
	</g>
	<g>
		<path class="st8" d="M145.1,153.8l-0.1-0.3l0.7-0.4l1,1.8l0.2-0.1l0.1-0.8l-0.2,0.1l-0.1-0.3l0.9-0.5l0.1,0.3l-0.2,0.2l-0.2,1
			l1.2,0.5l0.3-0.1l0.1,0.2l-0.9,0.5l-0.1-0.2l0.2-0.1l-1-0.4l-0.3,0.1l0.4,0.7l0.4-0.1l0.1,0.2l-1,0.6l-0.1-0.2l0.3-0.2l-1.4-2.5
			L145.1,153.8z"/>
		<path class="st8" d="M150.6,154c0,0.2,0,0.3-0.1,0.4c-0.1,0.1-0.2,0.2-0.3,0.3c-0.2,0.1-0.5,0.2-0.7,0.1c-0.2-0.1-0.4-0.3-0.6-0.6
			l-0.6-1l-0.3,0.1l-0.1-0.3l0.2-0.1l0.4-0.2l0.7,1.3c0.1,0.2,0.3,0.4,0.4,0.4c0.1,0,0.2,0,0.4-0.1c0.1-0.1,0.2-0.2,0.3-0.3
			c0.1-0.1,0.1-0.2,0.1-0.4l-0.7-1.2l-0.3,0.1l-0.1-0.3l0.3-0.2l0.4-0.2l1.1,1.8l0.3-0.1l0.1,0.2l-0.6,0.3L150.6,154z"/>
		<path class="st8" d="M153.1,151.7c0.2,0.3,0.2,0.6,0.2,0.9c0,0.3-0.2,0.5-0.4,0.6c-0.1,0.1-0.3,0.1-0.4,0.1c-0.1,0-0.3,0-0.4-0.1
			l0.1,0.3l-0.3,0.2l-1.6-2.8l-0.4,0.1l-0.1-0.3l0.7-0.4l0.7,1.2c0-0.1,0.1-0.3,0.1-0.4c0.1-0.1,0.2-0.2,0.3-0.3
			c0.3-0.2,0.5-0.2,0.8,0C152.7,151,152.9,151.3,153.1,151.7L153.1,151.7z M152.7,151.8c-0.1-0.2-0.3-0.4-0.5-0.5s-0.4-0.1-0.5,0
			c-0.1,0.1-0.2,0.2-0.3,0.3c0,0.1-0.1,0.2-0.1,0.3l0.5,0.9c0.1,0.1,0.2,0.1,0.3,0.1c0.1,0,0.2,0,0.4-0.1c0.2-0.1,0.3-0.2,0.3-0.4
			C152.9,152.3,152.9,152.1,152.7,151.8L152.7,151.8z"/>
		<path class="st8" d="M155.1,151.9c-0.3,0.2-0.6,0.2-0.9,0.1s-0.5-0.3-0.7-0.6l-0.1-0.1c-0.2-0.3-0.2-0.6-0.2-0.9
			c0.1-0.3,0.2-0.5,0.5-0.7c0.3-0.2,0.6-0.2,0.8-0.1c0.2,0.1,0.5,0.3,0.6,0.6l0.1,0.2l-1.4,0.8v0c0.1,0.2,0.3,0.3,0.4,0.4
			c0.2,0.1,0.4,0.1,0.5,0c0.1-0.1,0.2-0.2,0.3-0.3c0.1-0.1,0.1-0.2,0.2-0.3l0.3,0.2c0,0.1-0.1,0.2-0.2,0.4
			C155.4,151.7,155.3,151.8,155.1,151.9z M153.9,150c-0.1,0.1-0.2,0.2-0.2,0.4c0,0.2,0,0.3,0.1,0.5l0,0l1-0.6l0-0.1
			c-0.1-0.2-0.2-0.3-0.3-0.3C154.2,149.9,154.1,149.9,153.9,150z"/>
		<path class="st8" d="M154.6,148.4l-0.1-0.3l0.7-0.4l1.6,2.8l0.4-0.1l0.1,0.2l-1,0.6l-0.1-0.2l0.3-0.2l-1.4-2.5L154.6,148.4z"/>
		<path class="st8" d="M158.6,149.9c-0.3,0.2-0.6,0.2-0.9,0.1c-0.3-0.1-0.5-0.3-0.7-0.6l-0.1-0.1c-0.2-0.3-0.2-0.6-0.2-0.9
			c0.1-0.3,0.2-0.5,0.5-0.7c0.3-0.2,0.6-0.2,0.8-0.1c0.2,0.1,0.5,0.3,0.6,0.6l0.1,0.2l-1.4,0.8v0c0.1,0.2,0.3,0.3,0.4,0.4
			c0.2,0.1,0.4,0.1,0.5,0c0.1-0.1,0.2-0.2,0.3-0.3c0.1-0.1,0.1-0.2,0.2-0.3l0.3,0.2c0,0.1-0.1,0.2-0.2,0.4
			C158.9,149.7,158.7,149.8,158.6,149.9z M157.4,148c-0.1,0.1-0.2,0.2-0.2,0.4c0,0.2,0,0.3,0.1,0.5l0,0l1-0.6l0-0.1
			c-0.1-0.2-0.2-0.3-0.3-0.3C157.7,147.9,157.5,147.9,157.4,148z"/>
		<path class="st8" d="M158.9,146.1l0.3,0.5l0.4-0.2l0.2,0.3l-0.4,0.2l0.8,1.3c0.1,0.1,0.1,0.2,0.2,0.2c0.1,0,0.1,0,0.2,0
			c0,0,0.1,0,0.1-0.1c0,0,0.1-0.1,0.1-0.1l0.2,0.2c0,0-0.1,0.1-0.1,0.2c-0.1,0.1-0.1,0.1-0.2,0.1c-0.2,0.1-0.3,0.1-0.5,0.1
			c-0.1,0-0.3-0.2-0.4-0.4l-0.7-1.3l-0.3,0.2l-0.2-0.3l0.3-0.2l-0.3-0.5L158.9,146.1z"/>
	</g>
	<polygon class="st16" points="146.2,296.6 110.6,276.1 110.6,234.9 146.2,214.4 181.9,234.9 181.9,276.1 	"/>
	<polygon class="st13" points="135.6,220.5 146.2,214.4 181.9,234.9 181.8,247.2 	"/>
	<polygon class="st7" points="163,226.4 159.8,232.1 179.8,243.6 179.8,236.1 	"/>
	<g>
		<path class="st8" d="M145.8,218.8l0.1-0.3l0.7,0.4l-1,1.8l0.2,0.1l0.8-0.3l-0.2-0.1l0.1-0.3l0.9,0.5l-0.1,0.3l-0.3-0.1l-1,0.3
			l0.2,1.3l0.2,0.2l-0.1,0.2l-0.9-0.5l0.1-0.2l0.2,0.1l-0.2-1l-0.3-0.1l-0.4,0.7l0.3,0.2l-0.1,0.2l-1-0.6l0.1-0.2l0.4,0.1l1.4-2.5
			L145.8,218.8z"/>
		<path class="st8" d="M148.4,223.7c-0.1,0.1-0.3,0.1-0.4,0.1c-0.1,0-0.3,0-0.4-0.1c-0.2-0.1-0.4-0.3-0.4-0.5c0-0.2,0-0.5,0.2-0.8
			l0.6-1l-0.2-0.2l0.1-0.3l0.2,0.1l0.4,0.2l-0.7,1.3c-0.1,0.2-0.2,0.4-0.2,0.5c0,0.1,0.1,0.2,0.2,0.3c0.1,0.1,0.3,0.1,0.4,0.1
			c0.1,0,0.2,0,0.3-0.1l0.7-1.2l-0.3-0.2l0.1-0.3l0.3,0.2l0.4,0.2l-1.1,1.8l0.2,0.2l-0.1,0.2l-0.6-0.3L148.4,223.7z"/>
		<path class="st8" d="M151.7,224.7c-0.2,0.3-0.4,0.5-0.7,0.6c-0.3,0.1-0.5,0.1-0.8-0.1c-0.1-0.1-0.2-0.2-0.3-0.3
			c-0.1-0.1-0.1-0.2-0.1-0.4l-0.2,0.3l-0.3-0.2l1.6-2.8l-0.3-0.2l0.1-0.3l0.7,0.4l-0.7,1.2c0.1-0.1,0.2-0.1,0.4-0.1
			c0.1,0,0.3,0,0.4,0.1c0.3,0.2,0.4,0.4,0.4,0.7C152,224,151.9,224.3,151.7,224.7L151.7,224.7z M151.3,224.4
			c0.1-0.2,0.2-0.5,0.2-0.7c0-0.2-0.1-0.4-0.3-0.5c-0.1-0.1-0.2-0.1-0.4-0.1c-0.1,0-0.2,0.1-0.3,0.1l-0.5,0.9c0,0.1,0,0.2,0.1,0.3
			c0.1,0.1,0.1,0.2,0.3,0.3c0.2,0.1,0.4,0.1,0.5,0C151,224.8,151.2,224.6,151.3,224.4L151.3,224.4z"/>
		<path class="st8" d="M152.5,226.5c-0.3-0.2-0.5-0.4-0.5-0.7s0-0.6,0.2-0.9l0.1-0.1c0.2-0.3,0.4-0.5,0.7-0.6
			c0.3-0.1,0.6-0.1,0.8,0.1c0.3,0.2,0.5,0.4,0.5,0.6c0,0.3,0,0.5-0.2,0.8l-0.1,0.2l-1.4-0.8l0,0c-0.1,0.2-0.2,0.4-0.1,0.6
			c0,0.2,0.1,0.3,0.3,0.4c0.1,0.1,0.3,0.1,0.4,0.1c0.1,0,0.2,0,0.3,0l0,0.3c-0.1,0-0.3,0-0.4,0C152.8,226.6,152.6,226.6,152.5,226.5
			z M153.5,224.5c-0.1-0.1-0.3-0.1-0.4,0c-0.2,0.1-0.3,0.2-0.4,0.3l0,0l1,0.6l0-0.1c0.1-0.2,0.1-0.3,0.1-0.5
			S153.7,224.6,153.5,224.5z"/>
		<path class="st8" d="M155.3,224.3l0.1-0.3l0.7,0.4l-1.6,2.8l0.3,0.2l-0.1,0.2l-1-0.6l0.1-0.2l0.4,0.1l1.4-2.5L155.3,224.3z"/>
		<path class="st8" d="M155.9,228.5c-0.3-0.2-0.5-0.4-0.5-0.7s0-0.6,0.2-0.9l0-0.1c0.2-0.3,0.4-0.5,0.7-0.6c0.3-0.1,0.6-0.1,0.8,0.1
			c0.3,0.2,0.5,0.4,0.5,0.6c0,0.3,0,0.5-0.2,0.8l-0.1,0.2l-1.4-0.8l0,0c-0.1,0.2-0.2,0.4-0.1,0.6c0,0.2,0.1,0.3,0.3,0.4
			c0.1,0.1,0.3,0.1,0.4,0.1c0.1,0,0.2,0,0.3,0l0,0.3c-0.1,0-0.3,0-0.4,0C156.3,228.6,156.1,228.6,155.9,228.5z M157,226.5
			c-0.1-0.1-0.3-0.1-0.4,0s-0.3,0.2-0.4,0.3l0,0l1,0.6l0-0.1c0.1-0.2,0.1-0.3,0.1-0.5C157.2,226.7,157.1,226.6,157,226.5z"/>
		<path class="st8" d="M159.4,226.9l-0.3,0.5l0.4,0.2l-0.2,0.3l-0.4-0.2l-0.8,1.3c-0.1,0.1-0.1,0.2-0.1,0.2c0,0.1,0.1,0.1,0.1,0.2
			c0,0,0.1,0,0.1,0.1c0,0,0.1,0,0.1,0l-0.1,0.3c-0.1,0-0.1,0-0.2,0c-0.1,0-0.2-0.1-0.2-0.1c-0.2-0.1-0.3-0.2-0.3-0.4s0-0.3,0.1-0.5
			l0.8-1.3l-0.3-0.2l0.2-0.3l0.3,0.2l0.3-0.5L159.4,226.9z"/>
	</g>
	<g>
		<path class="st8" d="M166.1,230.5c0.4,0.2,0.6,0.5,0.7,0.9c0.1,0.4,0,0.7-0.2,1.1l-0.2,0.4c-0.2,0.4-0.5,0.6-0.9,0.7
			s-0.7,0-1.1-0.2l-1.2-0.7l0.1-0.2l0.4,0.1l1.3-2.3l-0.3-0.2l0.1-0.3l0.3,0.2L166.1,230.5z M165.4,230.5l-1.3,2.3l0.5,0.3
			c0.3,0.2,0.5,0.2,0.8,0.1c0.3-0.1,0.5-0.3,0.6-0.5l0.2-0.4c0.2-0.3,0.2-0.5,0.2-0.8c-0.1-0.3-0.2-0.5-0.5-0.6L165.4,230.5z"/>
		<path class="st8" d="M166.7,233.2c0.2-0.3,0.4-0.5,0.7-0.6c0.3-0.1,0.6-0.1,0.9,0.1c0.3,0.2,0.5,0.4,0.5,0.7
			c0.1,0.3,0,0.6-0.2,0.9l0,0c-0.2,0.3-0.4,0.5-0.7,0.6c-0.3,0.1-0.6,0.1-0.9-0.1c-0.3-0.2-0.5-0.4-0.5-0.7
			C166.4,233.9,166.5,233.6,166.7,233.2L166.7,233.2z M167,233.5c-0.1,0.2-0.2,0.4-0.2,0.6c0,0.2,0.1,0.4,0.3,0.5
			c0.2,0.1,0.4,0.1,0.5,0c0.2-0.1,0.3-0.3,0.5-0.5l0,0c0.1-0.2,0.2-0.4,0.2-0.6c0-0.2-0.1-0.4-0.3-0.5c-0.2-0.1-0.4-0.1-0.6,0
			C167.3,233.1,167.2,233.2,167,233.5L167,233.5z"/>
		<path class="st8" d="M169.4,235.9c0.1,0.1,0.3,0.1,0.4,0.1s0.2-0.1,0.3-0.2l0.3,0.2l0,0c-0.1,0.2-0.3,0.3-0.5,0.3
			c-0.3,0-0.5,0-0.7-0.1c-0.3-0.2-0.5-0.4-0.5-0.7c0-0.3,0-0.6,0.2-0.9l0-0.1c0.2-0.3,0.4-0.5,0.7-0.6c0.3-0.1,0.6-0.1,0.9,0.1
			c0.2,0.1,0.3,0.2,0.4,0.4c0.1,0.1,0.2,0.3,0.2,0.4l-0.3,0.5l-0.3-0.2l0.1-0.4c0-0.1-0.1-0.1-0.1-0.2c-0.1-0.1-0.1-0.1-0.2-0.2
			c-0.2-0.1-0.4-0.1-0.6,0c-0.2,0.1-0.3,0.3-0.4,0.5l0,0.1c-0.1,0.2-0.2,0.4-0.2,0.6C169.1,235.6,169.2,235.8,169.4,235.9z"/>
		<path class="st8" d="M172.1,234l0.1-0.3l0.7,0.4l-1,1.8l0.2,0.1l0.8-0.3l-0.2-0.1l0.1-0.3l0.9,0.5l-0.1,0.3l-0.3-0.1l-1,0.3
			l0.2,1.3l0.2,0.2l-0.1,0.2l-0.9-0.5l0.1-0.2l0.2,0.1l-0.2-1l-0.3-0.1l-0.4,0.7l0.3,0.2l-0.1,0.2l-1-0.6l0.1-0.2l0.4,0.1l1.4-2.5
			L172.1,234z"/>
		<path class="st8" d="M173.9,238.9c-0.3-0.2-0.5-0.4-0.5-0.7c-0.1-0.3,0-0.6,0.2-0.9l0-0.1c0.2-0.3,0.4-0.5,0.7-0.6
			c0.3-0.1,0.6-0.1,0.8,0.1c0.3,0.2,0.5,0.4,0.5,0.6c0,0.3,0,0.5-0.2,0.8l-0.1,0.2l-1.4-0.8l0,0c-0.1,0.2-0.2,0.4-0.1,0.6
			c0,0.2,0.1,0.3,0.3,0.4c0.1,0.1,0.3,0.1,0.4,0.1c0.1,0,0.2,0,0.3,0l0,0.3c-0.1,0-0.3,0-0.4,0C174.2,239.1,174,239,173.9,238.9z
			 M174.9,236.9c-0.1-0.1-0.3-0.1-0.4,0c-0.2,0.1-0.3,0.2-0.4,0.3l0,0l1,0.6l0-0.1c0.1-0.2,0.1-0.3,0.1-0.5
			C175.2,237.2,175.1,237,174.9,236.9z"/>
		<path class="st8" d="M176.2,237.7l0.1-0.3l0.7,0.4l-0.1,0.3c0.1-0.1,0.2-0.1,0.4-0.1c0.1,0,0.2,0,0.4,0.1c0,0,0.1,0,0.1,0.1
			c0,0,0.1,0,0.1,0.1l-0.3,0.3l-0.2-0.1c-0.1-0.1-0.2-0.1-0.3-0.1c-0.1,0-0.2,0-0.3,0.1l-0.7,1.2l0.3,0.2l-0.1,0.2l-1-0.6l0.1-0.2
			l0.4,0.1l0.9-1.5L176.2,237.7z"/>
	</g>
</g>
<g id="service">
</g>
<g id="pods">
	<circle class="st29" cx="146.2" cy="119.5" r="20.9"/>
</g>
<g id="IP">
</g>
<g id="deployments">
	<g>
		<g>
			<circle class="st47" cx="177.4" cy="181.7" r="10.1"/>
			<g>
				<g>
					<path class="st48" d="M180.9,176c1.9,1.2,3.2,3.3,3.2,5.8c0,3.7-3,6.7-6.7,6.7c-3.7,0-6.7-3-6.7-6.7c0-2.9,1.9-5.4,4.5-6.4"/>
					<g>
						<polygon class="st42" points="182.1,178.9 181.2,176.2 183.9,175.3 182.4,174.5 179.6,175.4 180.5,178.1 						"/>
					</g>
				</g>
			</g>
			<g>
				<path class="st42" d="M174.8,185.1v-6.7h2.3c0.8,0,1.5,0.3,2,0.8c0.5,0.5,0.8,1.2,0.8,2v1.1c0,0.8-0.3,1.5-0.8,2
					c-0.5,0.5-1.2,0.8-2,0.8H174.8z M176.1,179.4v4.7h0.9c0.5,0,0.9-0.2,1.1-0.5c0.3-0.3,0.4-0.8,0.4-1.3v-1.1
					c0-0.5-0.1-0.9-0.4-1.3c-0.3-0.3-0.7-0.5-1.1-0.5H176.1z"/>
			</g>
		</g>
	</g>
</g>
<g id="containers_x2F_volumes">
	<g>
		<polygon class="st50" points="136.5,113.9 146.2,108.3 155.9,113.9 146.2,119.5 		"/>
		<polygon class="st50" points="136.5,125.1 136.5,113.9 146.2,119.5 146.2,130.7 		"/>
		<polygon class="st50" points="146.2,130.7 146.2,119.5 155.9,113.9 155.9,125.1 		"/>
	</g>
</g>
<g id="labels_x2F_selectors">
</g>
<g id="description">
	<g>
		<path class="st42" d="M373.8,200.8L373.8,200.8l-2.8,6.8h-0.8l-2.8-6.8l0,0l0.1,3.5v2.5l1,0.2v0.7h-3.1v-0.7l1-0.2V200l-1-0.2
			v-0.7h1h1.5l2.7,6.9h0l2.7-6.9h2.4v0.7l-1,0.2v6.7l1,0.2v0.7h-3.1v-0.7l1-0.2v-2.5L373.8,200.8z"/>
		<path class="st42" d="M380.8,207.6c0-0.2-0.1-0.3-0.1-0.5s0-0.3,0-0.4c-0.2,0.3-0.5,0.5-0.8,0.7s-0.7,0.3-1.1,0.3
			c-0.7,0-1.2-0.2-1.5-0.5s-0.5-0.8-0.5-1.4c0-0.6,0.2-1.1,0.7-1.4s1.2-0.5,2-0.5h1.2v-0.7c0-0.4-0.1-0.7-0.4-0.9s-0.6-0.3-1-0.3
			c-0.3,0-0.5,0-0.8,0.1s-0.4,0.2-0.5,0.3l-0.1,0.7h-0.9v-1.2c0.3-0.2,0.6-0.4,1-0.6s0.9-0.2,1.3-0.2c0.7,0,1.3,0.2,1.7,0.6
			s0.7,0.9,0.7,1.6v3.1c0,0.1,0,0.2,0,0.2s0,0.2,0,0.2l0.5,0.1v0.7H380.8z M379,206.8c0.4,0,0.7-0.1,1-0.3s0.5-0.4,0.7-0.7v-1h-1.2
			c-0.5,0-0.8,0.1-1.1,0.3s-0.4,0.5-0.4,0.8c0,0.3,0.1,0.5,0.3,0.6S378.6,206.8,379,206.8z"/>
		<path class="st42" d="M388.2,203.3h-0.9l-0.2-0.8c-0.1-0.1-0.3-0.2-0.5-0.3s-0.5-0.1-0.7-0.1c-0.4,0-0.7,0.1-0.9,0.3
			s-0.3,0.4-0.3,0.7c0,0.2,0.1,0.4,0.3,0.6s0.5,0.3,1.1,0.4c0.8,0.2,1.4,0.4,1.8,0.7s0.6,0.7,0.6,1.2c0,0.6-0.2,1-0.7,1.4
			s-1,0.5-1.8,0.5c-0.5,0-0.9-0.1-1.3-0.2s-0.7-0.3-1-0.5l0-1.4h0.9l0.2,0.8c0.1,0.1,0.3,0.2,0.5,0.3s0.5,0.1,0.7,0.1
			c0.4,0,0.7-0.1,1-0.2s0.3-0.4,0.3-0.7c0-0.3-0.1-0.5-0.3-0.6s-0.6-0.3-1.1-0.4c-0.8-0.2-1.3-0.4-1.7-0.7s-0.6-0.7-0.6-1.2
			c0-0.5,0.2-1,0.7-1.3s1-0.5,1.7-0.5c0.5,0,0.9,0.1,1.3,0.2s0.7,0.3,1,0.5L388.2,203.3z"/>
		<path class="st42" d="M391.5,199.8v1.5h1.2v0.9h-1.2v3.8c0,0.3,0.1,0.5,0.2,0.6s0.3,0.2,0.5,0.2c0.1,0,0.2,0,0.3,0s0.2,0,0.3-0.1
			l0.2,0.8c-0.1,0.1-0.3,0.1-0.5,0.2s-0.4,0.1-0.6,0.1c-0.5,0-0.8-0.1-1.1-0.4s-0.4-0.7-0.4-1.3v-3.8h-1v-0.9h1v-1.5H391.5z"/>
		<path class="st42" d="M396.7,207.8c-0.9,0-1.6-0.3-2.1-0.9s-0.8-1.4-0.8-2.3v-0.3c0-0.9,0.3-1.7,0.8-2.3s1.2-0.9,1.9-0.9
			c0.9,0,1.5,0.3,1.9,0.8s0.7,1.2,0.7,2.1v0.7H395l0,0c0,0.6,0.2,1.1,0.5,1.5s0.7,0.6,1.2,0.6c0.4,0,0.7-0.1,1-0.2s0.5-0.3,0.8-0.5
			l0.5,0.8c-0.2,0.2-0.5,0.4-0.9,0.6S397.3,207.8,396.7,207.8z M396.6,202.1c-0.4,0-0.7,0.2-1,0.5s-0.4,0.7-0.5,1.2l0,0h2.9v-0.2
			c0-0.5-0.1-0.8-0.4-1.1S397,202.1,396.6,202.1z"/>
		<path class="st42" d="M400.3,202v-0.7h2l0.1,0.9c0.2-0.3,0.4-0.6,0.7-0.8s0.6-0.3,0.9-0.3c0.1,0,0.2,0,0.3,0s0.2,0,0.2,0l-0.2,1.1
			l-0.7,0c-0.3,0-0.6,0.1-0.8,0.2s-0.4,0.3-0.5,0.6v3.6l1,0.2v0.7h-3.1v-0.7l1-0.2v-4.5L400.3,202z"/>
	</g>
	<g>
		<path class="st42" d="M365.4,230.3l1-0.2v-4.5l-1-0.2v-0.7h2l0.1,0.9c0.2-0.3,0.5-0.6,0.8-0.8s0.7-0.3,1.1-0.3
			c0.7,0,1.2,0.2,1.6,0.6s0.6,1,0.6,1.9v3.1l1,0.2v0.7h-3.1v-0.7l1-0.2V227c0-0.6-0.1-1-0.3-1.2s-0.6-0.4-1-0.4
			c-0.3,0-0.6,0.1-0.9,0.2s-0.5,0.4-0.6,0.7v3.7l1,0.2v0.7h-3.1V230.3z"/>
		<path class="st42" d="M373.2,227.8c0-0.9,0.3-1.7,0.8-2.3s1.2-0.9,2.1-0.9c0.9,0,1.6,0.3,2.1,0.9s0.8,1.4,0.8,2.3v0.1
			c0,0.9-0.3,1.7-0.8,2.3s-1.2,0.9-2.1,0.9c-0.9,0-1.6-0.3-2.1-0.9s-0.8-1.4-0.8-2.3V227.8z M374.4,227.9c0,0.7,0.1,1.2,0.4,1.7
			s0.7,0.7,1.3,0.7c0.5,0,1-0.2,1.2-0.7s0.4-1,0.4-1.7v-0.1c0-0.7-0.1-1.2-0.4-1.7s-0.7-0.7-1.3-0.7s-1,0.2-1.3,0.7s-0.4,1-0.4,1.7
			V227.9z"/>
		<path class="st42" d="M384.2,230.3c-0.2,0.3-0.5,0.5-0.8,0.7s-0.6,0.2-1,0.2c-0.8,0-1.4-0.3-1.8-0.8s-0.7-1.3-0.7-2.2V228
			c0-1,0.2-1.8,0.7-2.5s1-0.9,1.8-0.9c0.4,0,0.7,0.1,1,0.2s0.5,0.3,0.7,0.6v-2.6l-1-0.2v-0.7h1h1.2v8.2l1,0.2v0.7h-2L384.2,230.3z
			 M381.1,228.1c0,0.6,0.1,1.1,0.4,1.5s0.7,0.6,1.2,0.6c0.3,0,0.6-0.1,0.9-0.2s0.4-0.4,0.6-0.7v-2.9c-0.1-0.3-0.3-0.5-0.6-0.6
			s-0.5-0.2-0.9-0.2c-0.6,0-1,0.2-1.2,0.7s-0.4,1.1-0.4,1.8V228.1z"/>
		<path class="st42" d="M390,231.1c-0.9,0-1.6-0.3-2.1-0.9s-0.8-1.4-0.8-2.3v-0.3c0-0.9,0.3-1.7,0.8-2.3s1.2-0.9,1.9-0.9
			c0.9,0,1.5,0.3,1.9,0.8s0.7,1.2,0.7,2.1v0.7h-4.1l0,0c0,0.6,0.2,1.1,0.5,1.5s0.7,0.6,1.2,0.6c0.4,0,0.7-0.1,1-0.2s0.5-0.3,0.8-0.5
			l0.5,0.8c-0.2,0.2-0.5,0.4-0.9,0.6S390.6,231.1,390,231.1z M389.9,225.5c-0.4,0-0.7,0.2-1,0.5s-0.4,0.7-0.5,1.2l0,0h2.9v-0.2
			c0-0.5-0.1-0.8-0.4-1.1S390.3,225.5,389.9,225.5z"/>
		<path class="st42" d="M396.4,232.7l1-0.2v-7l-1-0.2v-0.7h1.9l0.1,0.8c0.2-0.3,0.5-0.5,0.8-0.7s0.7-0.2,1.1-0.2
			c0.8,0,1.4,0.3,1.8,0.9s0.7,1.4,0.7,2.5v0.1c0,0.9-0.2,1.7-0.7,2.2s-1,0.8-1.8,0.8c-0.4,0-0.7-0.1-1-0.2s-0.5-0.3-0.8-0.6v2.2
			l1,0.2v0.7h-3.1V232.7z M401.6,228c0-0.7-0.1-1.3-0.4-1.8s-0.7-0.7-1.3-0.7c-0.3,0-0.6,0.1-0.8,0.2s-0.4,0.4-0.6,0.6v3.1
			c0.1,0.3,0.3,0.5,0.6,0.6s0.5,0.2,0.9,0.2c0.5,0,1-0.2,1.2-0.6s0.4-0.9,0.4-1.6V228z"/>
		<path class="st42" d="M403.8,225.4v-0.7h2l0.1,0.9c0.2-0.3,0.4-0.6,0.7-0.8s0.6-0.3,0.9-0.3c0.1,0,0.2,0,0.3,0s0.2,0,0.2,0
			l-0.2,1.1l-0.7,0c-0.3,0-0.6,0.1-0.8,0.2s-0.4,0.3-0.5,0.6v3.6l1,0.2v0.7h-3.1v-0.7l1-0.2v-4.5L403.8,225.4z"/>
		<path class="st42" d="M408.7,227.8c0-0.9,0.3-1.7,0.8-2.3s1.2-0.9,2.1-0.9c0.9,0,1.6,0.3,2.1,0.9s0.8,1.4,0.8,2.3v0.1
			c0,0.9-0.3,1.7-0.8,2.3s-1.2,0.9-2.1,0.9c-0.9,0-1.6-0.3-2.1-0.9s-0.8-1.4-0.8-2.3V227.8z M409.9,227.9c0,0.7,0.1,1.2,0.4,1.7
			s0.7,0.7,1.3,0.7c0.5,0,1-0.2,1.2-0.7s0.4-1,0.4-1.7v-0.1c0-0.7-0.1-1.2-0.4-1.7s-0.7-0.7-1.3-0.7s-1,0.2-1.3,0.7s-0.4,1-0.4,1.7
			V227.9z"/>
		<path class="st42" d="M418.3,230.2c0.4,0,0.7-0.1,1-0.4s0.4-0.5,0.4-0.9h1l0,0c0,0.5-0.2,1-0.7,1.5s-1.1,0.6-1.8,0.6
			c-0.9,0-1.6-0.3-2.1-0.9s-0.7-1.4-0.7-2.3v-0.2c0-0.9,0.2-1.7,0.7-2.3s1.2-0.9,2.1-0.9c0.5,0,1,0.1,1.4,0.3s0.7,0.4,1,0.7l0.1,1.4
			h-0.9l-0.3-1c-0.1-0.1-0.3-0.2-0.5-0.3s-0.5-0.1-0.7-0.1c-0.6,0-1,0.2-1.3,0.7s-0.4,1-0.4,1.6v0.2c0,0.6,0.1,1.2,0.4,1.6
			S417.7,230.2,418.3,230.2z"/>
		<path class="st42" d="M424.8,231.1c-0.9,0-1.6-0.3-2.1-0.9s-0.8-1.4-0.8-2.3v-0.3c0-0.9,0.3-1.7,0.8-2.3s1.2-0.9,1.9-0.9
			c0.9,0,1.5,0.3,1.9,0.8s0.7,1.2,0.7,2.1v0.7h-4.1l0,0c0,0.6,0.2,1.1,0.5,1.5s0.7,0.6,1.2,0.6c0.4,0,0.7-0.1,1-0.2s0.5-0.3,0.8-0.5
			l0.5,0.8c-0.2,0.2-0.5,0.4-0.9,0.6S425.3,231.1,424.8,231.1z M424.6,225.5c-0.4,0-0.7,0.2-1,0.5s-0.4,0.7-0.5,1.2l0,0h2.9v-0.2
			c0-0.5-0.1-0.8-0.4-1.1S425.1,225.5,424.6,225.5z"/>
		<path class="st42" d="M433.2,226.7h-0.9l-0.2-0.8c-0.1-0.1-0.3-0.2-0.5-0.3s-0.5-0.1-0.7-0.1c-0.4,0-0.7,0.1-0.9,0.3
			s-0.3,0.4-0.3,0.7c0,0.2,0.1,0.4,0.3,0.6s0.5,0.3,1.1,0.4c0.8,0.2,1.4,0.4,1.8,0.7s0.6,0.7,0.6,1.2c0,0.6-0.2,1-0.7,1.4
			s-1,0.5-1.8,0.5c-0.5,0-0.9-0.1-1.3-0.2s-0.7-0.3-1-0.5l0-1.4h0.9l0.2,0.8c0.1,0.1,0.3,0.2,0.5,0.3s0.5,0.1,0.7,0.1
			c0.4,0,0.7-0.1,1-0.2s0.3-0.4,0.3-0.7c0-0.3-0.1-0.5-0.3-0.6s-0.6-0.3-1.1-0.4c-0.8-0.2-1.3-0.4-1.7-0.7s-0.6-0.7-0.6-1.2
			c0-0.5,0.2-1,0.7-1.3s1-0.5,1.7-0.5c0.5,0,0.9,0.1,1.3,0.2s0.7,0.3,1,0.5L433.2,226.7z"/>
		<path class="st42" d="M439.3,226.7h-0.9l-0.2-0.8c-0.1-0.1-0.3-0.2-0.5-0.3s-0.5-0.1-0.7-0.1c-0.4,0-0.7,0.1-0.9,0.3
			s-0.3,0.4-0.3,0.7c0,0.2,0.1,0.4,0.3,0.6s0.5,0.3,1.1,0.4c0.8,0.2,1.4,0.4,1.8,0.7s0.6,0.7,0.6,1.2c0,0.6-0.2,1-0.7,1.4
			s-1,0.5-1.8,0.5c-0.5,0-0.9-0.1-1.3-0.2s-0.7-0.3-1-0.5l0-1.4h0.9l0.2,0.8c0.1,0.1,0.3,0.2,0.5,0.3s0.5,0.1,0.7,0.1
			c0.4,0,0.7-0.1,1-0.2s0.3-0.4,0.3-0.7c0-0.3-0.1-0.5-0.3-0.6s-0.6-0.3-1.1-0.4c-0.8-0.2-1.3-0.4-1.7-0.7s-0.6-0.7-0.6-1.2
			c0-0.5,0.2-1,0.7-1.3s1-0.5,1.7-0.5c0.5,0,0.9,0.1,1.3,0.2s0.7,0.3,1,0.5L439.3,226.7z"/>
		<path class="st42" d="M443.5,231.1c-0.9,0-1.6-0.3-2.1-0.9s-0.8-1.4-0.8-2.3v-0.3c0-0.9,0.3-1.7,0.8-2.3s1.2-0.9,1.9-0.9
			c0.9,0,1.5,0.3,1.9,0.8s0.7,1.2,0.7,2.1v0.7h-4.1l0,0c0,0.6,0.2,1.1,0.5,1.5s0.7,0.6,1.2,0.6c0.4,0,0.7-0.1,1-0.2s0.5-0.3,0.8-0.5
			l0.5,0.8c-0.2,0.2-0.5,0.4-0.9,0.6S444,231.1,443.5,231.1z M443.3,225.5c-0.4,0-0.7,0.2-1,0.5s-0.4,0.7-0.5,1.2l0,0h2.9v-0.2
			c0-0.5-0.1-0.8-0.4-1.1S443.8,225.5,443.3,225.5z"/>
		<path class="st42" d="M451.9,226.7H451l-0.2-0.8c-0.1-0.1-0.3-0.2-0.5-0.3s-0.5-0.1-0.7-0.1c-0.4,0-0.7,0.1-0.9,0.3
			s-0.3,0.4-0.3,0.7c0,0.2,0.1,0.4,0.3,0.6s0.5,0.3,1.1,0.4c0.8,0.2,1.4,0.4,1.8,0.7s0.6,0.7,0.6,1.2c0,0.6-0.2,1-0.7,1.4
			s-1,0.5-1.8,0.5c-0.5,0-0.9-0.1-1.3-0.2s-0.7-0.3-1-0.5l0-1.4h0.9l0.2,0.8c0.1,0.1,0.3,0.2,0.5,0.3s0.5,0.1,0.7,0.1
			c0.4,0,0.7-0.1,1-0.2s0.3-0.4,0.3-0.7c0-0.3-0.1-0.5-0.3-0.6s-0.6-0.3-1.1-0.4c-0.8-0.2-1.3-0.4-1.7-0.7s-0.6-0.7-0.6-1.2
			c0-0.5,0.2-1,0.7-1.3s1-0.5,1.7-0.5c0.5,0,0.9,0.1,1.3,0.2s0.7,0.3,1,0.5L451.9,226.7z"/>
	</g>
	<g>
		<path class="st42" d="M373.8,95v0.7l-1,0.2v7.6h-1.2l-4.1-6.6l0,0v5.7l1,0.2v0.7h-3.1v-0.7l1-0.2v-6.7l-1-0.2V95h1h1.2l4.1,6.6
			l0,0v-5.7l-1-0.2V95h2.1H373.8z"/>
		<path class="st42" d="M374.7,100.3c0-0.9,0.3-1.7,0.8-2.3s1.2-0.9,2.1-0.9c0.9,0,1.6,0.3,2.1,0.9s0.8,1.4,0.8,2.3v0.1
			c0,0.9-0.3,1.7-0.8,2.3s-1.2,0.9-2.1,0.9c-0.9,0-1.6-0.3-2.1-0.9s-0.8-1.4-0.8-2.3V100.3z M375.9,100.4c0,0.7,0.1,1.2,0.4,1.7
			s0.7,0.7,1.3,0.7c0.5,0,1-0.2,1.2-0.7s0.4-1,0.4-1.7v-0.1c0-0.7-0.1-1.2-0.4-1.7s-0.7-0.7-1.3-0.7s-1,0.2-1.3,0.7s-0.4,1-0.4,1.7
			V100.4z"/>
		<path class="st42" d="M385.7,102.8c-0.2,0.3-0.5,0.5-0.8,0.7s-0.6,0.2-1,0.2c-0.8,0-1.4-0.3-1.8-0.8s-0.7-1.3-0.7-2.2v-0.1
			c0-1,0.2-1.8,0.7-2.5s1-0.9,1.8-0.9c0.4,0,0.7,0.1,1,0.2s0.5,0.3,0.7,0.6v-2.6l-1-0.2v-0.7h1h1.2v8.2l1,0.2v0.7h-2L385.7,102.8z
			 M382.6,100.6c0,0.6,0.1,1.1,0.4,1.5s0.7,0.6,1.2,0.6c0.3,0,0.6-0.1,0.9-0.2s0.4-0.4,0.6-0.7v-2.9c-0.1-0.3-0.3-0.5-0.6-0.6
			s-0.5-0.2-0.9-0.2c-0.6,0-1,0.2-1.2,0.7s-0.4,1.1-0.4,1.8V100.6z"/>
		<path class="st42" d="M391.5,103.6c-0.9,0-1.6-0.3-2.1-0.9s-0.8-1.4-0.8-2.3v-0.3c0-0.9,0.3-1.7,0.8-2.3s1.2-0.9,1.9-0.9
			c0.9,0,1.5,0.3,1.9,0.8s0.7,1.2,0.7,2.1v0.7h-4.1l0,0c0,0.6,0.2,1.1,0.5,1.5s0.7,0.6,1.2,0.6c0.4,0,0.7-0.1,1-0.2s0.5-0.3,0.8-0.5
			l0.5,0.8c-0.2,0.2-0.5,0.4-0.9,0.6S392,103.6,391.5,103.6z M391.3,98c-0.4,0-0.7,0.2-1,0.5s-0.4,0.7-0.5,1.2l0,0h2.9v-0.2
			c0-0.5-0.1-0.8-0.4-1.1S391.8,98,391.3,98z"/>
	</g>
	<line class="st62" x1="360" y1="203.9" x2="188.6" y2="203.9"/>
	<g>
		<path class="st42" d="M369,176.9c1.1,0,2,0.3,2.7,1s1,1.6,1,2.7v1.2c0,1.1-0.3,2-1,2.7s-1.6,1-2.7,1h-3.6v-0.7l1-0.2v-6.7l-1-0.2
			v-0.7h1H369z M367.6,177.8v6.7h1.5c0.8,0,1.4-0.3,1.9-0.8s0.7-1.2,0.7-2v-1.2c0-0.8-0.2-1.5-0.7-2s-1.1-0.8-1.9-0.8H367.6z"/>
		<path class="st42" d="M376.8,185.5c-0.9,0-1.6-0.3-2.1-0.9s-0.8-1.4-0.8-2.3v-0.3c0-0.9,0.3-1.7,0.8-2.3s1.2-0.9,1.9-0.9
			c0.9,0,1.5,0.3,1.9,0.8s0.7,1.2,0.7,2.1v0.7h-4.1l0,0c0,0.6,0.2,1.1,0.5,1.5s0.7,0.6,1.2,0.6c0.4,0,0.7-0.1,1-0.2s0.5-0.3,0.8-0.5
			l0.5,0.8c-0.2,0.2-0.5,0.4-0.9,0.6S377.3,185.5,376.8,185.5z M376.6,179.9c-0.4,0-0.7,0.2-1,0.5s-0.4,0.7-0.5,1.2l0,0h2.9v-0.2
			c0-0.5-0.1-0.8-0.4-1.1S377.1,179.9,376.6,179.9z"/>
		<path class="st42" d="M380.2,187.1l1-0.2v-7l-1-0.2v-0.7h1.9l0.1,0.8c0.2-0.3,0.5-0.5,0.8-0.7s0.7-0.2,1.1-0.2
			c0.8,0,1.4,0.3,1.8,0.9s0.7,1.4,0.7,2.5v0.1c0,0.9-0.2,1.7-0.7,2.2s-1,0.8-1.8,0.8c-0.4,0-0.7-0.1-1-0.2s-0.5-0.3-0.8-0.6v2.2
			l1,0.2v0.7h-3.1V187.1z M385.4,182.3c0-0.7-0.1-1.3-0.4-1.8s-0.7-0.7-1.3-0.7c-0.3,0-0.6,0.1-0.8,0.2s-0.4,0.4-0.6,0.6v3.1
			c0.1,0.3,0.3,0.5,0.6,0.6s0.5,0.2,0.9,0.2c0.5,0,1-0.2,1.2-0.6s0.4-0.9,0.4-1.6V182.3z"/>
		<path class="st42" d="M387.4,177v-0.7h2.1v8.2l1,0.2v0.7h-3.1v-0.7l1-0.2v-7.3L387.4,177z"/>
		<path class="st42" d="M391.2,182.2c0-0.9,0.3-1.7,0.8-2.3s1.2-0.9,2.1-0.9c0.9,0,1.6,0.3,2.1,0.9s0.8,1.4,0.8,2.3v0.1
			c0,0.9-0.3,1.7-0.8,2.3s-1.2,0.9-2.1,0.9c-0.9,0-1.6-0.3-2.1-0.9s-0.8-1.4-0.8-2.3V182.2z M392.3,182.3c0,0.7,0.1,1.2,0.4,1.7
			s0.7,0.7,1.3,0.7c0.5,0,1-0.2,1.2-0.7s0.4-1,0.4-1.7v-0.1c0-0.7-0.1-1.2-0.4-1.7s-0.7-0.7-1.3-0.7s-1,0.2-1.3,0.7s-0.4,1-0.4,1.7
			V182.3z"/>
		<path class="st42" d="M403.9,179.8l-0.6,0.1l-2.4,6.5c-0.2,0.4-0.4,0.8-0.7,1.1s-0.7,0.5-1.2,0.5c-0.1,0-0.2,0-0.4,0
			s-0.3,0-0.3-0.1l0.1-0.9c0,0,0,0,0.2,0s0.3,0,0.3,0c0.2,0,0.4-0.1,0.6-0.3s0.3-0.5,0.4-0.7l0.3-0.7l-2.1-5.4l-0.6-0.1v-0.7h2.6
			v0.7l-0.7,0.1l1.1,3.1l0.2,0.8h0l1.3-3.9l-0.7-0.1v-0.7h2.6V179.8z"/>
		<path class="st42" d="M404.4,184.7l1-0.2V180l-1-0.2v-0.7h2l0.1,0.8c0.2-0.3,0.5-0.5,0.8-0.7s0.7-0.2,1.1-0.2s0.8,0.1,1.1,0.3
			s0.5,0.5,0.7,0.9c0.2-0.4,0.5-0.6,0.8-0.9s0.7-0.3,1.1-0.3c0.6,0,1.2,0.2,1.5,0.7s0.6,1.1,0.6,2v2.9l1,0.2v0.7h-3.1v-0.7l1-0.2
			v-2.9c0-0.6-0.1-1.1-0.3-1.3s-0.5-0.4-1-0.4c-0.4,0-0.7,0.1-1,0.4s-0.4,0.6-0.4,1.1v3.1l1,0.2v0.7h-3.1v-0.7l1-0.2v-2.9
			c0-0.6-0.1-1-0.3-1.3s-0.5-0.4-1-0.4c-0.4,0-0.6,0.1-0.9,0.2s-0.4,0.3-0.5,0.6v3.8l1,0.2v0.7h-3.1V184.7z"/>
		<path class="st42" d="M418.8,185.5c-0.9,0-1.6-0.3-2.1-0.9s-0.8-1.4-0.8-2.3v-0.3c0-0.9,0.3-1.7,0.8-2.3s1.2-0.9,1.9-0.9
			c0.9,0,1.5,0.3,1.9,0.8s0.7,1.2,0.7,2.1v0.7h-4.1l0,0c0,0.6,0.2,1.1,0.5,1.5s0.7,0.6,1.2,0.6c0.4,0,0.7-0.1,1-0.2s0.5-0.3,0.8-0.5
			l0.5,0.8c-0.2,0.2-0.5,0.4-0.9,0.6S419.3,185.5,418.8,185.5z M418.6,179.9c-0.4,0-0.7,0.2-1,0.5s-0.4,0.7-0.5,1.2l0,0h2.9v-0.2
			c0-0.5-0.1-0.8-0.4-1.1S419.1,179.9,418.6,179.9z"/>
		<path class="st42" d="M422.2,184.7l1-0.2V180l-1-0.2v-0.7h2l0.1,0.9c0.2-0.3,0.5-0.6,0.8-0.8s0.7-0.3,1.1-0.3
			c0.7,0,1.2,0.2,1.6,0.6s0.6,1,0.6,1.9v3.1l1,0.2v0.7h-3.1v-0.7l1-0.2v-3.1c0-0.6-0.1-1-0.3-1.2s-0.6-0.4-1-0.4
			c-0.3,0-0.6,0.1-0.9,0.2s-0.5,0.4-0.6,0.7v3.7l1,0.2v0.7h-3.1V184.7z"/>
		<path class="st42" d="M432.1,177.5v1.5h1.2v0.9h-1.2v3.8c0,0.3,0.1,0.5,0.2,0.6s0.3,0.2,0.5,0.2c0.1,0,0.2,0,0.3,0s0.2,0,0.3-0.1
			l0.2,0.8c-0.1,0.1-0.3,0.1-0.5,0.2s-0.4,0.1-0.6,0.1c-0.5,0-0.8-0.1-1.1-0.4s-0.4-0.7-0.4-1.3v-3.8h-1v-0.9h1v-1.5H432.1z"/>
	</g>
	<line class="st62" x1="360" y1="181.7" x2="181.5" y2="181.7"/>
	<line class="st62" x1="360" y1="229" x2="159.4" y2="229"/>
	<line class="st62" x1="360" y1="101.5" x2="242.8" y2="101.5"/>
	<g>
		<path class="st42" d="M368.5,126.3c0.4,0,0.7-0.1,1-0.4s0.4-0.5,0.4-0.9h1l0,0c0,0.5-0.2,1-0.7,1.5s-1.1,0.6-1.8,0.6
			c-0.9,0-1.6-0.3-2.1-0.9s-0.7-1.4-0.7-2.3v-0.2c0-0.9,0.2-1.7,0.7-2.3s1.2-0.9,2.1-0.9c0.5,0,1,0.1,1.4,0.3s0.7,0.4,1,0.7l0.1,1.4
			H370l-0.3-1c-0.1-0.1-0.3-0.2-0.5-0.3s-0.5-0.1-0.7-0.1c-0.6,0-1,0.2-1.3,0.7s-0.4,1-0.4,1.6v0.2c0,0.6,0.1,1.2,0.4,1.6
			S367.8,126.3,368.5,126.3z"/>
		<path class="st42" d="M372.1,123.8c0-0.9,0.3-1.7,0.8-2.3s1.2-0.9,2.1-0.9c0.9,0,1.6,0.3,2.1,0.9s0.8,1.4,0.8,2.3v0.1
			c0,0.9-0.3,1.7-0.8,2.3s-1.2,0.9-2.1,0.9c-0.9,0-1.6-0.3-2.1-0.9s-0.8-1.4-0.8-2.3V123.8z M373.2,123.9c0,0.7,0.1,1.2,0.4,1.7
			s0.7,0.7,1.3,0.7c0.5,0,1-0.2,1.2-0.7s0.4-1,0.4-1.7v-0.1c0-0.7-0.1-1.2-0.4-1.7s-0.7-0.7-1.3-0.7s-1,0.2-1.3,0.7s-0.4,1-0.4,1.7
			V123.9z"/>
		<path class="st42" d="M378.6,126.3l1-0.2v-4.5l-1-0.2v-0.7h2l0.1,0.9c0.2-0.3,0.5-0.6,0.8-0.8s0.7-0.3,1.1-0.3
			c0.7,0,1.2,0.2,1.6,0.6s0.6,1,0.6,1.9v3.1l1,0.2v0.7h-3.1v-0.7l1-0.2v-3.1c0-0.6-0.1-1-0.3-1.2s-0.6-0.4-1-0.4
			c-0.3,0-0.6,0.1-0.9,0.2s-0.5,0.4-0.6,0.7v3.7l1,0.2v0.7h-3.1V126.3z"/>
		<path class="st42" d="M388.6,119.2v1.5h1.2v0.9h-1.2v3.8c0,0.3,0.1,0.5,0.2,0.6s0.3,0.2,0.5,0.2c0.1,0,0.2,0,0.3,0s0.2,0,0.3-0.1
			l0.2,0.8c-0.1,0.1-0.3,0.1-0.5,0.2s-0.4,0.1-0.6,0.1c-0.5,0-0.8-0.1-1.1-0.4s-0.4-0.7-0.4-1.3v-3.8h-1v-0.9h1v-1.5H388.6z"/>
		<path class="st42" d="M395.1,127c0-0.2-0.1-0.3-0.1-0.5s0-0.3,0-0.4c-0.2,0.3-0.5,0.5-0.8,0.7s-0.7,0.3-1.1,0.3
			c-0.7,0-1.2-0.2-1.5-0.5s-0.5-0.8-0.5-1.4c0-0.6,0.2-1.1,0.7-1.4s1.2-0.5,2-0.5h1.2v-0.7c0-0.4-0.1-0.7-0.4-0.9s-0.6-0.3-1-0.3
			c-0.3,0-0.5,0-0.8,0.1s-0.4,0.2-0.5,0.3l-0.1,0.7h-0.9v-1.2c0.3-0.2,0.6-0.4,1-0.6s0.9-0.2,1.3-0.2c0.7,0,1.3,0.2,1.7,0.6
			s0.7,0.9,0.7,1.6v3.1c0,0.1,0,0.2,0,0.2s0,0.2,0,0.2l0.5,0.1v0.7H395.1z M393.2,126.2c0.4,0,0.7-0.1,1-0.3s0.5-0.4,0.7-0.7v-1
			h-1.2c-0.5,0-0.8,0.1-1.1,0.3s-0.4,0.5-0.4,0.8c0,0.3,0.1,0.5,0.3,0.6S392.9,126.2,393.2,126.2z"/>
		<path class="st42" d="M397.5,126.3l1-0.2v-4.5l-1-0.2v-0.7h2.1v5.4l1,0.2v0.7h-3.1V126.3z M399.6,119.1h-1.2v-1.2h1.2V119.1z"/>
		<path class="st42" d="M401.3,126.3l1-0.2v-4.5l-1-0.2v-0.7h2l0.1,0.9c0.2-0.3,0.5-0.6,0.8-0.8s0.7-0.3,1.1-0.3
			c0.7,0,1.2,0.2,1.6,0.6s0.6,1,0.6,1.9v3.1l1,0.2v0.7h-3.1v-0.7l1-0.2v-3.1c0-0.6-0.1-1-0.3-1.2s-0.6-0.4-1-0.4
			c-0.3,0-0.6,0.1-0.9,0.2s-0.5,0.4-0.6,0.7v3.7l1,0.2v0.7h-3.1V126.3z"/>
		<path class="st42" d="M412,127.2c-0.9,0-1.6-0.3-2.1-0.9s-0.8-1.4-0.8-2.3v-0.3c0-0.9,0.3-1.7,0.8-2.3s1.2-0.9,1.9-0.9
			c0.9,0,1.5,0.3,1.9,0.8s0.7,1.2,0.7,2.1v0.7h-4.1l0,0c0,0.6,0.2,1.1,0.5,1.5s0.7,0.6,1.2,0.6c0.4,0,0.7-0.1,1-0.2s0.5-0.3,0.8-0.5
			l0.5,0.8c-0.2,0.2-0.5,0.4-0.9,0.6S412.6,127.2,412,127.2z M411.9,121.5c-0.4,0-0.7,0.2-1,0.5s-0.4,0.7-0.5,1.2l0,0h2.9v-0.2
			c0-0.5-0.1-0.8-0.4-1.1S412.3,121.5,411.9,121.5z"/>
		<path class="st42" d="M415.6,121.4v-0.7h2l0.1,0.9c0.2-0.3,0.4-0.6,0.7-0.8s0.6-0.3,0.9-0.3c0.1,0,0.2,0,0.3,0s0.2,0,0.2,0
			l-0.2,1.1l-0.7,0c-0.3,0-0.6,0.1-0.8,0.2s-0.4,0.3-0.5,0.6v3.6l1,0.2v0.7h-3.1v-0.7l1-0.2v-4.5L415.6,121.4z"/>
		<path class="st42" d="M420.6,126.3l1-0.2v-4.5l-1-0.2v-0.7h2.1v5.4l1,0.2v0.7h-3.1V126.3z M422.7,119.1h-1.2v-1.2h1.2V119.1z"/>
		<path class="st42" d="M426,126.1h2.6l0.1-1h1v1.9h-5v-0.8l3.4-4.6h-2.3l-0.1,1h-1v-1.9h4.8v0.8L426,126.1z"/>
		<path class="st42" d="M433.7,127.2c-0.9,0-1.6-0.3-2.1-0.9s-0.8-1.4-0.8-2.3v-0.3c0-0.9,0.3-1.7,0.8-2.3s1.2-0.9,1.9-0.9
			c0.9,0,1.5,0.3,1.9,0.8s0.7,1.2,0.7,2.1v0.7H432l0,0c0,0.6,0.2,1.1,0.5,1.5s0.7,0.6,1.2,0.6c0.4,0,0.7-0.1,1-0.2s0.5-0.3,0.8-0.5
			l0.5,0.8c-0.2,0.2-0.5,0.4-0.9,0.6S434.2,127.2,433.7,127.2z M433.5,121.5c-0.4,0-0.7,0.2-1,0.5s-0.4,0.7-0.5,1.2l0,0h2.9v-0.2
			c0-0.5-0.1-0.8-0.4-1.1S434,121.5,433.5,121.5z"/>
		<path class="st42" d="M441.5,126.3c-0.2,0.3-0.5,0.5-0.8,0.7s-0.6,0.2-1,0.2c-0.8,0-1.4-0.3-1.8-0.8s-0.7-1.3-0.7-2.2V124
			c0-1,0.2-1.8,0.7-2.5s1-0.9,1.8-0.9c0.4,0,0.7,0.1,1,0.2s0.5,0.3,0.7,0.6v-2.6l-1-0.2v-0.7h1h1.2v8.2l1,0.2v0.7h-2L441.5,126.3z
			 M438.4,124.1c0,0.6,0.1,1.1,0.4,1.5s0.7,0.6,1.2,0.6c0.3,0,0.6-0.1,0.9-0.2s0.4-0.4,0.6-0.7v-2.9c-0.1-0.3-0.3-0.5-0.6-0.6
			s-0.5-0.2-0.9-0.2c-0.6,0-1,0.2-1.2,0.7s-0.4,1.1-0.4,1.8V124.1z"/>
		<path class="st42" d="M451.5,127c0-0.2-0.1-0.3-0.1-0.5s0-0.3,0-0.4c-0.2,0.3-0.5,0.5-0.8,0.7s-0.7,0.3-1.1,0.3
			c-0.7,0-1.2-0.2-1.5-0.5s-0.5-0.8-0.5-1.4c0-0.6,0.2-1.1,0.7-1.4s1.2-0.5,2-0.5h1.2v-0.7c0-0.4-0.1-0.7-0.4-0.9s-0.6-0.3-1-0.3
			c-0.3,0-0.5,0-0.8,0.1s-0.4,0.2-0.5,0.3l-0.1,0.7h-0.9v-1.2c0.3-0.2,0.6-0.4,1-0.6s0.9-0.2,1.3-0.2c0.7,0,1.3,0.2,1.7,0.6
			s0.7,0.9,0.7,1.6v3.1c0,0.1,0,0.2,0,0.2s0,0.2,0,0.2l0.5,0.1v0.7H451.5z M449.7,126.2c0.4,0,0.7-0.1,1-0.3s0.5-0.4,0.7-0.7v-1
			h-1.2c-0.5,0-0.8,0.1-1.1,0.3s-0.4,0.5-0.4,0.8c0,0.3,0.1,0.5,0.3,0.6S449.3,126.2,449.7,126.2z"/>
		<path class="st42" d="M453.9,128.7l1-0.2v-7l-1-0.2v-0.7h1.9l0.1,0.8c0.2-0.3,0.5-0.5,0.8-0.7s0.7-0.2,1.1-0.2
			c0.8,0,1.4,0.3,1.8,0.9s0.7,1.4,0.7,2.5v0.1c0,0.9-0.2,1.7-0.7,2.2s-1,0.8-1.8,0.8c-0.4,0-0.7-0.1-1-0.2s-0.5-0.3-0.8-0.6v2.2
			l1,0.2v0.7h-3.1V128.7z M459.1,124c0-0.7-0.1-1.3-0.4-1.8s-0.7-0.7-1.3-0.7c-0.3,0-0.6,0.1-0.8,0.2s-0.4,0.4-0.6,0.6v3.1
			c0.1,0.3,0.3,0.5,0.6,0.6s0.5,0.2,0.9,0.2c0.5,0,1-0.2,1.2-0.6s0.4-0.9,0.4-1.6V124z"/>
		<path class="st42" d="M461.1,128.7l1-0.2v-7l-1-0.2v-0.7h1.9l0.1,0.8c0.2-0.3,0.5-0.5,0.8-0.7s0.7-0.2,1.1-0.2
			c0.8,0,1.4,0.3,1.8,0.9s0.7,1.4,0.7,2.5v0.1c0,0.9-0.2,1.7-0.7,2.2s-1,0.8-1.8,0.8c-0.4,0-0.7-0.1-1-0.2s-0.5-0.3-0.8-0.6v2.2
			l1,0.2v0.7h-3.1V128.7z M466.3,124c0-0.7-0.1-1.3-0.4-1.8s-0.7-0.7-1.3-0.7c-0.3,0-0.6,0.1-0.8,0.2s-0.4,0.4-0.6,0.6v3.1
			c0.1,0.3,0.3,0.5,0.6,0.6s0.5,0.2,0.9,0.2c0.5,0,1-0.2,1.2-0.6s0.4-0.9,0.4-1.6V124z"/>
	</g>
	<line class="st62" x1="360" y1="123.7" x2="150.2" y2="123.7"/>
	<g>
		<path class="st42" d="M120.9,356.9l1-0.2v-6.9l-1-0.2v-1.2h4v1.2l-1,0.2v2.6h0.8l1.9-2.7l-0.6-0.1v-1.2h3.8v1.2l-1,0.2l-2.4,3.2
			l2.7,3.8l1,0.2v1.2h-3.8v-1.2l0.6-0.1L125,354h-1.1v2.7l1,0.2v1.2h-4V356.9z"/>
		<path class="st42" d="M135.6,357.1c-0.2,0.3-0.5,0.6-0.9,0.8s-0.7,0.3-1.2,0.3c-0.8,0-1.4-0.2-1.8-0.7c-0.4-0.5-0.6-1.2-0.6-2.3
			v-3l-0.8-0.2v-1.2h0.8h1.9v4.3c0,0.5,0.1,0.9,0.3,1.1s0.4,0.3,0.8,0.3c0.3,0,0.6,0,0.8-0.1s0.4-0.2,0.5-0.4v-3.9l-0.8-0.2v-1.2
			h0.8h1.9v5.8l0.9,0.2v1.2h-2.6L135.6,357.1z"/>
		<path class="st42" d="M146,354.6c0,1.1-0.2,1.9-0.7,2.6c-0.5,0.6-1.2,1-2.1,1c-0.4,0-0.8-0.1-1.1-0.3s-0.6-0.4-0.8-0.8l-0.1,0.9
			h-1.7v-9l-1-0.2v-1.2h3v3.9c0.2-0.3,0.5-0.5,0.7-0.7s0.6-0.2,1-0.2c0.9,0,1.6,0.3,2.1,1c0.5,0.7,0.7,1.6,0.7,2.8V354.6z
			 M144.1,354.5c0-0.7-0.1-1.3-0.3-1.7s-0.6-0.6-1.1-0.6c-0.3,0-0.6,0.1-0.8,0.2s-0.4,0.3-0.5,0.5v3c0.1,0.2,0.3,0.4,0.5,0.5
			c0.2,0.1,0.5,0.2,0.8,0.2c0.5,0,0.8-0.2,1-0.5c0.2-0.4,0.3-0.9,0.3-1.5V354.5z"/>
		<path class="st42" d="M150.3,358.2c-1,0-1.9-0.3-2.5-1c-0.6-0.7-0.9-1.5-0.9-2.5v-0.3c0-1.1,0.3-1.9,0.9-2.6c0.6-0.7,1.4-1,2.4-1
			c1,0,1.7,0.3,2.3,0.9c0.5,0.6,0.8,1.4,0.8,2.4v1.1h-4.3l0,0c0,0.5,0.2,0.9,0.5,1.2c0.3,0.3,0.7,0.5,1.1,0.5c0.4,0,0.8,0,1.1-0.1
			s0.6-0.2,0.9-0.4l0.5,1.2c-0.3,0.2-0.7,0.4-1.2,0.6S150.9,358.2,150.3,358.2z M150.2,352.2c-0.4,0-0.6,0.1-0.8,0.4
			c-0.2,0.3-0.3,0.6-0.4,1.1l0,0h2.4v-0.2c0-0.4-0.1-0.7-0.3-1C150.8,352.3,150.5,352.2,150.2,352.2z"/>
		<path class="st42" d="M154.3,356.9l0.9-0.2v-4.5l-1-0.2v-1.2h2.8l0.1,1c0.2-0.4,0.4-0.7,0.7-0.9c0.3-0.2,0.6-0.3,0.9-0.3
			c0.1,0,0.2,0,0.3,0c0.1,0,0.2,0,0.3,0.1l-0.2,1.8l-0.8,0c-0.3,0-0.5,0.1-0.7,0.2c-0.2,0.1-0.3,0.3-0.4,0.5v3.5l0.9,0.2v1.2h-3.8
			V356.9z"/>
		<path class="st42" d="M159.7,356.9l0.9-0.2v-4.5l-1-0.2v-1.2h2.8l0.1,1c0.2-0.4,0.5-0.7,0.9-0.9s0.7-0.3,1.2-0.3
			c0.7,0,1.3,0.2,1.7,0.7c0.4,0.5,0.6,1.2,0.6,2.1v3.1l0.9,0.2v1.2h-3.7v-1.2l0.8-0.2v-3.1c0-0.5-0.1-0.8-0.3-1
			c-0.2-0.2-0.5-0.3-0.9-0.3c-0.3,0-0.5,0.1-0.7,0.2c-0.2,0.1-0.4,0.3-0.5,0.4v3.9l0.8,0.2v1.2h-3.7V356.9z"/>
		<path class="st42" d="M171.9,358.2c-1,0-1.9-0.3-2.5-1c-0.6-0.7-0.9-1.5-0.9-2.5v-0.3c0-1.1,0.3-1.9,0.9-2.6c0.6-0.7,1.4-1,2.4-1
			c1,0,1.7,0.3,2.3,0.9c0.5,0.6,0.8,1.4,0.8,2.4v1.1h-4.3l0,0c0,0.5,0.2,0.9,0.5,1.2c0.3,0.3,0.7,0.5,1.1,0.5c0.4,0,0.8,0,1.1-0.1
			s0.6-0.2,0.9-0.4l0.5,1.2c-0.3,0.2-0.7,0.4-1.2,0.6S172.4,358.2,171.9,358.2z M171.7,352.2c-0.4,0-0.6,0.1-0.8,0.4
			c-0.2,0.3-0.3,0.6-0.4,1.1l0,0h2.4v-0.2c0-0.4-0.1-0.7-0.3-1C172.4,352.3,172.1,352.2,171.7,352.2z"/>
		<path class="st42" d="M178.5,349.1v1.8h1.3v1.4h-1.3v3.7c0,0.3,0.1,0.5,0.2,0.6c0.1,0.1,0.3,0.2,0.5,0.2c0.1,0,0.2,0,0.3,0
			c0.1,0,0.2,0,0.3-0.1l0.2,1.4c-0.2,0.1-0.4,0.1-0.6,0.1c-0.2,0-0.4,0-0.7,0c-0.7,0-1.2-0.2-1.5-0.6c-0.4-0.4-0.5-0.9-0.5-1.7v-3.7
			h-1.1v-1.4h1.1v-1.8H178.5z"/>
		<path class="st42" d="M184.2,358.2c-1,0-1.9-0.3-2.5-1c-0.6-0.7-0.9-1.5-0.9-2.5v-0.3c0-1.1,0.3-1.9,0.9-2.6c0.6-0.7,1.4-1,2.4-1
			c1,0,1.7,0.3,2.3,0.9c0.5,0.6,0.8,1.4,0.8,2.4v1.1h-4.3l0,0c0,0.5,0.2,0.9,0.5,1.2c0.3,0.3,0.7,0.5,1.1,0.5c0.4,0,0.8,0,1.1-0.1
			s0.6-0.2,0.9-0.4l0.5,1.2c-0.3,0.2-0.7,0.4-1.2,0.6S184.8,358.2,184.2,358.2z M184,352.2c-0.4,0-0.6,0.1-0.8,0.4
			c-0.2,0.3-0.3,0.6-0.4,1.1l0,0h2.4v-0.2c0-0.4-0.1-0.7-0.3-1C184.7,352.3,184.4,352.2,184,352.2z"/>
		<path class="st42" d="M188.1,356.9l0.9-0.2v-4.5l-1-0.2v-1.2h2.8l0.1,1c0.2-0.4,0.4-0.7,0.7-0.9c0.3-0.2,0.6-0.3,0.9-0.3
			c0.1,0,0.2,0,0.3,0c0.1,0,0.2,0,0.3,0.1l-0.2,1.8l-0.8,0c-0.3,0-0.5,0.1-0.7,0.2c-0.2,0.1-0.3,0.3-0.4,0.5v3.5l0.9,0.2v1.2h-3.8
			V356.9z"/>
		<path class="st42" d="M199.6,353.3h-1.3l-0.2-0.9c-0.1-0.1-0.3-0.2-0.5-0.3c-0.2-0.1-0.4-0.1-0.7-0.1c-0.3,0-0.6,0.1-0.8,0.2
			c-0.2,0.2-0.3,0.3-0.3,0.6c0,0.2,0.1,0.4,0.3,0.5s0.6,0.3,1.1,0.4c0.9,0.2,1.5,0.4,2,0.8s0.6,0.8,0.6,1.4c0,0.6-0.3,1.2-0.8,1.6
			c-0.6,0.4-1.3,0.6-2.2,0.6c-0.6,0-1.1-0.1-1.5-0.2c-0.5-0.2-0.9-0.4-1.2-0.7l0-1.6h1.4l0.3,0.9c0.1,0.1,0.3,0.2,0.5,0.2
			c0.2,0,0.4,0.1,0.6,0.1c0.4,0,0.7-0.1,0.9-0.2s0.3-0.3,0.3-0.6c0-0.2-0.1-0.4-0.3-0.6s-0.6-0.3-1.1-0.4c-0.8-0.2-1.5-0.4-1.9-0.8
			s-0.6-0.8-0.6-1.4c0-0.6,0.2-1.1,0.7-1.6s1.2-0.7,2.1-0.7c0.6,0,1.1,0.1,1.6,0.2s0.9,0.3,1.2,0.6L199.6,353.3z"/>
		<path class="st42" d="M211.9,351.6h-1.4l-0.2-1.3c-0.2-0.2-0.4-0.3-0.7-0.5s-0.6-0.2-1-0.2c-0.8,0-1.5,0.3-1.9,0.9
			c-0.5,0.6-0.7,1.4-0.7,2.4v0.3c0,1,0.2,1.8,0.7,2.4c0.5,0.6,1.1,0.9,1.9,0.9c0.4,0,0.7-0.1,1-0.2c0.3-0.1,0.6-0.3,0.7-0.5l0.2-1.3
			h1.4v1.9c-0.4,0.5-0.9,0.8-1.5,1.1c-0.6,0.3-1.3,0.4-2,0.4c-1.3,0-2.4-0.4-3.2-1.3s-1.2-2.1-1.2-3.5V353c0-1.4,0.4-2.6,1.2-3.5
			c0.8-0.9,1.9-1.4,3.2-1.4c0.7,0,1.4,0.1,2,0.4c0.6,0.3,1.1,0.6,1.5,1.1V351.6z"/>
		<path class="st42" d="M212.6,348.8v-1.2h3v9l0.9,0.2v1.2h-3.8v-1.2l0.9-0.2V349L212.6,348.8z"/>
		<path class="st42" d="M222.2,357.1c-0.2,0.3-0.5,0.6-0.9,0.8s-0.7,0.3-1.2,0.3c-0.8,0-1.4-0.2-1.8-0.7c-0.4-0.5-0.6-1.2-0.6-2.3
			v-3L217,352v-1.2h0.8h1.9v4.3c0,0.5,0.1,0.9,0.3,1.1s0.4,0.3,0.8,0.3c0.3,0,0.6,0,0.8-0.1s0.4-0.2,0.5-0.4v-3.9l-0.8-0.2v-1.2h0.8
			h1.9v5.8l0.9,0.2v1.2h-2.6L222.2,357.1z"/>
		<path class="st42" d="M231.5,353.3h-1.3l-0.2-0.9c-0.1-0.1-0.3-0.2-0.5-0.3c-0.2-0.1-0.4-0.1-0.7-0.1c-0.3,0-0.6,0.1-0.8,0.2
			c-0.2,0.2-0.3,0.3-0.3,0.6c0,0.2,0.1,0.4,0.3,0.5s0.6,0.3,1.1,0.4c0.9,0.2,1.5,0.4,2,0.8s0.6,0.8,0.6,1.4c0,0.6-0.3,1.2-0.8,1.6
			c-0.6,0.4-1.3,0.6-2.2,0.6c-0.6,0-1.1-0.1-1.5-0.2c-0.5-0.2-0.9-0.4-1.2-0.7l0-1.6h1.4l0.3,0.9c0.1,0.1,0.3,0.2,0.5,0.2
			c0.2,0,0.4,0.1,0.6,0.1c0.4,0,0.7-0.1,0.9-0.2s0.3-0.3,0.3-0.6c0-0.2-0.1-0.4-0.3-0.6s-0.6-0.3-1.1-0.4c-0.8-0.2-1.5-0.4-1.9-0.8
			s-0.6-0.8-0.6-1.4c0-0.6,0.2-1.1,0.7-1.6s1.2-0.7,2.1-0.7c0.6,0,1.1,0.1,1.6,0.2s0.9,0.3,1.2,0.6L231.5,353.3z"/>
		<path class="st42" d="M235.5,349.1v1.8h1.3v1.4h-1.3v3.7c0,0.3,0.1,0.5,0.2,0.6c0.1,0.1,0.3,0.2,0.5,0.2c0.1,0,0.2,0,0.3,0
			c0.1,0,0.2,0,0.3-0.1l0.2,1.4c-0.2,0.1-0.4,0.1-0.6,0.1c-0.2,0-0.4,0-0.7,0c-0.7,0-1.2-0.2-1.5-0.6c-0.4-0.4-0.5-0.9-0.5-1.7v-3.7
			h-1.1v-1.4h1.1v-1.8H235.5z"/>
		<path class="st42" d="M241.2,358.2c-1,0-1.9-0.3-2.5-1c-0.6-0.7-0.9-1.5-0.9-2.5v-0.3c0-1.1,0.3-1.9,0.9-2.6c0.6-0.7,1.4-1,2.4-1
			c1,0,1.7,0.3,2.3,0.9c0.5,0.6,0.8,1.4,0.8,2.4v1.1h-4.3l0,0c0,0.5,0.2,0.9,0.5,1.2c0.3,0.3,0.7,0.5,1.1,0.5c0.4,0,0.8,0,1.1-0.1
			s0.6-0.2,0.9-0.4l0.5,1.2c-0.3,0.2-0.7,0.4-1.2,0.6S241.8,358.2,241.2,358.2z M241,352.2c-0.4,0-0.6,0.1-0.8,0.4
			c-0.2,0.3-0.3,0.6-0.4,1.1l0,0h2.4v-0.2c0-0.4-0.1-0.7-0.3-1C241.7,352.3,241.4,352.2,241,352.2z"/>
		<path class="st42" d="M245.1,356.9l0.9-0.2v-4.5l-1-0.2v-1.2h2.8l0.1,1c0.2-0.4,0.4-0.7,0.7-0.9c0.3-0.2,0.6-0.3,0.9-0.3
			c0.1,0,0.2,0,0.3,0c0.1,0,0.2,0,0.3,0.1l-0.2,1.8l-0.8,0c-0.3,0-0.5,0.1-0.7,0.2c-0.2,0.1-0.3,0.3-0.4,0.5v3.5l0.9,0.2v1.2h-3.8
			V356.9z"/>
	</g>
</g>
<g id="Layer_14">
</g>
</svg>
