<svg xmlns="http://www.w3.org/2000/svg" viewBox="0 0 350 200"><defs><style>.cls-1{fill:#fff}.cls-2,.cls-6{fill:#326de6}.cls-3{fill:#06f7c9;opacity:.1}.cls-4,.cls-5{fill:none;stroke:#06f7c9;stroke-miterlimit:10}.cls-4{stroke-width:2.4px;stroke-dasharray:2.41 1.61}.cls-5{stroke-width:.8px}.cls-6{stroke:#fff;stroke-linecap:round;stroke-linejoin:round;stroke-width:.91px}</style></defs><title>16.07.28_k8s_visual_diagrams</title><g id="Graphics"><path class="cls-1" d="M175 167.08l-58.1-33.54V66.46L175 32.92l58.1 33.54v67.08L175 167.08z"/><path class="cls-2" d="M175 168a.91.91 0 0 1-.46-.12l-58.1-33.54a.91.91 0 0 1-.46-.79V66.46a.91.91 0 0 1 .46-.79l58.1-33.54a.91.91 0 0 1 .91 0l58.1 33.54a.91.91 0 0 1 .46.79v67.08a.91.91 0 0 1-.46.79l-58.1 33.54a.91.91 0 0 1-.45.13zm-57.18-35L175 166l57.18-33V67L175 34l-57.18 33z"/><circle class="cls-3" cx="175" cy="100" r="34.13"/><path class="cls-4" d="M175 146.13A46.13 46.13 0 1 1 221.13 100 46.18 46.18 0 0 1 175 146.13z"/><circle class="cls-5" cx="175" cy="100" r="34.13"/><path class="cls-6" d="M163.14 93.15L175 86.31l11.86 6.84L175 100l-11.86-6.85z"/><path class="cls-6" d="M163.14 106.85v-13.7L175 100v13.69l-11.86-6.84zM175 113.69V100l11.86-6.85v13.7L175 113.69z"/></g></svg>