<svg xmlns="http://www.w3.org/2000/svg" viewBox="0 0 350 200"><defs><style>.cls-1,.cls-5,.cls-8{fill:none;stroke-miterlimit:10}.cls-1,.cls-5{stroke:#06f7c9;stroke-width:2.77px}.cls-2{fill:#8115ff}.cls-2,.cls-7,.cls-8{stroke:#011f38}.cls-2,.cls-7{stroke-linecap:round;stroke-linejoin:round}.cls-2,.cls-8{stroke-width:.8px}.cls-3{fill:#fff}.cls-4{fill:#326de6}.cls-5,.cls-6{opacity:.3}.cls-7{fill:#06f7c9;stroke-width:.83px}.cls-9{fill:#011f38}</style></defs><title>16.07.28_k8s_visual_diagrams</title><g id="Graphics"><circle class="cls-1" cx="89.9" cy="118.5" r="28.95"/><path class="cls-2" d="M76.49 110.76l13.41-7.74 13.41 7.74-13.41 7.75-13.41-7.75z"/><path class="cls-2" d="M76.49 126.25v-15.49l13.41 7.75v15.48l-13.41-7.74zM89.9 133.99v-15.48l13.41-7.75v15.49l-13.41 7.74z"/><path class="cls-3" d="M229.63 167.54l-58.49-33.77V66.23l58.49-33.77 58.5 33.77v67.54l-58.5 33.77z"/><path class="cls-4" d="M229.63 168.46a.92.92 0 0 1-.46-.12l-58.49-33.77a.92.92 0 0 1-.46-.8V66.23a.92.92 0 0 1 .46-.8l58.49-33.77a.92.92 0 0 1 .92 0l58.49 33.77a.92.92 0 0 1 .46.8v67.54a.92.92 0 0 1-.46.8l-58.49 33.77a.92.92 0 0 1-.46.12zm-57.58-35.22l57.58 33.24 57.58-33.24V66.76l-57.58-33.24-57.57 33.24z"/><circle class="cls-5" cx="208.95" cy="79.69" r="19.42"/><circle class="cls-1" cx="253.81" cy="118.45" r="19.42"/><path class="cls-2" d="M245.18 113.47l8.63-4.99 8.64 4.99-8.64 4.98-8.63-4.98z"/><path class="cls-2" d="M245.18 123.44v-9.97l8.63 4.98v9.97l-8.63-4.98zM253.81 128.42v-9.97l8.64-4.98v9.97l-8.64 4.98z"/><g class="cls-6"><path class="cls-7" d="M200.32 74.7l8.63-4.98 8.64 4.98-8.64 4.99-8.63-4.99z"/><path class="cls-7" d="M200.32 84.67V74.7l8.63 4.99v9.97l-8.63-4.99zM208.95 89.66v-9.97l8.64-4.99v9.97l-8.64 4.99z"/></g><path class="cls-8" d="M138.29 119.46h78.43"/><path class="cls-9" d="M214.07 122.73l-.55-.59 2.89-2.68-2.89-2.69.55-.58 3.52 3.27-3.52 3.27z"/></g></svg>