<svg height="17.500378mm" viewBox="0 0 18.035334 17.500378" width="18.035334mm" xmlns="http://www.w3.org/2000/svg"><g transform="translate(-.992626 -1.174181)"><g transform="matrix(1.0148887 0 0 1.0148887 16.902146 -2.698726)"><path d="m-6.8492015 4.2724668a1.1191255 1.1099671 0 0 0 -.4288818.1085303l-5.8524037 2.7963394a1.1191255 1.1099671 0 0 0 -.605524.7529759l-1.443828 6.2812846a1.1191255 1.1099671 0 0 0 .151943.851028 1.1191255 1.1099671 0 0 0 .06362.08832l4.0508 5.036555a1.1191255 1.1099671 0 0 0 .874979.417654l6.4961011-.0015a1.1191255 1.1099671 0 0 0 .8749788-.416906l4.0493043-5.037295a1.1191255 1.1099671 0 0 0 .2163114-.939349l-1.44607203-6.2812886a1.1191255 1.1099671 0 0 0 -.60552451-.7529758l-5.85315166-2.7948425a1.1191255 1.1099671 0 0 0 -.5426519-.1085303z" fill="#326ce5"/><path d="m-6.8523435 3.8176372a1.1814304 1.171762 0 0 0 -.4520849.1152668l-6.1787426 2.9512758a1.1814304 1.171762 0 0 0 -.639206.794891l-1.523915 6.6308282a1.1814304 1.171762 0 0 0 .160175.89893 1.1814304 1.171762 0 0 0 .06736.09281l4.276094 5.317236a1.1814304 1.171762 0 0 0 .92363.440858l6.8576188-.0015a1.1814304 1.171762 0 0 0 .9236308-.44011l4.2745966-5.317985a1.1814304 1.171762 0 0 0 .228288-.990993l-1.52615681-6.6315712a1.1814304 1.171762 0 0 0 -.6392054-.7941425l-6.17874269-2.9512758a1.1814304 1.171762 0 0 0 -.5733398-.1145183zm.00299.4550789a1.1191255 1.1099671 0 0 1 .5426517.1085303l5.85315169 2.7948425a1.1191255 1.1099671 0 0 1 .60552822.7529759l1.44607289 6.2812852a1.1191255 1.1099671 0 0 1 -.2163123.939348l-4.0493032 5.037304a1.1191255 1.1099671 0 0 1 -.8749789.416906l-6.4961006.0015a1.1191255 1.1099671 0 0 1 -.874979-.417652l-4.0508-5.036554a1.1191255 1.1099671 0 0 1 -.06362-.08832 1.1191255 1.1099671 0 0 1 -.151942-.851028l1.443827-6.2812853a1.1191255 1.1099671 0 0 1 .605524-.7529758l5.8524036-2.7963395a1.1191255 1.1099671 0 0 1 .4288819-.1085303z" fill="#fff"/></g><g fill="#fff"><text font-family="Sans" font-size="10.583333" letter-spacing="0" stroke-width=".264583" word-spacing="0" x="10.018561" y="16.811775"><tspan fill="#fff" font-family="Arial" font-size="2.822222" stroke-width=".264583" text-anchor="middle" x="10.018561" y="16.811775">ep</tspan></text><g transform="translate(.092387)"><g fill-rule="evenodd"><path d="m4.4949897 11.296104h2.9083301v2.041667h-2.9083301z"/><path d="m8.4637406 11.296104h2.9083314v2.041667h-2.9083314z"/><path d="m12.432492 11.296104h2.90833v2.041667h-2.90833z"/><path d="m7.6137398 5.2435699h4.6083322v2.041667h-4.6083322z"/></g><g transform="matrix(.70690292 .70731059 -.70731059 .70690292 105.19939 231.56521)"><path d="m-226.88649-89.58931h.651709v2.909133h-.651709z"/><path d="m-224.426-89.870434-1.52218-1.221288-1.52219-1.221289 1.81876-.707609 1.81876-.70761-.29657 1.928898z" transform="matrix(.48870462 .18767945 -.18767945 .48870462 -133.74171 .213802)"/></g><g transform="matrix(-.70690292 .70731059 .70731059 .70690292 -85.801537 231.5652)"><path d="m-226.88649-89.58931h.651709v2.909133h-.651709z"/><path d="m-224.426-89.870434-1.52218-1.221288-1.52219-1.221289 1.81876-.707609 1.81876-.70761-.29657 1.928898z" transform="matrix(.48870462 .18767945 -.18767945 .48870462 -133.74171 .213802)"/></g><path d="m-10.222737 7.88332h.651704v2.248611h-.651704z" transform="matrix(-.99998847 -.00480149 -.00803668 .99996771 0 0)"/><path d="m-224.426-89.870434-1.52218-1.221288-1.52219-1.221289 1.81876-.707609 1.81876-.70761-.29657 1.928898z" transform="matrix(-.48986104 .18464002 .18464002 .48986104 -83.541566 96.494378)"/></g></g></g></svg>