<svg height="17.500378mm" viewBox="0 0 18.035334 17.500378" width="18.035334mm" xmlns="http://www.w3.org/2000/svg"><g transform="translate(-.992626 -1.174181)"><g transform="matrix(1.0148887 0 0 1.0148887 16.902146 -2.698726)"><path d="m-6.8492015 4.2724668a1.1191255 1.1099671 0 0 0 -.4288818.1085303l-5.8524037 2.7963394a1.1191255 1.1099671 0 0 0 -.605524.7529759l-1.443828 6.2812846a1.1191255 1.1099671 0 0 0 .151943.851028 1.1191255 1.1099671 0 0 0 .06362.08832l4.0508 5.036555a1.1191255 1.1099671 0 0 0 .874979.417654l6.4961011-.0015a1.1191255 1.1099671 0 0 0 .8749788-.416906l4.0493043-5.037295a1.1191255 1.1099671 0 0 0 .2163114-.939349l-1.44607203-6.2812886a1.1191255 1.1099671 0 0 0 -.60552451-.7529758l-5.85315166-2.7948425a1.1191255 1.1099671 0 0 0 -.5426519-.1085303z" fill="#326ce5"/><path d="m-6.8523435 3.8176372a1.1814304 1.171762 0 0 0 -.4520849.1152668l-6.1787426 2.9512758a1.1814304 1.171762 0 0 0 -.639206.794891l-1.523915 6.6308282a1.1814304 1.171762 0 0 0 .160175.89893 1.1814304 1.171762 0 0 0 .06736.09281l4.276094 5.317236a1.1814304 1.171762 0 0 0 .92363.440858l6.8576188-.0015a1.1814304 1.171762 0 0 0 .9236308-.44011l4.2745966-5.317985a1.1814304 1.171762 0 0 0 .228288-.990993l-1.52615681-6.6315712a1.1814304 1.171762 0 0 0 -.6392054-.7941425l-6.17874269-2.9512758a1.1814304 1.171762 0 0 0 -.5733398-.1145183zm.00299.4550789a1.1191255 1.1099671 0 0 1 .5426517.1085303l5.85315169 2.7948425a1.1191255 1.1099671 0 0 1 .60552822.7529759l1.44607289 6.2812852a1.1191255 1.1099671 0 0 1 -.2163123.939348l-4.0493032 5.037304a1.1191255 1.1099671 0 0 1 -.8749789.416906l-6.4961006.0015a1.1191255 1.1099671 0 0 1 -.874979-.417652l-4.0508-5.036554a1.1191255 1.1099671 0 0 1 -.06362-.08832 1.1191255 1.1099671 0 0 1 -.151942-.851028l1.443827-6.2812853a1.1191255 1.1099671 0 0 1 .605524-.7529758l5.8524036-2.7963395a1.1191255 1.1099671 0 0 1 .4288819-.1085303z" fill="#fff"/></g><g fill="#fff"><text font-family="Sans" font-size="10.583333" letter-spacing="0" stroke-width=".264583" word-spacing="0" x="10.024763" y="16.811775"><tspan fill="#fff" font-family="Arial" font-size="2.822222" stroke-width=".264583" text-anchor="middle" x="10.024763" y="16.811775">group</tspan></text><path d="m6.1663577 4.931017c-.47469 0-.85677.382079-.85677.856768v7.287704c0 .47469.38208.857057.85677.857057h7.6878813c.474679 0 .85676-.382367.85676-.857057v-7.287704c0-.474689-.382081-.856768-.85676-.856768zm2.59103 2.308032c.5199394 0 .9365204.419738.9365204.9396812 0 .5199408-.416581.9396792-.9365204.9396792-.51994 0-.93968-.4197384-.93968-.9396792 0-.5199432.41974-.9396812.93968-.9396812zm2.5058113 0c.51995 0 .93652.419738.93652.9396812 0 .5199408-.41657.9396792-.93652.9396792-.519941 0-.93968-.4197384-.93968-.9396792 0-.5199432.419739-.9396812.93968-.9396812zm-2.5058113 2.5058158c.7298004 0 2.1925913.3664962 2.1925913 1.0962942v.783066h-4.3851813v-.783066c0-.729798 1.46279-1.0962942 2.19259-1.0962942zm2.5058113 0c.7298.000001 2.19259.3664962 2.19259 1.0962942v.783066h-1.87936v-.783066c0-.463564-.25362-.817645-.616951-1.0807482.109621-.0094.212891-.01555.303721-.01555z"/></g></g></svg>