<svg height="17.500378mm" viewBox="0 0 18.035334 17.500378" width="18.035334mm" xmlns="http://www.w3.org/2000/svg"><g transform="translate(-.992626 -1.174181)"><g transform="matrix(1.0148887 0 0 1.0148887 16.902146 -2.698726)"><path d="m-6.8492015 4.2724668a1.1191255 1.1099671 0 0 0 -.4288818.1085303l-5.8524037 2.7963394a1.1191255 1.1099671 0 0 0 -.605524.7529759l-1.443828 6.2812846a1.1191255 1.1099671 0 0 0 .151943.851028 1.1191255 1.1099671 0 0 0 .06362.08832l4.0508 5.036555a1.1191255 1.1099671 0 0 0 .874979.417654l6.4961011-.0015a1.1191255 1.1099671 0 0 0 .8749788-.416906l4.0493043-5.037295a1.1191255 1.1099671 0 0 0 .2163114-.939349l-1.44607203-6.2812886a1.1191255 1.1099671 0 0 0 -.60552451-.7529758l-5.85315166-2.7948425a1.1191255 1.1099671 0 0 0 -.5426519-.1085303z" fill="#326ce5"/><path d="m-6.8523435 3.8176372a1.1814304 1.171762 0 0 0 -.4520849.1152668l-6.1787426 2.9512758a1.1814304 1.171762 0 0 0 -.639206.794891l-1.523915 6.6308282a1.1814304 1.171762 0 0 0 .160175.89893 1.1814304 1.171762 0 0 0 .06736.09281l4.276094 5.317236a1.1814304 1.171762 0 0 0 .92363.440858l6.8576188-.0015a1.1814304 1.171762 0 0 0 .9236308-.44011l4.2745966-5.317985a1.1814304 1.171762 0 0 0 .228288-.990993l-1.52615681-6.6315712a1.1814304 1.171762 0 0 0 -.6392054-.7941425l-6.17874269-2.9512758a1.1814304 1.171762 0 0 0 -.5733398-.1145183zm.00299.4550789a1.1191255 1.1099671 0 0 1 .5426517.1085303l5.85315169 2.7948425a1.1191255 1.1099671 0 0 1 .60552822.7529759l1.44607289 6.2812852a1.1191255 1.1099671 0 0 1 -.2163123.939348l-4.0493032 5.037304a1.1191255 1.1099671 0 0 1 -.8749789.416906l-6.4961006.0015a1.1191255 1.1099671 0 0 1 -.874979-.417652l-4.0508-5.036554a1.1191255 1.1099671 0 0 1 -.06362-.08832 1.1191255 1.1099671 0 0 1 -.151942-.851028l1.443827-6.2812853a1.1191255 1.1099671 0 0 1 .605524-.7529758l5.8524036-2.7963395a1.1191255 1.1099671 0 0 1 .4288819-.1085303z" fill="#fff"/></g><g fill="#fff"><text font-family="Sans" font-size="10.583333" letter-spacing="0" stroke-width=".264583" word-spacing="0" x="10.017183" y="16.811775"><tspan fill="#fff" font-family="Arial" font-size="2.822222" stroke-width=".264583" text-anchor="middle" x="10.017183" y="16.811775">netpol</tspan></text><path d="m9.489284 4.611987c-2.3134298 0-4.1909959 1.877567-4.1909959 4.1909968 0 2.3134302 1.8775661 4.1909962 4.1909959 4.1909962.518788 0 1.013889-.09837 1.472578-.270944v-.987172c0-.335904.274739-.900641.610641-.900646v-.9159582c0-.459262.684616-1.236604 1.527425-1.236604.205882 0 .401081.04145.580353.11541-.0027-2.3111508-1.879219-4.1860848-4.190997-4.1860848zm.8382 1.466849 1.466847 1.4668488h-1.047748v1.676398h-.8381984v-1.676398h-1.0477506zm-2.095496 2.3050478h.8382v1.6763992h1.04775l-1.466851 1.466848-1.4668458-1.466848h1.0477488zm4.973532 1.039564c-.598162 0-1.083765.485603-1.083765 1.0837672v.64993c-.238401 0-.433013.194618-.433013.433015v1.734515c0 .238401.194616.433017.433013.433017h2.167531c.238398 0 .433013-.194616.433013-.433017v-1.734515c0-.238397-.194615-.433015-.433013-.433015v-.64993c0-.5981642-.485602-1.0837672-1.083766-1.0837672zm0 .433014c.359768 0 .649933.2909862.649933.6507532v.64993h-1.299865v-.64993c0-.359767.290167-.6507532.649932-.6507532z" stroke-width=".4191"/></g></g></svg>