<svg height="17.500378mm" viewBox="0 0 18.035334 17.500378" width="18.035334mm" xmlns="http://www.w3.org/2000/svg"><g transform="translate(-.992626 -1.174181)"><g transform="matrix(1.0148887 0 0 1.0148887 16.902146 -2.698726)"><path d="m-6.8492015 4.2724668a1.1191255 1.1099671 0 0 0 -.4288818.1085303l-5.8524037 2.7963394a1.1191255 1.1099671 0 0 0 -.605524.7529759l-1.443828 6.2812846a1.1191255 1.1099671 0 0 0 .151943.851028 1.1191255 1.1099671 0 0 0 .06362.08832l4.0508 5.036555a1.1191255 1.1099671 0 0 0 .874979.417654l6.4961011-.0015a1.1191255 1.1099671 0 0 0 .8749788-.416906l4.0493043-5.037295a1.1191255 1.1099671 0 0 0 .2163114-.939349l-1.44607203-6.2812886a1.1191255 1.1099671 0 0 0 -.60552451-.7529758l-5.85315166-2.7948425a1.1191255 1.1099671 0 0 0 -.5426519-.1085303z" fill="#326ce5"/><path d="m-6.8523435 3.8176372a1.1814304 1.171762 0 0 0 -.4520849.1152668l-6.1787426 2.9512758a1.1814304 1.171762 0 0 0 -.639206.794891l-1.523915 6.6308282a1.1814304 1.171762 0 0 0 .160175.89893 1.1814304 1.171762 0 0 0 .06736.09281l4.276094 5.317236a1.1814304 1.171762 0 0 0 .92363.440858l6.8576188-.0015a1.1814304 1.171762 0 0 0 .9236308-.44011l4.2745966-5.317985a1.1814304 1.171762 0 0 0 .228288-.990993l-1.52615681-6.6315712a1.1814304 1.171762 0 0 0 -.6392054-.7941425l-6.17874269-2.9512758a1.1814304 1.171762 0 0 0 -.5733398-.1145183zm.00299.4550789a1.1191255 1.1099671 0 0 1 .5426517.1085303l5.85315169 2.7948425a1.1191255 1.1099671 0 0 1 .60552822.7529759l1.44607289 6.2812852a1.1191255 1.1099671 0 0 1 -.2163123.939348l-4.0493032 5.037304a1.1191255 1.1099671 0 0 1 -.8749789.416906l-6.4961006.0015a1.1191255 1.1099671 0 0 1 -.874979-.417652l-4.0508-5.036554a1.1191255 1.1099671 0 0 1 -.06362-.08832 1.1191255 1.1099671 0 0 1 -.151942-.851028l1.443827-6.2812853a1.1191255 1.1099671 0 0 1 .605524-.7529758l5.8524036-2.7963395a1.1191255 1.1099671 0 0 1 .4288819-.1085303z" fill="#fff"/></g><text style="font-size:10.583333;font-family:Sans;letter-spacing:0;word-spacing:0;fill:#fff;stroke-width:.264583" x="9.974464" y="16.917608"><tspan fill="#fff" font-family="Arial" font-size="2.822222" stroke-width=".264583" text-anchor="middle" x="9.974464" y="16.917608">rb</tspan></text><g transform="translate(-.225111)"><path d="m5.270475 4.926809h9.929858v8.657167h-9.929858z" style="fill:none;stroke:#fff;stroke-width:.4;stroke-linejoin:round;stroke-miterlimit:10;stroke-dasharray:.8 .4;stroke-dashoffset:4"/><path d="m7.1072364 9.2553918c0-.6603879.5368201-1.1971921 1.1972005-1.1971921h1.5447712v-.7337639h-1.5447712c-1.0658905 0-1.9309505.8650689-1.9309505 1.930956 0 1.0658872.86506 1.9309562 1.9309505 1.9309562h1.5447712v-.733764h-1.5447712c-.6603804 0-1.1972005-.5368064-1.1972005-1.1971922zm1.5834005.3861908h3.0895211v-.7723818h-3.0895211zm3.4757211-2.3171468h-1.54477v.7337639h1.54477c.66038 0 1.19718.5368042 1.19718 1.1971921 0 .6603858-.5368 1.1971922-1.19718 1.1971922h-1.54477v.733764h1.54477c1.06589 0 1.93095-.865069 1.93095-1.9309562 0-1.0658871-.86506-1.930956-1.93095-1.930956z" fill="#fff" stroke-width=".386191"/></g><g fill="#fff" transform="matrix(.28222222 0 0 .28222222 .992626 1.174181)"><path d="m26.584996 13.294473v-.6875h1.375 1.375v.6875.6875h-1.375-1.375z"/><path d="m30.834996 13.294473v-.6875h1.375 1.375v.6875.6875h-1.375-1.375z"/><path d="m35.084996 13.294473v-.6875h1.375 1.375v.6875.6875h-1.375-1.375z"/><path d="m39.334996 13.294473v-.6875h1.375 1.375v.6875.6875h-1.375-1.375z"/><path d="m43.584996 13.294473v-.6875h1.375 1.375v.6875.6875h-1.375-1.375z"/></g></g></svg>