<svg height="17.500378mm" viewBox="0 0 18.035334 17.500378" width="18.035334mm" xmlns="http://www.w3.org/2000/svg"><g transform="translate(-.992626 -1.174181)"><g transform="matrix(1.0148887 0 0 1.0148887 16.902146 -2.698726)"><path d="m-6.8492015 4.2724668a1.1191255 1.1099671 0 0 0 -.4288818.1085303l-5.8524037 2.7963394a1.1191255 1.1099671 0 0 0 -.605524.7529759l-1.443828 6.2812846a1.1191255 1.1099671 0 0 0 .151943.851028 1.1191255 1.1099671 0 0 0 .06362.08832l4.0508 5.036555a1.1191255 1.1099671 0 0 0 .874979.417654l6.4961011-.0015a1.1191255 1.1099671 0 0 0 .8749788-.416906l4.0493043-5.037295a1.1191255 1.1099671 0 0 0 .2163114-.939349l-1.44607203-6.2812886a1.1191255 1.1099671 0 0 0 -.60552451-.7529758l-5.85315166-2.7948425a1.1191255 1.1099671 0 0 0 -.5426519-.1085303z" fill="#326ce5"/><path d="m-6.8523435 3.8176372a1.1814304 1.171762 0 0 0 -.4520849.1152668l-6.1787426 2.9512758a1.1814304 1.171762 0 0 0 -.639206.794891l-1.523915 6.6308282a1.1814304 1.171762 0 0 0 .160175.89893 1.1814304 1.171762 0 0 0 .06736.09281l4.276094 5.317236a1.1814304 1.171762 0 0 0 .92363.440858l6.8576188-.0015a1.1814304 1.171762 0 0 0 .9236308-.44011l4.2745966-5.317985a1.1814304 1.171762 0 0 0 .228288-.990993l-1.52615681-6.6315712a1.1814304 1.171762 0 0 0 -.6392054-.7941425l-6.17874269-2.9512758a1.1814304 1.171762 0 0 0 -.5733398-.1145183zm.00299.4550789a1.1191255 1.1099671 0 0 1 .5426517.1085303l5.85315169 2.7948425a1.1191255 1.1099671 0 0 1 .60552822.7529759l1.44607289 6.2812852a1.1191255 1.1099671 0 0 1 -.2163123.939348l-4.0493032 5.037304a1.1191255 1.1099671 0 0 1 -.8749789.416906l-6.4961006.0015a1.1191255 1.1099671 0 0 1 -.874979-.417652l-4.0508-5.036554a1.1191255 1.1099671 0 0 1 -.06362-.08832 1.1191255 1.1099671 0 0 1 -.151942-.851028l1.443827-6.2812853a1.1191255 1.1099671 0 0 1 .605524-.7529758l5.8524036-2.7963395a1.1191255 1.1099671 0 0 1 .4288819-.1085303z" fill="#fff"/></g><text style="font-size:10.583333;font-family:Sans;letter-spacing:0;word-spacing:0;fill:#fff;stroke-width:.264583" x="9.979977" y="16.811775"><tspan fill="#fff" font-family="Arial" font-size="2.822222" stroke-width=".264583" text-anchor="middle" x="9.979977" y="16.811775">sc</tspan></text><g fill-rule="evenodd"><path d="m5.4198595 10.526751c0 .376676 2.10346.682033 4.6982195.682033 2.594751 0 4.69821-.305357 4.69821-.682033v1.845045c0 .376674-2.103459.68203-4.69821.68203-2.5947595 0-4.6982195-.305356-4.6982195-.68203z" fill="#326ce5"/><path d="m5.4198595 10.526751c0-.376674 2.10346-.6820334 4.6982195-.6820334 2.594751 0 4.69821.3053594 4.69821.6820334 0 .376676-2.103459.682033-4.69821.682033-2.5947595 0-4.6982195-.305357-4.6982195-.682033z" fill="#326ce5"/><path d="m5.4198595 8.2170433c0 .376676 2.10346.6820319 4.6982195.6820319 2.594751 0 4.69821-.3053559 4.69821-.6820319v1.8450457c0 .376674-2.103459.68203-4.69821.68203-2.5947595 0-4.6982195-.305356-4.6982195-.68203z" fill="#fff" stroke="#eee" stroke-linecap="square" stroke-miterlimit="10" stroke-width=".207574"/><path d="m5.4198595 8.2170433c0-.376675 2.10346-.6820325 4.6982195-.6820325 2.594751 0 4.69821.3053575 4.69821.6820325 0 .376676-2.103459.6820319-4.69821.6820319-2.5947595 0-4.6982195-.3053559-4.6982195-.6820319z" fill="#326ce5"/><path d="m5.4199585 5.6616598c0-.376674 2.103456-.682032 4.6982235-.682032 2.594746 0 4.698212.305358 4.698212.682032 0 .376676-2.103466.682032-4.698212.682032-2.5947675 0-4.6982235-.305356-4.6982235-.682032z" fill="#326ce5"/></g><g transform="translate(-.107871)"><path d="m14.816289 10.881103c0 .376676-2.103459.682033-4.69821.682033-2.5947495 0-4.6982195-.305357-4.6982195-.682033 0-.376675 2.10347-.682031 4.6982195-.682031 2.594751 0 4.69821.305356 4.69821.682031v1.845046c0 .376673-2.103459.682029-4.69821.682029-2.5947495 0-4.6982195-.305356-4.6982195-.682029v-1.845046" style="fill:none;stroke:#fff;stroke-width:.415;stroke-linejoin:round;stroke-miterlimit:10;stroke-dasharray:1.66 .415"/><path d="m14.816289 8.2170433c0 .376676-2.103459.6820319-4.69821.6820319-2.5947495 0-4.6982195-.3053559-4.6982195-.6820319 0-.376675 2.10347-.6820325 4.6982195-.6820325 2.594751 0 4.69821.3053575 4.69821.6820325v1.8450457c0 .376674-2.103459.68203-4.69821.68203-2.5947495 0-4.6982195-.305356-4.6982195-.68203v-1.8450457" fill="none" stroke="#fff" stroke-linejoin="round" stroke-miterlimit="10" stroke-width=".415"/><path d="m5.4199585 5.6616598c0 .376676 2.103456.682032 4.6982235.682032 2.594746 0 4.698212-.305356 4.698212-.682032v1.845045c0 .3766745-2.103466.6820305-4.698212.6820305-2.5947675 0-4.6982235-.305356-4.6982235-.6820305z" fill="#326ce5" fill-rule="evenodd"/><path d="m14.816394 5.6616598c0 .376676-2.103466.682032-4.698212.682032-2.5947575 0-4.6982235-.305356-4.6982235-.682032 0-.376674 2.103466-.682032 4.6982235-.682032 2.594746 0 4.698212.305358 4.698212.682032v1.845045c0 .3766745-2.103466.6820305-4.698212.6820305-2.5947575 0-4.6982235-.305356-4.6982235-.6820305v-1.845045" style="fill:none;stroke:#fff;stroke-width:.415149;stroke-linejoin:round;stroke-miterlimit:10;stroke-dasharray:1.660594 .415149"/></g></g></svg>