<svg height="17.500378mm" viewBox="0 0 18.035334 17.500378" width="18.035334mm" xmlns="http://www.w3.org/2000/svg"><g transform="translate(-.992626 -1.174181)"><g transform="matrix(1.0148887 0 0 1.0148887 16.937424 -2.698726)"><path d="m-6.8492015 4.2724668a1.1191255 1.1099671 0 0 0 -.4288818.1085303l-5.8524037 2.7963394a1.1191255 1.1099671 0 0 0 -.605524.7529759l-1.443828 6.2812846a1.1191255 1.1099671 0 0 0 .151943.851028 1.1191255 1.1099671 0 0 0 .06362.08832l4.0508 5.036555a1.1191255 1.1099671 0 0 0 .874979.417654l6.4961011-.0015a1.1191255 1.1099671 0 0 0 .8749788-.416906l4.0493043-5.037295a1.1191255 1.1099671 0 0 0 .2163114-.939349l-1.44607203-6.2812886a1.1191255 1.1099671 0 0 0 -.60552451-.7529758l-5.85315166-2.7948425a1.1191255 1.1099671 0 0 0 -.5426519-.1085303z" fill="#326ce5"/><path d="m-6.8523435 3.8176372a1.1814304 1.171762 0 0 0 -.4520849.1152668l-6.1787426 2.9512758a1.1814304 1.171762 0 0 0 -.639206.794891l-1.523915 6.6308282a1.1814304 1.171762 0 0 0 .160175.89893 1.1814304 1.171762 0 0 0 .06736.09281l4.276094 5.317236a1.1814304 1.171762 0 0 0 .92363.440858l6.8576188-.0015a1.1814304 1.171762 0 0 0 .9236308-.44011l4.2745966-5.317985a1.1814304 1.171762 0 0 0 .228288-.990993l-1.52615681-6.6315712a1.1814304 1.171762 0 0 0 -.6392054-.7941425l-6.17874269-2.9512758a1.1814304 1.171762 0 0 0 -.5733398-.1145183zm.00299.4550789a1.1191255 1.1099671 0 0 1 .5426517.1085303l5.85315169 2.7948425a1.1191255 1.1099671 0 0 1 .60552822.7529759l1.44607289 6.2812852a1.1191255 1.1099671 0 0 1 -.2163123.939348l-4.0493032 5.037304a1.1191255 1.1099671 0 0 1 -.8749789.416906l-6.4961006.0015a1.1191255 1.1099671 0 0 1 -.874979-.417652l-4.0508-5.036554a1.1191255 1.1099671 0 0 1 -.06362-.08832 1.1191255 1.1099671 0 0 1 -.151942-.851028l1.443827-6.2812853a1.1191255 1.1099671 0 0 1 .605524-.7529758l5.8524036-2.7963395a1.1191255 1.1099671 0 0 1 .4288819-.1085303z" fill="#fff"/></g><text style="font-size:10.583333;font-family:Sans;letter-spacing:0;word-spacing:0;fill:#fff;stroke-width:.264583" x="10.056596" y="16.811775"><tspan fill="#fff" font-family="Arial" font-size="2.822222" stroke-width=".264583" text-anchor="middle" x="10.056596" y="16.811775">sts</tspan></text><g transform="translate(.268778)"><path d="m8.0530333 5.1290756h6.5250067v4.583335h-6.5250067z" style="fill:none;stroke:#fff;stroke-width:.529146;stroke-linecap:square;stroke-linejoin:round;stroke-miterlimit:10;stroke-dasharray:1.587438 1.587438;stroke-dashoffset:3.666981"/><path d="m6.5142849 6.5403876h6.5250071v4.5833354h-6.5250071z" style="fill:#326ce5;fill-rule:evenodd;stroke:#fff;stroke-width:.529146;stroke-linecap:square;stroke-linejoin:round;stroke-miterlimit:10;stroke-dasharray:1.587438 1.587438;stroke-dashoffset:3.878639"/><path d="m4.9755578 7.9516984h6.5249912v4.5833346h-6.5249912z" fill="#fff" fill-rule="evenodd"/><path d="m4.9755578 7.9516984h6.5249912v4.5833346h-6.5249912z" fill="none" stroke="#fff" stroke-linejoin="round" stroke-miterlimit="10" stroke-width=".529167"/><path d="m5.5087198 9.2260482c0-.4294054 1.2218881-.7775054 2.7291615-.7775054 1.5072743 0 2.7291787.3481 2.7291787.7775054 0 .4294054-1.2219044.7775068-2.7291787.7775068-1.5072734 0-2.7291615-.3481014-2.7291615-.7775068z" fill="#fff" fill-rule="evenodd"/><g fill="none"><path d="m10.967067 9.2260482c0 .4294054-1.2219064.7775068-2.7291777.7775068-1.5072734 0-2.7291614-.3481014-2.7291614-.7775068 0-.4294054 1.221888-.7775054 2.7291614-.7775054 1.5072733 0 2.7291777.3481 2.7291777.7775054v2.1033228c0 .429405-1.2219064.777506-2.7291777.777506-1.5072734 0-2.7291614-.348101-2.7291614-.777506v-2.1033228"/><path d="m10.967067 9.2260482c0 .4294054-1.2219064.7775068-2.7291777.7775068-1.5072734 0-2.7291614-.3481014-2.7291614-.7775068 0-.4294054 1.221888-.7775054 2.7291614-.7775054 1.5072733 0 2.7291777.3481 2.7291777.7775054v2.1033228c0 .429405-1.2219064.777506-2.7291777.777506-1.5072734 0-2.7291614-.348101-2.7291614-.777506v-2.1033228" stroke="#326ce5" stroke-linejoin="round" stroke-miterlimit="10" stroke-width=".529167"/></g></g></g></svg>