<?xml version="1.0" encoding="UTF-8" standalone="no"?>
<!-- Created with Inkscape (http://www.inkscape.org/) -->

<svg
   xmlns:dc="http://purl.org/dc/elements/1.1/"
   xmlns:cc="http://creativecommons.org/ns#"
   xmlns:rdf="http://www.w3.org/1999/02/22-rdf-syntax-ns#"
   xmlns:svg="http://www.w3.org/2000/svg"
   xmlns="http://www.w3.org/2000/svg"
   xmlns:sodipodi="http://sodipodi.sourceforge.net/DTD/sodipodi-0.dtd"
   xmlns:inkscape="http://www.inkscape.org/namespaces/inkscape"
   width="17.26676mm"
   height="16.833418mm"
   viewBox="0 0 17.26676 16.833418"
   version="1.1"
   id="svg5828"
   inkscape:version="0.92.2 2405546, 2018-03-11"
   sodipodi:docname="c-role.svg">
  <defs
     id="defs5822" />
  <sodipodi:namedview
     id="base"
     pagecolor="#ffffff"
     bordercolor="#666666"
     borderopacity="1.0"
     inkscape:pageopacity="0.0"
     inkscape:pageshadow="2"
     inkscape:zoom="7.9195959"
     inkscape:cx="-26.559303"
     inkscape:cy="16.613424"
     inkscape:document-units="mm"
     inkscape:current-layer="layer1"
     showgrid="false"
     inkscape:window-width="2560"
     inkscape:window-height="1556"
     inkscape:window-x="0"
     inkscape:window-y="0"
     inkscape:window-maximized="1"
     fit-margin-top="0"
     fit-margin-left="0"
     fit-margin-right="0"
     fit-margin-bottom="0" />
  <metadata
     id="metadata5825">
    <rdf:RDF>
      <cc:Work
         rdf:about="">
        <dc:format>image/svg+xml</dc:format>
        <dc:type
           rdf:resource="http://purl.org/dc/dcmitype/StillImage" />
        <dc:title />
      </cc:Work>
    </rdf:RDF>
  </metadata>
  <g
     inkscape:label="Calque 1"
     inkscape:groupmode="layer"
     id="layer1"
     transform="translate(-0.455076,-0.569368)">
    <path
       style="fill:#ffffff;stroke:none;stroke-width:0.26458332"
       inkscape:connector-curvature="0"
       d="M 8.84856,5.081715 C 8.025706,5.084315 7.358956,5.745819 7.358956,6.560735 V 7.17986 H 10.34081 V 6.550152 C 10.33291,5.737881 9.668768,5.08436 8.84856,5.081715 Z"
       pointer-events="none"
       id="path7836-2" />
    <ellipse
       style="fill:#ffffff;stroke:none;stroke-width:0.26458332"
       cx="8.6924591"
       cy="9.9341879"
       rx="1.0577593"
       ry="1.0493258"
       pointer-events="none"
       id="ellipse7838-8" />
    <path
       style="fill:#ffffff;stroke:none;stroke-width:0.26458332"
       inkscape:connector-curvature="0"
       d="M 8.819456,1.425173 2.326581,4.295902 v 4.283604 c 0,3.971396 2.767542,7.6835 6.492875,8.585729 3.720042,-0.902229 6.490229,-4.614333 6.490229,-8.585729 V 4.295902 Z m 3.436937,11.527896 H 5.379873 V 7.17986 H 6.366768 V 6.550152 c 0,-1.359958 1.11125,-2.463271 2.484438,-2.463271 1.373187,0 2.484437,1.103313 2.484437,2.463271 V 7.17986 h 0.92075 z"
       pointer-events="none"
       id="path7840-4" />
    <path
       id="path7877"
       d="m 0.455076,11.39499 1.70997,-7.491565 6.92342,-3.334057 6.92339,3.334057 1.70998,7.491565 -4.7912,6.007796 h -7.68435 z"
       inkscape:connector-curvature="0"
       style="fill:#326ce5;fill-opacity:1;fill-rule:evenodd;stroke:none;stroke-width:0.26458332;stroke-linecap:square;stroke-miterlimit:10" />
    <text
       xml:space="preserve"
       style="font-style:normal;font-weight:normal;font-size:10.58333302px;line-height:6.61458302px;font-family:Sans;letter-spacing:0px;word-spacing:0px;fill:#eeeeee;fill-opacity:1;stroke:none;stroke-width:0.26458332px;stroke-linecap:butt;stroke-linejoin:miter;stroke-opacity:1"
       x="9.058136"
       y="16.248743"
       id="text7883"><tspan
         sodipodi:role="line"
         id="tspan7881"
         x="9.058136"
         y="16.248743"
         style="font-style:normal;font-variant:normal;font-weight:normal;font-stretch:normal;font-size:2.82222223px;font-family:Arial;-inkscape-font-specification:'Arial, Normal';font-variant-ligatures:normal;font-variant-caps:normal;font-variant-numeric:normal;font-feature-settings:normal;text-align:center;writing-mode:lr-tb;text-anchor:middle;fill:#eeeeee;fill-opacity:1;stroke-width:0.26458332px">c.role</tspan></text>
    <path
       style="fill:#eeeeee;fill-opacity:1;stroke:none;stroke-width:0.12665248"
       inkscape:connector-curvature="0"
       d="M 9.103021,6.969136 C 8.709132,6.970536 8.389968,7.287032 8.389968,7.677123 V 7.973487 H 9.817342 V 7.672059 C 9.813542,7.283231 9.495644,6.9704 9.103021,6.969136 Z"
       pointer-events="none"
       id="path7836-7" />
    <ellipse
       style="fill:#eeeeee;fill-opacity:1;stroke:none;stroke-width:0.12665248"
       cx="9.0282974"
       cy="9.2919416"
       rx="0.50633514"
       ry="0.50229818"
       pointer-events="none"
       id="ellipse7838-2" />
    <path
       style="fill:#eeeeee;fill-opacity:1;stroke:none;stroke-width:0.12665248"
       inkscape:connector-curvature="0"
       d="M 9.089089,5.218799 5.981038,6.59298 v 2.050501 c 0,1.901056 1.324784,3.677988 3.108051,4.109873 1.780734,-0.431885 3.106786,-2.208817 3.106786,-4.109873 V 6.59298 Z m 1.645216,5.518246 H 7.442607 V 7.973487 H 7.915021 V 7.672059 c 0,-0.650995 0.53194,-1.17914 1.189266,-1.17914 0.657327,0 1.189267,0.528145 1.189267,1.17914 v 0.301428 h 0.440751 z"
       pointer-events="none"
       id="path7840-40" />
  </g>
</svg>
