<?xml version="1.0" encoding="UTF-8" standalone="no"?>
<!-- Created with Inkscape (http://www.inkscape.org/) -->

<svg
   xmlns:dc="http://purl.org/dc/elements/1.1/"
   xmlns:cc="http://creativecommons.org/ns#"
   xmlns:rdf="http://www.w3.org/1999/02/22-rdf-syntax-ns#"
   xmlns:svg="http://www.w3.org/2000/svg"
   xmlns="http://www.w3.org/2000/svg"
   xmlns:sodipodi="http://sodipodi.sourceforge.net/DTD/sodipodi-0.dtd"
   xmlns:inkscape="http://www.inkscape.org/namespaces/inkscape"
   width="17.26676mm"
   height="16.833418mm"
   viewBox="0 0 17.26676 16.833418"
   version="1.1"
   id="svg13826"
   inkscape:version="0.92.2 2405546, 2018-03-11"
   sodipodi:docname="crd.svg">
  <defs
     id="defs13820" />
  <sodipodi:namedview
     id="base"
     pagecolor="#ffffff"
     bordercolor="#666666"
     borderopacity="1.0"
     inkscape:pageopacity="0.0"
     inkscape:pageshadow="2"
     inkscape:zoom="5.6"
     inkscape:cx="-26.405501"
     inkscape:cy="-14.998618"
     inkscape:document-units="mm"
     inkscape:current-layer="layer1"
     showgrid="false"
     inkscape:window-width="2560"
     inkscape:window-height="1556"
     inkscape:window-x="0"
     inkscape:window-y="0"
     inkscape:window-maximized="1"
     fit-margin-top="0"
     fit-margin-left="0"
     fit-margin-right="0"
     fit-margin-bottom="0" />
  <metadata
     id="metadata13823">
    <rdf:RDF>
      <cc:Work
         rdf:about="">
        <dc:format>image/svg+xml</dc:format>
        <dc:type
           rdf:resource="http://purl.org/dc/dcmitype/StillImage" />
        <dc:title></dc:title>
      </cc:Work>
    </rdf:RDF>
  </metadata>
  <g
     inkscape:label="Calque 1"
     inkscape:groupmode="layer"
     id="layer1"
     transform="translate(-1.335742,-1.510374)">
    <path
       id="path6553"
       d="m 1.335742,12.335996 1.70997,-7.491565 6.92342,-3.334057 6.92339,3.334057 1.70998,7.491565 -4.7912,6.007796 h -7.68435 z"
       inkscape:connector-curvature="0"
       style="fill:#326ce5;fill-opacity:1;fill-rule:evenodd;stroke:none;stroke-width:0.26458332;stroke-linecap:square;stroke-miterlimit:10" />
    <text
       xml:space="preserve"
       style="font-style:normal;font-weight:normal;font-size:10.58333302px;line-height:6.61458302px;font-family:Sans;letter-spacing:0px;word-spacing:0px;fill:#eeeeee;fill-opacity:1;stroke:none;stroke-width:0.26458332px;stroke-linecap:butt;stroke-linejoin:miter;stroke-opacity:1"
       x="9.9388018"
       y="17.189751"
       id="text6561"><tspan
         sodipodi:role="line"
         id="tspan6559"
         x="9.9388018"
         y="17.189751"
         style="font-style:normal;font-variant:normal;font-weight:normal;font-stretch:normal;font-size:2.82222223px;font-family:Arial;-inkscape-font-specification:'Arial, Normal';font-variant-ligatures:normal;font-variant-caps:normal;font-variant-numeric:normal;font-feature-settings:normal;text-align:center;writing-mode:lr-tb;text-anchor:middle;fill:#eeeeee;fill-opacity:1;stroke-width:0.26458332px">crd</tspan></text>
    <path
       style="fill:#eeeeee;fill-opacity:1;stroke-width:0.46185368"
       inkscape:connector-curvature="0"
       d="m 14.636912,9.474263 h -0.69278 V 7.626847 c 0,-0.508038 -0.415668,-0.923706 -0.923706,-0.923706 H 11.17301 v -0.69278 c 0,-0.637359 -0.517276,-1.154636 -1.154634,-1.154636 -0.637358,0 -1.154634,0.517277 -1.154634,1.154636 v 0.69278 H 7.016326 c -0.508038,0 -0.919089,0.415668 -0.919089,0.923706 v 1.755045 h 0.688164 c 0.688161,0 1.247005,0.558843 1.247005,1.247005 0,0.688162 -0.558844,1.247005 -1.247005,1.247005 H 6.09262 v 1.755045 c 0,0.508038 0.415668,0.923706 0.923706,0.923706 h 1.755045 v -0.692781 c 0,-0.688161 0.558843,-1.247005 1.247005,-1.247005 0.688162,0 1.247005,0.558844 1.247005,1.247005 v 0.692781 h 1.755045 c 0.508038,0 0.923706,-0.415668 0.923706,-0.923706 v -1.847416 h 0.69278 c 0.637359,0 1.154636,-0.517276 1.154636,-1.154634 0,-0.637358 -0.517277,-1.154634 -1.154636,-1.154634 z"
       id="path7415" />
  </g>
</svg>
