<?xml version="1.0" encoding="UTF-8" standalone="no"?>
<!-- Created with Inkscape (http://www.inkscape.org/) -->

<svg
   xmlns:dc="http://purl.org/dc/elements/1.1/"
   xmlns:cc="http://creativecommons.org/ns#"
   xmlns:rdf="http://www.w3.org/1999/02/22-rdf-syntax-ns#"
   xmlns:svg="http://www.w3.org/2000/svg"
   xmlns="http://www.w3.org/2000/svg"
   xmlns:sodipodi="http://sodipodi.sourceforge.net/DTD/sodipodi-0.dtd"
   xmlns:inkscape="http://www.inkscape.org/namespaces/inkscape"
   width="17.266743mm"
   height="16.8375mm"
   viewBox="0 0 17.266743 16.8375"
   version="1.1"
   id="svg11899"
   inkscape:version="0.92.2 2405546, 2018-03-11"
   sodipodi:docname="deploy.svg">
  <defs
     id="defs11893" />
  <sodipodi:namedview
     id="base"
     pagecolor="#ffffff"
     bordercolor="#666666"
     borderopacity="1.0"
     inkscape:pageopacity="0.0"
     inkscape:pageshadow="2"
     inkscape:zoom="3.959798"
     inkscape:cx="-34.913484"
     inkscape:cy="-27.913865"
     inkscape:document-units="mm"
     inkscape:current-layer="layer1"
     showgrid="false"
     inkscape:window-width="2560"
     inkscape:window-height="1556"
     inkscape:window-x="0"
     inkscape:window-y="0"
     inkscape:window-maximized="1"
     fit-margin-top="0"
     fit-margin-left="0"
     fit-margin-right="0"
     fit-margin-bottom="0" />
  <metadata
     id="metadata11896">
    <rdf:RDF>
      <cc:Work
         rdf:about="">
        <dc:format>image/svg+xml</dc:format>
        <dc:type
           rdf:resource="http://purl.org/dc/dcmitype/StillImage" />
        <dc:title />
      </cc:Work>
    </rdf:RDF>
  </metadata>
  <g
     inkscape:label="Calque 1"
     inkscape:groupmode="layer"
     id="layer1"
     transform="translate(-1.121967,-1.132874)">
    <path
       id="path868"
       d="m 1.121967,11.958502 1.70997,-7.491566 6.9234,-3.334062 6.923399,3.334062 1.709973,7.491566 -4.791192,6.007793 h -7.68435 z"
       inkscape:connector-curvature="0"
       style="fill:#326ce5;fill-opacity:1;fill-rule:evenodd;stroke:none;stroke-width:0.26458332;stroke-linecap:square;stroke-miterlimit:10" />
    <path
       id="path1222"
       d="m 10.038157,13.990722 v 0 C 7.595517,14.106267 5.518107,12.227476 5.388437,9.785553 5.258747,7.34363 7.125497,5.25538 9.566627,5.111569 c 2.44112,-0.143811 4.54014,1.71081 4.69808,4.151068 l -1.75708,0.113721 c -0.0954,-1.473818 -1.36311,-2.593935 -2.83746,-2.50708 -1.47434,0.08686 -2.60178,1.348076 -2.52346,2.822899 0.0783,1.474823 1.333,2.609539 2.80825,2.539754 z"
       inkscape:connector-curvature="0"
       style="fill:#eeeeee;fill-rule:evenodd;stroke:none;stroke-width:0.26458332;stroke-linecap:square;stroke-miterlimit:10" />
    <path
       id="path1224"
       d="m 11.030047,9.267891 1.39745,3.420509 3.2263,-3.420509 z"
       inkscape:connector-curvature="0"
       style="fill:#eeeeee;fill-rule:evenodd;stroke:none;stroke-width:0.26458332;stroke-linecap:square;stroke-miterlimit:10" />
    <path
       id="path1226"
       d="m 2.250477,13.662041 h 15.008319 v 4.308332 H 2.250477 Z"
       inkscape:connector-curvature="0"
       style="fill:#000000;fill-opacity:0;fill-rule:evenodd;stroke:none;stroke-width:0.26458332;stroke-linecap:square;stroke-miterlimit:10" />
    <path
       id="path1228"
       d="m 6.733217,16.805751 v -0.186035 q -0.13642,0.219108 -0.40927,0.219108 -0.17364,0 -0.32247,-0.09509 -0.14469,-0.09922 -0.22737,-0.268717 -0.0785,-0.173633 -0.0785,-0.396875 0,-0.219108 0.0744,-0.396875 0.0744,-0.181901 0.21911,-0.276986 0.1447,-0.09508 0.3266,-0.09508 0.13229,0 0.23564,0.05788 0.10335,0.05374 0.16536,0.144694 v -0.72347 h 0.24805 v 2.017448 z m -0.78135,-0.727604 q 0,0.276985 0.11576,0.417545 0.11989,0.14056 0.28112,0.14056 0.16123,0 0.27285,-0.132291 0.11576,-0.136426 0.11576,-0.405144 0,-0.30179 -0.11576,-0.44235 -0.11575,-0.14056 -0.28525,-0.14056 -0.16123,0 -0.27286,0.136426 -0.11162,0.132292 -0.11162,0.425814 z m 2.40315,0.256315 0.25632,0.03307 q -0.062,0.223242 -0.22738,0.347265 -0.16123,0.124024 -0.41754,0.124024 -0.31833,0 -0.5085,-0.198438 -0.18604,-0.198437 -0.18604,-0.553971 0,-0.367936 0.19017,-0.570508 0.19017,-0.206706 0.49196,-0.206706 0.29352,0 0.47956,0.202572 0.18604,0.198438 0.18604,0.56224 0,0.02067 0,0.06201 h -1.09141 q 0.0124,0.243913 0.13642,0.372071 0.12403,0.128157 0.30593,0.128157 0.13642,0 0.23151,-0.07028 0.0951,-0.07441 0.15296,-0.23151 z m -0.81442,-0.401009 h 0.81855 q -0.0165,-0.181901 -0.0951,-0.276986 -0.11989,-0.14056 -0.30592,-0.14056 -0.1695,0 -0.28939,0.115755 -0.11576,0.111621 -0.12816,0.301791 z m 1.38202,1.434537 v -2.025716 h 0.22738 v 0.19017 q 0.0786,-0.111621 0.17777,-0.165365 0.10335,-0.05788 0.24391,-0.05788 0.18603,0 0.33073,0.09922 0.14469,0.09508 0.21497,0.272852 0.0744,0.173633 0.0744,0.384472 0,0.223243 -0.0827,0.405144 -0.0786,0.177767 -0.23151,0.272851 -0.15296,0.09509 -0.32246,0.09509 -0.12402,0 -0.22324,-0.04961 -0.0992,-0.05374 -0.16123,-0.136425 v 0.715201 z m 0.22324,-1.285709 q 0,0.28112 0.11576,0.417545 0.11575,0.136426 0.27699,0.136426 0.16536,0 0.28112,-0.14056 0.11988,-0.14056 0.11988,-0.434082 0,-0.276985 -0.11575,-0.417545 -0.11576,-0.14056 -0.27699,-0.14056 -0.15709,0 -0.28112,0.148828 -0.11989,0.148828 -0.11989,0.429948 z m 1.34067,0.72347 v -2.017448 h 0.24805 v 2.017448 z m 0.53958,-0.731738 q 0,-0.405144 0.22324,-0.599447 0.19017,-0.165365 0.45889,-0.165365 0.30179,0 0.49196,0.198438 0.1943,0.198437 0.1943,0.545703 0,0.28112 -0.0868,0.446484 -0.0827,0.161231 -0.24392,0.252181 -0.16123,0.08682 -0.35553,0.08682 -0.30592,0 -0.49609,-0.194304 -0.18604,-0.198437 -0.18604,-0.570507 z m 0.25218,0 q 0,0.281119 0.12403,0.421679 0.12402,0.14056 0.30592,0.14056 0.18604,0 0.30592,-0.14056 0.12403,-0.14056 0.12403,-0.429948 0,-0.268717 -0.12403,-0.409277 -0.11988,-0.14056 -0.30592,-0.14056 -0.1819,0 -0.30592,0.14056 -0.12403,0.136426 -0.12403,0.417546 z m 1.39443,1.293977 -0.0248,-0.23151 q 0.0785,0.02067 0.14056,0.02067 0.0827,0 0.13229,-0.02894 0.0496,-0.02481 0.0827,-0.07441 0.0207,-0.03721 0.0744,-0.186035 0.008,-0.02067 0.0207,-0.05788 l -0.55397,-1.46761 h 0.26872 l 0.30178,0.847493 q 0.062,0.161231 0.10749,0.338998 0.0413,-0.169499 0.0992,-0.334864 l 0.31419,-0.851627 h 0.24805 l -0.5581,1.488281 q -0.0868,0.239779 -0.13643,0.330729 -0.0661,0.124023 -0.15296,0.181901 -0.0827,0.05788 -0.20258,0.05788 -0.0703,0 -0.16122,-0.03307 z"
       inkscape:connector-curvature="0"
       style="fill:#eeeeee;fill-rule:nonzero;stroke:none;stroke-width:0.26458332;stroke-linecap:square;stroke-miterlimit:10" />
  </g>
</svg>
