<?xml version="1.0" encoding="UTF-8" standalone="no"?>
<!-- Created with Inkscape (http://www.inkscape.org/) -->

<svg
   xmlns:dc="http://purl.org/dc/elements/1.1/"
   xmlns:cc="http://creativecommons.org/ns#"
   xmlns:rdf="http://www.w3.org/1999/02/22-rdf-syntax-ns#"
   xmlns:svg="http://www.w3.org/2000/svg"
   xmlns="http://www.w3.org/2000/svg"
   xmlns:sodipodi="http://sodipodi.sourceforge.net/DTD/sodipodi-0.dtd"
   xmlns:inkscape="http://www.inkscape.org/namespaces/inkscape"
   width="17.26676mm"
   height="16.833418mm"
   viewBox="0 0 17.26676 16.833418"
   version="1.1"
   id="svg4583"
   inkscape:version="0.92.2 2405546, 2018-03-11"
   sodipodi:docname="netpol.svg">
  <defs
     id="defs4577" />
  <sodipodi:namedview
     id="base"
     pagecolor="#ffffff"
     bordercolor="#666666"
     borderopacity="1.0"
     inkscape:pageopacity="0.0"
     inkscape:pageshadow="2"
     inkscape:zoom="11.2"
     inkscape:cx="-9.2245623"
     inkscape:cy="19.716285"
     inkscape:document-units="mm"
     inkscape:current-layer="layer1"
     showgrid="false"
     inkscape:window-width="2560"
     inkscape:window-height="1556"
     inkscape:window-x="0"
     inkscape:window-y="0"
     inkscape:window-maximized="1"
     fit-margin-top="0"
     fit-margin-left="0"
     fit-margin-right="0"
     fit-margin-bottom="0" />
  <metadata
     id="metadata4580">
    <rdf:RDF>
      <cc:Work
         rdf:about="">
        <dc:format>image/svg+xml</dc:format>
        <dc:type
           rdf:resource="http://purl.org/dc/dcmitype/StillImage" />
        <dc:title />
      </cc:Work>
    </rdf:RDF>
  </metadata>
  <g
     inkscape:label="Calque 1"
     inkscape:groupmode="layer"
     id="layer1"
     transform="translate(-1.335743,-1.014281)">
    <path
       id="path7499"
       d="m 1.335743,11.839903 1.70997,-7.491565 6.92342,-3.334057 6.92339,3.334057 1.70998,7.491565 -4.7912,6.007796 h -7.68435 z"
       inkscape:connector-curvature="0"
       style="fill:#326ce5;fill-opacity:1;fill-rule:evenodd;stroke:none;stroke-width:0.26458332;stroke-linecap:square;stroke-miterlimit:10" />
    <text
       xml:space="preserve"
       style="font-style:normal;font-weight:normal;font-size:10.58333302px;line-height:6.61458302px;font-family:Sans;letter-spacing:0px;word-spacing:0px;fill:#eeeeee;fill-opacity:1;stroke:none;stroke-width:0.26458332px;stroke-linecap:butt;stroke-linejoin:miter;stroke-opacity:1"
       x="9.9388018"
       y="16.693657"
       id="text7507"><tspan
         sodipodi:role="line"
         id="tspan7505"
         x="9.9388018"
         y="16.693657"
         style="font-style:normal;font-variant:normal;font-weight:normal;font-stretch:normal;font-size:2.82222223px;font-family:Arial;-inkscape-font-specification:'Arial, Normal';font-variant-ligatures:normal;font-variant-caps:normal;font-variant-numeric:normal;font-feature-settings:normal;text-align:center;writing-mode:lr-tb;text-anchor:middle;fill:#eeeeee;fill-opacity:1;stroke-width:0.26458332px">netpol</tspan></text>
    <path
       style="fill:#eeeeee;fill-opacity:1;stroke-width:0.4190996"
       d="m 9.448113,5.001874 c -2.31343,0 -4.190996,1.877567 -4.190996,4.190997 0,2.31343 1.877566,4.190996 4.190996,4.190996 0.518788,0 1.013889,-0.09837 1.472578,-0.270944 v -0.987172 c 0,-0.335904 0.274739,-0.900641 0.610641,-0.900646 v -0.915958 c 0,-0.459262 0.684616,-1.236604 1.527425,-1.236604 0.205882,0 0.401081,0.04145 0.580353,0.11541 C 13.63641,6.876802 11.759891,5.001868 9.448113,5.001868 Z m 0.8382,1.466849 1.466847,1.466849 H 10.705412 V 9.61197 H 9.867214 V 7.935572 H 8.819463 Z M 8.190817,8.773771 h 0.8382 v 1.676399 h 1.04775 L 8.609916,11.917018 7.14307,10.45017 h 1.047749 z m 4.973532,1.039564 c -0.598162,0 -1.083765,0.485603 -1.083765,1.083767 v 0.64993 c -0.238401,0 -0.433013,0.194618 -0.433013,0.433015 v 1.734515 c 0,0.238401 0.194616,0.433017 0.433013,0.433017 h 2.167531 c 0.238397,0 0.433013,-0.194616 0.433013,-0.433017 v -1.734515 c 0,-0.238397 -0.194616,-0.433015 -0.433013,-0.433015 v -0.64993 c 0,-0.598164 -0.485602,-1.083767 -1.083766,-1.083767 z m 0,0.433014 c 0.359768,0 0.649933,0.290986 0.649933,0.650753 v 0.64993 h -1.299865 v -0.64993 c 0,-0.359767 0.290167,-0.650753 0.649932,-0.650753 z"
       id="path7594"
       inkscape:connector-curvature="0"
       sodipodi:nodetypes="ssscscsscsccccccccccccccccsscsssssscssssccss" />
  </g>
</svg>
