<?xml version="1.0" encoding="UTF-8" standalone="no"?>
<!-- Created with Inkscape (http://www.inkscape.org/) -->

<svg
   xmlns:dc="http://purl.org/dc/elements/1.1/"
   xmlns:cc="http://creativecommons.org/ns#"
   xmlns:rdf="http://www.w3.org/1999/02/22-rdf-syntax-ns#"
   xmlns:svg="http://www.w3.org/2000/svg"
   xmlns="http://www.w3.org/2000/svg"
   xmlns:sodipodi="http://sodipodi.sourceforge.net/DTD/sodipodi-0.dtd"
   xmlns:inkscape="http://www.inkscape.org/namespaces/inkscape"
   width="17.26675mm"
   height="16.837494mm"
   viewBox="0 0 17.26675 16.837494"
   version="1.1"
   id="svg5198"
   inkscape:version="0.92.2 2405546, 2018-03-11"
   sodipodi:docname="pod.svg">
  <defs
     id="defs5192" />
  <sodipodi:namedview
     id="base"
     pagecolor="#ffffff"
     bordercolor="#666666"
     borderopacity="1.0"
     inkscape:pageopacity="0.0"
     inkscape:pageshadow="2"
     inkscape:zoom="5.6"
     inkscape:cx="-70.263129"
     inkscape:cy="9.4361449"
     inkscape:document-units="mm"
     inkscape:current-layer="layer1"
     showgrid="false"
     inkscape:window-width="2560"
     inkscape:window-height="1556"
     inkscape:window-x="0"
     inkscape:window-y="0"
     inkscape:window-maximized="1"
     fit-margin-top="0"
     fit-margin-left="0"
     fit-margin-right="0"
     fit-margin-bottom="0" />
  <metadata
     id="metadata5195">
    <rdf:RDF>
      <cc:Work
         rdf:about="">
        <dc:format>image/svg+xml</dc:format>
        <dc:type
           rdf:resource="http://purl.org/dc/dcmitype/StillImage" />
        <dc:title />
      </cc:Work>
    </rdf:RDF>
  </metadata>
  <g
     inkscape:label="Calque 1"
     inkscape:groupmode="layer"
     id="layer1"
     transform="translate(-1.19401,-2.075302)">
    <path
       id="path824"
       d="m 1.19401,12.90093 1.70997,-7.491566 6.9234,-3.334062 6.92341,3.334062 1.70997,7.491566 -4.7912,6.007793 H 5.98521 Z"
       inkscape:connector-curvature="0"
       style="fill:#326ce5;fill-opacity:1;fill-rule:evenodd;stroke:none;stroke-width:0.26499999;stroke-linecap:square;stroke-linejoin:round;stroke-miterlimit:10;stroke-dasharray:none;stroke-opacity:1"
       inkscape:export-xdpi="376.57999"
       inkscape:export-ydpi="376.57999" />
    <path
       id="path910"
       d="M 6.20655,8.253774 9.82739,7.203775 13.44822,8.253774 9.82739,9.303775 Z"
       inkscape:connector-curvature="0"
       style="fill:#eeeeee;fill-rule:evenodd;stroke:none;stroke-width:0.26458332;stroke-linecap:square;stroke-miterlimit:10"
       inkscape:export-xdpi="376.57999"
       inkscape:export-ydpi="376.57999" />
    <path
       id="path912"
       d="m 6.20655,8.655858 v 3.852778 l 3.37361,1.868749 0.0167,-4.713193 z"
       inkscape:connector-curvature="0"
       style="fill:#eeeeee;fill-rule:evenodd;stroke:none;stroke-width:0.26458332;stroke-linecap:square;stroke-miterlimit:10"
       inkscape:export-xdpi="376.57999"
       inkscape:export-ydpi="376.57999" />
    <path
       id="path914"
       d="m 13.44822,8.655858 v 3.852778 l -3.37361,1.868749 -0.0167,-4.713193 z"
       inkscape:connector-curvature="0"
       style="fill:#eeeeee;fill-rule:evenodd;stroke:none;stroke-width:0.26458332;stroke-linecap:square;stroke-miterlimit:10"
       inkscape:export-xdpi="376.57999"
       inkscape:export-ydpi="376.57999" />
    <path
       id="path916"
       d="m 4.43988,14.604461 h 10.77501 v 4.308334 H 4.43988 Z"
       inkscape:connector-curvature="0"
       style="fill:#000000;fill-opacity:0;fill-rule:evenodd;stroke:none;stroke-width:0.26458332;stroke-linecap:square;stroke-miterlimit:10"
       inkscape:export-xdpi="376.57999"
       inkscape:export-ydpi="376.57999" />
    <path
       id="path918"
       d="m 7.66134,18.310411 v -2.025717 h 0.22738 v 0.19017 q 0.0786,-0.111621 0.17776,-0.165365 0.10336,-0.05788 0.24392,-0.05788 0.18603,0 0.33073,0.09922 0.14469,0.09508 0.21497,0.272852 0.0744,0.173633 0.0744,0.384472 0,0.223243 -0.0827,0.405144 -0.0786,0.177767 -0.23151,0.272851 -0.15296,0.09509 -0.32246,0.09509 -0.12402,0 -0.22324,-0.04961 -0.0992,-0.05374 -0.16123,-0.136425 v 0.715202 z m 0.22324,-1.28571 q 0,0.28112 0.11576,0.417545 0.11575,0.136426 0.27698,0.136426 0.16537,0 0.28112,-0.14056 0.11989,-0.14056 0.11989,-0.434082 0,-0.276985 -0.11575,-0.417545 -0.11576,-0.14056 -0.27699,-0.14056 -0.15709,0 -0.28112,0.148828 -0.11989,0.148828 -0.11989,0.429948 z m 1.25386,-0.0083 q 0,-0.405144 0.22325,-0.599447 0.19016,-0.165365 0.45888,-0.165365 0.30179,0 0.49196,0.198438 0.19431,0.198437 0.19431,0.545703 0,0.28112 -0.0868,0.446484 -0.0827,0.161231 -0.24391,0.252181 -0.16123,0.08682 -0.35554,0.08682 -0.30592,0 -0.49609,-0.194304 -0.18604,-0.198437 -0.18604,-0.570507 z m 0.25218,0 q 0,0.281119 0.12403,0.421679 0.12402,0.14056 0.30592,0.14056 0.18604,0 0.30593,-0.14056 0.12402,-0.14056 0.12402,-0.429948 0,-0.268717 -0.12402,-0.409277 -0.11989,-0.14056 -0.30593,-0.14056 -0.1819,0 -0.30592,0.14056 -0.12403,0.136426 -0.12403,0.417546 z m 2.35354,0.731738 v -0.186035 q -0.13643,0.219108 -0.40928,0.219108 -0.17363,0 -0.32246,-0.09509 -0.14469,-0.09922 -0.22738,-0.268717 -0.0785,-0.173633 -0.0785,-0.396875 0,-0.219108 0.0744,-0.396875 0.0744,-0.181901 0.21911,-0.276986 0.14469,-0.09508 0.32659,-0.09508 0.13229,0 0.23565,0.05788 0.10335,0.05374 0.16536,0.144694 v -0.72347 h 0.24805 v 2.017448 z m -0.78135,-0.727604 q 0,0.276985 0.11576,0.417545 0.11989,0.14056 0.28112,0.14056 0.16123,0 0.27285,-0.132291 0.11575,-0.136426 0.11575,-0.405144 0,-0.30179 -0.11575,-0.44235 -0.11576,-0.14056 -0.28526,-0.14056 -0.16123,0 -0.27285,0.136426 -0.11162,0.132292 -0.11162,0.425814 z"
       inkscape:connector-curvature="0"
       style="fill:#eeeeee;fill-rule:nonzero;stroke:none;stroke-width:0.26458332;stroke-linecap:square;stroke-miterlimit:10"
       inkscape:export-xdpi="376.57999"
       inkscape:export-ydpi="376.57999" />
  </g>
</svg>
