<?xml version="1.0" encoding="UTF-8" standalone="no"?>
<!-- Created with Inkscape (http://www.inkscape.org/) -->

<svg
   xmlns:dc="http://purl.org/dc/elements/1.1/"
   xmlns:cc="http://creativecommons.org/ns#"
   xmlns:rdf="http://www.w3.org/1999/02/22-rdf-syntax-ns#"
   xmlns:svg="http://www.w3.org/2000/svg"
   xmlns="http://www.w3.org/2000/svg"
   xmlns:sodipodi="http://sodipodi.sourceforge.net/DTD/sodipodi-0.dtd"
   xmlns:inkscape="http://www.inkscape.org/namespaces/inkscape"
   width="17.26675mm"
   height="16.837494mm"
   viewBox="0 0 17.26675 16.837494"
   version="1.1"
   id="svg2709"
   inkscape:version="0.92.2 2405546, 2018-03-11"
   sodipodi:docname="psp.svg">
  <defs
     id="defs2703" />
  <sodipodi:namedview
     id="base"
     pagecolor="#ffffff"
     bordercolor="#666666"
     borderopacity="1.0"
     inkscape:pageopacity="0.0"
     inkscape:pageshadow="2"
     inkscape:zoom="3.959798"
     inkscape:cx="-85.148266"
     inkscape:cy="-14.182935"
     inkscape:document-units="mm"
     inkscape:current-layer="layer1"
     showgrid="false"
     inkscape:window-width="2560"
     inkscape:window-height="1556"
     inkscape:window-x="0"
     inkscape:window-y="0"
     inkscape:window-maximized="1"
     fit-margin-top="0"
     fit-margin-left="0"
     fit-margin-right="0"
     fit-margin-bottom="0" />
  <metadata
     id="metadata2706">
    <rdf:RDF>
      <cc:Work
         rdf:about="">
        <dc:format>image/svg+xml</dc:format>
        <dc:type
           rdf:resource="http://purl.org/dc/dcmitype/StillImage" />
        <dc:title />
      </cc:Work>
    </rdf:RDF>
  </metadata>
  <g
     inkscape:label="Calque 1"
     inkscape:groupmode="layer"
     id="layer1"
     transform="translate(-3.46186,-4.343157)">
    <path
       inkscape:export-ydpi="376.57999"
       inkscape:export-xdpi="376.57999"
       style="fill:#326ce5;fill-opacity:1;fill-rule:evenodd;stroke:none;stroke-width:0.26499999;stroke-linecap:square;stroke-linejoin:round;stroke-miterlimit:10;stroke-dasharray:none;stroke-opacity:1"
       inkscape:connector-curvature="0"
       d="m 3.46186,15.168785 1.70997,-7.491566 6.9234,-3.334062 6.92341,3.334062 1.70997,7.491566 -4.7912,6.007793 H 8.25306 Z"
       id="path1846" />
    <path
       inkscape:export-ydpi="376.57999"
       inkscape:export-xdpi="376.57999"
       style="fill:#000000;fill-opacity:0;fill-rule:evenodd;stroke:none;stroke-width:0.26458332;stroke-linecap:square;stroke-miterlimit:10"
       inkscape:connector-curvature="0"
       d="M 6.70773,16.872316 H 17.48274 V 21.18065 H 6.70773 Z"
       id="path1854" />
    <g
       id="g1901"
       transform="matrix(1.3480498,0,0,1.3480498,463.36773,79.918054)">
      <path
         id="path1848"
         transform="scale(0.26458333)"
         d="m -1268.627,-202.22852 -10.623,3.08008 10.623,3.08203 3.1563,-0.91601 c 1.4424,-1.33758 3.3634,-2.16602 5.4668,-2.16602 0.5107,0 1.0088,0.054 1.4941,0.14649 l 0.5059,-0.14649 z"
         style="fill:#eeeeee;fill-rule:evenodd;stroke:none;stroke-width:0.77621555;stroke-linecap:square;stroke-miterlimit:10"
         inkscape:connector-curvature="0" />
      <path
         id="path1850"
         transform="scale(0.26458333)"
         d="m -1279.25,-197.96875 v 11.30273 l 8.8418,4.89649 v -3.4707 c 0,-1.05099 0.4282,-1.91553 1.0801,-2.61524 l 0.025,-7.1543 z"
         style="fill:#eeeeee;fill-rule:evenodd;stroke:none;stroke-width:0.77621555;stroke-linecap:square;stroke-miterlimit:10"
         inkscape:connector-curvature="0" />
      <path
         id="path1852"
         transform="scale(0.26458333)"
         d="m -1266.8301,-195.34375 -1.1211,0.33398 0.01,2.53321 c 0.1843,-1.03627 0.568,-2.00466 1.1113,-2.86719 z m 6.8262,2.99219 c -0.7386,0 -1.2734,0.53483 -1.2734,1.27344 v 1.27148 h 2.5449 v -1.27148 c 0,-0.73857 -0.533,-1.27344 -1.2715,-1.27344 z"
         style="fill:#eeeeee;fill-rule:evenodd;stroke:none;stroke-width:0.77621555;stroke-linecap:square;stroke-miterlimit:10"
         inkscape:connector-curvature="0" />
      <path
         transform="matrix(1.4250713,0,0,1.4250713,135.80272,18.601444)"
         d="m -329.23047,-49.712891 c -0.59817,0 -1.08398,0.485821 -1.08398,1.083985 v 0.65039 c -0.2384,0 -0.4336,0.195197 -0.4336,0.433594 v 1.734375 c 0,0.238401 0.1952,0.431641 0.4336,0.431641 h 2.16797 c 0.2384,0 0.43359,-0.19324 0.43359,-0.431641 v -1.734375 c 0,-0.238397 -0.19519,-0.433594 -0.43359,-0.433594 v -0.65039 c 0,-0.598164 -0.48583,-1.083985 -1.08399,-1.083985 z m 0,0.433594 c 0.35976,0 0.65039,0.290624 0.65039,0.650391 v 0.65039 h -1.30078 v -0.65039 c 0,-0.359767 0.29062,-0.650391 0.65039,-0.650391 z"
         id="path7594-3"
         style="fill:#eeeeee;fill-opacity:1;stroke-width:0.4190996"
         inkscape:original="M -329.23047 -49.712891 C -329.82864 -49.712891 -330.31445 -49.22707 -330.31445 -48.628906 L -330.31445 -47.978516 C -330.55285 -47.978516 -330.74805 -47.783319 -330.74805 -47.544922 L -330.74805 -45.810547 C -330.74805 -45.572146 -330.55285 -45.378906 -330.31445 -45.378906 L -328.14648 -45.378906 C -327.90808 -45.378906 -327.71289 -45.572146 -327.71289 -45.810547 L -327.71289 -47.544922 C -327.71289 -47.783319 -327.90808 -47.978516 -328.14648 -47.978516 L -328.14648 -48.628906 C -328.14648 -49.22707 -328.63231 -49.712891 -329.23047 -49.712891 z M -329.23047 -49.279297 C -328.87071 -49.279297 -328.58008 -48.988673 -328.58008 -48.628906 L -328.58008 -47.978516 L -329.88086 -47.978516 L -329.88086 -48.628906 C -329.88086 -48.988673 -329.59024 -49.279297 -329.23047 -49.279297 z "
         inkscape:radius="0"
         sodipodi:type="inkscape:offset" />
    </g>
    <text
       id="text1895"
       y="20.022541"
       x="12.10213"
       style="font-style:normal;font-weight:normal;font-size:10.58333302px;line-height:6.61458302px;font-family:Sans;letter-spacing:0px;word-spacing:0px;fill:#eeeeee;fill-opacity:1;stroke:none;stroke-width:0.26458332px;stroke-linecap:butt;stroke-linejoin:miter;stroke-opacity:1"
       xml:space="preserve"><tspan
         style="font-style:normal;font-variant:normal;font-weight:normal;font-stretch:normal;font-size:2.82222223px;font-family:Arial;-inkscape-font-specification:'Arial, Normal';font-variant-ligatures:normal;font-variant-caps:normal;font-variant-numeric:normal;font-feature-settings:normal;text-align:center;writing-mode:lr-tb;text-anchor:middle;fill:#eeeeee;fill-opacity:1;stroke-width:0.26458332px"
         y="20.022541"
         x="12.10213"
         id="tspan1893"
         sodipodi:role="line">psp</tspan></text>
  </g>
</svg>
