<?xml version="1.0" encoding="UTF-8" standalone="no"?>
<!-- Created with Inkscape (http://www.inkscape.org/) -->

<svg
   xmlns:dc="http://purl.org/dc/elements/1.1/"
   xmlns:cc="http://creativecommons.org/ns#"
   xmlns:rdf="http://www.w3.org/1999/02/22-rdf-syntax-ns#"
   xmlns:svg="http://www.w3.org/2000/svg"
   xmlns="http://www.w3.org/2000/svg"
   xmlns:sodipodi="http://sodipodi.sourceforge.net/DTD/sodipodi-0.dtd"
   xmlns:inkscape="http://www.inkscape.org/namespaces/inkscape"
   width="17.26675mm"
   height="16.837494mm"
   viewBox="0 0 17.26675 16.837494"
   version="1.1"
   id="svg9349"
   inkscape:version="0.92.2 2405546, 2018-03-11"
   sodipodi:docname="pv.svg">
  <defs
     id="defs9343" />
  <sodipodi:namedview
     id="base"
     pagecolor="#ffffff"
     bordercolor="#666666"
     borderopacity="1.0"
     inkscape:pageopacity="0.0"
     inkscape:pageshadow="2"
     inkscape:zoom="7.9195959"
     inkscape:cx="-34.050349"
     inkscape:cy="8.331963"
     inkscape:document-units="mm"
     inkscape:current-layer="layer1"
     showgrid="false"
     inkscape:window-width="2560"
     inkscape:window-height="1556"
     inkscape:window-x="0"
     inkscape:window-y="0"
     inkscape:window-maximized="1"
     fit-margin-top="0"
     fit-margin-left="0"
     fit-margin-right="0"
     fit-margin-bottom="0" />
  <metadata
     id="metadata9346">
    <rdf:RDF>
      <cc:Work
         rdf:about="">
        <dc:format>image/svg+xml</dc:format>
        <dc:type
           rdf:resource="http://purl.org/dc/dcmitype/StillImage" />
        <dc:title />
      </cc:Work>
    </rdf:RDF>
  </metadata>
  <g
     inkscape:label="Calque 1"
     inkscape:groupmode="layer"
     id="layer1"
     transform="translate(-1.70365,-1.252532)">
    <path
       id="path856"
       d="m 1.70365,12.07816 1.70998,-7.491566 6.9234,-3.334062 6.9234,3.334062 1.70997,7.491566 -4.79119,6.007793 H 6.49486 Z"
       inkscape:connector-curvature="0"
       style="fill:#326ce5;fill-opacity:1;fill-rule:evenodd;stroke:none;stroke-width:0.26458332;stroke-linecap:square;stroke-miterlimit:10" />
    <path
       id="path1114"
       d="m 5.63495,8.520225 v 0 c 0,0.621121 2.07254,1.124639 4.62917,1.124639 2.55661,0 4.62916,-0.503518 4.62916,-1.124639 v 3.042391 c 0,0.62112 -2.07255,1.124638 -4.62916,1.124638 -2.55663,0 -4.62917,-0.503518 -4.62917,-1.124638 z"
       inkscape:connector-curvature="0"
       style="fill:#eeeeee;fill-rule:evenodd;stroke:none;stroke-width:0.26458332;stroke-linecap:square;stroke-miterlimit:10" />
    <path
       id="path1116"
       d="m 5.63495,8.520225 v 0 c 0,-0.621119 2.07254,-1.124637 4.62917,-1.124637 2.55661,0 4.62916,0.503518 4.62916,1.124637 v 0 c 0,0.621121 -2.07255,1.124639 -4.62916,1.124639 -2.55663,0 -4.62917,-0.503518 -4.62917,-1.124639 z"
       inkscape:connector-curvature="0"
       style="fill:#f4f4f4;fill-rule:evenodd;stroke:none;stroke-width:0.26458332;stroke-linecap:square;stroke-miterlimit:10" />
    <path
       id="path1118"
       d="m 14.89328,8.520225 v 0 c 0,0.621121 -2.07255,1.124639 -4.62916,1.124639 -2.55662,0 -4.62917,-0.503518 -4.62917,-1.124639 v 0 c 0,-0.621119 2.07255,-1.124637 4.62917,-1.124637 2.55661,0 4.62916,0.503518 4.62916,1.124637 v 3.042391 c 0,0.62112 -2.07255,1.124638 -4.62916,1.124638 -2.55662,0 -4.62917,-0.503518 -4.62917,-1.124638 V 8.520225"
       inkscape:connector-curvature="0"
       style="fill:#000000;fill-opacity:0;fill-rule:evenodd;stroke:none;stroke-width:0.26458332;stroke-linecap:square;stroke-miterlimit:10" />
    <path
       id="path1120"
       d="m 14.89328,8.520225 v 0 c 0,0.621121 -2.07255,1.124639 -4.62916,1.124639 -2.55662,0 -4.62917,-0.503518 -4.62917,-1.124639 v 0 c 0,-0.621119 2.07255,-1.124637 4.62917,-1.124637 2.55661,0 4.62916,0.503518 4.62916,1.124637 v 3.042391 c 0,0.62112 -2.07255,1.124638 -4.62916,1.124638 -2.55662,0 -4.62917,-0.503518 -4.62917,-1.124638 V 8.520225"
       inkscape:connector-curvature="0"
       style="fill:none;fill-rule:evenodd;stroke:#326ce5;stroke-width:0.26458332;stroke-linecap:butt;stroke-linejoin:round;stroke-miterlimit:10;stroke-opacity:1" />
    <path
       id="path1122"
       d="m 4.94953,13.781691 h 10.775 v 4.308334 h -10.775 z"
       inkscape:connector-curvature="0"
       style="fill:#000000;fill-opacity:0;fill-rule:evenodd;stroke:none;stroke-width:0.26458332;stroke-linecap:square;stroke-miterlimit:10" />
    <path
       id="path1124"
       d="m 9.03417,17.487641 v -2.025717 h 0.22738 v 0.19017 q 0.0786,-0.111621 0.17776,-0.165365 0.10336,-0.05788 0.24392,-0.05788 0.18603,0 0.33073,0.09922 0.14469,0.09508 0.21497,0.272852 0.0744,0.173633 0.0744,0.384472 0,0.223243 -0.0827,0.405144 -0.0786,0.177767 -0.23151,0.272851 -0.15296,0.09509 -0.32246,0.09509 -0.12402,0 -0.22324,-0.04961 -0.0992,-0.05374 -0.16123,-0.136425 v 0.715202 z m 0.22324,-1.28571 q 0,0.28112 0.11576,0.417545 0.11575,0.136426 0.27698,0.136426 0.16537,0 0.28112,-0.14056 0.11989,-0.14056 0.11989,-0.434082 0,-0.276985 -0.11575,-0.417545 -0.11576,-0.14056 -0.27699,-0.14056 -0.15709,0 -0.28112,0.148828 -0.11989,0.148828 -0.11989,0.429948 z m 1.74996,0.72347 -0.55397,-1.463477 h 0.26045 l 0.31419,0.876433 q 0.0496,0.14056 0.0951,0.293522 0.0289,-0.115755 0.091,-0.276986 l 0.32246,-0.892969 h 0.25631 l -0.55397,1.463477 z"
       inkscape:connector-curvature="0"
       style="fill:#eeeeee;fill-rule:nonzero;stroke:none;stroke-width:0.26458332;stroke-linecap:square;stroke-miterlimit:10" />
  </g>
</svg>
