<?xml version="1.0" encoding="UTF-8" standalone="no"?>
<!-- Created with Inkscape (http://www.inkscape.org/) -->

<svg
   xmlns:dc="http://purl.org/dc/elements/1.1/"
   xmlns:cc="http://creativecommons.org/ns#"
   xmlns:rdf="http://www.w3.org/1999/02/22-rdf-syntax-ns#"
   xmlns:svg="http://www.w3.org/2000/svg"
   xmlns="http://www.w3.org/2000/svg"
   xmlns:sodipodi="http://sodipodi.sourceforge.net/DTD/sodipodi-0.dtd"
   xmlns:inkscape="http://www.inkscape.org/namespaces/inkscape"
   width="17.266741mm"
   height="16.837494mm"
   viewBox="0 0 17.266741 16.837494"
   version="1.1"
   id="svg9981"
   inkscape:version="0.92.2 2405546, 2018-03-11"
   sodipodi:docname="pvc.svg">
  <defs
     id="defs9975" />
  <sodipodi:namedview
     id="base"
     pagecolor="#ffffff"
     bordercolor="#666666"
     borderopacity="1.0"
     inkscape:pageopacity="0.0"
     inkscape:pageshadow="2"
     inkscape:zoom="3.959798"
     inkscape:cx="-102.16172"
     inkscape:cy="-18.43716"
     inkscape:document-units="mm"
     inkscape:current-layer="layer1"
     showgrid="false"
     inkscape:window-width="2560"
     inkscape:window-height="1556"
     inkscape:window-x="0"
     inkscape:window-y="0"
     inkscape:window-maximized="1"
     fit-margin-top="0"
     fit-margin-left="0"
     fit-margin-right="0"
     fit-margin-bottom="0" />
  <metadata
     id="metadata9978">
    <rdf:RDF>
      <cc:Work
         rdf:about="">
        <dc:format>image/svg+xml</dc:format>
        <dc:type
           rdf:resource="http://purl.org/dc/dcmitype/StillImage" />
        <dc:title />
      </cc:Work>
    </rdf:RDF>
  </metadata>
  <g
     inkscape:label="Calque 1"
     inkscape:groupmode="layer"
     id="layer1"
     transform="translate(-1.79144,-1.695359)">
    <path
       id="path858"
       d="m 1.79144,12.520987 1.70997,-7.491566 6.9234,-3.334062 6.9234,3.334062 1.70997,7.491566 -4.79119,6.007793 H 6.58264 Z"
       inkscape:connector-curvature="0"
       style="fill:#326ce5;fill-opacity:1;fill-rule:evenodd;stroke:none;stroke-width:0.26458332;stroke-linecap:square;stroke-miterlimit:10" />
    <path
       id="path1128"
       d="m 5.72273,8.963052 v 0 c 0,0.621121 2.07254,1.124639 4.62917,1.124639 2.55661,0 4.62916,-0.503518 4.62916,-1.124639 v 3.042391 c 0,0.62112 -2.07255,1.124638 -4.62916,1.124638 -2.55663,0 -4.62917,-0.503518 -4.62917,-1.124638 z"
       inkscape:connector-curvature="0"
       style="fill:#326ce5;fill-opacity:1;fill-rule:evenodd;stroke:none;stroke-width:0.26458332;stroke-linecap:square;stroke-miterlimit:10" />
    <path
       id="path1130"
       d="m 5.72273,8.963052 v 0 c 0,-0.621119 2.07254,-1.124637 4.62917,-1.124637 2.55661,0 4.62916,0.503518 4.62916,1.124637 v 0 c 0,0.621121 -2.07255,1.124639 -4.62916,1.124639 -2.55663,0 -4.62917,-0.503518 -4.62917,-1.124639 z"
       inkscape:connector-curvature="0"
       style="fill:#326ce5;fill-opacity:1;fill-rule:evenodd;stroke:none;stroke-width:0.26458332;stroke-linecap:square;stroke-miterlimit:10" />
    <path
       id="path1132"
       d="m 14.98106,8.963052 v 0 c 0,0.621121 -2.07255,1.124639 -4.62916,1.124639 -2.55662,0 -4.62917,-0.503518 -4.62917,-1.124639 v 0 c 0,-0.621119 2.07255,-1.124637 4.62917,-1.124637 2.55661,0 4.62916,0.503518 4.62916,1.124637 v 3.042391 c 0,0.62112 -2.07255,1.124638 -4.62916,1.124638 -2.55662,0 -4.62917,-0.503518 -4.62917,-1.124638 V 8.963052"
       inkscape:connector-curvature="0"
       style="fill:#000000;fill-opacity:0;fill-rule:evenodd;stroke:none;stroke-width:0.26458332;stroke-linecap:square;stroke-miterlimit:10" />
    <path
       id="path1134"
       d="m 14.98106,8.963052 v 0 c 0,0.621121 -2.07255,1.124639 -4.62916,1.124639 -2.55662,0 -4.62917,-0.503518 -4.62917,-1.124639 v 0 c 0,-0.621119 2.07255,-1.124637 4.62917,-1.124637 2.55661,0 4.62916,0.503518 4.62916,1.124637 v 3.042391 c 0,0.62112 -2.07255,1.124638 -4.62916,1.124638 -2.55662,0 -4.62917,-0.503518 -4.62917,-1.124638 V 8.963052"
       inkscape:connector-curvature="0"
       style="fill:none;fill-rule:evenodd;stroke:#eeeeee;stroke-width:0.52916664;stroke-linecap:butt;stroke-linejoin:round;stroke-miterlimit:10;stroke-dasharray:2.11666667, 0.52916667;stroke-dashoffset:0" />
    <path
       id="path1136"
       d="M 5.03732,14.224518 H 15.8123 v 4.308334 H 5.03732 Z"
       inkscape:connector-curvature="0"
       style="fill:#000000;fill-opacity:0;fill-rule:evenodd;stroke:none;stroke-width:0.26458332;stroke-linecap:square;stroke-miterlimit:10" />
    <path
       id="path1138"
       d="m 8.41709,17.930468 v -2.025717 h 0.22738 v 0.19017 q 0.0786,-0.111621 0.17776,-0.165365 0.10336,-0.05788 0.24392,-0.05788 0.18603,0 0.33072,0.09922 0.1447,0.09508 0.21498,0.272852 0.0744,0.173633 0.0744,0.384472 0,0.223243 -0.0827,0.405144 -0.0786,0.177767 -0.23151,0.272851 -0.15296,0.09509 -0.32246,0.09509 -0.12402,0 -0.22324,-0.04961 -0.0992,-0.05374 -0.16123,-0.136425 v 0.715202 z m 0.22324,-1.28571 q 0,0.28112 0.11576,0.417545 0.11575,0.136426 0.27698,0.136426 0.16537,0 0.28112,-0.14056 0.11989,-0.14056 0.11989,-0.434082 0,-0.276985 -0.11575,-0.417545 -0.11576,-0.14056 -0.27699,-0.14056 -0.1571,0 -0.28112,0.148828 -0.11989,0.148828 -0.11989,0.429948 z m 1.74996,0.72347 -0.55397,-1.463477 h 0.26045 l 0.31419,0.876433 q 0.0496,0.14056 0.0951,0.293522 0.0289,-0.115755 0.0909,-0.276986 l 0.32246,-0.892969 h 0.25631 l -0.55397,1.463477 z m 1.95957,-0.537435 0.24391,0.03307 q -0.0413,0.252181 -0.2067,0.396875 -0.16537,0.14056 -0.40514,0.14056 -0.29766,0 -0.47956,-0.194304 -0.1819,-0.198437 -0.1819,-0.562239 0,-0.239779 0.0785,-0.417546 0.0786,-0.177767 0.23565,-0.264583 0.16123,-0.09095 0.3514,-0.09095 0.23564,0 0.3886,0.124024 0.15297,0.119889 0.19431,0.338997 l -0.23978,0.03721 q -0.0372,-0.144694 -0.12402,-0.219108 -0.0868,-0.07441 -0.21084,-0.07441 -0.18604,0 -0.30593,0.136426 -0.11575,0.132292 -0.11575,0.42168 0,0.293522 0.11162,0.429948 0.11575,0.132291 0.29766,0.132291 0.14469,0 0.23977,-0.09095 0.0992,-0.09095 0.12816,-0.276986 z"
       inkscape:connector-curvature="0"
       style="fill:#eeeeee;fill-rule:nonzero;stroke:none;stroke-width:0.26458332;stroke-linecap:square;stroke-miterlimit:10" />
  </g>
</svg>
