<?xml version="1.0" encoding="UTF-8" standalone="no"?>
<!-- Created with Inkscape (http://www.inkscape.org/) -->

<svg
   xmlns:dc="http://purl.org/dc/elements/1.1/"
   xmlns:cc="http://creativecommons.org/ns#"
   xmlns:rdf="http://www.w3.org/1999/02/22-rdf-syntax-ns#"
   xmlns:svg="http://www.w3.org/2000/svg"
   xmlns="http://www.w3.org/2000/svg"
   xmlns:sodipodi="http://sodipodi.sourceforge.net/DTD/sodipodi-0.dtd"
   xmlns:inkscape="http://www.inkscape.org/namespaces/inkscape"
   width="17.26676mm"
   height="16.833418mm"
   viewBox="0 0 17.26676 16.833418"
   version="1.1"
   id="svg3331"
   inkscape:version="0.92.2 2405546, 2018-03-11"
   sodipodi:docname="quota.svg">
  <defs
     id="defs3325" />
  <sodipodi:namedview
     id="base"
     pagecolor="#ffffff"
     bordercolor="#666666"
     borderopacity="1.0"
     inkscape:pageopacity="0.0"
     inkscape:pageshadow="2"
     inkscape:zoom="5.6"
     inkscape:cx="-56.612069"
     inkscape:cy="-7.979945"
     inkscape:document-units="mm"
     inkscape:current-layer="layer1"
     showgrid="false"
     inkscape:window-width="2560"
     inkscape:window-height="1556"
     inkscape:window-x="0"
     inkscape:window-y="0"
     inkscape:window-maximized="1"
     fit-margin-top="0"
     fit-margin-left="0"
     fit-margin-right="0"
     fit-margin-bottom="0" />
  <metadata
     id="metadata3328">
    <rdf:RDF>
      <cc:Work
         rdf:about="">
        <dc:format>image/svg+xml</dc:format>
        <dc:type
           rdf:resource="http://purl.org/dc/dcmitype/StillImage" />
        <dc:title />
      </cc:Work>
    </rdf:RDF>
  </metadata>
  <g
     inkscape:label="Calque 1"
     inkscape:groupmode="layer"
     id="layer1"
     transform="translate(-0.67428367,-0.896163)">
    <path
       id="path6853"
       d="M 0.67428367,11.721785 2.3842537,4.23022 l 6.92342,-3.334057 6.9233903,3.334057 1.70998,7.491565 -4.7912,6.007796 H 5.4654937 Z"
       inkscape:connector-curvature="0"
       style="fill:#326ce5;fill-opacity:1;fill-rule:evenodd;stroke:none;stroke-width:0.26458332;stroke-linecap:square;stroke-miterlimit:10" />
    <text
       xml:space="preserve"
       style="font-style:normal;font-weight:normal;font-size:10.58333302px;line-height:6.61458302px;font-family:Sans;letter-spacing:0px;word-spacing:0px;fill:#eeeeee;fill-opacity:1;stroke:none;stroke-width:0.26458332px;stroke-linecap:butt;stroke-linejoin:miter;stroke-opacity:1"
       x="9.277339"
       y="16.575539"
       id="text6861"><tspan
         sodipodi:role="line"
         id="tspan6859"
         x="9.277339"
         y="16.575539"
         style="font-style:normal;font-variant:normal;font-weight:normal;font-stretch:normal;font-size:2.82222223px;font-family:Arial;-inkscape-font-specification:'Arial, Normal';font-variant-ligatures:normal;font-variant-caps:normal;font-variant-numeric:normal;font-feature-settings:normal;text-align:center;writing-mode:lr-tb;text-anchor:middle;fill:#eeeeee;fill-opacity:1;stroke-width:0.26458332px">quota</tspan></text>
    <path
       style="fill:#eeeeee;fill-opacity:1;stroke-width:0.01153845"
       d="m 7.1556244,2.847598 c -0.00874,0 -0.3153972,0.114869 -0.6814891,0.255202 -0.3660922,0.140326 -0.6799322,0.260197 -0.697384,0.266452 -0.017452,0.0063 -0.031787,0.01797 -0.031787,0.02588 0,0.0079 0.073047,0.204806 0.1623361,0.437539 0.089289,0.232732 0.1607937,0.431393 0.158764,0.441647 -0.00249,0.01261 -0.08309,0.04904 -0.248772,0.11233 -0.1348269,0.0515 -0.2436373,0.09885 -0.2416288,0.10519 0.00535,0.01693 1.6596798,0.755489 1.685687,0.752565 0.017466,-0.002 0.099812,-0.176733 0.3952135,-0.838824 0.2052228,-0.459967 0.3730696,-0.843272 0.3730696,-0.85186 0,-0.0086 -0.00438,-0.01389 -0.00965,-0.01178 C 7.8181352,3.622999 7.5306414,3.725936 7.5188673,3.721419 7.5101973,3.717919 7.4284503,3.520191 7.3372436,3.281559 7.2300951,3.001218 7.1658821,2.84759 7.1556199,2.84759 Z m 2.1501933,2.215556 c -2.2081449,0 -4.1566859,1.408429 -4.8527564,3.507636 -0.2548091,0.768453 -0.3197364,1.631561 -0.183945,2.44611 0.1905627,1.143092 0.7745362,2.193072 1.6547911,2.975625 0.05075,0.04512 0.094827,0.08215 0.098045,0.08215 0.00321,0 0.2379835,-0.232485 0.5216545,-0.516475 0.2894218,-0.289748 0.5211646,-0.530909 0.5280826,-0.549513 0.030336,-0.08159 -0.037243,-0.22968 -0.1610857,-0.353247 -0.12775,-0.127463 -0.2642395,-0.190528 -0.350746,-0.161978 -0.022843,0.0075 -0.1247838,0.100542 -0.2782393,0.25413 -0.133175,0.133287 -0.2508183,0.242343 -0.2614521,0.242343 -0.022481,0 -0.150351,-0.156221 -0.2832395,-0.346103 -0.3045811,-0.43521 -0.5262815,-0.927757 -0.6557732,-1.457274 -0.04227,-0.172849 -0.097759,-0.500071 -0.088936,-0.524511 0.00401,-0.01113 0.089381,-0.01447 0.373605,-0.01447 0.3994528,0 0.4219443,-0.0028 0.4691492,-0.06286 0.048952,-0.06223 0.074544,-0.154369 0.080364,-0.289134 0.0062,-0.143588 -0.012352,-0.241331 -0.061613,-0.325384 C 5.8043569,9.885959 5.8058109,9.886099 5.379216,9.885909 5.1710647,9.885816 4.9933247,9.881009 4.9841805,9.875199 4.9697525,9.866099 4.9702085,9.840779 4.9873905,9.683218 5.0607445,9.011088 5.309166,8.3237 5.6794169,7.768761 5.7651129,7.640317 5.9193312,7.43998 5.9324753,7.43998 c 0.00718,0 0.1494039,0.135719 0.3160995,0.301636 l 0.3030635,0.301632 0.062327,-0.0064 c 0.175522,-0.01811 0.405418,-0.228523 0.4543266,-0.415929 0.00858,-0.03286 0.012324,-0.07526 0.00839,-0.0943 C 7.0714519,7.501289 6.9890129,7.410924 6.7687978,7.189626 6.4960831,6.915572 6.4696404,6.885509 6.4844862,6.867456 6.5365242,6.804166 6.8545288,6.572313 7.06311,6.445631 7.5823401,6.130276 8.2851211,5.892877 8.821482,5.851648 l 0.095544,-0.0073 0.00339,0.446828 0.00339,0.446645 0.047861,0.04465 c 0.1375824,0.128299 0.5118595,0.132464 0.6566657,0.0073 l 0.04554,-0.03947 0.0057,-0.448432 0.0059,-0.448434 0.09233,0.0017 c 0.113385,0.0024 0.3857023,0.04885 0.5941603,0.101617 0.59871,0.15153 1.162725,0.432814 1.64354,0.819537 0.06063,0.04876 0.110367,0.09734 0.110367,0.107865 0,0.01054 -0.133756,0.15294 -0.297169,0.316458 l -0.29717,0.297168 7.39e-4,0.06626 c 0.002,0.198488 0.271845,0.46861 0.468971,0.469685 l 0.06661,6.82e-4 0.297347,-0.297168 c 0.163519,-0.163414 0.302952,-0.297171 0.309851,-0.297171 0.0069,0 0.05508,0.05696 0.107152,0.126621 0.400383,0.535636 0.682455,1.185421 0.7965,1.834984 0.03927,0.223702 0.0615,0.449852 0.04607,0.468434 -0.01095,0.0132 -0.08367,0.01607 -0.40325,0.01607 h -0.390036 l -0.03376,0.02841 c -0.07416,0.0624 -0.128331,0.259391 -0.112331,0.408786 0.01297,0.121129 0.04778,0.217001 0.09822,0.271096 l 0.04429,0.04751 0.393249,0.0034 c 0.389665,0.0033 0.393071,0.0035 0.393071,0.02732 0,0.0534 -0.03806,0.279765 -0.07536,0.448255 -0.120507,0.544293 -0.367004,1.099957 -0.685954,1.546031 -0.135113,0.188966 -0.245486,0.323055 -0.265738,0.323065 -0.0096,5e-6 -0.126275,-0.10909 -0.259487,-0.242522 -0.273172,-0.273622 -0.283188,-0.280029 -0.38825,-0.249486 -0.187587,0.05453 -0.39264,0.280888 -0.410394,0.452897 l -0.0064,0.06126 0.455933,0.464864 c 0.583107,0.594534 0.590812,0.601878 0.617913,0.587374 0.04346,-0.02326 0.329631,-0.295499 0.453791,-0.431646 0.34547,-0.378825 0.603375,-0.753134 0.82418,-1.196535 0.544191,-1.092793 0.676136,-2.342894 0.373427,-3.538711 C 13.999713,7.917164 13.439792,7.00681 12.6681,6.329099 11.737903,5.512188 10.545291,5.063273 9.3058352,5.063273 Z M 8.3412666,7.170306 c -0.2027992,0.0014 -0.4310043,0.117807 -0.4966514,0.253416 -0.022318,0.0461 -0.023953,0.05857 -0.0125,0.09679 0.00723,0.02412 0.2156464,0.564652 0.4632563,1.20118 l 0.4502189,1.157245 -0.040897,0.08304 c -0.1311305,0.265387 -0.082398,0.564087 0.1262615,0.772747 0.1837943,0.183794 0.4474616,0.245967 0.6884547,0.162158 0.046546,-0.01619 0.1200481,-0.05372 0.1632291,-0.08322 C 10.003796,10.594224 10.068161,10.140824 9.8210447,9.839109 9.7395047,9.739559 9.6524617,9.681172 9.4829779,9.612303 9.4568799,9.601693 9.4037609,9.471728 8.9997196,8.430769 8.7500325,7.787482 8.5385722,7.24963 8.5298564,7.235485 8.5004474,7.187755 8.4478904,7.169565 8.3412677,7.170305 Z"
       id="path6933"
       inkscape:connector-curvature="0"
       sodipodi:nodetypes="cccsscccccsccccccsscssccccssscscccccccscccccsccccccccccccccsccccccscccsccccccsccccccccccsccccccccccccccccccc" />
  </g>
</svg>
