<?xml version="1.0" encoding="UTF-8" standalone="no"?>
<!-- Created with Inkscape (http://www.inkscape.org/) -->

<svg
   xmlns:dc="http://purl.org/dc/elements/1.1/"
   xmlns:cc="http://creativecommons.org/ns#"
   xmlns:rdf="http://www.w3.org/1999/02/22-rdf-syntax-ns#"
   xmlns:svg="http://www.w3.org/2000/svg"
   xmlns="http://www.w3.org/2000/svg"
   xmlns:sodipodi="http://sodipodi.sourceforge.net/DTD/sodipodi-0.dtd"
   xmlns:inkscape="http://www.inkscape.org/namespaces/inkscape"
   width="17.26684mm"
   height="16.833418mm"
   viewBox="0 0 17.26684 16.833418"
   version="1.1"
   id="svg8351"
   inkscape:version="0.92.2 2405546, 2018-03-11"
   sodipodi:docname="rb.svg">
  <defs
     id="defs8345" />
  <sodipodi:namedview
     id="base"
     pagecolor="#ffffff"
     bordercolor="#666666"
     borderopacity="1.0"
     inkscape:pageopacity="0.0"
     inkscape:pageshadow="2"
     inkscape:zoom="7.9195959"
     inkscape:cx="-22.576351"
     inkscape:cy="-4.8375537"
     inkscape:document-units="mm"
     inkscape:current-layer="layer1"
     showgrid="false"
     inkscape:window-width="2560"
     inkscape:window-height="1556"
     inkscape:window-x="0"
     inkscape:window-y="0"
     inkscape:window-maximized="1"
     fit-margin-top="0"
     fit-margin-left="0"
     fit-margin-right="0"
     fit-margin-bottom="0" />
  <metadata
     id="metadata8348">
    <rdf:RDF>
      <cc:Work
         rdf:about="">
        <dc:format>image/svg+xml</dc:format>
        <dc:type
           rdf:resource="http://purl.org/dc/dcmitype/StillImage" />
        <dc:title />
      </cc:Work>
    </rdf:RDF>
  </metadata>
  <g
     inkscape:label="Calque 1"
     inkscape:groupmode="layer"
     id="layer1"
     transform="translate(-0.76817,-0.649278)">
    <path
       style="fill:#ffffff;stroke:none;stroke-width:0.26458332"
       inkscape:connector-curvature="0"
       d="M 9.16168,5.161625 C 8.33883,5.164225 7.67207,5.825729 7.67207,6.640645 V 7.25977 h 2.98187 V 6.630062 C 10.64594,5.817791 9.9819,5.16427 9.16168,5.161625 Z"
       pointer-events="none"
       id="path8619" />
    <ellipse
       style="fill:#ffffff;stroke:none;stroke-width:0.26458332"
       cx="9.0055466"
       cy="10.014097"
       rx="1.0577593"
       ry="1.0493258"
       pointer-events="none"
       id="ellipse8621" />
    <path
       style="fill:#ffffff;stroke:none;stroke-width:0.26458332"
       inkscape:connector-curvature="0"
       d="m 9.13258,1.505083 -6.4929,2.870729 v 4.283604 c 0,3.971396 2.76755,7.6835 6.4929,8.585729 3.72006,-0.902229 6.49026,-4.614333 6.49026,-8.585729 V 4.375812 Z m 3.43696,11.527896 H 5.69298 V 7.25977 h 0.9869 V 6.630062 c 0,-1.359958 1.11126,-2.463271 2.48445,-2.463271 1.3732,0 2.48445,1.103313 2.48445,2.463271 V 7.25977 h 0.92076 z"
       pointer-events="none"
       id="path8623" />
    <path
       id="path8625"
       d="M 0.76817,11.4749 2.47814,3.983335 9.40159,0.649278 16.32502,3.983335 18.03501,11.4749 13.24378,17.482696 H 5.55939 Z"
       inkscape:connector-curvature="0"
       style="fill:#326ce5;fill-opacity:1;fill-rule:evenodd;stroke:none;stroke-width:0.26458332;stroke-linecap:square;stroke-miterlimit:10" />
    <text
       xml:space="preserve"
       style="font-style:normal;font-weight:normal;font-size:10.58333302px;line-height:6.61458302px;font-family:Sans;letter-spacing:0px;word-spacing:0px;fill:#eeeeee;fill-opacity:1;stroke:none;stroke-width:0.26458332px;stroke-linecap:butt;stroke-linejoin:miter;stroke-opacity:1"
       x="9.3712234"
       y="16.328653"
       id="text8631"><tspan
         sodipodi:role="line"
         id="tspan8629"
         x="9.3712234"
         y="16.328653"
         style="font-style:normal;font-variant:normal;font-weight:normal;font-stretch:normal;font-size:2.82222223px;font-family:Arial;-inkscape-font-specification:'Arial, Normal';font-variant-ligatures:normal;font-variant-caps:normal;font-variant-numeric:normal;font-feature-settings:normal;text-align:center;writing-mode:lr-tb;text-anchor:middle;fill:#eeeeee;fill-opacity:1;stroke-width:0.26458332px">rb</tspan></text>
    <rect
       y="4.772696"
       x="4.4366689"
       height="8.6571665"
       width="9.9298582"
       id="rect8641"
       style="opacity:1;fill:none;fill-opacity:1;fill-rule:nonzero;stroke:#eeeeee;stroke-width:0.40000001;stroke-linecap:butt;stroke-linejoin:round;stroke-miterlimit:10;stroke-dasharray:0.8, 0.4;stroke-dashoffset:4;stroke-opacity:1" />
    <path
       style="fill:#eeeeee;fill-opacity:1;stroke-width:0.3861911"
       inkscape:connector-curvature="0"
       d="m 6.27343,9.101279 c 0,-0.660388 0.53682,-1.197192 1.1972,-1.197192 H 9.0154 V 7.170323 H 7.47063 c -1.06589,0 -1.93095,0.865069 -1.93095,1.930956 0,1.065887 0.86506,1.930956 1.93095,1.930956 H 9.0154 V 10.298471 H 7.47063 c -0.66038,0 -1.1972,-0.536806 -1.1972,-1.197192 z m 1.5834,0.386191 h 3.08952 V 8.715088 H 7.85683 Z M 11.33255,7.170323 H 9.78778 v 0.733764 h 1.54477 c 0.66038,0 1.19718,0.536804 1.19718,1.197192 0,0.660386 -0.5368,1.197192 -1.19718,1.197192 H 9.78778 v 0.733764 h 1.54477 c 1.06589,0 1.93095,-0.865069 1.93095,-1.930956 0,-1.065887 -0.86506,-1.930956 -1.93095,-1.930956 z"
       id="path8433" />
  </g>
</svg>
