<?xml version="1.0" encoding="UTF-8" standalone="no"?>
<!-- Created with Inkscape (http://www.inkscape.org/) -->

<svg
   xmlns:dc="http://purl.org/dc/elements/1.1/"
   xmlns:cc="http://creativecommons.org/ns#"
   xmlns:rdf="http://www.w3.org/1999/02/22-rdf-syntax-ns#"
   xmlns:svg="http://www.w3.org/2000/svg"
   xmlns="http://www.w3.org/2000/svg"
   xmlns:sodipodi="http://sodipodi.sourceforge.net/DTD/sodipodi-0.dtd"
   xmlns:inkscape="http://www.inkscape.org/namespaces/inkscape"
   width="17.266834mm"
   height="16.833418mm"
   viewBox="0 0 17.266834 16.833418"
   version="1.1"
   id="svg6469"
   inkscape:version="0.92.2 2405546, 2018-03-11"
   sodipodi:docname="role.svg">
  <defs
     id="defs6463" />
  <sodipodi:namedview
     id="base"
     pagecolor="#ffffff"
     bordercolor="#666666"
     borderopacity="1.0"
     inkscape:pageopacity="0.0"
     inkscape:pageshadow="2"
     inkscape:zoom="7.9195959"
     inkscape:cx="32.015835"
     inkscape:cy="-3.4624117"
     inkscape:document-units="mm"
     inkscape:current-layer="layer1"
     showgrid="false"
     inkscape:window-width="2560"
     inkscape:window-height="1556"
     inkscape:window-x="0"
     inkscape:window-y="0"
     inkscape:window-maximized="1"
     fit-margin-top="0"
     fit-margin-left="0"
     fit-margin-right="0"
     fit-margin-bottom="0" />
  <metadata
     id="metadata6466">
    <rdf:RDF>
      <cc:Work
         rdf:about="">
        <dc:format>image/svg+xml</dc:format>
        <dc:type
           rdf:resource="http://purl.org/dc/dcmitype/StillImage" />
        <dc:title />
      </cc:Work>
    </rdf:RDF>
  </metadata>
  <g
     inkscape:label="Calque 1"
     inkscape:groupmode="layer"
     id="layer1"
     transform="translate(-0.612921,-0.745571)">
    <path
       id="path8462"
       pointer-events="none"
       d="m 9.006425,5.257918 c -0.82285,0.0026 -1.48961,0.664104 -1.48961,1.47902 v 0.619125 h 2.98187 V 6.726355 c -0.008,-0.812271 -0.67204,-1.465792 -1.49226,-1.468437 z"
       inkscape:connector-curvature="0"
       style="fill:#ffffff;stroke:none;stroke-width:0.26458332" />
    <ellipse
       id="ellipse8464"
       pointer-events="none"
       ry="1.0493258"
       rx="1.0577593"
       cy="10.110391"
       cx="8.8502865"
       style="fill:#ffffff;stroke:none;stroke-width:0.26458332" />
    <path
       id="path8466"
       pointer-events="none"
       d="M 8.977325,1.601376 2.484426,4.472105 v 4.283604 c 0,3.971396 2.767549,7.6835 6.492899,8.585729 3.72006,-0.902229 6.49026,-4.614333 6.49026,-8.585729 V 4.472105 Z m 3.43696,11.527896 H 5.537725 V 7.356063 h 0.9869 V 6.726355 c 0,-1.359958 1.11126,-2.463271 2.48445,-2.463271 1.3732,0 2.48445,1.103313 2.48445,2.463271 v 0.629708 h 0.92076 z"
       inkscape:connector-curvature="0"
       style="fill:#ffffff;stroke:none;stroke-width:0.26458332" />
    <path
       style="fill:#326ce5;fill-opacity:1;fill-rule:evenodd;stroke:none;stroke-width:0.26458332;stroke-linecap:square;stroke-miterlimit:10"
       inkscape:connector-curvature="0"
       d="m 0.612921,11.571193 1.70997,-7.491565 6.923444,-3.334057 6.92343,3.334057 1.70999,7.491565 -4.79123,6.007796 h -7.68439 z"
       id="path8468" />
    <text
       id="text8474"
       y="16.424946"
       x="9.215971"
       style="font-style:normal;font-weight:normal;font-size:10.58333302px;line-height:6.61458302px;font-family:Sans;letter-spacing:0px;word-spacing:0px;fill:#eeeeee;fill-opacity:1;stroke:none;stroke-width:0.26458332px;stroke-linecap:butt;stroke-linejoin:miter;stroke-opacity:1"
       xml:space="preserve"><tspan
         style="font-style:normal;font-variant:normal;font-weight:normal;font-stretch:normal;font-size:2.82222223px;font-family:Arial;-inkscape-font-specification:'Arial, Normal';font-variant-ligatures:normal;font-variant-caps:normal;font-variant-numeric:normal;font-feature-settings:normal;text-align:center;writing-mode:lr-tb;text-anchor:middle;fill:#eeeeee;fill-opacity:1;stroke-width:0.26458332px"
         y="16.424946"
         x="9.215971"
         id="tspan8472"
         sodipodi:role="line">role</tspan></text>
    <path
       id="path8476"
       pointer-events="none"
       d="m 9.260865,7.145339 c -0.39389,0.0014 -0.71305,0.317896 -0.71305,0.707987 V 8.14969 h 1.42737 V 7.848262 c -0.004,-0.388828 -0.3217,-0.701659 -0.71432,-0.702923 z"
       inkscape:connector-curvature="0"
       style="fill:#eeeeee;fill-opacity:1;stroke:none;stroke-width:0.12665248" />
    <ellipse
       id="ellipse8478"
       pointer-events="none"
       ry="0.50229818"
       rx="0.50633514"
       cy="9.4681444"
       cx="9.1861477"
       style="fill:#eeeeee;fill-opacity:1;stroke:none;stroke-width:0.12665248" />
    <path
       id="path8480"
       pointer-events="none"
       d="m 9.246935,5.395002 -3.10805,1.374181 v 2.050501 c 0,1.901056 1.32478,3.677988 3.10805,4.109873 1.78073,-0.431885 3.10678,-2.208817 3.10678,-4.109873 V 6.769183 Z m 1.64522,5.518246 h -3.2917 V 8.14969 h 0.47241 V 7.848262 c 0,-0.650995 0.53194,-1.17914 1.18927,-1.17914 0.65732,0 1.18926,0.528145 1.18926,1.17914 V 8.14969 h 0.44076 z"
       inkscape:connector-curvature="0"
       style="fill:#eeeeee;fill-opacity:1;stroke:none;stroke-width:0.12665248" />
    <rect
       style="opacity:1;fill:none;fill-opacity:1;fill-rule:nonzero;stroke:#eeeeee;stroke-width:0.40000001;stroke-linecap:butt;stroke-linejoin:round;stroke-miterlimit:10;stroke-dasharray:0.8, 0.4;stroke-dashoffset:4;stroke-opacity:1"
       id="rect8484"
       width="9.9298582"
       height="8.6571665"
       x="4.2814088"
       y="4.868989" />
  </g>
</svg>
