<?xml version="1.0" encoding="UTF-8" standalone="no"?>
<!-- Created with Inkscape (http://www.inkscape.org/) -->

<svg
   xmlns:dc="http://purl.org/dc/elements/1.1/"
   xmlns:cc="http://creativecommons.org/ns#"
   xmlns:rdf="http://www.w3.org/1999/02/22-rdf-syntax-ns#"
   xmlns:svg="http://www.w3.org/2000/svg"
   xmlns="http://www.w3.org/2000/svg"
   xmlns:sodipodi="http://sodipodi.sourceforge.net/DTD/sodipodi-0.dtd"
   xmlns:inkscape="http://www.inkscape.org/namespaces/inkscape"
   width="17.266741mm"
   height="16.837576mm"
   viewBox="0 0 17.266741 16.837576"
   version="1.1"
   id="svg10613"
   inkscape:version="0.92.2 2405546, 2018-03-11"
   sodipodi:docname="rs.svg">
  <defs
     id="defs10607" />
  <sodipodi:namedview
     id="base"
     pagecolor="#ffffff"
     bordercolor="#666666"
     borderopacity="1.0"
     inkscape:pageopacity="0.0"
     inkscape:pageshadow="2"
     inkscape:zoom="5.6"
     inkscape:cx="-43.791405"
     inkscape:cy="4.6433973"
     inkscape:document-units="mm"
     inkscape:current-layer="layer1"
     showgrid="false"
     inkscape:window-width="2560"
     inkscape:window-height="1556"
     inkscape:window-x="0"
     inkscape:window-y="0"
     inkscape:window-maximized="1"
     fit-margin-top="0"
     fit-margin-left="0"
     fit-margin-right="0"
     fit-margin-bottom="0" />
  <metadata
     id="metadata10610">
    <rdf:RDF>
      <cc:Work
         rdf:about="">
        <dc:format>image/svg+xml</dc:format>
        <dc:type
           rdf:resource="http://purl.org/dc/dcmitype/StillImage" />
        <dc:title></dc:title>
      </cc:Work>
    </rdf:RDF>
  </metadata>
  <g
     inkscape:label="Calque 1"
     inkscape:groupmode="layer"
     id="layer1"
     transform="translate(-2.23345,-1.413801)">
    <path
       id="path866"
       d="m 2.23345,12.239429 1.70997,-7.491566 6.9234,-3.334062 6.9234,3.334062 1.70997,7.491566 -4.79119,6.007793 H 7.02465 Z"
       inkscape:connector-curvature="0"
       style="fill:#326ce5;fill-opacity:1;fill-rule:evenodd;stroke:none;stroke-width:0.26458332;stroke-linecap:square;stroke-miterlimit:10" />
    <path
       id="path1158"
       d="m 9.47434,6.537041 h 6.52499 v 4.583334 H 9.47434 Z"
       inkscape:connector-curvature="0"
       style="fill:#326ce5;fill-opacity:1;fill-rule:evenodd;stroke:#eeeeee;stroke-width:0.52914584;stroke-linecap:square;stroke-linejoin:round;stroke-miterlimit:10;stroke-dasharray:1.58743755, 1.58743755;stroke-dashoffset:3.66698074" />
    <path
       id="path1162"
       d="m 7.93559,7.948352 h 6.52499 v 4.583334 H 7.93559 Z"
       inkscape:connector-curvature="0"
       style="fill:#326ce5;fill-opacity:1;fill-rule:evenodd;stroke:#eeeeee;stroke-width:0.52914584;stroke-linecap:square;stroke-linejoin:round;stroke-miterlimit:10;stroke-dasharray:1.58743755, 1.58743755;stroke-dashoffset:3.87863898" />
    <path
       id="path1164"
       d="m 6.39684,9.359664 h 6.525 v 4.583334 h -6.525 z"
       inkscape:connector-curvature="0"
       style="fill:#eeeeee;fill-rule:evenodd;stroke:none;stroke-width:0.26458332;stroke-linecap:square;stroke-miterlimit:10" />
    <path
       id="path1166"
       d="m 6.39684,9.359664 h 6.525 v 4.583334 h -6.525 z"
       inkscape:connector-curvature="0"
       style="fill:none;fill-rule:evenodd;stroke:#eeeeee;stroke-width:0.52916664;stroke-linecap:butt;stroke-linejoin:round;stroke-miterlimit:10" />
    <path
       id="path1168"
       d="m 5.47933,13.943044 h 10.77498 v 4.308333 H 5.47933 Z"
       inkscape:connector-curvature="0"
       style="fill:#000000;fill-opacity:0;fill-rule:evenodd;stroke:none;stroke-width:0.26458332;stroke-linecap:square;stroke-miterlimit:10" />
    <path
       id="path1170"
       d="m 9.87441,17.086752 v -1.463477 h 0.22324 v 0.223243 q 0.0868,-0.157097 0.1571,-0.206706 0.0744,-0.04961 0.16123,-0.04961 0.12402,0 0.25218,0.08268 l -0.0827,0.227376 q -0.0909,-0.05374 -0.1819,-0.05374 -0.0827,0 -0.14883,0.04961 -0.062,0.04961 -0.091,0.136426 -0.0413,0.132291 -0.0413,0.289388 v 0.764811 z m 0.84381,-0.438216 0.24392,-0.03721 q 0.0207,0.148828 0.11575,0.227376 0.0951,0.07855 0.26458,0.07855 0.1695,0 0.25219,-0.07028 0.0827,-0.07028 0.0827,-0.165364 0,-0.08268 -0.0744,-0.132292 -0.0496,-0.03307 -0.25219,-0.08268 -0.27285,-0.07028 -0.38034,-0.11989 -0.10335,-0.04961 -0.15709,-0.136425 -0.0537,-0.09095 -0.0537,-0.198438 0,-0.09508 0.0455,-0.177767 0.0455,-0.08682 0.11989,-0.14056 0.0579,-0.04134 0.1571,-0.07028 0.10335,-0.03307 0.21497,-0.03307 0.17363,0 0.30179,0.04961 0.13229,0.04961 0.1943,0.136426 0.062,0.08268 0.0827,0.227376 l -0.23978,0.03307 q -0.0165,-0.115755 -0.0992,-0.177767 -0.0785,-0.06201 -0.21911,-0.06201 -0.17363,0 -0.24805,0.05788 -0.0703,0.05374 -0.0703,0.128157 0,0.04961 0.0289,0.08682 0.0331,0.04134 0.0951,0.06615 0.0372,0.01654 0.2191,0.06614 0.26459,0.07028 0.36794,0.115756 0.10335,0.04134 0.16123,0.128157 0.062,0.08268 0.062,0.21084 0,0.124023 -0.0744,0.235645 -0.0703,0.107487 -0.20671,0.169498 -0.13642,0.05788 -0.31006,0.05788 -0.28525,0 -0.43408,-0.115755 -0.14882,-0.11989 -0.19017,-0.355534 z"
       inkscape:connector-curvature="0"
       style="fill:#eeeeee;fill-rule:nonzero;stroke:none;stroke-width:0.26458332;stroke-linecap:square;stroke-miterlimit:10" />
  </g>
</svg>
