<?xml version="1.0" encoding="UTF-8" standalone="no"?>
<!-- Created with Inkscape (http://www.inkscape.org/) -->

<svg
   xmlns:dc="http://purl.org/dc/elements/1.1/"
   xmlns:cc="http://creativecommons.org/ns#"
   xmlns:rdf="http://www.w3.org/1999/02/22-rdf-syntax-ns#"
   xmlns:svg="http://www.w3.org/2000/svg"
   xmlns="http://www.w3.org/2000/svg"
   xmlns:sodipodi="http://sodipodi.sourceforge.net/DTD/sodipodi-0.dtd"
   xmlns:inkscape="http://www.inkscape.org/namespaces/inkscape"
   width="17.266741mm"
   height="16.837494mm"
   viewBox="0 0 17.266741 16.837494"
   version="1.1"
   id="svg13179"
   inkscape:version="0.92.2 2405546, 2018-03-11"
   sodipodi:docname="sc.svg">
  <defs
     id="defs13173" />
  <sodipodi:namedview
     id="base"
     pagecolor="#ffffff"
     bordercolor="#666666"
     borderopacity="1.0"
     inkscape:pageopacity="0.0"
     inkscape:pageshadow="2"
     inkscape:zoom="5.6"
     inkscape:cx="-60.07893"
     inkscape:cy="-8.4616187"
     inkscape:document-units="mm"
     inkscape:current-layer="layer1"
     showgrid="false"
     inkscape:window-width="2560"
     inkscape:window-height="1556"
     inkscape:window-x="0"
     inkscape:window-y="0"
     inkscape:window-maximized="1"
     fit-margin-top="0"
     fit-margin-left="0"
     fit-margin-right="0"
     fit-margin-bottom="0" />
  <metadata
     id="metadata13176">
    <rdf:RDF>
      <cc:Work
         rdf:about="">
        <dc:format>image/svg+xml</dc:format>
        <dc:type
           rdf:resource="http://purl.org/dc/dcmitype/StillImage" />
        <dc:title />
      </cc:Work>
    </rdf:RDF>
  </metadata>
  <g
     inkscape:label="Calque 1"
     inkscape:groupmode="layer"
     id="layer1"
     transform="translate(-1.571987,-1.508336)">
    <path
       id="path6461"
       d="m 1.571987,12.333964 1.70997,-7.491566 6.9234,-3.334062 6.9234,3.334062 1.70997,7.491566 -4.79119,6.007793 h -7.68435 z"
       inkscape:connector-curvature="0"
       style="fill:#326ce5;fill-opacity:1;fill-rule:evenodd;stroke:none;stroke-width:0.26458332;stroke-linecap:square;stroke-miterlimit:10" />
    <path
       id="path6467"
       d="m 4.817867,14.037495 h 10.77498 v 4.308334 H 4.817867 Z"
       inkscape:connector-curvature="0"
       style="fill:#000000;fill-opacity:0;fill-rule:evenodd;stroke:none;stroke-width:0.26458332;stroke-linecap:square;stroke-miterlimit:10" />
    <text
       id="text6471"
       y="17.187717"
       x="10.175035"
       style="font-style:normal;font-weight:normal;font-size:10.58333302px;line-height:6.61458302px;font-family:Sans;letter-spacing:0px;word-spacing:0px;fill:#eeeeee;fill-opacity:1;stroke:none;stroke-width:0.26458332px;stroke-linecap:butt;stroke-linejoin:miter;stroke-opacity:1"
       xml:space="preserve"><tspan
         style="font-style:normal;font-variant:normal;font-weight:normal;font-stretch:normal;font-size:2.82222223px;font-family:Arial;-inkscape-font-specification:'Arial, Normal';font-variant-ligatures:normal;font-variant-caps:normal;font-variant-numeric:normal;font-feature-settings:normal;text-align:center;writing-mode:lr-tb;text-anchor:middle;fill:#eeeeee;fill-opacity:1;stroke-width:0.26458332px"
         y="17.187717"
         x="10.175035"
         id="tspan6469"
         sodipodi:role="line">sc</tspan></text>
    <path
       style="fill:#326ce5;fill-opacity:1;fill-rule:evenodd;stroke:none;stroke-width:0.20757428;stroke-linecap:square;stroke-miterlimit:10"
       inkscape:connector-curvature="0"
       d="m 5.507037,11.272564 v 0 c 0,0.376676 2.10346,0.682033 4.69822,0.682033 2.59475,0 4.69821,-0.305357 4.69821,-0.682033 v 1.845045 c 0,0.376674 -2.10346,0.68203 -4.69821,0.68203 -2.59476,0 -4.69822,-0.305356 -4.69822,-0.68203 z"
       id="path6473" />
    <path
       style="fill:#326ce5;fill-opacity:1;fill-rule:evenodd;stroke:none;stroke-width:0.20757428;stroke-linecap:square;stroke-miterlimit:10"
       inkscape:connector-curvature="0"
       d="m 5.507037,11.272564 v 0 c 0,-0.376674 2.10346,-0.682032 4.69822,-0.682032 2.59475,0 4.69821,0.305358 4.69821,0.682032 v 0 c 0,0.376676 -2.10346,0.682033 -4.69821,0.682033 -2.59476,0 -4.69822,-0.305357 -4.69822,-0.682033 z"
       id="path6475" />
    <path
       style="fill:none;fill-rule:evenodd;stroke:#eeeeee;stroke-width:0.41499999;stroke-linecap:butt;stroke-linejoin:round;stroke-miterlimit:10;stroke-dasharray:1.66, 0.415;stroke-dashoffset:0"
       inkscape:connector-curvature="0"
       d="m 14.903467,11.626916 v 0 c 0,0.376677 -2.10346,0.682033 -4.69821,0.682033 -2.59475,0 -4.69822,-0.305356 -4.69822,-0.682033 v 0 c 0,-0.376674 2.10347,-0.682031 4.69822,-0.682031 2.59475,0 4.69821,0.305357 4.69821,0.682031 v 1.845046 c 0,0.376673 -2.10346,0.682029 -4.69821,0.682029 -2.59475,0 -4.69822,-0.305356 -4.69822,-0.682029 v -1.845046"
       id="path6477" />
    <path
       style="fill:#eeeeee;fill-opacity:1;fill-rule:evenodd;stroke:#eeeeee;stroke-width:0.20757428;stroke-linecap:square;stroke-miterlimit:10;stroke-opacity:1"
       inkscape:connector-curvature="0"
       d="m 5.507037,8.962857 v 0 c 0,0.376676 2.10346,0.682033 4.69822,0.682033 2.59475,0 4.69821,-0.305357 4.69821,-0.682033 v 1.845045 c 0,0.376674 -2.10346,0.68203 -4.69821,0.68203 -2.59476,0 -4.69822,-0.305356 -4.69822,-0.68203 z"
       id="path6479" />
    <path
       style="fill:#326ce5;fill-opacity:1;fill-rule:evenodd;stroke:none;stroke-width:0.20757428;stroke-linecap:square;stroke-miterlimit:10"
       inkscape:connector-curvature="0"
       d="m 5.507037,8.962857 v 0 c 0,-0.376674 2.10346,-0.682032 4.69822,-0.682032 2.59475,0 4.69821,0.305358 4.69821,0.682032 v 0 c 0,0.376676 -2.10346,0.682033 -4.69821,0.682033 -2.59476,0 -4.69822,-0.305357 -4.69822,-0.682033 z"
       id="path6481" />
    <path
       style="fill:none;fill-rule:evenodd;stroke:#eeeeee;stroke-width:0.41499999;stroke-linecap:butt;stroke-linejoin:round;stroke-miterlimit:10;stroke-dasharray:none;stroke-opacity:1"
       inkscape:connector-curvature="0"
       d="m 14.903467,8.962857 v 0 c 0,0.376676 -2.10346,0.682033 -4.69821,0.682033 -2.59475,0 -4.69822,-0.305357 -4.69822,-0.682033 v 0 c 0,-0.376674 2.10347,-0.682032 4.69822,-0.682032 2.59475,0 4.69821,0.305358 4.69821,0.682032 v 1.845045 c 0,0.376674 -2.10346,0.68203 -4.69821,0.68203 -2.59475,0 -4.69822,-0.305356 -4.69822,-0.68203 V 8.962857"
       id="path6483" />
    <path
       id="path6485"
       d="m 5.507136,6.407474 v 0 c 0,0.376676 2.103456,0.682032 4.698223,0.682032 2.594746,0 4.698212,-0.305356 4.698212,-0.682032 v 1.845045 c 0,0.376674 -2.103466,0.68203 -4.698212,0.68203 -2.594767,0 -4.698223,-0.305356 -4.698223,-0.68203 z"
       inkscape:connector-curvature="0"
       style="fill:#326ce5;fill-opacity:1;fill-rule:evenodd;stroke:none;stroke-width:0.20757428;stroke-linecap:square;stroke-miterlimit:10" />
    <path
       id="path6487"
       d="m 5.507136,6.407474 v 0 c 0,-0.376674 2.103456,-0.682032 4.698223,-0.682032 2.594746,0 4.698212,0.305358 4.698212,0.682032 v 0 c 0,0.376676 -2.103466,0.682032 -4.698212,0.682032 -2.594767,0 -4.698223,-0.305356 -4.698223,-0.682032 z"
       inkscape:connector-curvature="0"
       style="fill:#326ce5;fill-opacity:1;fill-rule:evenodd;stroke:none;stroke-width:0.20757428;stroke-linecap:square;stroke-miterlimit:10" />
    <path
       id="path6489"
       d="m 14.903571,6.407474 v 0 c 0,0.376676 -2.103466,0.682032 -4.698212,0.682032 -2.594757,0 -4.698223,-0.305356 -4.698223,-0.682032 v 0 c 0,-0.376674 2.103466,-0.682032 4.698223,-0.682032 2.594746,0 4.698212,0.305358 4.698212,0.682032 v 1.845045 c 0,0.376674 -2.103466,0.68203 -4.698212,0.68203 -2.594757,0 -4.698223,-0.305356 -4.698223,-0.68203 V 6.407474"
       inkscape:connector-curvature="0"
       style="fill:none;fill-rule:evenodd;stroke:#eeeeee;stroke-width:0.41514856;stroke-linecap:butt;stroke-linejoin:round;stroke-miterlimit:10;stroke-dasharray:1.66059431, 0.41514858;stroke-dashoffset:0" />
  </g>
</svg>
