<?xml version="1.0" encoding="UTF-8" standalone="no"?>
<!-- Created with Inkscape (http://www.inkscape.org/) -->

<svg
   xmlns:dc="http://purl.org/dc/elements/1.1/"
   xmlns:cc="http://creativecommons.org/ns#"
   xmlns:rdf="http://www.w3.org/1999/02/22-rdf-syntax-ns#"
   xmlns:svg="http://www.w3.org/2000/svg"
   xmlns="http://www.w3.org/2000/svg"
   xmlns:sodipodi="http://sodipodi.sourceforge.net/DTD/sodipodi-0.dtd"
   xmlns:inkscape="http://www.inkscape.org/namespaces/inkscape"
   width="17.26675mm"
   height="16.8375mm"
   viewBox="0 0 17.26675 16.8375"
   version="1.1"
   id="svg6625"
   inkscape:version="0.92.2 2405546, 2018-03-11"
   sodipodi:docname="secret.svg">
  <defs
     id="defs6619" />
  <sodipodi:namedview
     id="base"
     pagecolor="#ffffff"
     bordercolor="#666666"
     borderopacity="1.0"
     inkscape:pageopacity="0.0"
     inkscape:pageshadow="2"
     inkscape:zoom="5.6"
     inkscape:cx="-54.96777"
     inkscape:cy="15.438575"
     inkscape:document-units="mm"
     inkscape:current-layer="layer1"
     showgrid="false"
     inkscape:window-width="2560"
     inkscape:window-height="1556"
     inkscape:window-x="0"
     inkscape:window-y="0"
     inkscape:window-maximized="1"
     fit-margin-top="0"
     fit-margin-left="0"
     fit-margin-right="0"
     fit-margin-bottom="0" />
  <metadata
     id="metadata6622">
    <rdf:RDF>
      <cc:Work
         rdf:about="">
        <dc:format>image/svg+xml</dc:format>
        <dc:type
           rdf:resource="http://purl.org/dc/dcmitype/StillImage" />
        <dc:title />
      </cc:Work>
    </rdf:RDF>
  </metadata>
  <g
     inkscape:label="Calque 1"
     inkscape:groupmode="layer"
     id="layer1"
     transform="translate(-1.90271,-1.555583)">
    <path
       id="path842"
       d="m 10.60344,7.131972 -0.13194,6.316667 3.8757,4.874305 4.80555,-5.969443 z"
       inkscape:connector-curvature="0"
       style="fill:#4b7bd0;fill-rule:evenodd;stroke:none;stroke-width:0.26458332;stroke-linecap:square;stroke-miterlimit:10" />
    <path
       id="path840"
       d="m 1.90271,12.381211 1.70997,-7.491566 6.9234,-3.334062 6.92341,3.334062 1.70997,7.491566 -4.7912,6.007793 H 6.69391 Z"
       inkscape:connector-curvature="0"
       style="fill:#326ce5;fill-opacity:1;fill-rule:evenodd;stroke:none;stroke-width:0.26458332;stroke-linecap:square;stroke-miterlimit:10" />
    <path
       id="path920"
       d="m 11.17428,9.550722 h 3.70833"
       inkscape:connector-curvature="0"
       style="fill:#000000;fill-opacity:0;fill-rule:evenodd;stroke:none;stroke-width:0.26458332;stroke-linecap:square;stroke-miterlimit:10" />
    <path
       id="path922"
       d="m 11.17428,9.550722 h 3.70833"
       inkscape:connector-curvature="0"
       style="fill:none;fill-rule:evenodd;stroke:#eeeeee;stroke-width:0.79374999;stroke-linecap:butt;stroke-linejoin:round;stroke-miterlimit:10" />
    <path
       id="path924"
       d="m 8.66039,9.550722 h 1.45833"
       inkscape:connector-curvature="0"
       style="fill:#000000;fill-opacity:0;fill-rule:evenodd;stroke:none;stroke-width:0.26458332;stroke-linecap:square;stroke-miterlimit:10" />
    <path
       id="path926"
       d="m 8.66039,9.550722 h 1.45833"
       inkscape:connector-curvature="0"
       style="fill:none;fill-rule:evenodd;stroke:#eeeeee;stroke-width:0.79374999;stroke-linecap:butt;stroke-linejoin:round;stroke-miterlimit:10" />
    <path
       id="path928"
       d="m 9.05761,7.434055 h 5.825"
       inkscape:connector-curvature="0"
       style="fill:#000000;fill-opacity:0;fill-rule:evenodd;stroke:none;stroke-width:0.26458332;stroke-linecap:square;stroke-miterlimit:10" />
    <path
       id="path930"
       d="m 9.05761,7.434055 h 5.825"
       inkscape:connector-curvature="0"
       style="fill:none;fill-rule:evenodd;stroke:#eeeeee;stroke-width:0.79374999;stroke-linecap:butt;stroke-linejoin:round;stroke-miterlimit:10" />
    <path
       id="path932"
       d="M 6.54372,7.434055 H 8.00206"
       inkscape:connector-curvature="0"
       style="fill:#000000;fill-opacity:0;fill-rule:evenodd;stroke:none;stroke-width:0.26458332;stroke-linecap:square;stroke-miterlimit:10" />
    <path
       id="path934"
       d="M 6.54372,7.434055 H 8.00206"
       inkscape:connector-curvature="0"
       style="fill:none;fill-rule:evenodd;stroke:#eeeeee;stroke-width:0.79374999;stroke-linecap:butt;stroke-linejoin:round;stroke-miterlimit:10" />
    <path
       id="path936"
       d="m 8.47836,9.891657 v 0 c 0,-1.166702 1.01109,-2.112501 2.25833,-2.112501 1.24724,0 2.25833,0.945799 2.25833,2.112501 h -1.05624 v 0 c 0,-0.583351 -0.5382,-1.05625 -1.20209,-1.05625 -0.66389,0 -1.20208,0.472899 -1.20208,1.05625 z"
       inkscape:connector-curvature="0"
       style="fill:#eeeeee;fill-rule:evenodd;stroke:#326ce5;stroke-width:0.26458332;stroke-linecap:square;stroke-miterlimit:10;stroke-opacity:1" />
    <path
       id="path940"
       d="m 11.17428,11.667389 h 3.70833"
       inkscape:connector-curvature="0"
       style="fill:#000000;fill-opacity:0;fill-rule:evenodd;stroke:none;stroke-width:0.26458332;stroke-linecap:square;stroke-miterlimit:10" />
    <path
       id="path942"
       d="m 11.17428,11.667389 h 3.70833"
       inkscape:connector-curvature="0"
       style="fill:none;fill-rule:evenodd;stroke:#eeeeee;stroke-width:0.79374999;stroke-linecap:butt;stroke-linejoin:round;stroke-miterlimit:10" />
    <path
       id="path944"
       d="m 8.66039,11.667389 h 1.45833"
       inkscape:connector-curvature="0"
       style="fill:#000000;fill-opacity:0;fill-rule:evenodd;stroke:none;stroke-width:0.26458332;stroke-linecap:square;stroke-miterlimit:10" />
    <path
       id="path946"
       d="m 8.66039,11.667389 h 1.45833"
       inkscape:connector-curvature="0"
       style="fill:none;fill-rule:evenodd;stroke:#eeeeee;stroke-width:0.79374999;stroke-linecap:butt;stroke-linejoin:round;stroke-miterlimit:10" />
    <path
       id="path948"
       d="m 9.05761,13.784056 h 5.825"
       inkscape:connector-curvature="0"
       style="fill:#000000;fill-opacity:0;fill-rule:evenodd;stroke:none;stroke-width:0.26458332;stroke-linecap:square;stroke-miterlimit:10" />
    <path
       id="path950"
       d="m 9.05761,13.784056 h 5.825"
       inkscape:connector-curvature="0"
       style="fill:none;fill-rule:evenodd;stroke:#eeeeee;stroke-width:0.79374999;stroke-linecap:butt;stroke-linejoin:round;stroke-miterlimit:10" />
    <path
       id="path952"
       d="M 6.54372,13.784056 H 8.00206"
       inkscape:connector-curvature="0"
       style="fill:#000000;fill-opacity:0;fill-rule:evenodd;stroke:none;stroke-width:0.26458332;stroke-linecap:square;stroke-miterlimit:10" />
    <path
       id="path954"
       d="M 6.54372,13.784056 H 8.00206"
       inkscape:connector-curvature="0"
       style="fill:none;fill-rule:evenodd;stroke:#eeeeee;stroke-width:0.79374999;stroke-linecap:butt;stroke-linejoin:round;stroke-miterlimit:10" />
    <path
       id="path956"
       d="m 7.9222,9.828603 h 5.61666 v 3.658333 H 7.9222 Z"
       inkscape:connector-curvature="0"
       style="fill:#eeeeee;fill-rule:evenodd;stroke:#326ce5;stroke-width:0.26458332;stroke-linecap:square;stroke-miterlimit:10;stroke-opacity:1" />
    <path
       id="path960"
       d="m 3.03192,14.08475 h 15.00833 v 4.308332 H 3.03192 Z"
       inkscape:connector-curvature="0"
       style="fill:#000000;fill-opacity:0;fill-rule:evenodd;stroke:none;stroke-width:0.26458332;stroke-linecap:square;stroke-miterlimit:10" />
    <path
       id="path962"
       d="m 6.78399,16.790244 0.24391,-0.03721 q 0.0207,0.148828 0.11576,0.227376 0.0951,0.07855 0.26458,0.07855 0.1695,0 0.25219,-0.07028 0.0827,-0.07028 0.0827,-0.165364 0,-0.08268 -0.0744,-0.132292 -0.0496,-0.03307 -0.25218,-0.08268 -0.27285,-0.07028 -0.38034,-0.11989 -0.10335,-0.04961 -0.15709,-0.136425 -0.0537,-0.09095 -0.0537,-0.198438 0,-0.09508 0.0455,-0.177767 0.0455,-0.08682 0.11989,-0.14056 0.0579,-0.04134 0.1571,-0.07028 0.10335,-0.03307 0.21497,-0.03307 0.17363,0 0.30179,0.04961 0.13229,0.04961 0.1943,0.136426 0.062,0.08268 0.0827,0.227376 l -0.23978,0.03307 q -0.0165,-0.115755 -0.0992,-0.177767 -0.0786,-0.06201 -0.21911,-0.06201 -0.17363,0 -0.24805,0.05788 -0.0703,0.05374 -0.0703,0.128157 0,0.04961 0.0289,0.08682 0.0331,0.04134 0.0951,0.06615 0.0372,0.01654 0.2191,0.06614 0.26459,0.07028 0.36794,0.115756 0.10335,0.04134 0.16123,0.128157 0.062,0.08268 0.062,0.21084 0,0.124023 -0.0744,0.235644 -0.0703,0.107487 -0.20671,0.169499 -0.13642,0.05788 -0.31006,0.05788 -0.28525,0 -0.43408,-0.115755 -0.14883,-0.11989 -0.19017,-0.355534 z m 2.50941,-0.03307 0.25631,0.03307 q -0.062,0.223242 -0.22737,0.347265 -0.16123,0.124024 -0.41755,0.124024 -0.31832,0 -0.50849,-0.198438 -0.18604,-0.198437 -0.18604,-0.553971 0,-0.367936 0.19017,-0.570508 0.19017,-0.206706 0.49196,-0.206706 0.29352,0 0.47956,0.202572 0.18603,0.198438 0.18603,0.56224 0,0.02067 0,0.06201 h -1.0914 q 0.0124,0.243913 0.13642,0.372071 0.12403,0.128157 0.30593,0.128157 0.13642,0 0.23151,-0.07028 0.0951,-0.07441 0.15296,-0.23151 z M 8.47898,16.356165 h 0.81856 q -0.0165,-0.181901 -0.0951,-0.276986 -0.11989,-0.14056 -0.30593,-0.14056 -0.16949,0 -0.28938,0.115755 -0.11576,0.111621 -0.12816,0.301791 z m 2.337,0.334863 0.24391,0.03307 q -0.0413,0.252181 -0.20671,0.396875 -0.16536,0.14056 -0.40514,0.14056 -0.29766,0 -0.47956,-0.194304 -0.1819,-0.198437 -0.1819,-0.562239 0,-0.239779 0.0786,-0.417546 0.0786,-0.177767 0.23565,-0.264583 0.16123,-0.09095 0.3514,-0.09095 0.23564,0 0.3886,0.124024 0.15296,0.119889 0.19431,0.338997 l -0.23978,0.03721 q -0.0372,-0.144694 -0.12403,-0.219108 -0.0868,-0.07441 -0.21084,-0.07441 -0.18603,0 -0.30592,0.136426 -0.11575,0.132292 -0.11575,0.42168 0,0.293522 0.11161,0.429948 0.11576,0.132291 0.29766,0.132291 0.1447,0 0.23978,-0.09095 0.0992,-0.09095 0.12816,-0.276986 z m 0.45062,0.537435 v -1.463477 h 0.22324 v 0.223243 q 0.0868,-0.157097 0.15709,-0.206706 0.0744,-0.04961 0.16124,-0.04961 0.12402,0 0.25218,0.08268 l -0.0827,0.227376 q -0.091,-0.05374 -0.1819,-0.05374 -0.0827,0 -0.14883,0.04961 -0.062,0.04961 -0.0909,0.136426 -0.0413,0.132291 -0.0413,0.289388 v 0.764811 z m 1.94349,-0.471289 0.25632,0.03307 q -0.062,0.223242 -0.22738,0.347265 -0.16123,0.124024 -0.41755,0.124024 -0.31832,0 -0.50849,-0.198438 -0.18604,-0.198437 -0.18604,-0.553971 0,-0.367936 0.19017,-0.570508 0.19017,-0.206706 0.49196,-0.206706 0.29352,0 0.47956,0.202572 0.18603,0.198438 0.18603,0.56224 0,0.02067 0,0.06201 h -1.0914 q 0.0124,0.243913 0.13642,0.372071 0.12403,0.128157 0.30593,0.128157 0.13642,0 0.23151,-0.07028 0.0951,-0.07441 0.15296,-0.23151 z m -0.81442,-0.401009 h 0.81856 q -0.0165,-0.181901 -0.0951,-0.276986 -0.11989,-0.14056 -0.30592,-0.14056 -0.1695,0 -0.28939,0.115755 -0.11576,0.111621 -0.12816,0.301791 z m 1.92359,0.649056 0.0331,0.219108 q -0.10335,0.0248 -0.18604,0.0248 -0.13229,0 -0.2067,-0.04134 -0.0744,-0.04548 -0.10749,-0.115755 -0.0289,-0.07028 -0.0289,-0.293522 v -0.839225 h -0.1819 v -0.194304 h 0.1819 v -0.359668 l 0.24805,-0.148828 v 0.508496 h 0.24805 v 0.194304 h -0.24805 v 0.855761 q 0,0.103353 0.0124,0.136426 0.0124,0.02894 0.0413,0.04961 0.0289,0.01654 0.0868,0.01654 0.0413,0 0.10749,-0.0124 z"
       inkscape:connector-curvature="0"
       style="fill:#eeeeee;fill-rule:nonzero;stroke:none;stroke-width:0.26458332;stroke-linecap:square;stroke-miterlimit:10" />
    <circle
       style="opacity:1;fill:#326ce5;fill-opacity:1;fill-rule:nonzero;stroke:none;stroke-width:0.26478875;stroke-linecap:butt;stroke-linejoin:round;stroke-miterlimit:10;stroke-dasharray:0.52957746, 0.26478873;stroke-dashoffset:5.01860619;stroke-opacity:1"
       id="path7280"
       cx="10.730528"
       cy="11.657769"
       r="0.55515254" />
  </g>
</svg>
