<?xml version="1.0" encoding="UTF-8" standalone="no"?>
<!-- Created with Inkscape (http://www.inkscape.org/) -->

<svg
   xmlns:dc="http://purl.org/dc/elements/1.1/"
   xmlns:cc="http://creativecommons.org/ns#"
   xmlns:rdf="http://www.w3.org/1999/02/22-rdf-syntax-ns#"
   xmlns:svg="http://www.w3.org/2000/svg"
   xmlns="http://www.w3.org/2000/svg"
   xmlns:sodipodi="http://sodipodi.sourceforge.net/DTD/sodipodi-0.dtd"
   xmlns:inkscape="http://www.inkscape.org/namespaces/inkscape"
   width="17.266743mm"
   height="16.837576mm"
   viewBox="0 0 17.266743 16.837576"
   version="1.1"
   id="svg12529"
   inkscape:version="0.92.2 2405546, 2018-03-11"
   sodipodi:docname="sts.svg">
  <defs
     id="defs12523" />
  <sodipodi:namedview
     id="base"
     pagecolor="#ffffff"
     bordercolor="#666666"
     borderopacity="1.0"
     inkscape:pageopacity="0.0"
     inkscape:pageshadow="2"
     inkscape:zoom="5.6"
     inkscape:cx="-51.783267"
     inkscape:cy="-27.450274"
     inkscape:document-units="mm"
     inkscape:current-layer="layer1"
     showgrid="false"
     inkscape:window-width="2560"
     inkscape:window-height="1556"
     inkscape:window-x="0"
     inkscape:window-y="0"
     inkscape:window-maximized="1"
     fit-margin-top="0"
     fit-margin-left="0"
     fit-margin-right="0"
     fit-margin-bottom="0" />
  <metadata
     id="metadata12526">
    <rdf:RDF>
      <cc:Work
         rdf:about="">
        <dc:format>image/svg+xml</dc:format>
        <dc:type
           rdf:resource="http://purl.org/dc/dcmitype/StillImage" />
        <dc:title />
      </cc:Work>
    </rdf:RDF>
  </metadata>
  <g
     inkscape:label="Calque 1"
     inkscape:groupmode="layer"
     id="layer1"
     transform="translate(-1.66648,-1.366554)">
    <path
       id="path988"
       d="m 1.66648,12.192182 1.709973,-7.491566 6.9234,-3.334062 6.923397,3.334062 1.709973,7.491566 -4.791197,6.007793 H 6.457677 Z"
       inkscape:connector-curvature="0"
       style="fill:#326ce5;fill-opacity:1;fill-rule:evenodd;stroke:none;stroke-width:0.26458332;stroke-linecap:square;stroke-miterlimit:10" />
    <path
       id="path990"
       d="M 4.912357,13.895797 H 15.687344 V 18.20413 H 4.912357 Z"
       inkscape:connector-curvature="0"
       style="fill:#000000;fill-opacity:0;fill-rule:evenodd;stroke:none;stroke-width:0.26458332;stroke-linecap:square;stroke-miterlimit:10" />
    <path
       id="path992"
       d="m 8.585263,16.601289 0.243912,-0.03721 q 0.02066,0.148828 0.115755,0.227376 0.09509,0.07855 0.264583,0.07855 0.1695,0 0.252182,-0.07028 0.08268,-0.07028 0.08268,-0.165364 0,-0.08268 -0.07441,-0.132292 -0.04961,-0.03307 -0.252183,-0.08268 -0.272851,-0.07028 -0.380338,-0.11989 -0.103352,-0.04961 -0.157097,-0.136425 -0.05374,-0.09095 -0.05374,-0.198438 0,-0.09508 0.04547,-0.177767 0.04548,-0.08682 0.119891,-0.14056 0.05788,-0.04134 0.157096,-0.07028 0.103352,-0.03307 0.214974,-0.03307 0.173633,0 0.301789,0.04961 0.132292,0.04961 0.194305,0.136426 0.06201,0.08268 0.08268,0.227376 l -0.239778,0.03307 q -0.01654,-0.115755 -0.09922,-0.177767 -0.07855,-0.06201 -0.21911,-0.06201 -0.173632,0 -0.248046,0.05788 -0.07028,0.05374 -0.07028,0.128157 0,0.04961 0.02894,0.08682 0.03307,0.04134 0.09509,0.06615 0.03721,0.01654 0.219107,0.06614 0.264583,0.07028 0.367938,0.115756 0.103351,0.04134 0.161229,0.128157 0.06201,0.08268 0.06201,0.21084 0,0.124023 -0.07441,0.235645 -0.07028,0.107487 -0.206706,0.169498 -0.136427,0.05788 -0.31006,0.05788 -0.285252,0 -0.434081,-0.115755 -0.148828,-0.11989 -0.190169,-0.355534 z m 2.050521,0.214974 0.03307,0.219108 q -0.103354,0.02481 -0.186037,0.02481 -0.132291,0 -0.206705,-0.04134 -0.07441,-0.04547 -0.107487,-0.115755 -0.02894,-0.07028 -0.02894,-0.293522 V 15.770339 H 9.957784 v -0.194304 h 0.181901 v -0.359668 l 0.248047,-0.148828 v 0.508496 h 0.248047 v 0.194304 h -0.248047 v 0.855762 q 0,0.103352 0.01241,0.136425 0.01241,0.02894 0.04134,0.04961 0.02894,0.01654 0.08682,0.01654 0.04134,0 0.107487,-0.0124 z m 0.142563,-0.214974 0.243911,-0.03721 q 0.02066,0.148828 0.115755,0.227376 0.09509,0.07855 0.264584,0.07855 0.1695,0 0.252182,-0.07028 0.08268,-0.07028 0.08268,-0.165364 0,-0.08268 -0.07441,-0.132292 -0.04961,-0.03307 -0.252182,-0.08268 -0.272852,-0.07028 -0.380339,-0.11989 -0.103351,-0.04961 -0.157096,-0.136425 -0.05374,-0.09095 -0.05374,-0.198438 0,-0.09508 0.04547,-0.177767 0.04548,-0.08682 0.11989,-0.14056 0.05788,-0.04134 0.157097,-0.07028 0.103351,-0.03307 0.214974,-0.03307 0.173633,0 0.301789,0.04961 0.132291,0.04961 0.194304,0.136426 0.06201,0.08268 0.08268,0.227376 l -0.239779,0.03307 q -0.01654,-0.115755 -0.09922,-0.177767 -0.07855,-0.06201 -0.219109,-0.06201 -0.173633,0 -0.248047,0.05788 -0.07028,0.05374 -0.07028,0.128157 0,0.04961 0.02894,0.08682 0.03307,0.04134 0.09509,0.06615 0.03721,0.01654 0.219107,0.06614 0.264583,0.07028 0.367937,0.115756 0.103352,0.04134 0.161229,0.128157 0.06201,0.08268 0.06201,0.21084 0,0.124023 -0.07441,0.235645 -0.07028,0.107487 -0.206705,0.169498 -0.136428,0.05788 -0.31006,0.05788 -0.285253,0 -0.434081,-0.115755 -0.148828,-0.11989 -0.190169,-0.355534 z"
       inkscape:connector-curvature="0"
       style="fill:#eeeeee;fill-rule:nonzero;stroke:none;stroke-width:0.26458332;stroke-linecap:square;stroke-miterlimit:10" />
    <path
       id="path1234"
       d="m 8.821245,6.320002 h 6.525006 v 4.583334 H 8.821245 Z"
       inkscape:connector-curvature="0"
       style="fill:none;fill-rule:evenodd;stroke:#eeeeee;stroke-width:0.52914584;stroke-linecap:square;stroke-linejoin:round;stroke-miterlimit:10;stroke-dasharray:1.58743755, 1.58743755;stroke-dashoffset:3.66698074" />
    <path
       id="path1238"
       d="m 7.282497,7.731314 h 6.525006 v 4.583334 H 7.282497 Z"
       inkscape:connector-curvature="0"
       style="fill:#326ce5;fill-opacity:1;fill-rule:evenodd;stroke:#eeeeee;stroke-width:0.52914584;stroke-linecap:square;stroke-linejoin:round;stroke-miterlimit:10;stroke-dasharray:1.58743755, 1.58743755;stroke-dashoffset:3.87863898" />
    <path
       id="path1240"
       d="m 5.74377,9.142625 h 6.52499 v 4.583333 H 5.74377 Z"
       inkscape:connector-curvature="0"
       style="fill:#eeeeee;fill-rule:evenodd;stroke:none;stroke-width:0.26458332;stroke-linecap:square;stroke-miterlimit:10" />
    <path
       id="path1242"
       d="m 5.74377,9.142625 h 6.52499 v 4.583333 H 5.74377 Z"
       inkscape:connector-curvature="0"
       style="fill:none;fill-rule:evenodd;stroke:#eeeeee;stroke-width:0.52916664;stroke-linecap:butt;stroke-linejoin:round;stroke-miterlimit:10" />
    <path
       id="path1244"
       d="m 6.276932,10.416974 v 0 c 0,0.429405 1.221888,0.777506 2.729161,0.777506 1.507274,0 2.729178,-0.348101 2.729178,-0.777506 v 2.103322 c 0,0.429405 -1.221904,0.777506 -2.729178,0.777506 -1.507273,0 -2.729161,-0.348101 -2.729161,-0.777506 z"
       inkscape:connector-curvature="0"
       style="fill:#eeeeee;fill-rule:evenodd;stroke:none;stroke-width:0.26458332;stroke-linecap:square;stroke-miterlimit:10" />
    <path
       id="path1246"
       d="m 6.276932,10.416974 v 0 c 0,-0.429405 1.221888,-0.777505 2.729161,-0.777505 1.507274,0 2.729178,0.3481 2.729178,0.777505 v 0 c 0,0.429405 -1.221904,0.777506 -2.729178,0.777506 -1.507273,0 -2.729161,-0.348101 -2.729161,-0.777506 z"
       inkscape:connector-curvature="0"
       style="fill:#f4f4f4;fill-rule:evenodd;stroke:none;stroke-width:0.26458332;stroke-linecap:square;stroke-miterlimit:10" />
    <path
       id="path1248"
       d="m 11.735278,10.416974 v 0 c 0,0.429405 -1.221906,0.777506 -2.729177,0.777506 -1.507273,0 -2.729161,-0.348101 -2.729161,-0.777506 v 0 c 0,-0.429405 1.221888,-0.777505 2.729161,-0.777505 1.507273,0 2.729177,0.3481 2.729177,0.777505 v 2.103322 c 0,0.429405 -1.221906,0.777506 -2.729177,0.777506 -1.507273,0 -2.729161,-0.348101 -2.729161,-0.777506 v -2.103322"
       inkscape:connector-curvature="0"
       style="fill:#000000;fill-opacity:0;fill-rule:evenodd;stroke:none;stroke-width:0.26458332;stroke-linecap:square;stroke-miterlimit:10" />
    <path
       id="path1250"
       d="m 11.735278,10.416974 v 0 c 0,0.429405 -1.221906,0.777506 -2.729177,0.777506 -1.507273,0 -2.729161,-0.348101 -2.729161,-0.777506 v 0 c 0,-0.429405 1.221888,-0.777505 2.729161,-0.777505 1.507273,0 2.729177,0.3481 2.729177,0.777505 v 2.103322 c 0,0.429405 -1.221906,0.777506 -2.729177,0.777506 -1.507273,0 -2.729161,-0.348101 -2.729161,-0.777506 v -2.103322"
       inkscape:connector-curvature="0"
       style="fill:none;fill-rule:evenodd;stroke:#326ce5;stroke-width:0.52916664;stroke-linecap:butt;stroke-linejoin:round;stroke-miterlimit:10;stroke-opacity:1" />
  </g>
</svg>
