<?xml version="1.0" encoding="UTF-8" standalone="no"?>
<!-- Created with Inkscape (http://www.inkscape.org/) -->

<svg
   xmlns:dc="http://purl.org/dc/elements/1.1/"
   xmlns:cc="http://creativecommons.org/ns#"
   xmlns:rdf="http://www.w3.org/1999/02/22-rdf-syntax-ns#"
   xmlns:svg="http://www.w3.org/2000/svg"
   xmlns="http://www.w3.org/2000/svg"
   xmlns:sodipodi="http://sodipodi.sourceforge.net/DTD/sodipodi-0.dtd"
   xmlns:inkscape="http://www.inkscape.org/namespaces/inkscape"
   width="17.26676mm"
   height="16.837494mm"
   viewBox="0 0 17.26676 16.837494"
   version="1.1"
   id="svg14562"
   inkscape:version="0.92.2 2405546, 2018-03-11"
   sodipodi:docname="vol.svg">
  <defs
     id="defs14556" />
  <sodipodi:namedview
     id="base"
     pagecolor="#ffffff"
     bordercolor="#666666"
     borderopacity="1.0"
     inkscape:pageopacity="0.0"
     inkscape:pageshadow="2"
     inkscape:zoom="11.2"
     inkscape:cx="46.843902"
     inkscape:cy="-1.0347522"
     inkscape:document-units="mm"
     inkscape:current-layer="layer1"
     showgrid="false"
     fit-margin-top="0"
     fit-margin-left="0"
     fit-margin-right="0"
     fit-margin-bottom="0"
     inkscape:window-width="2560"
     inkscape:window-height="1556"
     inkscape:window-x="0"
     inkscape:window-y="0"
     inkscape:window-maximized="1" />
  <metadata
     id="metadata14559">
    <rdf:RDF>
      <cc:Work
         rdf:about="">
        <dc:format>image/svg+xml</dc:format>
        <dc:type
           rdf:resource="http://purl.org/dc/dcmitype/StillImage" />
        <dc:title></dc:title>
      </cc:Work>
    </rdf:RDF>
  </metadata>
  <g
     inkscape:label="Calque 1"
     inkscape:groupmode="layer"
     id="layer1"
     transform="translate(-58.64638,-73.134822)">
    <path
       id="path870"
       d="m 58.64638,83.96045 1.70998,-7.491566 6.9234,-3.334062 6.92341,3.334062 1.70997,7.491566 -4.7912,6.007793 h -7.68435 z"
       inkscape:connector-curvature="0"
       style="fill:#326ce5;fill-opacity:1;fill-rule:evenodd;stroke:none;stroke-width:0.26458332;stroke-linecap:square;stroke-miterlimit:10" />
    <path
       id="path1142"
       d="m 62.57768,80.402515 v 0 c 0,0.621121 2.07255,1.124639 4.62917,1.124639 2.55662,0 4.62917,-0.503518 4.62917,-1.124639 v 3.042391 c 0,0.62112 -2.07255,1.124638 -4.62917,1.124638 -2.55662,0 -4.62917,-0.503518 -4.62917,-1.124638 z"
       inkscape:connector-curvature="0"
       style="fill:#eeeeee;fill-rule:evenodd;stroke:none;stroke-width:0.26458332;stroke-linecap:square;stroke-miterlimit:10" />
    <path
       id="path1144"
       d="m 62.57768,80.402515 v 0 c 0,-0.621119 2.07255,-1.124637 4.62917,-1.124637 2.55662,0 4.62917,0.503518 4.62917,1.124637 v 0 c 0,0.621121 -2.07255,1.124639 -4.62917,1.124639 -2.55662,0 -4.62917,-0.503518 -4.62917,-1.124639 z"
       inkscape:connector-curvature="0"
       style="fill:#f4f4f4;fill-rule:evenodd;stroke:none;stroke-width:0.26458332;stroke-linecap:square;stroke-miterlimit:10" />
    <path
       id="path1146"
       d="m 71.83602,80.402515 v 0 c 0,0.621121 -2.07255,1.124639 -4.62917,1.124639 -2.55662,0 -4.62917,-0.503518 -4.62917,-1.124639 v 0 c 0,-0.621119 2.07255,-1.124637 4.62917,-1.124637 2.55662,0 4.62917,0.503518 4.62917,1.124637 v 3.042391 c 0,0.62112 -2.07255,1.124638 -4.62917,1.124638 -2.55662,0 -4.62917,-0.503518 -4.62917,-1.124638 v -3.042391"
       inkscape:connector-curvature="0"
       style="fill:#000000;fill-opacity:0;fill-rule:evenodd;stroke:none;stroke-width:0.26458332;stroke-linecap:square;stroke-miterlimit:10" />
    <path
       id="path1148"
       d="m 71.83602,80.402515 v 0 c 0,0.621121 -2.07255,1.124639 -4.62917,1.124639 -2.55662,0 -4.62917,-0.503518 -4.62917,-1.124639 v 0 c 0,-0.621119 2.07255,-1.124637 4.62917,-1.124637 2.55662,0 4.62917,0.503518 4.62917,1.124637 v 3.042391 c 0,0.62112 -2.07255,1.124638 -4.62917,1.124638 -2.55662,0 -4.62917,-0.503518 -4.62917,-1.124638 v -3.042391"
       inkscape:connector-curvature="0"
       style="fill:none;fill-rule:evenodd;stroke:#326ce5;stroke-width:0.26458332;stroke-linecap:butt;stroke-linejoin:round;stroke-miterlimit:10;stroke-opacity:1" />
    <path
       id="path1150"
       d="m 61.89226,85.663981 h 10.775 v 4.308334 h -10.775 z"
       inkscape:connector-curvature="0"
       style="fill:#000000;fill-opacity:0;fill-rule:evenodd;stroke:none;stroke-width:0.26458332;stroke-linecap:square;stroke-miterlimit:10" />
    <path
       id="path1152"
       d="m 66.06885,88.807691 -0.55397,-1.463477 h 0.26045 l 0.31419,0.876433 q 0.0496,0.14056 0.0951,0.293522 0.0289,-0.115755 0.0909,-0.276986 l 0.32246,-0.892969 h 0.25631 l -0.55397,1.463477 z m 0.91364,-0.731738 q 0,-0.405144 0.22324,-0.599447 0.19017,-0.165365 0.45889,-0.165365 0.30179,0 0.49196,0.198438 0.1943,0.198437 0.1943,0.545703 0,0.28112 -0.0868,0.446484 -0.0827,0.161231 -0.24392,0.252181 -0.16123,0.08682 -0.35553,0.08682 -0.30592,0 -0.49609,-0.194304 -0.18604,-0.198437 -0.18604,-0.570507 z m 0.25218,0 q 0,0.281119 0.12403,0.421679 0.12402,0.14056 0.30592,0.14056 0.18603,0 0.30593,-0.14056 0.12402,-0.14056 0.12402,-0.429948 0,-0.268717 -0.12402,-0.409277 -0.1199,-0.14056 -0.30593,-0.14056 -0.1819,0 -0.30592,0.14056 -0.12403,0.136426 -0.12403,0.417546 z m 1.40269,0.731738 v -2.017448 h 0.24804 v 2.017448 z"
       inkscape:connector-curvature="0"
       style="fill:#eeeeee;fill-rule:nonzero;stroke:none;stroke-width:0.26458332;stroke-linecap:square;stroke-miterlimit:10" />
  </g>
</svg>
