<svg height="17.500378mm" viewBox="0 0 18.035334 17.500378" width="18.035334mm" xmlns="http://www.w3.org/2000/svg"><g transform="translate(-.992626 -1.174181)"><g transform="matrix(1.0148887 0 0 1.0148887 16.902146 -2.698726)"><path d="m-6.8492015 4.2724668a1.1191255 1.1099671 0 0 0 -.4288818.1085303l-5.8524037 2.7963394a1.1191255 1.1099671 0 0 0 -.605524.7529759l-1.443828 6.2812846a1.1191255 1.1099671 0 0 0 .151943.851028 1.1191255 1.1099671 0 0 0 .06362.08832l4.0508 5.036555a1.1191255 1.1099671 0 0 0 .874979.417654l6.4961011-.0015a1.1191255 1.1099671 0 0 0 .8749788-.416906l4.0493043-5.037295a1.1191255 1.1099671 0 0 0 .2163114-.939349l-1.44607203-6.2812886a1.1191255 1.1099671 0 0 0 -.60552451-.7529758l-5.85315166-2.7948425a1.1191255 1.1099671 0 0 0 -.5426519-.1085303z" fill="#326ce5"/><path d="m-6.8523435 3.8176372a1.1814304 1.171762 0 0 0 -.4520849.1152668l-6.1787426 2.9512758a1.1814304 1.171762 0 0 0 -.639206.794891l-1.523915 6.6308282a1.1814304 1.171762 0 0 0 .160175.89893 1.1814304 1.171762 0 0 0 .06736.09281l4.276094 5.317236a1.1814304 1.171762 0 0 0 .92363.440858l6.8576188-.0015a1.1814304 1.171762 0 0 0 .9236308-.44011l4.2745966-5.317985a1.1814304 1.171762 0 0 0 .228288-.990993l-1.52615681-6.6315712a1.1814304 1.171762 0 0 0 -.6392054-.7941425l-6.17874269-2.9512758a1.1814304 1.171762 0 0 0 -.5733398-.1145183zm.00299.4550789a1.1191255 1.1099671 0 0 1 .5426517.1085303l5.85315169 2.7948425a1.1191255 1.1099671 0 0 1 .60552822.7529759l1.44607289 6.2812852a1.1191255 1.1099671 0 0 1 -.2163123.939348l-4.0493032 5.037304a1.1191255 1.1099671 0 0 1 -.8749789.416906l-6.4961006.0015a1.1191255 1.1099671 0 0 1 -.874979-.417652l-4.0508-5.036554a1.1191255 1.1099671 0 0 1 -.06362-.08832 1.1191255 1.1099671 0 0 1 -.151942-.851028l1.443827-6.2812853a1.1191255 1.1099671 0 0 1 .605524-.7529758l5.8524036-2.7963395a1.1191255 1.1099671 0 0 1 .4288819-.1085303z" fill="#fff"/></g><g fill="#fff"><text font-family="Sans" font-size="10.583333" letter-spacing="0" stroke-width=".264583" word-spacing="0" x="10.055769" y="16.811775"><tspan fill="#fff" font-family="Arial" font-size="2.822222" stroke-width=".264583" text-anchor="middle" x="10.055769" y="16.811775">api</tspan></text><path d="m9.9922574 4.4469925c-.1383234-.0044-3.9953139 1.8917791-4.0457429 1.9890241-.121153.233682-.998802 4.2814784-.947235 4.3687244.03.05065.662199.852305 1.404567 1.780771l1.349798 1.687754 2.2215743.0011 2.2215722.0011 1.412819-1.765784 1.41388-1.765265-.49456-2.1688607c-.2722-1.1927408-.51564-2.1882807-.54051-2.2122707-.0695-.06688-3.92118-1.9137391-3.9961626-1.9161601zm.2361666 1.9828241c.186637.008.205792.291571.605128.321427.5216.039.465508-.446651.864553-.108522.399044.338125-.0889.362641.03514.870749.12409.5081041.568801.3050991.370523.7890987-.198279.484002-.372613.02728-.81751.302308-.444897.275023-.114564.635346-.636138.596347-.521652-.039-.140467-.346065-.53951-.684197-.399044-.3381318-.6402382.08746-.7643012-.4206476-.12409-.5081081.2859352-.2410172.4842142-.725019.198701-.4840471-.2810942-.5812531.1638294-.8562791.05564-.03434.1018906-.05688.1421056-.07028.03508-.01167.06533-.01614.09197-.01497zm.521493.572059c-.07578-.0005306-.151209.01021-.223758.03204-.400393.120732-.626954.5433219-.505909.943613.12094.3999197.54311.6261487.943107.5053937.399838-.120746.626268-.5426107.505909-.9425788-.09575-.3178199-.387429-.5361539-.719349-.5384659zm-2.9926475 1.3017277c.03969.00079.08832.009.1482991.02739.4799279.147138-.0077.399503.334354.766879.3420531.367377.6285182-.101086.7410452.388091.112527.4891777-.3499913.192921-.4971261.6728277-.1471612.479904.4014791.494083.03411.836123-.367374.342041-.3418151-.20606-.8309501-.09353-.489188.112527-.227039.594654-.70694.447516-.479928-.147137.0077-.3995-.334354-.766876-.342054-.367379-.628518.100571-.741045-.388607-.112528-.48918.349991-.192924.497125-.6728267.147162-.479907-.401981-.49357-.03461-.83561.367374-.342043.342291.206065.831453.09354.428043-.09846.280643-.479607.558641-.474906zm3.5672165.524516c.04551.000536.100807.01243.170022.03927.55327.214739-.175234.545894.253735.9560137.428969.410118.727472-.3327417.966867.210323.239369.543065-.510434.262432-.497126.855763.01323.593331.749591.27872.534829.83199-.214709.553268-.545888-.175247-.955992.25373-.410131.428977.33221.726972-.210847.966348-.543057.23938-.261382-.509939-.854736-.496609-.593328.01333-.279215.749072-.83251.534334-.5532432-.214739.175259-.545894-.253735-.956014-.4289692-.41012-.7269692.33274-.9663384-.210323-.2393679-.543065.5099052-.261913.4966232-.855244-.01349-.593331-.7495911-.279239-.5348553-.832509.2147363-.5532697.5463913.175763.9565225-.253214.410103-.4289767-.3327672-.7274877.210317-.9668637.543055-.239377.26191.509939.855237.496609.519192-.01167.343429-.576408.661987-.573608zm-3.8814095.25528c-.417988-.000158-.756946.338564-.757078.7565447-.000159.418182.338905.757219.757078.75706.4179631-.000148.756682-.339095.7565239-.75706-.0001329-.4177637-.3387728-.7563967-.7565239-.7565447zm3.2535535.7250217c-.615684.000042-1.114846.498983-1.11519 1.114661-.000238.616082.499109 1.11565 1.11519 1.115692.616268.000222 1.115907-.499425 1.115669-1.115692 0-.615866-.499798-1.114883-1.115669-1.114661z"/></g></g></svg>